<?xml version="1.0" encoding="utf-8" standalone="no"?>
<!DOCTYPE svg PUBLIC "-//W3C//DTD SVG 1.1//EN"
  "http://www.w3.org/Graphics/SVG/1.1/DTD/svg11.dtd">
<svg xmlns:xlink="http://www.w3.org/1999/xlink" width="460.8pt" height="345.6pt" viewBox="0 0 460.8 345.6" xmlns="http://www.w3.org/2000/svg" version="1.1">
 <metadata>
  <rdf:RDF xmlns:dc="http://purl.org/dc/elements/1.1/" xmlns:cc="http://creativecommons.org/ns#" xmlns:rdf="http://www.w3.org/1999/02/22-rdf-syntax-ns#">
   <cc:Work>
    <dc:type rdf:resource="http://purl.org/dc/dcmitype/StillImage"/>
    <dc:date>2023-07-11T02:03:46.206658</dc:date>
    <dc:format>image/svg+xml</dc:format>
    <dc:creator>
     <cc:Agent>
      <dc:title>Matplotlib v3.7.1, https://matplotlib.org/</dc:title>
     </cc:Agent>
    </dc:creator>
   </cc:Work>
  </rdf:RDF>
 </metadata>
 <defs>
  <style type="text/css">*{stroke-linejoin: round; stroke-linecap: butt}</style>
 </defs>
 <g id="figure_1">
  <g id="patch_1">
   <path d="M 0 345.6 
L 460.8 345.6 
L 460.8 0 
L 0 0 
z
" style="fill: #ffffff"/>
  </g>
  <g id="axes_1">
   <g id="patch_2">
    <path d="M 74.56 84.585 
L 447.84 84.585 
L 447.84 27.76 
L 74.56 27.76 
z
" style="fill: #ffffff"/>
   </g>
   <g id="matplotlib.axis_1">
    <g id="xtick_1">
     <g id="line2d_1">
      <defs>
       <path id="md547111b5d" d="M 0 0 
L 0 6 
" style="stroke: #262626; stroke-width: 1.25"/>
      </defs>
      <g>
       <use xlink:href="#md547111b5d" x="119.914345" y="84.585" style="fill: #262626; stroke: #262626; stroke-width: 1.25"/>
      </g>
     </g>
    </g>
    <g id="xtick_2">
     <g id="line2d_2">
      <g>
       <use xlink:href="#md547111b5d" x="170.078999" y="84.585" style="fill: #262626; stroke: #262626; stroke-width: 1.25"/>
      </g>
     </g>
    </g>
    <g id="xtick_3">
     <g id="line2d_3">
      <g>
       <use xlink:href="#md547111b5d" x="220.243652" y="84.585" style="fill: #262626; stroke: #262626; stroke-width: 1.25"/>
      </g>
     </g>
    </g>
    <g id="xtick_4">
     <g id="line2d_4">
      <g>
       <use xlink:href="#md547111b5d" x="270.408306" y="84.585" style="fill: #262626; stroke: #262626; stroke-width: 1.25"/>
      </g>
     </g>
    </g>
    <g id="xtick_5">
     <g id="line2d_5">
      <g>
       <use xlink:href="#md547111b5d" x="320.710398" y="84.585" style="fill: #262626; stroke: #262626; stroke-width: 1.25"/>
      </g>
     </g>
    </g>
    <g id="xtick_6">
     <g id="line2d_6">
      <g>
       <use xlink:href="#md547111b5d" x="370.875052" y="84.585" style="fill: #262626; stroke: #262626; stroke-width: 1.25"/>
      </g>
     </g>
    </g>
    <g id="xtick_7">
     <g id="line2d_7">
      <g>
       <use xlink:href="#md547111b5d" x="421.039705" y="84.585" style="fill: #262626; stroke: #262626; stroke-width: 1.25"/>
      </g>
     </g>
    </g>
   </g>
   <g id="matplotlib.axis_2">
    <g id="ytick_1">
     <g id="line2d_8">
      <defs>
       <path id="m172e32f6f8" d="M 0 0 
L -6 0 
" style="stroke: #262626; stroke-width: 1.25"/>
      </defs>
      <g>
       <use xlink:href="#m172e32f6f8" x="74.56" y="82.023816" style="fill: #262626; stroke: #262626; stroke-width: 1.25"/>
      </g>
     </g>
     <g id="text_1">
      <!-- 0 -->
      <g style="fill: #262626" transform="translate(58.942969 85.960613) scale(0.11 -0.11)">
       <defs>
        <path id="ArialMT-30" d="M 266 2259 
Q 266 3072 433 3567 
Q 600 4063 929 4331 
Q 1259 4600 1759 4600 
Q 2128 4600 2406 4451 
Q 2684 4303 2865 4023 
Q 3047 3744 3150 3342 
Q 3253 2941 3253 2259 
Q 3253 1453 3087 958 
Q 2922 463 2592 192 
Q 2263 -78 1759 -78 
Q 1097 -78 719 397 
Q 266 969 266 2259 
z
M 844 2259 
Q 844 1131 1108 757 
Q 1372 384 1759 384 
Q 2147 384 2411 759 
Q 2675 1134 2675 2259 
Q 2675 3391 2411 3762 
Q 2147 4134 1753 4134 
Q 1366 4134 1134 3806 
Q 844 3388 844 2259 
z
" transform="scale(0.015625)"/>
       </defs>
       <use xlink:href="#ArialMT-30"/>
      </g>
     </g>
    </g>
    <g id="ytick_2">
     <g id="line2d_9">
      <g>
       <use xlink:href="#m172e32f6f8" x="74.56" y="54.810472" style="fill: #262626; stroke: #262626; stroke-width: 1.25"/>
      </g>
     </g>
     <g id="text_2">
      <!-- 10000 -->
      <g style="fill: #262626" transform="translate(34.474844 58.747269) scale(0.11 -0.11)">
       <defs>
        <path id="ArialMT-31" d="M 2384 0 
L 1822 0 
L 1822 3584 
Q 1619 3391 1289 3197 
Q 959 3003 697 2906 
L 697 3450 
Q 1169 3672 1522 3987 
Q 1875 4303 2022 4600 
L 2384 4600 
L 2384 0 
z
" transform="scale(0.015625)"/>
       </defs>
       <use xlink:href="#ArialMT-31"/>
       <use xlink:href="#ArialMT-30" x="55.615234"/>
       <use xlink:href="#ArialMT-30" x="111.230469"/>
       <use xlink:href="#ArialMT-30" x="166.845703"/>
       <use xlink:href="#ArialMT-30" x="222.460938"/>
      </g>
     </g>
    </g>
   </g>
   <g id="line2d_10">
    <path d="M 74.56 78.68746 
L 75.522062 78.584049 
L 77.446186 77.397548 
L 78.408247 76.224653 
L 79.370309 76.189275 
L 81.294433 74.276177 
L 82.256495 74.219029 
L 84.180619 72.831149 
L 85.14268 72.512752 
L 86.104742 71.816091 
L 87.066804 70.313914 
L 88.028866 70.254045 
L 88.990928 68.621244 
L 89.95299 68.599474 
L 90.915052 67.380316 
L 91.877113 67.315004 
L 92.839175 65.083509 
L 93.801237 64.629047 
L 94.763299 64.561013 
L 95.725361 63.63576 
L 96.687423 63.600382 
L 97.649485 61.559381 
L 98.611546 61.529447 
L 99.573608 59.70071 
L 100.53567 59.646283 
L 102.459794 58.043417 
L 103.421856 57.27328 
L 104.383918 56.74262 
L 105.345979 55.90717 
L 106.308041 55.409166 
L 107.270103 54.668963 
L 108.232165 54.121975 
L 109.194227 53.70561 
L 110.156289 52.701438 
L 111.118351 52.693274 
L 114.966598 49.528362 
L 115.92866 48.252056 
L 116.890722 48.2194 
L 117.852784 47.707789 
L 118.814845 46.368893 
L 122.663093 81.999324 
L 124.587216 81.406073 
L 125.549278 80.676756 
L 126.51134 79.694354 
L 127.473402 79.242612 
L 128.435464 76.940363 
L 129.397526 76.885937 
L 130.359588 74.842215 
L 131.321649 74.779624 
L 132.283711 74.246242 
L 133.245773 72.436555 
L 134.207835 72.368522 
L 135.169897 71.445989 
L 136.131959 70.186011 
L 138.056082 68.022551 
L 139.018144 67.497333 
L 140.942268 65.453611 
L 141.90433 64.876688 
L 142.866392 63.788154 
L 144.790515 61.845122 
L 145.752577 60.582422 
L 146.714639 59.793235 
L 147.676701 57.608004 
L 148.638763 57.542692 
L 149.600825 56.965769 
L 150.562887 55.537068 
L 151.524948 54.856735 
L 152.48701 48.943275 
L 153.449072 48.861635 
L 154.411134 47.506411 
L 157.29732 44.940192 
L 158.259381 43.987725 
L 159.221443 43.416245 
L 160.183505 39.356014 
L 161.145567 39.130143 
L 162.107629 39.094766 
L 163.069691 38.357284 
L 164.031753 37.815739 
L 164.993814 35.271291 
L 165.955876 34.96378 
L 166.917938 34.912075 
L 167.88 33.671147 
L 168.842062 31.162076 
L 169.804124 30.582432 
L 170.766186 30.342955 
L 172.690309 81.958504 
L 173.652371 81.667321 
L 174.614433 81.055021 
L 175.576495 79.980094 
L 176.538557 79.163694 
L 177.500619 76.589311 
L 178.46268 76.537606 
L 180.386804 74.559196 
L 190.969485 62.917327 
L 191.931546 62.158075 
L 192.893608 61.132132 
L 193.85567 59.755137 
L 194.817732 58.740079 
L 195.779794 57.330428 
L 199.628041 53.098753 
L 200.590103 51.762578 
L 202.514227 49.582789 
L 204.438351 48.184023 
L 205.400412 47.236998 
L 206.362474 46.681846 
L 207.324536 45.928037 
L 208.286598 44.319728 
L 209.24866 43.750969 
L 210.210722 43.027094 
L 211.172784 41.660984 
L 212.134845 40.607828 
L 213.096907 39.867625 
L 214.058969 39.453982 
L 215.021031 38.651188 
L 215.983093 37.320456 
L 216.945155 37.20616 
L 217.907216 36.201988 
L 219.83134 34.675319 
L 220.793402 33.763672 
L 221.755464 33.295602 
L 224.641649 81.955783 
L 225.603711 81.800667 
L 226.565773 81.50132 
L 227.527835 80.80738 
L 228.489897 78.597656 
L 229.451959 78.535065 
L 230.414021 78.254768 
L 231.376082 77.179841 
L 232.338144 76.87233 
L 233.300206 76.344391 
L 234.262268 75.62868 
L 235.22433 75.522548 
L 236.186392 73.922404 
L 237.148454 72.899182 
L 238.110515 71.375235 
L 240.996701 68.457964 
L 241.958763 67.100018 
L 242.920825 66.370701 
L 243.882887 65.342036 
L 244.844948 64.882131 
L 245.80701 63.548677 
L 247.731134 62.223387 
L 248.693196 60.541602 
L 249.655258 59.439462 
L 250.61732 58.927851 
L 251.579381 57.218853 
L 252.541443 56.465043 
L 257.351753 50.472665 
L 260.237938 47.735003 
L 262.162062 46.398828 
L 263.124124 45.479016 
L 264.086186 44.959242 
L 265.048247 44.583697 
L 266.010309 43.857101 
L 266.972371 42.988996 
L 267.934433 42.373974 
L 268.896495 40.988815 
L 269.858557 40.988815 
L 270.820619 40.316645 
L 271.78268 40.262218 
L 272.744742 39.309751 
L 273.706804 39.070274 
L 275.630928 81.670043 
L 276.59299 80.867249 
L 279.479175 80.173309 
L 280.441237 80.105275 
L 281.403299 79.786879 
L 282.365361 79.601829 
L 284.289485 78.597656 
L 299.682474 68.485177 
L 300.644536 68.291963 
L 301.606598 67.706876 
L 302.56866 67.494612 
L 304.492784 66.506767 
L 305.454845 66.338045 
L 313.15134 63.837138 
L 314.113402 63.322806 
L 318.923711 61.913155 
L 319.885773 61.477741 
L 321.809897 60.987901 
L 322.771959 60.971573 
L 325.658144 60.307568 
L 327.582268 81.961225 
L 331.430515 80.878134 
L 332.392577 80.867249 
L 333.354639 80.366523 
L 337.202887 79.231727 
L 342.013196 77.650632 
L 343.93732 77.024725 
L 344.899381 76.616525 
L 345.861443 75.48445 
L 346.823505 75.068085 
L 347.785567 74.820444 
L 349.709691 73.99588 
L 350.671753 73.544138 
L 351.633814 72.880133 
L 353.557938 72.436555 
L 356.444124 71.546679 
L 358.368247 71.173856 
L 360.292371 70.659524 
L 363.178557 70.343849 
L 368.950928 68.866164 
L 373.761237 67.538153 
L 374.723299 67.404808 
L 375.685361 67.135396 
L 376.647423 66.721753 
L 378.571546 82.002045 
L 379.533608 81.8687 
L 380.49567 81.427844 
L 381.457732 80.467213 
L 384.343918 79.27799 
L 386.268041 78.447983 
L 387.230103 78.143193 
L 389.154227 77.315908 
L 398.774845 73.712861 
L 401.661031 72.561736 
L 403.585155 72.069175 
L 406.47134 71.086773 
L 411.281649 70.109814 
L 414.167835 69.636302 
L 417.054021 68.972296 
L 418.978144 68.474292 
L 419.940206 68.270192 
L 423.788454 67.029264 
L 425.712577 66.59385 
L 427.636701 65.957058 
L 430.522887 81.444172 
L 432.44701 80.654985 
L 433.409072 80.448164 
L 438.219381 78.671132 
L 443.991753 75.783796 
L 447.84 73.375415 
L 447.84 73.375415 
" clip-path="url(#p280f57e802)" style="fill: none; stroke: #4c72b0; stroke-width: 1.5; stroke-linecap: round"/>
   </g>
   <g id="patch_3">
    <path d="M 74.56 84.585 
L 74.56 27.76 
" style="fill: none; stroke: #262626; stroke-width: 1.25; stroke-linejoin: miter; stroke-linecap: square"/>
   </g>
   <g id="patch_4">
    <path d="M 447.84 84.585 
L 447.84 27.76 
" style="fill: none; stroke: #262626; stroke-width: 1.25; stroke-linejoin: miter; stroke-linecap: square"/>
   </g>
   <g id="patch_5">
    <path d="M 74.56 84.585 
L 447.84 84.585 
" style="fill: none; stroke: #262626; stroke-width: 1.25; stroke-linejoin: miter; stroke-linecap: square"/>
   </g>
   <g id="patch_6">
    <path d="M 74.56 27.76 
L 447.84 27.76 
" style="fill: none; stroke: #262626; stroke-width: 1.25; stroke-linejoin: miter; stroke-linecap: square"/>
   </g>
   <g id="text_3">
    <!-- Acute bloody diarrhea -->
    <g style="fill: #262626" transform="translate(202.833125 21.76) scale(0.12 -0.12)">
     <defs>
      <path id="ArialMT-41" d="M -9 0 
L 1750 4581 
L 2403 4581 
L 4278 0 
L 3588 0 
L 3053 1388 
L 1138 1388 
L 634 0 
L -9 0 
z
M 1313 1881 
L 2866 1881 
L 2388 3150 
Q 2169 3728 2063 4100 
Q 1975 3659 1816 3225 
L 1313 1881 
z
" transform="scale(0.015625)"/>
      <path id="ArialMT-63" d="M 2588 1216 
L 3141 1144 
Q 3050 572 2676 248 
Q 2303 -75 1759 -75 
Q 1078 -75 664 370 
Q 250 816 250 1647 
Q 250 2184 428 2587 
Q 606 2991 970 3192 
Q 1334 3394 1763 3394 
Q 2303 3394 2647 3120 
Q 2991 2847 3088 2344 
L 2541 2259 
Q 2463 2594 2264 2762 
Q 2066 2931 1784 2931 
Q 1359 2931 1093 2626 
Q 828 2322 828 1663 
Q 828 994 1084 691 
Q 1341 388 1753 388 
Q 2084 388 2306 591 
Q 2528 794 2588 1216 
z
" transform="scale(0.015625)"/>
      <path id="ArialMT-75" d="M 2597 0 
L 2597 488 
Q 2209 -75 1544 -75 
Q 1250 -75 995 37 
Q 741 150 617 320 
Q 494 491 444 738 
Q 409 903 409 1263 
L 409 3319 
L 972 3319 
L 972 1478 
Q 972 1038 1006 884 
Q 1059 663 1231 536 
Q 1403 409 1656 409 
Q 1909 409 2131 539 
Q 2353 669 2445 892 
Q 2538 1116 2538 1541 
L 2538 3319 
L 3100 3319 
L 3100 0 
L 2597 0 
z
" transform="scale(0.015625)"/>
      <path id="ArialMT-74" d="M 1650 503 
L 1731 6 
Q 1494 -44 1306 -44 
Q 1000 -44 831 53 
Q 663 150 594 308 
Q 525 466 525 972 
L 525 2881 
L 113 2881 
L 113 3319 
L 525 3319 
L 525 4141 
L 1084 4478 
L 1084 3319 
L 1650 3319 
L 1650 2881 
L 1084 2881 
L 1084 941 
Q 1084 700 1114 631 
Q 1144 563 1211 522 
Q 1278 481 1403 481 
Q 1497 481 1650 503 
z
" transform="scale(0.015625)"/>
      <path id="ArialMT-65" d="M 2694 1069 
L 3275 997 
Q 3138 488 2766 206 
Q 2394 -75 1816 -75 
Q 1088 -75 661 373 
Q 234 822 234 1631 
Q 234 2469 665 2931 
Q 1097 3394 1784 3394 
Q 2450 3394 2872 2941 
Q 3294 2488 3294 1666 
Q 3294 1616 3291 1516 
L 816 1516 
Q 847 969 1125 678 
Q 1403 388 1819 388 
Q 2128 388 2347 550 
Q 2566 713 2694 1069 
z
M 847 1978 
L 2700 1978 
Q 2663 2397 2488 2606 
Q 2219 2931 1791 2931 
Q 1403 2931 1139 2672 
Q 875 2413 847 1978 
z
" transform="scale(0.015625)"/>
      <path id="ArialMT-20" transform="scale(0.015625)"/>
      <path id="ArialMT-62" d="M 941 0 
L 419 0 
L 419 4581 
L 981 4581 
L 981 2947 
Q 1338 3394 1891 3394 
Q 2197 3394 2470 3270 
Q 2744 3147 2920 2923 
Q 3097 2700 3197 2384 
Q 3297 2069 3297 1709 
Q 3297 856 2875 390 
Q 2453 -75 1863 -75 
Q 1275 -75 941 416 
L 941 0 
z
M 934 1684 
Q 934 1088 1097 822 
Q 1363 388 1816 388 
Q 2184 388 2453 708 
Q 2722 1028 2722 1663 
Q 2722 2313 2464 2622 
Q 2206 2931 1841 2931 
Q 1472 2931 1203 2611 
Q 934 2291 934 1684 
z
" transform="scale(0.015625)"/>
      <path id="ArialMT-6c" d="M 409 0 
L 409 4581 
L 972 4581 
L 972 0 
L 409 0 
z
" transform="scale(0.015625)"/>
      <path id="ArialMT-6f" d="M 213 1659 
Q 213 2581 725 3025 
Q 1153 3394 1769 3394 
Q 2453 3394 2887 2945 
Q 3322 2497 3322 1706 
Q 3322 1066 3130 698 
Q 2938 331 2570 128 
Q 2203 -75 1769 -75 
Q 1072 -75 642 372 
Q 213 819 213 1659 
z
M 791 1659 
Q 791 1022 1069 705 
Q 1347 388 1769 388 
Q 2188 388 2466 706 
Q 2744 1025 2744 1678 
Q 2744 2294 2464 2611 
Q 2184 2928 1769 2928 
Q 1347 2928 1069 2612 
Q 791 2297 791 1659 
z
" transform="scale(0.015625)"/>
      <path id="ArialMT-64" d="M 2575 0 
L 2575 419 
Q 2259 -75 1647 -75 
Q 1250 -75 917 144 
Q 584 363 401 755 
Q 219 1147 219 1656 
Q 219 2153 384 2558 
Q 550 2963 881 3178 
Q 1213 3394 1622 3394 
Q 1922 3394 2156 3267 
Q 2391 3141 2538 2938 
L 2538 4581 
L 3097 4581 
L 3097 0 
L 2575 0 
z
M 797 1656 
Q 797 1019 1065 703 
Q 1334 388 1700 388 
Q 2069 388 2326 689 
Q 2584 991 2584 1609 
Q 2584 2291 2321 2609 
Q 2059 2928 1675 2928 
Q 1300 2928 1048 2622 
Q 797 2316 797 1656 
z
" transform="scale(0.015625)"/>
      <path id="ArialMT-79" d="M 397 -1278 
L 334 -750 
Q 519 -800 656 -800 
Q 844 -800 956 -737 
Q 1069 -675 1141 -563 
Q 1194 -478 1313 -144 
Q 1328 -97 1363 -6 
L 103 3319 
L 709 3319 
L 1400 1397 
Q 1534 1031 1641 628 
Q 1738 1016 1872 1384 
L 2581 3319 
L 3144 3319 
L 1881 -56 
Q 1678 -603 1566 -809 
Q 1416 -1088 1222 -1217 
Q 1028 -1347 759 -1347 
Q 597 -1347 397 -1278 
z
" transform="scale(0.015625)"/>
      <path id="ArialMT-69" d="M 425 3934 
L 425 4581 
L 988 4581 
L 988 3934 
L 425 3934 
z
M 425 0 
L 425 3319 
L 988 3319 
L 988 0 
L 425 0 
z
" transform="scale(0.015625)"/>
      <path id="ArialMT-61" d="M 2588 409 
Q 2275 144 1986 34 
Q 1697 -75 1366 -75 
Q 819 -75 525 192 
Q 231 459 231 875 
Q 231 1119 342 1320 
Q 453 1522 633 1644 
Q 813 1766 1038 1828 
Q 1203 1872 1538 1913 
Q 2219 1994 2541 2106 
Q 2544 2222 2544 2253 
Q 2544 2597 2384 2738 
Q 2169 2928 1744 2928 
Q 1347 2928 1158 2789 
Q 969 2650 878 2297 
L 328 2372 
Q 403 2725 575 2942 
Q 747 3159 1072 3276 
Q 1397 3394 1825 3394 
Q 2250 3394 2515 3294 
Q 2781 3194 2906 3042 
Q 3031 2891 3081 2659 
Q 3109 2516 3109 2141 
L 3109 1391 
Q 3109 606 3145 398 
Q 3181 191 3288 0 
L 2700 0 
Q 2613 175 2588 409 
z
M 2541 1666 
Q 2234 1541 1622 1453 
Q 1275 1403 1131 1340 
Q 988 1278 909 1158 
Q 831 1038 831 891 
Q 831 666 1001 516 
Q 1172 366 1500 366 
Q 1825 366 2078 508 
Q 2331 650 2450 897 
Q 2541 1088 2541 1459 
L 2541 1666 
z
" transform="scale(0.015625)"/>
      <path id="ArialMT-72" d="M 416 0 
L 416 3319 
L 922 3319 
L 922 2816 
Q 1116 3169 1280 3281 
Q 1444 3394 1641 3394 
Q 1925 3394 2219 3213 
L 2025 2691 
Q 1819 2813 1613 2813 
Q 1428 2813 1281 2702 
Q 1134 2591 1072 2394 
Q 978 2094 978 1738 
L 978 0 
L 416 0 
z
" transform="scale(0.015625)"/>
      <path id="ArialMT-68" d="M 422 0 
L 422 4581 
L 984 4581 
L 984 2938 
Q 1378 3394 1978 3394 
Q 2347 3394 2619 3248 
Q 2891 3103 3008 2847 
Q 3125 2591 3125 2103 
L 3125 0 
L 2563 0 
L 2563 2103 
Q 2563 2525 2380 2717 
Q 2197 2909 1863 2909 
Q 1613 2909 1392 2779 
Q 1172 2650 1078 2428 
Q 984 2206 984 1816 
L 984 0 
L 422 0 
z
" transform="scale(0.015625)"/>
     </defs>
     <use xlink:href="#ArialMT-41"/>
     <use xlink:href="#ArialMT-63" x="66.699219"/>
     <use xlink:href="#ArialMT-75" x="116.699219"/>
     <use xlink:href="#ArialMT-74" x="172.314453"/>
     <use xlink:href="#ArialMT-65" x="200.097656"/>
     <use xlink:href="#ArialMT-20" x="255.712891"/>
     <use xlink:href="#ArialMT-62" x="283.496094"/>
     <use xlink:href="#ArialMT-6c" x="339.111328"/>
     <use xlink:href="#ArialMT-6f" x="361.328125"/>
     <use xlink:href="#ArialMT-6f" x="416.943359"/>
     <use xlink:href="#ArialMT-64" x="472.558594"/>
     <use xlink:href="#ArialMT-79" x="528.173828"/>
     <use xlink:href="#ArialMT-20" x="578.173828"/>
     <use xlink:href="#ArialMT-64" x="605.957031"/>
     <use xlink:href="#ArialMT-69" x="661.572266"/>
     <use xlink:href="#ArialMT-61" x="683.789062"/>
     <use xlink:href="#ArialMT-72" x="739.404297"/>
     <use xlink:href="#ArialMT-72" x="772.705078"/>
     <use xlink:href="#ArialMT-68" x="806.005859"/>
     <use xlink:href="#ArialMT-65" x="861.621094"/>
     <use xlink:href="#ArialMT-61" x="917.236328"/>
    </g>
   </g>
  </g>
  <g id="axes_2">
   <g id="patch_7">
    <path d="M 74.56 160.37 
L 447.84 160.37 
L 447.84 103.545 
L 74.56 103.545 
z
" style="fill: #ffffff"/>
   </g>
   <g id="matplotlib.axis_3">
    <g id="xtick_8">
     <g id="line2d_11">
      <g>
       <use xlink:href="#md547111b5d" x="119.914345" y="160.37" style="fill: #262626; stroke: #262626; stroke-width: 1.25"/>
      </g>
     </g>
    </g>
    <g id="xtick_9">
     <g id="line2d_12">
      <g>
       <use xlink:href="#md547111b5d" x="170.078999" y="160.37" style="fill: #262626; stroke: #262626; stroke-width: 1.25"/>
      </g>
     </g>
    </g>
    <g id="xtick_10">
     <g id="line2d_13">
      <g>
       <use xlink:href="#md547111b5d" x="220.243652" y="160.37" style="fill: #262626; stroke: #262626; stroke-width: 1.25"/>
      </g>
     </g>
    </g>
    <g id="xtick_11">
     <g id="line2d_14">
      <g>
       <use xlink:href="#md547111b5d" x="270.408306" y="160.37" style="fill: #262626; stroke: #262626; stroke-width: 1.25"/>
      </g>
     </g>
    </g>
    <g id="xtick_12">
     <g id="line2d_15">
      <g>
       <use xlink:href="#md547111b5d" x="320.710398" y="160.37" style="fill: #262626; stroke: #262626; stroke-width: 1.25"/>
      </g>
     </g>
    </g>
    <g id="xtick_13">
     <g id="line2d_16">
      <g>
       <use xlink:href="#md547111b5d" x="370.875052" y="160.37" style="fill: #262626; stroke: #262626; stroke-width: 1.25"/>
      </g>
     </g>
    </g>
    <g id="xtick_14">
     <g id="line2d_17">
      <g>
       <use xlink:href="#md547111b5d" x="421.039705" y="160.37" style="fill: #262626; stroke: #262626; stroke-width: 1.25"/>
      </g>
     </g>
    </g>
   </g>
   <g id="matplotlib.axis_4">
    <g id="ytick_3">
     <g id="line2d_18">
      <g>
       <use xlink:href="#m172e32f6f8" x="74.56" y="144.367453" style="fill: #262626; stroke: #262626; stroke-width: 1.25"/>
      </g>
     </g>
     <g id="text_4">
      <!-- 5000 -->
      <g style="fill: #262626" transform="translate(40.591875 148.30425) scale(0.11 -0.11)">
       <defs>
        <path id="ArialMT-35" d="M 266 1200 
L 856 1250 
Q 922 819 1161 601 
Q 1400 384 1738 384 
Q 2144 384 2425 690 
Q 2706 997 2706 1503 
Q 2706 1984 2436 2262 
Q 2166 2541 1728 2541 
Q 1456 2541 1237 2417 
Q 1019 2294 894 2097 
L 366 2166 
L 809 4519 
L 3088 4519 
L 3088 3981 
L 1259 3981 
L 1013 2750 
Q 1425 3038 1878 3038 
Q 2478 3038 2890 2622 
Q 3303 2206 3303 1553 
Q 3303 931 2941 478 
Q 2500 -78 1738 -78 
Q 1113 -78 717 272 
Q 322 622 266 1200 
z
" transform="scale(0.015625)"/>
       </defs>
       <use xlink:href="#ArialMT-35"/>
       <use xlink:href="#ArialMT-30" x="55.615234"/>
       <use xlink:href="#ArialMT-30" x="111.230469"/>
       <use xlink:href="#ArialMT-30" x="166.845703"/>
      </g>
     </g>
    </g>
    <g id="ytick_4">
     <g id="line2d_19">
      <g>
       <use xlink:href="#m172e32f6f8" x="74.56" y="110.263332" style="fill: #262626; stroke: #262626; stroke-width: 1.25"/>
      </g>
     </g>
     <g id="text_5">
      <!-- 10000 -->
      <g style="fill: #262626" transform="translate(34.474844 114.200129) scale(0.11 -0.11)">
       <use xlink:href="#ArialMT-31"/>
       <use xlink:href="#ArialMT-30" x="55.615234"/>
       <use xlink:href="#ArialMT-30" x="111.230469"/>
       <use xlink:href="#ArialMT-30" x="166.845703"/>
       <use xlink:href="#ArialMT-30" x="222.460938"/>
      </g>
     </g>
    </g>
    <g id="text_6">
     <!-- Trend -->
     <g style="fill: #262626" transform="translate(28.089844 147.404687) rotate(-90) scale(0.12 -0.12)">
      <defs>
       <path id="ArialMT-54" d="M 1659 0 
L 1659 4041 
L 150 4041 
L 150 4581 
L 3781 4581 
L 3781 4041 
L 2266 4041 
L 2266 0 
L 1659 0 
z
" transform="scale(0.015625)"/>
       <path id="ArialMT-6e" d="M 422 0 
L 422 3319 
L 928 3319 
L 928 2847 
Q 1294 3394 1984 3394 
Q 2284 3394 2536 3286 
Q 2788 3178 2913 3003 
Q 3038 2828 3088 2588 
Q 3119 2431 3119 2041 
L 3119 0 
L 2556 0 
L 2556 2019 
Q 2556 2363 2490 2533 
Q 2425 2703 2258 2804 
Q 2091 2906 1866 2906 
Q 1506 2906 1245 2678 
Q 984 2450 984 1813 
L 984 0 
L 422 0 
z
" transform="scale(0.015625)"/>
      </defs>
      <use xlink:href="#ArialMT-54"/>
      <use xlink:href="#ArialMT-72" x="57.333984"/>
      <use xlink:href="#ArialMT-65" x="90.634766"/>
      <use xlink:href="#ArialMT-6e" x="146.25"/>
      <use xlink:href="#ArialMT-64" x="201.865234"/>
     </g>
    </g>
   </g>
   <g id="line2d_20">
    <path d="M 74.56 126.10195 
L 79.370309 126.955809 
L 82.256495 127.273885 
L 89.95299 128.3906 
L 96.687423 129.149412 
L 104.383918 129.786247 
L 118.814845 130.829844 
L 122.663093 130.891218 
L 125.549278 130.420234 
L 128.435464 129.677906 
L 130.359588 128.979661 
L 133.245773 127.618066 
L 136.131959 125.94944 
L 140.942268 122.81188 
L 146.714639 119.058206 
L 150.562887 116.815934 
L 154.411134 114.852716 
L 158.259381 113.14046 
L 164.031753 110.862225 
L 170.766186 108.230497 
L 172.690309 107.857741 
L 175.576495 106.886658 
L 177.500619 106.433899 
L 179.424742 106.177826 
L 180.386804 106.127955 
L 190.969485 106.184537 
L 192.893608 106.44099 
L 194.817732 106.881135 
L 195.779794 107.16385 
L 197.703918 107.484488 
L 200.590103 108.64185 
L 204.438351 110.511386 
L 214.058969 115.437205 
L 217.907216 117.036359 
L 221.755464 118.31571 
L 224.641649 118.5995 
L 231.376082 120.463957 
L 234.262268 121.065751 
L 237.148454 121.472326 
L 240.996701 121.773829 
L 246.769072 121.951108 
L 254.465567 121.935728 
L 260.237938 121.936998 
L 263.124124 122.098153 
L 266.010309 122.490902 
L 267.934433 122.935507 
L 269.858557 123.542597 
L 272.744742 124.740762 
L 273.706804 125.217023 
L 275.630928 125.73412 
L 277.555052 126.898168 
L 280.441237 128.976667 
L 283.327423 131.415231 
L 284.289485 132.291985 
L 299.682474 133.192901 
L 307.378969 140.67983 
L 311.227216 142.471178 
L 314.113402 144.987227 
L 315.075464 145.770179 
L 317.961649 146.521817 
L 320.847835 148.574419 
L 323.734021 150.309599 
L 327.582268 151.296729 
L 330.468454 152.558614 
L 333.354639 153.609155 
L 338.164948 155.062591 
L 343.93732 156.614542 
L 346.823505 157.221473 
L 349.709691 157.625286 
L 352.595876 157.787045 
L 355.482062 157.706157 
L 358.368247 157.419195 
L 368.950928 156.100997 
L 371.837113 156.106001 
L 374.723299 156.31819 
L 386.268041 157.484929 
L 389.154227 157.491889 
L 392.040412 157.286462 
L 395.88866 156.763414 
L 403.585155 155.553598 
L 406.47134 155.410683 
L 413.205773 155.399494 
L 446.877938 155.785045 
L 447.84 155.827011 
L 447.84 155.827011 
" clip-path="url(#p9eb492075f)" style="fill: none; stroke: #4c72b0; stroke-width: 1.5; stroke-linecap: round"/>
   </g>
   <g id="patch_8">
    <path d="M 74.56 160.37 
L 74.56 103.545 
" style="fill: none; stroke: #262626; stroke-width: 1.25; stroke-linejoin: miter; stroke-linecap: square"/>
   </g>
   <g id="patch_9">
    <path d="M 447.84 160.37 
L 447.84 103.545 
" style="fill: none; stroke: #262626; stroke-width: 1.25; stroke-linejoin: miter; stroke-linecap: square"/>
   </g>
   <g id="patch_10">
    <path d="M 74.56 160.37 
L 447.84 160.37 
" style="fill: none; stroke: #262626; stroke-width: 1.25; stroke-linejoin: miter; stroke-linecap: square"/>
   </g>
   <g id="patch_11">
    <path d="M 74.56 103.545 
L 447.84 103.545 
" style="fill: none; stroke: #262626; stroke-width: 1.25; stroke-linejoin: miter; stroke-linecap: square"/>
   </g>
  </g>
  <g id="axes_3">
   <g id="patch_12">
    <path d="M 74.56 236.155 
L 447.84 236.155 
L 447.84 179.33 
L 74.56 179.33 
z
" style="fill: #ffffff"/>
   </g>
   <g id="matplotlib.axis_5">
    <g id="xtick_15">
     <g id="line2d_21">
      <g>
       <use xlink:href="#md547111b5d" x="119.914345" y="236.155" style="fill: #262626; stroke: #262626; stroke-width: 1.25"/>
      </g>
     </g>
    </g>
    <g id="xtick_16">
     <g id="line2d_22">
      <g>
       <use xlink:href="#md547111b5d" x="170.078999" y="236.155" style="fill: #262626; stroke: #262626; stroke-width: 1.25"/>
      </g>
     </g>
    </g>
    <g id="xtick_17">
     <g id="line2d_23">
      <g>
       <use xlink:href="#md547111b5d" x="220.243652" y="236.155" style="fill: #262626; stroke: #262626; stroke-width: 1.25"/>
      </g>
     </g>
    </g>
    <g id="xtick_18">
     <g id="line2d_24">
      <g>
       <use xlink:href="#md547111b5d" x="270.408306" y="236.155" style="fill: #262626; stroke: #262626; stroke-width: 1.25"/>
      </g>
     </g>
    </g>
    <g id="xtick_19">
     <g id="line2d_25">
      <g>
       <use xlink:href="#md547111b5d" x="320.710398" y="236.155" style="fill: #262626; stroke: #262626; stroke-width: 1.25"/>
      </g>
     </g>
    </g>
    <g id="xtick_20">
     <g id="line2d_26">
      <g>
       <use xlink:href="#md547111b5d" x="370.875052" y="236.155" style="fill: #262626; stroke: #262626; stroke-width: 1.25"/>
      </g>
     </g>
    </g>
    <g id="xtick_21">
     <g id="line2d_27">
      <g>
       <use xlink:href="#md547111b5d" x="421.039705" y="236.155" style="fill: #262626; stroke: #262626; stroke-width: 1.25"/>
      </g>
     </g>
    </g>
   </g>
   <g id="matplotlib.axis_6">
    <g id="ytick_5">
     <g id="line2d_28">
      <g>
       <use xlink:href="#m172e32f6f8" x="74.56" y="225.272721" style="fill: #262626; stroke: #262626; stroke-width: 1.25"/>
      </g>
     </g>
     <g id="text_7">
      <!-- −5000 -->
      <g style="fill: #262626" transform="translate(34.167187 229.209518) scale(0.11 -0.11)">
       <defs>
        <path id="ArialMT-2212" d="M 3381 1997 
L 356 1997 
L 356 2522 
L 3381 2522 
L 3381 1997 
z
" transform="scale(0.015625)"/>
       </defs>
       <use xlink:href="#ArialMT-2212"/>
       <use xlink:href="#ArialMT-35" x="58.398438"/>
       <use xlink:href="#ArialMT-30" x="114.013672"/>
       <use xlink:href="#ArialMT-30" x="169.628906"/>
       <use xlink:href="#ArialMT-30" x="225.244141"/>
      </g>
     </g>
    </g>
    <g id="ytick_6">
     <g id="line2d_29">
      <g>
       <use xlink:href="#m172e32f6f8" x="74.56" y="208.102775" style="fill: #262626; stroke: #262626; stroke-width: 1.25"/>
      </g>
     </g>
     <g id="text_8">
      <!-- 0 -->
      <g style="fill: #262626" transform="translate(58.942969 212.039572) scale(0.11 -0.11)">
       <use xlink:href="#ArialMT-30"/>
      </g>
     </g>
    </g>
    <g id="ytick_7">
     <g id="line2d_30">
      <g>
       <use xlink:href="#m172e32f6f8" x="74.56" y="190.932829" style="fill: #262626; stroke: #262626; stroke-width: 1.25"/>
      </g>
     </g>
     <g id="text_9">
      <!-- 5000 -->
      <g style="fill: #262626" transform="translate(40.591875 194.869626) scale(0.11 -0.11)">
       <use xlink:href="#ArialMT-35"/>
       <use xlink:href="#ArialMT-30" x="55.615234"/>
       <use xlink:href="#ArialMT-30" x="111.230469"/>
       <use xlink:href="#ArialMT-30" x="166.845703"/>
      </g>
     </g>
    </g>
    <g id="text_10">
     <!-- Season -->
     <g style="fill: #262626" transform="translate(27.782187 228.090937) rotate(-90) scale(0.12 -0.12)">
      <defs>
       <path id="ArialMT-53" d="M 288 1472 
L 859 1522 
Q 900 1178 1048 958 
Q 1197 738 1509 602 
Q 1822 466 2213 466 
Q 2559 466 2825 569 
Q 3091 672 3220 851 
Q 3350 1031 3350 1244 
Q 3350 1459 3225 1620 
Q 3100 1781 2813 1891 
Q 2628 1963 1997 2114 
Q 1366 2266 1113 2400 
Q 784 2572 623 2826 
Q 463 3081 463 3397 
Q 463 3744 659 4045 
Q 856 4347 1234 4503 
Q 1613 4659 2075 4659 
Q 2584 4659 2973 4495 
Q 3363 4331 3572 4012 
Q 3781 3694 3797 3291 
L 3216 3247 
Q 3169 3681 2898 3903 
Q 2628 4125 2100 4125 
Q 1550 4125 1298 3923 
Q 1047 3722 1047 3438 
Q 1047 3191 1225 3031 
Q 1400 2872 2139 2705 
Q 2878 2538 3153 2413 
Q 3553 2228 3743 1945 
Q 3934 1663 3934 1294 
Q 3934 928 3725 604 
Q 3516 281 3123 101 
Q 2731 -78 2241 -78 
Q 1619 -78 1198 103 
Q 778 284 539 648 
Q 300 1013 288 1472 
z
" transform="scale(0.015625)"/>
       <path id="ArialMT-73" d="M 197 991 
L 753 1078 
Q 800 744 1014 566 
Q 1228 388 1613 388 
Q 2000 388 2187 545 
Q 2375 703 2375 916 
Q 2375 1106 2209 1216 
Q 2094 1291 1634 1406 
Q 1016 1563 777 1677 
Q 538 1791 414 1992 
Q 291 2194 291 2438 
Q 291 2659 392 2848 
Q 494 3038 669 3163 
Q 800 3259 1026 3326 
Q 1253 3394 1513 3394 
Q 1903 3394 2198 3281 
Q 2494 3169 2634 2976 
Q 2775 2784 2828 2463 
L 2278 2388 
Q 2241 2644 2061 2787 
Q 1881 2931 1553 2931 
Q 1166 2931 1000 2803 
Q 834 2675 834 2503 
Q 834 2394 903 2306 
Q 972 2216 1119 2156 
Q 1203 2125 1616 2013 
Q 2213 1853 2448 1751 
Q 2684 1650 2818 1456 
Q 2953 1263 2953 975 
Q 2953 694 2789 445 
Q 2625 197 2315 61 
Q 2006 -75 1616 -75 
Q 969 -75 630 194 
Q 291 463 197 991 
z
" transform="scale(0.015625)"/>
      </defs>
      <use xlink:href="#ArialMT-53"/>
      <use xlink:href="#ArialMT-65" x="66.699219"/>
      <use xlink:href="#ArialMT-61" x="122.314453"/>
      <use xlink:href="#ArialMT-73" x="177.929688"/>
      <use xlink:href="#ArialMT-6f" x="227.929688"/>
      <use xlink:href="#ArialMT-6e" x="283.544922"/>
     </g>
    </g>
   </g>
   <g id="line2d_31">
    <path d="M 74.56 223.195779 
L 75.522062 232.843689 
L 76.484124 231.943495 
L 77.446186 231.334674 
L 78.408247 229.177246 
L 79.370309 229.128111 
L 81.294433 226.229723 
L 82.256495 226.392198 
L 83.218557 225.66676 
L 84.180619 225.451113 
L 85.14268 223.309013 
L 86.104742 222.327832 
L 87.066804 220.567334 
L 88.028866 220.055996 
L 88.990928 218.164482 
L 89.95299 217.88214 
L 90.915052 216.349264 
L 91.877113 215.585785 
L 92.839175 213.530798 
L 93.801237 212.663581 
L 94.763299 212.126881 
L 95.725361 210.859494 
L 96.687423 210.183759 
L 97.649485 208.253129 
L 98.611546 207.248972 
L 99.573608 205.776572 
L 100.53567 205.543841 
L 101.497732 204.186324 
L 102.459794 203.109262 
L 103.421856 199.585795 
L 104.383918 199.12867 
L 105.345979 197.700262 
L 106.308041 194.089622 
L 108.232165 192.242521 
L 109.194227 191.431232 
L 111.118351 187.49126 
L 114.004536 185.204439 
L 114.966598 184.166033 
L 115.92866 181.912955 
L 116.890722 191.287386 
L 117.852784 190.943055 
L 118.814845 189.364663 
L 122.663093 216.319158 
L 123.625155 213.527517 
L 124.587216 220.509175 
L 125.549278 233.572045 
L 126.51134 232.684289 
L 127.473402 232.081848 
L 128.435464 230.299631 
L 129.397526 229.990911 
L 130.359588 227.608752 
L 131.321649 227.385538 
L 132.283711 226.526784 
L 133.245773 224.930559 
L 134.207835 221.920753 
L 135.169897 220.87276 
L 136.131959 219.365364 
L 137.094021 218.541544 
L 138.056082 216.893911 
L 139.018144 216.331632 
L 139.980206 214.971312 
L 140.942268 213.856403 
L 141.90433 212.163998 
L 143.828454 210.29994 
L 144.790515 209.057602 
L 145.752577 208.221011 
L 146.714639 206.533185 
L 147.676701 205.415839 
L 148.638763 204.104813 
L 149.600825 203.564291 
L 151.524948 201.07917 
L 152.48701 198.137888 
L 153.449072 197.547995 
L 154.411134 196.146639 
L 155.373196 195.470534 
L 158.259381 192.808728 
L 159.221443 191.509595 
L 160.183505 189.859216 
L 163.069691 187.435312 
L 164.031753 186.351264 
L 164.993814 184.606005 
L 165.955876 197.02483 
L 166.917938 196.69198 
L 167.88 195.345289 
L 168.842062 211.763692 
L 169.804124 215.968455 
L 170.766186 219.058105 
L 172.690309 233.46306 
L 173.652371 232.585254 
L 174.614433 231.974698 
L 175.576495 230.551673 
L 176.538557 230.021312 
L 177.500619 228.174746 
L 178.46268 227.595887 
L 179.424742 226.631775 
L 180.386804 223.513894 
L 190.007423 220.07254 
L 192.893608 216.650538 
L 193.85567 215.261293 
L 194.817732 214.479845 
L 195.779794 213.317462 
L 197.703918 211.950773 
L 198.665979 210.627046 
L 199.628041 209.618419 
L 201.552165 207.242379 
L 202.514227 206.278928 
L 204.438351 203.636109 
L 205.400412 202.523518 
L 206.362474 201.72474 
L 208.286598 199.290216 
L 209.24866 196.883178 
L 210.210722 196.207743 
L 211.172784 194.874054 
L 212.134845 197.551063 
L 215.021031 194.955435 
L 215.983093 194.642744 
L 216.945155 193.274908 
L 220.793402 189.724934 
L 221.755464 188.435985 
L 224.641649 201.980048 
L 225.603711 201.654496 
L 226.565773 200.536614 
L 227.527835 207.144406 
L 228.489897 217.077406 
L 229.451959 216.680418 
L 230.414021 232.999762 
L 231.376082 232.176307 
L 232.338144 231.527531 
L 233.300206 230.543064 
L 234.262268 229.794851 
L 235.22433 228.47212 
L 236.186392 227.567132 
L 237.148454 226.497349 
L 238.110515 221.932037 
L 239.072577 217.953919 
L 243.882887 212.475337 
L 244.844948 211.489676 
L 245.80701 209.944387 
L 247.731134 207.86659 
L 248.693196 206.461881 
L 256.389691 197.666463 
L 257.351753 196.169479 
L 258.313814 195.388607 
L 259.275876 194.162839 
L 260.237938 200.258638 
L 263.124124 197.813577 
L 264.086186 198.857567 
L 266.010309 197.120084 
L 267.934433 195.435287 
L 268.896495 194.362005 
L 269.858557 193.60375 
L 270.820619 208.792953 
L 271.78268 208.428599 
L 273.706804 206.66781 
L 275.630928 221.068893 
L 276.59299 220.467989 
L 277.555052 226.523258 
L 279.479175 224.941032 
L 282.365361 222.869016 
L 284.289485 220.851824 
L 299.682474 216.156553 
L 300.644536 214.179856 
L 303.530722 211.548066 
L 305.454845 209.950488 
L 306.416907 209.243465 
L 307.378969 208.157051 
L 311.227216 206.625946 
L 312.189278 205.659843 
L 315.075464 203.320684 
L 317.961649 202.475917 
L 321.809897 199.25247 
L 322.771959 198.351704 
L 323.734021 197.729208 
L 325.658144 196.859903 
L 327.582268 202.383037 
L 329.506392 201.188775 
L 330.468454 200.425181 
L 331.430515 204.271672 
L 332.392577 203.792061 
L 334.316701 202.141805 
L 335.278763 204.883964 
L 336.240825 204.013077 
L 337.202887 203.40811 
L 338.164948 211.002976 
L 339.12701 210.568261 
L 341.051134 209.202269 
L 342.013196 219.3515 
L 342.975258 218.758726 
L 343.93732 220.555216 
L 347.785567 217.941992 
L 348.747629 217.388903 
L 350.671753 215.70807 
L 351.633814 212.28653 
L 352.595876 211.207214 
L 353.557938 209.482139 
L 357.406186 207.283802 
L 358.368247 206.842901 
L 360.292371 205.714551 
L 372.799175 199.494267 
L 373.761237 204.680277 
L 375.685361 203.787083 
L 376.647423 203.23255 
L 378.571546 208.816318 
L 379.533608 208.573939 
L 380.49567 207.968049 
L 381.457732 207.17405 
L 382.419794 214.461214 
L 383.381856 213.82657 
L 384.343918 213.327304 
L 385.305979 213.446132 
L 388.192165 211.946124 
L 389.154227 216.591174 
L 390.116289 216.029516 
L 391.078351 214.919578 
L 392.040412 214.368334 
L 393.002474 213.620595 
L 396.850722 211.418972 
L 397.812784 210.750993 
L 398.774845 208.862572 
L 399.736907 208.402808 
L 400.698969 205.584363 
L 401.661031 205.245825 
L 403.585155 204.821933 
L 405.509278 204.397765 
L 407.433402 204.051408 
L 408.395464 203.860831 
L 410.319588 203.80925 
L 414.167835 203.173429 
L 416.091959 202.768467 
L 419.940206 202.296134 
L 420.902268 206.276949 
L 421.86433 206.047505 
L 423.788454 205.349665 
L 424.750515 212.911821 
L 425.712577 212.843783 
L 426.674639 212.435269 
L 427.636701 211.721186 
L 430.522887 223.876685 
L 432.44701 223.059909 
L 433.409072 216.556144 
L 434.371134 216.019719 
L 436.295258 215.3434 
L 437.25732 213.095488 
L 438.219381 212.594684 
L 439.181443 209.528461 
L 440.143505 209.101377 
L 441.105567 208.394131 
L 443.029691 207.451914 
L 444.953814 206.547482 
L 445.915876 206.024776 
L 447.84 205.925931 
L 447.84 205.925931 
" clip-path="url(#p03d2c99874)" style="fill: none; stroke: #4c72b0; stroke-width: 1.5; stroke-linecap: round"/>
   </g>
   <g id="patch_13">
    <path d="M 74.56 236.155 
L 74.56 179.33 
" style="fill: none; stroke: #262626; stroke-width: 1.25; stroke-linejoin: miter; stroke-linecap: square"/>
   </g>
   <g id="patch_14">
    <path d="M 447.84 236.155 
L 447.84 179.33 
" style="fill: none; stroke: #262626; stroke-width: 1.25; stroke-linejoin: miter; stroke-linecap: square"/>
   </g>
   <g id="patch_15">
    <path d="M 74.56 236.155 
L 447.84 236.155 
" style="fill: none; stroke: #262626; stroke-width: 1.25; stroke-linejoin: miter; stroke-linecap: square"/>
   </g>
   <g id="patch_16">
    <path d="M 74.56 179.33 
L 447.84 179.33 
" style="fill: none; stroke: #262626; stroke-width: 1.25; stroke-linejoin: miter; stroke-linecap: square"/>
   </g>
  </g>
  <g id="axes_4">
   <g id="patch_17">
    <path d="M 74.56 311.94 
L 447.84 311.94 
L 447.84 255.115 
L 74.56 255.115 
z
" style="fill: #ffffff"/>
   </g>
   <g id="line2d_32">
    <path d="M 74.56 284.870834 
L 447.84 284.870834 
" clip-path="url(#p8dbaf8bded)" style="fill: none; stroke: #000000; stroke-width: 1.5; stroke-linecap: round"/>
   </g>
   <g id="matplotlib.axis_7">
    <g id="xtick_22">
     <g id="line2d_33">
      <g>
       <use xlink:href="#md547111b5d" x="119.914345" y="311.94" style="fill: #262626; stroke: #262626; stroke-width: 1.25"/>
      </g>
     </g>
     <g id="text_11">
      <!-- 2017 -->
      <g style="fill: #262626" transform="translate(107.680282 329.313594) scale(0.11 -0.11)">
       <defs>
        <path id="ArialMT-32" d="M 3222 541 
L 3222 0 
L 194 0 
Q 188 203 259 391 
Q 375 700 629 1000 
Q 884 1300 1366 1694 
Q 2113 2306 2375 2664 
Q 2638 3022 2638 3341 
Q 2638 3675 2398 3904 
Q 2159 4134 1775 4134 
Q 1369 4134 1125 3890 
Q 881 3647 878 3216 
L 300 3275 
Q 359 3922 746 4261 
Q 1134 4600 1788 4600 
Q 2447 4600 2831 4234 
Q 3216 3869 3216 3328 
Q 3216 3053 3103 2787 
Q 2991 2522 2730 2228 
Q 2469 1934 1863 1422 
Q 1356 997 1212 845 
Q 1069 694 975 541 
L 3222 541 
z
" transform="scale(0.015625)"/>
        <path id="ArialMT-37" d="M 303 3981 
L 303 4522 
L 3269 4522 
L 3269 4084 
Q 2831 3619 2401 2847 
Q 1972 2075 1738 1259 
Q 1569 684 1522 0 
L 944 0 
Q 953 541 1156 1306 
Q 1359 2072 1739 2783 
Q 2119 3494 2547 3981 
L 303 3981 
z
" transform="scale(0.015625)"/>
       </defs>
       <use xlink:href="#ArialMT-32"/>
       <use xlink:href="#ArialMT-30" x="55.615234"/>
       <use xlink:href="#ArialMT-31" x="111.230469"/>
       <use xlink:href="#ArialMT-37" x="166.845703"/>
      </g>
     </g>
    </g>
    <g id="xtick_23">
     <g id="line2d_34">
      <g>
       <use xlink:href="#md547111b5d" x="170.078999" y="311.94" style="fill: #262626; stroke: #262626; stroke-width: 1.25"/>
      </g>
     </g>
     <g id="text_12">
      <!-- 2018 -->
      <g style="fill: #262626" transform="translate(157.844936 329.313594) scale(0.11 -0.11)">
       <defs>
        <path id="ArialMT-38" d="M 1131 2484 
Q 781 2613 612 2850 
Q 444 3088 444 3419 
Q 444 3919 803 4259 
Q 1163 4600 1759 4600 
Q 2359 4600 2725 4251 
Q 3091 3903 3091 3403 
Q 3091 3084 2923 2848 
Q 2756 2613 2416 2484 
Q 2838 2347 3058 2040 
Q 3278 1734 3278 1309 
Q 3278 722 2862 322 
Q 2447 -78 1769 -78 
Q 1091 -78 675 323 
Q 259 725 259 1325 
Q 259 1772 486 2073 
Q 713 2375 1131 2484 
z
M 1019 3438 
Q 1019 3113 1228 2906 
Q 1438 2700 1772 2700 
Q 2097 2700 2305 2904 
Q 2513 3109 2513 3406 
Q 2513 3716 2298 3927 
Q 2084 4138 1766 4138 
Q 1444 4138 1231 3931 
Q 1019 3725 1019 3438 
z
M 838 1322 
Q 838 1081 952 856 
Q 1066 631 1291 507 
Q 1516 384 1775 384 
Q 2178 384 2440 643 
Q 2703 903 2703 1303 
Q 2703 1709 2433 1975 
Q 2163 2241 1756 2241 
Q 1359 2241 1098 1978 
Q 838 1716 838 1322 
z
" transform="scale(0.015625)"/>
       </defs>
       <use xlink:href="#ArialMT-32"/>
       <use xlink:href="#ArialMT-30" x="55.615234"/>
       <use xlink:href="#ArialMT-31" x="111.230469"/>
       <use xlink:href="#ArialMT-38" x="166.845703"/>
      </g>
     </g>
    </g>
    <g id="xtick_24">
     <g id="line2d_35">
      <g>
       <use xlink:href="#md547111b5d" x="220.243652" y="311.94" style="fill: #262626; stroke: #262626; stroke-width: 1.25"/>
      </g>
     </g>
     <g id="text_13">
      <!-- 2019 -->
      <g style="fill: #262626" transform="translate(208.00959 329.313594) scale(0.11 -0.11)">
       <defs>
        <path id="ArialMT-39" d="M 350 1059 
L 891 1109 
Q 959 728 1153 556 
Q 1347 384 1650 384 
Q 1909 384 2104 503 
Q 2300 622 2425 820 
Q 2550 1019 2634 1356 
Q 2719 1694 2719 2044 
Q 2719 2081 2716 2156 
Q 2547 1888 2255 1720 
Q 1963 1553 1622 1553 
Q 1053 1553 659 1965 
Q 266 2378 266 3053 
Q 266 3750 677 4175 
Q 1088 4600 1706 4600 
Q 2153 4600 2523 4359 
Q 2894 4119 3086 3673 
Q 3278 3228 3278 2384 
Q 3278 1506 3087 986 
Q 2897 466 2520 194 
Q 2144 -78 1638 -78 
Q 1100 -78 759 220 
Q 419 519 350 1059 
z
M 2653 3081 
Q 2653 3566 2395 3850 
Q 2138 4134 1775 4134 
Q 1400 4134 1122 3828 
Q 844 3522 844 3034 
Q 844 2597 1108 2323 
Q 1372 2050 1759 2050 
Q 2150 2050 2401 2323 
Q 2653 2597 2653 3081 
z
" transform="scale(0.015625)"/>
       </defs>
       <use xlink:href="#ArialMT-32"/>
       <use xlink:href="#ArialMT-30" x="55.615234"/>
       <use xlink:href="#ArialMT-31" x="111.230469"/>
       <use xlink:href="#ArialMT-39" x="166.845703"/>
      </g>
     </g>
    </g>
    <g id="xtick_25">
     <g id="line2d_36">
      <g>
       <use xlink:href="#md547111b5d" x="270.408306" y="311.94" style="fill: #262626; stroke: #262626; stroke-width: 1.25"/>
      </g>
     </g>
     <g id="text_14">
      <!-- 2020 -->
      <g style="fill: #262626" transform="translate(258.174244 329.313594) scale(0.11 -0.11)">
       <use xlink:href="#ArialMT-32"/>
       <use xlink:href="#ArialMT-30" x="55.615234"/>
       <use xlink:href="#ArialMT-32" x="111.230469"/>
       <use xlink:href="#ArialMT-30" x="166.845703"/>
      </g>
     </g>
    </g>
    <g id="xtick_26">
     <g id="line2d_37">
      <g>
       <use xlink:href="#md547111b5d" x="320.710398" y="311.94" style="fill: #262626; stroke: #262626; stroke-width: 1.25"/>
      </g>
     </g>
     <g id="text_15">
      <!-- 2021 -->
      <g style="fill: #262626" transform="translate(308.476335 329.313594) scale(0.11 -0.11)">
       <use xlink:href="#ArialMT-32"/>
       <use xlink:href="#ArialMT-30" x="55.615234"/>
       <use xlink:href="#ArialMT-32" x="111.230469"/>
       <use xlink:href="#ArialMT-31" x="166.845703"/>
      </g>
     </g>
    </g>
    <g id="xtick_27">
     <g id="line2d_38">
      <g>
       <use xlink:href="#md547111b5d" x="370.875052" y="311.94" style="fill: #262626; stroke: #262626; stroke-width: 1.25"/>
      </g>
     </g>
     <g id="text_16">
      <!-- 2022 -->
      <g style="fill: #262626" transform="translate(358.640989 329.313594) scale(0.11 -0.11)">
       <use xlink:href="#ArialMT-32"/>
       <use xlink:href="#ArialMT-30" x="55.615234"/>
       <use xlink:href="#ArialMT-32" x="111.230469"/>
       <use xlink:href="#ArialMT-32" x="166.845703"/>
      </g>
     </g>
    </g>
    <g id="xtick_28">
     <g id="line2d_39">
      <g>
       <use xlink:href="#md547111b5d" x="421.039705" y="311.94" style="fill: #262626; stroke: #262626; stroke-width: 1.25"/>
      </g>
     </g>
     <g id="text_17">
      <!-- 2023 -->
      <g style="fill: #262626" transform="translate(408.805643 329.313594) scale(0.11 -0.11)">
       <defs>
        <path id="ArialMT-33" d="M 269 1209 
L 831 1284 
Q 928 806 1161 595 
Q 1394 384 1728 384 
Q 2125 384 2398 659 
Q 2672 934 2672 1341 
Q 2672 1728 2419 1979 
Q 2166 2231 1775 2231 
Q 1616 2231 1378 2169 
L 1441 2663 
Q 1497 2656 1531 2656 
Q 1891 2656 2178 2843 
Q 2466 3031 2466 3422 
Q 2466 3731 2256 3934 
Q 2047 4138 1716 4138 
Q 1388 4138 1169 3931 
Q 950 3725 888 3313 
L 325 3413 
Q 428 3978 793 4289 
Q 1159 4600 1703 4600 
Q 2078 4600 2393 4439 
Q 2709 4278 2876 4000 
Q 3044 3722 3044 3409 
Q 3044 3113 2884 2869 
Q 2725 2625 2413 2481 
Q 2819 2388 3044 2092 
Q 3269 1797 3269 1353 
Q 3269 753 2831 336 
Q 2394 -81 1725 -81 
Q 1122 -81 723 278 
Q 325 638 269 1209 
z
" transform="scale(0.015625)"/>
       </defs>
       <use xlink:href="#ArialMT-32"/>
       <use xlink:href="#ArialMT-30" x="55.615234"/>
       <use xlink:href="#ArialMT-32" x="111.230469"/>
       <use xlink:href="#ArialMT-33" x="166.845703"/>
      </g>
     </g>
    </g>
   </g>
   <g id="matplotlib.axis_8">
    <g id="ytick_8">
     <g id="line2d_40">
      <g>
       <use xlink:href="#m172e32f6f8" x="74.56" y="307.737413" style="fill: #262626; stroke: #262626; stroke-width: 1.25"/>
      </g>
     </g>
     <g id="text_18">
      <!-- −10000 -->
      <g style="fill: #262626" transform="translate(28.050156 311.67421) scale(0.11 -0.11)">
       <use xlink:href="#ArialMT-2212"/>
       <use xlink:href="#ArialMT-31" x="58.398438"/>
       <use xlink:href="#ArialMT-30" x="114.013672"/>
       <use xlink:href="#ArialMT-30" x="169.628906"/>
       <use xlink:href="#ArialMT-30" x="225.244141"/>
       <use xlink:href="#ArialMT-30" x="280.859375"/>
      </g>
     </g>
    </g>
    <g id="ytick_9">
     <g id="line2d_41">
      <g>
       <use xlink:href="#m172e32f6f8" x="74.56" y="284.870834" style="fill: #262626; stroke: #262626; stroke-width: 1.25"/>
      </g>
     </g>
     <g id="text_19">
      <!-- 0 -->
      <g style="fill: #262626" transform="translate(58.942969 288.807631) scale(0.11 -0.11)">
       <use xlink:href="#ArialMT-30"/>
      </g>
     </g>
    </g>
    <g id="ytick_10">
     <g id="line2d_42">
      <g>
       <use xlink:href="#m172e32f6f8" x="74.56" y="262.004256" style="fill: #262626; stroke: #262626; stroke-width: 1.25"/>
      </g>
     </g>
     <g id="text_20">
      <!-- 10000 -->
      <g style="fill: #262626" transform="translate(34.474844 265.941053) scale(0.11 -0.11)">
       <use xlink:href="#ArialMT-31"/>
       <use xlink:href="#ArialMT-30" x="55.615234"/>
       <use xlink:href="#ArialMT-30" x="111.230469"/>
       <use xlink:href="#ArialMT-30" x="166.845703"/>
       <use xlink:href="#ArialMT-30" x="222.460938"/>
      </g>
     </g>
    </g>
    <g id="text_21">
     <!-- Resid -->
     <g style="fill: #262626" transform="translate(21.665156 298.866875) rotate(-90) scale(0.12 -0.12)">
      <defs>
       <path id="ArialMT-52" d="M 503 0 
L 503 4581 
L 2534 4581 
Q 3147 4581 3465 4457 
Q 3784 4334 3975 4021 
Q 4166 3709 4166 3331 
Q 4166 2844 3850 2509 
Q 3534 2175 2875 2084 
Q 3116 1969 3241 1856 
Q 3506 1613 3744 1247 
L 4541 0 
L 3778 0 
L 3172 953 
Q 2906 1366 2734 1584 
Q 2563 1803 2427 1890 
Q 2291 1978 2150 2013 
Q 2047 2034 1813 2034 
L 1109 2034 
L 1109 0 
L 503 0 
z
M 1109 2559 
L 2413 2559 
Q 2828 2559 3062 2645 
Q 3297 2731 3419 2920 
Q 3541 3109 3541 3331 
Q 3541 3656 3305 3865 
Q 3069 4075 2559 4075 
L 1109 4075 
L 1109 2559 
z
" transform="scale(0.015625)"/>
      </defs>
      <use xlink:href="#ArialMT-52"/>
      <use xlink:href="#ArialMT-65" x="72.216797"/>
      <use xlink:href="#ArialMT-73" x="127.832031"/>
      <use xlink:href="#ArialMT-69" x="177.832031"/>
      <use xlink:href="#ArialMT-64" x="200.048828"/>
     </g>
    </g>
   </g>
   <g id="line2d_43">
    <defs>
     <path id="m595d9d9686" d="M 0 3 
C 0.795609 3 1.55874 2.683901 2.12132 2.12132 
C 2.683901 1.55874 3 0.795609 3 0 
C 3 -0.795609 2.683901 -1.55874 2.12132 -2.12132 
C 1.55874 -2.683901 0.795609 -3 0 -3 
C -0.795609 -3 -1.55874 -2.683901 -2.12132 -2.12132 
C -2.683901 -1.55874 -3 -0.795609 -3 0 
C -3 0.795609 -2.683901 1.55874 -2.12132 2.12132 
C -1.55874 2.683901 -0.795609 3 0 3 
z
" style="stroke: #4c72b0"/>
    </defs>
    <g clip-path="url(#p8dbaf8bded)">
     <use xlink:href="#m595d9d9686" x="74.56" y="289.573854" style="fill: #4c72b0; stroke: #4c72b0"/>
     <use xlink:href="#m595d9d9686" x="75.522062" y="283.003208" style="fill: #4c72b0; stroke: #4c72b0"/>
     <use xlink:href="#m595d9d9686" x="76.484124" y="282.995509" style="fill: #4c72b0; stroke: #4c72b0"/>
     <use xlink:href="#m595d9d9686" x="77.446186" y="282.895431" style="fill: #4c72b0; stroke: #4c72b0"/>
     <use xlink:href="#m595d9d9686" x="78.408247" y="283.29027" style="fill: #4c72b0; stroke: #4c72b0"/>
     <use xlink:href="#m595d9d9686" x="79.370309" y="283.23817" style="fill: #4c72b0; stroke: #4c72b0"/>
     <use xlink:href="#m595d9d9686" x="81.294433" y="283.506734" style="fill: #4c72b0; stroke: #4c72b0"/>
     <use xlink:href="#m595d9d9686" x="82.256495" y="283.297812" style="fill: #4c72b0; stroke: #4c72b0"/>
     <use xlink:href="#m595d9d9686" x="83.218557" y="283.187472" style="fill: #4c72b0; stroke: #4c72b0"/>
     <use xlink:href="#m595d9d9686" x="84.180619" y="282.656631" style="fill: #4c72b0; stroke: #4c72b0"/>
     <use xlink:href="#m595d9d9686" x="85.14268" y="283.766627" style="fill: #4c72b0; stroke: #4c72b0"/>
     <use xlink:href="#m595d9d9686" x="86.104742" y="283.787071" style="fill: #4c72b0; stroke: #4c72b0"/>
     <use xlink:href="#m595d9d9686" x="87.066804" y="283.650965" style="fill: #4c72b0; stroke: #4c72b0"/>
     <use xlink:href="#m595d9d9686" x="88.028866" y="283.896366" style="fill: #4c72b0; stroke: #4c72b0"/>
     <use xlink:href="#m595d9d9686" x="88.990928" y="283.740518" style="fill: #4c72b0; stroke: #4c72b0"/>
     <use xlink:href="#m595d9d9686" x="89.95299" y="283.868248" style="fill: #4c72b0; stroke: #4c72b0"/>
     <use xlink:href="#m595d9d9686" x="90.915052" y="283.823981" style="fill: #4c72b0; stroke: #4c72b0"/>
     <use xlink:href="#m595d9d9686" x="91.877113" y="284.238343" style="fill: #4c72b0; stroke: #4c72b0"/>
     <use xlink:href="#m595d9d9686" x="92.839175" y="283.693945" style="fill: #4c72b0; stroke: #4c72b0"/>
     <use xlink:href="#m595d9d9686" x="93.801237" y="283.853225" style="fill: #4c72b0; stroke: #4c72b0"/>
     <use xlink:href="#m595d9d9686" x="94.763299" y="284.118524" style="fill: #4c72b0; stroke: #4c72b0"/>
     <use xlink:href="#m595d9d9686" x="95.725361" y="284.15147" style="fill: #4c72b0; stroke: #4c72b0"/>
     <use xlink:href="#m595d9d9686" x="96.687423" y="284.539541" style="fill: #4c72b0; stroke: #4c72b0"/>
     <use xlink:href="#m595d9d9686" x="97.649485" y="284.079301" style="fill: #4c72b0; stroke: #4c72b0"/>
     <use xlink:href="#m595d9d9686" x="98.611546" y="284.693271" style="fill: #4c72b0; stroke: #4c72b0"/>
     <use xlink:href="#m595d9d9686" x="99.573608" y="284.108812" style="fill: #4c72b0; stroke: #4c72b0"/>
     <use xlink:href="#m595d9d9686" x="100.53567" y="284.190973" style="fill: #4c72b0; stroke: #4c72b0"/>
     <use xlink:href="#m595d9d9686" x="101.497732" y="284.350978" style="fill: #4c72b0; stroke: #4c72b0"/>
     <use xlink:href="#m595d9d9686" x="102.459794" y="284.414472" style="fill: #4c72b0; stroke: #4c72b0"/>
     <use xlink:href="#m595d9d9686" x="103.421856" y="286.089681" style="fill: #4c72b0; stroke: #4c72b0"/>
     <use xlink:href="#m595d9d9686" x="104.383918" y="285.925135" style="fill: #4c72b0; stroke: #4c72b0"/>
     <use xlink:href="#m595d9d9686" x="105.345979" y="286.151995" style="fill: #4c72b0; stroke: #4c72b0"/>
     <use xlink:href="#m595d9d9686" x="106.308041" y="288.116129" style="fill: #4c72b0; stroke: #4c72b0"/>
     <use xlink:href="#m595d9d9686" x="107.270103" y="288.108215" style="fill: #4c72b0; stroke: #4c72b0"/>
     <use xlink:href="#m595d9d9686" x="108.232165" y="288.222268" style="fill: #4c72b0; stroke: #4c72b0"/>
     <use xlink:href="#m595d9d9686" x="109.194227" y="288.391718" style="fill: #4c72b0; stroke: #4c72b0"/>
     <use xlink:href="#m595d9d9686" x="110.156289" y="288.835391" style="fill: #4c72b0; stroke: #4c72b0"/>
     <use xlink:href="#m595d9d9686" x="111.118351" y="290.122126" style="fill: #4c72b0; stroke: #4c72b0"/>
     <use xlink:href="#m595d9d9686" x="112.080412" y="289.955152" style="fill: #4c72b0; stroke: #4c72b0"/>
     <use xlink:href="#m595d9d9686" x="113.042474" y="289.672767" style="fill: #4c72b0; stroke: #4c72b0"/>
     <use xlink:href="#m595d9d9686" x="114.004536" y="289.705184" style="fill: #4c72b0; stroke: #4c72b0"/>
     <use xlink:href="#m595d9d9686" x="114.966598" y="289.582418" style="fill: #4c72b0; stroke: #4c72b0"/>
     <use xlink:href="#m595d9d9686" x="115.92866" y="289.983793" style="fill: #4c72b0; stroke: #4c72b0"/>
     <use xlink:href="#m595d9d9686" x="116.890722" y="283.686803" style="fill: #4c72b0; stroke: #4c72b0"/>
     <use xlink:href="#m595d9d9686" x="117.852784" y="283.459246" style="fill: #4c72b0; stroke: #4c72b0"/>
     <use xlink:href="#m595d9d9686" x="118.814845" y="283.360284" style="fill: #4c72b0; stroke: #4c72b0"/>
     <use xlink:href="#m595d9d9686" x="122.663093" y="295.330201" style="fill: #4c72b0; stroke: #4c72b0"/>
     <use xlink:href="#m595d9d9686" x="123.625155" y="297.007284" style="fill: #4c72b0; stroke: #4c72b0"/>
     <use xlink:href="#m595d9d9686" x="124.587216" y="292.138505" style="fill: #4c72b0; stroke: #4c72b0"/>
     <use xlink:href="#m595d9d9686" x="125.549278" y="282.888262" style="fill: #4c72b0; stroke: #4c72b0"/>
     <use xlink:href="#m595d9d9686" x="126.51134" y="282.724841" style="fill: #4c72b0; stroke: #4c72b0"/>
     <use xlink:href="#m595d9d9686" x="127.473402" y="282.828814" style="fill: #4c72b0; stroke: #4c72b0"/>
     <use xlink:href="#m595d9d9686" x="128.435464" y="282.176611" style="fill: #4c72b0; stroke: #4c72b0"/>
     <use xlink:href="#m595d9d9686" x="129.397526" y="282.446205" style="fill: #4c72b0; stroke: #4c72b0"/>
     <use xlink:href="#m595d9d9686" x="130.359588" y="282.439511" style="fill: #4c72b0; stroke: #4c72b0"/>
     <use xlink:href="#m595d9d9686" x="131.321649" y="282.674273" style="fill: #4c72b0; stroke: #4c72b0"/>
     <use xlink:href="#m595d9d9686" x="132.283711" y="282.950403" style="fill: #4c72b0; stroke: #4c72b0"/>
     <use xlink:href="#m595d9d9686" x="133.245773" y="282.657956" style="fill: #4c72b0; stroke: #4c72b0"/>
     <use xlink:href="#m595d9d9686" x="134.207835" y="284.781828" style="fill: #4c72b0; stroke: #4c72b0"/>
     <use xlink:href="#m595d9d9686" x="135.169897" y="284.891488" style="fill: #4c72b0; stroke: #4c72b0"/>
     <use xlink:href="#m595d9d9686" x="136.131959" y="285.032096" style="fill: #4c72b0; stroke: #4c72b0"/>
     <use xlink:href="#m595d9d9686" x="137.094021" y="284.907388" style="fill: #4c72b0; stroke: #4c72b0"/>
     <use xlink:href="#m595d9d9686" x="138.056082" y="285.270296" style="fill: #4c72b0; stroke: #4c72b0"/>
     <use xlink:href="#m595d9d9686" x="139.018144" y="285.415141" style="fill: #4c72b0; stroke: #4c72b0"/>
     <use xlink:href="#m595d9d9686" x="139.980206" y="285.728032" style="fill: #4c72b0; stroke: #4c72b0"/>
     <use xlink:href="#m595d9d9686" x="140.942268" y="285.775814" style="fill: #4c72b0; stroke: #4c72b0"/>
     <use xlink:href="#m595d9d9686" x="141.90433" y="286.633474" style="fill: #4c72b0; stroke: #4c72b0"/>
     <use xlink:href="#m595d9d9686" x="142.866392" y="286.565786" style="fill: #4c72b0; stroke: #4c72b0"/>
     <use xlink:href="#m595d9d9686" x="143.828454" y="286.61616" style="fill: #4c72b0; stroke: #4c72b0"/>
     <use xlink:href="#m595d9d9686" x="144.790515" y="286.790707" style="fill: #4c72b0; stroke: #4c72b0"/>
     <use xlink:href="#m595d9d9686" x="145.752577" y="286.492407" style="fill: #4c72b0; stroke: #4c72b0"/>
     <use xlink:href="#m595d9d9686" x="146.714639" y="287.154428" style="fill: #4c72b0; stroke: #4c72b0"/>
     <use xlink:href="#m595d9d9686" x="147.676701" y="286.258571" style="fill: #4c72b0; stroke: #4c72b0"/>
     <use xlink:href="#m595d9d9686" x="148.638763" y="287.267603" style="fill: #4c72b0; stroke: #4c72b0"/>
     <use xlink:href="#m595d9d9686" x="149.600825" y="287.327962" style="fill: #4c72b0; stroke: #4c72b0"/>
     <use xlink:href="#m595d9d9686" x="150.562887" y="287.180259" style="fill: #4c72b0; stroke: #4c72b0"/>
     <use xlink:href="#m595d9d9686" x="151.524948" y="287.563234" style="fill: #4c72b0; stroke: #4c72b0"/>
     <use xlink:href="#m595d9d9686" x="152.48701" y="284.72026" style="fill: #4c72b0; stroke: #4c72b0"/>
     <use xlink:href="#m595d9d9686" x="153.449072" y="285.206005" style="fill: #4c72b0; stroke: #4c72b0"/>
     <use xlink:href="#m595d9d9686" x="154.411134" y="285.156337" style="fill: #4c72b0; stroke: #4c72b0"/>
     <use xlink:href="#m595d9d9686" x="155.373196" y="285.050593" style="fill: #4c72b0; stroke: #4c72b0"/>
     <use xlink:href="#m595d9d9686" x="156.335258" y="285.213228" style="fill: #4c72b0; stroke: #4c72b0"/>
     <use xlink:href="#m595d9d9686" x="157.29732" y="285.064395" style="fill: #4c72b0; stroke: #4c72b0"/>
     <use xlink:href="#m595d9d9686" x="158.259381" y="284.996396" style="fill: #4c72b0; stroke: #4c72b0"/>
     <use xlink:href="#m595d9d9686" x="159.221443" y="285.514375" style="fill: #4c72b0; stroke: #4c72b0"/>
     <use xlink:href="#m595d9d9686" x="160.183505" y="283.331636" style="fill: #4c72b0; stroke: #4c72b0"/>
     <use xlink:href="#m595d9d9686" x="161.145567" y="283.81575" style="fill: #4c72b0; stroke: #4c72b0"/>
     <use xlink:href="#m595d9d9686" x="162.107629" y="284.377844" style="fill: #4c72b0; stroke: #4c72b0"/>
     <use xlink:href="#m595d9d9686" x="163.069691" y="284.483737" style="fill: #4c72b0; stroke: #4c72b0"/>
     <use xlink:href="#m595d9d9686" x="164.031753" y="284.873985" style="fill: #4c72b0; stroke: #4c72b0"/>
     <use xlink:href="#m595d9d9686" x="164.993814" y="284.021245" style="fill: #4c72b0; stroke: #4c72b0"/>
     <use xlink:href="#m595d9d9686" x="165.955876" y="275.616682" style="fill: #4c72b0; stroke: #4c72b0"/>
     <use xlink:href="#m595d9d9686" x="166.917938" y="275.919213" style="fill: #4c72b0; stroke: #4c72b0"/>
     <use xlink:href="#m595d9d9686" x="167.88" y="275.899242" style="fill: #4c72b0; stroke: #4c72b0"/>
     <use xlink:href="#m595d9d9686" x="168.842062" y="262.986061" style="fill: #4c72b0; stroke: #4c72b0"/>
     <use xlink:href="#m595d9d9686" x="169.804124" y="259.8282" style="fill: #4c72b0; stroke: #4c72b0"/>
     <use xlink:href="#m595d9d9686" x="170.766186" y="257.697955" style="fill: #4c72b0; stroke: #4c72b0"/>
     <use xlink:href="#m595d9d9686" x="172.690309" y="291.601849" style="fill: #4c72b0; stroke: #4c72b0"/>
     <use xlink:href="#m595d9d9686" x="173.652371" y="292.060311" style="fill: #4c72b0; stroke: #4c72b0"/>
     <use xlink:href="#m595d9d9686" x="174.614433" y="292.061759" style="fill: #4c72b0; stroke: #4c72b0"/>
     <use xlink:href="#m595d9d9686" x="175.576495" y="292.203662" style="fill: #4c72b0; stroke: #4c72b0"/>
     <use xlink:href="#m595d9d9686" x="176.538557" y="291.954464" style="fill: #4c72b0; stroke: #4c72b0"/>
     <use xlink:href="#m595d9d9686" x="177.500619" y="291.089044" style="fill: #4c72b0; stroke: #4c72b0"/>
     <use xlink:href="#m595d9d9686" x="178.46268" y="291.482613" style="fill: #4c72b0; stroke: #4c72b0"/>
     <use xlink:href="#m595d9d9686" x="179.424742" y="291.358564" style="fill: #4c72b0; stroke: #4c72b0"/>
     <use xlink:href="#m595d9d9686" x="180.386804" y="292.589377" style="fill: #4c72b0; stroke: #4c72b0"/>
     <use xlink:href="#m595d9d9686" x="190.007423" y="286.00329" style="fill: #4c72b0; stroke: #4c72b0"/>
     <use xlink:href="#m595d9d9686" x="190.969485" y="285.804599" style="fill: #4c72b0; stroke: #4c72b0"/>
     <use xlink:href="#m595d9d9686" x="191.931546" y="285.964745" style="fill: #4c72b0; stroke: #4c72b0"/>
     <use xlink:href="#m595d9d9686" x="192.893608" y="285.772301" style="fill: #4c72b0; stroke: #4c72b0"/>
     <use xlink:href="#m595d9d9686" x="193.85567" y="285.473858" style="fill: #4c72b0; stroke: #4c72b0"/>
     <use xlink:href="#m595d9d9686" x="194.817732" y="285.060214" style="fill: #4c72b0; stroke: #4c72b0"/>
     <use xlink:href="#m595d9d9686" x="195.779794" y="284.554965" style="fill: #4c72b0; stroke: #4c72b0"/>
     <use xlink:href="#m595d9d9686" x="197.703918" y="283.617389" style="fill: #4c72b0; stroke: #4c72b0"/>
     <use xlink:href="#m595d9d9686" x="198.665979" y="283.384993" style="fill: #4c72b0; stroke: #4c72b0"/>
     <use xlink:href="#m595d9d9686" x="199.628041" y="283.106001" style="fill: #4c72b0; stroke: #4c72b0"/>
     <use xlink:href="#m595d9d9686" x="200.590103" y="282.644651" style="fill: #4c72b0; stroke: #4c72b0"/>
     <use xlink:href="#m595d9d9686" x="201.552165" y="282.37571" style="fill: #4c72b0; stroke: #4c72b0"/>
     <use xlink:href="#m595d9d9686" x="202.514227" y="281.934487" style="fill: #4c72b0; stroke: #4c72b0"/>
     <use xlink:href="#m595d9d9686" x="203.476289" y="282.112372" style="fill: #4c72b0; stroke: #4c72b0"/>
     <use xlink:href="#m595d9d9686" x="204.438351" y="282.19397" style="fill: #4c72b0; stroke: #4c72b0"/>
     <use xlink:href="#m595d9d9686" x="205.400412" y="281.97092" style="fill: #4c72b0; stroke: #4c72b0"/>
     <use xlink:href="#m595d9d9686" x="206.362474" y="281.866012" style="fill: #4c72b0; stroke: #4c72b0"/>
     <use xlink:href="#m595d9d9686" x="207.324536" y="281.884613" style="fill: #4c72b0; stroke: #4c72b0"/>
     <use xlink:href="#m595d9d9686" x="208.286598" y="281.159669" style="fill: #4c72b0; stroke: #4c72b0"/>
     <use xlink:href="#m595d9d9686" x="209.24866" y="282.114401" style="fill: #4c72b0; stroke: #4c72b0"/>
     <use xlink:href="#m595d9d9686" x="210.210722" y="281.787882" style="fill: #4c72b0; stroke: #4c72b0"/>
     <use xlink:href="#m595d9d9686" x="211.172784" y="281.363173" style="fill: #4c72b0; stroke: #4c72b0"/>
     <use xlink:href="#m595d9d9686" x="212.134845" y="278.53481" style="fill: #4c72b0; stroke: #4c72b0"/>
     <use xlink:href="#m595d9d9686" x="213.096907" y="278.326693" style="fill: #4c72b0; stroke: #4c72b0"/>
     <use xlink:href="#m595d9d9686" x="214.058969" y="278.359113" style="fill: #4c72b0; stroke: #4c72b0"/>
     <use xlink:href="#m595d9d9686" x="215.021031" y="278.168604" style="fill: #4c72b0; stroke: #4c72b0"/>
     <use xlink:href="#m595d9d9686" x="215.983093" y="277.121021" style="fill: #4c72b0; stroke: #4c72b0"/>
     <use xlink:href="#m595d9d9686" x="216.945155" y="277.805116" style="fill: #4c72b0; stroke: #4c72b0"/>
     <use xlink:href="#m595d9d9686" x="217.907216" y="277.408764" style="fill: #4c72b0; stroke: #4c72b0"/>
     <use xlink:href="#m595d9d9686" x="218.869278" y="277.192962" style="fill: #4c72b0; stroke: #4c72b0"/>
     <use xlink:href="#m595d9d9686" x="219.83134" y="276.975749" style="fill: #4c72b0; stroke: #4c72b0"/>
     <use xlink:href="#m595d9d9686" x="220.793402" y="276.822715" style="fill: #4c72b0; stroke: #4c72b0"/>
     <use xlink:href="#m595d9d9686" x="221.755464" y="277.188898" style="fill: #4c72b0; stroke: #4c72b0"/>
     <use xlink:href="#m595d9d9686" x="224.641649" y="308.962636" style="fill: #4c72b0; stroke: #4c72b0"/>
     <use xlink:href="#m595d9d9686" x="225.603711" y="308.956179" style="fill: #4c72b0; stroke: #4c72b0"/>
     <use xlink:href="#m595d9d9686" x="226.565773" y="309.357045" style="fill: #4c72b0; stroke: #4c72b0"/>
     <use xlink:href="#m595d9d9686" x="227.527835" y="304.282036" style="fill: #4c72b0; stroke: #4c72b0"/>
     <use xlink:href="#m595d9d9686" x="228.489897" y="295.719536" style="fill: #4c72b0; stroke: #4c72b0"/>
     <use xlink:href="#m595d9d9686" x="229.451959" y="295.841587" style="fill: #4c72b0; stroke: #4c72b0"/>
     <use xlink:href="#m595d9d9686" x="230.414021" y="284.652971" style="fill: #4c72b0; stroke: #4c72b0"/>
     <use xlink:href="#m595d9d9686" x="231.376082" y="284.217122" style="fill: #4c72b0; stroke: #4c72b0"/>
     <use xlink:href="#m595d9d9686" x="232.338144" y="284.316266" style="fill: #4c72b0; stroke: #4c72b0"/>
     <use xlink:href="#m595d9d9686" x="233.300206" y="284.460854" style="fill: #4c72b0; stroke: #4c72b0"/>
     <use xlink:href="#m595d9d9686" x="234.262268" y="284.297764" style="fill: #4c72b0; stroke: #4c72b0"/>
     <use xlink:href="#m595d9d9686" x="235.22433" y="285.036889" style="fill: #4c72b0; stroke: #4c72b0"/>
     <use xlink:href="#m595d9d9686" x="236.186392" y="284.249675" style="fill: #4c72b0; stroke: #4c72b0"/>
     <use xlink:href="#m595d9d9686" x="237.148454" y="284.063716" style="fill: #4c72b0; stroke: #4c72b0"/>
     <use xlink:href="#m595d9d9686" x="238.110515" y="285.790719" style="fill: #4c72b0; stroke: #4c72b0"/>
     <use xlink:href="#m595d9d9686" x="239.072577" y="287.561913" style="fill: #4c72b0; stroke: #4c72b0"/>
     <use xlink:href="#m595d9d9686" x="240.034639" y="287.543312" style="fill: #4c72b0; stroke: #4c72b0"/>
     <use xlink:href="#m595d9d9686" x="240.996701" y="287.318236" style="fill: #4c72b0; stroke: #4c72b0"/>
     <use xlink:href="#m595d9d9686" x="241.958763" y="286.999235" style="fill: #4c72b0; stroke: #4c72b0"/>
     <use xlink:href="#m595d9d9686" x="242.920825" y="287.147212" style="fill: #4c72b0; stroke: #4c72b0"/>
     <use xlink:href="#m595d9d9686" x="243.882887" y="286.910564" style="fill: #4c72b0; stroke: #4c72b0"/>
     <use xlink:href="#m595d9d9686" x="244.844948" y="287.171928" style="fill: #4c72b0; stroke: #4c72b0"/>
     <use xlink:href="#m595d9d9686" x="245.80701" y="287.073748" style="fill: #4c72b0; stroke: #4c72b0"/>
     <use xlink:href="#m595d9d9686" x="246.769072" y="287.170085" style="fill: #4c72b0; stroke: #4c72b0"/>
     <use xlink:href="#m595d9d9686" x="247.731134" y="287.335155" style="fill: #4c72b0; stroke: #4c72b0"/>
     <use xlink:href="#m595d9d9686" x="248.693196" y="286.855285" style="fill: #4c72b0; stroke: #4c72b0"/>
     <use xlink:href="#m595d9d9686" x="249.655258" y="286.647446" style="fill: #4c72b0; stroke: #4c72b0"/>
     <use xlink:href="#m595d9d9686" x="250.61732" y="286.893746" style="fill: #4c72b0; stroke: #4c72b0"/>
     <use xlink:href="#m595d9d9686" x="251.579381" y="286.250605" style="fill: #4c72b0; stroke: #4c72b0"/>
     <use xlink:href="#m595d9d9686" x="252.541443" y="286.407101" style="fill: #4c72b0; stroke: #4c72b0"/>
     <use xlink:href="#m595d9d9686" x="253.503505" y="286.045751" style="fill: #4c72b0; stroke: #4c72b0"/>
     <use xlink:href="#m595d9d9686" x="254.465567" y="285.63519" style="fill: #4c72b0; stroke: #4c72b0"/>
     <use xlink:href="#m595d9d9686" x="255.427629" y="285.318915" style="fill: #4c72b0; stroke: #4c72b0"/>
     <use xlink:href="#m595d9d9686" x="256.389691" y="285.229482" style="fill: #4c72b0; stroke: #4c72b0"/>
     <use xlink:href="#m595d9d9686" x="257.351753" y="285.267952" style="fill: #4c72b0; stroke: #4c72b0"/>
     <use xlink:href="#m595d9d9686" x="258.313814" y="285.015132" style="fill: #4c72b0; stroke: #4c72b0"/>
     <use xlink:href="#m595d9d9686" x="259.275876" y="285.062547" style="fill: #4c72b0; stroke: #4c72b0"/>
     <use xlink:href="#m595d9d9686" x="260.237938" y="280.235298" style="fill: #4c72b0; stroke: #4c72b0"/>
     <use xlink:href="#m595d9d9686" x="261.2" y="280.157846" style="fill: #4c72b0; stroke: #4c72b0"/>
     <use xlink:href="#m595d9d9686" x="262.162062" y="280.077976" style="fill: #4c72b0; stroke: #4c72b0"/>
     <use xlink:href="#m595d9d9686" x="263.124124" y="279.913773" style="fill: #4c72b0; stroke: #4c72b0"/>
     <use xlink:href="#m595d9d9686" x="264.086186" y="278.748497" style="fill: #4c72b0; stroke: #4c72b0"/>
     <use xlink:href="#m595d9d9686" x="265.048247" y="278.925136" style="fill: #4c72b0; stroke: #4c72b0"/>
     <use xlink:href="#m595d9d9686" x="266.010309" y="278.881047" style="fill: #4c72b0; stroke: #4c72b0"/>
     <use xlink:href="#m595d9d9686" x="266.972371" y="278.652887" style="fill: #4c72b0; stroke: #4c72b0"/>
     <use xlink:href="#m595d9d9686" x="267.934433" y="278.607654" style="fill: #4c72b0; stroke: #4c72b0"/>
     <use xlink:href="#m595d9d9686" x="268.896495" y="278.063332" style="fill: #4c72b0; stroke: #4c72b0"/>
     <use xlink:href="#m595d9d9686" x="269.858557" y="278.459822" style="fill: #4c72b0; stroke: #4c72b0"/>
     <use xlink:href="#m595d9d9686" x="270.820619" y="267.659411" style="fill: #4c72b0; stroke: #4c72b0"/>
     <use xlink:href="#m595d9d9686" x="271.78268" y="267.722437" style="fill: #4c72b0; stroke: #4c72b0"/>
     <use xlink:href="#m595d9d9686" x="272.744742" y="267.358955" style="fill: #4c72b0; stroke: #4c72b0"/>
     <use xlink:href="#m595d9d9686" x="273.706804" y="267.587161" style="fill: #4c72b0; stroke: #4c72b0"/>
     <use xlink:href="#m595d9d9686" x="275.630928" y="293.619615" style="fill: #4c72b0; stroke: #4c72b0"/>
     <use xlink:href="#m595d9d9686" x="276.59299" y="293.15748" style="fill: #4c72b0; stroke: #4c72b0"/>
     <use xlink:href="#m595d9d9686" x="277.555052" y="288.737584" style="fill: #4c72b0; stroke: #4c72b0"/>
     <use xlink:href="#m595d9d9686" x="278.517113" y="288.814088" style="fill: #4c72b0; stroke: #4c72b0"/>
     <use xlink:href="#m595d9d9686" x="279.479175" y="288.943297" style="fill: #4c72b0; stroke: #4c72b0"/>
     <use xlink:href="#m595d9d9686" x="280.441237" y="289.070213" style="fill: #4c72b0; stroke: #4c72b0"/>
     <use xlink:href="#m595d9d9686" x="281.403299" y="289.01468" style="fill: #4c72b0; stroke: #4c72b0"/>
     <use xlink:href="#m595d9d9686" x="282.365361" y="289.062683" style="fill: #4c72b0; stroke: #4c72b0"/>
     <use xlink:href="#m595d9d9686" x="283.327423" y="289.072133" style="fill: #4c72b0; stroke: #4c72b0"/>
     <use xlink:href="#m595d9d9686" x="284.289485" y="288.984021" style="fill: #4c72b0; stroke: #4c72b0"/>
     <use xlink:href="#m595d9d9686" x="299.682474" y="283.311304" style="fill: #4c72b0; stroke: #4c72b0"/>
     <use xlink:href="#m595d9d9686" x="300.644536" y="284.156791" style="fill: #4c72b0; stroke: #4c72b0"/>
     <use xlink:href="#m595d9d9686" x="301.606598" y="283.967766" style="fill: #4c72b0; stroke: #4c72b0"/>
     <use xlink:href="#m595d9d9686" x="302.56866" y="283.992836" style="fill: #4c72b0; stroke: #4c72b0"/>
     <use xlink:href="#m595d9d9686" x="303.530722" y="283.874105" style="fill: #4c72b0; stroke: #4c72b0"/>
     <use xlink:href="#m595d9d9686" x="304.492784" y="283.717585" style="fill: #4c72b0; stroke: #4c72b0"/>
     <use xlink:href="#m595d9d9686" x="305.454845" y="283.751378" style="fill: #4c72b0; stroke: #4c72b0"/>
     <use xlink:href="#m595d9d9686" x="306.416907" y="283.63945" style="fill: #4c72b0; stroke: #4c72b0"/>
     <use xlink:href="#m595d9d9686" x="307.378969" y="283.791158" style="fill: #4c72b0; stroke: #4c72b0"/>
     <use xlink:href="#m595d9d9686" x="309.303093" y="283.501419" style="fill: #4c72b0; stroke: #4c72b0"/>
     <use xlink:href="#m595d9d9686" x="311.227216" y="283.133145" style="fill: #4c72b0; stroke: #4c72b0"/>
     <use xlink:href="#m595d9d9686" x="312.189278" y="283.173471" style="fill: #4c72b0; stroke: #4c72b0"/>
     <use xlink:href="#m595d9d9686" x="313.15134" y="283.211045" style="fill: #4c72b0; stroke: #4c72b0"/>
     <use xlink:href="#m595d9d9686" x="314.113402" y="282.985742" style="fill: #4c72b0; stroke: #4c72b0"/>
     <use xlink:href="#m595d9d9686" x="315.075464" y="283.080205" style="fill: #4c72b0; stroke: #4c72b0"/>
     <use xlink:href="#m595d9d9686" x="317.961649" y="282.695598" style="fill: #4c72b0; stroke: #4c72b0"/>
     <use xlink:href="#m595d9d9686" x="318.923711" y="282.704777" style="fill: #4c72b0; stroke: #4c72b0"/>
     <use xlink:href="#m595d9d9686" x="319.885773" y="282.629734" style="fill: #4c72b0; stroke: #4c72b0"/>
     <use xlink:href="#m595d9d9686" x="320.847835" y="282.741232" style="fill: #4c72b0; stroke: #4c72b0"/>
     <use xlink:href="#m595d9d9686" x="321.809897" y="282.90545" style="fill: #4c72b0; stroke: #4c72b0"/>
     <use xlink:href="#m595d9d9686" x="322.771959" y="283.297708" style="fill: #4c72b0; stroke: #4c72b0"/>
     <use xlink:href="#m595d9d9686" x="323.734021" y="283.340313" style="fill: #4c72b0; stroke: #4c72b0"/>
     <use xlink:href="#m595d9d9686" x="325.658144" y="283.380197" style="fill: #4c72b0; stroke: #4c72b0"/>
     <use xlink:href="#m595d9d9686" x="327.582268" y="297.737229" style="fill: #4c72b0; stroke: #4c72b0"/>
     <use xlink:href="#m595d9d9686" x="328.54433" y="297.76568" style="fill: #4c72b0; stroke: #4c72b0"/>
     <use xlink:href="#m595d9d9686" x="329.506392" y="297.807182" style="fill: #4c72b0; stroke: #4c72b0"/>
     <use xlink:href="#m595d9d9686" x="330.468454" y="297.957058" style="fill: #4c72b0; stroke: #4c72b0"/>
     <use xlink:href="#m595d9d9686" x="331.430515" y="295.022108" style="fill: #4c72b0; stroke: #4c72b0"/>
     <use xlink:href="#m595d9d9686" x="332.392577" y="295.215151" style="fill: #4c72b0; stroke: #4c72b0"/>
     <use xlink:href="#m595d9d9686" x="333.354639" y="295.207686" style="fill: #4c72b0; stroke: #4c72b0"/>
     <use xlink:href="#m595d9d9686" x="334.316701" y="295.4583" style="fill: #4c72b0; stroke: #4c72b0"/>
     <use xlink:href="#m595d9d9686" x="335.278763" y="293.26483" style="fill: #4c72b0; stroke: #4c72b0"/>
     <use xlink:href="#m595d9d9686" x="336.240825" y="293.593009" style="fill: #4c72b0; stroke: #4c72b0"/>
     <use xlink:href="#m595d9d9686" x="337.202887" y="293.591058" style="fill: #4c72b0; stroke: #4c72b0"/>
     <use xlink:href="#m595d9d9686" x="338.164948" y="288.162319" style="fill: #4c72b0; stroke: #4c72b0"/>
     <use xlink:href="#m595d9d9686" x="339.12701" y="288.033206" style="fill: #4c72b0; stroke: #4c72b0"/>
     <use xlink:href="#m595d9d9686" x="340.089072" y="288.092228" style="fill: #4c72b0; stroke: #4c72b0"/>
     <use xlink:href="#m595d9d9686" x="341.051134" y="288.230279" style="fill: #4c72b0; stroke: #4c72b0"/>
     <use xlink:href="#m595d9d9686" x="342.013196" y="281.195633" style="fill: #4c72b0; stroke: #4c72b0"/>
     <use xlink:href="#m595d9d9686" x="342.975258" y="281.276132" style="fill: #4c72b0; stroke: #4c72b0"/>
     <use xlink:href="#m595d9d9686" x="343.93732" y="279.705788" style="fill: #4c72b0; stroke: #4c72b0"/>
     <use xlink:href="#m595d9d9686" x="344.899381" y="279.737806" style="fill: #4c72b0; stroke: #4c72b0"/>
     <use xlink:href="#m595d9d9686" x="345.861443" y="279.221222" style="fill: #4c72b0; stroke: #4c72b0"/>
     <use xlink:href="#m595d9d9686" x="346.823505" y="279.196361" style="fill: #4c72b0; stroke: #4c72b0"/>
     <use xlink:href="#m595d9d9686" x="347.785567" y="279.336611" style="fill: #4c72b0; stroke: #4c72b0"/>
     <use xlink:href="#m595d9d9686" x="348.747629" y="279.350917" style="fill: #4c72b0; stroke: #4c72b0"/>
     <use xlink:href="#m595d9d9686" x="349.709691" y="279.505584" style="fill: #4c72b0; stroke: #4c72b0"/>
     <use xlink:href="#m595d9d9686" x="350.671753" y="279.642628" style="fill: #4c72b0; stroke: #4c72b0"/>
     <use xlink:href="#m595d9d9686" x="351.633814" y="281.344972" style="fill: #4c72b0; stroke: #4c72b0"/>
     <use xlink:href="#m595d9d9686" x="352.595876" y="281.908521" style="fill: #4c72b0; stroke: #4c72b0"/>
     <use xlink:href="#m595d9d9686" x="353.557938" y="282.831181" style="fill: #4c72b0; stroke: #4c72b0"/>
     <use xlink:href="#m595d9d9686" x="354.52" y="282.961269" style="fill: #4c72b0; stroke: #4c72b0"/>
     <use xlink:href="#m595d9d9686" x="355.482062" y="283.143618" style="fill: #4c72b0; stroke: #4c72b0"/>
     <use xlink:href="#m595d9d9686" x="356.444124" y="283.264515" style="fill: #4c72b0; stroke: #4c72b0"/>
     <use xlink:href="#m595d9d9686" x="357.406186" y="283.474095" style="fill: #4c72b0; stroke: #4c72b0"/>
     <use xlink:href="#m595d9d9686" x="358.368247" y="283.650605" style="fill: #4c72b0; stroke: #4c72b0"/>
     <use xlink:href="#m595d9d9686" x="359.330309" y="283.845763" style="fill: #4c72b0; stroke: #4c72b0"/>
     <use xlink:href="#m595d9d9686" x="360.292371" y="284.059977" style="fill: #4c72b0; stroke: #4c72b0"/>
     <use xlink:href="#m595d9d9686" x="361.254433" y="284.337162" style="fill: #4c72b0; stroke: #4c72b0"/>
     <use xlink:href="#m595d9d9686" x="362.216495" y="284.662279" style="fill: #4c72b0; stroke: #4c72b0"/>
     <use xlink:href="#m595d9d9686" x="363.178557" y="284.866766" style="fill: #4c72b0; stroke: #4c72b0"/>
     <use xlink:href="#m595d9d9686" x="364.140619" y="285.008237" style="fill: #4c72b0; stroke: #4c72b0"/>
     <use xlink:href="#m595d9d9686" x="365.10268" y="285.16783" style="fill: #4c72b0; stroke: #4c72b0"/>
     <use xlink:href="#m595d9d9686" x="366.064742" y="285.353977" style="fill: #4c72b0; stroke: #4c72b0"/>
     <use xlink:href="#m595d9d9686" x="367.026804" y="285.512126" style="fill: #4c72b0; stroke: #4c72b0"/>
     <use xlink:href="#m595d9d9686" x="367.988866" y="285.690315" style="fill: #4c72b0; stroke: #4c72b0"/>
     <use xlink:href="#m595d9d9686" x="368.950928" y="285.821747" style="fill: #4c72b0; stroke: #4c72b0"/>
     <use xlink:href="#m595d9d9686" x="369.91299" y="285.925366" style="fill: #4c72b0; stroke: #4c72b0"/>
     <use xlink:href="#m595d9d9686" x="370.875052" y="285.934545" style="fill: #4c72b0; stroke: #4c72b0"/>
     <use xlink:href="#m595d9d9686" x="371.837113" y="286.050242" style="fill: #4c72b0; stroke: #4c72b0"/>
     <use xlink:href="#m595d9d9686" x="372.799175" y="286.127116" style="fill: #4c72b0; stroke: #4c72b0"/>
     <use xlink:href="#m595d9d9686" x="373.761237" y="282.434816" style="fill: #4c72b0; stroke: #4c72b0"/>
     <use xlink:href="#m595d9d9686" x="374.723299" y="282.572588" style="fill: #4c72b0; stroke: #4c72b0"/>
     <use xlink:href="#m595d9d9686" x="375.685361" y="282.626209" style="fill: #4c72b0; stroke: #4c72b0"/>
     <use xlink:href="#m595d9d9686" x="376.647423" y="282.609079" style="fill: #4c72b0; stroke: #4c72b0"/>
     <use xlink:href="#m595d9d9686" x="378.571546" y="291.688953" style="fill: #4c72b0; stroke: #4c72b0"/>
     <use xlink:href="#m595d9d9686" x="379.533608" y="291.695273" style="fill: #4c72b0; stroke: #4c72b0"/>
     <use xlink:href="#m595d9d9686" x="380.49567" y="291.685041" style="fill: #4c72b0; stroke: #4c72b0"/>
     <use xlink:href="#m595d9d9686" x="381.457732" y="291.364402" style="fill: #4c72b0; stroke: #4c72b0"/>
     <use xlink:href="#m595d9d9686" x="382.419794" y="286.168142" style="fill: #4c72b0; stroke: #4c72b0"/>
     <use xlink:href="#m595d9d9686" x="383.381856" y="286.257667" style="fill: #4c72b0; stroke: #4c72b0"/>
     <use xlink:href="#m595d9d9686" x="384.343918" y="286.161603" style="fill: #4c72b0; stroke: #4c72b0"/>
     <use xlink:href="#m595d9d9686" x="385.305979" y="285.692327" style="fill: #4c72b0; stroke: #4c72b0"/>
     <use xlink:href="#m595d9d9686" x="386.268041" y="285.670739" style="fill: #4c72b0; stroke: #4c72b0"/>
     <use xlink:href="#m595d9d9686" x="387.230103" y="285.758594" style="fill: #4c72b0; stroke: #4c72b0"/>
     <use xlink:href="#m595d9d9686" x="388.192165" y="285.708544" style="fill: #4c72b0; stroke: #4c72b0"/>
     <use xlink:href="#m595d9d9686" x="389.154227" y="282.295947" style="fill: #4c72b0; stroke: #4c72b0"/>
     <use xlink:href="#m595d9d9686" x="390.116289" y="282.390499" style="fill: #4c72b0; stroke: #4c72b0"/>
     <use xlink:href="#m595d9d9686" x="391.078351" y="282.832614" style="fill: #4c72b0; stroke: #4c72b0"/>
     <use xlink:href="#m595d9d9686" x="392.040412" y="282.928032" style="fill: #4c72b0; stroke: #4c72b0"/>
     <use xlink:href="#m595d9d9686" x="393.002474" y="283.197202" style="fill: #4c72b0; stroke: #4c72b0"/>
     <use xlink:href="#m595d9d9686" x="393.964536" y="283.298009" style="fill: #4c72b0; stroke: #4c72b0"/>
     <use xlink:href="#m595d9d9686" x="394.926598" y="283.406698" style="fill: #4c72b0; stroke: #4c72b0"/>
     <use xlink:href="#m595d9d9686" x="395.88866" y="283.552926" style="fill: #4c72b0; stroke: #4c72b0"/>
     <use xlink:href="#m595d9d9686" x="396.850722" y="283.711638" style="fill: #4c72b0; stroke: #4c72b0"/>
     <use xlink:href="#m595d9d9686" x="397.812784" y="283.868052" style="fill: #4c72b0; stroke: #4c72b0"/>
     <use xlink:href="#m595d9d9686" x="398.774845" y="284.821958" style="fill: #4c72b0; stroke: #4c72b0"/>
     <use xlink:href="#m595d9d9686" x="399.736907" y="284.856505" style="fill: #4c72b0; stroke: #4c72b0"/>
     <use xlink:href="#m595d9d9686" x="400.698969" y="286.492821" style="fill: #4c72b0; stroke: #4c72b0"/>
     <use xlink:href="#m595d9d9686" x="401.661031" y="286.425861" style="fill: #4c72b0; stroke: #4c72b0"/>
     <use xlink:href="#m595d9d9686" x="402.623093" y="286.407798" style="fill: #4c72b0; stroke: #4c72b0"/>
     <use xlink:href="#m595d9d9686" x="403.585155" y="286.374092" style="fill: #4c72b0; stroke: #4c72b0"/>
     <use xlink:href="#m595d9d9686" x="404.547216" y="286.256728" style="fill: #4c72b0; stroke: #4c72b0"/>
     <use xlink:href="#m595d9d9686" x="405.509278" y="286.143696" style="fill: #4c72b0; stroke: #4c72b0"/>
     <use xlink:href="#m595d9d9686" x="406.47134" y="285.966664" style="fill: #4c72b0; stroke: #4c72b0"/>
     <use xlink:href="#m595d9d9686" x="407.433402" y="285.936993" style="fill: #4c72b0; stroke: #4c72b0"/>
     <use xlink:href="#m595d9d9686" x="408.395464" y="285.877093" style="fill: #4c72b0; stroke: #4c72b0"/>
     <use xlink:href="#m595d9d9686" x="409.357526" y="285.714876" style="fill: #4c72b0; stroke: #4c72b0"/>
     <use xlink:href="#m595d9d9686" x="410.319588" y="285.592019" style="fill: #4c72b0; stroke: #4c72b0"/>
     <use xlink:href="#m595d9d9686" x="411.281649" y="285.554169" style="fill: #4c72b0; stroke: #4c72b0"/>
     <use xlink:href="#m595d9d9686" x="412.243711" y="285.513692" style="fill: #4c72b0; stroke: #4c72b0"/>
     <use xlink:href="#m595d9d9686" x="413.205773" y="285.51741" style="fill: #4c72b0; stroke: #4c72b0"/>
     <use xlink:href="#m595d9d9686" x="414.167835" y="285.476498" style="fill: #4c72b0; stroke: #4c72b0"/>
     <use xlink:href="#m595d9d9686" x="415.129897" y="285.458273" style="fill: #4c72b0; stroke: #4c72b0"/>
     <use xlink:href="#m595d9d9686" x="416.091959" y="285.367674" style="fill: #4c72b0; stroke: #4c72b0"/>
     <use xlink:href="#m595d9d9686" x="417.054021" y="285.250728" style="fill: #4c72b0; stroke: #4c72b0"/>
     <use xlink:href="#m595d9d9686" x="418.016082" y="285.017073" style="fill: #4c72b0; stroke: #4c72b0"/>
     <use xlink:href="#m595d9d9686" x="418.978144" y="284.970255" style="fill: #4c72b0; stroke: #4c72b0"/>
     <use xlink:href="#m595d9d9686" x="419.940206" y="284.896364" style="fill: #4c72b0; stroke: #4c72b0"/>
     <use xlink:href="#m595d9d9686" x="420.902268" y="281.971276" style="fill: #4c72b0; stroke: #4c72b0"/>
     <use xlink:href="#m595d9d9686" x="421.86433" y="281.877437" style="fill: #4c72b0; stroke: #4c72b0"/>
     <use xlink:href="#m595d9d9686" x="422.826392" y="281.833811" style="fill: #4c72b0; stroke: #4c72b0"/>
     <use xlink:href="#m595d9d9686" x="423.788454" y="281.813027" style="fill: #4c72b0; stroke: #4c72b0"/>
     <use xlink:href="#m595d9d9686" x="424.750515" y="276.609302" style="fill: #4c72b0; stroke: #4c72b0"/>
     <use xlink:href="#m595d9d9686" x="425.712577" y="276.454627" style="fill: #4c72b0; stroke: #4c72b0"/>
     <use xlink:href="#m595d9d9686" x="426.674639" y="276.487948" style="fill: #4c72b0; stroke: #4c72b0"/>
     <use xlink:href="#m595d9d9686" x="427.636701" y="276.665376" style="fill: #4c72b0; stroke: #4c72b0"/>
     <use xlink:href="#m595d9d9686" x="430.522887" y="281.583724" style="fill: #4c72b0; stroke: #4c72b0"/>
     <use xlink:href="#m595d9d9686" x="431.484948" y="281.473393" style="fill: #4c72b0; stroke: #4c72b0"/>
     <use xlink:href="#m595d9d9686" x="432.44701" y="281.462517" style="fill: #4c72b0; stroke: #4c72b0"/>
     <use xlink:href="#m595d9d9686" x="433.409072" y="285.618165" style="fill: #4c72b0; stroke: #4c72b0"/>
     <use xlink:href="#m595d9d9686" x="434.371134" y="285.687789" style="fill: #4c72b0; stroke: #4c72b0"/>
     <use xlink:href="#m595d9d9686" x="435.333196" y="285.656039" style="fill: #4c72b0; stroke: #4c72b0"/>
     <use xlink:href="#m595d9d9686" x="436.295258" y="285.579739" style="fill: #4c72b0; stroke: #4c72b0"/>
     <use xlink:href="#m595d9d9686" x="437.25732" y="286.771294" style="fill: #4c72b0; stroke: #4c72b0"/>
     <use xlink:href="#m595d9d9686" x="438.219381" y="286.748417" style="fill: #4c72b0; stroke: #4c72b0"/>
     <use xlink:href="#m595d9d9686" x="439.181443" y="288.396423" style="fill: #4c72b0; stroke: #4c72b0"/>
     <use xlink:href="#m595d9d9686" x="440.143505" y="288.311324" style="fill: #4c72b0; stroke: #4c72b0"/>
     <use xlink:href="#m595d9d9686" x="441.105567" y="288.324952" style="fill: #4c72b0; stroke: #4c72b0"/>
     <use xlink:href="#m595d9d9686" x="442.067629" y="288.238717" style="fill: #4c72b0; stroke: #4c72b0"/>
     <use xlink:href="#m595d9d9686" x="443.029691" y="288.107924" style="fill: #4c72b0; stroke: #4c72b0"/>
     <use xlink:href="#m595d9d9686" x="443.991753" y="287.96472" style="fill: #4c72b0; stroke: #4c72b0"/>
     <use xlink:href="#m595d9d9686" x="444.953814" y="287.795285" style="fill: #4c72b0; stroke: #4c72b0"/>
     <use xlink:href="#m595d9d9686" x="445.915876" y="287.637449" style="fill: #4c72b0; stroke: #4c72b0"/>
     <use xlink:href="#m595d9d9686" x="446.877938" y="287.159909" style="fill: #4c72b0; stroke: #4c72b0"/>
     <use xlink:href="#m595d9d9686" x="447.84" y="286.644885" style="fill: #4c72b0; stroke: #4c72b0"/>
    </g>
   </g>
   <g id="patch_18">
    <path d="M 74.56 311.94 
L 74.56 255.115 
" style="fill: none; stroke: #262626; stroke-width: 1.25; stroke-linejoin: miter; stroke-linecap: square"/>
   </g>
   <g id="patch_19">
    <path d="M 447.84 311.94 
L 447.84 255.115 
" style="fill: none; stroke: #262626; stroke-width: 1.25; stroke-linejoin: miter; stroke-linecap: square"/>
   </g>
   <g id="patch_20">
    <path d="M 74.56 311.94 
L 447.84 311.94 
" style="fill: none; stroke: #262626; stroke-width: 1.25; stroke-linejoin: miter; stroke-linecap: square"/>
   </g>
   <g id="patch_21">
    <path d="M 74.56 255.115 
L 447.84 255.115 
" style="fill: none; stroke: #262626; stroke-width: 1.25; stroke-linejoin: miter; stroke-linecap: square"/>
   </g>
  </g>
 </g>
 <defs>
  <clipPath id="p280f57e802">
   <rect x="74.56" y="27.76" width="373.28" height="56.825"/>
  </clipPath>
  <clipPath id="p9eb492075f">
   <rect x="74.56" y="103.545" width="373.28" height="56.825"/>
  </clipPath>
  <clipPath id="p03d2c99874">
   <rect x="74.56" y="179.33" width="373.28" height="56.825"/>
  </clipPath>
  <clipPath id="p8dbaf8bded">
   <rect x="74.56" y="255.115" width="373.28" height="56.825"/>
  </clipPath>
 </defs>
</svg>
