<?xml version="1.0" encoding="utf-8" standalone="no"?>
<!DOCTYPE svg PUBLIC "-//W3C//DTD SVG 1.1//EN"
  "http://www.w3.org/Graphics/SVG/1.1/DTD/svg11.dtd">
<svg xmlns:xlink="http://www.w3.org/1999/xlink" width="864pt" height="360pt" viewBox="0 0 864 360" xmlns="http://www.w3.org/2000/svg" version="1.1">
 <metadata>
  <rdf:RDF xmlns:dc="http://purl.org/dc/elements/1.1/" xmlns:cc="http://creativecommons.org/ns#" xmlns:rdf="http://www.w3.org/1999/02/22-rdf-syntax-ns#">
   <cc:Work>
    <dc:type rdf:resource="http://purl.org/dc/dcmitype/StillImage"/>
    <dc:date>2023-07-11T02:04:17.227685</dc:date>
    <dc:format>image/svg+xml</dc:format>
    <dc:creator>
     <cc:Agent>
      <dc:title>Matplotlib v3.7.1, https://matplotlib.org/</dc:title>
     </cc:Agent>
    </dc:creator>
   </cc:Work>
  </rdf:RDF>
 </metadata>
 <defs>
  <style type="text/css">*{stroke-linejoin: round; stroke-linecap: butt}</style>
 </defs>
 <g id="figure_1">
  <g id="patch_1">
   <path d="M 0 360 
L 864 360 
L 864 0 
L 0 0 
z
" style="fill: #ffffff"/>
  </g>
  <g id="axes_1">
   <g id="patch_2">
    <path d="M 108 320.4 
L 777.6 320.4 
L 777.6 43.2 
L 108 43.2 
z
" style="fill: #ffffff"/>
   </g>
   <g id="matplotlib.axis_1">
    <g id="xtick_1">
     <g id="line2d_1">
      <defs>
       <path id="m5dbf6c9635" d="M 0 0 
L 0 6 
" style="stroke: #262626; stroke-width: 1.25"/>
      </defs>
      <g>
       <use xlink:href="#m5dbf6c9635" x="130.367814" y="320.4" style="fill: #262626; stroke: #262626; stroke-width: 1.25"/>
      </g>
     </g>
     <g id="text_1">
      <!-- 2016 -->
      <g style="fill: #262626" transform="translate(118.133751 337.773594) scale(0.11 -0.11)">
       <defs>
        <path id="ArialMT-32" d="M 3222 541 
L 3222 0 
L 194 0 
Q 188 203 259 391 
Q 375 700 629 1000 
Q 884 1300 1366 1694 
Q 2113 2306 2375 2664 
Q 2638 3022 2638 3341 
Q 2638 3675 2398 3904 
Q 2159 4134 1775 4134 
Q 1369 4134 1125 3890 
Q 881 3647 878 3216 
L 300 3275 
Q 359 3922 746 4261 
Q 1134 4600 1788 4600 
Q 2447 4600 2831 4234 
Q 3216 3869 3216 3328 
Q 3216 3053 3103 2787 
Q 2991 2522 2730 2228 
Q 2469 1934 1863 1422 
Q 1356 997 1212 845 
Q 1069 694 975 541 
L 3222 541 
z
" transform="scale(0.015625)"/>
        <path id="ArialMT-30" d="M 266 2259 
Q 266 3072 433 3567 
Q 600 4063 929 4331 
Q 1259 4600 1759 4600 
Q 2128 4600 2406 4451 
Q 2684 4303 2865 4023 
Q 3047 3744 3150 3342 
Q 3253 2941 3253 2259 
Q 3253 1453 3087 958 
Q 2922 463 2592 192 
Q 2263 -78 1759 -78 
Q 1097 -78 719 397 
Q 266 969 266 2259 
z
M 844 2259 
Q 844 1131 1108 757 
Q 1372 384 1759 384 
Q 2147 384 2411 759 
Q 2675 1134 2675 2259 
Q 2675 3391 2411 3762 
Q 2147 4134 1753 4134 
Q 1366 4134 1134 3806 
Q 844 3388 844 2259 
z
" transform="scale(0.015625)"/>
        <path id="ArialMT-31" d="M 2384 0 
L 1822 0 
L 1822 3584 
Q 1619 3391 1289 3197 
Q 959 3003 697 2906 
L 697 3450 
Q 1169 3672 1522 3987 
Q 1875 4303 2022 4600 
L 2384 4600 
L 2384 0 
z
" transform="scale(0.015625)"/>
        <path id="ArialMT-36" d="M 3184 3459 
L 2625 3416 
Q 2550 3747 2413 3897 
Q 2184 4138 1850 4138 
Q 1581 4138 1378 3988 
Q 1113 3794 959 3422 
Q 806 3050 800 2363 
Q 1003 2672 1297 2822 
Q 1591 2972 1913 2972 
Q 2475 2972 2870 2558 
Q 3266 2144 3266 1488 
Q 3266 1056 3080 686 
Q 2894 316 2569 119 
Q 2244 -78 1831 -78 
Q 1128 -78 684 439 
Q 241 956 241 2144 
Q 241 3472 731 4075 
Q 1159 4600 1884 4600 
Q 2425 4600 2770 4297 
Q 3116 3994 3184 3459 
z
M 888 1484 
Q 888 1194 1011 928 
Q 1134 663 1356 523 
Q 1578 384 1822 384 
Q 2178 384 2434 671 
Q 2691 959 2691 1453 
Q 2691 1928 2437 2201 
Q 2184 2475 1800 2475 
Q 1419 2475 1153 2201 
Q 888 1928 888 1484 
z
" transform="scale(0.015625)"/>
       </defs>
       <use xlink:href="#ArialMT-32"/>
       <use xlink:href="#ArialMT-30" x="55.615234"/>
       <use xlink:href="#ArialMT-31" x="111.230469"/>
       <use xlink:href="#ArialMT-36" x="166.845703"/>
      </g>
     </g>
    </g>
    <g id="xtick_2">
     <g id="line2d_2">
      <g>
       <use xlink:href="#m5dbf6c9635" x="212.398072" y="320.4" style="fill: #262626; stroke: #262626; stroke-width: 1.25"/>
      </g>
     </g>
     <g id="text_2">
      <!-- 2017 -->
      <g style="fill: #262626" transform="translate(200.16401 337.773594) scale(0.11 -0.11)">
       <defs>
        <path id="ArialMT-37" d="M 303 3981 
L 303 4522 
L 3269 4522 
L 3269 4084 
Q 2831 3619 2401 2847 
Q 1972 2075 1738 1259 
Q 1569 684 1522 0 
L 944 0 
Q 953 541 1156 1306 
Q 1359 2072 1739 2783 
Q 2119 3494 2547 3981 
L 303 3981 
z
" transform="scale(0.015625)"/>
       </defs>
       <use xlink:href="#ArialMT-32"/>
       <use xlink:href="#ArialMT-30" x="55.615234"/>
       <use xlink:href="#ArialMT-31" x="111.230469"/>
       <use xlink:href="#ArialMT-37" x="166.845703"/>
      </g>
     </g>
    </g>
    <g id="xtick_3">
     <g id="line2d_3">
      <g>
       <use xlink:href="#m5dbf6c9635" x="294.204204" y="320.4" style="fill: #262626; stroke: #262626; stroke-width: 1.25"/>
      </g>
     </g>
     <g id="text_3">
      <!-- 2018 -->
      <g style="fill: #262626" transform="translate(281.970142 337.773594) scale(0.11 -0.11)">
       <defs>
        <path id="ArialMT-38" d="M 1131 2484 
Q 781 2613 612 2850 
Q 444 3088 444 3419 
Q 444 3919 803 4259 
Q 1163 4600 1759 4600 
Q 2359 4600 2725 4251 
Q 3091 3903 3091 3403 
Q 3091 3084 2923 2848 
Q 2756 2613 2416 2484 
Q 2838 2347 3058 2040 
Q 3278 1734 3278 1309 
Q 3278 722 2862 322 
Q 2447 -78 1769 -78 
Q 1091 -78 675 323 
Q 259 725 259 1325 
Q 259 1772 486 2073 
Q 713 2375 1131 2484 
z
M 1019 3438 
Q 1019 3113 1228 2906 
Q 1438 2700 1772 2700 
Q 2097 2700 2305 2904 
Q 2513 3109 2513 3406 
Q 2513 3716 2298 3927 
Q 2084 4138 1766 4138 
Q 1444 4138 1231 3931 
Q 1019 3725 1019 3438 
z
M 838 1322 
Q 838 1081 952 856 
Q 1066 631 1291 507 
Q 1516 384 1775 384 
Q 2178 384 2440 643 
Q 2703 903 2703 1303 
Q 2703 1709 2433 1975 
Q 2163 2241 1756 2241 
Q 1359 2241 1098 1978 
Q 838 1716 838 1322 
z
" transform="scale(0.015625)"/>
       </defs>
       <use xlink:href="#ArialMT-32"/>
       <use xlink:href="#ArialMT-30" x="55.615234"/>
       <use xlink:href="#ArialMT-31" x="111.230469"/>
       <use xlink:href="#ArialMT-38" x="166.845703"/>
      </g>
     </g>
    </g>
    <g id="xtick_4">
     <g id="line2d_4">
      <g>
       <use xlink:href="#m5dbf6c9635" x="376.010336" y="320.4" style="fill: #262626; stroke: #262626; stroke-width: 1.25"/>
      </g>
     </g>
     <g id="text_4">
      <!-- 2019 -->
      <g style="fill: #262626" transform="translate(363.776274 337.773594) scale(0.11 -0.11)">
       <defs>
        <path id="ArialMT-39" d="M 350 1059 
L 891 1109 
Q 959 728 1153 556 
Q 1347 384 1650 384 
Q 1909 384 2104 503 
Q 2300 622 2425 820 
Q 2550 1019 2634 1356 
Q 2719 1694 2719 2044 
Q 2719 2081 2716 2156 
Q 2547 1888 2255 1720 
Q 1963 1553 1622 1553 
Q 1053 1553 659 1965 
Q 266 2378 266 3053 
Q 266 3750 677 4175 
Q 1088 4600 1706 4600 
Q 2153 4600 2523 4359 
Q 2894 4119 3086 3673 
Q 3278 3228 3278 2384 
Q 3278 1506 3087 986 
Q 2897 466 2520 194 
Q 2144 -78 1638 -78 
Q 1100 -78 759 220 
Q 419 519 350 1059 
z
M 2653 3081 
Q 2653 3566 2395 3850 
Q 2138 4134 1775 4134 
Q 1400 4134 1122 3828 
Q 844 3522 844 3034 
Q 844 2597 1108 2323 
Q 1372 2050 1759 2050 
Q 2150 2050 2401 2323 
Q 2653 2597 2653 3081 
z
" transform="scale(0.015625)"/>
       </defs>
       <use xlink:href="#ArialMT-32"/>
       <use xlink:href="#ArialMT-30" x="55.615234"/>
       <use xlink:href="#ArialMT-31" x="111.230469"/>
       <use xlink:href="#ArialMT-39" x="166.845703"/>
      </g>
     </g>
    </g>
    <g id="xtick_5">
     <g id="line2d_5">
      <g>
       <use xlink:href="#m5dbf6c9635" x="457.816468" y="320.4" style="fill: #262626; stroke: #262626; stroke-width: 1.25"/>
      </g>
     </g>
     <g id="text_5">
      <!-- 2020 -->
      <g style="fill: #262626" transform="translate(445.582406 337.773594) scale(0.11 -0.11)">
       <use xlink:href="#ArialMT-32"/>
       <use xlink:href="#ArialMT-30" x="55.615234"/>
       <use xlink:href="#ArialMT-32" x="111.230469"/>
       <use xlink:href="#ArialMT-30" x="166.845703"/>
      </g>
     </g>
    </g>
    <g id="xtick_6">
     <g id="line2d_6">
      <g>
       <use xlink:href="#m5dbf6c9635" x="539.846726" y="320.4" style="fill: #262626; stroke: #262626; stroke-width: 1.25"/>
      </g>
     </g>
     <g id="text_6">
      <!-- 2021 -->
      <g style="fill: #262626" transform="translate(527.612664 337.773594) scale(0.11 -0.11)">
       <use xlink:href="#ArialMT-32"/>
       <use xlink:href="#ArialMT-30" x="55.615234"/>
       <use xlink:href="#ArialMT-32" x="111.230469"/>
       <use xlink:href="#ArialMT-31" x="166.845703"/>
      </g>
     </g>
    </g>
    <g id="xtick_7">
     <g id="line2d_7">
      <g>
       <use xlink:href="#m5dbf6c9635" x="621.652858" y="320.4" style="fill: #262626; stroke: #262626; stroke-width: 1.25"/>
      </g>
     </g>
     <g id="text_7">
      <!-- 2022 -->
      <g style="fill: #262626" transform="translate(609.418796 337.773594) scale(0.11 -0.11)">
       <use xlink:href="#ArialMT-32"/>
       <use xlink:href="#ArialMT-30" x="55.615234"/>
       <use xlink:href="#ArialMT-32" x="111.230469"/>
       <use xlink:href="#ArialMT-32" x="166.845703"/>
      </g>
     </g>
    </g>
    <g id="xtick_8">
     <g id="line2d_8">
      <g>
       <use xlink:href="#m5dbf6c9635" x="703.45899" y="320.4" style="fill: #262626; stroke: #262626; stroke-width: 1.25"/>
      </g>
     </g>
     <g id="text_8">
      <!-- 2023 -->
      <g style="fill: #262626" transform="translate(691.224928 337.773594) scale(0.11 -0.11)">
       <defs>
        <path id="ArialMT-33" d="M 269 1209 
L 831 1284 
Q 928 806 1161 595 
Q 1394 384 1728 384 
Q 2125 384 2398 659 
Q 2672 934 2672 1341 
Q 2672 1728 2419 1979 
Q 2166 2231 1775 2231 
Q 1616 2231 1378 2169 
L 1441 2663 
Q 1497 2656 1531 2656 
Q 1891 2656 2178 2843 
Q 2466 3031 2466 3422 
Q 2466 3731 2256 3934 
Q 2047 4138 1716 4138 
Q 1388 4138 1169 3931 
Q 950 3725 888 3313 
L 325 3413 
Q 428 3978 793 4289 
Q 1159 4600 1703 4600 
Q 2078 4600 2393 4439 
Q 2709 4278 2876 4000 
Q 3044 3722 3044 3409 
Q 3044 3113 2884 2869 
Q 2725 2625 2413 2481 
Q 2819 2388 3044 2092 
Q 3269 1797 3269 1353 
Q 3269 753 2831 336 
Q 2394 -81 1725 -81 
Q 1122 -81 723 278 
Q 325 638 269 1209 
z
" transform="scale(0.015625)"/>
       </defs>
       <use xlink:href="#ArialMT-32"/>
       <use xlink:href="#ArialMT-30" x="55.615234"/>
       <use xlink:href="#ArialMT-32" x="111.230469"/>
       <use xlink:href="#ArialMT-33" x="166.845703"/>
      </g>
     </g>
    </g>
    <g id="text_9">
     <!-- Date -->
     <g style="fill: #262626" transform="translate(430.126875 352.549219) scale(0.12 -0.12)">
      <defs>
       <path id="ArialMT-44" d="M 494 0 
L 494 4581 
L 2072 4581 
Q 2606 4581 2888 4516 
Q 3281 4425 3559 4188 
Q 3922 3881 4101 3404 
Q 4281 2928 4281 2316 
Q 4281 1794 4159 1391 
Q 4038 988 3847 723 
Q 3656 459 3429 307 
Q 3203 156 2883 78 
Q 2563 0 2147 0 
L 494 0 
z
M 1100 541 
L 2078 541 
Q 2531 541 2789 625 
Q 3047 709 3200 863 
Q 3416 1078 3536 1442 
Q 3656 1806 3656 2325 
Q 3656 3044 3420 3430 
Q 3184 3816 2847 3947 
Q 2603 4041 2063 4041 
L 1100 4041 
L 1100 541 
z
" transform="scale(0.015625)"/>
       <path id="ArialMT-61" d="M 2588 409 
Q 2275 144 1986 34 
Q 1697 -75 1366 -75 
Q 819 -75 525 192 
Q 231 459 231 875 
Q 231 1119 342 1320 
Q 453 1522 633 1644 
Q 813 1766 1038 1828 
Q 1203 1872 1538 1913 
Q 2219 1994 2541 2106 
Q 2544 2222 2544 2253 
Q 2544 2597 2384 2738 
Q 2169 2928 1744 2928 
Q 1347 2928 1158 2789 
Q 969 2650 878 2297 
L 328 2372 
Q 403 2725 575 2942 
Q 747 3159 1072 3276 
Q 1397 3394 1825 3394 
Q 2250 3394 2515 3294 
Q 2781 3194 2906 3042 
Q 3031 2891 3081 2659 
Q 3109 2516 3109 2141 
L 3109 1391 
Q 3109 606 3145 398 
Q 3181 191 3288 0 
L 2700 0 
Q 2613 175 2588 409 
z
M 2541 1666 
Q 2234 1541 1622 1453 
Q 1275 1403 1131 1340 
Q 988 1278 909 1158 
Q 831 1038 831 891 
Q 831 666 1001 516 
Q 1172 366 1500 366 
Q 1825 366 2078 508 
Q 2331 650 2450 897 
Q 2541 1088 2541 1459 
L 2541 1666 
z
" transform="scale(0.015625)"/>
       <path id="ArialMT-74" d="M 1650 503 
L 1731 6 
Q 1494 -44 1306 -44 
Q 1000 -44 831 53 
Q 663 150 594 308 
Q 525 466 525 972 
L 525 2881 
L 113 2881 
L 113 3319 
L 525 3319 
L 525 4141 
L 1084 4478 
L 1084 3319 
L 1650 3319 
L 1650 2881 
L 1084 2881 
L 1084 941 
Q 1084 700 1114 631 
Q 1144 563 1211 522 
Q 1278 481 1403 481 
Q 1497 481 1650 503 
z
" transform="scale(0.015625)"/>
       <path id="ArialMT-65" d="M 2694 1069 
L 3275 997 
Q 3138 488 2766 206 
Q 2394 -75 1816 -75 
Q 1088 -75 661 373 
Q 234 822 234 1631 
Q 234 2469 665 2931 
Q 1097 3394 1784 3394 
Q 2450 3394 2872 2941 
Q 3294 2488 3294 1666 
Q 3294 1616 3291 1516 
L 816 1516 
Q 847 969 1125 678 
Q 1403 388 1819 388 
Q 2128 388 2347 550 
Q 2566 713 2694 1069 
z
M 847 1978 
L 2700 1978 
Q 2663 2397 2488 2606 
Q 2219 2931 1791 2931 
Q 1403 2931 1139 2672 
Q 875 2413 847 1978 
z
" transform="scale(0.015625)"/>
      </defs>
      <use xlink:href="#ArialMT-44"/>
      <use xlink:href="#ArialMT-61" x="72.216797"/>
      <use xlink:href="#ArialMT-74" x="127.832031"/>
      <use xlink:href="#ArialMT-65" x="155.615234"/>
     </g>
    </g>
   </g>
   <g id="matplotlib.axis_2">
    <g id="ytick_1">
     <g id="line2d_9">
      <defs>
       <path id="m21b4111a7a" d="M 0 0 
L -6 0 
" style="stroke: #262626; stroke-width: 1.25"/>
      </defs>
      <g>
       <use xlink:href="#m21b4111a7a" x="108" y="319.706672" style="fill: #262626; stroke: #262626; stroke-width: 1.25"/>
      </g>
     </g>
     <g id="text_10">
      <!-- 0 -->
      <g style="fill: #262626" transform="translate(92.382969 323.643469) scale(0.11 -0.11)">
       <use xlink:href="#ArialMT-30"/>
      </g>
     </g>
    </g>
    <g id="ytick_2">
     <g id="line2d_10">
      <g>
       <use xlink:href="#m21b4111a7a" x="108" y="285.040294" style="fill: #262626; stroke: #262626; stroke-width: 1.25"/>
      </g>
     </g>
     <g id="text_11">
      <!-- 2500 -->
      <g style="fill: #262626" transform="translate(74.031875 288.977091) scale(0.11 -0.11)">
       <defs>
        <path id="ArialMT-35" d="M 266 1200 
L 856 1250 
Q 922 819 1161 601 
Q 1400 384 1738 384 
Q 2144 384 2425 690 
Q 2706 997 2706 1503 
Q 2706 1984 2436 2262 
Q 2166 2541 1728 2541 
Q 1456 2541 1237 2417 
Q 1019 2294 894 2097 
L 366 2166 
L 809 4519 
L 3088 4519 
L 3088 3981 
L 1259 3981 
L 1013 2750 
Q 1425 3038 1878 3038 
Q 2478 3038 2890 2622 
Q 3303 2206 3303 1553 
Q 3303 931 2941 478 
Q 2500 -78 1738 -78 
Q 1113 -78 717 272 
Q 322 622 266 1200 
z
" transform="scale(0.015625)"/>
       </defs>
       <use xlink:href="#ArialMT-32"/>
       <use xlink:href="#ArialMT-35" x="55.615234"/>
       <use xlink:href="#ArialMT-30" x="111.230469"/>
       <use xlink:href="#ArialMT-30" x="166.845703"/>
      </g>
     </g>
    </g>
    <g id="ytick_3">
     <g id="line2d_11">
      <g>
       <use xlink:href="#m21b4111a7a" x="108" y="250.373915" style="fill: #262626; stroke: #262626; stroke-width: 1.25"/>
      </g>
     </g>
     <g id="text_12">
      <!-- 5000 -->
      <g style="fill: #262626" transform="translate(74.031875 254.310712) scale(0.11 -0.11)">
       <use xlink:href="#ArialMT-35"/>
       <use xlink:href="#ArialMT-30" x="55.615234"/>
       <use xlink:href="#ArialMT-30" x="111.230469"/>
       <use xlink:href="#ArialMT-30" x="166.845703"/>
      </g>
     </g>
    </g>
    <g id="ytick_4">
     <g id="line2d_12">
      <g>
       <use xlink:href="#m21b4111a7a" x="108" y="215.707537" style="fill: #262626; stroke: #262626; stroke-width: 1.25"/>
      </g>
     </g>
     <g id="text_13">
      <!-- 7500 -->
      <g style="fill: #262626" transform="translate(74.031875 219.644334) scale(0.11 -0.11)">
       <use xlink:href="#ArialMT-37"/>
       <use xlink:href="#ArialMT-35" x="55.615234"/>
       <use xlink:href="#ArialMT-30" x="111.230469"/>
       <use xlink:href="#ArialMT-30" x="166.845703"/>
      </g>
     </g>
    </g>
    <g id="ytick_5">
     <g id="line2d_13">
      <g>
       <use xlink:href="#m21b4111a7a" x="108" y="181.041158" style="fill: #262626; stroke: #262626; stroke-width: 1.25"/>
      </g>
     </g>
     <g id="text_14">
      <!-- 10000 -->
      <g style="fill: #262626" transform="translate(67.914844 184.977955) scale(0.11 -0.11)">
       <use xlink:href="#ArialMT-31"/>
       <use xlink:href="#ArialMT-30" x="55.615234"/>
       <use xlink:href="#ArialMT-30" x="111.230469"/>
       <use xlink:href="#ArialMT-30" x="166.845703"/>
       <use xlink:href="#ArialMT-30" x="222.460938"/>
      </g>
     </g>
    </g>
    <g id="ytick_6">
     <g id="line2d_14">
      <g>
       <use xlink:href="#m21b4111a7a" x="108" y="146.37478" style="fill: #262626; stroke: #262626; stroke-width: 1.25"/>
      </g>
     </g>
     <g id="text_15">
      <!-- 12500 -->
      <g style="fill: #262626" transform="translate(67.914844 150.311577) scale(0.11 -0.11)">
       <use xlink:href="#ArialMT-31"/>
       <use xlink:href="#ArialMT-32" x="55.615234"/>
       <use xlink:href="#ArialMT-35" x="111.230469"/>
       <use xlink:href="#ArialMT-30" x="166.845703"/>
       <use xlink:href="#ArialMT-30" x="222.460938"/>
      </g>
     </g>
    </g>
    <g id="ytick_7">
     <g id="line2d_15">
      <g>
       <use xlink:href="#m21b4111a7a" x="108" y="111.708401" style="fill: #262626; stroke: #262626; stroke-width: 1.25"/>
      </g>
     </g>
     <g id="text_16">
      <!-- 15000 -->
      <g style="fill: #262626" transform="translate(67.914844 115.645198) scale(0.11 -0.11)">
       <use xlink:href="#ArialMT-31"/>
       <use xlink:href="#ArialMT-35" x="55.615234"/>
       <use xlink:href="#ArialMT-30" x="111.230469"/>
       <use xlink:href="#ArialMT-30" x="166.845703"/>
       <use xlink:href="#ArialMT-30" x="222.460938"/>
      </g>
     </g>
    </g>
    <g id="ytick_8">
     <g id="line2d_16">
      <g>
       <use xlink:href="#m21b4111a7a" x="108" y="77.042023" style="fill: #262626; stroke: #262626; stroke-width: 1.25"/>
      </g>
     </g>
     <g id="text_17">
      <!-- 17500 -->
      <g style="fill: #262626" transform="translate(67.914844 80.97882) scale(0.11 -0.11)">
       <use xlink:href="#ArialMT-31"/>
       <use xlink:href="#ArialMT-37" x="55.615234"/>
       <use xlink:href="#ArialMT-35" x="111.230469"/>
       <use xlink:href="#ArialMT-30" x="166.845703"/>
       <use xlink:href="#ArialMT-30" x="222.460938"/>
      </g>
     </g>
    </g>
    <g id="text_18">
     <!-- Number of Cases -->
     <g style="fill: #262626" transform="translate(61.529844 228.481875) rotate(-90) scale(0.12 -0.12)">
      <defs>
       <path id="ArialMT-4e" d="M 488 0 
L 488 4581 
L 1109 4581 
L 3516 984 
L 3516 4581 
L 4097 4581 
L 4097 0 
L 3475 0 
L 1069 3600 
L 1069 0 
L 488 0 
z
" transform="scale(0.015625)"/>
       <path id="ArialMT-75" d="M 2597 0 
L 2597 488 
Q 2209 -75 1544 -75 
Q 1250 -75 995 37 
Q 741 150 617 320 
Q 494 491 444 738 
Q 409 903 409 1263 
L 409 3319 
L 972 3319 
L 972 1478 
Q 972 1038 1006 884 
Q 1059 663 1231 536 
Q 1403 409 1656 409 
Q 1909 409 2131 539 
Q 2353 669 2445 892 
Q 2538 1116 2538 1541 
L 2538 3319 
L 3100 3319 
L 3100 0 
L 2597 0 
z
" transform="scale(0.015625)"/>
       <path id="ArialMT-6d" d="M 422 0 
L 422 3319 
L 925 3319 
L 925 2853 
Q 1081 3097 1340 3245 
Q 1600 3394 1931 3394 
Q 2300 3394 2536 3241 
Q 2772 3088 2869 2813 
Q 3263 3394 3894 3394 
Q 4388 3394 4653 3120 
Q 4919 2847 4919 2278 
L 4919 0 
L 4359 0 
L 4359 2091 
Q 4359 2428 4304 2576 
Q 4250 2725 4106 2815 
Q 3963 2906 3769 2906 
Q 3419 2906 3187 2673 
Q 2956 2441 2956 1928 
L 2956 0 
L 2394 0 
L 2394 2156 
Q 2394 2531 2256 2718 
Q 2119 2906 1806 2906 
Q 1569 2906 1367 2781 
Q 1166 2656 1075 2415 
Q 984 2175 984 1722 
L 984 0 
L 422 0 
z
" transform="scale(0.015625)"/>
       <path id="ArialMT-62" d="M 941 0 
L 419 0 
L 419 4581 
L 981 4581 
L 981 2947 
Q 1338 3394 1891 3394 
Q 2197 3394 2470 3270 
Q 2744 3147 2920 2923 
Q 3097 2700 3197 2384 
Q 3297 2069 3297 1709 
Q 3297 856 2875 390 
Q 2453 -75 1863 -75 
Q 1275 -75 941 416 
L 941 0 
z
M 934 1684 
Q 934 1088 1097 822 
Q 1363 388 1816 388 
Q 2184 388 2453 708 
Q 2722 1028 2722 1663 
Q 2722 2313 2464 2622 
Q 2206 2931 1841 2931 
Q 1472 2931 1203 2611 
Q 934 2291 934 1684 
z
" transform="scale(0.015625)"/>
       <path id="ArialMT-72" d="M 416 0 
L 416 3319 
L 922 3319 
L 922 2816 
Q 1116 3169 1280 3281 
Q 1444 3394 1641 3394 
Q 1925 3394 2219 3213 
L 2025 2691 
Q 1819 2813 1613 2813 
Q 1428 2813 1281 2702 
Q 1134 2591 1072 2394 
Q 978 2094 978 1738 
L 978 0 
L 416 0 
z
" transform="scale(0.015625)"/>
       <path id="ArialMT-20" transform="scale(0.015625)"/>
       <path id="ArialMT-6f" d="M 213 1659 
Q 213 2581 725 3025 
Q 1153 3394 1769 3394 
Q 2453 3394 2887 2945 
Q 3322 2497 3322 1706 
Q 3322 1066 3130 698 
Q 2938 331 2570 128 
Q 2203 -75 1769 -75 
Q 1072 -75 642 372 
Q 213 819 213 1659 
z
M 791 1659 
Q 791 1022 1069 705 
Q 1347 388 1769 388 
Q 2188 388 2466 706 
Q 2744 1025 2744 1678 
Q 2744 2294 2464 2611 
Q 2184 2928 1769 2928 
Q 1347 2928 1069 2612 
Q 791 2297 791 1659 
z
" transform="scale(0.015625)"/>
       <path id="ArialMT-66" d="M 556 0 
L 556 2881 
L 59 2881 
L 59 3319 
L 556 3319 
L 556 3672 
Q 556 4006 616 4169 
Q 697 4388 901 4523 
Q 1106 4659 1475 4659 
Q 1713 4659 2000 4603 
L 1916 4113 
Q 1741 4144 1584 4144 
Q 1328 4144 1222 4034 
Q 1116 3925 1116 3625 
L 1116 3319 
L 1763 3319 
L 1763 2881 
L 1116 2881 
L 1116 0 
L 556 0 
z
" transform="scale(0.015625)"/>
       <path id="ArialMT-43" d="M 3763 1606 
L 4369 1453 
Q 4178 706 3683 314 
Q 3188 -78 2472 -78 
Q 1731 -78 1267 223 
Q 803 525 561 1097 
Q 319 1669 319 2325 
Q 319 3041 592 3573 
Q 866 4106 1370 4382 
Q 1875 4659 2481 4659 
Q 3169 4659 3637 4309 
Q 4106 3959 4291 3325 
L 3694 3184 
Q 3534 3684 3231 3912 
Q 2928 4141 2469 4141 
Q 1941 4141 1586 3887 
Q 1231 3634 1087 3207 
Q 944 2781 944 2328 
Q 944 1744 1114 1308 
Q 1284 872 1643 656 
Q 2003 441 2422 441 
Q 2931 441 3284 734 
Q 3638 1028 3763 1606 
z
" transform="scale(0.015625)"/>
       <path id="ArialMT-73" d="M 197 991 
L 753 1078 
Q 800 744 1014 566 
Q 1228 388 1613 388 
Q 2000 388 2187 545 
Q 2375 703 2375 916 
Q 2375 1106 2209 1216 
Q 2094 1291 1634 1406 
Q 1016 1563 777 1677 
Q 538 1791 414 1992 
Q 291 2194 291 2438 
Q 291 2659 392 2848 
Q 494 3038 669 3163 
Q 800 3259 1026 3326 
Q 1253 3394 1513 3394 
Q 1903 3394 2198 3281 
Q 2494 3169 2634 2976 
Q 2775 2784 2828 2463 
L 2278 2388 
Q 2241 2644 2061 2787 
Q 1881 2931 1553 2931 
Q 1166 2931 1000 2803 
Q 834 2675 834 2503 
Q 834 2394 903 2306 
Q 972 2216 1119 2156 
Q 1203 2125 1616 2013 
Q 2213 1853 2448 1751 
Q 2684 1650 2818 1456 
Q 2953 1263 2953 975 
Q 2953 694 2789 445 
Q 2625 197 2315 61 
Q 2006 -75 1616 -75 
Q 969 -75 630 194 
Q 291 463 197 991 
z
" transform="scale(0.015625)"/>
      </defs>
      <use xlink:href="#ArialMT-4e"/>
      <use xlink:href="#ArialMT-75" x="72.216797"/>
      <use xlink:href="#ArialMT-6d" x="127.832031"/>
      <use xlink:href="#ArialMT-62" x="211.132812"/>
      <use xlink:href="#ArialMT-65" x="266.748047"/>
      <use xlink:href="#ArialMT-72" x="322.363281"/>
      <use xlink:href="#ArialMT-20" x="355.664062"/>
      <use xlink:href="#ArialMT-6f" x="383.447266"/>
      <use xlink:href="#ArialMT-66" x="439.0625"/>
      <use xlink:href="#ArialMT-20" x="466.845703"/>
      <use xlink:href="#ArialMT-43" x="494.628906"/>
      <use xlink:href="#ArialMT-61" x="566.845703"/>
      <use xlink:href="#ArialMT-73" x="622.460938"/>
      <use xlink:href="#ArialMT-65" x="672.460938"/>
      <use xlink:href="#ArialMT-73" x="728.076172"/>
     </g>
    </g>
   </g>
   <g id="PolyCollection_1">
    <defs>
     <path id="m3704a6b01d" d="M 635.772821 -59.822054 
L 635.772821 -40.293189 
L 637.341706 -40.293189 
L 638.91059 -40.293189 
L 640.479475 -40.293189 
L 642.04836 -40.293189 
L 643.617245 -40.293189 
L 645.186129 -40.293189 
L 646.755014 -40.293189 
L 648.323899 -40.293189 
L 649.892784 -40.293189 
L 651.461668 -40.293189 
L 653.030553 -40.293189 
L 654.599438 -40.293189 
L 656.168322 -40.293189 
L 657.737207 -40.293189 
L 659.306092 -40.293189 
L 660.874977 -40.293189 
L 662.443861 -40.293189 
L 664.012746 -40.293189 
L 665.581631 -40.293189 
L 667.150515 -40.293189 
L 668.7194 -40.293189 
L 670.288285 -40.293189 
L 671.85717 -40.293189 
L 673.426054 -40.293189 
L 674.994939 -40.293189 
L 676.563824 -40.293189 
L 678.132709 -40.293189 
L 679.701593 -40.293189 
L 681.270478 -40.293189 
L 682.839363 -40.293189 
L 684.408247 -40.293189 
L 685.977132 -40.293189 
L 687.546017 -40.293189 
L 689.114902 -40.293189 
L 690.683786 -40.293189 
L 692.252671 -40.293189 
L 693.821556 -40.293189 
L 695.39044 -40.293189 
L 696.959325 -40.293189 
L 698.52821 -40.293189 
L 700.097095 -40.293189 
L 701.665979 -40.293189 
L 703.234864 -40.293189 
L 704.803749 -40.293189 
L 706.372634 -40.293189 
L 707.941518 -40.293189 
L 709.510403 -40.293189 
L 711.079288 -40.293189 
L 712.648172 -40.293189 
L 714.217057 -40.293189 
L 718.923711 -40.293189 
L 720.492596 -40.293189 
L 722.061481 -40.293189 
L 723.630366 -40.293189 
L 725.19925 -40.293189 
L 726.768135 -40.293189 
L 728.33702 -40.293189 
L 729.905904 -40.293189 
L 731.474789 -40.293189 
L 733.043674 -40.293189 
L 734.612559 -40.293189 
L 736.181443 -40.293189 
L 737.750328 -40.293189 
L 739.319213 -40.293189 
L 740.888097 -40.293189 
L 742.456982 -40.293189 
L 744.025867 -40.293189 
L 745.594752 -40.293189 
L 747.163636 -40.293189 
L 747.163636 -284.98426 
L 747.163636 -284.98426 
L 745.594752 -259.624609 
L 744.025867 -273.511525 
L 742.456982 -261.799949 
L 740.888097 -255.306776 
L 739.319213 -266.240238 
L 737.750328 -274.889075 
L 736.181443 -273.091905 
L 734.612559 -217.816581 
L 733.043674 -214.428848 
L 731.474789 -241.566493 
L 729.905904 -262.788478 
L 728.33702 -259.919305 
L 726.768135 -273.738167 
L 725.19925 -217.709249 
L 723.630366 -204.663967 
L 722.061481 -242.837348 
L 720.492596 -292.718212 
L 718.923711 -232.36597 
L 714.217057 -236.061294 
L 712.648172 -191.8706 
L 711.079288 -181.013069 
L 709.510403 -182.428523 
L 707.941518 -217.217619 
L 706.372634 -275.991987 
L 704.803749 -273.515365 
L 703.234864 -266.829713 
L 701.665979 -232.947095 
L 700.097095 -243.894815 
L 698.52821 -268.391808 
L 696.959325 -223.481037 
L 695.39044 -243.643007 
L 693.821556 -227.083279 
L 692.252671 -230.408154 
L 690.683786 -226.570511 
L 689.114902 -229.760061 
L 687.546017 -227.281568 
L 685.977132 -231.308479 
L 684.408247 -236.244009 
L 682.839363 -226.004797 
L 681.270478 -249.795007 
L 679.701593 -249.130965 
L 678.132709 -235.310085 
L 676.563824 -226.833538 
L 674.994939 -235.483486 
L 673.426054 -241.480683 
L 671.85717 -234.533875 
L 670.288285 -210.228495 
L 668.7194 -214.041641 
L 667.150515 -240.262897 
L 665.581631 -223.729168 
L 664.012746 -202.967363 
L 662.443861 -184.208278 
L 660.874977 -202.875074 
L 659.306092 -208.500972 
L 657.737207 -202.373117 
L 656.168322 -205.933556 
L 654.599438 -188.776207 
L 653.030553 -192.356028 
L 651.461668 -218.178409 
L 649.892784 -219.900718 
L 648.323899 -190.603789 
L 646.755014 -186.988883 
L 645.186129 -168.67455 
L 643.617245 -181.267471 
L 642.04836 -211.254062 
L 640.479475 -183.370888 
L 638.91059 -159.975168 
L 637.341706 -102.448741 
L 635.772821 -59.822054 
z
" style="stroke: #ffa500; stroke-opacity: 0.25"/>
    </defs>
    <g clip-path="url(#p60f07370b1)">
     <use xlink:href="#m3704a6b01d" x="0" y="360" style="fill: #ffa500; fill-opacity: 0.25; stroke: #ffa500; stroke-opacity: 0.25"/>
    </g>
   </g>
   <g id="PathCollection_1">
    <defs>
     <path id="m4aae13ce73" d="M 0 3.535534 
C 0.937635 3.535534 1.836992 3.163008 2.5 2.5 
C 3.163008 1.836992 3.535534 0.937635 3.535534 0 
C 3.535534 -0.937635 3.163008 -1.836992 2.5 -2.5 
C 1.836992 -3.163008 0.937635 -3.535534 0 -3.535534 
C -0.937635 -3.535534 -1.836992 -3.163008 -2.5 -2.5 
C -3.163008 -1.836992 -3.535534 -0.937635 -3.535534 0 
C -3.535534 0.937635 -3.163008 1.836992 -2.5 2.5 
C -1.836992 3.163008 -0.937635 3.535534 0 3.535534 
z
" style="stroke: #ffffff; stroke-width: 0.565685"/>
    </defs>
    <g clip-path="url(#p60f07370b1)">
     <use xlink:href="#m4aae13ce73" x="635.772821" y="318.916279" style="fill: #ff0000; stroke: #ffffff; stroke-width: 0.565685"/>
     <use xlink:href="#m4aae13ce73" x="637.341706" y="316.669898" style="fill: #ff0000; stroke: #ffffff; stroke-width: 0.565685"/>
     <use xlink:href="#m4aae13ce73" x="638.91059" y="311.775005" style="fill: #ff0000; stroke: #ffffff; stroke-width: 0.565685"/>
     <use xlink:href="#m4aae13ce73" x="640.479475" y="309.930754" style="fill: #ff0000; stroke: #ffffff; stroke-width: 0.565685"/>
     <use xlink:href="#m4aae13ce73" x="642.04836" y="308.128102" style="fill: #ff0000; stroke: #ffffff; stroke-width: 0.565685"/>
     <use xlink:href="#m4aae13ce73" x="643.617245" y="305.715322" style="fill: #ff0000; stroke: #ffffff; stroke-width: 0.565685"/>
     <use xlink:href="#m4aae13ce73" x="645.186129" y="303.496674" style="fill: #ff0000; stroke: #ffffff; stroke-width: 0.565685"/>
     <use xlink:href="#m4aae13ce73" x="646.755014" y="301.486024" style="fill: #ff0000; stroke: #ffffff; stroke-width: 0.565685"/>
     <use xlink:href="#m4aae13ce73" x="648.323899" y="299.93297" style="fill: #ff0000; stroke: #ffffff; stroke-width: 0.565685"/>
     <use xlink:href="#m4aae13ce73" x="649.892784" y="297.700455" style="fill: #ff0000; stroke: #ffffff; stroke-width: 0.565685"/>
     <use xlink:href="#m4aae13ce73" x="651.461668" y="295.717539" style="fill: #ff0000; stroke: #ffffff; stroke-width: 0.565685"/>
     <use xlink:href="#m4aae13ce73" x="653.030553" y="293.928753" style="fill: #ff0000; stroke: #ffffff; stroke-width: 0.565685"/>
     <use xlink:href="#m4aae13ce73" x="654.599438" y="291.987436" style="fill: #ff0000; stroke: #ffffff; stroke-width: 0.565685"/>
     <use xlink:href="#m4aae13ce73" x="656.168322" y="290.157051" style="fill: #ff0000; stroke: #ffffff; stroke-width: 0.565685"/>
     <use xlink:href="#m4aae13ce73" x="657.737207" y="288.548531" style="fill: #ff0000; stroke: #ffffff; stroke-width: 0.565685"/>
     <use xlink:href="#m4aae13ce73" x="659.306092" y="286.718147" style="fill: #ff0000; stroke: #ffffff; stroke-width: 0.565685"/>
     <use xlink:href="#m4aae13ce73" x="660.874977" y="285.026427" style="fill: #ff0000; stroke: #ffffff; stroke-width: 0.565685"/>
     <use xlink:href="#m4aae13ce73" x="662.443861" y="283.750705" style="fill: #ff0000; stroke: #ffffff; stroke-width: 0.565685"/>
     <use xlink:href="#m4aae13ce73" x="664.012746" y="281.615256" style="fill: #ff0000; stroke: #ffffff; stroke-width: 0.565685"/>
     <use xlink:href="#m4aae13ce73" x="665.581631" y="279.535273" style="fill: #ff0000; stroke: #ffffff; stroke-width: 0.565685"/>
     <use xlink:href="#m4aae13ce73" x="667.150515" y="277.358224" style="fill: #ff0000; stroke: #ffffff; stroke-width: 0.565685"/>
     <use xlink:href="#m4aae13ce73" x="668.7194" y="275.375308" style="fill: #ff0000; stroke: #ffffff; stroke-width: 0.565685"/>
     <use xlink:href="#m4aae13ce73" x="670.288285" y="273.586522" style="fill: #ff0000; stroke: #ffffff; stroke-width: 0.565685"/>
     <use xlink:href="#m4aae13ce73" x="671.85717" y="271.492673" style="fill: #ff0000; stroke: #ffffff; stroke-width: 0.565685"/>
     <use xlink:href="#m4aae13ce73" x="673.426054" y="270.369483" style="fill: #ff0000; stroke: #ffffff; stroke-width: 0.565685"/>
     <use xlink:href="#m4aae13ce73" x="674.994939" y="268.982827" style="fill: #ff0000; stroke: #ffffff; stroke-width: 0.565685"/>
     <use xlink:href="#m4aae13ce73" x="676.563824" y="267.138576" style="fill: #ff0000; stroke: #ffffff; stroke-width: 0.565685"/>
     <use xlink:href="#m4aae13ce73" x="678.132709" y="265.640989" style="fill: #ff0000; stroke: #ffffff; stroke-width: 0.565685"/>
     <use xlink:href="#m4aae13ce73" x="679.701593" y="263.977002" style="fill: #ff0000; stroke: #ffffff; stroke-width: 0.565685"/>
     <use xlink:href="#m4aae13ce73" x="681.270478" y="262.895411" style="fill: #ff0000; stroke: #ffffff; stroke-width: 0.565685"/>
     <use xlink:href="#m4aae13ce73" x="682.839363" y="261.744488" style="fill: #ff0000; stroke: #ffffff; stroke-width: 0.565685"/>
     <use xlink:href="#m4aae13ce73" x="684.408247" y="260.732229" style="fill: #ff0000; stroke: #ffffff; stroke-width: 0.565685"/>
     <use xlink:href="#m4aae13ce73" x="685.977132" y="259.80317" style="fill: #ff0000; stroke: #ffffff; stroke-width: 0.565685"/>
     <use xlink:href="#m4aae13ce73" x="687.546017" y="258.99891" style="fill: #ff0000; stroke: #ffffff; stroke-width: 0.565685"/>
     <use xlink:href="#m4aae13ce73" x="689.114902" y="258.347182" style="fill: #ff0000; stroke: #ffffff; stroke-width: 0.565685"/>
     <use xlink:href="#m4aae13ce73" x="690.683786" y="257.529056" style="fill: #ff0000; stroke: #ffffff; stroke-width: 0.565685"/>
     <use xlink:href="#m4aae13ce73" x="692.252671" y="256.58613" style="fill: #ff0000; stroke: #ffffff; stroke-width: 0.565685"/>
     <use xlink:href="#m4aae13ce73" x="693.821556" y="255.546139" style="fill: #ff0000; stroke: #ffffff; stroke-width: 0.565685"/>
     <use xlink:href="#m4aae13ce73" x="695.39044" y="254.325883" style="fill: #ff0000; stroke: #ffffff; stroke-width: 0.565685"/>
     <use xlink:href="#m4aae13ce73" x="696.959325" y="253.202692" style="fill: #ff0000; stroke: #ffffff; stroke-width: 0.565685"/>
     <use xlink:href="#m4aae13ce73" x="698.52821" y="251.80217" style="fill: #ff0000; stroke: #ffffff; stroke-width: 0.565685"/>
     <use xlink:href="#m4aae13ce73" x="700.097095" y="250.665113" style="fill: #ff0000; stroke: #ffffff; stroke-width: 0.565685"/>
     <use xlink:href="#m4aae13ce73" x="701.665979" y="249.625122" style="fill: #ff0000; stroke: #ffffff; stroke-width: 0.565685"/>
     <use xlink:href="#m4aae13ce73" x="703.234864" y="247.975002" style="fill: #ff0000; stroke: #ffffff; stroke-width: 0.565685"/>
     <use xlink:href="#m4aae13ce73" x="704.803749" y="246.491281" style="fill: #ff0000; stroke: #ffffff; stroke-width: 0.565685"/>
     <use xlink:href="#m4aae13ce73" x="706.372634" y="244.799562" style="fill: #ff0000; stroke: #ffffff; stroke-width: 0.565685"/>
     <use xlink:href="#m4aae13ce73" x="707.941518" y="243.301974" style="fill: #ff0000; stroke: #ffffff; stroke-width: 0.565685"/>
     <use xlink:href="#m4aae13ce73" x="709.510403" y="242.289716" style="fill: #ff0000; stroke: #ffffff; stroke-width: 0.565685"/>
     <use xlink:href="#m4aae13ce73" x="711.079288" y="241.083326" style="fill: #ff0000; stroke: #ffffff; stroke-width: 0.565685"/>
     <use xlink:href="#m4aae13ce73" x="712.648172" y="239.641205" style="fill: #ff0000; stroke: #ffffff; stroke-width: 0.565685"/>
     <use xlink:href="#m4aae13ce73" x="714.217057" y="237.838553" style="fill: #ff0000; stroke: #ffffff; stroke-width: 0.565685"/>
     <use xlink:href="#m4aae13ce73" x="718.923711" y="316.753097" style="fill: #ff0000; stroke: #ffffff; stroke-width: 0.565685"/>
     <use xlink:href="#m4aae13ce73" x="720.492596" y="314.562182" style="fill: #ff0000; stroke: #ffffff; stroke-width: 0.565685"/>
     <use xlink:href="#m4aae13ce73" x="722.061481" y="312.731797" style="fill: #ff0000; stroke: #ffffff; stroke-width: 0.565685"/>
     <use xlink:href="#m4aae13ce73" x="723.630366" y="311.677939" style="fill: #ff0000; stroke: #ffffff; stroke-width: 0.565685"/>
     <use xlink:href="#m4aae13ce73" x="725.19925" y="309.94462" style="fill: #ff0000; stroke: #ffffff; stroke-width: 0.565685"/>
     <use xlink:href="#m4aae13ce73" x="726.768135" y="308.405433" style="fill: #ff0000; stroke: #ffffff; stroke-width: 0.565685"/>
     <use xlink:href="#m4aae13ce73" x="728.33702" y="306.588915" style="fill: #ff0000; stroke: #ffffff; stroke-width: 0.565685"/>
     <use xlink:href="#m4aae13ce73" x="729.905904" y="304.75853" style="fill: #ff0000; stroke: #ffffff; stroke-width: 0.565685"/>
     <use xlink:href="#m4aae13ce73" x="731.474789" y="302.623081" style="fill: #ff0000; stroke: #ffffff; stroke-width: 0.565685"/>
     <use xlink:href="#m4aae13ce73" x="733.043674" y="300.265767" style="fill: #ff0000; stroke: #ffffff; stroke-width: 0.565685"/>
     <use xlink:href="#m4aae13ce73" x="734.612559" y="298.060986" style="fill: #ff0000; stroke: #ffffff; stroke-width: 0.565685"/>
     <use xlink:href="#m4aae13ce73" x="736.181443" y="295.329275" style="fill: #ff0000; stroke: #ffffff; stroke-width: 0.565685"/>
     <use xlink:href="#m4aae13ce73" x="737.750328" y="292.77783" style="fill: #ff0000; stroke: #ffffff; stroke-width: 0.565685"/>
     <use xlink:href="#m4aae13ce73" x="739.319213" y="290.309583" style="fill: #ff0000; stroke: #ffffff; stroke-width: 0.565685"/>
     <use xlink:href="#m4aae13ce73" x="740.888097" y="287.91067" style="fill: #ff0000; stroke: #ffffff; stroke-width: 0.565685"/>
     <use xlink:href="#m4aae13ce73" x="742.456982" y="284.887762" style="fill: #ff0000; stroke: #ffffff; stroke-width: 0.565685"/>
     <use xlink:href="#m4aae13ce73" x="744.025867" y="281.892587" style="fill: #ff0000; stroke: #ffffff; stroke-width: 0.565685"/>
     <use xlink:href="#m4aae13ce73" x="745.594752" y="278.841945" style="fill: #ff0000; stroke: #ffffff; stroke-width: 0.565685"/>
     <use xlink:href="#m4aae13ce73" x="747.163636" y="275.638772" style="fill: #ff0000; stroke: #ffffff; stroke-width: 0.565685"/>
    </g>
   </g>
   <g id="line2d_17">
    <path d="M 138.436364 302.70628 
L 140.005248 302.179351 
L 141.574133 298.851379 
L 143.143018 296.133535 
L 144.711903 290.157051 
L 146.280787 289.976786 
M 149.418557 280.228601 
L 150.987441 279.937403 
L 152.556326 276.65103 
L 154.125211 272.865462 
L 155.694096 271.243075 
L 157.26298 267.693238 
L 158.831865 260.038902 
L 160.40075 259.733838 
L 161.969634 251.413907 
L 163.538519 251.302974 
L 165.107404 245.090759 
L 166.676289 244.757962 
L 168.245173 233.38739 
L 169.814058 231.071676 
L 171.382943 230.725012 
L 172.951828 226.010385 
L 174.520712 225.830119 
L 176.089597 215.430206 
L 177.658482 215.277674 
L 179.227366 205.959351 
L 180.796251 205.68202 
L 182.365136 201.327923 
L 185.502905 193.590387 
L 187.07179 190.88641 
L 188.640675 186.629379 
L 190.20956 184.0918 
L 191.778444 180.320098 
L 193.347329 177.532921 
L 194.916214 175.411339 
L 196.485098 170.294581 
L 198.053983 170.252981 
L 201.191753 162.251981 
L 202.760637 158.910142 
L 204.329522 154.126182 
L 205.898407 147.62277 
L 207.467291 147.456371 
L 209.036176 144.849459 
L 210.605061 138.027116 
M 216.8806 319.581873 
L 218.449485 318.209085 
L 220.018369 316.558965 
L 221.587254 312.842729 
L 223.156139 307.836904 
L 224.725023 305.535057 
L 226.293908 293.803954 
L 227.862793 293.526623 
L 229.431678 283.112843 
L 231.000562 282.793913 
L 232.569447 280.076069 
L 234.138332 270.854812 
L 235.707216 270.508148 
L 237.276101 265.807387 
L 238.844986 259.387174 
L 240.413871 254.076285 
L 241.982755 248.363265 
L 243.55164 245.687021 
L 245.120525 240.792128 
L 246.68941 235.273241 
L 248.258294 232.333532 
L 249.827179 226.786911 
L 251.396064 222.113884 
L 252.964948 216.886194 
L 254.533833 210.452114 
L 256.102718 206.430814 
L 257.671603 195.295973 
L 259.240487 194.963176 
L 260.809372 192.023467 
L 262.378257 184.743528 
L 263.947142 181.27689 
L 265.516026 151.144874 
L 267.084911 150.728877 
L 268.653796 143.823334 
L 270.22268 139.53857 
L 271.791565 135.933267 
L 274.929335 125.893883 
L 276.498219 122.981908 
L 278.067104 102.293013 
L 279.635989 101.142089 
L 281.204873 100.961824 
L 282.773758 97.203989 
L 284.342643 94.444545 
L 285.911528 81.479319 
L 287.480412 79.912399 
L 289.049297 79.648935 
L 290.618182 73.325787 
L 292.187067 60.540827 
L 293.755951 57.587251 
L 295.324836 56.366995 
M 298.462605 319.373875 
L 300.03149 317.890154 
L 301.600375 314.77018 
L 303.16926 309.292892 
L 304.738144 305.132927 
L 306.307029 292.015169 
L 307.875914 291.751705 
L 309.444799 286.898412 
L 311.013683 281.670722 
M 326.70253 227.840769 
L 328.271415 222.349615 
L 329.8403 218.480847 
L 331.409185 213.253157 
L 332.978069 206.236682 
L 334.546954 201.064459 
L 336.115839 193.881585 
M 339.253608 183.329139 
L 340.822493 177.29719 
L 342.391378 172.319098 
L 343.960262 165.510621 
L 347.098032 154.403513 
L 350.235801 147.276106 
L 351.804686 142.450546 
L 353.373571 139.621769 
L 354.942455 135.780735 
L 356.51134 127.585603 
L 358.080225 124.687493 
L 359.64911 120.998991 
L 361.217994 114.037982 
L 362.786879 108.671627 
L 364.355764 104.899925 
L 365.924649 102.792209 
L 367.493533 98.701576 
L 369.062418 91.920833 
L 370.631303 91.338437 
L 372.200187 86.22168 
L 373.769072 82.60251 
L 375.337957 78.442545 
L 376.906842 73.79725 
L 378.475726 71.412203 
M 383.182381 319.360009 
L 384.751265 318.569615 
L 386.32015 317.044295 
L 387.889035 313.508324 
L 389.457919 302.248684 
L 391.026804 301.929754 
L 392.595689 300.501499 
L 394.164574 295.024211 
L 395.733458 293.457291 
L 397.302343 290.76718 
L 398.871228 287.120277 
L 400.440112 286.579481 
L 402.008997 278.425949 
L 403.577882 273.212126 
L 405.146767 265.446857 
L 406.715651 260.2885 
L 408.284536 255.837337 
L 409.853421 250.581914 
L 411.422306 243.662505 
L 412.99119 239.946269 
L 414.560075 234.704712 
L 416.12896 232.361265 
L 417.697844 225.566655 
L 419.266729 221.919752 
L 420.835614 218.813644 
L 422.404499 210.244116 
L 423.973383 204.628162 
L 425.542268 202.021251 
L 427.111153 193.313056 
L 428.680037 189.472022 
L 434.955576 164.761827 
L 436.524461 158.937875 
L 441.231115 144.988125 
L 442.8 141.410554 
L 444.368885 138.179648 
L 445.937769 133.492754 
L 447.506654 130.844242 
L 449.075539 128.930658 
L 450.644424 125.228289 
L 452.213308 120.804859 
L 453.782193 117.671018 
L 455.351078 110.612944 
L 456.919963 110.612944 
L 458.488847 107.187906 
L 460.057732 106.910575 
L 461.626617 102.057282 
L 463.195501 100.837025 
M 466.333271 317.904021 
L 467.902156 313.813388 
L 469.47104 312.690197 
L 471.039925 311.261943 
L 472.60881 310.277417 
L 474.177694 309.930754 
L 475.746579 308.308367 
L 477.315464 307.365442 
L 478.884349 304.966528 
L 480.453233 302.248684 
M 505.555389 250.720579 
L 507.124274 249.736054 
L 508.693158 246.754745 
L 510.262043 245.673154 
L 513.399813 240.639596 
L 514.968697 239.77987 
L 518.106467 236.548964 
M 524.382006 230.017818 
L 525.95089 228.1181 
L 527.519775 227.036509 
L 529.08866 224.415731 
L 530.657545 223.056809 
M 535.364199 218.841378 
L 536.933083 217.232858 
L 538.501968 215.014209 
L 541.639738 212.51823 
L 543.208622 212.435031 
L 544.777507 211.284107 
M 551.053046 319.387742 
L 557.328585 313.868854 
L 558.89747 313.813388 
L 560.466354 311.261943 
L 562.035239 309.930754 
L 563.604124 308.308367 
L 565.173008 307.365442 
L 566.741893 305.479591 
L 568.310778 303.787871 
L 571.448547 299.863637 
L 576.155201 296.022603 
L 577.724086 294.233818 
L 579.292971 292.153835 
L 580.861856 286.385349 
L 582.43074 284.263767 
L 583.999625 283.001911 
L 585.56851 281.129926 
L 588.706279 276.498498 
L 590.275164 273.11506 
L 591.844049 272.2276 
L 593.412933 270.854812 
L 594.981818 269.301758 
L 596.550703 267.984436 
L 598.119588 266.32045 
L 601.257357 264.420732 
L 602.826242 262.867678 
L 604.395127 261.799954 
L 605.964011 261.259158 
L 607.532896 260.884761 
L 609.101781 260.191434 
L 610.670665 259.012777 
L 613.808435 256.391999 
L 618.515089 252.661896 
L 620.083974 251.261375 
L 621.652858 249.666721 
L 623.221743 248.682196 
L 624.790628 247.198475 
L 626.359513 245.895019 
L 627.928397 245.215558 
L 629.497282 243.84277 
L 631.066167 241.735054 
M 634.203936 319.59574 
" clip-path="url(#p60f07370b1)" style="fill: none; stroke: #008080; stroke-width: 1.5; stroke-linecap: round"/>
   </g>
   <g id="line2d_18">
    <path d="M 635.772821 319.706672 
L 637.341706 319.706672 
L 638.91059 319.706672 
L 640.479475 297.464724 
L 642.04836 285.45629 
L 643.617245 296.896195 
L 645.186129 311.400608 
L 646.755014 311.99687 
L 648.323899 297.534057 
L 649.892784 285.85842 
L 651.461668 287.314408 
L 653.030553 296.244467 
L 654.599438 297.187393 
L 656.168322 287.14801 
L 657.737207 275.652639 
L 659.306092 273.558789 
L 660.874977 278.966744 
L 662.443861 282.031252 
L 664.012746 276.387566 
L 665.581631 265.696455 
L 667.150515 262.091151 
L 668.7194 266.861245 
L 670.288285 273.364658 
L 671.85717 263.82447 
L 673.426054 260.122101 
L 674.994939 257.515189 
L 676.563824 258.707713 
L 678.132709 263.741271 
L 679.701593 260.524231 
L 681.270478 254.589347 
L 682.839363 251.774437 
L 684.408247 256.752529 
L 685.977132 259.414907 
L 687.546017 256.516798 
L 689.114902 249.02886 
L 690.683786 250.124317 
L 692.252671 250.817645 
L 693.821556 253.313624 
L 695.39044 251.08111 
L 696.959325 247.087543 
L 698.52821 243.301974 
L 700.097095 246.935011 
L 701.665979 252.550964 
L 703.234864 244.369699 
L 704.803749 238.864678 
L 706.372634 244.439031 
L 707.941518 274.446249 
L 709.510403 319.609607 
L 711.079288 319.706672 
L 712.648172 319.706672 
L 714.217057 319.706672 
L 718.923711 297.409258 
L 720.492596 285.386958 
L 722.061481 296.812996 
L 723.630366 311.317409 
L 725.19925 311.899804 
L 726.768135 297.436991 
L 728.33702 285.761355 
L 729.905904 287.203476 
L 731.474789 296.133535 
L 733.043674 297.076461 
L 734.612559 287.037077 
L 736.181443 275.541706 
L 737.750328 273.447857 
L 739.319213 278.855812 
L 740.888097 281.92032 
L 742.456982 276.2905 
L 744.025867 265.599389 
L 745.594752 261.994085 
L 747.163636 266.764179 
" clip-path="url(#p60f07370b1)" style="fill: none; stroke: #0000ff; stroke-width: 2; stroke-linecap: round"/>
   </g>
   <g id="patch_3">
    <path d="M 108 320.4 
L 108 43.2 
" style="fill: none; stroke: #262626; stroke-width: 1.25; stroke-linejoin: miter; stroke-linecap: square"/>
   </g>
   <g id="patch_4">
    <path d="M 777.6 320.4 
L 777.6 43.2 
" style="fill: none; stroke: #262626; stroke-width: 1.25; stroke-linejoin: miter; stroke-linecap: square"/>
   </g>
   <g id="patch_5">
    <path d="M 108 320.4 
L 777.6 320.4 
" style="fill: none; stroke: #262626; stroke-width: 1.25; stroke-linejoin: miter; stroke-linecap: square"/>
   </g>
   <g id="patch_6">
    <path d="M 108 43.2 
L 777.6 43.2 
" style="fill: none; stroke: #262626; stroke-width: 1.25; stroke-linejoin: miter; stroke-linecap: square"/>
   </g>
   <g id="text_19">
    <!-- MSLE:  5.30%     MAPE:  16.35%                       Model: STS - Variational Inference Fit -->
    <g style="fill: #262626" transform="translate(215.828438 37.2) scale(0.12 -0.12)">
     <defs>
      <path id="ArialMT-4d" d="M 475 0 
L 475 4581 
L 1388 4581 
L 2472 1338 
Q 2622 884 2691 659 
Q 2769 909 2934 1394 
L 4031 4581 
L 4847 4581 
L 4847 0 
L 4263 0 
L 4263 3834 
L 2931 0 
L 2384 0 
L 1059 3900 
L 1059 0 
L 475 0 
z
" transform="scale(0.015625)"/>
      <path id="ArialMT-53" d="M 288 1472 
L 859 1522 
Q 900 1178 1048 958 
Q 1197 738 1509 602 
Q 1822 466 2213 466 
Q 2559 466 2825 569 
Q 3091 672 3220 851 
Q 3350 1031 3350 1244 
Q 3350 1459 3225 1620 
Q 3100 1781 2813 1891 
Q 2628 1963 1997 2114 
Q 1366 2266 1113 2400 
Q 784 2572 623 2826 
Q 463 3081 463 3397 
Q 463 3744 659 4045 
Q 856 4347 1234 4503 
Q 1613 4659 2075 4659 
Q 2584 4659 2973 4495 
Q 3363 4331 3572 4012 
Q 3781 3694 3797 3291 
L 3216 3247 
Q 3169 3681 2898 3903 
Q 2628 4125 2100 4125 
Q 1550 4125 1298 3923 
Q 1047 3722 1047 3438 
Q 1047 3191 1225 3031 
Q 1400 2872 2139 2705 
Q 2878 2538 3153 2413 
Q 3553 2228 3743 1945 
Q 3934 1663 3934 1294 
Q 3934 928 3725 604 
Q 3516 281 3123 101 
Q 2731 -78 2241 -78 
Q 1619 -78 1198 103 
Q 778 284 539 648 
Q 300 1013 288 1472 
z
" transform="scale(0.015625)"/>
      <path id="ArialMT-4c" d="M 469 0 
L 469 4581 
L 1075 4581 
L 1075 541 
L 3331 541 
L 3331 0 
L 469 0 
z
" transform="scale(0.015625)"/>
      <path id="ArialMT-45" d="M 506 0 
L 506 4581 
L 3819 4581 
L 3819 4041 
L 1113 4041 
L 1113 2638 
L 3647 2638 
L 3647 2100 
L 1113 2100 
L 1113 541 
L 3925 541 
L 3925 0 
L 506 0 
z
" transform="scale(0.015625)"/>
      <path id="ArialMT-3a" d="M 578 2678 
L 578 3319 
L 1219 3319 
L 1219 2678 
L 578 2678 
z
M 578 0 
L 578 641 
L 1219 641 
L 1219 0 
L 578 0 
z
" transform="scale(0.015625)"/>
      <path id="ArialMT-2e" d="M 581 0 
L 581 641 
L 1222 641 
L 1222 0 
L 581 0 
z
" transform="scale(0.015625)"/>
      <path id="ArialMT-25" d="M 372 3481 
Q 372 3972 619 4315 
Q 866 4659 1334 4659 
Q 1766 4659 2048 4351 
Q 2331 4044 2331 3447 
Q 2331 2866 2045 2552 
Q 1759 2238 1341 2238 
Q 925 2238 648 2547 
Q 372 2856 372 3481 
z
M 1350 4272 
Q 1141 4272 1002 4090 
Q 863 3909 863 3425 
Q 863 2984 1003 2804 
Q 1144 2625 1350 2625 
Q 1563 2625 1702 2806 
Q 1841 2988 1841 3469 
Q 1841 3913 1700 4092 
Q 1559 4272 1350 4272 
z
M 1353 -169 
L 3859 4659 
L 4316 4659 
L 1819 -169 
L 1353 -169 
z
M 3334 1075 
Q 3334 1569 3581 1911 
Q 3828 2253 4300 2253 
Q 4731 2253 5014 1945 
Q 5297 1638 5297 1041 
Q 5297 459 5011 145 
Q 4725 -169 4303 -169 
Q 3888 -169 3611 142 
Q 3334 453 3334 1075 
z
M 4316 1866 
Q 4103 1866 3964 1684 
Q 3825 1503 3825 1019 
Q 3825 581 3965 400 
Q 4106 219 4313 219 
Q 4528 219 4667 400 
Q 4806 581 4806 1063 
Q 4806 1506 4665 1686 
Q 4525 1866 4316 1866 
z
" transform="scale(0.015625)"/>
      <path id="ArialMT-41" d="M -9 0 
L 1750 4581 
L 2403 4581 
L 4278 0 
L 3588 0 
L 3053 1388 
L 1138 1388 
L 634 0 
L -9 0 
z
M 1313 1881 
L 2866 1881 
L 2388 3150 
Q 2169 3728 2063 4100 
Q 1975 3659 1816 3225 
L 1313 1881 
z
" transform="scale(0.015625)"/>
      <path id="ArialMT-50" d="M 494 0 
L 494 4581 
L 2222 4581 
Q 2678 4581 2919 4538 
Q 3256 4481 3484 4323 
Q 3713 4166 3852 3881 
Q 3991 3597 3991 3256 
Q 3991 2672 3619 2267 
Q 3247 1863 2275 1863 
L 1100 1863 
L 1100 0 
L 494 0 
z
M 1100 2403 
L 2284 2403 
Q 2872 2403 3119 2622 
Q 3366 2841 3366 3238 
Q 3366 3525 3220 3729 
Q 3075 3934 2838 4000 
Q 2684 4041 2272 4041 
L 1100 4041 
L 1100 2403 
z
" transform="scale(0.015625)"/>
      <path id="ArialMT-64" d="M 2575 0 
L 2575 419 
Q 2259 -75 1647 -75 
Q 1250 -75 917 144 
Q 584 363 401 755 
Q 219 1147 219 1656 
Q 219 2153 384 2558 
Q 550 2963 881 3178 
Q 1213 3394 1622 3394 
Q 1922 3394 2156 3267 
Q 2391 3141 2538 2938 
L 2538 4581 
L 3097 4581 
L 3097 0 
L 2575 0 
z
M 797 1656 
Q 797 1019 1065 703 
Q 1334 388 1700 388 
Q 2069 388 2326 689 
Q 2584 991 2584 1609 
Q 2584 2291 2321 2609 
Q 2059 2928 1675 2928 
Q 1300 2928 1048 2622 
Q 797 2316 797 1656 
z
" transform="scale(0.015625)"/>
      <path id="ArialMT-6c" d="M 409 0 
L 409 4581 
L 972 4581 
L 972 0 
L 409 0 
z
" transform="scale(0.015625)"/>
      <path id="ArialMT-54" d="M 1659 0 
L 1659 4041 
L 150 4041 
L 150 4581 
L 3781 4581 
L 3781 4041 
L 2266 4041 
L 2266 0 
L 1659 0 
z
" transform="scale(0.015625)"/>
      <path id="ArialMT-2d" d="M 203 1375 
L 203 1941 
L 1931 1941 
L 1931 1375 
L 203 1375 
z
" transform="scale(0.015625)"/>
      <path id="ArialMT-56" d="M 1803 0 
L 28 4581 
L 684 4581 
L 1875 1253 
Q 2019 853 2116 503 
Q 2222 878 2363 1253 
L 3600 4581 
L 4219 4581 
L 2425 0 
L 1803 0 
z
" transform="scale(0.015625)"/>
      <path id="ArialMT-69" d="M 425 3934 
L 425 4581 
L 988 4581 
L 988 3934 
L 425 3934 
z
M 425 0 
L 425 3319 
L 988 3319 
L 988 0 
L 425 0 
z
" transform="scale(0.015625)"/>
      <path id="ArialMT-6e" d="M 422 0 
L 422 3319 
L 928 3319 
L 928 2847 
Q 1294 3394 1984 3394 
Q 2284 3394 2536 3286 
Q 2788 3178 2913 3003 
Q 3038 2828 3088 2588 
Q 3119 2431 3119 2041 
L 3119 0 
L 2556 0 
L 2556 2019 
Q 2556 2363 2490 2533 
Q 2425 2703 2258 2804 
Q 2091 2906 1866 2906 
Q 1506 2906 1245 2678 
Q 984 2450 984 1813 
L 984 0 
L 422 0 
z
" transform="scale(0.015625)"/>
      <path id="ArialMT-49" d="M 597 0 
L 597 4581 
L 1203 4581 
L 1203 0 
L 597 0 
z
" transform="scale(0.015625)"/>
      <path id="ArialMT-63" d="M 2588 1216 
L 3141 1144 
Q 3050 572 2676 248 
Q 2303 -75 1759 -75 
Q 1078 -75 664 370 
Q 250 816 250 1647 
Q 250 2184 428 2587 
Q 606 2991 970 3192 
Q 1334 3394 1763 3394 
Q 2303 3394 2647 3120 
Q 2991 2847 3088 2344 
L 2541 2259 
Q 2463 2594 2264 2762 
Q 2066 2931 1784 2931 
Q 1359 2931 1093 2626 
Q 828 2322 828 1663 
Q 828 994 1084 691 
Q 1341 388 1753 388 
Q 2084 388 2306 591 
Q 2528 794 2588 1216 
z
" transform="scale(0.015625)"/>
      <path id="ArialMT-46" d="M 525 0 
L 525 4581 
L 3616 4581 
L 3616 4041 
L 1131 4041 
L 1131 2622 
L 3281 2622 
L 3281 2081 
L 1131 2081 
L 1131 0 
L 525 0 
z
" transform="scale(0.015625)"/>
     </defs>
     <use xlink:href="#ArialMT-4d"/>
     <use xlink:href="#ArialMT-53" x="83.300781"/>
     <use xlink:href="#ArialMT-4c" x="150"/>
     <use xlink:href="#ArialMT-45" x="205.615234"/>
     <use xlink:href="#ArialMT-3a" x="272.314453"/>
     <use xlink:href="#ArialMT-20" x="300.097656"/>
     <use xlink:href="#ArialMT-20" x="327.880859"/>
     <use xlink:href="#ArialMT-35" x="355.664062"/>
     <use xlink:href="#ArialMT-2e" x="411.279297"/>
     <use xlink:href="#ArialMT-33" x="439.0625"/>
     <use xlink:href="#ArialMT-30" x="494.677734"/>
     <use xlink:href="#ArialMT-25" x="550.292969"/>
     <use xlink:href="#ArialMT-20" x="639.208984"/>
     <use xlink:href="#ArialMT-20" x="666.992188"/>
     <use xlink:href="#ArialMT-20" x="694.775391"/>
     <use xlink:href="#ArialMT-20" x="722.558594"/>
     <use xlink:href="#ArialMT-20" x="750.341797"/>
     <use xlink:href="#ArialMT-4d" x="778.125"/>
     <use xlink:href="#ArialMT-41" x="861.425781"/>
     <use xlink:href="#ArialMT-50" x="928.125"/>
     <use xlink:href="#ArialMT-45" x="994.824219"/>
     <use xlink:href="#ArialMT-3a" x="1061.523438"/>
     <use xlink:href="#ArialMT-20" x="1089.306641"/>
     <use xlink:href="#ArialMT-20" x="1117.089844"/>
     <use xlink:href="#ArialMT-31" x="1144.873047"/>
     <use xlink:href="#ArialMT-36" x="1200.488281"/>
     <use xlink:href="#ArialMT-2e" x="1256.103516"/>
     <use xlink:href="#ArialMT-33" x="1283.886719"/>
     <use xlink:href="#ArialMT-35" x="1339.501953"/>
     <use xlink:href="#ArialMT-25" x="1395.117188"/>
     <use xlink:href="#ArialMT-20" x="1484.033203"/>
     <use xlink:href="#ArialMT-20" x="1511.816406"/>
     <use xlink:href="#ArialMT-20" x="1539.599609"/>
     <use xlink:href="#ArialMT-20" x="1567.382812"/>
     <use xlink:href="#ArialMT-20" x="1595.166016"/>
     <use xlink:href="#ArialMT-20" x="1622.949219"/>
     <use xlink:href="#ArialMT-20" x="1650.732422"/>
     <use xlink:href="#ArialMT-20" x="1678.515625"/>
     <use xlink:href="#ArialMT-20" x="1706.298828"/>
     <use xlink:href="#ArialMT-20" x="1734.082031"/>
     <use xlink:href="#ArialMT-20" x="1761.865234"/>
     <use xlink:href="#ArialMT-20" x="1789.648438"/>
     <use xlink:href="#ArialMT-20" x="1817.431641"/>
     <use xlink:href="#ArialMT-20" x="1845.214844"/>
     <use xlink:href="#ArialMT-20" x="1872.998047"/>
     <use xlink:href="#ArialMT-20" x="1900.78125"/>
     <use xlink:href="#ArialMT-20" x="1928.564453"/>
     <use xlink:href="#ArialMT-20" x="1956.347656"/>
     <use xlink:href="#ArialMT-20" x="1984.130859"/>
     <use xlink:href="#ArialMT-20" x="2011.914062"/>
     <use xlink:href="#ArialMT-20" x="2039.697266"/>
     <use xlink:href="#ArialMT-20" x="2067.480469"/>
     <use xlink:href="#ArialMT-20" x="2095.263672"/>
     <use xlink:href="#ArialMT-4d" x="2123.046875"/>
     <use xlink:href="#ArialMT-6f" x="2206.347656"/>
     <use xlink:href="#ArialMT-64" x="2261.962891"/>
     <use xlink:href="#ArialMT-65" x="2317.578125"/>
     <use xlink:href="#ArialMT-6c" x="2373.193359"/>
     <use xlink:href="#ArialMT-3a" x="2395.410156"/>
     <use xlink:href="#ArialMT-20" x="2423.193359"/>
     <use xlink:href="#ArialMT-53" x="2450.976562"/>
     <use xlink:href="#ArialMT-54" x="2517.675781"/>
     <use xlink:href="#ArialMT-53" x="2578.759766"/>
     <use xlink:href="#ArialMT-20" x="2645.458984"/>
     <use xlink:href="#ArialMT-2d" x="2673.242188"/>
     <use xlink:href="#ArialMT-20" x="2706.542969"/>
     <use xlink:href="#ArialMT-56" x="2734.326172"/>
     <use xlink:href="#ArialMT-61" x="2793.650391"/>
     <use xlink:href="#ArialMT-72" x="2849.265625"/>
     <use xlink:href="#ArialMT-69" x="2882.566406"/>
     <use xlink:href="#ArialMT-61" x="2904.783203"/>
     <use xlink:href="#ArialMT-74" x="2960.398438"/>
     <use xlink:href="#ArialMT-69" x="2988.181641"/>
     <use xlink:href="#ArialMT-6f" x="3010.398438"/>
     <use xlink:href="#ArialMT-6e" x="3066.013672"/>
     <use xlink:href="#ArialMT-61" x="3121.628906"/>
     <use xlink:href="#ArialMT-6c" x="3177.244141"/>
     <use xlink:href="#ArialMT-20" x="3199.460938"/>
     <use xlink:href="#ArialMT-49" x="3227.244141"/>
     <use xlink:href="#ArialMT-6e" x="3255.027344"/>
     <use xlink:href="#ArialMT-66" x="3310.642578"/>
     <use xlink:href="#ArialMT-65" x="3338.425781"/>
     <use xlink:href="#ArialMT-72" x="3394.041016"/>
     <use xlink:href="#ArialMT-65" x="3427.341797"/>
     <use xlink:href="#ArialMT-6e" x="3482.957031"/>
     <use xlink:href="#ArialMT-63" x="3538.572266"/>
     <use xlink:href="#ArialMT-65" x="3588.572266"/>
     <use xlink:href="#ArialMT-20" x="3644.1875"/>
     <use xlink:href="#ArialMT-46" x="3671.970703"/>
     <use xlink:href="#ArialMT-69" x="3733.054688"/>
     <use xlink:href="#ArialMT-74" x="3755.271484"/>
    </g>
   </g>
   <g id="legend_1">
    <g id="patch_7">
     <path d="M 115.7 114.239375 
L 194.915469 114.239375 
Q 197.115469 114.239375 197.115469 112.039375 
L 197.115469 50.9 
Q 197.115469 48.7 194.915469 48.7 
L 115.7 48.7 
Q 113.5 48.7 113.5 50.9 
L 113.5 112.039375 
Q 113.5 114.239375 115.7 114.239375 
z
" style="fill: #ffffff; opacity: 0.8; stroke: #cccccc; stroke-linejoin: miter"/>
    </g>
    <g id="patch_8">
     <path d="M 117.9 60.973594 
L 139.9 60.973594 
L 139.9 53.273594 
L 117.9 53.273594 
z
" style="fill: #ffa500; fill-opacity: 0.25; stroke: #ffa500; stroke-opacity: 0.25; stroke-linejoin: miter"/>
    </g>
    <g id="text_20">
     <!-- 95% HDI -->
     <g style="fill: #262626" transform="translate(148.7 60.973594) scale(0.11 -0.11)">
      <defs>
       <path id="ArialMT-48" d="M 513 0 
L 513 4581 
L 1119 4581 
L 1119 2700 
L 3500 2700 
L 3500 4581 
L 4106 4581 
L 4106 0 
L 3500 0 
L 3500 2159 
L 1119 2159 
L 1119 0 
L 513 0 
z
" transform="scale(0.015625)"/>
      </defs>
      <use xlink:href="#ArialMT-39"/>
      <use xlink:href="#ArialMT-35" x="55.615234"/>
      <use xlink:href="#ArialMT-25" x="111.230469"/>
      <use xlink:href="#ArialMT-20" x="200.146484"/>
      <use xlink:href="#ArialMT-48" x="227.929688"/>
      <use xlink:href="#ArialMT-44" x="300.146484"/>
      <use xlink:href="#ArialMT-49" x="372.363281"/>
     </g>
    </g>
    <g id="line2d_19">
     <path d="M 117.9 72.683437 
L 128.9 72.683437 
L 139.9 72.683437 
" style="fill: none; stroke: #008080; stroke-width: 1.5; stroke-linecap: round"/>
    </g>
    <g id="text_21">
     <!-- Train -->
     <g style="fill: #262626" transform="translate(148.7 76.533437) scale(0.11 -0.11)">
      <use xlink:href="#ArialMT-54"/>
      <use xlink:href="#ArialMT-72" x="57.333984"/>
      <use xlink:href="#ArialMT-61" x="90.634766"/>
      <use xlink:href="#ArialMT-69" x="146.25"/>
      <use xlink:href="#ArialMT-6e" x="168.466797"/>
     </g>
    </g>
    <g id="PathCollection_2">
     <g>
      <use xlink:href="#m4aae13ce73" x="128.9" y="89.205781" style="fill: #ff0000; stroke: #ffffff; stroke-width: 0.565685"/>
     </g>
    </g>
    <g id="text_22">
     <!-- Test -->
     <g style="fill: #262626" transform="translate(148.7 92.093281) scale(0.11 -0.11)">
      <use xlink:href="#ArialMT-54"/>
      <use xlink:href="#ArialMT-65" x="49.958984"/>
      <use xlink:href="#ArialMT-73" x="105.574219"/>
      <use xlink:href="#ArialMT-74" x="155.574219"/>
     </g>
    </g>
    <g id="line2d_20">
     <path d="M 117.9 103.803125 
L 128.9 103.803125 
L 139.9 103.803125 
" style="fill: none; stroke: #0000ff; stroke-width: 2; stroke-linecap: round"/>
    </g>
    <g id="text_23">
     <!-- Forecast -->
     <g style="fill: #262626" transform="translate(148.7 107.653125) scale(0.11 -0.11)">
      <use xlink:href="#ArialMT-46"/>
      <use xlink:href="#ArialMT-6f" x="61.083984"/>
      <use xlink:href="#ArialMT-72" x="116.699219"/>
      <use xlink:href="#ArialMT-65" x="150"/>
      <use xlink:href="#ArialMT-63" x="205.615234"/>
      <use xlink:href="#ArialMT-61" x="255.615234"/>
      <use xlink:href="#ArialMT-73" x="311.230469"/>
      <use xlink:href="#ArialMT-74" x="361.230469"/>
     </g>
    </g>
   </g>
  </g>
  <g id="text_24">
   <!-- Acute bloody diarrhea Weekly Cases -->
   <g style="fill: #262626" transform="translate(314.074125 17.68275) scale(0.144 -0.144)">
    <defs>
     <path id="ArialMT-79" d="M 397 -1278 
L 334 -750 
Q 519 -800 656 -800 
Q 844 -800 956 -737 
Q 1069 -675 1141 -563 
Q 1194 -478 1313 -144 
Q 1328 -97 1363 -6 
L 103 3319 
L 709 3319 
L 1400 1397 
Q 1534 1031 1641 628 
Q 1738 1016 1872 1384 
L 2581 3319 
L 3144 3319 
L 1881 -56 
Q 1678 -603 1566 -809 
Q 1416 -1088 1222 -1217 
Q 1028 -1347 759 -1347 
Q 597 -1347 397 -1278 
z
" transform="scale(0.015625)"/>
     <path id="ArialMT-68" d="M 422 0 
L 422 4581 
L 984 4581 
L 984 2938 
Q 1378 3394 1978 3394 
Q 2347 3394 2619 3248 
Q 2891 3103 3008 2847 
Q 3125 2591 3125 2103 
L 3125 0 
L 2563 0 
L 2563 2103 
Q 2563 2525 2380 2717 
Q 2197 2909 1863 2909 
Q 1613 2909 1392 2779 
Q 1172 2650 1078 2428 
Q 984 2206 984 1816 
L 984 0 
L 422 0 
z
" transform="scale(0.015625)"/>
     <path id="ArialMT-57" d="M 1294 0 
L 78 4581 
L 700 4581 
L 1397 1578 
Q 1509 1106 1591 641 
Q 1766 1375 1797 1488 
L 2669 4581 
L 3400 4581 
L 4056 2263 
Q 4303 1400 4413 641 
Q 4500 1075 4641 1638 
L 5359 4581 
L 5969 4581 
L 4713 0 
L 4128 0 
L 3163 3491 
Q 3041 3928 3019 4028 
Q 2947 3713 2884 3491 
L 1913 0 
L 1294 0 
z
" transform="scale(0.015625)"/>
     <path id="ArialMT-6b" d="M 425 0 
L 425 4581 
L 988 4581 
L 988 1969 
L 2319 3319 
L 3047 3319 
L 1778 2088 
L 3175 0 
L 2481 0 
L 1384 1697 
L 988 1316 
L 988 0 
L 425 0 
z
" transform="scale(0.015625)"/>
    </defs>
    <use xlink:href="#ArialMT-41"/>
    <use xlink:href="#ArialMT-63" x="66.699219"/>
    <use xlink:href="#ArialMT-75" x="116.699219"/>
    <use xlink:href="#ArialMT-74" x="172.314453"/>
    <use xlink:href="#ArialMT-65" x="200.097656"/>
    <use xlink:href="#ArialMT-20" x="255.712891"/>
    <use xlink:href="#ArialMT-62" x="283.496094"/>
    <use xlink:href="#ArialMT-6c" x="339.111328"/>
    <use xlink:href="#ArialMT-6f" x="361.328125"/>
    <use xlink:href="#ArialMT-6f" x="416.943359"/>
    <use xlink:href="#ArialMT-64" x="472.558594"/>
    <use xlink:href="#ArialMT-79" x="528.173828"/>
    <use xlink:href="#ArialMT-20" x="578.173828"/>
    <use xlink:href="#ArialMT-64" x="605.957031"/>
    <use xlink:href="#ArialMT-69" x="661.572266"/>
    <use xlink:href="#ArialMT-61" x="683.789062"/>
    <use xlink:href="#ArialMT-72" x="739.404297"/>
    <use xlink:href="#ArialMT-72" x="772.705078"/>
    <use xlink:href="#ArialMT-68" x="806.005859"/>
    <use xlink:href="#ArialMT-65" x="861.621094"/>
    <use xlink:href="#ArialMT-61" x="917.236328"/>
    <use xlink:href="#ArialMT-20" x="972.851562"/>
    <use xlink:href="#ArialMT-57" x="1000.634766"/>
    <use xlink:href="#ArialMT-65" x="1093.269531"/>
    <use xlink:href="#ArialMT-65" x="1148.884766"/>
    <use xlink:href="#ArialMT-6b" x="1204.5"/>
    <use xlink:href="#ArialMT-6c" x="1254.5"/>
    <use xlink:href="#ArialMT-79" x="1276.716797"/>
    <use xlink:href="#ArialMT-20" x="1326.716797"/>
    <use xlink:href="#ArialMT-43" x="1354.5"/>
    <use xlink:href="#ArialMT-61" x="1426.716797"/>
    <use xlink:href="#ArialMT-73" x="1482.332031"/>
    <use xlink:href="#ArialMT-65" x="1532.332031"/>
    <use xlink:href="#ArialMT-73" x="1587.947266"/>
   </g>
  </g>
 </g>
 <defs>
  <clipPath id="p60f07370b1">
   <rect x="108" y="43.2" width="669.6" height="277.2"/>
  </clipPath>
 </defs>
</svg>
