<?xml version="1.0" encoding="utf-8" standalone="no"?>
<!DOCTYPE svg PUBLIC "-//W3C//DTD SVG 1.1//EN"
  "http://www.w3.org/Graphics/SVG/1.1/DTD/svg11.dtd">
<svg xmlns:xlink="http://www.w3.org/1999/xlink" width="1080pt" height="360pt" viewBox="0 0 1080 360" xmlns="http://www.w3.org/2000/svg" version="1.1">
 <metadata>
  <rdf:RDF xmlns:dc="http://purl.org/dc/elements/1.1/" xmlns:cc="http://creativecommons.org/ns#" xmlns:rdf="http://www.w3.org/1999/02/22-rdf-syntax-ns#">
   <cc:Work>
    <dc:type rdf:resource="http://purl.org/dc/dcmitype/StillImage"/>
    <dc:date>2023-08-01T03:14:30.114130</dc:date>
    <dc:format>image/svg+xml</dc:format>
    <dc:creator>
     <cc:Agent>
      <dc:title>Matplotlib v3.7.1, https://matplotlib.org/</dc:title>
     </cc:Agent>
    </dc:creator>
   </cc:Work>
  </rdf:RDF>
 </metadata>
 <defs>
  <style type="text/css">*{stroke-linejoin: round; stroke-linecap: butt}</style>
 </defs>
 <g id="figure_1">
  <g id="patch_1">
   <path d="M 0 360 
L 1080 360 
L 1080 0 
L 0 0 
z
" style="fill: #ffffff"/>
  </g>
  <g id="axes_1">
   <g id="patch_2">
    <path d="M 135 320.4 
L 972 320.4 
L 972 43.2 
L 135 43.2 
z
" style="fill: #ffffff"/>
   </g>
   <g id="matplotlib.axis_1">
    <g id="xtick_1">
     <g id="line2d_1">
      <defs>
       <path id="m52eb92b5e0" d="M 0 0 
L 0 6 
" style="stroke: #262626; stroke-width: 1.25"/>
      </defs>
      <g>
       <use xlink:href="#m52eb92b5e0" x="162.854708" y="320.4" style="fill: #262626; stroke: #262626; stroke-width: 1.25"/>
      </g>
     </g>
     <g id="text_1">
      <!-- 2016 -->
      <g style="fill: #262626" transform="translate(150.620645 337.773594) scale(0.11 -0.11)">
       <defs>
        <path id="ArialMT-32" d="M 3222 541 
L 3222 0 
L 194 0 
Q 188 203 259 391 
Q 375 700 629 1000 
Q 884 1300 1366 1694 
Q 2113 2306 2375 2664 
Q 2638 3022 2638 3341 
Q 2638 3675 2398 3904 
Q 2159 4134 1775 4134 
Q 1369 4134 1125 3890 
Q 881 3647 878 3216 
L 300 3275 
Q 359 3922 746 4261 
Q 1134 4600 1788 4600 
Q 2447 4600 2831 4234 
Q 3216 3869 3216 3328 
Q 3216 3053 3103 2787 
Q 2991 2522 2730 2228 
Q 2469 1934 1863 1422 
Q 1356 997 1212 845 
Q 1069 694 975 541 
L 3222 541 
z
" transform="scale(0.015625)"/>
        <path id="ArialMT-30" d="M 266 2259 
Q 266 3072 433 3567 
Q 600 4063 929 4331 
Q 1259 4600 1759 4600 
Q 2128 4600 2406 4451 
Q 2684 4303 2865 4023 
Q 3047 3744 3150 3342 
Q 3253 2941 3253 2259 
Q 3253 1453 3087 958 
Q 2922 463 2592 192 
Q 2263 -78 1759 -78 
Q 1097 -78 719 397 
Q 266 969 266 2259 
z
M 844 2259 
Q 844 1131 1108 757 
Q 1372 384 1759 384 
Q 2147 384 2411 759 
Q 2675 1134 2675 2259 
Q 2675 3391 2411 3762 
Q 2147 4134 1753 4134 
Q 1366 4134 1134 3806 
Q 844 3388 844 2259 
z
" transform="scale(0.015625)"/>
        <path id="ArialMT-31" d="M 2384 0 
L 1822 0 
L 1822 3584 
Q 1619 3391 1289 3197 
Q 959 3003 697 2906 
L 697 3450 
Q 1169 3672 1522 3987 
Q 1875 4303 2022 4600 
L 2384 4600 
L 2384 0 
z
" transform="scale(0.015625)"/>
        <path id="ArialMT-36" d="M 3184 3459 
L 2625 3416 
Q 2550 3747 2413 3897 
Q 2184 4138 1850 4138 
Q 1581 4138 1378 3988 
Q 1113 3794 959 3422 
Q 806 3050 800 2363 
Q 1003 2672 1297 2822 
Q 1591 2972 1913 2972 
Q 2475 2972 2870 2558 
Q 3266 2144 3266 1488 
Q 3266 1056 3080 686 
Q 2894 316 2569 119 
Q 2244 -78 1831 -78 
Q 1128 -78 684 439 
Q 241 956 241 2144 
Q 241 3472 731 4075 
Q 1159 4600 1884 4600 
Q 2425 4600 2770 4297 
Q 3116 3994 3184 3459 
z
M 888 1484 
Q 888 1194 1011 928 
Q 1134 663 1356 523 
Q 1578 384 1822 384 
Q 2178 384 2434 671 
Q 2691 959 2691 1453 
Q 2691 1928 2437 2201 
Q 2184 2475 1800 2475 
Q 1419 2475 1153 2201 
Q 888 1928 888 1484 
z
" transform="scale(0.015625)"/>
       </defs>
       <use xlink:href="#ArialMT-32"/>
       <use xlink:href="#ArialMT-30" x="55.615234"/>
       <use xlink:href="#ArialMT-31" x="111.230469"/>
       <use xlink:href="#ArialMT-36" x="166.845703"/>
      </g>
     </g>
    </g>
    <g id="xtick_2">
     <g id="line2d_2">
      <g>
       <use xlink:href="#m52eb92b5e0" x="266.460633" y="320.4" style="fill: #262626; stroke: #262626; stroke-width: 1.25"/>
      </g>
     </g>
     <g id="text_2">
      <!-- 2017 -->
      <g style="fill: #262626" transform="translate(254.226571 337.773594) scale(0.11 -0.11)">
       <defs>
        <path id="ArialMT-37" d="M 303 3981 
L 303 4522 
L 3269 4522 
L 3269 4084 
Q 2831 3619 2401 2847 
Q 1972 2075 1738 1259 
Q 1569 684 1522 0 
L 944 0 
Q 953 541 1156 1306 
Q 1359 2072 1739 2783 
Q 2119 3494 2547 3981 
L 303 3981 
z
" transform="scale(0.015625)"/>
       </defs>
       <use xlink:href="#ArialMT-32"/>
       <use xlink:href="#ArialMT-30" x="55.615234"/>
       <use xlink:href="#ArialMT-31" x="111.230469"/>
       <use xlink:href="#ArialMT-37" x="166.845703"/>
      </g>
     </g>
    </g>
    <g id="xtick_3">
     <g id="line2d_3">
      <g>
       <use xlink:href="#m52eb92b5e0" x="369.783482" y="320.4" style="fill: #262626; stroke: #262626; stroke-width: 1.25"/>
      </g>
     </g>
     <g id="text_3">
      <!-- 2018 -->
      <g style="fill: #262626" transform="translate(357.54942 337.773594) scale(0.11 -0.11)">
       <defs>
        <path id="ArialMT-38" d="M 1131 2484 
Q 781 2613 612 2850 
Q 444 3088 444 3419 
Q 444 3919 803 4259 
Q 1163 4600 1759 4600 
Q 2359 4600 2725 4251 
Q 3091 3903 3091 3403 
Q 3091 3084 2923 2848 
Q 2756 2613 2416 2484 
Q 2838 2347 3058 2040 
Q 3278 1734 3278 1309 
Q 3278 722 2862 322 
Q 2447 -78 1769 -78 
Q 1091 -78 675 323 
Q 259 725 259 1325 
Q 259 1772 486 2073 
Q 713 2375 1131 2484 
z
M 1019 3438 
Q 1019 3113 1228 2906 
Q 1438 2700 1772 2700 
Q 2097 2700 2305 2904 
Q 2513 3109 2513 3406 
Q 2513 3716 2298 3927 
Q 2084 4138 1766 4138 
Q 1444 4138 1231 3931 
Q 1019 3725 1019 3438 
z
M 838 1322 
Q 838 1081 952 856 
Q 1066 631 1291 507 
Q 1516 384 1775 384 
Q 2178 384 2440 643 
Q 2703 903 2703 1303 
Q 2703 1709 2433 1975 
Q 2163 2241 1756 2241 
Q 1359 2241 1098 1978 
Q 838 1716 838 1322 
z
" transform="scale(0.015625)"/>
       </defs>
       <use xlink:href="#ArialMT-32"/>
       <use xlink:href="#ArialMT-30" x="55.615234"/>
       <use xlink:href="#ArialMT-31" x="111.230469"/>
       <use xlink:href="#ArialMT-38" x="166.845703"/>
      </g>
     </g>
    </g>
    <g id="xtick_4">
     <g id="line2d_4">
      <g>
       <use xlink:href="#m52eb92b5e0" x="473.106331" y="320.4" style="fill: #262626; stroke: #262626; stroke-width: 1.25"/>
      </g>
     </g>
     <g id="text_4">
      <!-- 2019 -->
      <g style="fill: #262626" transform="translate(460.872269 337.773594) scale(0.11 -0.11)">
       <defs>
        <path id="ArialMT-39" d="M 350 1059 
L 891 1109 
Q 959 728 1153 556 
Q 1347 384 1650 384 
Q 1909 384 2104 503 
Q 2300 622 2425 820 
Q 2550 1019 2634 1356 
Q 2719 1694 2719 2044 
Q 2719 2081 2716 2156 
Q 2547 1888 2255 1720 
Q 1963 1553 1622 1553 
Q 1053 1553 659 1965 
Q 266 2378 266 3053 
Q 266 3750 677 4175 
Q 1088 4600 1706 4600 
Q 2153 4600 2523 4359 
Q 2894 4119 3086 3673 
Q 3278 3228 3278 2384 
Q 3278 1506 3087 986 
Q 2897 466 2520 194 
Q 2144 -78 1638 -78 
Q 1100 -78 759 220 
Q 419 519 350 1059 
z
M 2653 3081 
Q 2653 3566 2395 3850 
Q 2138 4134 1775 4134 
Q 1400 4134 1122 3828 
Q 844 3522 844 3034 
Q 844 2597 1108 2323 
Q 1372 2050 1759 2050 
Q 2150 2050 2401 2323 
Q 2653 2597 2653 3081 
z
" transform="scale(0.015625)"/>
       </defs>
       <use xlink:href="#ArialMT-32"/>
       <use xlink:href="#ArialMT-30" x="55.615234"/>
       <use xlink:href="#ArialMT-31" x="111.230469"/>
       <use xlink:href="#ArialMT-39" x="166.845703"/>
      </g>
     </g>
    </g>
    <g id="xtick_5">
     <g id="line2d_5">
      <g>
       <use xlink:href="#m52eb92b5e0" x="576.42918" y="320.4" style="fill: #262626; stroke: #262626; stroke-width: 1.25"/>
      </g>
     </g>
     <g id="text_5">
      <!-- 2020 -->
      <g style="fill: #262626" transform="translate(564.195118 337.773594) scale(0.11 -0.11)">
       <use xlink:href="#ArialMT-32"/>
       <use xlink:href="#ArialMT-30" x="55.615234"/>
       <use xlink:href="#ArialMT-32" x="111.230469"/>
       <use xlink:href="#ArialMT-30" x="166.845703"/>
      </g>
     </g>
    </g>
    <g id="xtick_6">
     <g id="line2d_6">
      <g>
       <use xlink:href="#m52eb92b5e0" x="680.035106" y="320.4" style="fill: #262626; stroke: #262626; stroke-width: 1.25"/>
      </g>
     </g>
     <g id="text_6">
      <!-- 2021 -->
      <g style="fill: #262626" transform="translate(667.801043 337.773594) scale(0.11 -0.11)">
       <use xlink:href="#ArialMT-32"/>
       <use xlink:href="#ArialMT-30" x="55.615234"/>
       <use xlink:href="#ArialMT-32" x="111.230469"/>
       <use xlink:href="#ArialMT-31" x="166.845703"/>
      </g>
     </g>
    </g>
    <g id="xtick_7">
     <g id="line2d_7">
      <g>
       <use xlink:href="#m52eb92b5e0" x="783.357955" y="320.4" style="fill: #262626; stroke: #262626; stroke-width: 1.25"/>
      </g>
     </g>
     <g id="text_7">
      <!-- 2022 -->
      <g style="fill: #262626" transform="translate(771.123892 337.773594) scale(0.11 -0.11)">
       <use xlink:href="#ArialMT-32"/>
       <use xlink:href="#ArialMT-30" x="55.615234"/>
       <use xlink:href="#ArialMT-32" x="111.230469"/>
       <use xlink:href="#ArialMT-32" x="166.845703"/>
      </g>
     </g>
    </g>
    <g id="xtick_8">
     <g id="line2d_8">
      <g>
       <use xlink:href="#m52eb92b5e0" x="886.680804" y="320.4" style="fill: #262626; stroke: #262626; stroke-width: 1.25"/>
      </g>
     </g>
     <g id="text_8">
      <!-- 2023 -->
      <g style="fill: #262626" transform="translate(874.446741 337.773594) scale(0.11 -0.11)">
       <defs>
        <path id="ArialMT-33" d="M 269 1209 
L 831 1284 
Q 928 806 1161 595 
Q 1394 384 1728 384 
Q 2125 384 2398 659 
Q 2672 934 2672 1341 
Q 2672 1728 2419 1979 
Q 2166 2231 1775 2231 
Q 1616 2231 1378 2169 
L 1441 2663 
Q 1497 2656 1531 2656 
Q 1891 2656 2178 2843 
Q 2466 3031 2466 3422 
Q 2466 3731 2256 3934 
Q 2047 4138 1716 4138 
Q 1388 4138 1169 3931 
Q 950 3725 888 3313 
L 325 3413 
Q 428 3978 793 4289 
Q 1159 4600 1703 4600 
Q 2078 4600 2393 4439 
Q 2709 4278 2876 4000 
Q 3044 3722 3044 3409 
Q 3044 3113 2884 2869 
Q 2725 2625 2413 2481 
Q 2819 2388 3044 2092 
Q 3269 1797 3269 1353 
Q 3269 753 2831 336 
Q 2394 -81 1725 -81 
Q 1122 -81 723 278 
Q 325 638 269 1209 
z
" transform="scale(0.015625)"/>
       </defs>
       <use xlink:href="#ArialMT-32"/>
       <use xlink:href="#ArialMT-30" x="55.615234"/>
       <use xlink:href="#ArialMT-32" x="111.230469"/>
       <use xlink:href="#ArialMT-33" x="166.845703"/>
      </g>
     </g>
    </g>
   </g>
   <g id="matplotlib.axis_2">
    <g id="ytick_1">
     <g id="line2d_9">
      <defs>
       <path id="mc0a827ae19" d="M 0 0 
L -6 0 
" style="stroke: #262626; stroke-width: 1.25"/>
      </defs>
      <g>
       <use xlink:href="#mc0a827ae19" x="135" y="307.8" style="fill: #262626; stroke: #262626; stroke-width: 1.25"/>
      </g>
     </g>
     <g id="text_9">
      <!-- 0 -->
      <g style="fill: #262626" transform="translate(119.382969 311.736797) scale(0.11 -0.11)">
       <use xlink:href="#ArialMT-30"/>
      </g>
     </g>
    </g>
    <g id="ytick_2">
     <g id="line2d_10">
      <g>
       <use xlink:href="#mc0a827ae19" x="135" y="251.068798" style="fill: #262626; stroke: #262626; stroke-width: 1.25"/>
      </g>
     </g>
     <g id="text_10">
      <!-- 500 -->
      <g style="fill: #262626" transform="translate(107.148906 255.005595) scale(0.11 -0.11)">
       <defs>
        <path id="ArialMT-35" d="M 266 1200 
L 856 1250 
Q 922 819 1161 601 
Q 1400 384 1738 384 
Q 2144 384 2425 690 
Q 2706 997 2706 1503 
Q 2706 1984 2436 2262 
Q 2166 2541 1728 2541 
Q 1456 2541 1237 2417 
Q 1019 2294 894 2097 
L 366 2166 
L 809 4519 
L 3088 4519 
L 3088 3981 
L 1259 3981 
L 1013 2750 
Q 1425 3038 1878 3038 
Q 2478 3038 2890 2622 
Q 3303 2206 3303 1553 
Q 3303 931 2941 478 
Q 2500 -78 1738 -78 
Q 1113 -78 717 272 
Q 322 622 266 1200 
z
" transform="scale(0.015625)"/>
       </defs>
       <use xlink:href="#ArialMT-35"/>
       <use xlink:href="#ArialMT-30" x="55.615234"/>
       <use xlink:href="#ArialMT-30" x="111.230469"/>
      </g>
     </g>
    </g>
    <g id="ytick_3">
     <g id="line2d_11">
      <g>
       <use xlink:href="#mc0a827ae19" x="135" y="194.337596" style="fill: #262626; stroke: #262626; stroke-width: 1.25"/>
      </g>
     </g>
     <g id="text_11">
      <!-- 1000 -->
      <g style="fill: #262626" transform="translate(101.031875 198.274393) scale(0.11 -0.11)">
       <use xlink:href="#ArialMT-31"/>
       <use xlink:href="#ArialMT-30" x="55.615234"/>
       <use xlink:href="#ArialMT-30" x="111.230469"/>
       <use xlink:href="#ArialMT-30" x="166.845703"/>
      </g>
     </g>
    </g>
    <g id="ytick_4">
     <g id="line2d_12">
      <g>
       <use xlink:href="#mc0a827ae19" x="135" y="137.606394" style="fill: #262626; stroke: #262626; stroke-width: 1.25"/>
      </g>
     </g>
     <g id="text_12">
      <!-- 1500 -->
      <g style="fill: #262626" transform="translate(101.031875 141.54319) scale(0.11 -0.11)">
       <use xlink:href="#ArialMT-31"/>
       <use xlink:href="#ArialMT-35" x="55.615234"/>
       <use xlink:href="#ArialMT-30" x="111.230469"/>
       <use xlink:href="#ArialMT-30" x="166.845703"/>
      </g>
     </g>
    </g>
    <g id="ytick_5">
     <g id="line2d_13">
      <g>
       <use xlink:href="#mc0a827ae19" x="135" y="80.875191" style="fill: #262626; stroke: #262626; stroke-width: 1.25"/>
      </g>
     </g>
     <g id="text_13">
      <!-- 2000 -->
      <g style="fill: #262626" transform="translate(101.031875 84.811988) scale(0.11 -0.11)">
       <use xlink:href="#ArialMT-32"/>
       <use xlink:href="#ArialMT-30" x="55.615234"/>
       <use xlink:href="#ArialMT-30" x="111.230469"/>
       <use xlink:href="#ArialMT-30" x="166.845703"/>
      </g>
     </g>
    </g>
    <g id="text_14">
     <!-- Number of Cases -->
     <g style="fill: #262626" transform="translate(94.646875 228.481875) rotate(-90) scale(0.12 -0.12)">
      <defs>
       <path id="ArialMT-4e" d="M 488 0 
L 488 4581 
L 1109 4581 
L 3516 984 
L 3516 4581 
L 4097 4581 
L 4097 0 
L 3475 0 
L 1069 3600 
L 1069 0 
L 488 0 
z
" transform="scale(0.015625)"/>
       <path id="ArialMT-75" d="M 2597 0 
L 2597 488 
Q 2209 -75 1544 -75 
Q 1250 -75 995 37 
Q 741 150 617 320 
Q 494 491 444 738 
Q 409 903 409 1263 
L 409 3319 
L 972 3319 
L 972 1478 
Q 972 1038 1006 884 
Q 1059 663 1231 536 
Q 1403 409 1656 409 
Q 1909 409 2131 539 
Q 2353 669 2445 892 
Q 2538 1116 2538 1541 
L 2538 3319 
L 3100 3319 
L 3100 0 
L 2597 0 
z
" transform="scale(0.015625)"/>
       <path id="ArialMT-6d" d="M 422 0 
L 422 3319 
L 925 3319 
L 925 2853 
Q 1081 3097 1340 3245 
Q 1600 3394 1931 3394 
Q 2300 3394 2536 3241 
Q 2772 3088 2869 2813 
Q 3263 3394 3894 3394 
Q 4388 3394 4653 3120 
Q 4919 2847 4919 2278 
L 4919 0 
L 4359 0 
L 4359 2091 
Q 4359 2428 4304 2576 
Q 4250 2725 4106 2815 
Q 3963 2906 3769 2906 
Q 3419 2906 3187 2673 
Q 2956 2441 2956 1928 
L 2956 0 
L 2394 0 
L 2394 2156 
Q 2394 2531 2256 2718 
Q 2119 2906 1806 2906 
Q 1569 2906 1367 2781 
Q 1166 2656 1075 2415 
Q 984 2175 984 1722 
L 984 0 
L 422 0 
z
" transform="scale(0.015625)"/>
       <path id="ArialMT-62" d="M 941 0 
L 419 0 
L 419 4581 
L 981 4581 
L 981 2947 
Q 1338 3394 1891 3394 
Q 2197 3394 2470 3270 
Q 2744 3147 2920 2923 
Q 3097 2700 3197 2384 
Q 3297 2069 3297 1709 
Q 3297 856 2875 390 
Q 2453 -75 1863 -75 
Q 1275 -75 941 416 
L 941 0 
z
M 934 1684 
Q 934 1088 1097 822 
Q 1363 388 1816 388 
Q 2184 388 2453 708 
Q 2722 1028 2722 1663 
Q 2722 2313 2464 2622 
Q 2206 2931 1841 2931 
Q 1472 2931 1203 2611 
Q 934 2291 934 1684 
z
" transform="scale(0.015625)"/>
       <path id="ArialMT-65" d="M 2694 1069 
L 3275 997 
Q 3138 488 2766 206 
Q 2394 -75 1816 -75 
Q 1088 -75 661 373 
Q 234 822 234 1631 
Q 234 2469 665 2931 
Q 1097 3394 1784 3394 
Q 2450 3394 2872 2941 
Q 3294 2488 3294 1666 
Q 3294 1616 3291 1516 
L 816 1516 
Q 847 969 1125 678 
Q 1403 388 1819 388 
Q 2128 388 2347 550 
Q 2566 713 2694 1069 
z
M 847 1978 
L 2700 1978 
Q 2663 2397 2488 2606 
Q 2219 2931 1791 2931 
Q 1403 2931 1139 2672 
Q 875 2413 847 1978 
z
" transform="scale(0.015625)"/>
       <path id="ArialMT-72" d="M 416 0 
L 416 3319 
L 922 3319 
L 922 2816 
Q 1116 3169 1280 3281 
Q 1444 3394 1641 3394 
Q 1925 3394 2219 3213 
L 2025 2691 
Q 1819 2813 1613 2813 
Q 1428 2813 1281 2702 
Q 1134 2591 1072 2394 
Q 978 2094 978 1738 
L 978 0 
L 416 0 
z
" transform="scale(0.015625)"/>
       <path id="ArialMT-20" transform="scale(0.015625)"/>
       <path id="ArialMT-6f" d="M 213 1659 
Q 213 2581 725 3025 
Q 1153 3394 1769 3394 
Q 2453 3394 2887 2945 
Q 3322 2497 3322 1706 
Q 3322 1066 3130 698 
Q 2938 331 2570 128 
Q 2203 -75 1769 -75 
Q 1072 -75 642 372 
Q 213 819 213 1659 
z
M 791 1659 
Q 791 1022 1069 705 
Q 1347 388 1769 388 
Q 2188 388 2466 706 
Q 2744 1025 2744 1678 
Q 2744 2294 2464 2611 
Q 2184 2928 1769 2928 
Q 1347 2928 1069 2612 
Q 791 2297 791 1659 
z
" transform="scale(0.015625)"/>
       <path id="ArialMT-66" d="M 556 0 
L 556 2881 
L 59 2881 
L 59 3319 
L 556 3319 
L 556 3672 
Q 556 4006 616 4169 
Q 697 4388 901 4523 
Q 1106 4659 1475 4659 
Q 1713 4659 2000 4603 
L 1916 4113 
Q 1741 4144 1584 4144 
Q 1328 4144 1222 4034 
Q 1116 3925 1116 3625 
L 1116 3319 
L 1763 3319 
L 1763 2881 
L 1116 2881 
L 1116 0 
L 556 0 
z
" transform="scale(0.015625)"/>
       <path id="ArialMT-43" d="M 3763 1606 
L 4369 1453 
Q 4178 706 3683 314 
Q 3188 -78 2472 -78 
Q 1731 -78 1267 223 
Q 803 525 561 1097 
Q 319 1669 319 2325 
Q 319 3041 592 3573 
Q 866 4106 1370 4382 
Q 1875 4659 2481 4659 
Q 3169 4659 3637 4309 
Q 4106 3959 4291 3325 
L 3694 3184 
Q 3534 3684 3231 3912 
Q 2928 4141 2469 4141 
Q 1941 4141 1586 3887 
Q 1231 3634 1087 3207 
Q 944 2781 944 2328 
Q 944 1744 1114 1308 
Q 1284 872 1643 656 
Q 2003 441 2422 441 
Q 2931 441 3284 734 
Q 3638 1028 3763 1606 
z
" transform="scale(0.015625)"/>
       <path id="ArialMT-61" d="M 2588 409 
Q 2275 144 1986 34 
Q 1697 -75 1366 -75 
Q 819 -75 525 192 
Q 231 459 231 875 
Q 231 1119 342 1320 
Q 453 1522 633 1644 
Q 813 1766 1038 1828 
Q 1203 1872 1538 1913 
Q 2219 1994 2541 2106 
Q 2544 2222 2544 2253 
Q 2544 2597 2384 2738 
Q 2169 2928 1744 2928 
Q 1347 2928 1158 2789 
Q 969 2650 878 2297 
L 328 2372 
Q 403 2725 575 2942 
Q 747 3159 1072 3276 
Q 1397 3394 1825 3394 
Q 2250 3394 2515 3294 
Q 2781 3194 2906 3042 
Q 3031 2891 3081 2659 
Q 3109 2516 3109 2141 
L 3109 1391 
Q 3109 606 3145 398 
Q 3181 191 3288 0 
L 2700 0 
Q 2613 175 2588 409 
z
M 2541 1666 
Q 2234 1541 1622 1453 
Q 1275 1403 1131 1340 
Q 988 1278 909 1158 
Q 831 1038 831 891 
Q 831 666 1001 516 
Q 1172 366 1500 366 
Q 1825 366 2078 508 
Q 2331 650 2450 897 
Q 2541 1088 2541 1459 
L 2541 1666 
z
" transform="scale(0.015625)"/>
       <path id="ArialMT-73" d="M 197 991 
L 753 1078 
Q 800 744 1014 566 
Q 1228 388 1613 388 
Q 2000 388 2187 545 
Q 2375 703 2375 916 
Q 2375 1106 2209 1216 
Q 2094 1291 1634 1406 
Q 1016 1563 777 1677 
Q 538 1791 414 1992 
Q 291 2194 291 2438 
Q 291 2659 392 2848 
Q 494 3038 669 3163 
Q 800 3259 1026 3326 
Q 1253 3394 1513 3394 
Q 1903 3394 2198 3281 
Q 2494 3169 2634 2976 
Q 2775 2784 2828 2463 
L 2278 2388 
Q 2241 2644 2061 2787 
Q 1881 2931 1553 2931 
Q 1166 2931 1000 2803 
Q 834 2675 834 2503 
Q 834 2394 903 2306 
Q 972 2216 1119 2156 
Q 1203 2125 1616 2013 
Q 2213 1853 2448 1751 
Q 2684 1650 2818 1456 
Q 2953 1263 2953 975 
Q 2953 694 2789 445 
Q 2625 197 2315 61 
Q 2006 -75 1616 -75 
Q 969 -75 630 194 
Q 291 463 197 991 
z
" transform="scale(0.015625)"/>
      </defs>
      <use xlink:href="#ArialMT-4e"/>
      <use xlink:href="#ArialMT-75" x="72.216797"/>
      <use xlink:href="#ArialMT-6d" x="127.832031"/>
      <use xlink:href="#ArialMT-62" x="211.132812"/>
      <use xlink:href="#ArialMT-65" x="266.748047"/>
      <use xlink:href="#ArialMT-72" x="322.363281"/>
      <use xlink:href="#ArialMT-20" x="355.664062"/>
      <use xlink:href="#ArialMT-6f" x="383.447266"/>
      <use xlink:href="#ArialMT-66" x="439.0625"/>
      <use xlink:href="#ArialMT-20" x="466.845703"/>
      <use xlink:href="#ArialMT-43" x="494.628906"/>
      <use xlink:href="#ArialMT-61" x="566.845703"/>
      <use xlink:href="#ArialMT-73" x="622.460938"/>
      <use xlink:href="#ArialMT-65" x="672.460938"/>
      <use xlink:href="#ArialMT-73" x="728.076172"/>
     </g>
    </g>
   </g>
   <g id="line2d_14">
    <path d="M 173.045455 294.978748 
L 175.026989 307.8 
L 177.008523 298.609545 
L 178.990057 294.411436 
L 180.971591 304.623053 
L 182.953125 305.644214 
L 184.934659 307.8 
L 186.916193 301.219181 
L 188.897727 307.686538 
L 190.879261 299.517244 
L 192.860795 301.786493 
L 194.84233 294.411436 
L 196.823864 304.169203 
L 198.805398 304.055741 
L 200.786932 305.644214 
L 202.768466 298.83647 
L 204.75 305.530752 
L 206.731534 307.573075 
L 208.713068 294.184511 
L 210.694602 304.055741 
L 212.676136 304.50959 
L 214.65767 307.8 
L 216.639205 305.984602 
L 218.620739 293.617199 
L 220.602273 304.169203 
L 222.583807 306.665376 
L 224.565341 290.553715 
L 226.546875 304.282665 
L 228.528409 307.119226 
L 230.509943 293.503737 
L 232.491477 305.984602 
L 234.473011 307.34615 
L 236.454545 292.822963 
L 238.43608 305.757677 
L 240.417614 307.34615 
L 242.399148 297.134534 
L 244.380682 304.736515 
L 246.362216 306.098064 
L 248.34375 307.119226 
L 250.325284 299.971094 
L 252.306818 304.849977 
L 254.288352 303.261504 
L 258.25142 304.282665 
L 260.232955 303.488429 
L 262.214489 304.50959 
L 264.196023 306.665376 
L 266.177557 289.532553 
L 268.159091 307.34615 
L 270.140625 307.119226 
L 272.122159 305.871139 
L 274.103693 304.849977 
L 276.085227 305.190365 
L 278.066761 301.67303 
L 280.048295 294.865286 
L 282.02983 304.169203 
L 284.011364 304.396128 
L 285.992898 305.757677 
L 287.974432 307.459613 
L 289.955966 300.765331 
L 291.9375 303.942278 
L 293.919034 303.034579 
L 295.900568 304.96344 
L 297.882102 304.282665 
L 299.863636 307.232688 
L 301.84517 299.630707 
L 303.826705 307.8 
L 305.808239 295.205673 
L 307.789773 304.623053 
L 309.771307 304.169203 
L 311.752841 302.694192 
L 313.734375 307.8 
L 315.715909 299.29032 
L 317.697443 304.50959 
L 319.678977 298.496083 
L 321.660511 301.446105 
L 323.642045 307.8 
L 325.62358 295.886448 
L 327.605114 301.559568 
L 329.586648 300.198019 
L 331.568182 301.105718 
L 333.549716 303.034579 
L 335.53125 301.786493 
L 337.512784 297.474921 
L 339.494318 301.899955 
L 341.475852 298.269158 
L 343.457386 303.374966 
L 345.43892 297.021072 
L 347.420455 299.063395 
L 349.401989 307.8 
L 353.365057 307.8 
L 355.346591 284.313282 
L 357.328125 307.8 
L 359.309659 303.374966 
L 361.291193 302.013417 
L 363.272727 300.424944 
L 365.254261 286.128681 
L 367.235795 304.736515 
L 369.21733 307.8 
L 371.198864 303.488429 
L 373.180398 304.736515 
L 375.161932 305.303827 
L 377.143466 304.055741 
L 379.125 304.396128 
L 381.106534 306.211526 
L 383.088068 307.573075 
L 385.069602 299.176857 
L 387.051136 307.573075 
L 389.03267 307.8 
L 404.884943 307.8 
L 406.866477 151.448807 
L 408.848011 292.369113 
L 410.829545 302.013417 
L 412.81108 299.176857 
L 414.792614 296.907609 
L 416.774148 300.651869 
L 418.755682 296.226835 
L 420.737216 283.065196 
L 422.71875 300.084557 
L 424.700284 297.928771 
L 426.681818 288.284466 
L 428.663352 307.8 
L 430.644886 307.8 
L 432.62642 292.142188 
L 434.607955 292.7095 
L 436.589489 299.517244 
L 438.571023 307.8 
L 440.552557 292.7095 
L 442.534091 301.446105 
L 444.515625 300.538406 
L 446.497159 307.8 
L 448.478693 294.865286 
L 450.460227 294.865286 
L 452.441761 307.573075 
L 454.423295 295.432598 
L 456.40483 307.8 
L 458.386364 300.538406 
L 460.367898 299.403782 
L 462.349432 301.899955 
L 464.330966 298.949932 
L 466.3125 296.567222 
L 468.294034 300.765331 
L 470.275568 298.38262 
L 472.257102 301.219181 
L 474.238636 307.686538 
L 476.22017 307.005763 
L 478.201705 298.609545 
L 480.183239 298.496083 
L 482.164773 302.12688 
L 484.146307 301.219181 
L 486.127841 299.29032 
L 488.109375 293.049887 
L 490.090909 303.148041 
L 492.072443 300.651869 
L 494.053977 299.744169 
L 496.035511 295.092211 
L 498.017045 300.992256 
L 499.99858 297.361459 
L 501.980114 299.630707 
L 503.961648 294.638361 
L 505.943182 299.176857 
L 507.924716 298.83647 
L 509.90625 299.29032 
L 511.887784 300.538406 
L 513.869318 299.517244 
L 515.850852 300.651869 
L 517.832386 298.496083 
L 519.81392 298.042233 
L 521.795455 298.269158 
L 523.776989 297.021072 
L 525.758523 299.063395 
L 527.740057 298.723008 
L 529.721591 297.134534 
L 531.703125 297.701846 
L 533.684659 298.949932 
L 535.666193 296.226835 
L 537.647727 295.205673 
L 539.629261 299.857632 
L 541.610795 298.723008 
L 543.59233 294.978748 
L 545.573864 298.496083 
L 547.555398 298.609545 
L 549.536932 296.907609 
L 551.518466 293.844124 
L 553.5 297.021072 
L 555.481534 297.247996 
L 557.463068 298.496083 
L 559.444602 301.899955 
L 561.426136 292.482575 
L 563.40767 295.772985 
L 565.389205 301.105718 
L 567.370739 302.921117 
L 569.352273 299.630707 
L 571.333807 296.907609 
L 573.315341 300.538406 
L 575.296875 302.353805 
L 577.278409 307.459613 
L 579.259943 305.644214 
L 583.223011 299.403782 
L 585.204545 298.83647 
L 587.18608 301.219181 
L 589.167614 299.29032 
L 591.149148 299.857632 
L 593.130682 296.340297 
L 595.112216 297.474921 
L 597.09375 307.8 
L 624.835227 307.8 
L 626.816761 184.693291 
L 628.798295 301.786493 
L 630.77983 303.715353 
L 632.761364 303.148041 
L 634.742898 298.042233 
L 636.724432 303.488429 
L 638.705966 296.226835 
L 640.6875 307.8 
L 642.669034 302.921117 
L 644.650568 307.8 
L 646.632102 292.028726 
L 648.613636 307.8 
L 650.59517 289.078703 
L 652.576705 297.361459 
L 654.558239 303.601891 
L 656.539773 294.751824 
L 658.521307 302.013417 
L 660.502841 307.8 
L 662.484375 307.8 
L 664.465909 55.8 
L 666.447443 304.169203 
L 668.428977 303.715353 
L 670.410511 300.424944 
L 672.392045 305.871139 
L 674.37358 301.446105 
L 676.355114 304.169203 
L 678.336648 302.353805 
L 680.318182 307.119226 
L 682.299716 303.828816 
L 684.28125 301.67303 
L 686.262784 303.034579 
L 688.244318 303.828816 
L 690.225852 302.807654 
L 692.207386 298.83647 
L 694.18892 302.580729 
L 696.170455 301.332643 
L 698.151989 302.694192 
L 700.133523 301.559568 
L 702.115057 307.459613 
L 704.096591 300.084557 
L 706.078125 304.055741 
L 708.059659 302.694192 
L 710.041193 304.169203 
L 712.022727 300.651869 
L 714.004261 297.588384 
L 715.985795 307.459613 
L 717.96733 295.432598 
L 719.948864 307.8 
L 721.930398 303.034579 
L 723.911932 300.878793 
L 725.893466 302.353805 
L 727.875 303.261504 
L 729.856534 298.155696 
L 731.838068 301.67303 
L 733.819602 302.467267 
L 735.801136 298.949932 
L 737.78267 300.198019 
L 739.764205 302.013417 
L 741.745739 301.105718 
L 743.727273 298.38262 
L 745.708807 300.424944 
L 747.690341 302.921117 
L 749.671875 302.353805 
L 751.653409 303.715353 
L 753.634943 302.694192 
L 755.616477 298.042233 
L 757.598011 307.119226 
L 759.579545 304.169203 
L 763.542614 301.105718 
L 765.524148 302.353805 
L 767.505682 301.332643 
L 769.487216 299.744169 
L 771.46875 300.198019 
L 773.450284 303.601891 
L 775.431818 301.899955 
L 777.413352 302.580729 
L 779.394886 304.96344 
L 781.37642 301.559568 
L 783.357955 303.601891 
L 785.339489 307.34615 
L 787.321023 304.96344 
L 789.302557 304.169203 
L 791.284091 286.128681 
L 793.265625 301.559568 
L 795.247159 300.651869 
L 797.228693 301.105718 
L 799.210227 300.878793 
L 801.191761 301.559568 
L 803.173295 303.942278 
L 805.15483 302.12688 
L 807.136364 302.353805 
L 809.117898 302.694192 
L 811.099432 299.857632 
L 813.080966 303.148041 
L 817.044034 300.992256 
L 819.025568 302.240342 
L 821.007102 296.567222 
L 822.988636 307.8 
L 824.97017 301.219181 
L 826.951705 302.013417 
L 828.933239 300.992256 
L 830.914773 302.807654 
L 832.896307 302.013417 
L 834.877841 300.992256 
L 836.859375 298.496083 
L 840.822443 299.744169 
L 842.803977 300.198019 
L 844.785511 300.084557 
L 846.767045 300.538406 
L 848.74858 302.807654 
L 850.730114 301.67303 
L 852.711648 303.034579 
L 854.693182 302.353805 
L 856.674716 302.580729 
L 858.65625 302.694192 
L 860.637784 303.148041 
L 862.619318 301.559568 
L 864.600852 303.148041 
L 866.582386 301.219181 
L 868.56392 302.580729 
L 870.545455 302.12688 
L 872.526989 302.12688 
L 874.508523 303.261504 
L 876.490057 302.240342 
L 878.471591 303.148041 
L 880.453125 303.148041 
L 882.434659 303.715353 
L 884.416193 304.50959 
L 886.397727 303.601891 
L 888.379261 301.105718 
L 890.360795 302.694192 
L 892.34233 307.8 
L 894.323864 296.794147 
L 896.305398 303.715353 
L 898.286932 300.651869 
L 900.268466 301.67303 
L 902.25 300.424944 
L 904.231534 301.786493 
L 906.213068 301.559568 
L 908.194602 300.538406 
L 910.176136 298.723008 
L 912.15767 299.517244 
L 914.139205 299.403782 
L 916.120739 299.403782 
L 918.102273 298.38262 
L 920.083807 300.198019 
L 922.065341 300.198019 
L 924.046875 299.29032 
L 926.028409 299.517244 
L 928.009943 300.538406 
L 931.973011 298.38262 
L 933.954545 297.815308 
L 933.954545 297.815308 
" clip-path="url(#p04f839b145)" style="fill: none; stroke: #008080; stroke-width: 1.5; stroke-linecap: round"/>
   </g>
   <g id="patch_3">
    <path d="M 135 320.4 
L 135 43.2 
" style="fill: none; stroke: #262626; stroke-width: 1.25; stroke-linejoin: miter; stroke-linecap: square"/>
   </g>
   <g id="patch_4">
    <path d="M 972 320.4 
L 972 43.2 
" style="fill: none; stroke: #262626; stroke-width: 1.25; stroke-linejoin: miter; stroke-linecap: square"/>
   </g>
   <g id="patch_5">
    <path d="M 135 320.4 
L 972 320.4 
" style="fill: none; stroke: #262626; stroke-width: 1.25; stroke-linejoin: miter; stroke-linecap: square"/>
   </g>
   <g id="patch_6">
    <path d="M 135 43.2 
L 972 43.2 
" style="fill: none; stroke: #262626; stroke-width: 1.25; stroke-linejoin: miter; stroke-linecap: square"/>
   </g>
   <g id="text_15">
    <!-- Bacterial Meningitis Weekly Cases -->
    <g style="fill: #262626" transform="translate(461.575312 37.2) scale(0.12 -0.12)">
     <defs>
      <path id="ArialMT-42" d="M 469 0 
L 469 4581 
L 2188 4581 
Q 2713 4581 3030 4442 
Q 3347 4303 3526 4014 
Q 3706 3725 3706 3409 
Q 3706 3116 3547 2856 
Q 3388 2597 3066 2438 
Q 3481 2316 3704 2022 
Q 3928 1728 3928 1328 
Q 3928 1006 3792 729 
Q 3656 453 3456 303 
Q 3256 153 2954 76 
Q 2653 0 2216 0 
L 469 0 
z
M 1075 2656 
L 2066 2656 
Q 2469 2656 2644 2709 
Q 2875 2778 2992 2937 
Q 3109 3097 3109 3338 
Q 3109 3566 3000 3739 
Q 2891 3913 2687 3977 
Q 2484 4041 1991 4041 
L 1075 4041 
L 1075 2656 
z
M 1075 541 
L 2216 541 
Q 2509 541 2628 563 
Q 2838 600 2978 687 
Q 3119 775 3209 942 
Q 3300 1109 3300 1328 
Q 3300 1584 3169 1773 
Q 3038 1963 2805 2039 
Q 2572 2116 2134 2116 
L 1075 2116 
L 1075 541 
z
" transform="scale(0.015625)"/>
      <path id="ArialMT-63" d="M 2588 1216 
L 3141 1144 
Q 3050 572 2676 248 
Q 2303 -75 1759 -75 
Q 1078 -75 664 370 
Q 250 816 250 1647 
Q 250 2184 428 2587 
Q 606 2991 970 3192 
Q 1334 3394 1763 3394 
Q 2303 3394 2647 3120 
Q 2991 2847 3088 2344 
L 2541 2259 
Q 2463 2594 2264 2762 
Q 2066 2931 1784 2931 
Q 1359 2931 1093 2626 
Q 828 2322 828 1663 
Q 828 994 1084 691 
Q 1341 388 1753 388 
Q 2084 388 2306 591 
Q 2528 794 2588 1216 
z
" transform="scale(0.015625)"/>
      <path id="ArialMT-74" d="M 1650 503 
L 1731 6 
Q 1494 -44 1306 -44 
Q 1000 -44 831 53 
Q 663 150 594 308 
Q 525 466 525 972 
L 525 2881 
L 113 2881 
L 113 3319 
L 525 3319 
L 525 4141 
L 1084 4478 
L 1084 3319 
L 1650 3319 
L 1650 2881 
L 1084 2881 
L 1084 941 
Q 1084 700 1114 631 
Q 1144 563 1211 522 
Q 1278 481 1403 481 
Q 1497 481 1650 503 
z
" transform="scale(0.015625)"/>
      <path id="ArialMT-69" d="M 425 3934 
L 425 4581 
L 988 4581 
L 988 3934 
L 425 3934 
z
M 425 0 
L 425 3319 
L 988 3319 
L 988 0 
L 425 0 
z
" transform="scale(0.015625)"/>
      <path id="ArialMT-6c" d="M 409 0 
L 409 4581 
L 972 4581 
L 972 0 
L 409 0 
z
" transform="scale(0.015625)"/>
      <path id="ArialMT-4d" d="M 475 0 
L 475 4581 
L 1388 4581 
L 2472 1338 
Q 2622 884 2691 659 
Q 2769 909 2934 1394 
L 4031 4581 
L 4847 4581 
L 4847 0 
L 4263 0 
L 4263 3834 
L 2931 0 
L 2384 0 
L 1059 3900 
L 1059 0 
L 475 0 
z
" transform="scale(0.015625)"/>
      <path id="ArialMT-6e" d="M 422 0 
L 422 3319 
L 928 3319 
L 928 2847 
Q 1294 3394 1984 3394 
Q 2284 3394 2536 3286 
Q 2788 3178 2913 3003 
Q 3038 2828 3088 2588 
Q 3119 2431 3119 2041 
L 3119 0 
L 2556 0 
L 2556 2019 
Q 2556 2363 2490 2533 
Q 2425 2703 2258 2804 
Q 2091 2906 1866 2906 
Q 1506 2906 1245 2678 
Q 984 2450 984 1813 
L 984 0 
L 422 0 
z
" transform="scale(0.015625)"/>
      <path id="ArialMT-67" d="M 319 -275 
L 866 -356 
Q 900 -609 1056 -725 
Q 1266 -881 1628 -881 
Q 2019 -881 2231 -725 
Q 2444 -569 2519 -288 
Q 2563 -116 2559 434 
Q 2191 0 1641 0 
Q 956 0 581 494 
Q 206 988 206 1678 
Q 206 2153 378 2554 
Q 550 2956 876 3175 
Q 1203 3394 1644 3394 
Q 2231 3394 2613 2919 
L 2613 3319 
L 3131 3319 
L 3131 450 
Q 3131 -325 2973 -648 
Q 2816 -972 2473 -1159 
Q 2131 -1347 1631 -1347 
Q 1038 -1347 672 -1080 
Q 306 -813 319 -275 
z
M 784 1719 
Q 784 1066 1043 766 
Q 1303 466 1694 466 
Q 2081 466 2343 764 
Q 2606 1063 2606 1700 
Q 2606 2309 2336 2618 
Q 2066 2928 1684 2928 
Q 1309 2928 1046 2623 
Q 784 2319 784 1719 
z
" transform="scale(0.015625)"/>
      <path id="ArialMT-57" d="M 1294 0 
L 78 4581 
L 700 4581 
L 1397 1578 
Q 1509 1106 1591 641 
Q 1766 1375 1797 1488 
L 2669 4581 
L 3400 4581 
L 4056 2263 
Q 4303 1400 4413 641 
Q 4500 1075 4641 1638 
L 5359 4581 
L 5969 4581 
L 4713 0 
L 4128 0 
L 3163 3491 
Q 3041 3928 3019 4028 
Q 2947 3713 2884 3491 
L 1913 0 
L 1294 0 
z
" transform="scale(0.015625)"/>
      <path id="ArialMT-6b" d="M 425 0 
L 425 4581 
L 988 4581 
L 988 1969 
L 2319 3319 
L 3047 3319 
L 1778 2088 
L 3175 0 
L 2481 0 
L 1384 1697 
L 988 1316 
L 988 0 
L 425 0 
z
" transform="scale(0.015625)"/>
      <path id="ArialMT-79" d="M 397 -1278 
L 334 -750 
Q 519 -800 656 -800 
Q 844 -800 956 -737 
Q 1069 -675 1141 -563 
Q 1194 -478 1313 -144 
Q 1328 -97 1363 -6 
L 103 3319 
L 709 3319 
L 1400 1397 
Q 1534 1031 1641 628 
Q 1738 1016 1872 1384 
L 2581 3319 
L 3144 3319 
L 1881 -56 
Q 1678 -603 1566 -809 
Q 1416 -1088 1222 -1217 
Q 1028 -1347 759 -1347 
Q 597 -1347 397 -1278 
z
" transform="scale(0.015625)"/>
     </defs>
     <use xlink:href="#ArialMT-42"/>
     <use xlink:href="#ArialMT-61" x="66.699219"/>
     <use xlink:href="#ArialMT-63" x="122.314453"/>
     <use xlink:href="#ArialMT-74" x="172.314453"/>
     <use xlink:href="#ArialMT-65" x="200.097656"/>
     <use xlink:href="#ArialMT-72" x="255.712891"/>
     <use xlink:href="#ArialMT-69" x="289.013672"/>
     <use xlink:href="#ArialMT-61" x="311.230469"/>
     <use xlink:href="#ArialMT-6c" x="366.845703"/>
     <use xlink:href="#ArialMT-20" x="389.0625"/>
     <use xlink:href="#ArialMT-4d" x="416.845703"/>
     <use xlink:href="#ArialMT-65" x="500.146484"/>
     <use xlink:href="#ArialMT-6e" x="555.761719"/>
     <use xlink:href="#ArialMT-69" x="611.376953"/>
     <use xlink:href="#ArialMT-6e" x="633.59375"/>
     <use xlink:href="#ArialMT-67" x="689.208984"/>
     <use xlink:href="#ArialMT-69" x="744.824219"/>
     <use xlink:href="#ArialMT-74" x="767.041016"/>
     <use xlink:href="#ArialMT-69" x="794.824219"/>
     <use xlink:href="#ArialMT-73" x="817.041016"/>
     <use xlink:href="#ArialMT-20" x="867.041016"/>
     <use xlink:href="#ArialMT-57" x="894.824219"/>
     <use xlink:href="#ArialMT-65" x="987.458984"/>
     <use xlink:href="#ArialMT-65" x="1043.074219"/>
     <use xlink:href="#ArialMT-6b" x="1098.689453"/>
     <use xlink:href="#ArialMT-6c" x="1148.689453"/>
     <use xlink:href="#ArialMT-79" x="1170.90625"/>
     <use xlink:href="#ArialMT-20" x="1220.90625"/>
     <use xlink:href="#ArialMT-43" x="1248.689453"/>
     <use xlink:href="#ArialMT-61" x="1320.90625"/>
     <use xlink:href="#ArialMT-73" x="1376.521484"/>
     <use xlink:href="#ArialMT-65" x="1426.521484"/>
     <use xlink:href="#ArialMT-73" x="1482.136719"/>
    </g>
   </g>
   <g id="legend_1">
    <g id="patch_7">
     <path d="M 959.9 57.5 
L 964.3 57.5 
Q 966.5 57.5 966.5 55.3 
L 966.5 50.9 
Q 966.5 48.7 964.3 48.7 
L 959.9 48.7 
Q 957.7 48.7 957.7 50.9 
L 957.7 55.3 
Q 957.7 57.5 959.9 57.5 
z
" style="fill: #ffffff; opacity: 0.8; stroke: #cccccc; stroke-linejoin: miter"/>
    </g>
   </g>
  </g>
 </g>
 <defs>
  <clipPath id="p04f839b145">
   <rect x="135" y="43.2" width="837" height="277.2"/>
  </clipPath>
 </defs>
</svg>
