<?xml version="1.0" encoding="utf-8" standalone="no"?>
<!DOCTYPE svg PUBLIC "-//W3C//DTD SVG 1.1//EN"
  "http://www.w3.org/Graphics/SVG/1.1/DTD/svg11.dtd">
<svg xmlns:xlink="http://www.w3.org/1999/xlink" width="864pt" height="576pt" viewBox="0 0 864 576" xmlns="http://www.w3.org/2000/svg" version="1.1">
 <metadata>
  <rdf:RDF xmlns:dc="http://purl.org/dc/elements/1.1/" xmlns:cc="http://creativecommons.org/ns#" xmlns:rdf="http://www.w3.org/1999/02/22-rdf-syntax-ns#">
   <cc:Work>
    <dc:type rdf:resource="http://purl.org/dc/dcmitype/StillImage"/>
    <dc:date>2023-07-30T23:37:34.570701</dc:date>
    <dc:format>image/svg+xml</dc:format>
    <dc:creator>
     <cc:Agent>
      <dc:title>Matplotlib v3.7.1, https://matplotlib.org/</dc:title>
     </cc:Agent>
    </dc:creator>
   </cc:Work>
  </rdf:RDF>
 </metadata>
 <defs>
  <style type="text/css">*{stroke-linejoin: round; stroke-linecap: butt}</style>
 </defs>
 <g id="figure_1">
  <g id="patch_1">
   <path d="M 0 576 
L 864 576 
L 864 0 
L 0 0 
z
" style="fill: #ffffff"/>
  </g>
  <g id="axes_1">
   <g id="patch_2">
    <path d="M 139.8 136.0881 
L 827.810966 136.0881 
L 827.810966 46.266667 
L 139.8 46.266667 
z
" style="fill: #ffffff"/>
   </g>
   <g id="matplotlib.axis_1">
    <g id="xtick_1">
     <g id="line2d_1">
      <defs>
       <path id="m2c92c2b148" d="M 0 0 
L 0 6 
" style="stroke: #262626; stroke-width: 1.25"/>
      </defs>
      <g>
       <use xlink:href="#m2c92c2b148" x="243.425568" y="136.0881" style="fill: #262626; stroke: #262626; stroke-width: 1.25"/>
      </g>
     </g>
    </g>
    <g id="xtick_2">
     <g id="line2d_2">
      <g>
       <use xlink:href="#m2c92c2b148" x="358.041726" y="136.0881" style="fill: #262626; stroke: #262626; stroke-width: 1.25"/>
      </g>
     </g>
    </g>
    <g id="xtick_3">
     <g id="line2d_3">
      <g>
       <use xlink:href="#m2c92c2b148" x="472.657884" y="136.0881" style="fill: #262626; stroke: #262626; stroke-width: 1.25"/>
      </g>
     </g>
    </g>
    <g id="xtick_4">
     <g id="line2d_4">
      <g>
       <use xlink:href="#m2c92c2b148" x="587.274042" y="136.0881" style="fill: #262626; stroke: #262626; stroke-width: 1.25"/>
      </g>
     </g>
    </g>
    <g id="xtick_5">
     <g id="line2d_5">
      <g>
       <use xlink:href="#m2c92c2b148" x="702.204217" y="136.0881" style="fill: #262626; stroke: #262626; stroke-width: 1.25"/>
      </g>
     </g>
    </g>
    <g id="xtick_6">
     <g id="line2d_6">
      <g>
       <use xlink:href="#m2c92c2b148" x="816.820376" y="136.0881" style="fill: #262626; stroke: #262626; stroke-width: 1.25"/>
      </g>
     </g>
    </g>
   </g>
   <g id="matplotlib.axis_2">
    <g id="ytick_1">
     <g id="line2d_7">
      <defs>
       <path id="mde7b3efe8e" d="M 0 0 
L -6 0 
" style="stroke: #262626; stroke-width: 1.25"/>
      </defs>
      <g>
       <use xlink:href="#mde7b3efe8e" x="139.8" y="132.00649" style="fill: #262626; stroke: #262626; stroke-width: 1.25"/>
      </g>
     </g>
     <g id="text_1">
      <!-- 0 -->
      <g style="fill: #262626" transform="translate(124.182969 135.943287) scale(0.11 -0.11)">
       <defs>
        <path id="ArialMT-30" d="M 266 2259 
Q 266 3072 433 3567 
Q 600 4063 929 4331 
Q 1259 4600 1759 4600 
Q 2128 4600 2406 4451 
Q 2684 4303 2865 4023 
Q 3047 3744 3150 3342 
Q 3253 2941 3253 2259 
Q 3253 1453 3087 958 
Q 2922 463 2592 192 
Q 2263 -78 1759 -78 
Q 1097 -78 719 397 
Q 266 969 266 2259 
z
M 844 2259 
Q 844 1131 1108 757 
Q 1372 384 1759 384 
Q 2147 384 2411 759 
Q 2675 1134 2675 2259 
Q 2675 3391 2411 3762 
Q 2147 4134 1753 4134 
Q 1366 4134 1134 3806 
Q 844 3388 844 2259 
z
" transform="scale(0.015625)"/>
       </defs>
       <use xlink:href="#ArialMT-30"/>
      </g>
     </g>
    </g>
    <g id="ytick_2">
     <g id="line2d_8">
      <g>
       <use xlink:href="#mde7b3efe8e" x="139.8" y="102.436251" style="fill: #262626; stroke: #262626; stroke-width: 1.25"/>
      </g>
     </g>
     <g id="text_2">
      <!-- 50000 -->
      <g style="fill: #262626" transform="translate(99.714844 106.373048) scale(0.11 -0.11)">
       <defs>
        <path id="ArialMT-35" d="M 266 1200 
L 856 1250 
Q 922 819 1161 601 
Q 1400 384 1738 384 
Q 2144 384 2425 690 
Q 2706 997 2706 1503 
Q 2706 1984 2436 2262 
Q 2166 2541 1728 2541 
Q 1456 2541 1237 2417 
Q 1019 2294 894 2097 
L 366 2166 
L 809 4519 
L 3088 4519 
L 3088 3981 
L 1259 3981 
L 1013 2750 
Q 1425 3038 1878 3038 
Q 2478 3038 2890 2622 
Q 3303 2206 3303 1553 
Q 3303 931 2941 478 
Q 2500 -78 1738 -78 
Q 1113 -78 717 272 
Q 322 622 266 1200 
z
" transform="scale(0.015625)"/>
       </defs>
       <use xlink:href="#ArialMT-35"/>
       <use xlink:href="#ArialMT-30" x="55.615234"/>
       <use xlink:href="#ArialMT-30" x="111.230469"/>
       <use xlink:href="#ArialMT-30" x="166.845703"/>
       <use xlink:href="#ArialMT-30" x="222.460938"/>
      </g>
     </g>
    </g>
    <g id="ytick_3">
     <g id="line2d_9">
      <g>
       <use xlink:href="#mde7b3efe8e" x="139.8" y="72.866013" style="fill: #262626; stroke: #262626; stroke-width: 1.25"/>
      </g>
     </g>
     <g id="text_3">
      <!-- 100000 -->
      <g style="fill: #262626" transform="translate(93.597812 76.80281) scale(0.11 -0.11)">
       <defs>
        <path id="ArialMT-31" d="M 2384 0 
L 1822 0 
L 1822 3584 
Q 1619 3391 1289 3197 
Q 959 3003 697 2906 
L 697 3450 
Q 1169 3672 1522 3987 
Q 1875 4303 2022 4600 
L 2384 4600 
L 2384 0 
z
" transform="scale(0.015625)"/>
       </defs>
       <use xlink:href="#ArialMT-31"/>
       <use xlink:href="#ArialMT-30" x="55.615234"/>
       <use xlink:href="#ArialMT-30" x="111.230469"/>
       <use xlink:href="#ArialMT-30" x="166.845703"/>
       <use xlink:href="#ArialMT-30" x="222.460938"/>
       <use xlink:href="#ArialMT-30" x="278.076172"/>
      </g>
     </g>
    </g>
   </g>
   <g id="line2d_10">
    <path d="M 139.8 132.000576 
L 240.913433 131.936704 
L 249.705905 131.140673 
L 251.904023 130.274265 
L 254.102141 129.62372 
L 260.696496 128.812313 
L 262.894614 128.326178 
L 265.092732 128.116821 
L 267.29085 127.036324 
L 271.687086 125.595662 
L 273.885204 125.404638 
L 276.083322 123.748114 
L 278.28144 123.420475 
L 280.479559 123.366066 
L 282.677677 123.117085 
L 284.875795 122.98047 
L 287.073913 121.960889 
L 289.272031 119.695217 
L 291.470149 119.521344 
L 293.668267 118.570956 
L 295.866385 118.385847 
L 298.064503 115.731622 
L 300.262622 115.168013 
L 302.46074 114.920215 
L 304.658858 113.694824 
L 306.856976 113.462993 
L 311.253212 110.840113 
L 313.45133 102.30496 
L 315.649448 100.415421 
L 317.847566 97.870015 
L 320.045684 97.556571 
L 324.441921 94.325135 
L 326.640039 91.378756 
L 328.838157 91.116173 
L 331.036275 88.257322 
L 333.234393 88.060976 
L 335.432511 85.949069 
L 337.630629 76.129384 
L 339.828747 75.396634 
L 342.026865 75.119265 
L 344.224984 68.318702 
L 346.423102 66.923578 
L 348.62122 65.811737 
L 350.819338 64.956565 
L 353.017456 64.738929 
L 355.215574 58.896441 
L 357.413692 57.817127 
L 359.61181 57.097387 
L 364.008047 130.666958 
L 366.206165 129.123983 
L 368.404283 127.773806 
L 370.602401 126.82815 
L 372.800519 126.598685 
L 374.998637 124.977644 
L 377.196755 120.417322 
L 379.394873 119.529623 
L 381.592991 119.25462 
L 403.574172 104.478372 
L 405.77229 103.911215 
L 407.970409 102.571683 
L 410.168527 101.797534 
L 412.366645 100.289452 
L 414.564763 99.556702 
L 416.762881 97.60684 
L 421.159117 95.480149 
L 425.555353 92.963721 
L 427.753471 90.741222 
L 429.95159 90.741222 
L 432.149708 87.95748 
L 434.347826 85.871004 
L 436.545944 84.854379 
L 438.744062 83.16237 
L 440.94218 82.20252 
L 443.140298 78.673016 
L 451.932771 71.880733 
L 454.130889 69.463661 
L 458.527125 66.303194 
L 462.923361 62.658958 
L 465.121479 61.528192 
L 467.319597 59.661127 
L 469.517715 58.402618 
L 471.715834 56.524316 
L 473.913952 54.401173 
L 476.11207 52.855241 
L 482.706424 131.914822 
L 484.904542 131.348848 
L 487.10266 130.028241 
L 489.300778 128.317307 
L 491.498896 128.201983 
L 493.697015 126.903258 
L 495.895133 125.464962 
L 498.093251 121.333408 
L 500.291369 123.046116 
L 502.489487 117.483954 
L 506.885723 114.160851 
L 509.083841 112.756856 
L 511.281959 110.099083 
L 517.876314 106.936842 
L 520.074432 104.338801 
L 522.27255 103.497232 
L 524.470668 102.366466 
L 526.668786 101.419035 
L 531.065022 98.981856 
L 533.26314 98.100072 
L 535.461259 96.39446 
L 537.659377 95.588376 
L 539.857495 93.962604 
L 542.055613 92.723019 
L 544.253731 91.737148 
L 546.451849 90.282883 
L 548.649967 88.403399 
L 550.848085 86.24832 
L 553.046203 86.24832 
L 555.244321 83.164736 
L 557.44244 81.749504 
L 559.640558 79.744642 
L 561.838676 78.212312 
L 566.234912 74.488236 
L 568.43303 72.75956 
L 570.631148 70.353725 
L 572.829266 68.143646 
L 575.027384 65.744908 
L 577.225502 63.85951 
L 579.423621 61.555397 
L 581.621739 60.01183 
L 583.819857 57.268895 
L 588.216093 54.175848 
L 590.414211 52.881854 
L 592.612329 51.775336 
L 594.810447 50.349459 
L 599.206684 131.989931 
L 601.404802 131.460032 
L 607.999156 128.201983 
L 610.197274 126.903258 
L 612.395392 125.464962 
L 616.791628 123.046116 
L 618.989746 121.475937 
L 654.159636 111.780447 
L 658.555872 111.041782 
L 660.75399 110.385914 
L 665.150227 109.42015 
L 667.348345 109.148696 
L 669.546463 108.755411 
L 671.744581 108.120243 
L 676.140817 107.283405 
L 680.537053 105.958067 
L 682.735171 105.471932 
L 687.131408 104.249498 
L 695.92388 102.076086 
L 698.121998 101.744308 
L 700.320116 101.15172 
L 702.518234 100.101977 
L 709.112589 98.809757 
L 713.508825 98.424161 
L 717.905061 131.903586 
L 720.103179 131.538689 
L 726.697533 130.025875 
L 731.09377 128.073648 
L 733.291888 127.303048 
L 744.282478 124.304034 
L 746.480596 123.5908 
L 748.678715 122.519175 
L 750.876833 121.844382 
L 757.471187 119.022198 
L 759.669305 117.083573 
L 761.867423 116.121949 
L 764.065541 115.421135 
L 768.461777 113.496703 
L 770.659896 112.068461 
L 777.25425 108.945844 
L 779.452368 107.447224 
L 781.650486 106.398072 
L 783.848604 104.810742 
L 786.046722 103.852666 
L 788.24484 102.665125 
L 790.442958 101.625435 
L 792.641077 100.136278 
L 794.839195 98.482119 
L 797.037313 97.502753 
L 799.235431 96.333546 
L 801.433549 94.830195 
L 803.631667 93.857925 
L 805.829785 92.693449 
L 808.027903 91.761395 
L 810.226021 90.960042 
L 812.42414 90.368046 
L 814.622258 89.598037 
L 819.018494 88.411679 
L 821.216612 87.864038 
L 823.41473 87.109997 
L 825.612848 86.646335 
L 827.810966 85.907079 
L 827.810966 85.907079 
" clip-path="url(#peaaf4add34)" style="fill: none; stroke: #4c72b0; stroke-width: 1.5; stroke-linecap: round"/>
   </g>
   <g id="patch_3">
    <path d="M 139.8 136.0881 
L 139.8 46.266667 
" style="fill: none; stroke: #262626; stroke-width: 1.25; stroke-linejoin: miter; stroke-linecap: square"/>
   </g>
   <g id="patch_4">
    <path d="M 827.810966 136.0881 
L 827.810966 46.266667 
" style="fill: none; stroke: #262626; stroke-width: 1.25; stroke-linejoin: miter; stroke-linecap: square"/>
   </g>
   <g id="patch_5">
    <path d="M 139.8 136.0881 
L 827.810966 136.0881 
" style="fill: none; stroke: #262626; stroke-width: 1.25; stroke-linejoin: miter; stroke-linecap: square"/>
   </g>
   <g id="patch_6">
    <path d="M 139.8 46.266667 
L 827.810966 46.266667 
" style="fill: none; stroke: #262626; stroke-width: 1.25; stroke-linejoin: miter; stroke-linecap: square"/>
   </g>
   <g id="text_4">
    <!-- Influenza-like illness -->
    <g style="fill: #262626" transform="translate(430.115796 40.266667) scale(0.12 -0.12)">
     <defs>
      <path id="ArialMT-49" d="M 597 0 
L 597 4581 
L 1203 4581 
L 1203 0 
L 597 0 
z
" transform="scale(0.015625)"/>
      <path id="ArialMT-6e" d="M 422 0 
L 422 3319 
L 928 3319 
L 928 2847 
Q 1294 3394 1984 3394 
Q 2284 3394 2536 3286 
Q 2788 3178 2913 3003 
Q 3038 2828 3088 2588 
Q 3119 2431 3119 2041 
L 3119 0 
L 2556 0 
L 2556 2019 
Q 2556 2363 2490 2533 
Q 2425 2703 2258 2804 
Q 2091 2906 1866 2906 
Q 1506 2906 1245 2678 
Q 984 2450 984 1813 
L 984 0 
L 422 0 
z
" transform="scale(0.015625)"/>
      <path id="ArialMT-66" d="M 556 0 
L 556 2881 
L 59 2881 
L 59 3319 
L 556 3319 
L 556 3672 
Q 556 4006 616 4169 
Q 697 4388 901 4523 
Q 1106 4659 1475 4659 
Q 1713 4659 2000 4603 
L 1916 4113 
Q 1741 4144 1584 4144 
Q 1328 4144 1222 4034 
Q 1116 3925 1116 3625 
L 1116 3319 
L 1763 3319 
L 1763 2881 
L 1116 2881 
L 1116 0 
L 556 0 
z
" transform="scale(0.015625)"/>
      <path id="ArialMT-6c" d="M 409 0 
L 409 4581 
L 972 4581 
L 972 0 
L 409 0 
z
" transform="scale(0.015625)"/>
      <path id="ArialMT-75" d="M 2597 0 
L 2597 488 
Q 2209 -75 1544 -75 
Q 1250 -75 995 37 
Q 741 150 617 320 
Q 494 491 444 738 
Q 409 903 409 1263 
L 409 3319 
L 972 3319 
L 972 1478 
Q 972 1038 1006 884 
Q 1059 663 1231 536 
Q 1403 409 1656 409 
Q 1909 409 2131 539 
Q 2353 669 2445 892 
Q 2538 1116 2538 1541 
L 2538 3319 
L 3100 3319 
L 3100 0 
L 2597 0 
z
" transform="scale(0.015625)"/>
      <path id="ArialMT-65" d="M 2694 1069 
L 3275 997 
Q 3138 488 2766 206 
Q 2394 -75 1816 -75 
Q 1088 -75 661 373 
Q 234 822 234 1631 
Q 234 2469 665 2931 
Q 1097 3394 1784 3394 
Q 2450 3394 2872 2941 
Q 3294 2488 3294 1666 
Q 3294 1616 3291 1516 
L 816 1516 
Q 847 969 1125 678 
Q 1403 388 1819 388 
Q 2128 388 2347 550 
Q 2566 713 2694 1069 
z
M 847 1978 
L 2700 1978 
Q 2663 2397 2488 2606 
Q 2219 2931 1791 2931 
Q 1403 2931 1139 2672 
Q 875 2413 847 1978 
z
" transform="scale(0.015625)"/>
      <path id="ArialMT-7a" d="M 125 0 
L 125 456 
L 2238 2881 
Q 1878 2863 1603 2863 
L 250 2863 
L 250 3319 
L 2963 3319 
L 2963 2947 
L 1166 841 
L 819 456 
Q 1197 484 1528 484 
L 3063 484 
L 3063 0 
L 125 0 
z
" transform="scale(0.015625)"/>
      <path id="ArialMT-61" d="M 2588 409 
Q 2275 144 1986 34 
Q 1697 -75 1366 -75 
Q 819 -75 525 192 
Q 231 459 231 875 
Q 231 1119 342 1320 
Q 453 1522 633 1644 
Q 813 1766 1038 1828 
Q 1203 1872 1538 1913 
Q 2219 1994 2541 2106 
Q 2544 2222 2544 2253 
Q 2544 2597 2384 2738 
Q 2169 2928 1744 2928 
Q 1347 2928 1158 2789 
Q 969 2650 878 2297 
L 328 2372 
Q 403 2725 575 2942 
Q 747 3159 1072 3276 
Q 1397 3394 1825 3394 
Q 2250 3394 2515 3294 
Q 2781 3194 2906 3042 
Q 3031 2891 3081 2659 
Q 3109 2516 3109 2141 
L 3109 1391 
Q 3109 606 3145 398 
Q 3181 191 3288 0 
L 2700 0 
Q 2613 175 2588 409 
z
M 2541 1666 
Q 2234 1541 1622 1453 
Q 1275 1403 1131 1340 
Q 988 1278 909 1158 
Q 831 1038 831 891 
Q 831 666 1001 516 
Q 1172 366 1500 366 
Q 1825 366 2078 508 
Q 2331 650 2450 897 
Q 2541 1088 2541 1459 
L 2541 1666 
z
" transform="scale(0.015625)"/>
      <path id="ArialMT-2d" d="M 203 1375 
L 203 1941 
L 1931 1941 
L 1931 1375 
L 203 1375 
z
" transform="scale(0.015625)"/>
      <path id="ArialMT-69" d="M 425 3934 
L 425 4581 
L 988 4581 
L 988 3934 
L 425 3934 
z
M 425 0 
L 425 3319 
L 988 3319 
L 988 0 
L 425 0 
z
" transform="scale(0.015625)"/>
      <path id="ArialMT-6b" d="M 425 0 
L 425 4581 
L 988 4581 
L 988 1969 
L 2319 3319 
L 3047 3319 
L 1778 2088 
L 3175 0 
L 2481 0 
L 1384 1697 
L 988 1316 
L 988 0 
L 425 0 
z
" transform="scale(0.015625)"/>
      <path id="ArialMT-20" transform="scale(0.015625)"/>
      <path id="ArialMT-73" d="M 197 991 
L 753 1078 
Q 800 744 1014 566 
Q 1228 388 1613 388 
Q 2000 388 2187 545 
Q 2375 703 2375 916 
Q 2375 1106 2209 1216 
Q 2094 1291 1634 1406 
Q 1016 1563 777 1677 
Q 538 1791 414 1992 
Q 291 2194 291 2438 
Q 291 2659 392 2848 
Q 494 3038 669 3163 
Q 800 3259 1026 3326 
Q 1253 3394 1513 3394 
Q 1903 3394 2198 3281 
Q 2494 3169 2634 2976 
Q 2775 2784 2828 2463 
L 2278 2388 
Q 2241 2644 2061 2787 
Q 1881 2931 1553 2931 
Q 1166 2931 1000 2803 
Q 834 2675 834 2503 
Q 834 2394 903 2306 
Q 972 2216 1119 2156 
Q 1203 2125 1616 2013 
Q 2213 1853 2448 1751 
Q 2684 1650 2818 1456 
Q 2953 1263 2953 975 
Q 2953 694 2789 445 
Q 2625 197 2315 61 
Q 2006 -75 1616 -75 
Q 969 -75 630 194 
Q 291 463 197 991 
z
" transform="scale(0.015625)"/>
     </defs>
     <use xlink:href="#ArialMT-49"/>
     <use xlink:href="#ArialMT-6e" x="27.783203"/>
     <use xlink:href="#ArialMT-66" x="83.398438"/>
     <use xlink:href="#ArialMT-6c" x="111.181641"/>
     <use xlink:href="#ArialMT-75" x="133.398438"/>
     <use xlink:href="#ArialMT-65" x="189.013672"/>
     <use xlink:href="#ArialMT-6e" x="244.628906"/>
     <use xlink:href="#ArialMT-7a" x="300.244141"/>
     <use xlink:href="#ArialMT-61" x="350.244141"/>
     <use xlink:href="#ArialMT-2d" x="405.859375"/>
     <use xlink:href="#ArialMT-6c" x="439.160156"/>
     <use xlink:href="#ArialMT-69" x="461.376953"/>
     <use xlink:href="#ArialMT-6b" x="483.59375"/>
     <use xlink:href="#ArialMT-65" x="533.59375"/>
     <use xlink:href="#ArialMT-20" x="589.208984"/>
     <use xlink:href="#ArialMT-69" x="616.992188"/>
     <use xlink:href="#ArialMT-6c" x="639.208984"/>
     <use xlink:href="#ArialMT-6c" x="661.425781"/>
     <use xlink:href="#ArialMT-6e" x="683.642578"/>
     <use xlink:href="#ArialMT-65" x="739.257812"/>
     <use xlink:href="#ArialMT-73" x="794.873047"/>
     <use xlink:href="#ArialMT-73" x="844.873047"/>
    </g>
   </g>
  </g>
  <g id="axes_2">
   <g id="patch_7">
    <path d="M 139.8 264.0254 
L 827.810966 264.0254 
L 827.810966 174.203967 
L 139.8 174.203967 
z
" style="fill: #ffffff"/>
   </g>
   <g id="matplotlib.axis_3">
    <g id="xtick_7">
     <g id="line2d_11">
      <g>
       <use xlink:href="#m2c92c2b148" x="243.425568" y="264.0254" style="fill: #262626; stroke: #262626; stroke-width: 1.25"/>
      </g>
     </g>
    </g>
    <g id="xtick_8">
     <g id="line2d_12">
      <g>
       <use xlink:href="#m2c92c2b148" x="358.041726" y="264.0254" style="fill: #262626; stroke: #262626; stroke-width: 1.25"/>
      </g>
     </g>
    </g>
    <g id="xtick_9">
     <g id="line2d_13">
      <g>
       <use xlink:href="#m2c92c2b148" x="472.657884" y="264.0254" style="fill: #262626; stroke: #262626; stroke-width: 1.25"/>
      </g>
     </g>
    </g>
    <g id="xtick_10">
     <g id="line2d_14">
      <g>
       <use xlink:href="#m2c92c2b148" x="587.274042" y="264.0254" style="fill: #262626; stroke: #262626; stroke-width: 1.25"/>
      </g>
     </g>
    </g>
    <g id="xtick_11">
     <g id="line2d_15">
      <g>
       <use xlink:href="#m2c92c2b148" x="702.204217" y="264.0254" style="fill: #262626; stroke: #262626; stroke-width: 1.25"/>
      </g>
     </g>
    </g>
    <g id="xtick_12">
     <g id="line2d_16">
      <g>
       <use xlink:href="#m2c92c2b148" x="816.820376" y="264.0254" style="fill: #262626; stroke: #262626; stroke-width: 1.25"/>
      </g>
     </g>
    </g>
   </g>
   <g id="matplotlib.axis_4">
    <g id="ytick_4">
     <g id="line2d_17">
      <g>
       <use xlink:href="#mde7b3efe8e" x="139.8" y="250.617094" style="fill: #262626; stroke: #262626; stroke-width: 1.25"/>
      </g>
     </g>
     <g id="text_5">
      <!-- 0 -->
      <g style="fill: #262626" transform="translate(124.182969 254.553891) scale(0.11 -0.11)">
       <use xlink:href="#ArialMT-30"/>
      </g>
     </g>
    </g>
    <g id="ytick_5">
     <g id="line2d_18">
      <g>
       <use xlink:href="#mde7b3efe8e" x="139.8" y="224.470963" style="fill: #262626; stroke: #262626; stroke-width: 1.25"/>
      </g>
     </g>
     <g id="text_6">
      <!-- 25000 -->
      <g style="fill: #262626" transform="translate(99.714844 228.40776) scale(0.11 -0.11)">
       <defs>
        <path id="ArialMT-32" d="M 3222 541 
L 3222 0 
L 194 0 
Q 188 203 259 391 
Q 375 700 629 1000 
Q 884 1300 1366 1694 
Q 2113 2306 2375 2664 
Q 2638 3022 2638 3341 
Q 2638 3675 2398 3904 
Q 2159 4134 1775 4134 
Q 1369 4134 1125 3890 
Q 881 3647 878 3216 
L 300 3275 
Q 359 3922 746 4261 
Q 1134 4600 1788 4600 
Q 2447 4600 2831 4234 
Q 3216 3869 3216 3328 
Q 3216 3053 3103 2787 
Q 2991 2522 2730 2228 
Q 2469 1934 1863 1422 
Q 1356 997 1212 845 
Q 1069 694 975 541 
L 3222 541 
z
" transform="scale(0.015625)"/>
       </defs>
       <use xlink:href="#ArialMT-32"/>
       <use xlink:href="#ArialMT-35" x="55.615234"/>
       <use xlink:href="#ArialMT-30" x="111.230469"/>
       <use xlink:href="#ArialMT-30" x="166.845703"/>
       <use xlink:href="#ArialMT-30" x="222.460938"/>
      </g>
     </g>
    </g>
    <g id="ytick_6">
     <g id="line2d_19">
      <g>
       <use xlink:href="#mde7b3efe8e" x="139.8" y="198.324833" style="fill: #262626; stroke: #262626; stroke-width: 1.25"/>
      </g>
     </g>
     <g id="text_7">
      <!-- 50000 -->
      <g style="fill: #262626" transform="translate(99.714844 202.26163) scale(0.11 -0.11)">
       <use xlink:href="#ArialMT-35"/>
       <use xlink:href="#ArialMT-30" x="55.615234"/>
       <use xlink:href="#ArialMT-30" x="111.230469"/>
       <use xlink:href="#ArialMT-30" x="166.845703"/>
       <use xlink:href="#ArialMT-30" x="222.460938"/>
      </g>
     </g>
    </g>
    <g id="text_8">
     <!-- Trend -->
     <g style="fill: #262626" transform="translate(93.329844 234.561871) rotate(-90) scale(0.12 -0.12)">
      <defs>
       <path id="ArialMT-54" d="M 1659 0 
L 1659 4041 
L 150 4041 
L 150 4581 
L 3781 4581 
L 3781 4041 
L 2266 4041 
L 2266 0 
L 1659 0 
z
" transform="scale(0.015625)"/>
       <path id="ArialMT-72" d="M 416 0 
L 416 3319 
L 922 3319 
L 922 2816 
Q 1116 3169 1280 3281 
Q 1444 3394 1641 3394 
Q 1925 3394 2219 3213 
L 2025 2691 
Q 1819 2813 1613 2813 
Q 1428 2813 1281 2702 
Q 1134 2591 1072 2394 
Q 978 2094 978 1738 
L 978 0 
L 416 0 
z
" transform="scale(0.015625)"/>
       <path id="ArialMT-64" d="M 2575 0 
L 2575 419 
Q 2259 -75 1647 -75 
Q 1250 -75 917 144 
Q 584 363 401 755 
Q 219 1147 219 1656 
Q 219 2153 384 2558 
Q 550 2963 881 3178 
Q 1213 3394 1622 3394 
Q 1922 3394 2156 3267 
Q 2391 3141 2538 2938 
L 2538 4581 
L 3097 4581 
L 3097 0 
L 2575 0 
z
M 797 1656 
Q 797 1019 1065 703 
Q 1334 388 1700 388 
Q 2069 388 2326 689 
Q 2584 991 2584 1609 
Q 2584 2291 2321 2609 
Q 2059 2928 1675 2928 
Q 1300 2928 1048 2622 
Q 797 2316 797 1656 
z
" transform="scale(0.015625)"/>
      </defs>
      <use xlink:href="#ArialMT-54"/>
      <use xlink:href="#ArialMT-72" x="57.333984"/>
      <use xlink:href="#ArialMT-65" x="90.634766"/>
      <use xlink:href="#ArialMT-6e" x="146.25"/>
      <use xlink:href="#ArialMT-64" x="201.865234"/>
     </g>
    </g>
   </g>
   <g id="line2d_20">
    <path d="M 139.8 259.942607 
L 150.790591 258.164498 
L 155.186827 257.797163 
L 170.573653 255.096247 
L 183.762362 252.578339 
L 196.951071 249.862366 
L 212.337897 246.476479 
L 240.913433 240.122406 
L 249.705905 239.633986 
L 256.300259 237.213118 
L 260.696496 235.382955 
L 265.092732 233.340819 
L 269.488968 231.078828 
L 273.885204 228.61813 
L 280.479559 224.644526 
L 304.658858 209.571389 
L 311.253212 205.837421 
L 317.847566 202.375289 
L 324.441921 199.183046 
L 331.036275 196.231606 
L 339.828747 192.574894 
L 357.413692 185.611064 
L 359.61181 184.76113 
L 364.008047 183.93241 
L 368.404283 182.380176 
L 372.800519 181.030186 
L 377.196755 179.934915 
L 381.592991 179.120156 
L 403.574172 178.819549 
L 407.970409 178.424825 
L 412.366645 178.286759 
L 416.762881 178.376385 
L 423.357235 178.658446 
L 429.95159 179.353638 
L 440.94218 180.876672 
L 449.734653 182.066672 
L 456.329007 182.77962 
L 462.923361 183.275252 
L 469.517715 183.554367 
L 476.11207 183.67266 
L 502.489487 183.709932 
L 509.083841 183.415195 
L 520.074432 182.620928 
L 535.461259 181.468855 
L 546.451849 180.886919 
L 555.244321 180.667792 
L 561.838676 180.720266 
L 568.43303 181.040881 
L 572.829266 181.444217 
L 577.225502 182.031318 
L 581.621739 182.824162 
L 586.017975 183.820381 
L 590.414211 184.996177 
L 594.810447 186.336909 
L 599.206684 187.070169 
L 603.60292 188.671342 
L 607.999156 190.458679 
L 614.59351 193.458855 
L 618.989746 195.625554 
L 654.159636 196.743584 
L 671.744581 205.811836 
L 680.537053 207.931001 
L 687.131408 210.848035 
L 689.329526 211.733131 
L 695.92388 212.567751 
L 700.320116 214.070751 
L 704.716352 215.331416 
L 709.112589 216.333795 
L 724.499415 217.725434 
L 726.697533 217.828424 
L 735.490006 216.385973 
L 750.876833 213.581503 
L 761.867423 211.360103 
L 772.858014 208.906519 
L 783.848604 206.231707 
L 797.037313 202.764283 
L 810.226021 199.056126 
L 825.612848 194.472422 
L 827.810966 193.797147 
L 827.810966 193.797147 
" clip-path="url(#pec1ca4025d)" style="fill: none; stroke: #4c72b0; stroke-width: 1.5; stroke-linecap: round"/>
   </g>
   <g id="patch_8">
    <path d="M 139.8 264.0254 
L 139.8 174.203967 
" style="fill: none; stroke: #262626; stroke-width: 1.25; stroke-linejoin: miter; stroke-linecap: square"/>
   </g>
   <g id="patch_9">
    <path d="M 827.810966 264.0254 
L 827.810966 174.203967 
" style="fill: none; stroke: #262626; stroke-width: 1.25; stroke-linejoin: miter; stroke-linecap: square"/>
   </g>
   <g id="patch_10">
    <path d="M 139.8 264.0254 
L 827.810966 264.0254 
" style="fill: none; stroke: #262626; stroke-width: 1.25; stroke-linejoin: miter; stroke-linecap: square"/>
   </g>
   <g id="patch_11">
    <path d="M 139.8 174.203967 
L 827.810966 174.203967 
" style="fill: none; stroke: #262626; stroke-width: 1.25; stroke-linejoin: miter; stroke-linecap: square"/>
   </g>
  </g>
  <g id="axes_3">
   <g id="patch_12">
    <path d="M 139.8 391.9627 
L 827.810966 391.9627 
L 827.810966 302.141267 
L 139.8 302.141267 
z
" style="fill: #ffffff"/>
   </g>
   <g id="matplotlib.axis_5">
    <g id="xtick_13">
     <g id="line2d_21">
      <g>
       <use xlink:href="#m2c92c2b148" x="243.425568" y="391.9627" style="fill: #262626; stroke: #262626; stroke-width: 1.25"/>
      </g>
     </g>
    </g>
    <g id="xtick_14">
     <g id="line2d_22">
      <g>
       <use xlink:href="#m2c92c2b148" x="358.041726" y="391.9627" style="fill: #262626; stroke: #262626; stroke-width: 1.25"/>
      </g>
     </g>
    </g>
    <g id="xtick_15">
     <g id="line2d_23">
      <g>
       <use xlink:href="#m2c92c2b148" x="472.657884" y="391.9627" style="fill: #262626; stroke: #262626; stroke-width: 1.25"/>
      </g>
     </g>
    </g>
    <g id="xtick_16">
     <g id="line2d_24">
      <g>
       <use xlink:href="#m2c92c2b148" x="587.274042" y="391.9627" style="fill: #262626; stroke: #262626; stroke-width: 1.25"/>
      </g>
     </g>
    </g>
    <g id="xtick_17">
     <g id="line2d_25">
      <g>
       <use xlink:href="#m2c92c2b148" x="702.204217" y="391.9627" style="fill: #262626; stroke: #262626; stroke-width: 1.25"/>
      </g>
     </g>
    </g>
    <g id="xtick_18">
     <g id="line2d_26">
      <g>
       <use xlink:href="#m2c92c2b148" x="816.820376" y="391.9627" style="fill: #262626; stroke: #262626; stroke-width: 1.25"/>
      </g>
     </g>
    </g>
   </g>
   <g id="matplotlib.axis_6">
    <g id="ytick_7">
     <g id="line2d_27">
      <g>
       <use xlink:href="#mde7b3efe8e" x="139.8" y="389.260723" style="fill: #262626; stroke: #262626; stroke-width: 1.25"/>
      </g>
     </g>
     <g id="text_9">
      <!-- −50000 -->
      <g style="fill: #262626" transform="translate(93.290156 393.19752) scale(0.11 -0.11)">
       <defs>
        <path id="ArialMT-2212" d="M 3381 1997 
L 356 1997 
L 356 2522 
L 3381 2522 
L 3381 1997 
z
" transform="scale(0.015625)"/>
       </defs>
       <use xlink:href="#ArialMT-2212"/>
       <use xlink:href="#ArialMT-35" x="58.398438"/>
       <use xlink:href="#ArialMT-30" x="114.013672"/>
       <use xlink:href="#ArialMT-30" x="169.628906"/>
       <use xlink:href="#ArialMT-30" x="225.244141"/>
       <use xlink:href="#ArialMT-30" x="280.859375"/>
      </g>
     </g>
    </g>
    <g id="ytick_8">
     <g id="line2d_28">
      <g>
       <use xlink:href="#mde7b3efe8e" x="139.8" y="346.109525" style="fill: #262626; stroke: #262626; stroke-width: 1.25"/>
      </g>
     </g>
     <g id="text_10">
      <!-- 0 -->
      <g style="fill: #262626" transform="translate(124.182969 350.046322) scale(0.11 -0.11)">
       <use xlink:href="#ArialMT-30"/>
      </g>
     </g>
    </g>
    <g id="ytick_9">
     <g id="line2d_29">
      <g>
       <use xlink:href="#mde7b3efe8e" x="139.8" y="302.958326" style="fill: #262626; stroke: #262626; stroke-width: 1.25"/>
      </g>
     </g>
     <g id="text_11">
      <!-- 50000 -->
      <g style="fill: #262626" transform="translate(99.714844 306.895123) scale(0.11 -0.11)">
       <use xlink:href="#ArialMT-35"/>
       <use xlink:href="#ArialMT-30" x="55.615234"/>
       <use xlink:href="#ArialMT-30" x="111.230469"/>
       <use xlink:href="#ArialMT-30" x="166.845703"/>
       <use xlink:href="#ArialMT-30" x="222.460938"/>
      </g>
     </g>
    </g>
    <g id="text_12">
     <!-- Season -->
     <g style="fill: #262626" transform="translate(86.905156 367.400421) rotate(-90) scale(0.12 -0.12)">
      <defs>
       <path id="ArialMT-53" d="M 288 1472 
L 859 1522 
Q 900 1178 1048 958 
Q 1197 738 1509 602 
Q 1822 466 2213 466 
Q 2559 466 2825 569 
Q 3091 672 3220 851 
Q 3350 1031 3350 1244 
Q 3350 1459 3225 1620 
Q 3100 1781 2813 1891 
Q 2628 1963 1997 2114 
Q 1366 2266 1113 2400 
Q 784 2572 623 2826 
Q 463 3081 463 3397 
Q 463 3744 659 4045 
Q 856 4347 1234 4503 
Q 1613 4659 2075 4659 
Q 2584 4659 2973 4495 
Q 3363 4331 3572 4012 
Q 3781 3694 3797 3291 
L 3216 3247 
Q 3169 3681 2898 3903 
Q 2628 4125 2100 4125 
Q 1550 4125 1298 3923 
Q 1047 3722 1047 3438 
Q 1047 3191 1225 3031 
Q 1400 2872 2139 2705 
Q 2878 2538 3153 2413 
Q 3553 2228 3743 1945 
Q 3934 1663 3934 1294 
Q 3934 928 3725 604 
Q 3516 281 3123 101 
Q 2731 -78 2241 -78 
Q 1619 -78 1198 103 
Q 778 284 539 648 
Q 300 1013 288 1472 
z
" transform="scale(0.015625)"/>
       <path id="ArialMT-6f" d="M 213 1659 
Q 213 2581 725 3025 
Q 1153 3394 1769 3394 
Q 2453 3394 2887 2945 
Q 3322 2497 3322 1706 
Q 3322 1066 3130 698 
Q 2938 331 2570 128 
Q 2203 -75 1769 -75 
Q 1072 -75 642 372 
Q 213 819 213 1659 
z
M 791 1659 
Q 791 1022 1069 705 
Q 1347 388 1769 388 
Q 2188 388 2466 706 
Q 2744 1025 2744 1678 
Q 2744 2294 2464 2611 
Q 2184 2928 1769 2928 
Q 1347 2928 1069 2612 
Q 791 2297 791 1659 
z
" transform="scale(0.015625)"/>
      </defs>
      <use xlink:href="#ArialMT-53"/>
      <use xlink:href="#ArialMT-65" x="66.699219"/>
      <use xlink:href="#ArialMT-61" x="122.314453"/>
      <use xlink:href="#ArialMT-73" x="177.929688"/>
      <use xlink:href="#ArialMT-6f" x="227.929688"/>
      <use xlink:href="#ArialMT-6e" x="283.544922"/>
     </g>
    </g>
   </g>
   <g id="line2d_30">
    <path d="M 139.8 331.641048 
L 141.998118 340.567056 
L 144.196236 341.554387 
L 146.394354 341.682579 
L 148.592472 342.844419 
L 150.790591 343.711987 
L 157.384945 343.943774 
L 159.583063 344.6644 
L 161.781181 346.204947 
L 163.979299 344.505018 
L 166.177417 345.161405 
L 168.375535 346.137021 
L 172.771772 347.486309 
L 174.96989 347.721585 
L 177.168008 347.162844 
L 179.366126 347.795781 
L 181.564244 348.047286 
L 183.762362 348.890335 
L 185.96048 348.025298 
L 188.158598 348.71384 
L 190.356716 349.201215 
L 192.554834 349.171042 
L 194.752953 349.970671 
L 199.149189 350.222803 
L 201.347307 345.777889 
L 203.545425 345.671999 
L 205.743543 344.92396 
L 207.941661 345.550852 
L 210.139779 345.320472 
L 212.337897 342.14296 
L 214.536016 341.231048 
L 216.734134 341.816279 
L 218.932252 341.007085 
L 221.13037 341.659699 
L 223.328488 341.360371 
L 225.526606 336.557363 
L 229.922842 337.442806 
L 232.12096 334.390169 
L 234.319078 334.295079 
L 236.517197 343.343376 
L 238.715315 343.621955 
L 240.913433 344.155314 
L 249.705905 340.754046 
L 251.904023 328.081943 
L 254.102141 338.490533 
L 256.300259 361.009806 
L 258.498378 360.403101 
L 260.696496 360.53693 
L 262.894614 359.83108 
L 265.092732 359.94032 
L 267.29085 359.248377 
L 269.488968 357.840595 
L 271.687086 357.433999 
L 273.885204 357.572838 
L 276.083322 352.705235 
L 278.28144 352.754274 
L 280.479559 352.51114 
L 282.677677 352.560134 
L 284.875795 352.396895 
L 287.073913 352.08413 
L 289.272031 350.795554 
L 293.668267 349.931014 
L 295.866385 349.712123 
L 298.064503 348.175617 
L 300.262622 348.163066 
L 302.46074 347.48763 
L 304.658858 346.599275 
L 306.856976 346.418347 
L 309.055094 345.512046 
L 311.253212 344.737645 
L 313.45133 340.149864 
L 315.649448 338.795709 
L 317.847566 337.293269 
L 320.045684 336.835404 
L 324.441921 334.657939 
L 326.640039 332.974318 
L 328.838157 332.518517 
L 331.036275 330.706499 
L 333.234393 330.160566 
L 335.432511 328.905382 
L 337.630629 323.956777 
L 342.026865 322.735808 
L 344.224984 318.977078 
L 346.423102 318.002872 
L 348.62122 341.680328 
L 353.017456 340.966945 
L 355.215574 337.466204 
L 357.413692 346.694851 
L 359.61181 348.818397 
L 364.008047 379.169744 
L 366.206165 377.069844 
L 368.404283 377.215978 
L 370.602401 374.707835 
L 372.800519 374.020163 
L 374.998637 372.510302 
L 377.196755 369.950751 
L 379.394873 368.439583 
L 381.592991 366.791459 
L 403.574172 359.871375 
L 405.77229 359.366525 
L 407.970409 358.034603 
L 410.168527 357.538475 
L 414.564763 355.873263 
L 416.762881 353.993078 
L 421.159117 352.744056 
L 425.555353 350.496834 
L 427.753471 348.444273 
L 429.95159 347.766749 
L 434.347826 344.622467 
L 436.545944 343.544884 
L 440.94218 340.215087 
L 443.140298 335.584985 
L 445.338416 333.153099 
L 447.536534 331.037544 
L 449.734653 329.67062 
L 451.932771 327.834112 
L 454.130889 330.57963 
L 456.329007 328.241358 
L 458.527125 326.911727 
L 460.725243 324.232006 
L 462.923361 322.675581 
L 465.121479 320.543888 
L 467.319597 315.406743 
L 469.517715 313.783177 
L 471.715834 312.369303 
L 473.913952 307.966838 
L 476.11207 306.224059 
L 482.706424 338.397486 
L 487.10266 336.289642 
L 489.300778 332.658903 
L 491.498896 362.616927 
L 493.697015 361.459631 
L 495.895133 387.879907 
L 498.093251 385.047131 
L 500.291369 384.578789 
L 502.489487 381.242545 
L 504.687605 379.797709 
L 506.885723 377.805978 
L 509.083841 374.812942 
L 511.281959 372.475622 
L 513.480078 368.128014 
L 515.678196 361.608987 
L 517.876314 360.579563 
L 520.074432 358.481116 
L 522.27255 357.41651 
L 524.470668 355.898709 
L 526.668786 354.775881 
L 531.065022 351.022268 
L 533.26314 349.43396 
L 537.659377 345.441967 
L 539.857495 344.184994 
L 542.055613 342.071536 
L 546.451849 338.398832 
L 550.848085 334.604326 
L 553.046203 331.504232 
L 555.244321 328.992131 
L 557.44244 327.056002 
L 561.838676 323.542983 
L 564.036794 334.026485 
L 566.234912 332.028193 
L 568.43303 330.369074 
L 570.631148 334.894493 
L 572.829266 333.021937 
L 575.027384 330.831824 
L 577.225502 327.738009 
L 579.423621 325.833807 
L 581.621739 324.24062 
L 583.819857 321.278414 
L 586.017975 319.573497 
L 588.216093 342.486171 
L 592.612329 339.907988 
L 594.810447 337.409887 
L 599.206684 374.206165 
L 601.404802 372.938815 
L 603.60292 380.341383 
L 605.801038 377.778062 
L 607.999156 376.481822 
L 610.197274 373.477406 
L 612.395392 371.805489 
L 614.59351 369.948076 
L 616.791628 367.791029 
L 618.989746 365.260823 
L 654.159636 359.79007 
L 656.357754 356.817651 
L 658.555872 355.588398 
L 660.75399 353.392253 
L 662.952109 352.1228 
L 665.150227 350.387573 
L 667.348345 349.24248 
L 671.744581 346.078008 
L 676.140817 344.338845 
L 680.537053 342.044517 
L 682.735171 340.662544 
L 684.93329 339.143837 
L 687.131408 337.25893 
L 689.329526 335.843872 
L 695.92388 333.853326 
L 700.320116 330.860149 
L 702.518234 329.562585 
L 704.716352 327.799117 
L 709.112589 325.375157 
L 713.508825 324.257337 
L 717.905061 338.364593 
L 720.103179 337.257111 
L 722.301297 335.986785 
L 724.499415 348.326874 
L 728.895652 344.035727 
L 731.09377 343.208402 
L 733.291888 341.066169 
L 735.490006 339.395133 
L 737.688124 338.055575 
L 739.886242 336.47014 
L 742.08436 343.953473 
L 748.678715 339.689769 
L 750.876833 385.07876 
L 753.074951 383.73656 
L 755.273069 371.152606 
L 757.471187 369.125839 
L 761.867423 364.468787 
L 764.065541 362.633407 
L 766.263659 360.944063 
L 768.461777 359.697018 
L 770.659896 357.079667 
L 772.858014 350.30989 
L 775.056132 351.049562 
L 777.25425 349.664298 
L 779.452368 347.533416 
L 781.650486 346.087041 
L 783.848604 344.188955 
L 788.24484 341.85443 
L 790.442958 340.536862 
L 792.641077 338.6466 
L 794.839195 336.170368 
L 797.037313 335.327456 
L 801.433549 332.057503 
L 803.631667 331.068624 
L 805.829785 329.028601 
L 810.226021 327.057261 
L 812.42414 327.228525 
L 814.622258 326.393327 
L 816.820376 325.964694 
L 819.018494 325.380789 
L 821.216612 325.045933 
L 823.41473 343.639857 
L 825.612848 343.479953 
L 827.810966 342.754473 
L 827.810966 342.754473 
" clip-path="url(#pc7542357d0)" style="fill: none; stroke: #4c72b0; stroke-width: 1.5; stroke-linecap: round"/>
   </g>
   <g id="patch_13">
    <path d="M 139.8 391.9627 
L 139.8 302.141267 
" style="fill: none; stroke: #262626; stroke-width: 1.25; stroke-linejoin: miter; stroke-linecap: square"/>
   </g>
   <g id="patch_14">
    <path d="M 827.810966 391.9627 
L 827.810966 302.141267 
" style="fill: none; stroke: #262626; stroke-width: 1.25; stroke-linejoin: miter; stroke-linecap: square"/>
   </g>
   <g id="patch_15">
    <path d="M 139.8 391.9627 
L 827.810966 391.9627 
" style="fill: none; stroke: #262626; stroke-width: 1.25; stroke-linejoin: miter; stroke-linecap: square"/>
   </g>
   <g id="patch_16">
    <path d="M 139.8 302.141267 
L 827.810966 302.141267 
" style="fill: none; stroke: #262626; stroke-width: 1.25; stroke-linejoin: miter; stroke-linecap: square"/>
   </g>
  </g>
  <g id="axes_4">
   <g id="patch_17">
    <path d="M 139.8 519.9 
L 827.810966 519.9 
L 827.810966 430.078567 
L 139.8 430.078567 
z
" style="fill: #ffffff"/>
   </g>
   <g id="line2d_31">
    <path d="M 139.8 473.111131 
L 827.810966 473.111131 
" clip-path="url(#p81d9e34165)" style="fill: none; stroke: #000000; stroke-width: 1.5; stroke-linecap: round"/>
   </g>
   <g id="matplotlib.axis_7">
    <g id="xtick_19">
     <g id="line2d_32">
      <g>
       <use xlink:href="#m2c92c2b148" x="243.425568" y="519.9" style="fill: #262626; stroke: #262626; stroke-width: 1.25"/>
      </g>
     </g>
     <g id="text_13">
      <!-- 2017 -->
      <g style="fill: #262626" transform="translate(231.191505 537.273594) scale(0.11 -0.11)">
       <defs>
        <path id="ArialMT-37" d="M 303 3981 
L 303 4522 
L 3269 4522 
L 3269 4084 
Q 2831 3619 2401 2847 
Q 1972 2075 1738 1259 
Q 1569 684 1522 0 
L 944 0 
Q 953 541 1156 1306 
Q 1359 2072 1739 2783 
Q 2119 3494 2547 3981 
L 303 3981 
z
" transform="scale(0.015625)"/>
       </defs>
       <use xlink:href="#ArialMT-32"/>
       <use xlink:href="#ArialMT-30" x="55.615234"/>
       <use xlink:href="#ArialMT-31" x="111.230469"/>
       <use xlink:href="#ArialMT-37" x="166.845703"/>
      </g>
     </g>
    </g>
    <g id="xtick_20">
     <g id="line2d_33">
      <g>
       <use xlink:href="#m2c92c2b148" x="358.041726" y="519.9" style="fill: #262626; stroke: #262626; stroke-width: 1.25"/>
      </g>
     </g>
     <g id="text_14">
      <!-- 2018 -->
      <g style="fill: #262626" transform="translate(345.807663 537.273594) scale(0.11 -0.11)">
       <defs>
        <path id="ArialMT-38" d="M 1131 2484 
Q 781 2613 612 2850 
Q 444 3088 444 3419 
Q 444 3919 803 4259 
Q 1163 4600 1759 4600 
Q 2359 4600 2725 4251 
Q 3091 3903 3091 3403 
Q 3091 3084 2923 2848 
Q 2756 2613 2416 2484 
Q 2838 2347 3058 2040 
Q 3278 1734 3278 1309 
Q 3278 722 2862 322 
Q 2447 -78 1769 -78 
Q 1091 -78 675 323 
Q 259 725 259 1325 
Q 259 1772 486 2073 
Q 713 2375 1131 2484 
z
M 1019 3438 
Q 1019 3113 1228 2906 
Q 1438 2700 1772 2700 
Q 2097 2700 2305 2904 
Q 2513 3109 2513 3406 
Q 2513 3716 2298 3927 
Q 2084 4138 1766 4138 
Q 1444 4138 1231 3931 
Q 1019 3725 1019 3438 
z
M 838 1322 
Q 838 1081 952 856 
Q 1066 631 1291 507 
Q 1516 384 1775 384 
Q 2178 384 2440 643 
Q 2703 903 2703 1303 
Q 2703 1709 2433 1975 
Q 2163 2241 1756 2241 
Q 1359 2241 1098 1978 
Q 838 1716 838 1322 
z
" transform="scale(0.015625)"/>
       </defs>
       <use xlink:href="#ArialMT-32"/>
       <use xlink:href="#ArialMT-30" x="55.615234"/>
       <use xlink:href="#ArialMT-31" x="111.230469"/>
       <use xlink:href="#ArialMT-38" x="166.845703"/>
      </g>
     </g>
    </g>
    <g id="xtick_21">
     <g id="line2d_34">
      <g>
       <use xlink:href="#m2c92c2b148" x="472.657884" y="519.9" style="fill: #262626; stroke: #262626; stroke-width: 1.25"/>
      </g>
     </g>
     <g id="text_15">
      <!-- 2019 -->
      <g style="fill: #262626" transform="translate(460.423822 537.273594) scale(0.11 -0.11)">
       <defs>
        <path id="ArialMT-39" d="M 350 1059 
L 891 1109 
Q 959 728 1153 556 
Q 1347 384 1650 384 
Q 1909 384 2104 503 
Q 2300 622 2425 820 
Q 2550 1019 2634 1356 
Q 2719 1694 2719 2044 
Q 2719 2081 2716 2156 
Q 2547 1888 2255 1720 
Q 1963 1553 1622 1553 
Q 1053 1553 659 1965 
Q 266 2378 266 3053 
Q 266 3750 677 4175 
Q 1088 4600 1706 4600 
Q 2153 4600 2523 4359 
Q 2894 4119 3086 3673 
Q 3278 3228 3278 2384 
Q 3278 1506 3087 986 
Q 2897 466 2520 194 
Q 2144 -78 1638 -78 
Q 1100 -78 759 220 
Q 419 519 350 1059 
z
M 2653 3081 
Q 2653 3566 2395 3850 
Q 2138 4134 1775 4134 
Q 1400 4134 1122 3828 
Q 844 3522 844 3034 
Q 844 2597 1108 2323 
Q 1372 2050 1759 2050 
Q 2150 2050 2401 2323 
Q 2653 2597 2653 3081 
z
" transform="scale(0.015625)"/>
       </defs>
       <use xlink:href="#ArialMT-32"/>
       <use xlink:href="#ArialMT-30" x="55.615234"/>
       <use xlink:href="#ArialMT-31" x="111.230469"/>
       <use xlink:href="#ArialMT-39" x="166.845703"/>
      </g>
     </g>
    </g>
    <g id="xtick_22">
     <g id="line2d_35">
      <g>
       <use xlink:href="#m2c92c2b148" x="587.274042" y="519.9" style="fill: #262626; stroke: #262626; stroke-width: 1.25"/>
      </g>
     </g>
     <g id="text_16">
      <!-- 2020 -->
      <g style="fill: #262626" transform="translate(575.03998 537.273594) scale(0.11 -0.11)">
       <use xlink:href="#ArialMT-32"/>
       <use xlink:href="#ArialMT-30" x="55.615234"/>
       <use xlink:href="#ArialMT-32" x="111.230469"/>
       <use xlink:href="#ArialMT-30" x="166.845703"/>
      </g>
     </g>
    </g>
    <g id="xtick_23">
     <g id="line2d_36">
      <g>
       <use xlink:href="#m2c92c2b148" x="702.204217" y="519.9" style="fill: #262626; stroke: #262626; stroke-width: 1.25"/>
      </g>
     </g>
     <g id="text_17">
      <!-- 2021 -->
      <g style="fill: #262626" transform="translate(689.970155 537.273594) scale(0.11 -0.11)">
       <use xlink:href="#ArialMT-32"/>
       <use xlink:href="#ArialMT-30" x="55.615234"/>
       <use xlink:href="#ArialMT-32" x="111.230469"/>
       <use xlink:href="#ArialMT-31" x="166.845703"/>
      </g>
     </g>
    </g>
    <g id="xtick_24">
     <g id="line2d_37">
      <g>
       <use xlink:href="#m2c92c2b148" x="816.820376" y="519.9" style="fill: #262626; stroke: #262626; stroke-width: 1.25"/>
      </g>
     </g>
     <g id="text_18">
      <!-- 2022 -->
      <g style="fill: #262626" transform="translate(804.586313 537.273594) scale(0.11 -0.11)">
       <use xlink:href="#ArialMT-32"/>
       <use xlink:href="#ArialMT-30" x="55.615234"/>
       <use xlink:href="#ArialMT-32" x="111.230469"/>
       <use xlink:href="#ArialMT-32" x="166.845703"/>
      </g>
     </g>
    </g>
   </g>
   <g id="matplotlib.axis_8">
    <g id="ytick_10">
     <g id="line2d_38">
      <g>
       <use xlink:href="#mde7b3efe8e" x="139.8" y="502.250894" style="fill: #262626; stroke: #262626; stroke-width: 1.25"/>
      </g>
     </g>
     <g id="text_19">
      <!-- −50000 -->
      <g style="fill: #262626" transform="translate(93.290156 506.187691) scale(0.11 -0.11)">
       <use xlink:href="#ArialMT-2212"/>
       <use xlink:href="#ArialMT-35" x="58.398438"/>
       <use xlink:href="#ArialMT-30" x="114.013672"/>
       <use xlink:href="#ArialMT-30" x="169.628906"/>
       <use xlink:href="#ArialMT-30" x="225.244141"/>
       <use xlink:href="#ArialMT-30" x="280.859375"/>
      </g>
     </g>
    </g>
    <g id="ytick_11">
     <g id="line2d_39">
      <g>
       <use xlink:href="#mde7b3efe8e" x="139.8" y="473.111131" style="fill: #262626; stroke: #262626; stroke-width: 1.25"/>
      </g>
     </g>
     <g id="text_20">
      <!-- 0 -->
      <g style="fill: #262626" transform="translate(124.182969 477.047928) scale(0.11 -0.11)">
       <use xlink:href="#ArialMT-30"/>
      </g>
     </g>
    </g>
    <g id="ytick_12">
     <g id="line2d_40">
      <g>
       <use xlink:href="#mde7b3efe8e" x="139.8" y="443.971368" style="fill: #262626; stroke: #262626; stroke-width: 1.25"/>
      </g>
     </g>
     <g id="text_21">
      <!-- 50000 -->
      <g style="fill: #262626" transform="translate(99.714844 447.908165) scale(0.11 -0.11)">
       <use xlink:href="#ArialMT-35"/>
       <use xlink:href="#ArialMT-30" x="55.615234"/>
       <use xlink:href="#ArialMT-30" x="111.230469"/>
       <use xlink:href="#ArialMT-30" x="166.845703"/>
       <use xlink:href="#ArialMT-30" x="222.460938"/>
      </g>
     </g>
    </g>
    <g id="text_22">
     <!-- Resid -->
     <g style="fill: #262626" transform="translate(86.905156 490.328659) rotate(-90) scale(0.12 -0.12)">
      <defs>
       <path id="ArialMT-52" d="M 503 0 
L 503 4581 
L 2534 4581 
Q 3147 4581 3465 4457 
Q 3784 4334 3975 4021 
Q 4166 3709 4166 3331 
Q 4166 2844 3850 2509 
Q 3534 2175 2875 2084 
Q 3116 1969 3241 1856 
Q 3506 1613 3744 1247 
L 4541 0 
L 3778 0 
L 3172 953 
Q 2906 1366 2734 1584 
Q 2563 1803 2427 1890 
Q 2291 1978 2150 2013 
Q 2047 2034 1813 2034 
L 1109 2034 
L 1109 0 
L 503 0 
z
M 1109 2559 
L 2413 2559 
Q 2828 2559 3062 2645 
Q 3297 2731 3419 2920 
Q 3541 3109 3541 3331 
Q 3541 3656 3305 3865 
Q 3069 4075 2559 4075 
L 1109 4075 
L 1109 2559 
z
" transform="scale(0.015625)"/>
      </defs>
      <use xlink:href="#ArialMT-52"/>
      <use xlink:href="#ArialMT-65" x="72.216797"/>
      <use xlink:href="#ArialMT-73" x="127.832031"/>
      <use xlink:href="#ArialMT-69" x="177.832031"/>
      <use xlink:href="#ArialMT-64" x="200.048828"/>
     </g>
    </g>
   </g>
   <g id="line2d_41">
    <defs>
     <path id="m8559e8e15f" d="M 0 3 
C 0.795609 3 1.55874 2.683901 2.12132 2.12132 
C 2.683901 1.55874 3 0.795609 3 0 
C 3 -0.795609 2.683901 -1.55874 2.12132 -2.12132 
C 1.55874 -2.683901 0.795609 -3 0 -3 
C -0.795609 -3 -1.55874 -2.683901 -2.12132 -2.12132 
C -2.683901 -1.55874 -3 -0.795609 -3 0 
C -3 0.795609 -2.683901 1.55874 -2.12132 2.12132 
C -1.55874 2.683901 -0.795609 3 0 3 
z
" style="stroke: #4c72b0"/>
    </defs>
    <g clip-path="url(#p81d9e34165)">
     <use xlink:href="#m8559e8e15f" x="139.8" y="477.67916" style="fill: #4c72b0; stroke: #4c72b0"/>
     <use xlink:href="#m8559e8e15f" x="141.998118" y="471.845635" style="fill: #4c72b0; stroke: #4c72b0"/>
     <use xlink:href="#m8559e8e15f" x="144.196236" y="471.379618" style="fill: #4c72b0; stroke: #4c72b0"/>
     <use xlink:href="#m8559e8e15f" x="146.394354" y="471.486456" style="fill: #4c72b0; stroke: #4c72b0"/>
     <use xlink:href="#m8559e8e15f" x="148.592472" y="470.897968" style="fill: #4c72b0; stroke: #4c72b0"/>
     <use xlink:href="#m8559e8e15f" x="150.790591" y="470.514491" style="fill: #4c72b0; stroke: #4c72b0"/>
     <use xlink:href="#m8559e8e15f" x="155.186827" y="470.585628" style="fill: #4c72b0; stroke: #4c72b0"/>
     <use xlink:href="#m8559e8e15f" x="157.384945" y="470.764521" style="fill: #4c72b0; stroke: #4c72b0"/>
     <use xlink:href="#m8559e8e15f" x="159.583063" y="470.487487" style="fill: #4c72b0; stroke: #4c72b0"/>
     <use xlink:href="#m8559e8e15f" x="161.781181" y="469.658187" style="fill: #4c72b0; stroke: #4c72b0"/>
     <use xlink:href="#m8559e8e15f" x="163.979299" y="471.018665" style="fill: #4c72b0; stroke: #4c72b0"/>
     <use xlink:href="#m8559e8e15f" x="166.177417" y="470.793015" style="fill: #4c72b0; stroke: #4c72b0"/>
     <use xlink:href="#m8559e8e15f" x="168.375535" y="470.354608" style="fill: #4c72b0; stroke: #4c72b0"/>
     <use xlink:href="#m8559e8e15f" x="170.573653" y="470.129938" style="fill: #4c72b0; stroke: #4c72b0"/>
     <use xlink:href="#m8559e8e15f" x="172.771772" y="469.891248" style="fill: #4c72b0; stroke: #4c72b0"/>
     <use xlink:href="#m8559e8e15f" x="174.96989" y="469.96161" style="fill: #4c72b0; stroke: #4c72b0"/>
     <use xlink:href="#m8559e8e15f" x="177.168008" y="470.570622" style="fill: #4c72b0; stroke: #4c72b0"/>
     <use xlink:href="#m8559e8e15f" x="179.366126" y="470.37855" style="fill: #4c72b0; stroke: #4c72b0"/>
     <use xlink:href="#m8559e8e15f" x="181.564244" y="470.447149" style="fill: #4c72b0; stroke: #4c72b0"/>
     <use xlink:href="#m8559e8e15f" x="183.762362" y="470.119385" style="fill: #4c72b0; stroke: #4c72b0"/>
     <use xlink:href="#m8559e8e15f" x="185.96048" y="470.948185" style="fill: #4c72b0; stroke: #4c72b0"/>
     <use xlink:href="#m8559e8e15f" x="188.158598" y="470.730369" style="fill: #4c72b0; stroke: #4c72b0"/>
     <use xlink:href="#m8559e8e15f" x="190.356716" y="470.652048" style="fill: #4c72b0; stroke: #4c72b0"/>
     <use xlink:href="#m8559e8e15f" x="192.554834" y="470.926248" style="fill: #4c72b0; stroke: #4c72b0"/>
     <use xlink:href="#m8559e8e15f" x="194.752953" y="470.643052" style="fill: #4c72b0; stroke: #4c72b0"/>
     <use xlink:href="#m8559e8e15f" x="196.951071" y="470.840528" style="fill: #4c72b0; stroke: #4c72b0"/>
     <use xlink:href="#m8559e8e15f" x="199.149189" y="470.991432" style="fill: #4c72b0; stroke: #4c72b0"/>
     <use xlink:href="#m8559e8e15f" x="201.347307" y="474.258184" style="fill: #4c72b0; stroke: #4c72b0"/>
     <use xlink:href="#m8559e8e15f" x="203.545425" y="474.594413" style="fill: #4c72b0; stroke: #4c72b0"/>
     <use xlink:href="#m8559e8e15f" x="205.743543" y="475.360199" style="fill: #4c72b0; stroke: #4c72b0"/>
     <use xlink:href="#m8559e8e15f" x="207.941661" y="475.208945" style="fill: #4c72b0; stroke: #4c72b0"/>
     <use xlink:href="#m8559e8e15f" x="210.139779" y="475.638476" style="fill: #4c72b0; stroke: #4c72b0"/>
     <use xlink:href="#m8559e8e15f" x="212.337897" y="478.058033" style="fill: #4c72b0; stroke: #4c72b0"/>
     <use xlink:href="#m8559e8e15f" x="214.536016" y="478.950654" style="fill: #4c72b0; stroke: #4c72b0"/>
     <use xlink:href="#m8559e8e15f" x="216.734134" y="478.83315" style="fill: #4c72b0; stroke: #4c72b0"/>
     <use xlink:href="#m8559e8e15f" x="218.932252" y="479.657756" style="fill: #4c72b0; stroke: #4c72b0"/>
     <use xlink:href="#m8559e8e15f" x="221.13037" y="479.49519" style="fill: #4c72b0; stroke: #4c72b0"/>
     <use xlink:href="#m8559e8e15f" x="223.328488" y="479.974907" style="fill: #4c72b0; stroke: #4c72b0"/>
     <use xlink:href="#m8559e8e15f" x="225.526606" y="483.494784" style="fill: #4c72b0; stroke: #4c72b0"/>
     <use xlink:href="#m8559e8e15f" x="227.724724" y="483.478714" style="fill: #4c72b0; stroke: #4c72b0"/>
     <use xlink:href="#m8559e8e15f" x="229.922842" y="483.418181" style="fill: #4c72b0; stroke: #4c72b0"/>
     <use xlink:href="#m8559e8e15f" x="232.12096" y="485.745028" style="fill: #4c72b0; stroke: #4c72b0"/>
     <use xlink:href="#m8559e8e15f" x="234.319078" y="486.075801" style="fill: #4c72b0; stroke: #4c72b0"/>
     <use xlink:href="#m8559e8e15f" x="236.517197" y="480.229667" style="fill: #4c72b0; stroke: #4c72b0"/>
     <use xlink:href="#m8559e8e15f" x="238.715315" y="480.304834" style="fill: #4c72b0; stroke: #4c72b0"/>
     <use xlink:href="#m8559e8e15f" x="240.913433" y="480.210174" style="fill: #4c72b0; stroke: #4c72b0"/>
     <use xlink:href="#m8559e8e15f" x="249.705905" y="481.99476" style="fill: #4c72b0; stroke: #4c72b0"/>
     <use xlink:href="#m8559e8e15f" x="251.904023" y="490.127169" style="fill: #4c72b0; stroke: #4c72b0"/>
     <use xlink:href="#m8559e8e15f" x="254.102141" y="482.906138" style="fill: #4c72b0; stroke: #4c72b0"/>
     <use xlink:href="#m8559e8e15f" x="256.300259" y="467.878915" style="fill: #4c72b0; stroke: #4c72b0"/>
     <use xlink:href="#m8559e8e15f" x="258.498378" y="468.557523" style="fill: #4c72b0; stroke: #4c72b0"/>
     <use xlink:href="#m8559e8e15f" x="260.696496" y="468.709903" style="fill: #4c72b0; stroke: #4c72b0"/>
     <use xlink:href="#m8559e8e15f" x="262.894614" y="469.260999" style="fill: #4c72b0; stroke: #4c72b0"/>
     <use xlink:href="#m8559e8e15f" x="265.092732" y="469.565399" style="fill: #4c72b0; stroke: #4c72b0"/>
     <use xlink:href="#m8559e8e15f" x="267.29085" y="469.583257" style="fill: #4c72b0; stroke: #4c72b0"/>
     <use xlink:href="#m8559e8e15f" x="269.488968" y="470.431912" style="fill: #4c72b0; stroke: #4c72b0"/>
     <use xlink:href="#m8559e8e15f" x="271.687086" y="470.706911" style="fill: #4c72b0; stroke: #4c72b0"/>
     <use xlink:href="#m8559e8e15f" x="273.885204" y="471.123157" style="fill: #4c72b0; stroke: #4c72b0"/>
     <use xlink:href="#m8559e8e15f" x="276.083322" y="473.49827" style="fill: #4c72b0; stroke: #4c72b0"/>
     <use xlink:href="#m8559e8e15f" x="278.28144" y="473.881575" style="fill: #4c72b0; stroke: #4c72b0"/>
     <use xlink:href="#m8559e8e15f" x="280.479559" y="474.746681" style="fill: #4c72b0; stroke: #4c72b0"/>
     <use xlink:href="#m8559e8e15f" x="282.677677" y="475.234358" style="fill: #4c72b0; stroke: #4c72b0"/>
     <use xlink:href="#m8559e8e15f" x="284.875795" y="475.984162" style="fill: #4c72b0; stroke: #4c72b0"/>
     <use xlink:href="#m8559e8e15f" x="287.073913" y="475.969619" style="fill: #4c72b0; stroke: #4c72b0"/>
     <use xlink:href="#m8559e8e15f" x="289.272031" y="475.3878" style="fill: #4c72b0; stroke: #4c72b0"/>
     <use xlink:href="#m8559e8e15f" x="291.470149" y="476.269027" style="fill: #4c72b0; stroke: #4c72b0"/>
     <use xlink:href="#m8559e8e15f" x="293.668267" y="476.419012" style="fill: #4c72b0; stroke: #4c72b0"/>
     <use xlink:href="#m8559e8e15f" x="295.866385" y="477.153911" style="fill: #4c72b0; stroke: #4c72b0"/>
     <use xlink:href="#m8559e8e15f" x="298.064503" y="476.336955" style="fill: #4c72b0; stroke: #4c72b0"/>
     <use xlink:href="#m8559e8e15f" x="300.262622" y="476.540613" style="fill: #4c72b0; stroke: #4c72b0"/>
     <use xlink:href="#m8559e8e15f" x="302.46074" y="477.490927" style="fill: #4c72b0; stroke: #4c72b0"/>
     <use xlink:href="#m8559e8e15f" x="304.658858" y="477.607957" style="fill: #4c72b0; stroke: #4c72b0"/>
     <use xlink:href="#m8559e8e15f" x="306.856976" y="478.211409" style="fill: #4c72b0; stroke: #4c72b0"/>
     <use xlink:href="#m8559e8e15f" x="309.055094" y="478.278794" style="fill: #4c72b0; stroke: #4c72b0"/>
     <use xlink:href="#m8559e8e15f" x="311.253212" y="478.132699" style="fill: #4c72b0; stroke: #4c72b0"/>
     <use xlink:href="#m8559e8e15f" x="313.45133" y="473.480123" style="fill: #4c72b0; stroke: #4c72b0"/>
     <use xlink:href="#m8559e8e15f" x="315.649448" y="473.175616" style="fill: #4c72b0; stroke: #4c72b0"/>
     <use xlink:href="#m8559e8e15f" x="317.847566" y="472.307828" style="fill: #4c72b0; stroke: #4c72b0"/>
     <use xlink:href="#m8559e8e15f" x="320.045684" y="472.917273" style="fill: #4c72b0; stroke: #4c72b0"/>
     <use xlink:href="#m8559e8e15f" x="322.243803" y="472.664769" style="fill: #4c72b0; stroke: #4c72b0"/>
     <use xlink:href="#m8559e8e15f" x="324.441921" y="472.373048" style="fill: #4c72b0; stroke: #4c72b0"/>
     <use xlink:href="#m8559e8e15f" x="326.640039" y="471.168479" style="fill: #4c72b0; stroke: #4c72b0"/>
     <use xlink:href="#m8559e8e15f" x="328.838157" y="471.76539" style="fill: #4c72b0; stroke: #4c72b0"/>
     <use xlink:href="#m8559e8e15f" x="331.036275" y="470.706639" style="fill: #4c72b0; stroke: #4c72b0"/>
     <use xlink:href="#m8559e8e15f" x="333.234393" y="471.404922" style="fill: #4c72b0; stroke: #4c72b0"/>
     <use xlink:href="#m8559e8e15f" x="335.432511" y="470.684272" style="fill: #4c72b0; stroke: #4c72b0"/>
     <use xlink:href="#m8559e8e15f" x="337.630629" y="464.85361" style="fill: #4c72b0; stroke: #4c72b0"/>
     <use xlink:href="#m8559e8e15f" x="339.828747" y="465.076419" style="fill: #4c72b0; stroke: #4c72b0"/>
     <use xlink:href="#m8559e8e15f" x="342.026865" y="465.672217" style="fill: #4c72b0; stroke: #4c72b0"/>
     <use xlink:href="#m8559e8e15f" x="344.224984" y="461.997228" style="fill: #4c72b0; stroke: #4c72b0"/>
     <use xlink:href="#m8559e8e15f" x="346.423102" y="461.766054" style="fill: #4c72b0; stroke: #4c72b0"/>
     <use xlink:href="#m8559e8e15f" x="348.62122" y="445.16539" style="fill: #4c72b0; stroke: #4c72b0"/>
     <use xlink:href="#m8559e8e15f" x="350.819338" y="445.075379" style="fill: #4c72b0; stroke: #4c72b0"/>
     <use xlink:href="#m8559e8e15f" x="353.017456" y="445.556876" style="fill: #4c72b0; stroke: #4c72b0"/>
     <use xlink:href="#m8559e8e15f" x="355.215574" y="442.646396" style="fill: #4c72b0; stroke: #4c72b0"/>
     <use xlink:href="#m8559e8e15f" x="357.413692" y="435.831016" style="fill: #4c72b0; stroke: #4c72b0"/>
     <use xlink:href="#m8559e8e15f" x="359.61181" y="434.16136" style="fill: #4c72b0; stroke: #4c72b0"/>
     <use xlink:href="#m8559e8e15f" x="364.008047" y="486.625632" style="fill: #4c72b0; stroke: #4c72b0"/>
     <use xlink:href="#m8559e8e15f" x="366.206165" y="486.967313" style="fill: #4c72b0; stroke: #4c72b0"/>
     <use xlink:href="#m8559e8e15f" x="368.404283" y="485.958944" style="fill: #4c72b0; stroke: #4c72b0"/>
     <use xlink:href="#m8559e8e15f" x="370.602401" y="487.113214" style="fill: #4c72b0; stroke: #4c72b0"/>
     <use xlink:href="#m8559e8e15f" x="372.800519" y="487.711325" style="fill: #4c72b0; stroke: #4c72b0"/>
     <use xlink:href="#m8559e8e15f" x="374.998637" y="487.457626" style="fill: #4c72b0; stroke: #4c72b0"/>
     <use xlink:href="#m8559e8e15f" x="377.196755" y="484.978338" style="fill: #4c72b0; stroke: #4c72b0"/>
     <use xlink:href="#m8559e8e15f" x="379.394873" y="485.370956" style="fill: #4c72b0; stroke: #4c72b0"/>
     <use xlink:href="#m8559e8e15f" x="381.592991" y="486.420038" style="fill: #4c72b0; stroke: #4c72b0"/>
     <use xlink:href="#m8559e8e15f" x="403.574172" y="476.699504" style="fill: #4c72b0; stroke: #4c72b0"/>
     <use xlink:href="#m8559e8e15f" x="405.77229" y="476.610249" style="fill: #4c72b0; stroke: #4c72b0"/>
     <use xlink:href="#m8559e8e15f" x="407.970409" y="476.280894" style="fill: #4c72b0; stroke: #4c72b0"/>
     <use xlink:href="#m8559e8e15f" x="410.168527" y="475.908469" style="fill: #4c72b0; stroke: #4c72b0"/>
     <use xlink:href="#m8559e8e15f" x="412.366645" y="475.033928" style="fill: #4c72b0; stroke: #4c72b0"/>
     <use xlink:href="#m8559e8e15f" x="414.564763" y="474.836019" style="fill: #4c72b0; stroke: #4c72b0"/>
     <use xlink:href="#m8559e8e15f" x="416.762881" y="474.14454" style="fill: #4c72b0; stroke: #4c72b0"/>
     <use xlink:href="#m8559e8e15f" x="421.159117" y="472.825734" style="fill: #4c72b0; stroke: #4c72b0"/>
     <use xlink:href="#m8559e8e15f" x="423.357235" y="472.216643" style="fill: #4c72b0; stroke: #4c72b0"/>
     <use xlink:href="#m8559e8e15f" x="425.555353" y="471.66094" style="fill: #4c72b0; stroke: #4c72b0"/>
     <use xlink:href="#m8559e8e15f" x="427.753471" y="470.726726" style="fill: #4c72b0; stroke: #4c72b0"/>
     <use xlink:href="#m8559e8e15f" x="429.95159" y="471.038903" style="fill: #4c72b0; stroke: #4c72b0"/>
     <use xlink:href="#m8559e8e15f" x="432.149708" y="469.204922" style="fill: #4c72b0; stroke: #4c72b0"/>
     <use xlink:href="#m8559e8e15f" x="434.347826" y="468.038932" style="fill: #4c72b0; stroke: #4c72b0"/>
     <use xlink:href="#m8559e8e15f" x="436.545944" y="467.592223" style="fill: #4c72b0; stroke: #4c72b0"/>
     <use xlink:href="#m8559e8e15f" x="438.744062" y="466.913596" style="fill: #4c72b0; stroke: #4c72b0"/>
     <use xlink:href="#m8559e8e15f" x="440.94218" y="466.875392" style="fill: #4c72b0; stroke: #4c72b0"/>
     <use xlink:href="#m8559e8e15f" x="443.140298" y="466.349517" style="fill: #4c72b0; stroke: #4c72b0"/>
     <use xlink:href="#m8559e8e15f" x="445.338416" y="466.181649" style="fill: #4c72b0; stroke: #4c72b0"/>
     <use xlink:href="#m8559e8e15f" x="447.536534" y="465.679659" style="fill: #4c72b0; stroke: #4c72b0"/>
     <use xlink:href="#m8559e8e15f" x="449.734653" y="464.98551" style="fill: #4c72b0; stroke: #4c72b0"/>
     <use xlink:href="#m8559e8e15f" x="451.932771" y="464.256906" style="fill: #4c72b0; stroke: #4c72b0"/>
     <use xlink:href="#m8559e8e15f" x="454.130889" y="459.888178" style="fill: #4c72b0; stroke: #4c72b0"/>
     <use xlink:href="#m8559e8e15f" x="456.329007" y="459.80645" style="fill: #4c72b0; stroke: #4c72b0"/>
     <use xlink:href="#m8559e8e15f" x="458.527125" y="459.024675" style="fill: #4c72b0; stroke: #4c72b0"/>
     <use xlink:href="#m8559e8e15f" x="460.725243" y="458.903496" style="fill: #4c72b0; stroke: #4c72b0"/>
     <use xlink:href="#m8559e8e15f" x="462.923361" y="458.124066" style="fill: #4c72b0; stroke: #4c72b0"/>
     <use xlink:href="#m8559e8e15f" x="465.121479" y="458.384923" style="fill: #4c72b0; stroke: #4c72b0"/>
     <use xlink:href="#m8559e8e15f" x="467.319597" y="459.962648" style="fill: #4c72b0; stroke: #4c72b0"/>
     <use xlink:href="#m8559e8e15f" x="469.517715" y="459.779143" style="fill: #4c72b0; stroke: #4c72b0"/>
     <use xlink:href="#m8559e8e15f" x="471.715834" y="458.853513" style="fill: #4c72b0; stroke: #4c72b0"/>
     <use xlink:href="#m8559e8e15f" x="473.913952" y="459.713063" style="fill: #4c72b0; stroke: #4c72b0"/>
     <use xlink:href="#m8559e8e15f" x="476.11207" y="459.351235" style="fill: #4c72b0; stroke: #4c72b0"/>
     <use xlink:href="#m8559e8e15f" x="482.706424" y="515.521493" style="fill: #4c72b0; stroke: #4c72b0"/>
     <use xlink:href="#m8559e8e15f" x="484.904542" y="515.657275" style="fill: #4c72b0; stroke: #4c72b0"/>
     <use xlink:href="#m8559e8e15f" x="487.10266" y="515.063864" style="fill: #4c72b0; stroke: #4c72b0"/>
     <use xlink:href="#m8559e8e15f" x="489.300778" y="515.817208" style="fill: #4c72b0; stroke: #4c72b0"/>
     <use xlink:href="#m8559e8e15f" x="491.498896" y="495.460423" style="fill: #4c72b0; stroke: #4c72b0"/>
     <use xlink:href="#m8559e8e15f" x="493.697015" y="494.952042" style="fill: #4c72b0; stroke: #4c72b0"/>
     <use xlink:href="#m8559e8e15f" x="495.895133" y="475.689166" style="fill: #4c72b0; stroke: #4c72b0"/>
     <use xlink:href="#m8559e8e15f" x="498.093251" y="473.5361" style="fill: #4c72b0; stroke: #4c72b0"/>
     <use xlink:href="#m8559e8e15f" x="500.291369" y="475.557212" style="fill: #4c72b0; stroke: #4c72b0"/>
     <use xlink:href="#m8559e8e15f" x="502.489487" y="472.358767" style="fill: #4c72b0; stroke: #4c72b0"/>
     <use xlink:href="#m8559e8e15f" x="504.687605" y="471.675982" style="fill: #4c72b0; stroke: #4c72b0"/>
     <use xlink:href="#m8559e8e15f" x="506.885723" y="471.502534" style="fill: #4c72b0; stroke: #4c72b0"/>
     <use xlink:href="#m8559e8e15f" x="509.083841" y="472.206601" style="fill: #4c72b0; stroke: #4c72b0"/>
     <use xlink:href="#m8559e8e15f" x="511.281959" y="471.242205" style="fill: #4c72b0; stroke: #4c72b0"/>
     <use xlink:href="#m8559e8e15f" x="513.480078" y="473.257132" style="fill: #4c72b0; stroke: #4c72b0"/>
     <use xlink:href="#m8559e8e15f" x="515.678196" y="476.749737" style="fill: #4c72b0; stroke: #4c72b0"/>
     <use xlink:href="#m8559e8e15f" x="517.876314" y="476.42868" style="fill: #4c72b0; stroke: #4c72b0"/>
     <use xlink:href="#m8559e8e15f" x="520.074432" y="475.382488" style="fill: #4c72b0; stroke: #4c72b0"/>
     <use xlink:href="#m8559e8e15f" x="522.27255" y="475.36988" style="fill: #4c72b0; stroke: #4c72b0"/>
     <use xlink:href="#m8559e8e15f" x="524.470668" y="475.377857" style="fill: #4c72b0; stroke: #4c72b0"/>
     <use xlink:href="#m8559e8e15f" x="526.668786" y="475.298216" style="fill: #4c72b0; stroke: #4c72b0"/>
     <use xlink:href="#m8559e8e15f" x="528.866904" y="475.54428" style="fill: #4c72b0; stroke: #4c72b0"/>
     <use xlink:href="#m8559e8e15f" x="531.065022" y="475.614608" style="fill: #4c72b0; stroke: #4c72b0"/>
     <use xlink:href="#m8559e8e15f" x="533.26314" y="475.904371" style="fill: #4c72b0; stroke: #4c72b0"/>
     <use xlink:href="#m8559e8e15f" x="535.461259" y="475.675175" style="fill: #4c72b0; stroke: #4c72b0"/>
     <use xlink:href="#m8559e8e15f" x="537.659377" y="476.28346" style="fill: #4c72b0; stroke: #4c72b0"/>
     <use xlink:href="#m8559e8e15f" x="539.857495" y="475.601506" style="fill: #4c72b0; stroke: #4c72b0"/>
     <use xlink:href="#m8559e8e15f" x="542.055613" y="475.87256" style="fill: #4c72b0; stroke: #4c72b0"/>
     <use xlink:href="#m8559e8e15f" x="544.253731" y="476.179454" style="fill: #4c72b0; stroke: #4c72b0"/>
     <use xlink:href="#m8559e8e15f" x="546.451849" y="476.05892" style="fill: #4c72b0; stroke: #4c72b0"/>
     <use xlink:href="#m8559e8e15f" x="548.649967" y="475.556014" style="fill: #4c72b0; stroke: #4c72b0"/>
     <use xlink:href="#m8559e8e15f" x="550.848085" y="474.725431" style="fill: #4c72b0; stroke: #4c72b0"/>
     <use xlink:href="#m8559e8e15f" x="553.046203" y="476.845243" style="fill: #4c72b0; stroke: #4c72b0"/>
     <use xlink:href="#m8559e8e15f" x="555.244321" y="475.518797" style="fill: #4c72b0; stroke: #4c72b0"/>
     <use xlink:href="#m8559e8e15f" x="557.44244" y="475.435684" style="fill: #4c72b0; stroke: #4c72b0"/>
     <use xlink:href="#m8559e8e15f" x="559.640558" y="474.597769" style="fill: #4c72b0; stroke: #4c72b0"/>
     <use xlink:href="#m8559e8e15f" x="561.838676" y="474.289008" style="fill: #4c72b0; stroke: #4c72b0"/>
     <use xlink:href="#m8559e8e15f" x="564.036794" y="465.326645" style="fill: #4c72b0; stroke: #4c72b0"/>
     <use xlink:href="#m8559e8e15f" x="566.234912" y="464.789436" style="fill: #4c72b0; stroke: #4c72b0"/>
     <use xlink:href="#m8559e8e15f" x="568.43303" y="464.127353" style="fill: #4c72b0; stroke: #4c72b0"/>
     <use xlink:href="#m8559e8e15f" x="570.631148" y="458.599955" style="fill: #4c72b0; stroke: #4c72b0"/>
     <use xlink:href="#m8559e8e15f" x="572.829266" y="457.562413" style="fill: #4c72b0; stroke: #4c72b0"/>
     <use xlink:href="#m8559e8e15f" x="575.027384" y="456.527767" style="fill: #4c72b0; stroke: #4c72b0"/>
     <use xlink:href="#m8559e8e15f" x="577.225502" y="456.581691" style="fill: #4c72b0; stroke: #4c72b0"/>
     <use xlink:href="#m8559e8e15f" x="579.423621" y="455.390772" style="fill: #4c72b0; stroke: #4c72b0"/>
     <use xlink:href="#m8559e8e15f" x="581.621739" y="454.709981" style="fill: #4c72b0; stroke: #4c72b0"/>
     <use xlink:href="#m8559e8e15f" x="583.819857" y="453.743157" style="fill: #4c72b0; stroke: #4c72b0"/>
     <use xlink:href="#m8559e8e15f" x="586.017975" y="453.026474" style="fill: #4c72b0; stroke: #4c72b0"/>
     <use xlink:href="#m8559e8e15f" x="588.216093" y="435.766831" style="fill: #4c72b0; stroke: #4c72b0"/>
     <use xlink:href="#m8559e8e15f" x="590.414211" y="434.99129" style="fill: #4c72b0; stroke: #4c72b0"/>
     <use xlink:href="#m8559e8e15f" x="592.612329" y="434.440849" style="fill: #4c72b0; stroke: #4c72b0"/>
     <use xlink:href="#m8559e8e15f" x="594.810447" y="434.337669" style="fill: #4c72b0; stroke: #4c72b0"/>
     <use xlink:href="#m8559e8e15f" x="599.206684" y="489.532712" style="fill: #4c72b0; stroke: #4c72b0"/>
     <use xlink:href="#m8559e8e15f" x="601.404802" y="489.433062" style="fill: #4c72b0; stroke: #4c72b0"/>
     <use xlink:href="#m8559e8e15f" x="603.60292" y="482.913345" style="fill: #4c72b0; stroke: #4c72b0"/>
     <use xlink:href="#m8559e8e15f" x="605.801038" y="483.093295" style="fill: #4c72b0; stroke: #4c72b0"/>
     <use xlink:href="#m8559e8e15f" x="607.999156" y="482.374929" style="fill: #4c72b0; stroke: #4c72b0"/>
     <use xlink:href="#m8559e8e15f" x="610.197274" y="482.588604" style="fill: #4c72b0; stroke: #4c72b0"/>
     <use xlink:href="#m8559e8e15f" x="612.395392" y="481.742248" style="fill: #4c72b0; stroke: #4c72b0"/>
     <use xlink:href="#m8559e8e15f" x="614.59351" y="481.262429" style="fill: #4c72b0; stroke: #4c72b0"/>
     <use xlink:href="#m8559e8e15f" x="616.791628" y="480.894886" style="fill: #4c72b0; stroke: #4c72b0"/>
     <use xlink:href="#m8559e8e15f" x="618.989746" y="480.445045" style="fill: #4c72b0; stroke: #4c72b0"/>
     <use xlink:href="#m8559e8e15f" x="654.159636" y="473.962048" style="fill: #4c72b0; stroke: #4c72b0"/>
     <use xlink:href="#m8559e8e15f" x="656.357754" y="474.931302" style="fill: #4c72b0; stroke: #4c72b0"/>
     <use xlink:href="#m8559e8e15f" x="658.555872" y="474.802194" style="fill: #4c72b0; stroke: #4c72b0"/>
     <use xlink:href="#m8559e8e15f" x="660.75399" y="474.998688" style="fill: #4c72b0; stroke: #4c72b0"/>
     <use xlink:href="#m8559e8e15f" x="662.952109" y="474.722831" style="fill: #4c72b0; stroke: #4c72b0"/>
     <use xlink:href="#m8559e8e15f" x="665.150227" y="474.798852" style="fill: #4c72b0; stroke: #4c72b0"/>
     <use xlink:href="#m8559e8e15f" x="667.348345" y="474.673206" style="fill: #4c72b0; stroke: #4c72b0"/>
     <use xlink:href="#m8559e8e15f" x="669.546463" y="474.712714" style="fill: #4c72b0; stroke: #4c72b0"/>
     <use xlink:href="#m8559e8e15f" x="671.744581" y="474.561541" style="fill: #4c72b0; stroke: #4c72b0"/>
     <use xlink:href="#m8559e8e15f" x="676.140817" y="474.312824" style="fill: #4c72b0; stroke: #4c72b0"/>
     <use xlink:href="#m8559e8e15f" x="680.537053" y="473.973735" style="fill: #4c72b0; stroke: #4c72b0"/>
     <use xlink:href="#m8559e8e15f" x="682.735171" y="473.864156" style="fill: #4c72b0; stroke: #4c72b0"/>
     <use xlink:href="#m8559e8e15f" x="684.93329" y="473.712419" style="fill: #4c72b0; stroke: #4c72b0"/>
     <use xlink:href="#m8559e8e15f" x="687.131408" y="473.896208" style="fill: #4c72b0; stroke: #4c72b0"/>
     <use xlink:href="#m8559e8e15f" x="689.329526" y="473.796173" style="fill: #4c72b0; stroke: #4c72b0"/>
     <use xlink:href="#m8559e8e15f" x="695.92388" y="473.095912" style="fill: #4c72b0; stroke: #4c72b0"/>
     <use xlink:href="#m8559e8e15f" x="698.121998" y="473.335369" style="fill: #4c72b0; stroke: #4c72b0"/>
     <use xlink:href="#m8559e8e15f" x="700.320116" y="473.368735" style="fill: #4c72b0; stroke: #4c72b0"/>
     <use xlink:href="#m8559e8e15f" x="702.518234" y="472.841669" style="fill: #4c72b0; stroke: #4c72b0"/>
     <use xlink:href="#m8559e8e15f" x="704.716352" y="473.268765" style="fill: #4c72b0; stroke: #4c72b0"/>
     <use xlink:href="#m8559e8e15f" x="706.914471" y="473.331057" style="fill: #4c72b0; stroke: #4c72b0"/>
     <use xlink:href="#m8559e8e15f" x="709.112589" y="473.503773" style="fill: #4c72b0; stroke: #4c72b0"/>
     <use xlink:href="#m8559e8e15f" x="713.508825" y="473.654052" style="fill: #4c72b0; stroke: #4c72b0"/>
     <use xlink:href="#m8559e8e15f" x="717.905061" y="496.930815" style="fill: #4c72b0; stroke: #4c72b0"/>
     <use xlink:href="#m8559e8e15f" x="720.103179" y="497.165282" style="fill: #4c72b0; stroke: #4c72b0"/>
     <use xlink:href="#m8559e8e15f" x="722.301297" y="497.384791" style="fill: #4c72b0; stroke: #4c72b0"/>
     <use xlink:href="#m8559e8e15f" x="724.499415" y="488.398175" style="fill: #4c72b0; stroke: #4c72b0"/>
     <use xlink:href="#m8559e8e15f" x="726.697533" y="489.348241" style="fill: #4c72b0; stroke: #4c72b0"/>
     <use xlink:href="#m8559e8e15f" x="728.895652" y="490.041155" style="fill: #4c72b0; stroke: #4c72b0"/>
     <use xlink:href="#m8559e8e15f" x="731.09377" y="489.85266" style="fill: #4c72b0; stroke: #4c72b0"/>
     <use xlink:href="#m8559e8e15f" x="733.291888" y="490.745862" style="fill: #4c72b0; stroke: #4c72b0"/>
     <use xlink:href="#m8559e8e15f" x="735.490006" y="491.508029" style="fill: #4c72b0; stroke: #4c72b0"/>
     <use xlink:href="#m8559e8e15f" x="737.688124" y="492.136736" style="fill: #4c72b0; stroke: #4c72b0"/>
     <use xlink:href="#m8559e8e15f" x="739.886242" y="492.790193" style="fill: #4c72b0; stroke: #4c72b0"/>
     <use xlink:href="#m8559e8e15f" x="742.08436" y="487.376793" style="fill: #4c72b0; stroke: #4c72b0"/>
     <use xlink:href="#m8559e8e15f" x="744.282478" y="487.901828" style="fill: #4c72b0; stroke: #4c72b0"/>
     <use xlink:href="#m8559e8e15f" x="746.480596" y="488.47658" style="fill: #4c72b0; stroke: #4c72b0"/>
     <use xlink:href="#m8559e8e15f" x="748.678715" y="488.501996" style="fill: #4c72b0; stroke: #4c72b0"/>
     <use xlink:href="#m8559e8e15f" x="750.876833" y="457.419266" style="fill: #4c72b0; stroke: #4c72b0"/>
     <use xlink:href="#m8559e8e15f" x="753.074951" y="457.668686" style="fill: #4c72b0; stroke: #4c72b0"/>
     <use xlink:href="#m8559e8e15f" x="755.273069" y="465.537117" style="fill: #4c72b0; stroke: #4c72b0"/>
     <use xlink:href="#m8559e8e15f" x="757.471187" y="466.138564" style="fill: #4c72b0; stroke: #4c72b0"/>
     <use xlink:href="#m8559e8e15f" x="759.669305" y="466.060454" style="fill: #4c72b0; stroke: #4c72b0"/>
     <use xlink:href="#m8559e8e15f" x="761.867423" y="466.935809" style="fill: #4c72b0; stroke: #4c72b0"/>
     <use xlink:href="#m8559e8e15f" x="764.065541" y="467.747689" style="fill: #4c72b0; stroke: #4c72b0"/>
     <use xlink:href="#m8559e8e15f" x="766.263659" y="468.180044" style="fill: #4c72b0; stroke: #4c72b0"/>
     <use xlink:href="#m8559e8e15f" x="768.461777" y="468.376033" style="fill: #4c72b0; stroke: #4c72b0"/>
     <use xlink:href="#m8559e8e15f" x="770.659896" y="469.014717" style="fill: #4c72b0; stroke: #4c72b0"/>
     <use xlink:href="#m8559e8e15f" x="772.858014" y="472.820978" style="fill: #4c72b0; stroke: #4c72b0"/>
     <use xlink:href="#m8559e8e15f" x="775.056132" y="471.580912" style="fill: #4c72b0; stroke: #4c72b0"/>
     <use xlink:href="#m8559e8e15f" x="777.25425" y="471.810949" style="fill: #4c72b0; stroke: #4c72b0"/>
     <use xlink:href="#m8559e8e15f" x="779.452368" y="472.071339" style="fill: #4c72b0; stroke: #4c72b0"/>
     <use xlink:href="#m8559e8e15f" x="781.650486" y="472.317027" style="fill: #4c72b0; stroke: #4c72b0"/>
     <use xlink:href="#m8559e8e15f" x="783.848604" y="472.341914" style="fill: #4c72b0; stroke: #4c72b0"/>
     <use xlink:href="#m8559e8e15f" x="786.046722" y="472.488344" style="fill: #4c72b0; stroke: #4c72b0"/>
     <use xlink:href="#m8559e8e15f" x="788.24484" y="472.431759" style="fill: #4c72b0; stroke: #4c72b0"/>
     <use xlink:href="#m8559e8e15f" x="790.442958" y="472.617114" style="fill: #4c72b0; stroke: #4c72b0"/>
     <use xlink:href="#m8559e8e15f" x="792.641077" y="472.750328" style="fill: #4c72b0; stroke: #4c72b0"/>
     <use xlink:href="#m8559e8e15f" x="794.839195" y="473.120578" style="fill: #4c72b0; stroke: #4c72b0"/>
     <use xlink:href="#m8559e8e15f" x="797.037313" y="473.056648" style="fill: #4c72b0; stroke: #4c72b0"/>
     <use xlink:href="#m8559e8e15f" x="799.235431" y="473.391716" style="fill: #4c72b0; stroke: #4c72b0"/>
     <use xlink:href="#m8559e8e15f" x="801.433549" y="473.306158" style="fill: #4c72b0; stroke: #4c72b0"/>
     <use xlink:href="#m8559e8e15f" x="803.631667" y="473.358637" style="fill: #4c72b0; stroke: #4c72b0"/>
     <use xlink:href="#m8559e8e15f" x="805.829785" y="473.934957" style="fill: #4c72b0; stroke: #4c72b0"/>
     <use xlink:href="#m8559e8e15f" x="808.027903" y="473.991035" style="fill: #4c72b0; stroke: #4c72b0"/>
     <use xlink:href="#m8559e8e15f" x="810.226021" y="474.260365" style="fill: #4c72b0; stroke: #4c72b0"/>
     <use xlink:href="#m8559e8e15f" x="812.42414" y="473.917284" style="fill: #4c72b0; stroke: #4c72b0"/>
     <use xlink:href="#m8559e8e15f" x="814.622258" y="474.081525" style="fill: #4c72b0; stroke: #4c72b0"/>
     <use xlink:href="#m8559e8e15f" x="816.820376" y="474.101862" style="fill: #4c72b0; stroke: #4c72b0"/>
     <use xlink:href="#m8559e8e15f" x="819.018494" y="474.323255" style="fill: #4c72b0; stroke: #4c72b0"/>
     <use xlink:href="#m8559e8e15f" x="821.216612" y="474.377617" style="fill: #4c72b0; stroke: #4c72b0"/>
     <use xlink:href="#m8559e8e15f" x="823.41473" y="461.448934" style="fill: #4c72b0; stroke: #4c72b0"/>
     <use xlink:href="#m8559e8e15f" x="825.612848" y="461.473564" style="fill: #4c72b0; stroke: #4c72b0"/>
     <use xlink:href="#m8559e8e15f" x="827.810966" y="461.611278" style="fill: #4c72b0; stroke: #4c72b0"/>
    </g>
   </g>
   <g id="patch_18">
    <path d="M 139.8 519.9 
L 139.8 430.078567 
" style="fill: none; stroke: #262626; stroke-width: 1.25; stroke-linejoin: miter; stroke-linecap: square"/>
   </g>
   <g id="patch_19">
    <path d="M 827.810966 519.9 
L 827.810966 430.078567 
" style="fill: none; stroke: #262626; stroke-width: 1.25; stroke-linejoin: miter; stroke-linecap: square"/>
   </g>
   <g id="patch_20">
    <path d="M 139.8 519.9 
L 827.810966 519.9 
" style="fill: none; stroke: #262626; stroke-width: 1.25; stroke-linejoin: miter; stroke-linecap: square"/>
   </g>
   <g id="patch_21">
    <path d="M 139.8 430.078567 
L 827.810966 430.078567 
" style="fill: none; stroke: #262626; stroke-width: 1.25; stroke-linejoin: miter; stroke-linecap: square"/>
   </g>
  </g>
 </g>
 <defs>
  <clipPath id="peaaf4add34">
   <rect x="139.8" y="46.266667" width="688.010966" height="89.821433"/>
  </clipPath>
  <clipPath id="pec1ca4025d">
   <rect x="139.8" y="174.203967" width="688.010966" height="89.821433"/>
  </clipPath>
  <clipPath id="pc7542357d0">
   <rect x="139.8" y="302.141267" width="688.010966" height="89.821433"/>
  </clipPath>
  <clipPath id="p81d9e34165">
   <rect x="139.8" y="430.078567" width="688.010966" height="89.821433"/>
  </clipPath>
 </defs>
</svg>
