<?xml version="1.0" encoding="utf-8" standalone="no"?>
<!DOCTYPE svg PUBLIC "-//W3C//DTD SVG 1.1//EN"
  "http://www.w3.org/Graphics/SVG/1.1/DTD/svg11.dtd">
<svg xmlns:xlink="http://www.w3.org/1999/xlink" width="864pt" height="576pt" viewBox="0 0 864 576" xmlns="http://www.w3.org/2000/svg" version="1.1">
 <metadata>
  <rdf:RDF xmlns:dc="http://purl.org/dc/elements/1.1/" xmlns:cc="http://creativecommons.org/ns#" xmlns:rdf="http://www.w3.org/1999/02/22-rdf-syntax-ns#">
   <cc:Work>
    <dc:type rdf:resource="http://purl.org/dc/dcmitype/StillImage"/>
    <dc:date>2023-07-31T18:56:49.080651</dc:date>
    <dc:format>image/svg+xml</dc:format>
    <dc:creator>
     <cc:Agent>
      <dc:title>Matplotlib v3.7.1, https://matplotlib.org/</dc:title>
     </cc:Agent>
    </dc:creator>
   </cc:Work>
  </rdf:RDF>
 </metadata>
 <defs>
  <style type="text/css">*{stroke-linejoin: round; stroke-linecap: butt}</style>
 </defs>
 <g id="figure_1">
  <g id="patch_1">
   <path d="M 0 576 
L 864 576 
L 864 0 
L 0 0 
z
" style="fill: #ffffff"/>
  </g>
  <g id="axes_1">
   <g id="patch_2">
    <path d="M 128.3625 137.639365 
L 839.7 137.639365 
L 839.7 46.266667 
L 128.3625 46.266667 
z
" style="fill: #ffffff"/>
   </g>
   <g id="matplotlib.axis_1">
    <g id="xtick_1">
     <g id="line2d_1">
      <defs>
       <path id="m8b9cafc461" d="M 0 0 
L 0 6 
" style="stroke: #262626; stroke-width: 1.25"/>
      </defs>
      <g>
       <use xlink:href="#m8b9cafc461" x="246.91875" y="137.639365" style="fill: #262626; stroke: #262626; stroke-width: 1.25"/>
      </g>
     </g>
    </g>
    <g id="xtick_2">
     <g id="line2d_2">
      <g>
       <use xlink:href="#m8b9cafc461" x="365.800704" y="137.639365" style="fill: #262626; stroke: #262626; stroke-width: 1.25"/>
      </g>
     </g>
    </g>
    <g id="xtick_3">
     <g id="line2d_3">
      <g>
       <use xlink:href="#m8b9cafc461" x="484.682658" y="137.639365" style="fill: #262626; stroke: #262626; stroke-width: 1.25"/>
      </g>
     </g>
    </g>
    <g id="xtick_4">
     <g id="line2d_4">
      <g>
       <use xlink:href="#m8b9cafc461" x="603.564612" y="137.639365" style="fill: #262626; stroke: #262626; stroke-width: 1.25"/>
      </g>
     </g>
    </g>
    <g id="xtick_5">
     <g id="line2d_5">
      <g>
       <use xlink:href="#m8b9cafc461" x="722.77227" y="137.639365" style="fill: #262626; stroke: #262626; stroke-width: 1.25"/>
      </g>
     </g>
    </g>
   </g>
   <g id="matplotlib.axis_2">
    <g id="ytick_1">
     <g id="line2d_6">
      <defs>
       <path id="m720b734a8d" d="M 0 0 
L -6 0 
" style="stroke: #262626; stroke-width: 1.25"/>
      </defs>
      <g>
       <use xlink:href="#m720b734a8d" x="128.3625" y="133.486061" style="fill: #262626; stroke: #262626; stroke-width: 1.25"/>
      </g>
     </g>
     <g id="text_1">
      <!-- 0 -->
      <g style="fill: #262626" transform="translate(112.745469 137.422858) scale(0.11 -0.11)">
       <defs>
        <path id="ArialMT-30" d="M 266 2259 
Q 266 3072 433 3567 
Q 600 4063 929 4331 
Q 1259 4600 1759 4600 
Q 2128 4600 2406 4451 
Q 2684 4303 2865 4023 
Q 3047 3744 3150 3342 
Q 3253 2941 3253 2259 
Q 3253 1453 3087 958 
Q 2922 463 2592 192 
Q 2263 -78 1759 -78 
Q 1097 -78 719 397 
Q 266 969 266 2259 
z
M 844 2259 
Q 844 1131 1108 757 
Q 1372 384 1759 384 
Q 2147 384 2411 759 
Q 2675 1134 2675 2259 
Q 2675 3391 2411 3762 
Q 2147 4134 1753 4134 
Q 1366 4134 1134 3806 
Q 844 3388 844 2259 
z
" transform="scale(0.015625)"/>
       </defs>
       <use xlink:href="#ArialMT-30"/>
      </g>
     </g>
    </g>
    <g id="ytick_2">
     <g id="line2d_7">
      <g>
       <use xlink:href="#m720b734a8d" x="128.3625" y="95.981054" style="fill: #262626; stroke: #262626; stroke-width: 1.25"/>
      </g>
     </g>
     <g id="text_2">
      <!-- 10000 -->
      <g style="fill: #262626" transform="translate(88.277344 99.917851) scale(0.11 -0.11)">
       <defs>
        <path id="ArialMT-31" d="M 2384 0 
L 1822 0 
L 1822 3584 
Q 1619 3391 1289 3197 
Q 959 3003 697 2906 
L 697 3450 
Q 1169 3672 1522 3987 
Q 1875 4303 2022 4600 
L 2384 4600 
L 2384 0 
z
" transform="scale(0.015625)"/>
       </defs>
       <use xlink:href="#ArialMT-31"/>
       <use xlink:href="#ArialMT-30" x="55.615234"/>
       <use xlink:href="#ArialMT-30" x="111.230469"/>
       <use xlink:href="#ArialMT-30" x="166.845703"/>
       <use xlink:href="#ArialMT-30" x="222.460938"/>
      </g>
     </g>
    </g>
    <g id="ytick_3">
     <g id="line2d_8">
      <g>
       <use xlink:href="#m720b734a8d" x="128.3625" y="58.476047" style="fill: #262626; stroke: #262626; stroke-width: 1.25"/>
      </g>
     </g>
     <g id="text_3">
      <!-- 20000 -->
      <g style="fill: #262626" transform="translate(88.277344 62.412844) scale(0.11 -0.11)">
       <defs>
        <path id="ArialMT-32" d="M 3222 541 
L 3222 0 
L 194 0 
Q 188 203 259 391 
Q 375 700 629 1000 
Q 884 1300 1366 1694 
Q 2113 2306 2375 2664 
Q 2638 3022 2638 3341 
Q 2638 3675 2398 3904 
Q 2159 4134 1775 4134 
Q 1369 4134 1125 3890 
Q 881 3647 878 3216 
L 300 3275 
Q 359 3922 746 4261 
Q 1134 4600 1788 4600 
Q 2447 4600 2831 4234 
Q 3216 3869 3216 3328 
Q 3216 3053 3103 2787 
Q 2991 2522 2730 2228 
Q 2469 1934 1863 1422 
Q 1356 997 1212 845 
Q 1069 694 975 541 
L 3222 541 
z
" transform="scale(0.015625)"/>
       </defs>
       <use xlink:href="#ArialMT-32"/>
       <use xlink:href="#ArialMT-30" x="55.615234"/>
       <use xlink:href="#ArialMT-30" x="111.230469"/>
       <use xlink:href="#ArialMT-30" x="166.845703"/>
       <use xlink:href="#ArialMT-30" x="222.460938"/>
      </g>
     </g>
    </g>
   </g>
   <g id="line2d_9">
    <path d="M 128.3625 114.94097 
L 130.642428 119.396091 
L 132.922356 120.769978 
L 135.202284 120.907391 
L 137.482212 127.207301 
L 139.762139 128.175352 
L 142.042067 132.533434 
L 144.321995 121.975774 
L 146.601923 113.195852 
L 148.881851 132.822222 
L 153.441707 117.122626 
L 155.721635 126.21384 
L 158.001563 126.322604 
L 160.28149 133.486061 
L 162.561418 116.293766 
L 164.841346 127.008946 
L 167.121274 121.289432 
L 169.401202 132.870979 
L 171.68113 121.49196 
L 173.961058 133.081007 
L 178.520913 124.961173 
L 180.800841 116.706321 
L 183.080769 132.079623 
L 185.360697 123.888529 
L 187.640625 109.636627 
L 192.200481 113.240858 
L 194.480409 61.026387 
L 196.760337 108.721505 
L 199.040264 117.835221 
L 201.320192 131.205756 
L 203.60012 98.842686 
L 205.880048 76.861001 
L 208.159976 131.048235 
L 210.439904 76.313428 
L 212.719832 131.172002 
L 214.99976 102.799464 
L 217.279688 94.420845 
L 219.559615 131.648315 
L 221.839543 84.459516 
L 224.119471 127.158966 
L 228.679327 114.789815 
L 230.959255 94.132057 
L 233.239183 132.165885 
L 235.519111 100.279128 
L 237.799038 132.008363 
L 240.078966 104.134642 
L 242.358894 128.317871 
L 244.638822 98.685165 
L 246.91875 124.297334 
L 249.198678 124.904915 
L 251.478606 126.153832 
L 253.758534 126.097574 
L 256.038462 127.023948 
L 258.318389 127.444004 
L 260.598317 128.546651 
L 262.878245 129.007963 
L 265.158173 130.691938 
L 267.438101 132.893482 
L 269.718029 123.813519 
L 271.997957 132.998496 
L 274.277885 130.061854 
L 276.557813 127.556519 
L 278.83774 130.41065 
L 281.117668 129.454273 
L 283.397596 129.671802 
L 285.677524 128.711673 
L 287.957452 127.511513 
L 290.23738 133.159767 
L 292.517308 127.200222 
L 294.797236 133.066005 
L 297.077163 126.855176 
L 299.357091 130.298135 
L 301.637019 132.533434 
L 303.916947 128.366627 
L 306.196875 120.111775 
L 308.476803 132.799719 
L 310.756731 112.05945 
L 313.036659 128.250362 
L 315.316587 132.443422 
L 317.596514 108.173932 
L 319.876442 131.479543 
L 322.15637 113.045832 
L 324.436298 132.42842 
L 326.716226 105.001008 
L 328.996154 132.462174 
L 331.276082 107.277562 
L 333.55601 132.20339 
L 335.835938 95.797279 
L 338.115865 129.825572 
L 340.395793 132.645949 
L 342.675721 118.787849 
L 344.955649 132.615945 
L 347.235577 108.46272 
L 349.515505 127.834056 
L 354.075361 132.660951 
L 356.355288 106.504959 
L 358.635216 127.815304 
L 360.915144 130.661934 
L 365.475 128.632913 
L 367.754928 128.5354 
L 370.034856 129.420518 
L 372.314784 132.390915 
L 374.594712 128.156599 
L 376.874639 127.744044 
L 379.154567 125.853792 
L 381.434495 128.692921 
L 383.714423 127.297735 
L 406.513702 123.864777 
L 408.79363 127.717791 
L 411.073558 128.130346 
L 413.353486 127.414 
L 415.633413 125.474991 
L 417.913341 124.128562 
L 420.193269 123.284699 
L 424.753125 110.570501 
L 427.033053 114.501026 
L 429.312981 116.492542 
L 431.592909 109.272828 
L 433.872837 110.199202 
L 436.152764 111.770662 
L 438.432692 106.152412 
L 440.71262 113.597156 
L 442.992548 108.931533 
L 445.272476 110.379226 
L 447.552404 94.334584 
L 449.832332 113.574653 
L 452.11226 99.281494 
L 454.392188 106.519961 
L 456.672115 110.405479 
L 458.952043 106.51621 
L 461.231971 106.628725 
L 463.511899 116.312518 
L 465.791827 104.363423 
L 468.071755 102.559432 
L 470.351683 108.061416 
L 472.631611 110.48799 
L 474.911538 107.907646 
L 477.191466 110.03418 
L 479.471394 110.806783 
L 481.751322 116.162498 
L 484.03125 131.622062 
L 486.311178 124.379845 
L 488.591106 117.910231 
L 490.871034 113.40963 
L 493.150962 105.946134 
L 495.430889 112.003193 
L 497.710817 119.732975 
L 499.990745 105.376058 
L 502.270673 132.008363 
L 504.550601 105.327301 
L 506.830529 118.229024 
L 509.110457 118.630327 
L 511.390385 120.805618 
L 513.670313 121.623227 
L 515.95024 112.648279 
L 518.230168 124.781149 
L 522.790024 123.757262 
L 525.069952 125.246211 
L 527.34988 123.108425 
L 529.629808 122.605858 
L 531.909736 119.875494 
L 534.189663 118.784098 
L 536.469591 115.569919 
L 538.749519 111.313101 
L 541.029447 101.790579 
L 543.309375 98.396376 
L 545.589303 79.190062 
L 547.869231 74.982 
L 550.149159 52.681523 
L 554.709014 57.144619 
L 556.988942 55.404387 
L 559.26887 59.991249 
L 561.548798 50.419971 
L 563.828726 56.240748 
L 566.108654 74.873236 
L 568.388582 77.269806 
L 570.66851 83.150591 
L 572.948438 85.558412 
L 575.228365 89.406426 
L 577.508293 91.964267 
L 579.788221 108.702752 
L 582.068149 99.99784 
L 584.348077 103.324534 
L 586.628005 105.739857 
L 588.907933 110.9343 
L 591.187861 111.639394 
L 593.467788 114.144729 
L 595.747716 130.620678 
L 598.027644 99.896576 
L 600.307572 130.211874 
L 602.5875 125.898798 
L 604.867428 116.503794 
L 607.147356 117.876477 
L 609.427284 114.343505 
L 611.707212 118.645329 
L 613.987139 112.003193 
L 616.267067 119.732975 
L 618.546995 118.334038 
L 620.826923 119.050384 
L 623.106851 121.761996 
L 659.585697 130.381396 
L 661.865625 130.249379 
L 664.145553 129.634297 
L 666.425481 130.976976 
L 668.705409 127.882813 
L 670.985337 129.262997 
L 673.265264 130.091858 
L 675.545192 129.773065 
L 677.82512 129.195488 
L 682.384976 121.912016 
L 686.944832 123.2922 
L 689.22476 128.981709 
L 693.784615 127.875312 
L 696.064543 129.345508 
L 702.904327 121.300684 
L 705.184255 128.242861 
L 707.464183 128.542901 
L 709.744111 127.980326 
L 712.024038 126.465123 
L 714.303966 128.340374 
L 716.583894 132.109627 
L 721.14375 131.588307 
L 723.423678 132.417168 
L 725.703606 128.486643 
L 727.983534 126.978942 
L 730.263462 128.119094 
L 732.543389 126.622644 
L 734.823317 133.486061 
L 737.103245 119.811735 
L 739.383173 126.420117 
L 741.663101 127.654032 
L 743.943029 128.141597 
L 746.222957 129.180486 
L 748.502885 128.392881 
L 750.782813 126.892681 
L 753.06274 129.13923 
L 755.342668 129.994345 
L 757.622596 129.604293 
L 764.46238 130.766948 
L 766.742308 129.146731 
L 769.022236 130.391898 
L 771.302163 129.95684 
L 773.582091 130.151866 
L 778.141947 128.351625 
L 780.421875 128.857943 
L 782.701803 128.441637 
L 784.981731 127.744044 
L 787.261659 125.257462 
L 789.541587 126.172584 
L 791.821514 121.698237 
L 794.101442 127.252729 
L 796.38137 124.706139 
L 798.661298 125.805035 
L 800.941226 126.750162 
L 803.221154 126.585139 
L 805.501082 127.597775 
L 807.78101 129.443021 
L 810.060938 128.377879 
L 812.340865 127.822805 
L 814.620793 127.650282 
L 816.900721 127.151465 
L 819.180649 126.146331 
L 821.460577 127.830306 
L 823.740505 125.910049 
L 826.020433 126.855176 
L 828.300361 125.805035 
L 830.580288 125.793784 
L 832.860216 125.46749 
L 835.140144 126.071321 
L 837.420072 127.594024 
L 839.7 127.245228 
L 839.7 127.245228 
" clip-path="url(#p6ca365c18f)" style="fill: none; stroke: #4c72b0; stroke-width: 1.5; stroke-linecap: round"/>
   </g>
   <g id="patch_3">
    <path d="M 128.3625 137.639365 
L 128.3625 46.266667 
" style="fill: none; stroke: #262626; stroke-width: 1.25; stroke-linejoin: miter; stroke-linecap: square"/>
   </g>
   <g id="patch_4">
    <path d="M 839.7 137.639365 
L 839.7 46.266667 
" style="fill: none; stroke: #262626; stroke-width: 1.25; stroke-linejoin: miter; stroke-linecap: square"/>
   </g>
   <g id="patch_5">
    <path d="M 128.3625 137.639365 
L 839.7 137.639365 
" style="fill: none; stroke: #262626; stroke-width: 1.25; stroke-linejoin: miter; stroke-linecap: square"/>
   </g>
   <g id="patch_6">
    <path d="M 128.3625 46.266667 
L 839.7 46.266667 
" style="fill: none; stroke: #262626; stroke-width: 1.25; stroke-linejoin: miter; stroke-linecap: square"/>
   </g>
   <g id="text_4">
    <!-- Dengue -->
    <g style="fill: #262626" transform="translate(463.015312 40.266667) scale(0.12 -0.12)">
     <defs>
      <path id="ArialMT-44" d="M 494 0 
L 494 4581 
L 2072 4581 
Q 2606 4581 2888 4516 
Q 3281 4425 3559 4188 
Q 3922 3881 4101 3404 
Q 4281 2928 4281 2316 
Q 4281 1794 4159 1391 
Q 4038 988 3847 723 
Q 3656 459 3429 307 
Q 3203 156 2883 78 
Q 2563 0 2147 0 
L 494 0 
z
M 1100 541 
L 2078 541 
Q 2531 541 2789 625 
Q 3047 709 3200 863 
Q 3416 1078 3536 1442 
Q 3656 1806 3656 2325 
Q 3656 3044 3420 3430 
Q 3184 3816 2847 3947 
Q 2603 4041 2063 4041 
L 1100 4041 
L 1100 541 
z
" transform="scale(0.015625)"/>
      <path id="ArialMT-65" d="M 2694 1069 
L 3275 997 
Q 3138 488 2766 206 
Q 2394 -75 1816 -75 
Q 1088 -75 661 373 
Q 234 822 234 1631 
Q 234 2469 665 2931 
Q 1097 3394 1784 3394 
Q 2450 3394 2872 2941 
Q 3294 2488 3294 1666 
Q 3294 1616 3291 1516 
L 816 1516 
Q 847 969 1125 678 
Q 1403 388 1819 388 
Q 2128 388 2347 550 
Q 2566 713 2694 1069 
z
M 847 1978 
L 2700 1978 
Q 2663 2397 2488 2606 
Q 2219 2931 1791 2931 
Q 1403 2931 1139 2672 
Q 875 2413 847 1978 
z
" transform="scale(0.015625)"/>
      <path id="ArialMT-6e" d="M 422 0 
L 422 3319 
L 928 3319 
L 928 2847 
Q 1294 3394 1984 3394 
Q 2284 3394 2536 3286 
Q 2788 3178 2913 3003 
Q 3038 2828 3088 2588 
Q 3119 2431 3119 2041 
L 3119 0 
L 2556 0 
L 2556 2019 
Q 2556 2363 2490 2533 
Q 2425 2703 2258 2804 
Q 2091 2906 1866 2906 
Q 1506 2906 1245 2678 
Q 984 2450 984 1813 
L 984 0 
L 422 0 
z
" transform="scale(0.015625)"/>
      <path id="ArialMT-67" d="M 319 -275 
L 866 -356 
Q 900 -609 1056 -725 
Q 1266 -881 1628 -881 
Q 2019 -881 2231 -725 
Q 2444 -569 2519 -288 
Q 2563 -116 2559 434 
Q 2191 0 1641 0 
Q 956 0 581 494 
Q 206 988 206 1678 
Q 206 2153 378 2554 
Q 550 2956 876 3175 
Q 1203 3394 1644 3394 
Q 2231 3394 2613 2919 
L 2613 3319 
L 3131 3319 
L 3131 450 
Q 3131 -325 2973 -648 
Q 2816 -972 2473 -1159 
Q 2131 -1347 1631 -1347 
Q 1038 -1347 672 -1080 
Q 306 -813 319 -275 
z
M 784 1719 
Q 784 1066 1043 766 
Q 1303 466 1694 466 
Q 2081 466 2343 764 
Q 2606 1063 2606 1700 
Q 2606 2309 2336 2618 
Q 2066 2928 1684 2928 
Q 1309 2928 1046 2623 
Q 784 2319 784 1719 
z
" transform="scale(0.015625)"/>
      <path id="ArialMT-75" d="M 2597 0 
L 2597 488 
Q 2209 -75 1544 -75 
Q 1250 -75 995 37 
Q 741 150 617 320 
Q 494 491 444 738 
Q 409 903 409 1263 
L 409 3319 
L 972 3319 
L 972 1478 
Q 972 1038 1006 884 
Q 1059 663 1231 536 
Q 1403 409 1656 409 
Q 1909 409 2131 539 
Q 2353 669 2445 892 
Q 2538 1116 2538 1541 
L 2538 3319 
L 3100 3319 
L 3100 0 
L 2597 0 
z
" transform="scale(0.015625)"/>
     </defs>
     <use xlink:href="#ArialMT-44"/>
     <use xlink:href="#ArialMT-65" x="72.216797"/>
     <use xlink:href="#ArialMT-6e" x="127.832031"/>
     <use xlink:href="#ArialMT-67" x="183.447266"/>
     <use xlink:href="#ArialMT-75" x="239.0625"/>
     <use xlink:href="#ArialMT-65" x="294.677734"/>
    </g>
   </g>
  </g>
  <g id="axes_2">
   <g id="patch_7">
    <path d="M 128.3625 265.059577 
L 839.7 265.059577 
L 839.7 173.686878 
L 128.3625 173.686878 
z
" style="fill: #ffffff"/>
   </g>
   <g id="matplotlib.axis_3">
    <g id="xtick_6">
     <g id="line2d_10">
      <g>
       <use xlink:href="#m8b9cafc461" x="246.91875" y="265.059577" style="fill: #262626; stroke: #262626; stroke-width: 1.25"/>
      </g>
     </g>
    </g>
    <g id="xtick_7">
     <g id="line2d_11">
      <g>
       <use xlink:href="#m8b9cafc461" x="365.800704" y="265.059577" style="fill: #262626; stroke: #262626; stroke-width: 1.25"/>
      </g>
     </g>
    </g>
    <g id="xtick_8">
     <g id="line2d_12">
      <g>
       <use xlink:href="#m8b9cafc461" x="484.682658" y="265.059577" style="fill: #262626; stroke: #262626; stroke-width: 1.25"/>
      </g>
     </g>
    </g>
    <g id="xtick_9">
     <g id="line2d_13">
      <g>
       <use xlink:href="#m8b9cafc461" x="603.564612" y="265.059577" style="fill: #262626; stroke: #262626; stroke-width: 1.25"/>
      </g>
     </g>
    </g>
    <g id="xtick_10">
     <g id="line2d_14">
      <g>
       <use xlink:href="#m8b9cafc461" x="722.77227" y="265.059577" style="fill: #262626; stroke: #262626; stroke-width: 1.25"/>
      </g>
     </g>
    </g>
   </g>
   <g id="matplotlib.axis_4">
    <g id="ytick_4">
     <g id="line2d_15">
      <g>
       <use xlink:href="#m720b734a8d" x="128.3625" y="254.569134" style="fill: #262626; stroke: #262626; stroke-width: 1.25"/>
      </g>
     </g>
     <g id="text_5">
      <!-- 2000 -->
      <g style="fill: #262626" transform="translate(94.394375 258.505931) scale(0.11 -0.11)">
       <use xlink:href="#ArialMT-32"/>
       <use xlink:href="#ArialMT-30" x="55.615234"/>
       <use xlink:href="#ArialMT-30" x="111.230469"/>
       <use xlink:href="#ArialMT-30" x="166.845703"/>
      </g>
     </g>
    </g>
    <g id="ytick_5">
     <g id="line2d_16">
      <g>
       <use xlink:href="#m720b734a8d" x="128.3625" y="230.077811" style="fill: #262626; stroke: #262626; stroke-width: 1.25"/>
      </g>
     </g>
     <g id="text_6">
      <!-- 4000 -->
      <g style="fill: #262626" transform="translate(94.394375 234.014608) scale(0.11 -0.11)">
       <defs>
        <path id="ArialMT-34" d="M 2069 0 
L 2069 1097 
L 81 1097 
L 81 1613 
L 2172 4581 
L 2631 4581 
L 2631 1613 
L 3250 1613 
L 3250 1097 
L 2631 1097 
L 2631 0 
L 2069 0 
z
M 2069 1613 
L 2069 3678 
L 634 1613 
L 2069 1613 
z
" transform="scale(0.015625)"/>
       </defs>
       <use xlink:href="#ArialMT-34"/>
       <use xlink:href="#ArialMT-30" x="55.615234"/>
       <use xlink:href="#ArialMT-30" x="111.230469"/>
       <use xlink:href="#ArialMT-30" x="166.845703"/>
      </g>
     </g>
    </g>
    <g id="ytick_6">
     <g id="line2d_17">
      <g>
       <use xlink:href="#m720b734a8d" x="128.3625" y="205.586487" style="fill: #262626; stroke: #262626; stroke-width: 1.25"/>
      </g>
     </g>
     <g id="text_7">
      <!-- 6000 -->
      <g style="fill: #262626" transform="translate(94.394375 209.523284) scale(0.11 -0.11)">
       <defs>
        <path id="ArialMT-36" d="M 3184 3459 
L 2625 3416 
Q 2550 3747 2413 3897 
Q 2184 4138 1850 4138 
Q 1581 4138 1378 3988 
Q 1113 3794 959 3422 
Q 806 3050 800 2363 
Q 1003 2672 1297 2822 
Q 1591 2972 1913 2972 
Q 2475 2972 2870 2558 
Q 3266 2144 3266 1488 
Q 3266 1056 3080 686 
Q 2894 316 2569 119 
Q 2244 -78 1831 -78 
Q 1128 -78 684 439 
Q 241 956 241 2144 
Q 241 3472 731 4075 
Q 1159 4600 1884 4600 
Q 2425 4600 2770 4297 
Q 3116 3994 3184 3459 
z
M 888 1484 
Q 888 1194 1011 928 
Q 1134 663 1356 523 
Q 1578 384 1822 384 
Q 2178 384 2434 671 
Q 2691 959 2691 1453 
Q 2691 1928 2437 2201 
Q 2184 2475 1800 2475 
Q 1419 2475 1153 2201 
Q 888 1928 888 1484 
z
" transform="scale(0.015625)"/>
       </defs>
       <use xlink:href="#ArialMT-36"/>
       <use xlink:href="#ArialMT-30" x="55.615234"/>
       <use xlink:href="#ArialMT-30" x="111.230469"/>
       <use xlink:href="#ArialMT-30" x="166.845703"/>
      </g>
     </g>
    </g>
    <g id="ytick_7">
     <g id="line2d_18">
      <g>
       <use xlink:href="#m720b734a8d" x="128.3625" y="181.095164" style="fill: #262626; stroke: #262626; stroke-width: 1.25"/>
      </g>
     </g>
     <g id="text_8">
      <!-- 8000 -->
      <g style="fill: #262626" transform="translate(94.394375 185.031961) scale(0.11 -0.11)">
       <defs>
        <path id="ArialMT-38" d="M 1131 2484 
Q 781 2613 612 2850 
Q 444 3088 444 3419 
Q 444 3919 803 4259 
Q 1163 4600 1759 4600 
Q 2359 4600 2725 4251 
Q 3091 3903 3091 3403 
Q 3091 3084 2923 2848 
Q 2756 2613 2416 2484 
Q 2838 2347 3058 2040 
Q 3278 1734 3278 1309 
Q 3278 722 2862 322 
Q 2447 -78 1769 -78 
Q 1091 -78 675 323 
Q 259 725 259 1325 
Q 259 1772 486 2073 
Q 713 2375 1131 2484 
z
M 1019 3438 
Q 1019 3113 1228 2906 
Q 1438 2700 1772 2700 
Q 2097 2700 2305 2904 
Q 2513 3109 2513 3406 
Q 2513 3716 2298 3927 
Q 2084 4138 1766 4138 
Q 1444 4138 1231 3931 
Q 1019 3725 1019 3438 
z
M 838 1322 
Q 838 1081 952 856 
Q 1066 631 1291 507 
Q 1516 384 1775 384 
Q 2178 384 2440 643 
Q 2703 903 2703 1303 
Q 2703 1709 2433 1975 
Q 2163 2241 1756 2241 
Q 1359 2241 1098 1978 
Q 838 1716 838 1322 
z
" transform="scale(0.015625)"/>
       </defs>
       <use xlink:href="#ArialMT-38"/>
       <use xlink:href="#ArialMT-30" x="55.615234"/>
       <use xlink:href="#ArialMT-30" x="111.230469"/>
       <use xlink:href="#ArialMT-30" x="166.845703"/>
      </g>
     </g>
    </g>
    <g id="text_9">
     <!-- Trend -->
     <g style="fill: #262626" transform="translate(88.009375 234.820415) rotate(-90) scale(0.12 -0.12)">
      <defs>
       <path id="ArialMT-54" d="M 1659 0 
L 1659 4041 
L 150 4041 
L 150 4581 
L 3781 4581 
L 3781 4041 
L 2266 4041 
L 2266 0 
L 1659 0 
z
" transform="scale(0.015625)"/>
       <path id="ArialMT-72" d="M 416 0 
L 416 3319 
L 922 3319 
L 922 2816 
Q 1116 3169 1280 3281 
Q 1444 3394 1641 3394 
Q 1925 3394 2219 3213 
L 2025 2691 
Q 1819 2813 1613 2813 
Q 1428 2813 1281 2702 
Q 1134 2591 1072 2394 
Q 978 2094 978 1738 
L 978 0 
L 416 0 
z
" transform="scale(0.015625)"/>
       <path id="ArialMT-64" d="M 2575 0 
L 2575 419 
Q 2259 -75 1647 -75 
Q 1250 -75 917 144 
Q 584 363 401 755 
Q 219 1147 219 1656 
Q 219 2153 384 2558 
Q 550 2963 881 3178 
Q 1213 3394 1622 3394 
Q 1922 3394 2156 3267 
Q 2391 3141 2538 2938 
L 2538 4581 
L 3097 4581 
L 3097 0 
L 2575 0 
z
M 797 1656 
Q 797 1019 1065 703 
Q 1334 388 1700 388 
Q 2069 388 2326 689 
Q 2584 991 2584 1609 
Q 2584 2291 2321 2609 
Q 2059 2928 1675 2928 
Q 1300 2928 1048 2622 
Q 797 2316 797 1656 
z
" transform="scale(0.015625)"/>
      </defs>
      <use xlink:href="#ArialMT-54"/>
      <use xlink:href="#ArialMT-72" x="57.333984"/>
      <use xlink:href="#ArialMT-65" x="90.634766"/>
      <use xlink:href="#ArialMT-6e" x="146.25"/>
      <use xlink:href="#ArialMT-64" x="201.865234"/>
     </g>
    </g>
   </g>
   <g id="line2d_19">
    <path d="M 128.3625 222.776982 
L 142.042067 223.394833 
L 162.561418 224.582183 
L 176.240986 225.764115 
L 187.640625 226.928043 
L 192.200481 227.177244 
L 210.439904 229.30211 
L 224.119471 230.973017 
L 228.679327 231.255542 
L 237.799038 232.484013 
L 240.078966 232.856534 
L 246.91875 235.069094 
L 258.318389 239.060346 
L 269.718029 243.037244 
L 276.557813 245.223019 
L 283.397596 247.131793 
L 287.957452 248.200214 
L 292.517308 249.080383 
L 297.077163 249.762815 
L 301.637019 250.24732 
L 306.196875 250.538339 
L 310.756731 250.635912 
L 315.316587 250.547768 
L 319.876442 250.294982 
L 326.716226 249.64868 
L 333.55601 248.728117 
L 340.395793 247.571774 
L 347.235577 246.195571 
L 354.075361 244.586977 
L 360.915144 242.724632 
L 365.475 242.049126 
L 372.314784 239.867316 
L 379.154567 237.459869 
L 383.714423 235.750695 
L 406.513702 234.873183 
L 420.193269 229.545143 
L 424.753125 228.685384 
L 431.592909 226.222894 
L 438.432692 223.969618 
L 445.272476 221.930676 
L 458.952043 217.963727 
L 463.511899 216.404074 
L 468.071755 214.606532 
L 472.631611 212.530876 
L 477.191466 210.168975 
L 481.751322 207.550567 
L 488.591106 203.261788 
L 506.830529 191.346585 
L 511.390385 188.639015 
L 515.95024 186.15893 
L 520.510096 183.947123 
L 525.069952 182.037401 
L 529.629808 180.462978 
L 534.189663 179.25265 
L 538.749519 178.420088 
L 543.309375 177.958948 
L 547.869231 177.840183 
L 552.429087 178.026281 
L 556.988942 178.492066 
L 561.548798 179.226401 
L 566.108654 180.237474 
L 570.66851 181.549977 
L 575.228365 183.200115 
L 579.788221 185.225622 
L 584.348077 187.652918 
L 588.907933 190.489903 
L 593.467788 193.726177 
L 598.027644 197.345102 
L 602.5875 201.322221 
L 607.147356 205.613383 
L 613.987139 212.499179 
L 623.106851 222.105163 
L 659.585697 224.509581 
L 666.425481 231.534724 
L 670.985337 235.932768 
L 675.545192 239.987772 
L 677.82512 241.861056 
L 686.944832 245.266741 
L 691.504687 248.206983 
L 696.064543 250.707136 
L 702.904327 251.808642 
L 707.464183 253.753287 
L 712.024038 255.40842 
L 716.583894 256.834798 
L 721.14375 257.476291 
L 725.703606 258.635049 
L 732.543389 260.089926 
L 734.823317 260.500738 
L 748.502885 260.749195 
L 762.182452 260.905868 
L 775.862019 260.798709 
L 789.541587 260.462046 
L 810.060938 259.695504 
L 839.7 258.528468 
L 839.7 258.528468 
" clip-path="url(#pa36d6d5b26)" style="fill: none; stroke: #4c72b0; stroke-width: 1.5; stroke-linecap: round"/>
   </g>
   <g id="patch_8">
    <path d="M 128.3625 265.059577 
L 128.3625 173.686878 
" style="fill: none; stroke: #262626; stroke-width: 1.25; stroke-linejoin: miter; stroke-linecap: square"/>
   </g>
   <g id="patch_9">
    <path d="M 839.7 265.059577 
L 839.7 173.686878 
" style="fill: none; stroke: #262626; stroke-width: 1.25; stroke-linejoin: miter; stroke-linecap: square"/>
   </g>
   <g id="patch_10">
    <path d="M 128.3625 265.059577 
L 839.7 265.059577 
" style="fill: none; stroke: #262626; stroke-width: 1.25; stroke-linejoin: miter; stroke-linecap: square"/>
   </g>
   <g id="patch_11">
    <path d="M 128.3625 173.686878 
L 839.7 173.686878 
" style="fill: none; stroke: #262626; stroke-width: 1.25; stroke-linejoin: miter; stroke-linecap: square"/>
   </g>
  </g>
  <g id="axes_3">
   <g id="patch_12">
    <path d="M 128.3625 392.479788 
L 839.7 392.479788 
L 839.7 301.10709 
L 128.3625 301.10709 
z
" style="fill: #ffffff"/>
   </g>
   <g id="matplotlib.axis_5">
    <g id="xtick_11">
     <g id="line2d_20">
      <g>
       <use xlink:href="#m8b9cafc461" x="246.91875" y="392.479788" style="fill: #262626; stroke: #262626; stroke-width: 1.25"/>
      </g>
     </g>
    </g>
    <g id="xtick_12">
     <g id="line2d_21">
      <g>
       <use xlink:href="#m8b9cafc461" x="365.800704" y="392.479788" style="fill: #262626; stroke: #262626; stroke-width: 1.25"/>
      </g>
     </g>
    </g>
    <g id="xtick_13">
     <g id="line2d_22">
      <g>
       <use xlink:href="#m8b9cafc461" x="484.682658" y="392.479788" style="fill: #262626; stroke: #262626; stroke-width: 1.25"/>
      </g>
     </g>
    </g>
    <g id="xtick_14">
     <g id="line2d_23">
      <g>
       <use xlink:href="#m8b9cafc461" x="603.564612" y="392.479788" style="fill: #262626; stroke: #262626; stroke-width: 1.25"/>
      </g>
     </g>
    </g>
    <g id="xtick_15">
     <g id="line2d_24">
      <g>
       <use xlink:href="#m8b9cafc461" x="722.77227" y="392.479788" style="fill: #262626; stroke: #262626; stroke-width: 1.25"/>
      </g>
     </g>
    </g>
   </g>
   <g id="matplotlib.axis_6">
    <g id="ytick_8">
     <g id="line2d_25">
      <g>
       <use xlink:href="#m720b734a8d" x="128.3625" y="364.312969" style="fill: #262626; stroke: #262626; stroke-width: 1.25"/>
      </g>
     </g>
     <g id="text_10">
      <!-- 0 -->
      <g style="fill: #262626" transform="translate(112.745469 368.249766) scale(0.11 -0.11)">
       <use xlink:href="#ArialMT-30"/>
      </g>
     </g>
    </g>
    <g id="ytick_9">
     <g id="line2d_26">
      <g>
       <use xlink:href="#m720b734a8d" x="128.3625" y="334.151101" style="fill: #262626; stroke: #262626; stroke-width: 1.25"/>
      </g>
     </g>
     <g id="text_11">
      <!-- 5000 -->
      <g style="fill: #262626" transform="translate(94.394375 338.087898) scale(0.11 -0.11)">
       <defs>
        <path id="ArialMT-35" d="M 266 1200 
L 856 1250 
Q 922 819 1161 601 
Q 1400 384 1738 384 
Q 2144 384 2425 690 
Q 2706 997 2706 1503 
Q 2706 1984 2436 2262 
Q 2166 2541 1728 2541 
Q 1456 2541 1237 2417 
Q 1019 2294 894 2097 
L 366 2166 
L 809 4519 
L 3088 4519 
L 3088 3981 
L 1259 3981 
L 1013 2750 
Q 1425 3038 1878 3038 
Q 2478 3038 2890 2622 
Q 3303 2206 3303 1553 
Q 3303 931 2941 478 
Q 2500 -78 1738 -78 
Q 1113 -78 717 272 
Q 322 622 266 1200 
z
" transform="scale(0.015625)"/>
       </defs>
       <use xlink:href="#ArialMT-35"/>
       <use xlink:href="#ArialMT-30" x="55.615234"/>
       <use xlink:href="#ArialMT-30" x="111.230469"/>
       <use xlink:href="#ArialMT-30" x="166.845703"/>
      </g>
     </g>
    </g>
    <g id="ytick_10">
     <g id="line2d_27">
      <g>
       <use xlink:href="#m720b734a8d" x="128.3625" y="303.989233" style="fill: #262626; stroke: #262626; stroke-width: 1.25"/>
      </g>
     </g>
     <g id="text_12">
      <!-- 10000 -->
      <g style="fill: #262626" transform="translate(88.277344 307.92603) scale(0.11 -0.11)">
       <use xlink:href="#ArialMT-31"/>
       <use xlink:href="#ArialMT-30" x="55.615234"/>
       <use xlink:href="#ArialMT-30" x="111.230469"/>
       <use xlink:href="#ArialMT-30" x="166.845703"/>
       <use xlink:href="#ArialMT-30" x="222.460938"/>
      </g>
     </g>
    </g>
    <g id="text_13">
     <!-- Season -->
     <g style="fill: #262626" transform="translate(81.892344 367.141877) rotate(-90) scale(0.12 -0.12)">
      <defs>
       <path id="ArialMT-53" d="M 288 1472 
L 859 1522 
Q 900 1178 1048 958 
Q 1197 738 1509 602 
Q 1822 466 2213 466 
Q 2559 466 2825 569 
Q 3091 672 3220 851 
Q 3350 1031 3350 1244 
Q 3350 1459 3225 1620 
Q 3100 1781 2813 1891 
Q 2628 1963 1997 2114 
Q 1366 2266 1113 2400 
Q 784 2572 623 2826 
Q 463 3081 463 3397 
Q 463 3744 659 4045 
Q 856 4347 1234 4503 
Q 1613 4659 2075 4659 
Q 2584 4659 2973 4495 
Q 3363 4331 3572 4012 
Q 3781 3694 3797 3291 
L 3216 3247 
Q 3169 3681 2898 3903 
Q 2628 4125 2100 4125 
Q 1550 4125 1298 3923 
Q 1047 3722 1047 3438 
Q 1047 3191 1225 3031 
Q 1400 2872 2139 2705 
Q 2878 2538 3153 2413 
Q 3553 2228 3743 1945 
Q 3934 1663 3934 1294 
Q 3934 928 3725 604 
Q 3516 281 3123 101 
Q 2731 -78 2241 -78 
Q 1619 -78 1198 103 
Q 778 284 539 648 
Q 300 1013 288 1472 
z
" transform="scale(0.015625)"/>
       <path id="ArialMT-61" d="M 2588 409 
Q 2275 144 1986 34 
Q 1697 -75 1366 -75 
Q 819 -75 525 192 
Q 231 459 231 875 
Q 231 1119 342 1320 
Q 453 1522 633 1644 
Q 813 1766 1038 1828 
Q 1203 1872 1538 1913 
Q 2219 1994 2541 2106 
Q 2544 2222 2544 2253 
Q 2544 2597 2384 2738 
Q 2169 2928 1744 2928 
Q 1347 2928 1158 2789 
Q 969 2650 878 2297 
L 328 2372 
Q 403 2725 575 2942 
Q 747 3159 1072 3276 
Q 1397 3394 1825 3394 
Q 2250 3394 2515 3294 
Q 2781 3194 2906 3042 
Q 3031 2891 3081 2659 
Q 3109 2516 3109 2141 
L 3109 1391 
Q 3109 606 3145 398 
Q 3181 191 3288 0 
L 2700 0 
Q 2613 175 2588 409 
z
M 2541 1666 
Q 2234 1541 1622 1453 
Q 1275 1403 1131 1340 
Q 988 1278 909 1158 
Q 831 1038 831 891 
Q 831 666 1001 516 
Q 1172 366 1500 366 
Q 1825 366 2078 508 
Q 2331 650 2450 897 
Q 2541 1088 2541 1459 
L 2541 1666 
z
" transform="scale(0.015625)"/>
       <path id="ArialMT-73" d="M 197 991 
L 753 1078 
Q 800 744 1014 566 
Q 1228 388 1613 388 
Q 2000 388 2187 545 
Q 2375 703 2375 916 
Q 2375 1106 2209 1216 
Q 2094 1291 1634 1406 
Q 1016 1563 777 1677 
Q 538 1791 414 1992 
Q 291 2194 291 2438 
Q 291 2659 392 2848 
Q 494 3038 669 3163 
Q 800 3259 1026 3326 
Q 1253 3394 1513 3394 
Q 1903 3394 2198 3281 
Q 2494 3169 2634 2976 
Q 2775 2784 2828 2463 
L 2278 2388 
Q 2241 2644 2061 2787 
Q 1881 2931 1553 2931 
Q 1166 2931 1000 2803 
Q 834 2675 834 2503 
Q 834 2394 903 2306 
Q 972 2216 1119 2156 
Q 1203 2125 1616 2013 
Q 2213 1853 2448 1751 
Q 2684 1650 2818 1456 
Q 2953 1263 2953 975 
Q 2953 694 2789 445 
Q 2625 197 2315 61 
Q 2006 -75 1616 -75 
Q 969 -75 630 194 
Q 291 463 197 991 
z
" transform="scale(0.015625)"/>
       <path id="ArialMT-6f" d="M 213 1659 
Q 213 2581 725 3025 
Q 1153 3394 1769 3394 
Q 2453 3394 2887 2945 
Q 3322 2497 3322 1706 
Q 3322 1066 3130 698 
Q 2938 331 2570 128 
Q 2203 -75 1769 -75 
Q 1072 -75 642 372 
Q 213 819 213 1659 
z
M 791 1659 
Q 791 1022 1069 705 
Q 1347 388 1769 388 
Q 2188 388 2466 706 
Q 2744 1025 2744 1678 
Q 2744 2294 2464 2611 
Q 2184 2928 1769 2928 
Q 1347 2928 1069 2612 
Q 791 2297 791 1659 
z
" transform="scale(0.015625)"/>
      </defs>
      <use xlink:href="#ArialMT-53"/>
      <use xlink:href="#ArialMT-65" x="66.699219"/>
      <use xlink:href="#ArialMT-61" x="122.314453"/>
      <use xlink:href="#ArialMT-73" x="177.929688"/>
      <use xlink:href="#ArialMT-6f" x="227.929688"/>
      <use xlink:href="#ArialMT-6e" x="283.544922"/>
     </g>
    </g>
   </g>
   <g id="line2d_28">
    <path d="M 128.3625 349.568956 
L 130.642428 364.919427 
L 132.922356 370.917725 
L 135.202284 371.950423 
L 137.482212 377.185609 
L 139.762139 381.328212 
L 142.042067 381.703553 
L 144.321995 375.697259 
L 146.601923 362.628308 
L 148.881851 385.548436 
L 153.441707 368.497608 
L 155.721635 372.866903 
L 158.001563 379.002384 
L 160.28149 382.701987 
L 162.561418 362.348547 
L 164.841346 376.011167 
L 167.121274 368.845958 
L 169.401202 381.831833 
L 171.68113 368.200099 
L 173.961058 380.721889 
L 176.240986 378.152709 
L 178.520913 371.607521 
L 180.800841 366.713842 
L 183.080769 380.140723 
L 185.360697 373.748178 
L 187.640625 362.443368 
L 192.200481 363.701395 
L 194.480409 305.260394 
L 196.760337 365.010621 
L 199.040264 362.121437 
L 201.320192 385.516015 
L 203.60012 353.583972 
L 205.880048 313.473926 
L 208.159976 388.326484 
L 210.439904 313.02427 
L 212.719832 385.678466 
L 214.99976 336.307267 
L 217.279688 344.956922 
L 219.559615 368.943047 
L 221.839543 331.06805 
L 224.119471 353.766125 
L 228.679327 364.115941 
L 230.959255 341.30794 
L 233.239183 375.230385 
L 235.519111 347.372305 
L 237.799038 368.535187 
L 240.078966 350.987241 
L 242.358894 376.210506 
L 244.638822 356.594779 
L 246.91875 363.205716 
L 249.198678 370.483319 
L 251.478606 372.872084 
L 253.758534 377.149372 
L 256.038462 376.248093 
L 258.318389 383.061773 
L 260.598317 374.384805 
L 262.878245 369.469934 
L 265.158173 382.52809 
L 267.438101 373.451657 
L 269.718029 375.655277 
L 271.997957 378.771327 
L 274.277885 382.243008 
L 276.557813 371.411594 
L 278.83774 379.659813 
L 281.117668 375.523884 
L 283.397596 381.979222 
L 285.677524 373.852386 
L 287.957452 379.872583 
L 290.23738 375.717643 
L 292.517308 371.051898 
L 294.797236 368.955542 
L 297.077163 371.837073 
L 299.357091 368.299829 
L 301.637019 358.468922 
L 303.916947 356.208256 
L 306.196875 318.769898 
L 308.476803 353.886613 
L 310.756731 349.9411 
L 313.036659 360.896806 
L 315.316587 349.779392 
L 317.596514 317.727038 
L 319.876442 366.727295 
L 322.15637 326.905204 
L 324.436298 370.146848 
L 326.716226 339.343662 
L 328.996154 351.54283 
L 331.276082 358.75773 
L 333.55601 341.520686 
L 335.835938 354.132747 
L 338.115865 363.15482 
L 340.395793 351.339549 
L 342.675721 369.334747 
L 344.955649 357.356567 
L 347.235577 367.061897 
L 349.515505 364.950295 
L 351.795433 381.111683 
L 354.075361 361.786284 
L 356.355288 364.093561 
L 358.635216 370.719376 
L 360.915144 373.640943 
L 365.475 377.18583 
L 367.754928 371.270902 
L 370.034856 384.308571 
L 372.314784 372.442106 
L 374.594712 375.903728 
L 376.874639 379.579669 
L 379.154567 378.17123 
L 381.434495 378.042925 
L 383.714423 378.955582 
L 406.513702 382.357188 
L 408.79363 380.073891 
L 411.073558 383.241565 
L 413.353486 381.766826 
L 415.633413 382.21728 
L 417.913341 379.343213 
L 420.193269 379.191782 
L 424.753125 374.481414 
L 427.033053 370.739936 
L 429.312981 371.251251 
L 431.592909 364.849202 
L 433.872837 363.90901 
L 436.152764 355.284155 
L 438.432692 350.071904 
L 440.71262 331.228113 
L 442.992548 344.023522 
L 445.272476 338.592027 
L 447.552404 339.210211 
L 449.832332 346.269832 
L 452.11226 322.482769 
L 454.392188 347.167212 
L 456.672115 340.154971 
L 458.952043 356.305961 
L 461.231971 342.279369 
L 463.511899 357.484346 
L 465.791827 349.350261 
L 468.071755 352.026129 
L 470.351683 354.44477 
L 472.631611 361.848025 
L 474.911538 360.960428 
L 477.191466 363.571856 
L 479.471394 366.746967 
L 481.751322 364.848456 
L 484.03125 376.417455 
L 486.311178 384.513487 
L 488.591106 365.442084 
L 490.871034 369.331186 
L 493.150962 372.917032 
L 495.430889 373.256157 
L 497.710817 376.590167 
L 499.990745 368.64838 
L 502.270673 382.861218 
L 504.550601 369.366281 
L 506.830529 376.728301 
L 509.110457 376.42274 
L 511.390385 377.09984 
L 513.670313 378.108574 
L 515.95024 378.445092 
L 518.230168 381.978324 
L 522.790024 382.982084 
L 525.069952 382.026817 
L 527.34988 380.0587 
L 529.629808 380.287114 
L 531.909736 377.878706 
L 534.189663 372.914884 
L 536.469591 369.177376 
L 538.749519 369.456763 
L 541.029447 363.529936 
L 543.309375 362.887209 
L 545.589303 354.584932 
L 547.869231 350.111465 
L 550.149159 338.149562 
L 552.429087 342.011813 
L 554.709014 340.211601 
L 556.988942 335.374627 
L 559.26887 345.105568 
L 561.548798 331.747767 
L 563.828726 342.492618 
L 566.108654 349.451493 
L 568.388582 352.297604 
L 570.66851 349.056635 
L 572.948438 358.138705 
L 575.228365 351.283448 
L 577.508293 354.618099 
L 579.788221 364.608456 
L 582.068149 356.795329 
L 584.348077 361.864578 
L 586.628005 362.968561 
L 588.907933 367.609998 
L 591.187861 367.369559 
L 593.467788 375.530996 
L 595.747716 380.87611 
L 598.027644 364.540508 
L 600.307572 375.461669 
L 604.867428 370.959682 
L 607.147356 374.055024 
L 609.427284 367.520399 
L 611.707212 377.532105 
L 613.987139 366.2266 
L 616.267067 373.41524 
L 618.546995 372.717022 
L 620.826923 372.787623 
L 623.106851 373.954349 
L 659.585697 375.286131 
L 661.865625 378.321173 
L 664.145553 377.658776 
L 666.425481 376.474165 
L 668.705409 375.66379 
L 670.985337 372.366187 
L 673.265264 375.701467 
L 675.545192 372.700781 
L 677.82512 370.89455 
L 682.384976 367.014853 
L 686.944832 366.313269 
L 689.22476 365.437312 
L 691.504687 365.139205 
L 693.784615 357.84551 
L 696.064543 355.891132 
L 702.904327 345.018332 
L 705.184255 348.296505 
L 707.464183 348.442886 
L 709.744111 346.50513 
L 712.024038 348.532625 
L 714.303966 344.618782 
L 716.583894 348.845947 
L 721.14375 355.043832 
L 723.423678 355.580601 
L 725.703606 355.58884 
L 727.983534 357.982053 
L 730.263462 357.683257 
L 732.543389 355.376362 
L 734.823317 375.61496 
L 737.103245 350.622376 
L 739.383173 361.050211 
L 741.663101 362.53746 
L 743.943029 366.923498 
L 746.222957 369.757869 
L 748.502885 371.538935 
L 750.782813 376.165396 
L 753.06274 360.910051 
L 755.342668 381.561443 
L 757.622596 373.650681 
L 759.902524 368.003424 
L 762.182452 370.202627 
L 764.46238 366.203481 
L 766.742308 369.73592 
L 769.022236 362.713979 
L 771.302163 368.822945 
L 773.582091 367.692921 
L 775.862019 367.035686 
L 778.141947 367.794257 
L 780.421875 371.517285 
L 782.701803 372.861038 
L 784.981731 370.813928 
L 787.261659 368.036392 
L 789.541587 367.118116 
L 791.821514 362.582542 
L 794.101442 369.185423 
L 796.38137 365.671561 
L 798.661298 367.571063 
L 800.941226 363.307978 
L 803.221154 362.253157 
L 805.501082 367.207755 
L 807.78101 367.726018 
L 810.060938 363.119874 
L 812.340865 363.950277 
L 814.620793 355.368273 
L 816.900721 358.715631 
L 819.180649 359.590817 
L 821.460577 361.769622 
L 823.740505 355.540201 
L 826.020433 361.033463 
L 828.300361 359.340702 
L 830.580288 362.257352 
L 832.860216 361.309452 
L 835.140144 362.701493 
L 837.420072 359.413125 
L 839.7 364.370192 
L 839.7 364.370192 
" clip-path="url(#p23b98aa3b0)" style="fill: none; stroke: #4c72b0; stroke-width: 1.5; stroke-linecap: round"/>
   </g>
   <g id="patch_13">
    <path d="M 128.3625 392.479788 
L 128.3625 301.10709 
" style="fill: none; stroke: #262626; stroke-width: 1.25; stroke-linejoin: miter; stroke-linecap: square"/>
   </g>
   <g id="patch_14">
    <path d="M 839.7 392.479788 
L 839.7 301.10709 
" style="fill: none; stroke: #262626; stroke-width: 1.25; stroke-linejoin: miter; stroke-linecap: square"/>
   </g>
   <g id="patch_15">
    <path d="M 128.3625 392.479788 
L 839.7 392.479788 
" style="fill: none; stroke: #262626; stroke-width: 1.25; stroke-linejoin: miter; stroke-linecap: square"/>
   </g>
   <g id="patch_16">
    <path d="M 128.3625 301.10709 
L 839.7 301.10709 
" style="fill: none; stroke: #262626; stroke-width: 1.25; stroke-linejoin: miter; stroke-linecap: square"/>
   </g>
  </g>
  <g id="axes_4">
   <g id="patch_17">
    <path d="M 128.3625 519.9 
L 839.7 519.9 
L 839.7 428.527301 
L 128.3625 428.527301 
z
" style="fill: #ffffff"/>
   </g>
   <g id="line2d_29">
    <path d="M 128.3625 481.518445 
L 839.7 481.518445 
" clip-path="url(#pe4383d784b)" style="fill: none; stroke: #000000; stroke-width: 1.5; stroke-linecap: round"/>
   </g>
   <g id="matplotlib.axis_7">
    <g id="xtick_16">
     <g id="line2d_30">
      <g>
       <use xlink:href="#m8b9cafc461" x="246.91875" y="519.9" style="fill: #262626; stroke: #262626; stroke-width: 1.25"/>
      </g>
     </g>
     <g id="text_14">
      <!-- 2017 -->
      <g style="fill: #262626" transform="translate(234.684687 537.273594) scale(0.11 -0.11)">
       <defs>
        <path id="ArialMT-37" d="M 303 3981 
L 303 4522 
L 3269 4522 
L 3269 4084 
Q 2831 3619 2401 2847 
Q 1972 2075 1738 1259 
Q 1569 684 1522 0 
L 944 0 
Q 953 541 1156 1306 
Q 1359 2072 1739 2783 
Q 2119 3494 2547 3981 
L 303 3981 
z
" transform="scale(0.015625)"/>
       </defs>
       <use xlink:href="#ArialMT-32"/>
       <use xlink:href="#ArialMT-30" x="55.615234"/>
       <use xlink:href="#ArialMT-31" x="111.230469"/>
       <use xlink:href="#ArialMT-37" x="166.845703"/>
      </g>
     </g>
    </g>
    <g id="xtick_17">
     <g id="line2d_31">
      <g>
       <use xlink:href="#m8b9cafc461" x="365.800704" y="519.9" style="fill: #262626; stroke: #262626; stroke-width: 1.25"/>
      </g>
     </g>
     <g id="text_15">
      <!-- 2018 -->
      <g style="fill: #262626" transform="translate(353.566641 537.273594) scale(0.11 -0.11)">
       <use xlink:href="#ArialMT-32"/>
       <use xlink:href="#ArialMT-30" x="55.615234"/>
       <use xlink:href="#ArialMT-31" x="111.230469"/>
       <use xlink:href="#ArialMT-38" x="166.845703"/>
      </g>
     </g>
    </g>
    <g id="xtick_18">
     <g id="line2d_32">
      <g>
       <use xlink:href="#m8b9cafc461" x="484.682658" y="519.9" style="fill: #262626; stroke: #262626; stroke-width: 1.25"/>
      </g>
     </g>
     <g id="text_16">
      <!-- 2019 -->
      <g style="fill: #262626" transform="translate(472.448595 537.273594) scale(0.11 -0.11)">
       <defs>
        <path id="ArialMT-39" d="M 350 1059 
L 891 1109 
Q 959 728 1153 556 
Q 1347 384 1650 384 
Q 1909 384 2104 503 
Q 2300 622 2425 820 
Q 2550 1019 2634 1356 
Q 2719 1694 2719 2044 
Q 2719 2081 2716 2156 
Q 2547 1888 2255 1720 
Q 1963 1553 1622 1553 
Q 1053 1553 659 1965 
Q 266 2378 266 3053 
Q 266 3750 677 4175 
Q 1088 4600 1706 4600 
Q 2153 4600 2523 4359 
Q 2894 4119 3086 3673 
Q 3278 3228 3278 2384 
Q 3278 1506 3087 986 
Q 2897 466 2520 194 
Q 2144 -78 1638 -78 
Q 1100 -78 759 220 
Q 419 519 350 1059 
z
M 2653 3081 
Q 2653 3566 2395 3850 
Q 2138 4134 1775 4134 
Q 1400 4134 1122 3828 
Q 844 3522 844 3034 
Q 844 2597 1108 2323 
Q 1372 2050 1759 2050 
Q 2150 2050 2401 2323 
Q 2653 2597 2653 3081 
z
" transform="scale(0.015625)"/>
       </defs>
       <use xlink:href="#ArialMT-32"/>
       <use xlink:href="#ArialMT-30" x="55.615234"/>
       <use xlink:href="#ArialMT-31" x="111.230469"/>
       <use xlink:href="#ArialMT-39" x="166.845703"/>
      </g>
     </g>
    </g>
    <g id="xtick_19">
     <g id="line2d_33">
      <g>
       <use xlink:href="#m8b9cafc461" x="603.564612" y="519.9" style="fill: #262626; stroke: #262626; stroke-width: 1.25"/>
      </g>
     </g>
     <g id="text_17">
      <!-- 2020 -->
      <g style="fill: #262626" transform="translate(591.330549 537.273594) scale(0.11 -0.11)">
       <use xlink:href="#ArialMT-32"/>
       <use xlink:href="#ArialMT-30" x="55.615234"/>
       <use xlink:href="#ArialMT-32" x="111.230469"/>
       <use xlink:href="#ArialMT-30" x="166.845703"/>
      </g>
     </g>
    </g>
    <g id="xtick_20">
     <g id="line2d_34">
      <g>
       <use xlink:href="#m8b9cafc461" x="722.77227" y="519.9" style="fill: #262626; stroke: #262626; stroke-width: 1.25"/>
      </g>
     </g>
     <g id="text_18">
      <!-- 2021 -->
      <g style="fill: #262626" transform="translate(710.538207 537.273594) scale(0.11 -0.11)">
       <use xlink:href="#ArialMT-32"/>
       <use xlink:href="#ArialMT-30" x="55.615234"/>
       <use xlink:href="#ArialMT-32" x="111.230469"/>
       <use xlink:href="#ArialMT-31" x="166.845703"/>
      </g>
     </g>
    </g>
   </g>
   <g id="matplotlib.axis_8">
    <g id="ytick_11">
     <g id="line2d_35">
      <g>
       <use xlink:href="#m720b734a8d" x="128.3625" y="508.628052" style="fill: #262626; stroke: #262626; stroke-width: 1.25"/>
      </g>
     </g>
     <g id="text_19">
      <!-- −5000 -->
      <g style="fill: #262626" transform="translate(87.969687 512.564849) scale(0.11 -0.11)">
       <defs>
        <path id="ArialMT-2212" d="M 3381 1997 
L 356 1997 
L 356 2522 
L 3381 2522 
L 3381 1997 
z
" transform="scale(0.015625)"/>
       </defs>
       <use xlink:href="#ArialMT-2212"/>
       <use xlink:href="#ArialMT-35" x="58.398438"/>
       <use xlink:href="#ArialMT-30" x="114.013672"/>
       <use xlink:href="#ArialMT-30" x="169.628906"/>
       <use xlink:href="#ArialMT-30" x="225.244141"/>
      </g>
     </g>
    </g>
    <g id="ytick_12">
     <g id="line2d_36">
      <g>
       <use xlink:href="#m720b734a8d" x="128.3625" y="481.518445" style="fill: #262626; stroke: #262626; stroke-width: 1.25"/>
      </g>
     </g>
     <g id="text_20">
      <!-- 0 -->
      <g style="fill: #262626" transform="translate(112.745469 485.455241) scale(0.11 -0.11)">
       <use xlink:href="#ArialMT-30"/>
      </g>
     </g>
    </g>
    <g id="ytick_13">
     <g id="line2d_37">
      <g>
       <use xlink:href="#m720b734a8d" x="128.3625" y="454.408837" style="fill: #262626; stroke: #262626; stroke-width: 1.25"/>
      </g>
     </g>
     <g id="text_21">
      <!-- 5000 -->
      <g style="fill: #262626" transform="translate(94.394375 458.345634) scale(0.11 -0.11)">
       <use xlink:href="#ArialMT-35"/>
       <use xlink:href="#ArialMT-30" x="55.615234"/>
       <use xlink:href="#ArialMT-30" x="111.230469"/>
       <use xlink:href="#ArialMT-30" x="166.845703"/>
      </g>
     </g>
    </g>
    <g id="text_22">
     <!-- Resid -->
     <g style="fill: #262626" transform="translate(81.584687 489.553026) rotate(-90) scale(0.12 -0.12)">
      <defs>
       <path id="ArialMT-52" d="M 503 0 
L 503 4581 
L 2534 4581 
Q 3147 4581 3465 4457 
Q 3784 4334 3975 4021 
Q 4166 3709 4166 3331 
Q 4166 2844 3850 2509 
Q 3534 2175 2875 2084 
Q 3116 1969 3241 1856 
Q 3506 1613 3744 1247 
L 4541 0 
L 3778 0 
L 3172 953 
Q 2906 1366 2734 1584 
Q 2563 1803 2427 1890 
Q 2291 1978 2150 2013 
Q 2047 2034 1813 2034 
L 1109 2034 
L 1109 0 
L 503 0 
z
M 1109 2559 
L 2413 2559 
Q 2828 2559 3062 2645 
Q 3297 2731 3419 2920 
Q 3541 3109 3541 3331 
Q 3541 3656 3305 3865 
Q 3069 4075 2559 4075 
L 1109 4075 
L 1109 2559 
z
" transform="scale(0.015625)"/>
       <path id="ArialMT-69" d="M 425 3934 
L 425 4581 
L 988 4581 
L 988 3934 
L 425 3934 
z
M 425 0 
L 425 3319 
L 988 3319 
L 988 0 
L 425 0 
z
" transform="scale(0.015625)"/>
      </defs>
      <use xlink:href="#ArialMT-52"/>
      <use xlink:href="#ArialMT-65" x="72.216797"/>
      <use xlink:href="#ArialMT-73" x="127.832031"/>
      <use xlink:href="#ArialMT-69" x="177.832031"/>
      <use xlink:href="#ArialMT-64" x="200.048828"/>
     </g>
    </g>
   </g>
   <g id="line2d_38">
    <defs>
     <path id="m83248826da" d="M 0 3 
C 0.795609 3 1.55874 2.683901 2.12132 2.12132 
C 2.683901 1.55874 3 0.795609 3 0 
C 3 -0.795609 2.683901 -1.55874 2.12132 -2.12132 
C 1.55874 -2.683901 0.795609 -3 0 -3 
C -0.795609 -3 -1.55874 -2.683901 -2.12132 -2.12132 
C -2.683901 -1.55874 -3 -0.795609 -3 0 
C -3 0.795609 -2.683901 1.55874 -2.12132 2.12132 
C -1.55874 2.683901 -0.795609 3 0 3 
z
" style="stroke: #4c72b0"/>
    </defs>
    <g clip-path="url(#pe4383d784b)">
     <use xlink:href="#m83248826da" x="128.3625" y="492.880882" style="fill: #4c72b0; stroke: #4c72b0"/>
     <use xlink:href="#m83248826da" x="130.642428" y="485.485422" style="fill: #4c72b0; stroke: #4c72b0"/>
     <use xlink:href="#m83248826da" x="132.922356" y="482.038764" style="fill: #4c72b0; stroke: #4c72b0"/>
     <use xlink:href="#m83248826da" x="135.202284" y="481.265057" style="fill: #4c72b0; stroke: #4c72b0"/>
     <use xlink:href="#m83248826da" x="137.482212" y="485.620271" style="fill: #4c72b0; stroke: #4c72b0"/>
     <use xlink:href="#m83248826da" x="139.762139" y="483.246728" style="fill: #4c72b0; stroke: #4c72b0"/>
     <use xlink:href="#m83248826da" x="142.042067" y="489.157209" style="fill: #4c72b0; stroke: #4c72b0"/>
     <use xlink:href="#m83248826da" x="144.321995" y="479.237686" style="fill: #4c72b0; stroke: #4c72b0"/>
     <use xlink:href="#m83248826da" x="146.601923" y="478.233199" style="fill: #4c72b0; stroke: #4c72b0"/>
     <use xlink:href="#m83248826da" x="148.881851" y="485.94428" style="fill: #4c72b0; stroke: #4c72b0"/>
     <use xlink:href="#m83248826da" x="153.441707" y="478.509359" style="fill: #4c72b0; stroke: #4c72b0"/>
     <use xlink:href="#m83248826da" x="155.721635" y="487.657826" style="fill: #4c72b0; stroke: #4c72b0"/>
     <use xlink:href="#m83248826da" x="158.001563" y="482.230277" style="fill: #4c72b0; stroke: #4c72b0"/>
     <use xlink:href="#m83248826da" x="160.28149" y="489.187653" style="fill: #4c72b0; stroke: #4c72b0"/>
     <use xlink:href="#m83248826da" x="162.561418" y="482.550931" style="fill: #4c72b0; stroke: #4c72b0"/>
     <use xlink:href="#m83248826da" x="164.841346" y="485.68184" style="fill: #4c72b0; stroke: #4c72b0"/>
     <use xlink:href="#m83248826da" x="167.121274" y="483.770909" style="fill: #4c72b0; stroke: #4c72b0"/>
     <use xlink:href="#m83248826da" x="169.401202" y="488.756324" style="fill: #4c72b0; stroke: #4c72b0"/>
     <use xlink:href="#m83248826da" x="171.68113" y="484.469668" style="fill: #4c72b0; stroke: #4c72b0"/>
     <use xlink:href="#m83248826da" x="173.961058" y="489.876928" style="fill: #4c72b0; stroke: #4c72b0"/>
     <use xlink:href="#m83248826da" x="176.240986" y="486.10007" style="fill: #4c72b0; stroke: #4c72b0"/>
     <use xlink:href="#m83248826da" x="178.520913" y="486.137948" style="fill: #4c72b0; stroke: #4c72b0"/>
     <use xlink:href="#m83248826da" x="180.800841" y="478.50223" style="fill: #4c72b0; stroke: #4c72b0"/>
     <use xlink:href="#m83248826da" x="183.080769" y="488.555346" style="fill: #4c72b0; stroke: #4c72b0"/>
     <use xlink:href="#m83248826da" x="185.360697" y="482.353764" style="fill: #4c72b0; stroke: #4c72b0"/>
     <use xlink:href="#m83248826da" x="187.640625" y="471.803136" style="fill: #4c72b0; stroke: #4c72b0"/>
     <use xlink:href="#m83248826da" x="192.200481" y="475.772546" style="fill: #4c72b0; stroke: #4c72b0"/>
     <use xlink:href="#m83248826da" x="194.480409" y="452.703209" style="fill: #4c72b0; stroke: #4c72b0"/>
     <use xlink:href="#m83248826da" x="196.760337" y="467.835867" style="fill: #4c72b0; stroke: #4c72b0"/>
     <use xlink:href="#m83248826da" x="199.040264" y="483.492106" style="fill: #4c72b0; stroke: #4c72b0"/>
     <use xlink:href="#m83248826da" x="201.320192" y="481.676761" style="fill: #4c72b0; stroke: #4c72b0"/>
     <use xlink:href="#m83248826da" x="203.60012" y="463.472944" style="fill: #4c72b0; stroke: #4c72b0"/>
     <use xlink:href="#m83248826da" x="205.880048" y="467.626267" style="fill: #4c72b0; stroke: #4c72b0"/>
     <use xlink:href="#m83248826da" x="208.159976" y="478.56356" style="fill: #4c72b0; stroke: #4c72b0"/>
     <use xlink:href="#m83248826da" x="210.439904" y="466.996298" style="fill: #4c72b0; stroke: #4c72b0"/>
     <use xlink:href="#m83248826da" x="212.719832" y="480.878534" style="fill: #4c72b0; stroke: #4c72b0"/>
     <use xlink:href="#m83248826da" x="214.99976" y="484.11389" style="fill: #4c72b0; stroke: #4c72b0"/>
     <use xlink:href="#m83248826da" x="217.279688" y="464.103759" style="fill: #4c72b0; stroke: #4c72b0"/>
     <use xlink:href="#m83248826da" x="219.559615" y="496.239439" style="fill: #4c72b0; stroke: #4c72b0"/>
     <use xlink:href="#m83248826da" x="221.839543" y="461.93926" style="fill: #4c72b0; stroke: #4c72b0"/>
     <use xlink:href="#m83248826da" x="224.119471" y="503.142531" style="fill: #4c72b0; stroke: #4c72b0"/>
     <use xlink:href="#m83248826da" x="228.679327" y="475.833486" style="fill: #4c72b0; stroke: #4c72b0"/>
     <use xlink:href="#m83248826da" x="230.959255" y="466.342494" style="fill: #4c72b0; stroke: #4c72b0"/>
     <use xlink:href="#m83248826da" x="233.239183" y="490.705885" style="fill: #4c72b0; stroke: #4c72b0"/>
     <use xlink:href="#m83248826da" x="235.519111" y="469.510157" style="fill: #4c72b0; stroke: #4c72b0"/>
     <use xlink:href="#m83248826da" x="237.799038" y="496.209571" style="fill: #4c72b0; stroke: #4c72b0"/>
     <use xlink:href="#m83248826da" x="240.078966" y="471.521076" style="fill: #4c72b0; stroke: #4c72b0"/>
     <use xlink:href="#m83248826da" x="242.358894" y="483.494658" style="fill: #4c72b0; stroke: #4c72b0"/>
     <use xlink:href="#m83248826da" x="244.638822" y="457.95969" style="fill: #4c72b0; stroke: #4c72b0"/>
     <use xlink:href="#m83248826da" x="246.91875" y="488.707673" style="fill: #4c72b0; stroke: #4c72b0"/>
     <use xlink:href="#m83248826da" x="249.198678" y="482.700713" style="fill: #4c72b0; stroke: #4c72b0"/>
     <use xlink:href="#m83248826da" x="251.478606" y="482.008816" style="fill: #4c72b0; stroke: #4c72b0"/>
     <use xlink:href="#m83248826da" x="253.758534" y="477.727917" style="fill: #4c72b0; stroke: #4c72b0"/>
     <use xlink:href="#m83248826da" x="256.038462" y="479.519109" style="fill: #4c72b0; stroke: #4c72b0"/>
     <use xlink:href="#m83248826da" x="258.318389" y="473.642784" style="fill: #4c72b0; stroke: #4c72b0"/>
     <use xlink:href="#m83248826da" x="260.598317" y="482.676545" style="fill: #4c72b0; stroke: #4c72b0"/>
     <use xlink:href="#m83248826da" x="262.878245" y="487.403627" style="fill: #4c72b0; stroke: #4c72b0"/>
     <use xlink:href="#m83248826da" x="265.158173" y="477.747478" style="fill: #4c72b0; stroke: #4c72b0"/>
     <use xlink:href="#m83248826da" x="267.438101" y="488.739436" style="fill: #4c72b0; stroke: #4c72b0"/>
     <use xlink:href="#m83248826da" x="269.718029" y="473.290531" style="fill: #4c72b0; stroke: #4c72b0"/>
     <use xlink:href="#m83248826da" x="271.997957" y="483.434771" style="fill: #4c72b0; stroke: #4c72b0"/>
     <use xlink:href="#m83248826da" x="274.277885" y="475.745867" style="fill: #4c72b0; stroke: #4c72b0"/>
     <use xlink:href="#m83248826da" x="276.557813" y="481.548067" style="fill: #4c72b0; stroke: #4c72b0"/>
     <use xlink:href="#m83248826da" x="278.83774" y="477.962967" style="fill: #4c72b0; stroke: #4c72b0"/>
     <use xlink:href="#m83248826da" x="281.117668" y="480.015476" style="fill: #4c72b0; stroke: #4c72b0"/>
     <use xlink:href="#m83248826da" x="283.397596" y="474.262672" style="fill: #4c72b0; stroke: #4c72b0"/>
     <use xlink:href="#m83248826da" x="285.677524" y="479.932585" style="fill: #4c72b0; stroke: #4c72b0"/>
     <use xlink:href="#m83248826da" x="287.957452" y="472.560043" style="fill: #4c72b0; stroke: #4c72b0"/>
     <use xlink:href="#m83248826da" x="290.23738" y="484.254299" style="fill: #4c72b0; stroke: #4c72b0"/>
     <use xlink:href="#m83248826da" x="292.517308" y="479.648385" style="fill: #4c72b0; stroke: #4c72b0"/>
     <use xlink:href="#m83248826da" x="294.797236" y="489.850393" style="fill: #4c72b0; stroke: #4c72b0"/>
     <use xlink:href="#m83248826da" x="297.077163" y="478.141694" style="fill: #4c72b0; stroke: #4c72b0"/>
     <use xlink:href="#m83248826da" x="299.357091" y="486.180192" style="fill: #4c72b0; stroke: #4c72b0"/>
     <use xlink:href="#m83248826da" x="301.637019" y="498.15131" style="fill: #4c72b0; stroke: #4c72b0"/>
     <use xlink:href="#m83248826da" x="303.916947" y="494.08436" style="fill: #4c72b0; stroke: #4c72b0"/>
     <use xlink:href="#m83248826da" x="306.196875" y="515.746696" style="fill: #4c72b0; stroke: #4c72b0"/>
     <use xlink:href="#m83248826da" x="308.476803" y="502.493746" style="fill: #4c72b0; stroke: #4c72b0"/>
     <use xlink:href="#m83248826da" x="310.756731" y="476.045827" style="fill: #4c72b0; stroke: #4c72b0"/>
     <use xlink:href="#m83248826da" x="313.036659" y="489.614985" style="fill: #4c72b0; stroke: #4c72b0"/>
     <use xlink:href="#m83248826da" x="315.316587" y="505.698341" style="fill: #4c72b0; stroke: #4c72b0"/>
     <use xlink:href="#m83248826da" x="317.596514" y="499.46937" style="fill: #4c72b0; stroke: #4c72b0"/>
     <use xlink:href="#m83248826da" x="319.876442" y="489.183988" style="fill: #4c72b0; stroke: #4c72b0"/>
     <use xlink:href="#m83248826da" x="322.15637" y="498.408028" style="fill: #4c72b0; stroke: #4c72b0"/>
     <use xlink:href="#m83248826da" x="324.436298" y="487.65848" style="fill: #4c72b0; stroke: #4c72b0"/>
     <use xlink:href="#m83248826da" x="326.716226" y="475.8039" style="fill: #4c72b0; stroke: #4c72b0"/>
     <use xlink:href="#m83248826da" x="328.996154" y="504.661925" style="fill: #4c72b0; stroke: #4c72b0"/>
     <use xlink:href="#m83248826da" x="331.276082" y="461.904922" style="fill: #4c72b0; stroke: #4c72b0"/>
     <use xlink:href="#m83248826da" x="333.55601" y="513.579969" style="fill: #4c72b0; stroke: #4c72b0"/>
     <use xlink:href="#m83248826da" x="335.835938" y="449.773398" style="fill: #4c72b0; stroke: #4c72b0"/>
     <use xlink:href="#m83248826da" x="338.115865" y="491.028159" style="fill: #4c72b0; stroke: #4c72b0"/>
     <use xlink:href="#m83248826da" x="340.395793" y="505.906508" style="fill: #4c72b0; stroke: #4c72b0"/>
     <use xlink:href="#m83248826da" x="342.675721" y="469.890478" style="fill: #4c72b0; stroke: #4c72b0"/>
     <use xlink:href="#m83248826da" x="344.955649" y="500.850208" style="fill: #4c72b0; stroke: #4c72b0"/>
     <use xlink:href="#m83248826da" x="347.235577" y="457.423981" style="fill: #4c72b0; stroke: #4c72b0"/>
     <use xlink:href="#m83248826da" x="349.515505" y="487.551622" style="fill: #4c72b0; stroke: #4c72b0"/>
     <use xlink:href="#m83248826da" x="351.795433" y="476.749174" style="fill: #4c72b0; stroke: #4c72b0"/>
     <use xlink:href="#m83248826da" x="354.075361" y="497.860185" style="fill: #4c72b0; stroke: #4c72b0"/>
     <use xlink:href="#m83248826da" x="356.355288" y="458.236226" style="fill: #4c72b0; stroke: #4c72b0"/>
     <use xlink:href="#m83248826da" x="358.635216" y="483.363254" style="fill: #4c72b0; stroke: #4c72b0"/>
     <use xlink:href="#m83248826da" x="360.915144" y="485.139864" style="fill: #4c72b0; stroke: #4c72b0"/>
     <use xlink:href="#m83248826da" x="365.475" y="479.319534" style="fill: #4c72b0; stroke: #4c72b0"/>
     <use xlink:href="#m83248826da" x="367.754928" y="484.805446" style="fill: #4c72b0; stroke: #4c72b0"/>
     <use xlink:href="#m83248826da" x="370.034856" y="474.688703" style="fill: #4c72b0; stroke: #4c72b0"/>
     <use xlink:href="#m83248826da" x="372.314784" y="489.982001" style="fill: #4c72b0; stroke: #4c72b0"/>
     <use xlink:href="#m83248826da" x="374.594712" y="481.094085" style="fill: #4c72b0; stroke: #4c72b0"/>
     <use xlink:href="#m83248826da" x="376.874639" y="477.549347" style="fill: #4c72b0; stroke: #4c72b0"/>
     <use xlink:href="#m83248826da" x="379.154567" y="476.44816" style="fill: #4c72b0; stroke: #4c72b0"/>
     <use xlink:href="#m83248826da" x="381.434495" y="481.042387" style="fill: #4c72b0; stroke: #4c72b0"/>
     <use xlink:href="#m83248826da" x="383.714423" y="478.587379" style="fill: #4c72b0; stroke: #4c72b0"/>
     <use xlink:href="#m83248826da" x="406.513702" y="470.955667" style="fill: #4c72b0; stroke: #4c72b0"/>
     <use xlink:href="#m83248826da" x="408.79363" y="478.971075" style="fill: #4c72b0; stroke: #4c72b0"/>
     <use xlink:href="#m83248826da" x="411.073558" y="477.115985" style="fill: #4c72b0; stroke: #4c72b0"/>
     <use xlink:href="#m83248826da" x="413.353486" y="477.802192" style="fill: #4c72b0; stroke: #4c72b0"/>
     <use xlink:href="#m83248826da" x="415.633413" y="474.989251" style="fill: #4c72b0; stroke: #4c72b0"/>
     <use xlink:href="#m83248826da" x="417.913341" y="476.017936" style="fill: #4c72b0; stroke: #4c72b0"/>
     <use xlink:href="#m83248826da" x="420.193269" y="475.321213" style="fill: #4c72b0; stroke: #4c72b0"/>
     <use xlink:href="#m83248826da" x="424.753125" y="461.555265" style="fill: #4c72b0; stroke: #4c72b0"/>
     <use xlink:href="#m83248826da" x="427.033053" y="470.973122" style="fill: #4c72b0; stroke: #4c72b0"/>
     <use xlink:href="#m83248826da" x="429.312981" y="473.756301" style="fill: #4c72b0; stroke: #4c72b0"/>
     <use xlink:href="#m83248826da" x="431.592909" y="469.42705" style="fill: #4c72b0; stroke: #4c72b0"/>
     <use xlink:href="#m83248826da" x="433.872837" y="471.95464" style="fill: #4c72b0; stroke: #4c72b0"/>
     <use xlink:href="#m83248826da" x="436.152764" y="482.311055" style="fill: #4c72b0; stroke: #4c72b0"/>
     <use xlink:href="#m83248826da" x="438.432692" y="479.195572" style="fill: #4c72b0; stroke: #4c72b0"/>
     <use xlink:href="#m83248826da" x="440.71262" y="507.205871" style="fill: #4c72b0; stroke: #4c72b0"/>
     <use xlink:href="#m83248826da" x="442.992548" y="489.260819" style="fill: #4c72b0; stroke: #4c72b0"/>
     <use xlink:href="#m83248826da" x="445.272476" y="496.527005" style="fill: #4c72b0; stroke: #4c72b0"/>
     <use xlink:href="#m83248826da" x="447.552404" y="473.061677" style="fill: #4c72b0; stroke: #4c72b0"/>
     <use xlink:href="#m83248826da" x="449.832332" y="494.81354" style="fill: #4c72b0; stroke: #4c72b0"/>
     <use xlink:href="#m83248826da" x="452.11226" y="495.814523" style="fill: #4c72b0; stroke: #4c72b0"/>
     <use xlink:href="#m83248826da" x="454.392188" y="484.382185" style="fill: #4c72b0; stroke: #4c72b0"/>
     <use xlink:href="#m83248826da" x="456.672115" y="496.601959" style="fill: #4c72b0; stroke: #4c72b0"/>
     <use xlink:href="#m83248826da" x="458.952043" y="476.777488" style="fill: #4c72b0; stroke: #4c72b0"/>
     <use xlink:href="#m83248826da" x="461.231971" y="489.881037" style="fill: #4c72b0; stroke: #4c72b0"/>
     <use xlink:href="#m83248826da" x="463.511899" y="490.570965" style="fill: #4c72b0; stroke: #4c72b0"/>
     <use xlink:href="#m83248826da" x="465.791827" y="480.991106" style="fill: #4c72b0; stroke: #4c72b0"/>
     <use xlink:href="#m83248826da" x="468.071755" y="476.390531" style="fill: #4c72b0; stroke: #4c72b0"/>
     <use xlink:href="#m83248826da" x="470.351683" y="482.614055" style="fill: #4c72b0; stroke: #4c72b0"/>
     <use xlink:href="#m83248826da" x="472.631611" y="479.943537" style="fill: #4c72b0; stroke: #4c72b0"/>
     <use xlink:href="#m83248826da" x="474.911538" y="477.518506" style="fill: #4c72b0; stroke: #4c72b0"/>
     <use xlink:href="#m83248826da" x="477.191466" y="478.783859" style="fill: #4c72b0; stroke: #4c72b0"/>
     <use xlink:href="#m83248826da" x="479.471394" y="477.613744" style="fill: #4c72b0; stroke: #4c72b0"/>
     <use xlink:href="#m83248826da" x="481.751322" y="487.655199" style="fill: #4c72b0; stroke: #4c72b0"/>
     <use xlink:href="#m83248826da" x="484.03125" y="500.221289" style="fill: #4c72b0; stroke: #4c72b0"/>
     <use xlink:href="#m83248826da" x="486.311178" y="483.109113" style="fill: #4c72b0; stroke: #4c72b0"/>
     <use xlink:href="#m83248826da" x="488.591106" y="491.547171" style="fill: #4c72b0; stroke: #4c72b0"/>
     <use xlink:href="#m83248826da" x="490.871034" y="482.206072" style="fill: #4c72b0; stroke: #4c72b0"/>
     <use xlink:href="#m83248826da" x="493.150962" y="468.861799" style="fill: #4c72b0; stroke: #4c72b0"/>
     <use xlink:href="#m83248826da" x="495.430889" y="477.985297" style="fill: #4c72b0; stroke: #4c72b0"/>
     <use xlink:href="#m83248826da" x="497.710817" y="486.834918" style="fill: #4c72b0; stroke: #4c72b0"/>
     <use xlink:href="#m83248826da" x="499.990745" y="473.88525" style="fill: #4c72b0; stroke: #4c72b0"/>
     <use xlink:href="#m83248826da" x="502.270673" y="500.27067" style="fill: #4c72b0; stroke: #4c72b0"/>
     <use xlink:href="#m83248826da" x="504.550601" y="474.474879" style="fill: #4c72b0; stroke: #4c72b0"/>
     <use xlink:href="#m83248826da" x="506.830529" y="487.139543" style="fill: #4c72b0; stroke: #4c72b0"/>
     <use xlink:href="#m83248826da" x="509.110457" y="488.605014" style="fill: #4c72b0; stroke: #4c72b0"/>
     <use xlink:href="#m83248826da" x="511.390385" y="491.729273" style="fill: #4c72b0; stroke: #4c72b0"/>
     <use xlink:href="#m83248826da" x="513.670313" y="492.56748" style="fill: #4c72b0; stroke: #4c72b0"/>
     <use xlink:href="#m83248826da" x="515.95024" y="479.825565" style="fill: #4c72b0; stroke: #4c72b0"/>
     <use xlink:href="#m83248826da" x="518.230168" y="494.695263" style="fill: #4c72b0; stroke: #4c72b0"/>
     <use xlink:href="#m83248826da" x="520.510096" y="493.927807" style="fill: #4c72b0; stroke: #4c72b0"/>
     <use xlink:href="#m83248826da" x="522.790024" y="493.227159" style="fill: #4c72b0; stroke: #4c72b0"/>
     <use xlink:href="#m83248826da" x="525.069952" y="496.643389" style="fill: #4c72b0; stroke: #4c72b0"/>
     <use xlink:href="#m83248826da" x="527.34988" y="495.689838" style="fill: #4c72b0; stroke: #4c72b0"/>
     <use xlink:href="#m83248826da" x="529.629808" y="495.087105" style="fill: #4c72b0; stroke: #4c72b0"/>
     <use xlink:href="#m83248826da" x="531.909736" y="493.593294" style="fill: #4c72b0; stroke: #4c72b0"/>
     <use xlink:href="#m83248826da" x="534.189663" y="496.724244" style="fill: #4c72b0; stroke: #4c72b0"/>
     <use xlink:href="#m83248826da" x="536.469591" y="495.642227" style="fill: #4c72b0; stroke: #4c72b0"/>
     <use xlink:href="#m83248826da" x="538.749519" y="489.400578" style="fill: #4c72b0; stroke: #4c72b0"/>
     <use xlink:href="#m83248826da" x="541.029447" y="481.083437" style="fill: #4c72b0; stroke: #4c72b0"/>
     <use xlink:href="#m83248826da" x="543.309375" y="476.836397" style="fill: #4c72b0; stroke: #4c72b0"/>
     <use xlink:href="#m83248826da" x="545.589303" y="456.576969" style="fill: #4c72b0; stroke: #4c72b0"/>
     <use xlink:href="#m83248826da" x="547.869231" y="454.522816" style="fill: #4c72b0; stroke: #4c72b0"/>
     <use xlink:href="#m83248826da" x="550.149159" y="433.01029" style="fill: #4c72b0; stroke: #4c72b0"/>
     <use xlink:href="#m83248826da" x="552.429087" y="432.680606" style="fill: #4c72b0; stroke: #4c72b0"/>
     <use xlink:href="#m83248826da" x="554.709014" y="437.463682" style="fill: #4c72b0; stroke: #4c72b0"/>
     <use xlink:href="#m83248826da" x="556.988942" y="439.177284" style="fill: #4c72b0; stroke: #4c72b0"/>
     <use xlink:href="#m83248826da" x="559.26887" y="436.914406" style="fill: #4c72b0; stroke: #4c72b0"/>
     <use xlink:href="#m83248826da" x="561.548798" y="434.906251" style="fill: #4c72b0; stroke: #4c72b0"/>
     <use xlink:href="#m83248826da" x="563.828726" y="433.455614" style="fill: #4c72b0; stroke: #4c72b0"/>
     <use xlink:href="#m83248826da" x="566.108654" y="453.897334" style="fill: #4c72b0; stroke: #4c72b0"/>
     <use xlink:href="#m83248826da" x="568.388582" y="454.53085" style="fill: #4c72b0; stroke: #4c72b0"/>
     <use xlink:href="#m83248826da" x="570.66851" y="465.637287" style="fill: #4c72b0; stroke: #4c72b0"/>
     <use xlink:href="#m83248826da" x="572.948438" y="460.609653" style="fill: #4c72b0; stroke: #4c72b0"/>
     <use xlink:href="#m83248826da" x="575.228365" y="471.948965" style="fill: #4c72b0; stroke: #4c72b0"/>
     <use xlink:href="#m83248826da" x="577.508293" y="472.222779" style="fill: #4c72b0; stroke: #4c72b0"/>
     <use xlink:href="#m83248826da" x="579.788221" y="486.971362" style="fill: #4c72b0; stroke: #4c72b0"/>
     <use xlink:href="#m83248826da" x="582.068149" y="480.894863" style="fill: #4c72b0; stroke: #4c72b0"/>
     <use xlink:href="#m83248826da" x="584.348077" y="480.587819" style="fill: #4c72b0; stroke: #4c72b0"/>
     <use xlink:href="#m83248826da" x="586.628005" y="482.48173" style="fill: #4c72b0; stroke: #4c72b0"/>
     <use xlink:href="#m83248826da" x="588.907933" y="485.16878" style="fill: #4c72b0; stroke: #4c72b0"/>
     <use xlink:href="#m83248826da" x="591.187861" y="485.709443" style="fill: #4c72b0; stroke: #4c72b0"/>
     <use xlink:href="#m83248826da" x="593.467788" y="481.257619" style="fill: #4c72b0; stroke: #4c72b0"/>
     <use xlink:href="#m83248826da" x="595.747716" y="499.49139" style="fill: #4c72b0; stroke: #4c72b0"/>
     <use xlink:href="#m83248826da" x="598.027644" y="468.935709" style="fill: #4c72b0; stroke: #4c72b0"/>
     <use xlink:href="#m83248826da" x="600.307572" y="502.083496" style="fill: #4c72b0; stroke: #4c72b0"/>
     <use xlink:href="#m83248826da" x="602.5875" y="496.964185" style="fill: #4c72b0; stroke: #4c72b0"/>
     <use xlink:href="#m83248826da" x="604.867428" y="484.479336" style="fill: #4c72b0; stroke: #4c72b0"/>
     <use xlink:href="#m83248826da" x="607.147356" y="482.715829" style="fill: #4c72b0; stroke: #4c72b0"/>
     <use xlink:href="#m83248826da" x="609.427284" y="482.488004" style="fill: #4c72b0; stroke: #4c72b0"/>
     <use xlink:href="#m83248826da" x="611.707212" y="478.690699" style="fill: #4c72b0; stroke: #4c72b0"/>
     <use xlink:href="#m83248826da" x="613.987139" y="478.212546" style="fill: #4c72b0; stroke: #4c72b0"/>
     <use xlink:href="#m83248826da" x="616.267067" y="481.873454" style="fill: #4c72b0; stroke: #4c72b0"/>
     <use xlink:href="#m83248826da" x="618.546995" y="479.415705" style="fill: #4c72b0; stroke: #4c72b0"/>
     <use xlink:href="#m83248826da" x="620.826923" y="479.319302" style="fill: #4c72b0; stroke: #4c72b0"/>
     <use xlink:href="#m83248826da" x="623.106851" y="481.121483" style="fill: #4c72b0; stroke: #4c72b0"/>
     <use xlink:href="#m83248826da" x="659.585697" y="491.320546" style="fill: #4c72b0; stroke: #4c72b0"/>
     <use xlink:href="#m83248826da" x="661.865625" y="487.347311" style="fill: #4c72b0; stroke: #4c72b0"/>
     <use xlink:href="#m83248826da" x="664.145553" y="486.014744" style="fill: #4c72b0; stroke: #4c72b0"/>
     <use xlink:href="#m83248826da" x="666.425481" y="488.003267" style="fill: #4c72b0; stroke: #4c72b0"/>
     <use xlink:href="#m83248826da" x="668.705409" y="483.2685" style="fill: #4c72b0; stroke: #4c72b0"/>
     <use xlink:href="#m83248826da" x="670.985337" y="487.270426" style="fill: #4c72b0; stroke: #4c72b0"/>
     <use xlink:href="#m83248826da" x="673.265264" y="484.551764" style="fill: #4c72b0; stroke: #4c72b0"/>
     <use xlink:href="#m83248826da" x="675.545192" y="485.911669" style="fill: #4c72b0; stroke: #4c72b0"/>
     <use xlink:href="#m83248826da" x="677.82512" y="485.87072" style="fill: #4c72b0; stroke: #4c72b0"/>
     <use xlink:href="#m83248826da" x="682.384976" y="478.04876" style="fill: #4c72b0; stroke: #4c72b0"/>
     <use xlink:href="#m83248826da" x="686.944832" y="479.946379" style="fill: #4c72b0; stroke: #4c72b0"/>
     <use xlink:href="#m83248826da" x="689.22476" y="488.282363" style="fill: #4c72b0; stroke: #4c72b0"/>
     <use xlink:href="#m83248826da" x="691.504687" y="487.057351" style="fill: #4c72b0; stroke: #4c72b0"/>
     <use xlink:href="#m83248826da" x="693.784615" y="492.304491" style="fill: #4c72b0; stroke: #4c72b0"/>
     <use xlink:href="#m83248826da" x="696.064543" y="495.656015" style="fill: #4c72b0; stroke: #4c72b0"/>
     <use xlink:href="#m83248826da" x="702.904327" y="493.310805" style="fill: #4c72b0; stroke: #4c72b0"/>
     <use xlink:href="#m83248826da" x="705.184255" y="499.951977" style="fill: #4c72b0; stroke: #4c72b0"/>
     <use xlink:href="#m83248826da" x="707.464183" y="499.841515" style="fill: #4c72b0; stroke: #4c72b0"/>
     <use xlink:href="#m83248826da" x="709.744111" y="500.389277" style="fill: #4c72b0; stroke: #4c72b0"/>
     <use xlink:href="#m83248826da" x="712.024038" y="496.024283" style="fill: #4c72b0; stroke: #4c72b0"/>
     <use xlink:href="#m83248826da" x="714.303966" y="501.92596" style="fill: #4c72b0; stroke: #4c72b0"/>
     <use xlink:href="#m83248826da" x="716.583894" y="503.271112" style="fill: #4c72b0; stroke: #4c72b0"/>
     <use xlink:href="#m83248826da" x="721.14375" y="496.662752" style="fill: #4c72b0; stroke: #4c72b0"/>
     <use xlink:href="#m83248826da" x="723.423678" y="497.113284" style="fill: #4c72b0; stroke: #4c72b0"/>
     <use xlink:href="#m83248826da" x="725.703606" y="491.175913" style="fill: #4c72b0; stroke: #4c72b0"/>
     <use xlink:href="#m83248826da" x="727.983534" y="486.614178" style="fill: #4c72b0; stroke: #4c72b0"/>
     <use xlink:href="#m83248826da" x="730.263462" y="488.316276" style="fill: #4c72b0; stroke: #4c72b0"/>
     <use xlink:href="#m83248826da" x="732.543389" y="488.028029" style="fill: #4c72b0; stroke: #4c72b0"/>
     <use xlink:href="#m83248826da" x="734.823317" y="479.57772" style="fill: #4c72b0; stroke: #4c72b0"/>
     <use xlink:href="#m83248826da" x="737.103245" y="482.261512" style="fill: #4c72b0; stroke: #4c72b0"/>
     <use xlink:href="#m83248826da" x="739.383173" y="482.426249" style="fill: #4c72b0; stroke: #4c72b0"/>
     <use xlink:href="#m83248826da" x="741.663101" y="482.853911" style="fill: #4c72b0; stroke: #4c72b0"/>
     <use xlink:href="#m83248826da" x="743.943029" y="479.595427" style="fill: #4c72b0; stroke: #4c72b0"/>
     <use xlink:href="#m83248826da" x="746.222957" y="478.5283" style="fill: #4c72b0; stroke: #4c72b0"/>
     <use xlink:href="#m83248826da" x="748.502885" y="475.768291" style="fill: #4c72b0; stroke: #4c72b0"/>
     <use xlink:href="#m83248826da" x="750.782813" y="469.422457" style="fill: #4c72b0; stroke: #4c72b0"/>
     <use xlink:href="#m83248826da" x="753.06274" y="486.365416" style="fill: #4c72b0; stroke: #4c72b0"/>
     <use xlink:href="#m83248826da" x="755.342668" y="469.026608" style="fill: #4c72b0; stroke: #4c72b0"/>
     <use xlink:href="#m83248826da" x="757.622596" y="475.562673" style="fill: #4c72b0; stroke: #4c72b0"/>
     <use xlink:href="#m83248826da" x="759.902524" y="481.152003" style="fill: #4c72b0; stroke: #4c72b0"/>
     <use xlink:href="#m83248826da" x="762.182452" y="479.762776" style="fill: #4c72b0; stroke: #4c72b0"/>
     <use xlink:href="#m83248826da" x="764.46238" y="483.926347" style="fill: #4c72b0; stroke: #4c72b0"/>
     <use xlink:href="#m83248826da" x="766.742308" y="478.412272" style="fill: #4c72b0; stroke: #4c72b0"/>
     <use xlink:href="#m83248826da" x="769.022236" y="486.530141" style="fill: #4c72b0; stroke: #4c72b0"/>
     <use xlink:href="#m83248826da" x="771.302163" y="480.420061" style="fill: #4c72b0; stroke: #4c72b0"/>
     <use xlink:href="#m83248826da" x="773.582091" y="481.730381" style="fill: #4c72b0; stroke: #4c72b0"/>
     <use xlink:href="#m83248826da" x="775.862019" y="481.013838" style="fill: #4c72b0; stroke: #4c72b0"/>
     <use xlink:href="#m83248826da" x="778.141947" y="479.070989" style="fill: #4c72b0; stroke: #4c72b0"/>
     <use xlink:href="#m83248826da" x="780.421875" y="476.477928" style="fill: #4c72b0; stroke: #4c72b0"/>
     <use xlink:href="#m83248826da" x="782.701803" y="474.692157" style="fill: #4c72b0; stroke: #4c72b0"/>
     <use xlink:href="#m83248826da" x="784.981731" y="475.549898" style="fill: #4c72b0; stroke: #4c72b0"/>
     <use xlink:href="#m83248826da" x="787.261659" y="474.480164" style="fill: #4c72b0; stroke: #4c72b0"/>
     <use xlink:href="#m83248826da" x="789.541587" y="476.659102" style="fill: #4c72b0; stroke: #4c72b0"/>
     <use xlink:href="#m83248826da" x="791.821514" y="474.299901" style="fill: #4c72b0; stroke: #4c72b0"/>
     <use xlink:href="#m83248826da" x="794.101442" y="476.429367" style="fill: #4c72b0; stroke: #4c72b0"/>
     <use xlink:href="#m83248826da" x="796.38137" y="475.941996" style="fill: #4c72b0; stroke: #4c72b0"/>
     <use xlink:href="#m83248826da" x="798.661298" y="475.860532" style="fill: #4c72b0; stroke: #4c72b0"/>
     <use xlink:href="#m83248826da" x="800.941226" y="481.096885" style="fill: #4c72b0; stroke: #4c72b0"/>
     <use xlink:href="#m83248826da" x="803.221154" y="481.845708" style="fill: #4c72b0; stroke: #4c72b0"/>
     <use xlink:href="#m83248826da" x="805.501082" y="478.896497" style="fill: #4c72b0; stroke: #4c72b0"/>
     <use xlink:href="#m83248826da" x="807.78101" y="481.138939" style="fill: #4c72b0; stroke: #4c72b0"/>
     <use xlink:href="#m83248826da" x="810.060938" y="483.780224" style="fill: #4c72b0; stroke: #4c72b0"/>
     <use xlink:href="#m83248826da" x="812.340865" y="482.27275" style="fill: #4c72b0; stroke: #4c72b0"/>
     <use xlink:href="#m83248826da" x="814.620793" y="489.778318" style="fill: #4c72b0; stroke: #4c72b0"/>
     <use xlink:href="#m83248826da" x="816.900721" y="486.089975" style="fill: #4c72b0; stroke: #4c72b0"/>
     <use xlink:href="#m83248826da" x="819.180649" y="483.891508" style="fill: #4c72b0; stroke: #4c72b0"/>
     <use xlink:href="#m83248826da" x="821.460577" y="484.408595" style="fill: #4c72b0; stroke: #4c72b0"/>
     <use xlink:href="#m83248826da" x="823.740505" y="487.27221" style="fill: #4c72b0; stroke: #4c72b0"/>
     <use xlink:href="#m83248826da" x="826.020433" y="483.741352" style="fill: #4c72b0; stroke: #4c72b0"/>
     <use xlink:href="#m83248826da" x="828.300361" y="483.784375" style="fill: #4c72b0; stroke: #4c72b0"/>
     <use xlink:href="#m83248826da" x="830.580288" y="481.185781" style="fill: #4c72b0; stroke: #4c72b0"/>
     <use xlink:href="#m83248826da" x="832.860216" y="481.604653" style="fill: #4c72b0; stroke: #4c72b0"/>
     <use xlink:href="#m83248826da" x="835.140144" y="481.264412" style="fill: #4c72b0; stroke: #4c72b0"/>
     <use xlink:href="#m83248826da" x="837.420072" y="486.458684" style="fill: #4c72b0; stroke: #4c72b0"/>
     <use xlink:href="#m83248826da" x="839.7" y="481.535733" style="fill: #4c72b0; stroke: #4c72b0"/>
    </g>
   </g>
   <g id="patch_18">
    <path d="M 128.3625 519.9 
L 128.3625 428.527301 
" style="fill: none; stroke: #262626; stroke-width: 1.25; stroke-linejoin: miter; stroke-linecap: square"/>
   </g>
   <g id="patch_19">
    <path d="M 839.7 519.9 
L 839.7 428.527301 
" style="fill: none; stroke: #262626; stroke-width: 1.25; stroke-linejoin: miter; stroke-linecap: square"/>
   </g>
   <g id="patch_20">
    <path d="M 128.3625 519.9 
L 839.7 519.9 
" style="fill: none; stroke: #262626; stroke-width: 1.25; stroke-linejoin: miter; stroke-linecap: square"/>
   </g>
   <g id="patch_21">
    <path d="M 128.3625 428.527301 
L 839.7 428.527301 
" style="fill: none; stroke: #262626; stroke-width: 1.25; stroke-linejoin: miter; stroke-linecap: square"/>
   </g>
  </g>
 </g>
 <defs>
  <clipPath id="p6ca365c18f">
   <rect x="128.3625" y="46.266667" width="711.3375" height="91.372699"/>
  </clipPath>
  <clipPath id="pa36d6d5b26">
   <rect x="128.3625" y="173.686878" width="711.3375" height="91.372699"/>
  </clipPath>
  <clipPath id="p23b98aa3b0">
   <rect x="128.3625" y="301.10709" width="711.3375" height="91.372699"/>
  </clipPath>
  <clipPath id="pe4383d784b">
   <rect x="128.3625" y="428.527301" width="711.3375" height="91.372699"/>
  </clipPath>
 </defs>
</svg>
