<?xml version="1.0" encoding="utf-8" standalone="no"?>
<!DOCTYPE svg PUBLIC "-//W3C//DTD SVG 1.1//EN"
  "http://www.w3.org/Graphics/SVG/1.1/DTD/svg11.dtd">
<svg xmlns:xlink="http://www.w3.org/1999/xlink" width="864pt" height="576pt" viewBox="0 0 864 576" xmlns="http://www.w3.org/2000/svg" version="1.1">
 <metadata>
  <rdf:RDF xmlns:dc="http://purl.org/dc/elements/1.1/" xmlns:cc="http://creativecommons.org/ns#" xmlns:rdf="http://www.w3.org/1999/02/22-rdf-syntax-ns#">
   <cc:Work>
    <dc:type rdf:resource="http://purl.org/dc/dcmitype/StillImage"/>
    <dc:date>2023-07-30T23:36:48.963853</dc:date>
    <dc:format>image/svg+xml</dc:format>
    <dc:creator>
     <cc:Agent>
      <dc:title>Matplotlib v3.7.1, https://matplotlib.org/</dc:title>
     </cc:Agent>
    </dc:creator>
   </cc:Work>
  </rdf:RDF>
 </metadata>
 <defs>
  <style type="text/css">*{stroke-linejoin: round; stroke-linecap: butt}</style>
 </defs>
 <g id="figure_1">
  <g id="patch_1">
   <path d="M 0 576 
L 864 576 
L 864 0 
L 0 0 
z
" style="fill: #ffffff"/>
  </g>
  <g id="axes_1">
   <g id="patch_2">
    <path d="M 128.3625 140.975 
L 827.993674 140.975 
L 827.993674 46.266667 
L 128.3625 46.266667 
z
" style="fill: #ffffff"/>
   </g>
   <g id="matplotlib.axis_1">
    <g id="xtick_1">
     <g id="line2d_1">
      <defs>
       <path id="m6bb45cc07f" d="M 0 0 
L 0 6 
" style="stroke: #262626; stroke-width: 1.25"/>
      </defs>
      <g>
       <use xlink:href="#m6bb45cc07f" x="233.738259" y="140.975" style="fill: #262626; stroke: #262626; stroke-width: 1.25"/>
      </g>
     </g>
    </g>
    <g id="xtick_2">
     <g id="line2d_2">
      <g>
       <use xlink:href="#m6bb45cc07f" x="350.290234" y="140.975" style="fill: #262626; stroke: #262626; stroke-width: 1.25"/>
      </g>
     </g>
    </g>
    <g id="xtick_3">
     <g id="line2d_3">
      <g>
       <use xlink:href="#m6bb45cc07f" x="466.84221" y="140.975" style="fill: #262626; stroke: #262626; stroke-width: 1.25"/>
      </g>
     </g>
    </g>
    <g id="xtick_4">
     <g id="line2d_4">
      <g>
       <use xlink:href="#m6bb45cc07f" x="583.394185" y="140.975" style="fill: #262626; stroke: #262626; stroke-width: 1.25"/>
      </g>
     </g>
    </g>
    <g id="xtick_5">
     <g id="line2d_5">
      <g>
       <use xlink:href="#m6bb45cc07f" x="700.265481" y="140.975" style="fill: #262626; stroke: #262626; stroke-width: 1.25"/>
      </g>
     </g>
    </g>
    <g id="xtick_6">
     <g id="line2d_6">
      <g>
       <use xlink:href="#m6bb45cc07f" x="816.817457" y="140.975" style="fill: #262626; stroke: #262626; stroke-width: 1.25"/>
      </g>
     </g>
    </g>
   </g>
   <g id="matplotlib.axis_2">
    <g id="ytick_1">
     <g id="line2d_7">
      <defs>
       <path id="m36ad54b1c4" d="M 0 0 
L -6 0 
" style="stroke: #262626; stroke-width: 1.25"/>
      </defs>
      <g>
       <use xlink:href="#m36ad54b1c4" x="128.3625" y="136.686535" style="fill: #262626; stroke: #262626; stroke-width: 1.25"/>
      </g>
     </g>
     <g id="text_1">
      <!-- 0 -->
      <g style="fill: #262626" transform="translate(112.745469 140.623332) scale(0.11 -0.11)">
       <defs>
        <path id="ArialMT-30" d="M 266 2259 
Q 266 3072 433 3567 
Q 600 4063 929 4331 
Q 1259 4600 1759 4600 
Q 2128 4600 2406 4451 
Q 2684 4303 2865 4023 
Q 3047 3744 3150 3342 
Q 3253 2941 3253 2259 
Q 3253 1453 3087 958 
Q 2922 463 2592 192 
Q 2263 -78 1759 -78 
Q 1097 -78 719 397 
Q 266 969 266 2259 
z
M 844 2259 
Q 844 1131 1108 757 
Q 1372 384 1759 384 
Q 2147 384 2411 759 
Q 2675 1134 2675 2259 
Q 2675 3391 2411 3762 
Q 2147 4134 1753 4134 
Q 1366 4134 1134 3806 
Q 844 3388 844 2259 
z
" transform="scale(0.015625)"/>
       </defs>
       <use xlink:href="#ArialMT-30"/>
      </g>
     </g>
    </g>
    <g id="ytick_2">
     <g id="line2d_8">
      <g>
       <use xlink:href="#m36ad54b1c4" x="128.3625" y="103.767978" style="fill: #262626; stroke: #262626; stroke-width: 1.25"/>
      </g>
     </g>
     <g id="text_2">
      <!-- 2000 -->
      <g style="fill: #262626" transform="translate(94.394375 107.704775) scale(0.11 -0.11)">
       <defs>
        <path id="ArialMT-32" d="M 3222 541 
L 3222 0 
L 194 0 
Q 188 203 259 391 
Q 375 700 629 1000 
Q 884 1300 1366 1694 
Q 2113 2306 2375 2664 
Q 2638 3022 2638 3341 
Q 2638 3675 2398 3904 
Q 2159 4134 1775 4134 
Q 1369 4134 1125 3890 
Q 881 3647 878 3216 
L 300 3275 
Q 359 3922 746 4261 
Q 1134 4600 1788 4600 
Q 2447 4600 2831 4234 
Q 3216 3869 3216 3328 
Q 3216 3053 3103 2787 
Q 2991 2522 2730 2228 
Q 2469 1934 1863 1422 
Q 1356 997 1212 845 
Q 1069 694 975 541 
L 3222 541 
z
" transform="scale(0.015625)"/>
       </defs>
       <use xlink:href="#ArialMT-32"/>
       <use xlink:href="#ArialMT-30" x="55.615234"/>
       <use xlink:href="#ArialMT-30" x="111.230469"/>
       <use xlink:href="#ArialMT-30" x="166.845703"/>
      </g>
     </g>
    </g>
    <g id="ytick_3">
     <g id="line2d_9">
      <g>
       <use xlink:href="#m36ad54b1c4" x="128.3625" y="70.849422" style="fill: #262626; stroke: #262626; stroke-width: 1.25"/>
      </g>
     </g>
     <g id="text_3">
      <!-- 4000 -->
      <g style="fill: #262626" transform="translate(94.394375 74.786219) scale(0.11 -0.11)">
       <defs>
        <path id="ArialMT-34" d="M 2069 0 
L 2069 1097 
L 81 1097 
L 81 1613 
L 2172 4581 
L 2631 4581 
L 2631 1613 
L 3250 1613 
L 3250 1097 
L 2631 1097 
L 2631 0 
L 2069 0 
z
M 2069 1613 
L 2069 3678 
L 634 1613 
L 2069 1613 
z
" transform="scale(0.015625)"/>
       </defs>
       <use xlink:href="#ArialMT-34"/>
       <use xlink:href="#ArialMT-30" x="55.615234"/>
       <use xlink:href="#ArialMT-30" x="111.230469"/>
       <use xlink:href="#ArialMT-30" x="166.845703"/>
      </g>
     </g>
    </g>
   </g>
   <g id="line2d_10">
    <path d="M 128.3625 135.468548 
L 130.597743 135.468548 
L 132.832987 135.040607 
L 135.06823 134.810177 
L 137.303473 134.415155 
L 139.538717 134.349318 
L 144.009204 134.102428 
L 146.244447 134.102428 
L 150.714934 133.888458 
L 152.950177 133.361761 
L 164.126394 132.70339 
L 166.361637 132.70339 
L 168.596881 132.110856 
L 175.302611 131.485403 
L 177.537854 131.468944 
L 179.773097 130.728276 
L 182.008341 130.41555 
L 184.243584 130.349713 
L 186.478828 128.934215 
L 188.714071 128.621489 
L 190.949314 128.572111 
L 193.184558 125.642359 
L 195.419801 123.947054 
L 197.655044 123.815379 
L 199.890288 120.457687 
L 202.125531 120.210797 
L 204.360774 120.16142 
L 206.596018 117.87358 
L 211.066505 116.704971 
L 213.301748 116.589756 
L 215.536991 116.112437 
L 217.772235 114.384213 
L 220.007478 112.935796 
L 222.242721 112.17867 
L 224.477965 110.927764 
L 226.713208 110.137719 
L 228.948452 109.726237 
L 231.183695 109.018488 
L 240.124668 136.620698 
L 244.595155 136.11046 
L 246.830398 135.583763 
L 249.065642 134.662044 
L 251.300885 133.263005 
L 253.536129 133.131331 
L 255.771372 133.131331 
L 258.006615 131.732292 
L 260.241859 131.33727 
L 262.477102 131.139758 
L 264.712345 131.139758 
L 266.947589 130.892869 
L 269.182832 129.95469 
L 271.418075 129.938231 
L 273.653319 129.592586 
L 275.888562 129.065889 
L 278.123806 128.407518 
L 280.359049 128.193547 
L 289.300022 126.827427 
L 291.535266 126.251353 
L 293.770509 125.461307 
L 296.005753 124.802936 
L 300.476239 124.770018 
L 304.946726 122.449259 
L 307.181969 121.708592 
L 311.652456 119.108026 
L 313.887699 117.741906 
L 316.122943 117.034157 
L 318.358186 115.026125 
L 320.59343 114.91091 
L 322.828673 113.462493 
L 325.063916 111.750728 
L 327.29916 108.442413 
L 329.534403 108.244902 
L 336.240133 102.039754 
L 338.475377 97.743883 
L 340.71062 96.904459 
L 342.945863 96.789244 
L 345.181107 95.620636 
L 347.41635 88.691279 
L 349.651593 88.197501 
L 351.886837 87.851856 
L 356.357323 135.139363 
L 358.592567 134.448073 
L 360.82781 134.431614 
L 363.063054 132.68693 
L 367.53354 131.353729 
L 369.768784 130.41555 
L 372.004027 129.230482 
L 374.23927 128.555652 
L 396.591704 122.152992 
L 398.826947 121.017302 
L 401.062191 120.984384 
L 403.297434 120.539983 
L 405.532678 119.733478 
L 407.767921 119.568886 
L 410.003164 118.828218 
L 414.473651 111.668432 
L 416.708894 107.701746 
L 418.944138 104.294675 
L 421.179381 103.405874 
L 423.414624 99.998804 
L 425.649868 93.431552 
L 427.885111 89.514243 
L 430.120355 87.967071 
L 432.355598 83.687659 
L 434.590841 83.490148 
L 436.826085 81.185849 
L 439.061328 68.627419 
L 441.296571 68.265315 
L 443.531815 63.097102 
L 445.767058 62.850213 
L 448.002301 59.591275 
L 450.237545 59.47606 
L 452.472788 56.941332 
L 454.708032 56.776739 
L 456.943275 54.851003 
L 459.178518 54.785166 
L 461.413762 53.08986 
L 463.649005 52.941727 
L 465.884248 51.575607 
L 468.119492 51.443933 
L 470.354735 50.571591 
L 477.060465 136.143379 
L 479.295709 135.419171 
L 481.530952 135.238119 
L 483.766195 134.876014 
L 486.001439 133.509894 
L 488.236682 133.493435 
L 490.471925 132.588175 
L 492.707169 132.341286 
L 494.942412 131.863966 
L 497.177656 131.78167 
L 499.412899 131.55124 
L 503.883386 130.859951 
L 508.353872 130.382631 
L 515.059603 129.674882 
L 517.294846 129.329238 
L 521.765333 128.802541 
L 528.471063 127.090776 
L 530.706306 126.629916 
L 535.176793 125.362552 
L 537.412036 124.325617 
L 539.64728 122.646771 
L 544.117766 120.539983 
L 546.35301 119.075107 
L 548.588253 117.248127 
L 550.823496 114.21962 
L 553.05874 110.450445 
L 555.293983 107.83342 
L 557.529226 105.430366 
L 559.76447 103.372956 
L 561.999713 101.611813 
L 564.234957 98.270579 
L 566.4702 95.554799 
L 568.705443 93.6949 
L 570.940687 92.312321 
L 573.17593 91.785624 
L 575.411173 89.942185 
L 579.88166 88.197501 
L 586.58739 85.086698 
L 588.822634 83.457229 
L 591.057877 82.831776 
L 595.528364 136.670076 
L 597.763607 136.34089 
L 599.99885 135.583763 
L 604.469337 133.509894 
L 606.704581 133.493435 
L 608.939824 132.588175 
L 615.645554 131.436025 
L 655.879935 129.592586 
L 658.115178 129.411534 
L 660.350421 128.637948 
L 669.291395 127.518717 
L 673.761882 126.909724 
L 680.467612 125.477767 
L 682.702855 124.424373 
L 684.938098 124.226861 
L 687.173342 123.502653 
L 696.114315 119.075107 
L 700.584802 115.651577 
L 702.820045 109.594563 
L 705.055289 107.998013 
L 707.290532 106.681271 
L 711.761019 105.77601 
L 716.231506 136.554861 
L 718.466749 135.616682 
L 720.701992 135.024148 
L 722.937236 134.053051 
L 725.172479 133.476976 
L 727.407722 132.390663 
L 729.642966 132.127315 
L 731.878209 131.222055 
L 734.113452 130.794113 
L 736.348696 130.086364 
L 738.583939 130.399091 
L 740.819183 129.921772 
L 743.054426 129.658423 
L 745.289669 129.131726 
L 747.524913 128.983593 
L 749.760156 128.654407 
L 754.230643 128.539192 
L 756.465886 128.045414 
L 758.70113 128.045414 
L 760.936373 127.68331 
L 763.171616 127.617473 
L 765.40686 127.107235 
L 767.642103 126.99202 
L 769.877346 125.560063 
L 772.11259 125.527144 
L 774.347833 125.313174 
L 776.583076 124.457291 
L 778.81832 124.342076 
L 781.053563 122.89366 
L 783.288807 122.597393 
L 785.52405 119.2397 
L 787.759293 119.025729 
L 789.994537 118.449655 
L 792.22978 118.416736 
L 794.465023 117.840661 
L 796.700267 117.774824 
L 798.93551 117.478557 
L 801.170753 117.050616 
L 805.64124 116.820186 
L 807.876484 115.207177 
L 810.111727 114.647561 
L 812.34697 114.581724 
L 814.582214 113.824597 
L 816.817457 113.692923 
L 819.0527 112.343262 
L 821.287944 112.079914 
L 823.523187 111.997618 
L 827.993674 111.536758 
L 827.993674 111.536758 
" clip-path="url(#p4154e44a9c)" style="fill: none; stroke: #4c72b0; stroke-width: 1.5; stroke-linecap: round"/>
   </g>
   <g id="patch_3">
    <path d="M 128.3625 140.975 
L 128.3625 46.266667 
" style="fill: none; stroke: #262626; stroke-width: 1.25; stroke-linejoin: miter; stroke-linecap: square"/>
   </g>
   <g id="patch_4">
    <path d="M 827.993674 140.975 
L 827.993674 46.266667 
" style="fill: none; stroke: #262626; stroke-width: 1.25; stroke-linejoin: miter; stroke-linecap: square"/>
   </g>
   <g id="patch_5">
    <path d="M 128.3625 140.975 
L 827.993674 140.975 
" style="fill: none; stroke: #262626; stroke-width: 1.25; stroke-linejoin: miter; stroke-linecap: square"/>
   </g>
   <g id="patch_6">
    <path d="M 128.3625 46.266667 
L 827.993674 46.266667 
" style="fill: none; stroke: #262626; stroke-width: 1.25; stroke-linejoin: miter; stroke-linecap: square"/>
   </g>
   <g id="text_4">
    <!-- Leptospirosis -->
    <g style="fill: #262626" transform="translate(442.827774 40.266667) scale(0.12 -0.12)">
     <defs>
      <path id="ArialMT-4c" d="M 469 0 
L 469 4581 
L 1075 4581 
L 1075 541 
L 3331 541 
L 3331 0 
L 469 0 
z
" transform="scale(0.015625)"/>
      <path id="ArialMT-65" d="M 2694 1069 
L 3275 997 
Q 3138 488 2766 206 
Q 2394 -75 1816 -75 
Q 1088 -75 661 373 
Q 234 822 234 1631 
Q 234 2469 665 2931 
Q 1097 3394 1784 3394 
Q 2450 3394 2872 2941 
Q 3294 2488 3294 1666 
Q 3294 1616 3291 1516 
L 816 1516 
Q 847 969 1125 678 
Q 1403 388 1819 388 
Q 2128 388 2347 550 
Q 2566 713 2694 1069 
z
M 847 1978 
L 2700 1978 
Q 2663 2397 2488 2606 
Q 2219 2931 1791 2931 
Q 1403 2931 1139 2672 
Q 875 2413 847 1978 
z
" transform="scale(0.015625)"/>
      <path id="ArialMT-70" d="M 422 -1272 
L 422 3319 
L 934 3319 
L 934 2888 
Q 1116 3141 1344 3267 
Q 1572 3394 1897 3394 
Q 2322 3394 2647 3175 
Q 2972 2956 3137 2557 
Q 3303 2159 3303 1684 
Q 3303 1175 3120 767 
Q 2938 359 2589 142 
Q 2241 -75 1856 -75 
Q 1575 -75 1351 44 
Q 1128 163 984 344 
L 984 -1272 
L 422 -1272 
z
M 931 1641 
Q 931 1000 1190 694 
Q 1450 388 1819 388 
Q 2194 388 2461 705 
Q 2728 1022 2728 1688 
Q 2728 2322 2467 2637 
Q 2206 2953 1844 2953 
Q 1484 2953 1207 2617 
Q 931 2281 931 1641 
z
" transform="scale(0.015625)"/>
      <path id="ArialMT-74" d="M 1650 503 
L 1731 6 
Q 1494 -44 1306 -44 
Q 1000 -44 831 53 
Q 663 150 594 308 
Q 525 466 525 972 
L 525 2881 
L 113 2881 
L 113 3319 
L 525 3319 
L 525 4141 
L 1084 4478 
L 1084 3319 
L 1650 3319 
L 1650 2881 
L 1084 2881 
L 1084 941 
Q 1084 700 1114 631 
Q 1144 563 1211 522 
Q 1278 481 1403 481 
Q 1497 481 1650 503 
z
" transform="scale(0.015625)"/>
      <path id="ArialMT-6f" d="M 213 1659 
Q 213 2581 725 3025 
Q 1153 3394 1769 3394 
Q 2453 3394 2887 2945 
Q 3322 2497 3322 1706 
Q 3322 1066 3130 698 
Q 2938 331 2570 128 
Q 2203 -75 1769 -75 
Q 1072 -75 642 372 
Q 213 819 213 1659 
z
M 791 1659 
Q 791 1022 1069 705 
Q 1347 388 1769 388 
Q 2188 388 2466 706 
Q 2744 1025 2744 1678 
Q 2744 2294 2464 2611 
Q 2184 2928 1769 2928 
Q 1347 2928 1069 2612 
Q 791 2297 791 1659 
z
" transform="scale(0.015625)"/>
      <path id="ArialMT-73" d="M 197 991 
L 753 1078 
Q 800 744 1014 566 
Q 1228 388 1613 388 
Q 2000 388 2187 545 
Q 2375 703 2375 916 
Q 2375 1106 2209 1216 
Q 2094 1291 1634 1406 
Q 1016 1563 777 1677 
Q 538 1791 414 1992 
Q 291 2194 291 2438 
Q 291 2659 392 2848 
Q 494 3038 669 3163 
Q 800 3259 1026 3326 
Q 1253 3394 1513 3394 
Q 1903 3394 2198 3281 
Q 2494 3169 2634 2976 
Q 2775 2784 2828 2463 
L 2278 2388 
Q 2241 2644 2061 2787 
Q 1881 2931 1553 2931 
Q 1166 2931 1000 2803 
Q 834 2675 834 2503 
Q 834 2394 903 2306 
Q 972 2216 1119 2156 
Q 1203 2125 1616 2013 
Q 2213 1853 2448 1751 
Q 2684 1650 2818 1456 
Q 2953 1263 2953 975 
Q 2953 694 2789 445 
Q 2625 197 2315 61 
Q 2006 -75 1616 -75 
Q 969 -75 630 194 
Q 291 463 197 991 
z
" transform="scale(0.015625)"/>
      <path id="ArialMT-69" d="M 425 3934 
L 425 4581 
L 988 4581 
L 988 3934 
L 425 3934 
z
M 425 0 
L 425 3319 
L 988 3319 
L 988 0 
L 425 0 
z
" transform="scale(0.015625)"/>
      <path id="ArialMT-72" d="M 416 0 
L 416 3319 
L 922 3319 
L 922 2816 
Q 1116 3169 1280 3281 
Q 1444 3394 1641 3394 
Q 1925 3394 2219 3213 
L 2025 2691 
Q 1819 2813 1613 2813 
Q 1428 2813 1281 2702 
Q 1134 2591 1072 2394 
Q 978 2094 978 1738 
L 978 0 
L 416 0 
z
" transform="scale(0.015625)"/>
     </defs>
     <use xlink:href="#ArialMT-4c"/>
     <use xlink:href="#ArialMT-65" x="55.615234"/>
     <use xlink:href="#ArialMT-70" x="111.230469"/>
     <use xlink:href="#ArialMT-74" x="166.845703"/>
     <use xlink:href="#ArialMT-6f" x="194.628906"/>
     <use xlink:href="#ArialMT-73" x="250.244141"/>
     <use xlink:href="#ArialMT-70" x="300.244141"/>
     <use xlink:href="#ArialMT-69" x="355.859375"/>
     <use xlink:href="#ArialMT-72" x="378.076172"/>
     <use xlink:href="#ArialMT-6f" x="411.376953"/>
     <use xlink:href="#ArialMT-73" x="466.992188"/>
     <use xlink:href="#ArialMT-69" x="516.992188"/>
     <use xlink:href="#ArialMT-73" x="539.208984"/>
    </g>
   </g>
  </g>
  <g id="axes_2">
   <g id="patch_7">
    <path d="M 128.3625 267.283333 
L 827.993674 267.283333 
L 827.993674 172.575 
L 128.3625 172.575 
z
" style="fill: #ffffff"/>
   </g>
   <g id="matplotlib.axis_3">
    <g id="xtick_7">
     <g id="line2d_11">
      <g>
       <use xlink:href="#m6bb45cc07f" x="233.738259" y="267.283333" style="fill: #262626; stroke: #262626; stroke-width: 1.25"/>
      </g>
     </g>
    </g>
    <g id="xtick_8">
     <g id="line2d_12">
      <g>
       <use xlink:href="#m6bb45cc07f" x="350.290234" y="267.283333" style="fill: #262626; stroke: #262626; stroke-width: 1.25"/>
      </g>
     </g>
    </g>
    <g id="xtick_9">
     <g id="line2d_13">
      <g>
       <use xlink:href="#m6bb45cc07f" x="466.84221" y="267.283333" style="fill: #262626; stroke: #262626; stroke-width: 1.25"/>
      </g>
     </g>
    </g>
    <g id="xtick_10">
     <g id="line2d_14">
      <g>
       <use xlink:href="#m6bb45cc07f" x="583.394185" y="267.283333" style="fill: #262626; stroke: #262626; stroke-width: 1.25"/>
      </g>
     </g>
    </g>
    <g id="xtick_11">
     <g id="line2d_15">
      <g>
       <use xlink:href="#m6bb45cc07f" x="700.265481" y="267.283333" style="fill: #262626; stroke: #262626; stroke-width: 1.25"/>
      </g>
     </g>
    </g>
    <g id="xtick_12">
     <g id="line2d_16">
      <g>
       <use xlink:href="#m6bb45cc07f" x="816.817457" y="267.283333" style="fill: #262626; stroke: #262626; stroke-width: 1.25"/>
      </g>
     </g>
    </g>
   </g>
   <g id="matplotlib.axis_4">
    <g id="ytick_4">
     <g id="line2d_17">
      <g>
       <use xlink:href="#m36ad54b1c4" x="128.3625" y="234.942208" style="fill: #262626; stroke: #262626; stroke-width: 1.25"/>
      </g>
     </g>
     <g id="text_5">
      <!-- 1000 -->
      <g style="fill: #262626" transform="translate(94.394375 238.879005) scale(0.11 -0.11)">
       <defs>
        <path id="ArialMT-31" d="M 2384 0 
L 1822 0 
L 1822 3584 
Q 1619 3391 1289 3197 
Q 959 3003 697 2906 
L 697 3450 
Q 1169 3672 1522 3987 
Q 1875 4303 2022 4600 
L 2384 4600 
L 2384 0 
z
" transform="scale(0.015625)"/>
       </defs>
       <use xlink:href="#ArialMT-31"/>
       <use xlink:href="#ArialMT-30" x="55.615234"/>
       <use xlink:href="#ArialMT-30" x="111.230469"/>
       <use xlink:href="#ArialMT-30" x="166.845703"/>
      </g>
     </g>
    </g>
    <g id="ytick_5">
     <g id="line2d_18">
      <g>
       <use xlink:href="#m36ad54b1c4" x="128.3625" y="188.001621" style="fill: #262626; stroke: #262626; stroke-width: 1.25"/>
      </g>
     </g>
     <g id="text_6">
      <!-- 2000 -->
      <g style="fill: #262626" transform="translate(94.394375 191.938418) scale(0.11 -0.11)">
       <use xlink:href="#ArialMT-32"/>
       <use xlink:href="#ArialMT-30" x="55.615234"/>
       <use xlink:href="#ArialMT-30" x="111.230469"/>
       <use xlink:href="#ArialMT-30" x="166.845703"/>
      </g>
     </g>
    </g>
    <g id="text_7">
     <!-- Trend -->
     <g style="fill: #262626" transform="translate(88.009375 235.376354) rotate(-90) scale(0.12 -0.12)">
      <defs>
       <path id="ArialMT-54" d="M 1659 0 
L 1659 4041 
L 150 4041 
L 150 4581 
L 3781 4581 
L 3781 4041 
L 2266 4041 
L 2266 0 
L 1659 0 
z
" transform="scale(0.015625)"/>
       <path id="ArialMT-6e" d="M 422 0 
L 422 3319 
L 928 3319 
L 928 2847 
Q 1294 3394 1984 3394 
Q 2284 3394 2536 3286 
Q 2788 3178 2913 3003 
Q 3038 2828 3088 2588 
Q 3119 2431 3119 2041 
L 3119 0 
L 2556 0 
L 2556 2019 
Q 2556 2363 2490 2533 
Q 2425 2703 2258 2804 
Q 2091 2906 1866 2906 
Q 1506 2906 1245 2678 
Q 984 2450 984 1813 
L 984 0 
L 422 0 
z
" transform="scale(0.015625)"/>
       <path id="ArialMT-64" d="M 2575 0 
L 2575 419 
Q 2259 -75 1647 -75 
Q 1250 -75 917 144 
Q 584 363 401 755 
Q 219 1147 219 1656 
Q 219 2153 384 2558 
Q 550 2963 881 3178 
Q 1213 3394 1622 3394 
Q 1922 3394 2156 3267 
Q 2391 3141 2538 2938 
L 2538 4581 
L 3097 4581 
L 3097 0 
L 2575 0 
z
M 797 1656 
Q 797 1019 1065 703 
Q 1334 388 1700 388 
Q 2069 388 2326 689 
Q 2584 991 2584 1609 
Q 2584 2291 2321 2609 
Q 2059 2928 1675 2928 
Q 1300 2928 1048 2622 
Q 797 2316 797 1656 
z
" transform="scale(0.015625)"/>
      </defs>
      <use xlink:href="#ArialMT-54"/>
      <use xlink:href="#ArialMT-72" x="57.333984"/>
      <use xlink:href="#ArialMT-65" x="90.634766"/>
      <use xlink:href="#ArialMT-6e" x="146.25"/>
      <use xlink:href="#ArialMT-64" x="201.865234"/>
     </g>
    </g>
   </g>
   <g id="line2d_19">
    <path d="M 128.3625 262.978409 
L 139.538717 261.382861 
L 144.009204 261.062099 
L 224.477965 249.586937 
L 231.183695 248.720893 
L 242.359912 248.271353 
L 255.771372 247.279151 
L 262.477102 246.456088 
L 266.947589 245.711486 
L 273.653319 244.302835 
L 280.359049 242.584764 
L 287.064779 240.614523 
L 296.005753 237.697239 
L 304.946726 234.51904 
L 311.652456 231.943319 
L 318.358186 229.132607 
L 322.828673 227.0798 
L 327.29916 224.841238 
L 331.769646 222.378725 
L 336.240133 219.658401 
L 340.71062 216.65425 
L 345.181107 213.345595 
L 349.651593 209.729237 
L 351.886837 207.823255 
L 356.357323 205.870951 
L 367.53354 196.030364 
L 372.004027 192.351309 
L 374.23927 190.616955 
L 396.591704 188.965113 
L 401.062191 185.938697 
L 405.532678 183.32053 
L 410.003164 181.142555 
L 414.473651 180.224104 
L 418.944138 178.730796 
L 423.414624 177.689061 
L 427.885111 177.081088 
L 432.355598 176.879924 
L 436.826085 177.051413 
L 441.296571 177.55573 
L 445.767058 178.351288 
L 450.237545 179.39932 
L 454.708032 180.665977 
L 459.178518 182.120619 
L 465.884248 184.603511 
L 470.354735 186.450819 
L 477.060465 187.438452 
L 481.530952 189.559512 
L 486.001439 191.883832 
L 492.707169 195.656942 
L 512.824359 207.260754 
L 519.530089 210.800328 
L 524.000576 212.959468 
L 528.471063 214.915764 
L 532.941549 216.639741 
L 537.412036 218.111772 
L 541.882523 219.324034 
L 546.35301 220.282132 
L 550.823496 221.008954 
L 555.293983 221.54292 
L 561.999713 222.086918 
L 575.411173 222.974744 
L 582.116904 223.718809 
L 588.822634 224.716586 
L 591.057877 225.104426 
L 595.528364 225.523991 
L 599.99885 226.472523 
L 604.469337 227.584098 
L 608.939824 228.860121 
L 615.645554 231.049305 
L 651.409448 231.841433 
L 658.115178 234.361176 
L 669.291395 238.836851 
L 678.232368 240.633001 
L 684.938098 243.212849 
L 687.173342 244.019864 
L 693.879072 244.790634 
L 696.114315 245.51935 
L 700.584802 246.20045 
L 705.055289 247.400633 
L 707.290532 247.912744 
L 725.172479 249.723384 
L 738.583939 247.466444 
L 756.465886 244.312663 
L 767.642103 242.083847 
L 778.81832 239.594427 
L 789.994537 236.850809 
L 801.170753 233.875668 
L 814.582214 230.042475 
L 827.993674 225.971853 
L 827.993674 225.971853 
" clip-path="url(#pd2c8bed223)" style="fill: none; stroke: #4c72b0; stroke-width: 1.5; stroke-linecap: round"/>
   </g>
   <g id="patch_8">
    <path d="M 128.3625 267.283333 
L 128.3625 172.575 
" style="fill: none; stroke: #262626; stroke-width: 1.25; stroke-linejoin: miter; stroke-linecap: square"/>
   </g>
   <g id="patch_9">
    <path d="M 827.993674 267.283333 
L 827.993674 172.575 
" style="fill: none; stroke: #262626; stroke-width: 1.25; stroke-linejoin: miter; stroke-linecap: square"/>
   </g>
   <g id="patch_10">
    <path d="M 128.3625 267.283333 
L 827.993674 267.283333 
" style="fill: none; stroke: #262626; stroke-width: 1.25; stroke-linejoin: miter; stroke-linecap: square"/>
   </g>
   <g id="patch_11">
    <path d="M 128.3625 172.575 
L 827.993674 172.575 
" style="fill: none; stroke: #262626; stroke-width: 1.25; stroke-linejoin: miter; stroke-linecap: square"/>
   </g>
  </g>
  <g id="axes_3">
   <g id="patch_12">
    <path d="M 128.3625 393.591667 
L 827.993674 393.591667 
L 827.993674 298.883333 
L 128.3625 298.883333 
z
" style="fill: #ffffff"/>
   </g>
   <g id="matplotlib.axis_5">
    <g id="xtick_13">
     <g id="line2d_20">
      <g>
       <use xlink:href="#m6bb45cc07f" x="233.738259" y="393.591667" style="fill: #262626; stroke: #262626; stroke-width: 1.25"/>
      </g>
     </g>
    </g>
    <g id="xtick_14">
     <g id="line2d_21">
      <g>
       <use xlink:href="#m6bb45cc07f" x="350.290234" y="393.591667" style="fill: #262626; stroke: #262626; stroke-width: 1.25"/>
      </g>
     </g>
    </g>
    <g id="xtick_15">
     <g id="line2d_22">
      <g>
       <use xlink:href="#m6bb45cc07f" x="466.84221" y="393.591667" style="fill: #262626; stroke: #262626; stroke-width: 1.25"/>
      </g>
     </g>
    </g>
    <g id="xtick_16">
     <g id="line2d_23">
      <g>
       <use xlink:href="#m6bb45cc07f" x="583.394185" y="393.591667" style="fill: #262626; stroke: #262626; stroke-width: 1.25"/>
      </g>
     </g>
    </g>
    <g id="xtick_17">
     <g id="line2d_24">
      <g>
       <use xlink:href="#m6bb45cc07f" x="700.265481" y="393.591667" style="fill: #262626; stroke: #262626; stroke-width: 1.25"/>
      </g>
     </g>
    </g>
    <g id="xtick_18">
     <g id="line2d_25">
      <g>
       <use xlink:href="#m6bb45cc07f" x="816.817457" y="393.591667" style="fill: #262626; stroke: #262626; stroke-width: 1.25"/>
      </g>
     </g>
    </g>
   </g>
   <g id="matplotlib.axis_6">
    <g id="ytick_6">
     <g id="line2d_26">
      <g>
       <use xlink:href="#m36ad54b1c4" x="128.3625" y="382.206255" style="fill: #262626; stroke: #262626; stroke-width: 1.25"/>
      </g>
     </g>
     <g id="text_8">
      <!-- −1000 -->
      <g style="fill: #262626" transform="translate(87.969687 386.143052) scale(0.11 -0.11)">
       <defs>
        <path id="ArialMT-2212" d="M 3381 1997 
L 356 1997 
L 356 2522 
L 3381 2522 
L 3381 1997 
z
" transform="scale(0.015625)"/>
       </defs>
       <use xlink:href="#ArialMT-2212"/>
       <use xlink:href="#ArialMT-31" x="58.398438"/>
       <use xlink:href="#ArialMT-30" x="114.013672"/>
       <use xlink:href="#ArialMT-30" x="169.628906"/>
       <use xlink:href="#ArialMT-30" x="225.244141"/>
      </g>
     </g>
    </g>
    <g id="ytick_7">
     <g id="line2d_27">
      <g>
       <use xlink:href="#m36ad54b1c4" x="128.3625" y="352.659713" style="fill: #262626; stroke: #262626; stroke-width: 1.25"/>
      </g>
     </g>
     <g id="text_9">
      <!-- 0 -->
      <g style="fill: #262626" transform="translate(112.745469 356.59651) scale(0.11 -0.11)">
       <use xlink:href="#ArialMT-30"/>
      </g>
     </g>
    </g>
    <g id="ytick_8">
     <g id="line2d_28">
      <g>
       <use xlink:href="#m36ad54b1c4" x="128.3625" y="323.113172" style="fill: #262626; stroke: #262626; stroke-width: 1.25"/>
      </g>
     </g>
     <g id="text_10">
      <!-- 1000 -->
      <g style="fill: #262626" transform="translate(94.394375 327.049969) scale(0.11 -0.11)">
       <use xlink:href="#ArialMT-31"/>
       <use xlink:href="#ArialMT-30" x="55.615234"/>
       <use xlink:href="#ArialMT-30" x="111.230469"/>
       <use xlink:href="#ArialMT-30" x="166.845703"/>
      </g>
     </g>
    </g>
    <g id="text_11">
     <!-- Season -->
     <g style="fill: #262626" transform="translate(81.584687 366.585937) rotate(-90) scale(0.12 -0.12)">
      <defs>
       <path id="ArialMT-53" d="M 288 1472 
L 859 1522 
Q 900 1178 1048 958 
Q 1197 738 1509 602 
Q 1822 466 2213 466 
Q 2559 466 2825 569 
Q 3091 672 3220 851 
Q 3350 1031 3350 1244 
Q 3350 1459 3225 1620 
Q 3100 1781 2813 1891 
Q 2628 1963 1997 2114 
Q 1366 2266 1113 2400 
Q 784 2572 623 2826 
Q 463 3081 463 3397 
Q 463 3744 659 4045 
Q 856 4347 1234 4503 
Q 1613 4659 2075 4659 
Q 2584 4659 2973 4495 
Q 3363 4331 3572 4012 
Q 3781 3694 3797 3291 
L 3216 3247 
Q 3169 3681 2898 3903 
Q 2628 4125 2100 4125 
Q 1550 4125 1298 3923 
Q 1047 3722 1047 3438 
Q 1047 3191 1225 3031 
Q 1400 2872 2139 2705 
Q 2878 2538 3153 2413 
Q 3553 2228 3743 1945 
Q 3934 1663 3934 1294 
Q 3934 928 3725 604 
Q 3516 281 3123 101 
Q 2731 -78 2241 -78 
Q 1619 -78 1198 103 
Q 778 284 539 648 
Q 300 1013 288 1472 
z
" transform="scale(0.015625)"/>
       <path id="ArialMT-61" d="M 2588 409 
Q 2275 144 1986 34 
Q 1697 -75 1366 -75 
Q 819 -75 525 192 
Q 231 459 231 875 
Q 231 1119 342 1320 
Q 453 1522 633 1644 
Q 813 1766 1038 1828 
Q 1203 1872 1538 1913 
Q 2219 1994 2541 2106 
Q 2544 2222 2544 2253 
Q 2544 2597 2384 2738 
Q 2169 2928 1744 2928 
Q 1347 2928 1158 2789 
Q 969 2650 878 2297 
L 328 2372 
Q 403 2725 575 2942 
Q 747 3159 1072 3276 
Q 1397 3394 1825 3394 
Q 2250 3394 2515 3294 
Q 2781 3194 2906 3042 
Q 3031 2891 3081 2659 
Q 3109 2516 3109 2141 
L 3109 1391 
Q 3109 606 3145 398 
Q 3181 191 3288 0 
L 2700 0 
Q 2613 175 2588 409 
z
M 2541 1666 
Q 2234 1541 1622 1453 
Q 1275 1403 1131 1340 
Q 988 1278 909 1158 
Q 831 1038 831 891 
Q 831 666 1001 516 
Q 1172 366 1500 366 
Q 1825 366 2078 508 
Q 2331 650 2450 897 
Q 2541 1088 2541 1459 
L 2541 1666 
z
" transform="scale(0.015625)"/>
      </defs>
      <use xlink:href="#ArialMT-53"/>
      <use xlink:href="#ArialMT-65" x="66.699219"/>
      <use xlink:href="#ArialMT-61" x="122.314453"/>
      <use xlink:href="#ArialMT-73" x="177.929688"/>
      <use xlink:href="#ArialMT-6f" x="227.929688"/>
      <use xlink:href="#ArialMT-6e" x="283.544922"/>
     </g>
    </g>
   </g>
   <g id="line2d_29">
    <path d="M 128.3625 357.507782 
L 130.597743 364.257637 
L 135.06823 362.840408 
L 137.303473 362.421226 
L 139.538717 362.783378 
L 144.009204 361.928973 
L 148.47969 362.084732 
L 150.714934 362.514818 
L 152.950177 361.290103 
L 155.18542 360.775953 
L 157.420664 361.155551 
L 159.655907 361.236882 
L 161.891151 361.025182 
L 164.126394 361.014116 
L 166.361637 361.332872 
L 168.596881 359.95682 
L 173.067367 359.098241 
L 175.302611 359.155726 
L 177.537854 358.918714 
L 179.773097 357.169601 
L 182.008341 356.577154 
L 184.243584 357.226597 
L 186.478828 355.555799 
L 188.714071 355.370453 
L 190.949314 355.530379 
L 193.184558 350.718826 
L 195.419801 348.86262 
L 197.655044 348.002098 
L 199.890288 340.339385 
L 202.125531 339.92873 
L 204.360774 339.206301 
L 206.596018 336.9878 
L 208.831261 336.183482 
L 211.066505 334.78097 
L 213.301748 332.981153 
L 215.536991 332.584204 
L 220.007478 327.028198 
L 222.242721 325.087459 
L 224.477965 321.105423 
L 226.713208 331.976337 
L 228.948452 331.973038 
L 231.183695 331.048139 
L 240.124668 361.404182 
L 242.359912 351.365658 
L 244.595155 359.101159 
L 246.830398 376.640932 
L 251.300885 375.066039 
L 253.536129 374.346731 
L 255.771372 374.309913 
L 258.006615 373.337048 
L 262.477102 372.648111 
L 264.712345 372.570031 
L 266.947589 369.930831 
L 269.182832 369.147205 
L 271.418075 369.298832 
L 273.653319 369.052595 
L 275.888562 368.565395 
L 280.359049 368.112224 
L 282.594292 365.002312 
L 284.829536 363.343057 
L 287.064779 361.854834 
L 289.300022 361.384113 
L 291.535266 359.905961 
L 293.770509 356.557877 
L 296.005753 354.466891 
L 298.240996 353.868828 
L 300.476239 351.294601 
L 302.711483 350.310967 
L 304.946726 348.610404 
L 307.181969 341.168049 
L 309.417213 338.744157 
L 313.887699 332.66055 
L 316.122943 330.731128 
L 318.358186 329.430298 
L 320.59343 326.485211 
L 322.828673 324.983523 
L 325.063916 322.76575 
L 327.29916 320.772183 
L 329.534403 319.791442 
L 334.00489 314.710168 
L 336.240133 312.976403 
L 338.475377 309.400913 
L 340.71062 340.433479 
L 342.945863 339.890491 
L 345.181107 338.656551 
L 347.41635 354.082499 
L 349.651593 361.341998 
L 351.886837 363.426866 
L 356.357323 387.156147 
L 363.063054 384.283054 
L 365.298297 383.813628 
L 367.53354 382.677892 
L 374.23927 380.56684 
L 396.591704 377.064554 
L 398.826947 376.056077 
L 401.062191 375.950776 
L 403.297434 375.349626 
L 405.532678 374.618231 
L 407.767921 374.131572 
L 410.003164 373.443741 
L 414.473651 369.24174 
L 416.708894 366.714787 
L 418.944138 364.42084 
L 421.179381 363.498002 
L 423.414624 361.062141 
L 425.649868 356.728541 
L 427.885111 353.504006 
L 430.120355 351.679043 
L 432.355598 348.557264 
L 434.590841 346.634577 
L 436.826085 343.008817 
L 439.061328 334.031538 
L 441.296571 331.027839 
L 443.531815 326.400646 
L 445.767058 329.503832 
L 448.002301 326.378006 
L 450.237545 324.507429 
L 452.472788 321.063203 
L 454.708032 318.895716 
L 456.943275 316.021214 
L 459.178518 313.823398 
L 461.413762 312.427399 
L 463.649005 310.239125 
L 465.884248 307.873718 
L 468.119492 306.372706 
L 470.354735 303.188258 
L 477.060465 346.245593 
L 479.295709 345.267003 
L 481.530952 343.770447 
L 483.766195 345.041268 
L 486.001439 368.858211 
L 488.236682 368.504493 
L 490.471925 389.286742 
L 494.942412 387.167637 
L 499.412899 385.337761 
L 506.118629 382.341136 
L 508.353872 381.068803 
L 510.589116 377.698645 
L 512.824359 376.787188 
L 515.059603 376.184476 
L 517.294846 375.250558 
L 519.530089 373.862413 
L 521.765333 373.252583 
L 524.000576 372.287213 
L 526.235819 368.331634 
L 528.471063 365.660289 
L 530.706306 363.190366 
L 532.941549 362.037606 
L 535.176793 359.36395 
L 537.412036 355.441543 
L 544.117766 345.754016 
L 546.35301 343.011792 
L 548.588253 337.773977 
L 550.823496 329.44891 
L 553.05874 326.177551 
L 555.293983 321.66751 
L 557.529226 334.148467 
L 559.76447 330.921572 
L 561.999713 329.225493 
L 564.234957 331.821711 
L 566.4702 329.505904 
L 568.705443 326.738208 
L 573.17593 323.689289 
L 577.646417 320.163048 
L 579.88166 319.50566 
L 582.116904 317.572047 
L 584.352147 348.607307 
L 588.822634 346.077362 
L 591.057877 344.549498 
L 595.528364 374.145828 
L 597.763607 373.821428 
L 599.99885 379.643575 
L 602.234094 378.8018 
L 604.469337 377.653111 
L 606.704581 377.211188 
L 608.939824 376.05825 
L 611.175067 375.382171 
L 613.410311 373.829707 
L 615.645554 373.194925 
L 651.409448 371.817728 
L 653.644691 369.988016 
L 655.879935 369.469512 
L 658.115178 368.092617 
L 660.350421 367.116969 
L 662.585665 364.279277 
L 664.820908 363.69997 
L 667.056151 362.739099 
L 669.291395 361.072533 
L 673.761882 359.401887 
L 678.232368 357.98216 
L 680.467612 357.057664 
L 687.173342 351.878933 
L 693.879072 348.209817 
L 696.114315 346.08737 
L 700.584802 343.483334 
L 702.820045 338.479092 
L 705.055289 334.473262 
L 707.290532 331.313979 
L 711.761019 328.879238 
L 716.231506 345.233542 
L 718.466749 343.329696 
L 720.701992 342.197301 
L 722.937236 346.143907 
L 727.407722 341.0713 
L 729.642966 340.377072 
L 731.878209 338.71814 
L 736.348696 336.193833 
L 738.583939 336.395974 
L 740.819183 335.777558 
L 743.054426 346.585324 
L 745.289669 345.157486 
L 747.524913 343.996966 
L 749.760156 341.291772 
L 751.995399 378.266422 
L 754.230643 377.970804 
L 756.465886 368.075189 
L 758.70113 367.422232 
L 760.936373 366.13717 
L 763.171616 366.189217 
L 765.40686 364.833951 
L 767.642103 364.443926 
L 769.877346 362.422044 
L 772.11259 362.111324 
L 774.347833 360.641564 
L 778.81832 360.346934 
L 781.053563 358.207546 
L 783.288807 357.214291 
L 785.52405 352.853175 
L 787.759293 352.322143 
L 789.994537 351.435557 
L 792.22978 352.236227 
L 794.465023 351.668864 
L 796.700267 351.386321 
L 801.170753 350.039164 
L 803.405997 350.894219 
L 805.64124 350.741417 
L 807.876484 346.587141 
L 810.111727 345.759862 
L 812.34697 343.315011 
L 814.582214 338.539515 
L 816.817457 339.299851 
L 819.0527 336.505858 
L 821.287944 336.413227 
L 823.523187 357.666783 
L 825.758431 357.302605 
L 827.993674 356.810221 
L 827.993674 356.810221 
" clip-path="url(#pedd9d99ac1)" style="fill: none; stroke: #4c72b0; stroke-width: 1.5; stroke-linecap: round"/>
   </g>
   <g id="patch_13">
    <path d="M 128.3625 393.591667 
L 128.3625 298.883333 
" style="fill: none; stroke: #262626; stroke-width: 1.25; stroke-linejoin: miter; stroke-linecap: square"/>
   </g>
   <g id="patch_14">
    <path d="M 827.993674 393.591667 
L 827.993674 298.883333 
" style="fill: none; stroke: #262626; stroke-width: 1.25; stroke-linejoin: miter; stroke-linecap: square"/>
   </g>
   <g id="patch_15">
    <path d="M 128.3625 393.591667 
L 827.993674 393.591667 
" style="fill: none; stroke: #262626; stroke-width: 1.25; stroke-linejoin: miter; stroke-linecap: square"/>
   </g>
   <g id="patch_16">
    <path d="M 128.3625 298.883333 
L 827.993674 298.883333 
" style="fill: none; stroke: #262626; stroke-width: 1.25; stroke-linejoin: miter; stroke-linecap: square"/>
   </g>
  </g>
  <g id="axes_4">
   <g id="patch_17">
    <path d="M 128.3625 519.9 
L 827.993674 519.9 
L 827.993674 425.191667 
L 128.3625 425.191667 
z
" style="fill: #ffffff"/>
   </g>
   <g id="line2d_30">
    <path d="M 128.3625 468.200363 
L 827.993674 468.200363 
" clip-path="url(#pa433e28b60)" style="fill: none; stroke: #000000; stroke-width: 1.5; stroke-linecap: round"/>
   </g>
   <g id="matplotlib.axis_7">
    <g id="xtick_19">
     <g id="line2d_31">
      <g>
       <use xlink:href="#m6bb45cc07f" x="233.738259" y="519.9" style="fill: #262626; stroke: #262626; stroke-width: 1.25"/>
      </g>
     </g>
     <g id="text_12">
      <!-- 2017 -->
      <g style="fill: #262626" transform="translate(221.504196 537.273594) scale(0.11 -0.11)">
       <defs>
        <path id="ArialMT-37" d="M 303 3981 
L 303 4522 
L 3269 4522 
L 3269 4084 
Q 2831 3619 2401 2847 
Q 1972 2075 1738 1259 
Q 1569 684 1522 0 
L 944 0 
Q 953 541 1156 1306 
Q 1359 2072 1739 2783 
Q 2119 3494 2547 3981 
L 303 3981 
z
" transform="scale(0.015625)"/>
       </defs>
       <use xlink:href="#ArialMT-32"/>
       <use xlink:href="#ArialMT-30" x="55.615234"/>
       <use xlink:href="#ArialMT-31" x="111.230469"/>
       <use xlink:href="#ArialMT-37" x="166.845703"/>
      </g>
     </g>
    </g>
    <g id="xtick_20">
     <g id="line2d_32">
      <g>
       <use xlink:href="#m6bb45cc07f" x="350.290234" y="519.9" style="fill: #262626; stroke: #262626; stroke-width: 1.25"/>
      </g>
     </g>
     <g id="text_13">
      <!-- 2018 -->
      <g style="fill: #262626" transform="translate(338.056172 537.273594) scale(0.11 -0.11)">
       <defs>
        <path id="ArialMT-38" d="M 1131 2484 
Q 781 2613 612 2850 
Q 444 3088 444 3419 
Q 444 3919 803 4259 
Q 1163 4600 1759 4600 
Q 2359 4600 2725 4251 
Q 3091 3903 3091 3403 
Q 3091 3084 2923 2848 
Q 2756 2613 2416 2484 
Q 2838 2347 3058 2040 
Q 3278 1734 3278 1309 
Q 3278 722 2862 322 
Q 2447 -78 1769 -78 
Q 1091 -78 675 323 
Q 259 725 259 1325 
Q 259 1772 486 2073 
Q 713 2375 1131 2484 
z
M 1019 3438 
Q 1019 3113 1228 2906 
Q 1438 2700 1772 2700 
Q 2097 2700 2305 2904 
Q 2513 3109 2513 3406 
Q 2513 3716 2298 3927 
Q 2084 4138 1766 4138 
Q 1444 4138 1231 3931 
Q 1019 3725 1019 3438 
z
M 838 1322 
Q 838 1081 952 856 
Q 1066 631 1291 507 
Q 1516 384 1775 384 
Q 2178 384 2440 643 
Q 2703 903 2703 1303 
Q 2703 1709 2433 1975 
Q 2163 2241 1756 2241 
Q 1359 2241 1098 1978 
Q 838 1716 838 1322 
z
" transform="scale(0.015625)"/>
       </defs>
       <use xlink:href="#ArialMT-32"/>
       <use xlink:href="#ArialMT-30" x="55.615234"/>
       <use xlink:href="#ArialMT-31" x="111.230469"/>
       <use xlink:href="#ArialMT-38" x="166.845703"/>
      </g>
     </g>
    </g>
    <g id="xtick_21">
     <g id="line2d_33">
      <g>
       <use xlink:href="#m6bb45cc07f" x="466.84221" y="519.9" style="fill: #262626; stroke: #262626; stroke-width: 1.25"/>
      </g>
     </g>
     <g id="text_14">
      <!-- 2019 -->
      <g style="fill: #262626" transform="translate(454.608147 537.273594) scale(0.11 -0.11)">
       <defs>
        <path id="ArialMT-39" d="M 350 1059 
L 891 1109 
Q 959 728 1153 556 
Q 1347 384 1650 384 
Q 1909 384 2104 503 
Q 2300 622 2425 820 
Q 2550 1019 2634 1356 
Q 2719 1694 2719 2044 
Q 2719 2081 2716 2156 
Q 2547 1888 2255 1720 
Q 1963 1553 1622 1553 
Q 1053 1553 659 1965 
Q 266 2378 266 3053 
Q 266 3750 677 4175 
Q 1088 4600 1706 4600 
Q 2153 4600 2523 4359 
Q 2894 4119 3086 3673 
Q 3278 3228 3278 2384 
Q 3278 1506 3087 986 
Q 2897 466 2520 194 
Q 2144 -78 1638 -78 
Q 1100 -78 759 220 
Q 419 519 350 1059 
z
M 2653 3081 
Q 2653 3566 2395 3850 
Q 2138 4134 1775 4134 
Q 1400 4134 1122 3828 
Q 844 3522 844 3034 
Q 844 2597 1108 2323 
Q 1372 2050 1759 2050 
Q 2150 2050 2401 2323 
Q 2653 2597 2653 3081 
z
" transform="scale(0.015625)"/>
       </defs>
       <use xlink:href="#ArialMT-32"/>
       <use xlink:href="#ArialMT-30" x="55.615234"/>
       <use xlink:href="#ArialMT-31" x="111.230469"/>
       <use xlink:href="#ArialMT-39" x="166.845703"/>
      </g>
     </g>
    </g>
    <g id="xtick_22">
     <g id="line2d_34">
      <g>
       <use xlink:href="#m6bb45cc07f" x="583.394185" y="519.9" style="fill: #262626; stroke: #262626; stroke-width: 1.25"/>
      </g>
     </g>
     <g id="text_15">
      <!-- 2020 -->
      <g style="fill: #262626" transform="translate(571.160123 537.273594) scale(0.11 -0.11)">
       <use xlink:href="#ArialMT-32"/>
       <use xlink:href="#ArialMT-30" x="55.615234"/>
       <use xlink:href="#ArialMT-32" x="111.230469"/>
       <use xlink:href="#ArialMT-30" x="166.845703"/>
      </g>
     </g>
    </g>
    <g id="xtick_23">
     <g id="line2d_35">
      <g>
       <use xlink:href="#m6bb45cc07f" x="700.265481" y="519.9" style="fill: #262626; stroke: #262626; stroke-width: 1.25"/>
      </g>
     </g>
     <g id="text_16">
      <!-- 2021 -->
      <g style="fill: #262626" transform="translate(688.031419 537.273594) scale(0.11 -0.11)">
       <use xlink:href="#ArialMT-32"/>
       <use xlink:href="#ArialMT-30" x="55.615234"/>
       <use xlink:href="#ArialMT-32" x="111.230469"/>
       <use xlink:href="#ArialMT-31" x="166.845703"/>
      </g>
     </g>
    </g>
    <g id="xtick_24">
     <g id="line2d_36">
      <g>
       <use xlink:href="#m6bb45cc07f" x="816.817457" y="519.9" style="fill: #262626; stroke: #262626; stroke-width: 1.25"/>
      </g>
     </g>
     <g id="text_17">
      <!-- 2022 -->
      <g style="fill: #262626" transform="translate(804.583395 537.273594) scale(0.11 -0.11)">
       <use xlink:href="#ArialMT-32"/>
       <use xlink:href="#ArialMT-30" x="55.615234"/>
       <use xlink:href="#ArialMT-32" x="111.230469"/>
       <use xlink:href="#ArialMT-32" x="166.845703"/>
      </g>
     </g>
    </g>
   </g>
   <g id="matplotlib.axis_8">
    <g id="ytick_9">
     <g id="line2d_37">
      <g>
       <use xlink:href="#m36ad54b1c4" x="128.3625" y="511.363319" style="fill: #262626; stroke: #262626; stroke-width: 1.25"/>
      </g>
     </g>
     <g id="text_18">
      <!-- −2000 -->
      <g style="fill: #262626" transform="translate(87.969687 515.300116) scale(0.11 -0.11)">
       <use xlink:href="#ArialMT-2212"/>
       <use xlink:href="#ArialMT-32" x="58.398438"/>
       <use xlink:href="#ArialMT-30" x="114.013672"/>
       <use xlink:href="#ArialMT-30" x="169.628906"/>
       <use xlink:href="#ArialMT-30" x="225.244141"/>
      </g>
     </g>
    </g>
    <g id="ytick_10">
     <g id="line2d_38">
      <g>
       <use xlink:href="#m36ad54b1c4" x="128.3625" y="468.200363" style="fill: #262626; stroke: #262626; stroke-width: 1.25"/>
      </g>
     </g>
     <g id="text_19">
      <!-- 0 -->
      <g style="fill: #262626" transform="translate(112.745469 472.13716) scale(0.11 -0.11)">
       <use xlink:href="#ArialMT-30"/>
      </g>
     </g>
    </g>
    <g id="text_20">
     <!-- Resid -->
     <g style="fill: #262626" transform="translate(81.584687 487.885208) rotate(-90) scale(0.12 -0.12)">
      <defs>
       <path id="ArialMT-52" d="M 503 0 
L 503 4581 
L 2534 4581 
Q 3147 4581 3465 4457 
Q 3784 4334 3975 4021 
Q 4166 3709 4166 3331 
Q 4166 2844 3850 2509 
Q 3534 2175 2875 2084 
Q 3116 1969 3241 1856 
Q 3506 1613 3744 1247 
L 4541 0 
L 3778 0 
L 3172 953 
Q 2906 1366 2734 1584 
Q 2563 1803 2427 1890 
Q 2291 1978 2150 2013 
Q 2047 2034 1813 2034 
L 1109 2034 
L 1109 0 
L 503 0 
z
M 1109 2559 
L 2413 2559 
Q 2828 2559 3062 2645 
Q 3297 2731 3419 2920 
Q 3541 3109 3541 3331 
Q 3541 3656 3305 3865 
Q 3069 4075 2559 4075 
L 1109 4075 
L 1109 2559 
z
" transform="scale(0.015625)"/>
      </defs>
      <use xlink:href="#ArialMT-52"/>
      <use xlink:href="#ArialMT-65" x="72.216797"/>
      <use xlink:href="#ArialMT-73" x="127.832031"/>
      <use xlink:href="#ArialMT-69" x="177.832031"/>
      <use xlink:href="#ArialMT-64" x="200.048828"/>
     </g>
    </g>
   </g>
   <g id="line2d_39">
    <defs>
     <path id="m986baf2059" d="M 0 3 
C 0.795609 3 1.55874 2.683901 2.12132 2.12132 
C 2.683901 1.55874 3 0.795609 3 0 
C 3 -0.795609 2.683901 -1.55874 2.12132 -2.12132 
C 1.55874 -2.683901 0.795609 -3 0 -3 
C -0.795609 -3 -1.55874 -2.683901 -2.12132 -2.12132 
C -2.683901 -1.55874 -3 -0.795609 -3 0 
C -3 0.795609 -2.683901 1.55874 -2.12132 2.12132 
C -1.55874 2.683901 -0.795609 3 0 3 
z
" style="stroke: #4c72b0"/>
    </defs>
    <g clip-path="url(#pa433e28b60)">
     <use xlink:href="#m986baf2059" x="128.3625" y="471.753703" style="fill: #4c72b0; stroke: #4c72b0"/>
     <use xlink:href="#m986baf2059" x="130.597743" y="466.969682" style="fill: #4c72b0; stroke: #4c72b0"/>
     <use xlink:href="#m986baf2059" x="132.832987" y="467.097118" style="fill: #4c72b0; stroke: #4c72b0"/>
     <use xlink:href="#m986baf2059" x="135.06823" y="467.434769" style="fill: #4c72b0; stroke: #4c72b0"/>
     <use xlink:href="#m986baf2059" x="137.303473" y="467.369951" style="fill: #4c72b0; stroke: #4c72b0"/>
     <use xlink:href="#m986baf2059" x="139.538717" y="467.166316" style="fill: #4c72b0; stroke: #4c72b0"/>
     <use xlink:href="#m986baf2059" x="144.009204" y="467.614145" style="fill: #4c72b0; stroke: #4c72b0"/>
     <use xlink:href="#m986baf2059" x="146.244447" y="467.689409" style="fill: #4c72b0; stroke: #4c72b0"/>
     <use xlink:href="#m986baf2059" x="148.47969" y="467.645026" style="fill: #4c72b0; stroke: #4c72b0"/>
     <use xlink:href="#m986baf2059" x="150.714934" y="467.349631" style="fill: #4c72b0; stroke: #4c72b0"/>
     <use xlink:href="#m986baf2059" x="152.950177" y="467.702065" style="fill: #4c72b0; stroke: #4c72b0"/>
     <use xlink:href="#m986baf2059" x="155.18542" y="468.032092" style="fill: #4c72b0; stroke: #4c72b0"/>
     <use xlink:href="#m986baf2059" x="157.420664" y="467.774267" style="fill: #4c72b0; stroke: #4c72b0"/>
     <use xlink:href="#m986baf2059" x="159.655907" y="467.64818" style="fill: #4c72b0; stroke: #4c72b0"/>
     <use xlink:href="#m986baf2059" x="161.891151" y="467.693152" style="fill: #4c72b0; stroke: #4c72b0"/>
     <use xlink:href="#m986baf2059" x="164.126394" y="467.785972" style="fill: #4c72b0; stroke: #4c72b0"/>
     <use xlink:href="#m986baf2059" x="166.361637" y="467.702766" style="fill: #4c72b0; stroke: #4c72b0"/>
     <use xlink:href="#m986baf2059" x="168.596881" y="468.080665" style="fill: #4c72b0; stroke: #4c72b0"/>
     <use xlink:href="#m986baf2059" x="170.832124" y="468.276304" style="fill: #4c72b0; stroke: #4c72b0"/>
     <use xlink:href="#m986baf2059" x="173.067367" y="468.403181" style="fill: #4c72b0; stroke: #4c72b0"/>
     <use xlink:href="#m986baf2059" x="175.302611" y="468.295248" style="fill: #4c72b0; stroke: #4c72b0"/>
     <use xlink:href="#m986baf2059" x="177.537854" y="468.596625" style="fill: #4c72b0; stroke: #4c72b0"/>
     <use xlink:href="#m986baf2059" x="179.773097" y="469.05282" style="fill: #4c72b0; stroke: #4c72b0"/>
     <use xlink:href="#m986baf2059" x="182.008341" y="469.225161" style="fill: #4c72b0; stroke: #4c72b0"/>
     <use xlink:href="#m986baf2059" x="184.243584" y="468.813956" style="fill: #4c72b0; stroke: #4c72b0"/>
     <use xlink:href="#m986baf2059" x="186.478828" y="468.327617" style="fill: #4c72b0; stroke: #4c72b0"/>
     <use xlink:href="#m986baf2059" x="188.714071" y="468.201967" style="fill: #4c72b0; stroke: #4c72b0"/>
     <use xlink:href="#m986baf2059" x="190.949314" y="468.169111" style="fill: #4c72b0; stroke: #4c72b0"/>
     <use xlink:href="#m986baf2059" x="193.184558" y="467.990407" style="fill: #4c72b0; stroke: #4c72b0"/>
     <use xlink:href="#m986baf2059" x="195.419801" y="467.271224" style="fill: #4c72b0; stroke: #4c72b0"/>
     <use xlink:href="#m986baf2059" x="197.655044" y="467.874508" style="fill: #4c72b0; stroke: #4c72b0"/>
     <use xlink:href="#m986baf2059" x="199.890288" y="469.215723" style="fill: #4c72b0; stroke: #4c72b0"/>
     <use xlink:href="#m986baf2059" x="202.125531" y="469.338108" style="fill: #4c72b0; stroke: #4c72b0"/>
     <use xlink:href="#m986baf2059" x="204.360774" y="469.946454" style="fill: #4c72b0; stroke: #4c72b0"/>
     <use xlink:href="#m986baf2059" x="206.596018" y="468.711655" style="fill: #4c72b0; stroke: #4c72b0"/>
     <use xlink:href="#m986baf2059" x="208.831261" y="468.709041" style="fill: #4c72b0; stroke: #4c72b0"/>
     <use xlink:href="#m986baf2059" x="211.066505" y="469.077609" style="fill: #4c72b0; stroke: #4c72b0"/>
     <use xlink:href="#m986baf2059" x="213.301748" y="470.382724" style="fill: #4c72b0; stroke: #4c72b0"/>
     <use xlink:href="#m986baf2059" x="215.536991" y="470.187172" style="fill: #4c72b0; stroke: #4c72b0"/>
     <use xlink:href="#m986baf2059" x="217.772235" y="470.117576" style="fill: #4c72b0; stroke: #4c72b0"/>
     <use xlink:href="#m986baf2059" x="220.007478" y="470.357065" style="fill: #4c72b0; stroke: #4c72b0"/>
     <use xlink:href="#m986baf2059" x="222.242721" y="470.918292" style="fill: #4c72b0; stroke: #4c72b0"/>
     <use xlink:href="#m986baf2059" x="224.477965" y="472.321729" style="fill: #4c72b0; stroke: #4c72b0"/>
     <use xlink:href="#m986baf2059" x="226.713208" y="463.47922" style="fill: #4c72b0; stroke: #4c72b0"/>
     <use xlink:href="#m986baf2059" x="228.948452" y="463.074733" style="fill: #4c72b0; stroke: #4c72b0"/>
     <use xlink:href="#m986baf2059" x="231.183695" y="462.954061" style="fill: #4c72b0; stroke: #4c72b0"/>
     <use xlink:href="#m986baf2059" x="240.124668" y="477.104704" style="fill: #4c72b0; stroke: #4c72b0"/>
     <use xlink:href="#m986baf2059" x="242.359912" y="484.231936" style="fill: #4c72b0; stroke: #4c72b0"/>
     <use xlink:href="#m986baf2059" x="244.595155" y="478.263711" style="fill: #4c72b0; stroke: #4c72b0"/>
     <use xlink:href="#m986baf2059" x="246.830398" y="464.829506" style="fill: #4c72b0; stroke: #4c72b0"/>
     <use xlink:href="#m986baf2059" x="249.065642" y="464.29733" style="fill: #4c72b0; stroke: #4c72b0"/>
     <use xlink:href="#m986baf2059" x="251.300885" y="463.078535" style="fill: #4c72b0; stroke: #4c72b0"/>
     <use xlink:href="#m986baf2059" x="253.536129" y="463.513247" style="fill: #4c72b0; stroke: #4c72b0"/>
     <use xlink:href="#m986baf2059" x="255.771372" y="463.634382" style="fill: #4c72b0; stroke: #4c72b0"/>
     <use xlink:href="#m986baf2059" x="258.006615" y="462.619662" style="fill: #4c72b0; stroke: #4c72b0"/>
     <use xlink:href="#m986baf2059" x="260.241859" y="462.46238" style="fill: #4c72b0; stroke: #4c72b0"/>
     <use xlink:href="#m986baf2059" x="262.477102" y="462.615255" style="fill: #4c72b0; stroke: #4c72b0"/>
     <use xlink:href="#m986baf2059" x="264.712345" y="462.834217" style="fill: #4c72b0; stroke: #4c72b0"/>
     <use xlink:href="#m986baf2059" x="266.947589" y="464.618637" style="fill: #4c72b0; stroke: #4c72b0"/>
     <use xlink:href="#m986baf2059" x="269.182832" y="464.15946" style="fill: #4c72b0; stroke: #4c72b0"/>
     <use xlink:href="#m986baf2059" x="271.418075" y="464.243284" style="fill: #4c72b0; stroke: #4c72b0"/>
     <use xlink:href="#m986baf2059" x="273.653319" y="464.202827" style="fill: #4c72b0; stroke: #4c72b0"/>
     <use xlink:href="#m986baf2059" x="275.888562" y="464.116813" style="fill: #4c72b0; stroke: #4c72b0"/>
     <use xlink:href="#m986baf2059" x="278.123806" y="463.690902" style="fill: #4c72b0; stroke: #4c72b0"/>
     <use xlink:href="#m986baf2059" x="280.359049" y="463.845173" style="fill: #4c72b0; stroke: #4c72b0"/>
     <use xlink:href="#m986baf2059" x="282.594292" y="465.953967" style="fill: #4c72b0; stroke: #4c72b0"/>
     <use xlink:href="#m986baf2059" x="284.829536" y="467.015022" style="fill: #4c72b0; stroke: #4c72b0"/>
     <use xlink:href="#m986baf2059" x="287.064779" y="467.918761" style="fill: #4c72b0; stroke: #4c72b0"/>
     <use xlink:href="#m986baf2059" x="289.300022" y="468.196915" style="fill: #4c72b0; stroke: #4c72b0"/>
     <use xlink:href="#m986baf2059" x="291.535266" y="468.852828" style="fill: #4c72b0; stroke: #4c72b0"/>
     <use xlink:href="#m986baf2059" x="293.770509" y="470.602097" style="fill: #4c72b0; stroke: #4c72b0"/>
     <use xlink:href="#m986baf2059" x="296.005753" y="471.613352" style="fill: #4c72b0; stroke: #4c72b0"/>
     <use xlink:href="#m986baf2059" x="298.240996" y="472.404612" style="fill: #4c72b0; stroke: #4c72b0"/>
     <use xlink:href="#m986baf2059" x="300.476239" y="474.603237" style="fill: #4c72b0; stroke: #4c72b0"/>
     <use xlink:href="#m986baf2059" x="302.711483" y="474.201361" style="fill: #4c72b0; stroke: #4c72b0"/>
     <use xlink:href="#m986baf2059" x="304.946726" y="474.266129" style="fill: #4c72b0; stroke: #4c72b0"/>
     <use xlink:href="#m986baf2059" x="307.181969" y="479.115975" style="fill: #4c72b0; stroke: #4c72b0"/>
     <use xlink:href="#m986baf2059" x="309.417213" y="479.619024" style="fill: #4c72b0; stroke: #4c72b0"/>
     <use xlink:href="#m986baf2059" x="311.652456" y="480.462102" style="fill: #4c72b0; stroke: #4c72b0"/>
     <use xlink:href="#m986baf2059" x="313.887699" y="481.34496" style="fill: #4c72b0; stroke: #4c72b0"/>
     <use xlink:href="#m986baf2059" x="316.122943" y="482.25643" style="fill: #4c72b0; stroke: #4c72b0"/>
     <use xlink:href="#m986baf2059" x="318.358186" y="481.01895" style="fill: #4c72b0; stroke: #4c72b0"/>
     <use xlink:href="#m986baf2059" x="320.59343" y="483.481379" style="fill: #4c72b0; stroke: #4c72b0"/>
     <use xlink:href="#m986baf2059" x="322.828673" y="483.160539" style="fill: #4c72b0; stroke: #4c72b0"/>
     <use xlink:href="#m986baf2059" x="325.063916" y="483.038787" style="fill: #4c72b0; stroke: #4c72b0"/>
     <use xlink:href="#m986baf2059" x="327.29916" y="480.683453" style="fill: #4c72b0; stroke: #4c72b0"/>
     <use xlink:href="#m986baf2059" x="329.534403" y="481.693002" style="fill: #4c72b0; stroke: #4c72b0"/>
     <use xlink:href="#m986baf2059" x="331.769646" y="481.438792" style="fill: #4c72b0; stroke: #4c72b0"/>
     <use xlink:href="#m986baf2059" x="334.00489" y="481.328296" style="fill: #4c72b0; stroke: #4c72b0"/>
     <use xlink:href="#m986baf2059" x="336.240133" y="480.365346" style="fill: #4c72b0; stroke: #4c72b0"/>
     <use xlink:href="#m986baf2059" x="338.475377" y="478.017856" style="fill: #4c72b0; stroke: #4c72b0"/>
     <use xlink:href="#m986baf2059" x="340.71062" y="454.957834" style="fill: #4c72b0; stroke: #4c72b0"/>
     <use xlink:href="#m986baf2059" x="342.945863" y="455.945962" style="fill: #4c72b0; stroke: #4c72b0"/>
     <use xlink:href="#m986baf2059" x="345.181107" y="456.09358" style="fill: #4c72b0; stroke: #4c72b0"/>
     <use xlink:href="#m986baf2059" x="347.41635" y="436.554935" style="fill: #4c72b0; stroke: #4c72b0"/>
     <use xlink:href="#m986baf2059" x="349.651593" y="431.45302" style="fill: #4c72b0; stroke: #4c72b0"/>
     <use xlink:href="#m986baf2059" x="351.886837" y="430.35327" style="fill: #4c72b0; stroke: #4c72b0"/>
     <use xlink:href="#m986baf2059" x="356.357323" y="475.922035" style="fill: #4c72b0; stroke: #4c72b0"/>
     <use xlink:href="#m986baf2059" x="358.592567" y="476.654204" style="fill: #4c72b0; stroke: #4c72b0"/>
     <use xlink:href="#m986baf2059" x="360.82781" y="478.246957" style="fill: #4c72b0; stroke: #4c72b0"/>
     <use xlink:href="#m986baf2059" x="363.063054" y="477.543749" style="fill: #4c72b0; stroke: #4c72b0"/>
     <use xlink:href="#m986baf2059" x="365.298297" y="477.92494" style="fill: #4c72b0; stroke: #4c72b0"/>
     <use xlink:href="#m986baf2059" x="367.53354" y="478.75364" style="fill: #4c72b0; stroke: #4c72b0"/>
     <use xlink:href="#m986baf2059" x="369.768784" y="478.909495" style="fill: #4c72b0; stroke: #4c72b0"/>
     <use xlink:href="#m986baf2059" x="372.004027" y="478.7332" style="fill: #4c72b0; stroke: #4c72b0"/>
     <use xlink:href="#m986baf2059" x="374.23927" y="479.115628" style="fill: #4c72b0; stroke: #4c72b0"/>
     <use xlink:href="#m986baf2059" x="396.591704" y="474.038037" style="fill: #4c72b0; stroke: #4c72b0"/>
     <use xlink:href="#m986baf2059" x="398.826947" y="474.003498" style="fill: #4c72b0; stroke: #4c72b0"/>
     <use xlink:href="#m986baf2059" x="401.062191" y="474.710711" style="fill: #4c72b0; stroke: #4c72b0"/>
     <use xlink:href="#m986baf2059" x="403.297434" y="475.193527" style="fill: #4c72b0; stroke: #4c72b0"/>
     <use xlink:href="#m986baf2059" x="405.532678" y="475.247573" style="fill: #4c72b0; stroke: #4c72b0"/>
     <use xlink:href="#m986baf2059" x="407.767921" y="475.913817" style="fill: #4c72b0; stroke: #4c72b0"/>
     <use xlink:href="#m986baf2059" x="410.003164" y="475.919816" style="fill: #4c72b0; stroke: #4c72b0"/>
     <use xlink:href="#m986baf2059" x="414.473651" y="470.023379" style="fill: #4c72b0; stroke: #4c72b0"/>
     <use xlink:href="#m986baf2059" x="416.708894" y="467.037542" style="fill: #4c72b0; stroke: #4c72b0"/>
     <use xlink:href="#m986baf2059" x="418.944138" y="464.56274" style="fill: #4c72b0; stroke: #4c72b0"/>
     <use xlink:href="#m986baf2059" x="421.179381" y="464.336426" style="fill: #4c72b0; stroke: #4c72b0"/>
     <use xlink:href="#m986baf2059" x="423.414624" y="461.862195" style="fill: #4c72b0; stroke: #4c72b0"/>
     <use xlink:href="#m986baf2059" x="425.649868" y="456.58055" style="fill: #4c72b0; stroke: #4c72b0"/>
     <use xlink:href="#m986baf2059" x="427.885111" y="453.914953" style="fill: #4c72b0; stroke: #4c72b0"/>
     <use xlink:href="#m986baf2059" x="430.120355" y="453.288003" style="fill: #4c72b0; stroke: #4c72b0"/>
     <use xlink:href="#m986baf2059" x="432.355598" y="449.980812" style="fill: #4c72b0; stroke: #4c72b0"/>
     <use xlink:href="#m986baf2059" x="434.590841" y="451.107102" style="fill: #4c72b0; stroke: #4c72b0"/>
     <use xlink:href="#m986baf2059" x="436.826085" y="450.674298" style="fill: #4c72b0; stroke: #4c72b0"/>
     <use xlink:href="#m986baf2059" x="439.061328" y="440.666837" style="fill: #4c72b0; stroke: #4c72b0"/>
     <use xlink:href="#m986baf2059" x="441.296571" y="442.252156" style="fill: #4c72b0; stroke: #4c72b0"/>
     <use xlink:href="#m986baf2059" x="443.531815" y="438.688067" style="fill: #4c72b0; stroke: #4c72b0"/>
     <use xlink:href="#m986baf2059" x="445.767058" y="435.899253" style="fill: #4c72b0; stroke: #4c72b0"/>
     <use xlink:href="#m986baf2059" x="448.002301" y="433.681859" style="fill: #4c72b0; stroke: #4c72b0"/>
     <use xlink:href="#m986baf2059" x="450.237545" y="434.642693" style="fill: #4c72b0; stroke: #4c72b0"/>
     <use xlink:href="#m986baf2059" x="452.472788" y="433.555357" style="fill: #4c72b0; stroke: #4c72b0"/>
     <use xlink:href="#m986baf2059" x="454.708032" y="434.619895" style="fill: #4c72b0; stroke: #4c72b0"/>
     <use xlink:href="#m986baf2059" x="456.943275" y="433.870068" style="fill: #4c72b0; stroke: #4c72b0"/>
     <use xlink:href="#m986baf2059" x="459.178518" y="435.044686" style="fill: #4c72b0; stroke: #4c72b0"/>
     <use xlink:href="#m986baf2059" x="461.413762" y="433.478438" style="fill: #4c72b0; stroke: #4c72b0"/>
     <use xlink:href="#m986baf2059" x="463.649005" y="434.501912" style="fill: #4c72b0; stroke: #4c72b0"/>
     <use xlink:href="#m986baf2059" x="465.884248" y="434.040544" style="fill: #4c72b0; stroke: #4c72b0"/>
     <use xlink:href="#m986baf2059" x="468.119492" y="434.548909" style="fill: #4c72b0; stroke: #4c72b0"/>
     <use xlink:href="#m986baf2059" x="470.354735" y="435.297122" style="fill: #4c72b0; stroke: #4c72b0"/>
     <use xlink:href="#m986baf2059" x="477.060465" y="515.595076" style="fill: #4c72b0; stroke: #4c72b0"/>
     <use xlink:href="#m986baf2059" x="479.295709" y="514.884352" style="fill: #4c72b0; stroke: #4c72b0"/>
     <use xlink:href="#m986baf2059" x="481.530952" y="515.240817" style="fill: #4c72b0; stroke: #4c72b0"/>
     <use xlink:href="#m986baf2059" x="483.766195" y="513.314703" style="fill: #4c72b0; stroke: #4c72b0"/>
     <use xlink:href="#m986baf2059" x="486.001439" y="493.581445" style="fill: #4c72b0; stroke: #4c72b0"/>
     <use xlink:href="#m986baf2059" x="488.236682" y="493.253487" style="fill: #4c72b0; stroke: #4c72b0"/>
     <use xlink:href="#m986baf2059" x="490.471925" y="476.306934" style="fill: #4c72b0; stroke: #4c72b0"/>
     <use xlink:href="#m986baf2059" x="492.707169" y="476.163" style="fill: #4c72b0; stroke: #4c72b0"/>
     <use xlink:href="#m986baf2059" x="494.942412" y="475.717857" style="fill: #4c72b0; stroke: #4c72b0"/>
     <use xlink:href="#m986baf2059" x="497.177656" y="475.659297" style="fill: #4c72b0; stroke: #4c72b0"/>
     <use xlink:href="#m986baf2059" x="499.412899" y="475.440968" style="fill: #4c72b0; stroke: #4c72b0"/>
     <use xlink:href="#m986baf2059" x="501.648142" y="475.062054" style="fill: #4c72b0; stroke: #4c72b0"/>
     <use xlink:href="#m986baf2059" x="503.883386" y="474.849949" style="fill: #4c72b0; stroke: #4c72b0"/>
     <use xlink:href="#m986baf2059" x="506.118629" y="474.668802" style="fill: #4c72b0; stroke: #4c72b0"/>
     <use xlink:href="#m986baf2059" x="508.353872" y="474.642824" style="fill: #4c72b0; stroke: #4c72b0"/>
     <use xlink:href="#m986baf2059" x="510.589116" y="476.222013" style="fill: #4c72b0; stroke: #4c72b0"/>
     <use xlink:href="#m986baf2059" x="512.824359" y="476.123363" style="fill: #4c72b0; stroke: #4c72b0"/>
     <use xlink:href="#m986baf2059" x="515.059603" y="475.574118" style="fill: #4c72b0; stroke: #4c72b0"/>
     <use xlink:href="#m986baf2059" x="517.294846" y="475.259828" style="fill: #4c72b0; stroke: #4c72b0"/>
     <use xlink:href="#m986baf2059" x="519.530089" y="475.466928" style="fill: #4c72b0; stroke: #4c72b0"/>
     <use xlink:href="#m986baf2059" x="521.765333" y="474.995283" style="fill: #4c72b0; stroke: #4c72b0"/>
     <use xlink:href="#m986baf2059" x="524.000576" y="474.437819" style="fill: #4c72b0; stroke: #4c72b0"/>
     <use xlink:href="#m986baf2059" x="526.235819" y="476.130994" style="fill: #4c72b0; stroke: #4c72b0"/>
     <use xlink:href="#m986baf2059" x="528.471063" y="476.911307" style="fill: #4c72b0; stroke: #4c72b0"/>
     <use xlink:href="#m986baf2059" x="530.706306" y="477.700763" style="fill: #4c72b0; stroke: #4c72b0"/>
     <use xlink:href="#m986baf2059" x="532.941549" y="477.318822" style="fill: #4c72b0; stroke: #4c72b0"/>
     <use xlink:href="#m986baf2059" x="535.176793" y="478.098401" style="fill: #4c72b0; stroke: #4c72b0"/>
     <use xlink:href="#m986baf2059" x="537.412036" y="479.280226" style="fill: #4c72b0; stroke: #4c72b0"/>
     <use xlink:href="#m986baf2059" x="539.64728" y="479.168489" style="fill: #4c72b0; stroke: #4c72b0"/>
     <use xlink:href="#m986baf2059" x="541.882523" y="479.856845" style="fill: #4c72b0; stroke: #4c72b0"/>
     <use xlink:href="#m986baf2059" x="544.117766" y="480.600728" style="fill: #4c72b0; stroke: #4c72b0"/>
     <use xlink:href="#m986baf2059" x="546.35301" y="480.476864" style="fill: #4c72b0; stroke: #4c72b0"/>
     <use xlink:href="#m986baf2059" x="548.588253" y="481.727731" style="fill: #4c72b0; stroke: #4c72b0"/>
     <use xlink:href="#m986baf2059" x="550.823496" y="483.682806" style="fill: #4c72b0; stroke: #4c72b0"/>
     <use xlink:href="#m986baf2059" x="553.05874" y="480.997603" style="fill: #4c72b0; stroke: #4c72b0"/>
     <use xlink:href="#m986baf2059" x="555.293983" y="480.747411" style="fill: #4c72b0; stroke: #4c72b0"/>
     <use xlink:href="#m986baf2059" x="557.529226" y="468.3839" style="fill: #4c72b0; stroke: #4c72b0"/>
     <use xlink:href="#m986baf2059" x="559.76447" y="467.960841" style="fill: #4c72b0; stroke: #4c72b0"/>
     <use xlink:href="#m986baf2059" x="561.999713" y="466.818977" style="fill: #4c72b0; stroke: #4c72b0"/>
     <use xlink:href="#m986baf2059" x="564.234957" y="460.477777" style="fill: #4c72b0; stroke: #4c72b0"/>
     <use xlink:href="#m986baf2059" x="566.4702" y="458.548419" style="fill: #4c72b0; stroke: #4c72b0"/>
     <use xlink:href="#m986baf2059" x="568.705443" y="458.071022" style="fill: #4c72b0; stroke: #4c72b0"/>
     <use xlink:href="#m986baf2059" x="570.940687" y="457.261239" style="fill: #4c72b0; stroke: #4c72b0"/>
     <use xlink:href="#m986baf2059" x="573.17593" y="457.65598" style="fill: #4c72b0; stroke: #4c72b0"/>
     <use xlink:href="#m986baf2059" x="575.411173" y="456.39913" style="fill: #4c72b0; stroke: #4c72b0"/>
     <use xlink:href="#m986baf2059" x="577.646417" y="456.463889" style="fill: #4c72b0; stroke: #4c72b0"/>
     <use xlink:href="#m986baf2059" x="579.88166" y="455.707471" style="fill: #4c72b0; stroke: #4c72b0"/>
     <use xlink:href="#m986baf2059" x="582.116904" y="455.588942" style="fill: #4c72b0; stroke: #4c72b0"/>
     <use xlink:href="#m986baf2059" x="584.352147" y="431.311757" style="fill: #4c72b0; stroke: #4c72b0"/>
     <use xlink:href="#m986baf2059" x="586.58739" y="430.838949" style="fill: #4c72b0; stroke: #4c72b0"/>
     <use xlink:href="#m986baf2059" x="588.822634" y="429.496591" style="fill: #4c72b0; stroke: #4c72b0"/>
     <use xlink:href="#m986baf2059" x="591.057877" y="429.614168" style="fill: #4c72b0; stroke: #4c72b0"/>
     <use xlink:href="#m986baf2059" x="595.528364" y="478.396439" style="fill: #4c72b0; stroke: #4c72b0"/>
     <use xlink:href="#m986baf2059" x="597.763607" y="477.992598" style="fill: #4c72b0; stroke: #4c72b0"/>
     <use xlink:href="#m986baf2059" x="599.99885" y="472.52028" style="fill: #4c72b0; stroke: #4c72b0"/>
     <use xlink:href="#m986baf2059" x="602.234094" y="471.59437" style="fill: #4c72b0; stroke: #4c72b0"/>
     <use xlink:href="#m986baf2059" x="604.469337" y="470.743836" style="fill: #4c72b0; stroke: #4c72b0"/>
     <use xlink:href="#m986baf2059" x="606.704581" y="470.760858" style="fill: #4c72b0; stroke: #4c72b0"/>
     <use xlink:href="#m986baf2059" x="608.939824" y="470.11353" style="fill: #4c72b0; stroke: #4c72b0"/>
     <use xlink:href="#m986baf2059" x="611.175067" y="469.748024" style="fill: #4c72b0; stroke: #4c72b0"/>
     <use xlink:href="#m986baf2059" x="613.410311" y="470.135992" style="fill: #4c72b0; stroke: #4c72b0"/>
     <use xlink:href="#m986baf2059" x="615.645554" y="469.687763" style="fill: #4c72b0; stroke: #4c72b0"/>
     <use xlink:href="#m986baf2059" x="651.409448" y="468.236106" style="fill: #4c72b0; stroke: #4c72b0"/>
     <use xlink:href="#m986baf2059" x="653.644691" y="469.045341" style="fill: #4c72b0; stroke: #4c72b0"/>
     <use xlink:href="#m986baf2059" x="655.879935" y="468.864761" style="fill: #4c72b0; stroke: #4c72b0"/>
     <use xlink:href="#m986baf2059" x="658.115178" y="469.237414" style="fill: #4c72b0; stroke: #4c72b0"/>
     <use xlink:href="#m986baf2059" x="660.350421" y="468.532557" style="fill: #4c72b0; stroke: #4c72b0"/>
     <use xlink:href="#m986baf2059" x="662.585665" y="469.85088" style="fill: #4c72b0; stroke: #4c72b0"/>
     <use xlink:href="#m986baf2059" x="664.820908" y="469.515366" style="fill: #4c72b0; stroke: #4c72b0"/>
     <use xlink:href="#m986baf2059" x="667.056151" y="469.585586" style="fill: #4c72b0; stroke: #4c72b0"/>
     <use xlink:href="#m986baf2059" x="669.291395" y="469.825433" style="fill: #4c72b0; stroke: #4c72b0"/>
     <use xlink:href="#m986baf2059" x="673.761882" y="469.832413" style="fill: #4c72b0; stroke: #4c72b0"/>
     <use xlink:href="#m986baf2059" x="678.232368" y="469.120345" style="fill: #4c72b0; stroke: #4c72b0"/>
     <use xlink:href="#m986baf2059" x="680.467612" y="468.851196" style="fill: #4c72b0; stroke: #4c72b0"/>
     <use xlink:href="#m986baf2059" x="682.702855" y="468.344418" style="fill: #4c72b0; stroke: #4c72b0"/>
     <use xlink:href="#m986baf2059" x="684.938098" y="468.891611" style="fill: #4c72b0; stroke: #4c72b0"/>
     <use xlink:href="#m986baf2059" x="687.173342" y="468.89182" style="fill: #4c72b0; stroke: #4c72b0"/>
     <use xlink:href="#m986baf2059" x="693.879072" y="466.901161" style="fill: #4c72b0; stroke: #4c72b0"/>
     <use xlink:href="#m986baf2059" x="696.114315" y="466.627288" style="fill: #4c72b0; stroke: #4c72b0"/>
     <use xlink:href="#m986baf2059" x="700.584802" y="463.727245" style="fill: #4c72b0; stroke: #4c72b0"/>
     <use xlink:href="#m986baf2059" x="702.820045" y="459.151535" style="fill: #4c72b0; stroke: #4c72b0"/>
     <use xlink:href="#m986baf2059" x="705.055289" y="459.721225" style="fill: #4c72b0; stroke: #4c72b0"/>
     <use xlink:href="#m986baf2059" x="707.290532" y="460.066871" style="fill: #4c72b0; stroke: #4c72b0"/>
     <use xlink:href="#m986baf2059" x="711.761019" y="460.450911" style="fill: #4c72b0; stroke: #4c72b0"/>
     <use xlink:href="#m986baf2059" x="716.231506" y="488.683548" style="fill: #4c72b0; stroke: #4c72b0"/>
     <use xlink:href="#m986baf2059" x="718.466749" y="488.692696" style="fill: #4c72b0; stroke: #4c72b0"/>
     <use xlink:href="#m986baf2059" x="720.701992" y="488.618687" style="fill: #4c72b0; stroke: #4c72b0"/>
     <use xlink:href="#m986baf2059" x="722.937236" y="484.364725" style="fill: #4c72b0; stroke: #4c72b0"/>
     <use xlink:href="#m986baf2059" x="725.172479" y="485.3843" style="fill: #4c72b0; stroke: #4c72b0"/>
     <use xlink:href="#m986baf2059" x="727.407722" y="485.982787" style="fill: #4c72b0; stroke: #4c72b0"/>
     <use xlink:href="#m986baf2059" x="729.642966" y="486.315392" style="fill: #4c72b0; stroke: #4c72b0"/>
     <use xlink:href="#m986baf2059" x="731.878209" y="486.514596" style="fill: #4c72b0; stroke: #4c72b0"/>
     <use xlink:href="#m986baf2059" x="734.113452" y="487.085625" style="fill: #4c72b0; stroke: #4c72b0"/>
     <use xlink:href="#m986baf2059" x="736.348696" y="487.221039" style="fill: #4c72b0; stroke: #4c72b0"/>
     <use xlink:href="#m986baf2059" x="738.583939" y="487.658966" style="fill: #4c72b0; stroke: #4c72b0"/>
     <use xlink:href="#m986baf2059" x="740.819183" y="487.660151" style="fill: #4c72b0; stroke: #4c72b0"/>
     <use xlink:href="#m986baf2059" x="743.054426" y="479.5963" style="fill: #4c72b0; stroke: #4c72b0"/>
     <use xlink:href="#m986baf2059" x="745.289669" y="480.125353" style="fill: #4c72b0; stroke: #4c72b0"/>
     <use xlink:href="#m986baf2059" x="747.524913" y="480.95727" style="fill: #4c72b0; stroke: #4c72b0"/>
     <use xlink:href="#m986baf2059" x="749.760156" y="482.682473" style="fill: #4c72b0; stroke: #4c72b0"/>
     <use xlink:href="#m986baf2059" x="751.995399" y="455.729765" style="fill: #4c72b0; stroke: #4c72b0"/>
     <use xlink:href="#m986baf2059" x="754.230643" y="456.111586" style="fill: #4c72b0; stroke: #4c72b0"/>
     <use xlink:href="#m986baf2059" x="756.465886" y="462.88357" style="fill: #4c72b0; stroke: #4c72b0"/>
     <use xlink:href="#m986baf2059" x="758.70113" y="463.556212" style="fill: #4c72b0; stroke: #4c72b0"/>
     <use xlink:href="#m986baf2059" x="760.936373" y="464.220252" style="fill: #4c72b0; stroke: #4c72b0"/>
     <use xlink:href="#m986baf2059" x="763.171616" y="464.300746" style="fill: #4c72b0; stroke: #4c72b0"/>
     <use xlink:href="#m986baf2059" x="765.40686" y="464.831223" style="fill: #4c72b0; stroke: #4c72b0"/>
     <use xlink:href="#m986baf2059" x="767.642103" y="465.179438" style="fill: #4c72b0; stroke: #4c72b0"/>
     <use xlink:href="#m986baf2059" x="769.877346" y="464.997928" style="fill: #4c72b0; stroke: #4c72b0"/>
     <use xlink:href="#m986baf2059" x="772.11259" y="465.405825" style="fill: #4c72b0; stroke: #4c72b0"/>
     <use xlink:href="#m986baf2059" x="774.347833" y="466.427754" style="fill: #4c72b0; stroke: #4c72b0"/>
     <use xlink:href="#m986baf2059" x="776.583076" y="465.666881" style="fill: #4c72b0; stroke: #4c72b0"/>
     <use xlink:href="#m986baf2059" x="778.81832" y="465.841897" style="fill: #4c72b0; stroke: #4c72b0"/>
     <use xlink:href="#m986baf2059" x="781.053563" y="465.748582" style="fill: #4c72b0; stroke: #4c72b0"/>
     <use xlink:href="#m986baf2059" x="783.288807" y="466.333433" style="fill: #4c72b0; stroke: #4c72b0"/>
     <use xlink:href="#m986baf2059" x="785.52405" y="465.36864" style="fill: #4c72b0; stroke: #4c72b0"/>
     <use xlink:href="#m986baf2059" x="787.759293" y="465.732787" style="fill: #4c72b0; stroke: #4c72b0"/>
     <use xlink:href="#m986baf2059" x="789.994537" y="465.886214" style="fill: #4c72b0; stroke: #4c72b0"/>
     <use xlink:href="#m986baf2059" x="792.22978" y="465.523688" style="fill: #4c72b0; stroke: #4c72b0"/>
     <use xlink:href="#m986baf2059" x="794.465023" y="465.45238" style="fill: #4c72b0; stroke: #4c72b0"/>
     <use xlink:href="#m986baf2059" x="796.700267" y="465.846113" style="fill: #4c72b0; stroke: #4c72b0"/>
     <use xlink:href="#m986baf2059" x="798.93551" y="466.188813" style="fill: #4c72b0; stroke: #4c72b0"/>
     <use xlink:href="#m986baf2059" x="801.170753" y="466.439602" style="fill: #4c72b0; stroke: #4c72b0"/>
     <use xlink:href="#m986baf2059" x="803.405997" y="465.992302" style="fill: #4c72b0; stroke: #4c72b0"/>
     <use xlink:href="#m986baf2059" x="805.64124" y="466.198427" style="fill: #4c72b0; stroke: #4c72b0"/>
     <use xlink:href="#m986baf2059" x="807.876484" y="467.410036" style="fill: #4c72b0; stroke: #4c72b0"/>
     <use xlink:href="#m986baf2059" x="810.111727" y="467.576087" style="fill: #4c72b0; stroke: #4c72b0"/>
     <use xlink:href="#m986baf2059" x="812.34697" y="469.57432" style="fill: #4c72b0; stroke: #4c72b0"/>
     <use xlink:href="#m986baf2059" x="814.582214" y="472.371597" style="fill: #4c72b0; stroke: #4c72b0"/>
     <use xlink:href="#m986baf2059" x="816.817457" y="471.948469" style="fill: #4c72b0; stroke: #4c72b0"/>
     <use xlink:href="#m986baf2059" x="819.0527" y="472.527383" style="fill: #4c72b0; stroke: #4c72b0"/>
     <use xlink:href="#m986baf2059" x="821.287944" y="472.560362" style="fill: #4c72b0; stroke: #4c72b0"/>
     <use xlink:href="#m986baf2059" x="823.523187" y="457.241751" style="fill: #4c72b0; stroke: #4c72b0"/>
     <use xlink:href="#m986baf2059" x="825.758431" y="457.521706" style="fill: #4c72b0; stroke: #4c72b0"/>
     <use xlink:href="#m986baf2059" x="827.993674" y="457.89794" style="fill: #4c72b0; stroke: #4c72b0"/>
    </g>
   </g>
   <g id="patch_18">
    <path d="M 128.3625 519.9 
L 128.3625 425.191667 
" style="fill: none; stroke: #262626; stroke-width: 1.25; stroke-linejoin: miter; stroke-linecap: square"/>
   </g>
   <g id="patch_19">
    <path d="M 827.993674 519.9 
L 827.993674 425.191667 
" style="fill: none; stroke: #262626; stroke-width: 1.25; stroke-linejoin: miter; stroke-linecap: square"/>
   </g>
   <g id="patch_20">
    <path d="M 128.3625 519.9 
L 827.993674 519.9 
" style="fill: none; stroke: #262626; stroke-width: 1.25; stroke-linejoin: miter; stroke-linecap: square"/>
   </g>
   <g id="patch_21">
    <path d="M 128.3625 425.191667 
L 827.993674 425.191667 
" style="fill: none; stroke: #262626; stroke-width: 1.25; stroke-linejoin: miter; stroke-linecap: square"/>
   </g>
  </g>
 </g>
 <defs>
  <clipPath id="p4154e44a9c">
   <rect x="128.3625" y="46.266667" width="699.631174" height="94.708333"/>
  </clipPath>
  <clipPath id="pd2c8bed223">
   <rect x="128.3625" y="172.575" width="699.631174" height="94.708333"/>
  </clipPath>
  <clipPath id="pedd9d99ac1">
   <rect x="128.3625" y="298.883333" width="699.631174" height="94.708333"/>
  </clipPath>
  <clipPath id="pa433e28b60">
   <rect x="128.3625" y="425.191667" width="699.631174" height="94.708333"/>
  </clipPath>
 </defs>
</svg>
