<?xml version="1.0" encoding="utf-8" standalone="no"?>
<!DOCTYPE svg PUBLIC "-//W3C//DTD SVG 1.1//EN"
  "http://www.w3.org/Graphics/SVG/1.1/DTD/svg11.dtd">
<svg xmlns:xlink="http://www.w3.org/1999/xlink" width="864pt" height="576pt" viewBox="0 0 864 576" xmlns="http://www.w3.org/2000/svg" version="1.1">
 <metadata>
  <rdf:RDF xmlns:dc="http://purl.org/dc/elements/1.1/" xmlns:cc="http://creativecommons.org/ns#" xmlns:rdf="http://www.w3.org/1999/02/22-rdf-syntax-ns#">
   <cc:Work>
    <dc:type rdf:resource="http://purl.org/dc/dcmitype/StillImage"/>
    <dc:date>2023-07-30T23:35:54.431801</dc:date>
    <dc:format>image/svg+xml</dc:format>
    <dc:creator>
     <cc:Agent>
      <dc:title>Matplotlib v3.7.1, https://matplotlib.org/</dc:title>
     </cc:Agent>
    </dc:creator>
   </cc:Work>
  </rdf:RDF>
 </metadata>
 <defs>
  <style type="text/css">*{stroke-linejoin: round; stroke-linecap: butt}</style>
 </defs>
 <g id="figure_1">
  <g id="patch_1">
   <path d="M 0 576 
L 864 576 
L 864 0 
L 0 0 
z
" style="fill: #ffffff"/>
  </g>
  <g id="axes_1">
   <g id="patch_2">
    <path d="M 139.8 140.975 
L 834.394035 140.975 
L 834.394035 46.266667 
L 139.8 46.266667 
z
" style="fill: #ffffff"/>
   </g>
   <g id="matplotlib.axis_1">
    <g id="xtick_1">
     <g id="line2d_1">
      <defs>
       <path id="m08f3bebff3" d="M 0 0 
L 0 6 
" style="stroke: #262626; stroke-width: 1.25"/>
      </defs>
      <g>
       <use xlink:href="#m08f3bebff3" x="243.423884" y="140.975" style="fill: #262626; stroke: #262626; stroke-width: 1.25"/>
      </g>
     </g>
    </g>
    <g id="xtick_2">
     <g id="line2d_2">
      <g>
       <use xlink:href="#m08f3bebff3" x="358.03818" y="140.975" style="fill: #262626; stroke: #262626; stroke-width: 1.25"/>
      </g>
     </g>
    </g>
    <g id="xtick_3">
     <g id="line2d_3">
      <g>
       <use xlink:href="#m08f3bebff3" x="472.652476" y="140.975" style="fill: #262626; stroke: #262626; stroke-width: 1.25"/>
      </g>
     </g>
    </g>
    <g id="xtick_4">
     <g id="line2d_4">
      <g>
       <use xlink:href="#m08f3bebff3" x="587.266772" y="140.975" style="fill: #262626; stroke: #262626; stroke-width: 1.25"/>
      </g>
     </g>
    </g>
    <g id="xtick_5">
     <g id="line2d_5">
      <g>
       <use xlink:href="#m08f3bebff3" x="702.19508" y="140.975" style="fill: #262626; stroke: #262626; stroke-width: 1.25"/>
      </g>
     </g>
    </g>
    <g id="xtick_6">
     <g id="line2d_6">
      <g>
       <use xlink:href="#m08f3bebff3" x="816.809376" y="140.975" style="fill: #262626; stroke: #262626; stroke-width: 1.25"/>
      </g>
     </g>
    </g>
   </g>
   <g id="matplotlib.axis_2">
    <g id="ytick_1">
     <g id="line2d_7">
      <defs>
       <path id="m503fc3f62f" d="M 0 0 
L -6 0 
" style="stroke: #262626; stroke-width: 1.25"/>
      </defs>
      <g>
       <use xlink:href="#m503fc3f62f" x="139.8" y="136.70636" style="fill: #262626; stroke: #262626; stroke-width: 1.25"/>
      </g>
     </g>
     <g id="text_1">
      <!-- 0 -->
      <g style="fill: #262626" transform="translate(124.182969 140.643157) scale(0.11 -0.11)">
       <defs>
        <path id="ArialMT-30" d="M 266 2259 
Q 266 3072 433 3567 
Q 600 4063 929 4331 
Q 1259 4600 1759 4600 
Q 2128 4600 2406 4451 
Q 2684 4303 2865 4023 
Q 3047 3744 3150 3342 
Q 3253 2941 3253 2259 
Q 3253 1453 3087 958 
Q 2922 463 2592 192 
Q 2263 -78 1759 -78 
Q 1097 -78 719 397 
Q 266 969 266 2259 
z
M 844 2259 
Q 844 1131 1108 757 
Q 1372 384 1759 384 
Q 2147 384 2411 759 
Q 2675 1134 2675 2259 
Q 2675 3391 2411 3762 
Q 2147 4134 1753 4134 
Q 1366 4134 1134 3806 
Q 844 3388 844 2259 
z
" transform="scale(0.015625)"/>
       </defs>
       <use xlink:href="#ArialMT-30"/>
      </g>
     </g>
    </g>
    <g id="ytick_2">
     <g id="line2d_8">
      <g>
       <use xlink:href="#m503fc3f62f" x="139.8" y="91.350787" style="fill: #262626; stroke: #262626; stroke-width: 1.25"/>
      </g>
     </g>
     <g id="text_2">
      <!-- 10000 -->
      <g style="fill: #262626" transform="translate(99.714844 95.287584) scale(0.11 -0.11)">
       <defs>
        <path id="ArialMT-31" d="M 2384 0 
L 1822 0 
L 1822 3584 
Q 1619 3391 1289 3197 
Q 959 3003 697 2906 
L 697 3450 
Q 1169 3672 1522 3987 
Q 1875 4303 2022 4600 
L 2384 4600 
L 2384 0 
z
" transform="scale(0.015625)"/>
       </defs>
       <use xlink:href="#ArialMT-31"/>
       <use xlink:href="#ArialMT-30" x="55.615234"/>
       <use xlink:href="#ArialMT-30" x="111.230469"/>
       <use xlink:href="#ArialMT-30" x="166.845703"/>
       <use xlink:href="#ArialMT-30" x="222.460938"/>
      </g>
     </g>
    </g>
   </g>
   <g id="line2d_9">
    <path d="M 139.8 131.145767 
L 141.998082 130.973416 
L 144.196165 129.884882 
L 146.394247 128.995913 
L 148.59233 127.041088 
L 150.790412 126.982125 
L 155.186577 123.793628 
L 157.384659 123.698382 
L 159.582742 122.623455 
L 161.780824 121.385248 
L 163.978906 120.854587 
L 166.176989 119.693485 
L 168.375071 117.189857 
L 170.573153 117.090075 
L 172.771236 114.36874 
L 174.969318 114.332456 
L 177.167401 112.300526 
L 179.365483 112.191673 
L 181.563565 108.472516 
L 183.761648 107.715078 
L 185.95973 107.601689 
L 188.157813 106.059599 
L 190.355895 106.000637 
L 192.553977 102.598969 
L 194.75206 102.549078 
L 196.950142 99.501183 
L 199.148225 99.410472 
L 201.346307 97.986307 
L 205.742472 95.455466 
L 207.940554 94.571033 
L 210.138636 93.178616 
L 212.336719 92.34861 
L 214.534801 91.114938 
L 216.732884 90.203291 
L 218.930966 89.509351 
L 221.129048 87.83573 
L 223.327131 87.822123 
L 229.921378 84.112037 
L 232.11946 82.54727 
L 234.317543 80.420094 
L 236.515625 80.365667 
L 238.713708 79.512982 
L 240.91179 77.281488 
L 249.70412 136.66554 
L 254.100284 135.676789 
L 256.298367 134.461259 
L 258.496449 132.823923 
L 260.694531 132.071021 
L 262.892614 128.233939 
L 265.090696 128.143228 
L 267.288779 124.737024 
L 269.486861 124.632707 
L 271.684943 123.743737 
L 273.883026 120.727592 
L 276.081108 120.614203 
L 278.279191 119.076649 
L 280.477273 116.976686 
L 284.873438 113.370918 
L 287.07152 112.495555 
L 289.269603 110.894503 
L 291.467685 109.089352 
L 293.665767 108.127813 
L 295.86385 106.313591 
L 298.061932 104.785108 
L 300.260015 103.075203 
L 302.458097 100.970704 
L 304.656179 99.655392 
L 306.854262 96.01334 
L 309.052344 95.904486 
L 311.250426 94.942948 
L 313.448509 92.561781 
L 315.646591 91.427891 
L 317.844674 81.572125 
L 320.042756 81.436059 
L 322.240838 79.177351 
L 324.438921 77.775864 
L 326.637003 76.596619 
L 331.033168 73.312875 
L 333.23125 72.360408 
L 335.429333 65.593357 
L 337.627415 65.216906 
L 339.825498 65.157943 
L 342.02358 63.928807 
L 344.221662 63.026231 
L 346.419745 58.785485 
L 348.617827 58.272967 
L 350.815909 58.186792 
L 353.013992 56.118578 
L 355.212074 51.936794 
L 357.410157 50.97072 
L 359.608239 50.571591 
L 364.004404 136.597507 
L 366.202486 136.112202 
L 368.400569 135.091702 
L 370.598651 133.300157 
L 372.796733 131.939489 
L 374.994816 127.648852 
L 377.192898 127.562677 
L 381.589063 124.265326 
L 405.767969 104.862212 
L 407.966052 103.596792 
L 410.164134 101.886887 
L 412.362216 99.591895 
L 414.560299 97.900132 
L 416.758381 95.550713 
L 421.154546 92.099154 
L 423.352628 90.126186 
L 425.550711 88.497921 
L 427.748793 86.270963 
L 432.144958 82.637981 
L 436.541123 80.306705 
L 438.739205 78.728331 
L 440.937288 77.803077 
L 443.13537 76.546728 
L 445.333452 73.866213 
L 447.531535 72.918282 
L 449.729617 71.711824 
L 451.927699 69.434974 
L 454.125782 67.679713 
L 456.323864 66.446042 
L 458.521947 65.756637 
L 460.720029 64.418647 
L 462.918111 62.20076 
L 465.116194 62.010267 
L 467.314276 60.336646 
L 469.512359 59.152865 
L 471.710441 57.792198 
L 473.908523 56.272786 
L 476.106606 55.492671 
L 482.700853 136.592971 
L 484.898935 136.334445 
L 487.097018 135.835533 
L 489.2951 134.678966 
L 491.493182 130.996094 
L 493.691265 130.891776 
L 495.889347 130.424613 
L 498.08743 128.633068 
L 500.285512 128.12055 
L 502.483594 127.240652 
L 504.681677 126.0478 
L 506.879759 125.870914 
L 509.077842 123.204006 
L 511.275924 121.498636 
L 513.474006 118.958724 
L 515.672089 117.271497 
L 517.870171 115.815583 
L 520.068254 114.096607 
L 522.266336 111.833364 
L 524.464418 110.617834 
L 526.662501 108.903394 
L 528.860583 108.136885 
L 531.058666 105.914461 
L 533.256748 104.72161 
L 535.45483 103.705645 
L 537.652913 100.902671 
L 539.850995 99.06577 
L 542.049077 98.213085 
L 544.24716 95.364755 
L 546.445242 94.108406 
L 555.237572 86.026043 
L 557.435654 84.121108 
L 564.029901 79.558338 
L 568.426066 77.331379 
L 570.624149 75.798361 
L 572.822231 74.932069 
L 575.020313 74.306162 
L 577.218396 73.095169 
L 579.416478 71.648326 
L 581.61456 70.62329 
L 583.812643 68.314691 
L 586.010725 68.314691 
L 588.208808 67.194409 
L 590.40689 67.103697 
L 592.604972 65.516252 
L 594.803055 65.117123 
L 599.19922 136.116738 
L 601.397302 134.778748 
L 607.991549 133.622181 
L 610.189632 133.508792 
L 612.387714 132.978132 
L 614.585796 132.669714 
L 618.981961 130.996094 
L 654.151279 114.141962 
L 656.349362 113.819938 
L 658.547444 112.844793 
L 660.745527 112.49102 
L 665.141691 110.844612 
L 667.339774 110.563408 
L 684.924433 106.395231 
L 687.122515 105.53801 
L 695.914845 103.714716 
L 698.112927 103.188592 
L 700.31101 102.462902 
L 704.707174 101.646502 
L 706.905257 101.619289 
L 713.499504 100.512613 
L 717.895669 136.602042 
L 726.687998 134.796891 
L 728.886081 134.778748 
L 731.084163 133.944206 
L 737.67841 132.669714 
L 746.47074 130.215978 
L 753.064987 128.959628 
L 757.461152 127.694208 
L 759.659234 125.807416 
L 761.857317 125.113476 
L 764.055399 124.70074 
L 766.253481 124.08844 
L 770.649646 122.573564 
L 772.847728 121.466888 
L 775.045811 121.176612 
L 781.640058 119.788731 
L 783.83814 119.244464 
L 788.234305 118.623093 
L 790.432388 118.115111 
L 792.63047 117.765873 
L 799.224717 117.239748 
L 808.017047 115.593341 
L 814.611294 114.318849 
L 816.809376 113.79726 
L 819.007459 113.475236 
L 823.403623 112.563589 
L 825.601706 112.341346 
L 827.799788 111.892326 
L 829.997871 111.202921 
L 834.394035 136.670076 
L 834.394035 136.670076 
" clip-path="url(#pf0f444ea32)" style="fill: none; stroke: #4c72b0; stroke-width: 1.5; stroke-linecap: round"/>
   </g>
   <g id="patch_3">
    <path d="M 139.8 140.975 
L 139.8 46.266667 
" style="fill: none; stroke: #262626; stroke-width: 1.25; stroke-linejoin: miter; stroke-linecap: square"/>
   </g>
   <g id="patch_4">
    <path d="M 834.394035 140.975 
L 834.394035 46.266667 
" style="fill: none; stroke: #262626; stroke-width: 1.25; stroke-linejoin: miter; stroke-linecap: square"/>
   </g>
   <g id="patch_5">
    <path d="M 139.8 140.975 
L 834.394035 140.975 
" style="fill: none; stroke: #262626; stroke-width: 1.25; stroke-linejoin: miter; stroke-linecap: square"/>
   </g>
   <g id="patch_6">
    <path d="M 139.8 46.266667 
L 834.394035 46.266667 
" style="fill: none; stroke: #262626; stroke-width: 1.25; stroke-linejoin: miter; stroke-linecap: square"/>
   </g>
   <g id="text_3">
    <!-- Acute bloody diarrhea -->
    <g style="fill: #262626" transform="translate(428.730143 40.266667) scale(0.12 -0.12)">
     <defs>
      <path id="ArialMT-41" d="M -9 0 
L 1750 4581 
L 2403 4581 
L 4278 0 
L 3588 0 
L 3053 1388 
L 1138 1388 
L 634 0 
L -9 0 
z
M 1313 1881 
L 2866 1881 
L 2388 3150 
Q 2169 3728 2063 4100 
Q 1975 3659 1816 3225 
L 1313 1881 
z
" transform="scale(0.015625)"/>
      <path id="ArialMT-63" d="M 2588 1216 
L 3141 1144 
Q 3050 572 2676 248 
Q 2303 -75 1759 -75 
Q 1078 -75 664 370 
Q 250 816 250 1647 
Q 250 2184 428 2587 
Q 606 2991 970 3192 
Q 1334 3394 1763 3394 
Q 2303 3394 2647 3120 
Q 2991 2847 3088 2344 
L 2541 2259 
Q 2463 2594 2264 2762 
Q 2066 2931 1784 2931 
Q 1359 2931 1093 2626 
Q 828 2322 828 1663 
Q 828 994 1084 691 
Q 1341 388 1753 388 
Q 2084 388 2306 591 
Q 2528 794 2588 1216 
z
" transform="scale(0.015625)"/>
      <path id="ArialMT-75" d="M 2597 0 
L 2597 488 
Q 2209 -75 1544 -75 
Q 1250 -75 995 37 
Q 741 150 617 320 
Q 494 491 444 738 
Q 409 903 409 1263 
L 409 3319 
L 972 3319 
L 972 1478 
Q 972 1038 1006 884 
Q 1059 663 1231 536 
Q 1403 409 1656 409 
Q 1909 409 2131 539 
Q 2353 669 2445 892 
Q 2538 1116 2538 1541 
L 2538 3319 
L 3100 3319 
L 3100 0 
L 2597 0 
z
" transform="scale(0.015625)"/>
      <path id="ArialMT-74" d="M 1650 503 
L 1731 6 
Q 1494 -44 1306 -44 
Q 1000 -44 831 53 
Q 663 150 594 308 
Q 525 466 525 972 
L 525 2881 
L 113 2881 
L 113 3319 
L 525 3319 
L 525 4141 
L 1084 4478 
L 1084 3319 
L 1650 3319 
L 1650 2881 
L 1084 2881 
L 1084 941 
Q 1084 700 1114 631 
Q 1144 563 1211 522 
Q 1278 481 1403 481 
Q 1497 481 1650 503 
z
" transform="scale(0.015625)"/>
      <path id="ArialMT-65" d="M 2694 1069 
L 3275 997 
Q 3138 488 2766 206 
Q 2394 -75 1816 -75 
Q 1088 -75 661 373 
Q 234 822 234 1631 
Q 234 2469 665 2931 
Q 1097 3394 1784 3394 
Q 2450 3394 2872 2941 
Q 3294 2488 3294 1666 
Q 3294 1616 3291 1516 
L 816 1516 
Q 847 969 1125 678 
Q 1403 388 1819 388 
Q 2128 388 2347 550 
Q 2566 713 2694 1069 
z
M 847 1978 
L 2700 1978 
Q 2663 2397 2488 2606 
Q 2219 2931 1791 2931 
Q 1403 2931 1139 2672 
Q 875 2413 847 1978 
z
" transform="scale(0.015625)"/>
      <path id="ArialMT-20" transform="scale(0.015625)"/>
      <path id="ArialMT-62" d="M 941 0 
L 419 0 
L 419 4581 
L 981 4581 
L 981 2947 
Q 1338 3394 1891 3394 
Q 2197 3394 2470 3270 
Q 2744 3147 2920 2923 
Q 3097 2700 3197 2384 
Q 3297 2069 3297 1709 
Q 3297 856 2875 390 
Q 2453 -75 1863 -75 
Q 1275 -75 941 416 
L 941 0 
z
M 934 1684 
Q 934 1088 1097 822 
Q 1363 388 1816 388 
Q 2184 388 2453 708 
Q 2722 1028 2722 1663 
Q 2722 2313 2464 2622 
Q 2206 2931 1841 2931 
Q 1472 2931 1203 2611 
Q 934 2291 934 1684 
z
" transform="scale(0.015625)"/>
      <path id="ArialMT-6c" d="M 409 0 
L 409 4581 
L 972 4581 
L 972 0 
L 409 0 
z
" transform="scale(0.015625)"/>
      <path id="ArialMT-6f" d="M 213 1659 
Q 213 2581 725 3025 
Q 1153 3394 1769 3394 
Q 2453 3394 2887 2945 
Q 3322 2497 3322 1706 
Q 3322 1066 3130 698 
Q 2938 331 2570 128 
Q 2203 -75 1769 -75 
Q 1072 -75 642 372 
Q 213 819 213 1659 
z
M 791 1659 
Q 791 1022 1069 705 
Q 1347 388 1769 388 
Q 2188 388 2466 706 
Q 2744 1025 2744 1678 
Q 2744 2294 2464 2611 
Q 2184 2928 1769 2928 
Q 1347 2928 1069 2612 
Q 791 2297 791 1659 
z
" transform="scale(0.015625)"/>
      <path id="ArialMT-64" d="M 2575 0 
L 2575 419 
Q 2259 -75 1647 -75 
Q 1250 -75 917 144 
Q 584 363 401 755 
Q 219 1147 219 1656 
Q 219 2153 384 2558 
Q 550 2963 881 3178 
Q 1213 3394 1622 3394 
Q 1922 3394 2156 3267 
Q 2391 3141 2538 2938 
L 2538 4581 
L 3097 4581 
L 3097 0 
L 2575 0 
z
M 797 1656 
Q 797 1019 1065 703 
Q 1334 388 1700 388 
Q 2069 388 2326 689 
Q 2584 991 2584 1609 
Q 2584 2291 2321 2609 
Q 2059 2928 1675 2928 
Q 1300 2928 1048 2622 
Q 797 2316 797 1656 
z
" transform="scale(0.015625)"/>
      <path id="ArialMT-79" d="M 397 -1278 
L 334 -750 
Q 519 -800 656 -800 
Q 844 -800 956 -737 
Q 1069 -675 1141 -563 
Q 1194 -478 1313 -144 
Q 1328 -97 1363 -6 
L 103 3319 
L 709 3319 
L 1400 1397 
Q 1534 1031 1641 628 
Q 1738 1016 1872 1384 
L 2581 3319 
L 3144 3319 
L 1881 -56 
Q 1678 -603 1566 -809 
Q 1416 -1088 1222 -1217 
Q 1028 -1347 759 -1347 
Q 597 -1347 397 -1278 
z
" transform="scale(0.015625)"/>
      <path id="ArialMT-69" d="M 425 3934 
L 425 4581 
L 988 4581 
L 988 3934 
L 425 3934 
z
M 425 0 
L 425 3319 
L 988 3319 
L 988 0 
L 425 0 
z
" transform="scale(0.015625)"/>
      <path id="ArialMT-61" d="M 2588 409 
Q 2275 144 1986 34 
Q 1697 -75 1366 -75 
Q 819 -75 525 192 
Q 231 459 231 875 
Q 231 1119 342 1320 
Q 453 1522 633 1644 
Q 813 1766 1038 1828 
Q 1203 1872 1538 1913 
Q 2219 1994 2541 2106 
Q 2544 2222 2544 2253 
Q 2544 2597 2384 2738 
Q 2169 2928 1744 2928 
Q 1347 2928 1158 2789 
Q 969 2650 878 2297 
L 328 2372 
Q 403 2725 575 2942 
Q 747 3159 1072 3276 
Q 1397 3394 1825 3394 
Q 2250 3394 2515 3294 
Q 2781 3194 2906 3042 
Q 3031 2891 3081 2659 
Q 3109 2516 3109 2141 
L 3109 1391 
Q 3109 606 3145 398 
Q 3181 191 3288 0 
L 2700 0 
Q 2613 175 2588 409 
z
M 2541 1666 
Q 2234 1541 1622 1453 
Q 1275 1403 1131 1340 
Q 988 1278 909 1158 
Q 831 1038 831 891 
Q 831 666 1001 516 
Q 1172 366 1500 366 
Q 1825 366 2078 508 
Q 2331 650 2450 897 
Q 2541 1088 2541 1459 
L 2541 1666 
z
" transform="scale(0.015625)"/>
      <path id="ArialMT-72" d="M 416 0 
L 416 3319 
L 922 3319 
L 922 2816 
Q 1116 3169 1280 3281 
Q 1444 3394 1641 3394 
Q 1925 3394 2219 3213 
L 2025 2691 
Q 1819 2813 1613 2813 
Q 1428 2813 1281 2702 
Q 1134 2591 1072 2394 
Q 978 2094 978 1738 
L 978 0 
L 416 0 
z
" transform="scale(0.015625)"/>
      <path id="ArialMT-68" d="M 422 0 
L 422 4581 
L 984 4581 
L 984 2938 
Q 1378 3394 1978 3394 
Q 2347 3394 2619 3248 
Q 2891 3103 3008 2847 
Q 3125 2591 3125 2103 
L 3125 0 
L 2563 0 
L 2563 2103 
Q 2563 2525 2380 2717 
Q 2197 2909 1863 2909 
Q 1613 2909 1392 2779 
Q 1172 2650 1078 2428 
Q 984 2206 984 1816 
L 984 0 
L 422 0 
z
" transform="scale(0.015625)"/>
     </defs>
     <use xlink:href="#ArialMT-41"/>
     <use xlink:href="#ArialMT-63" x="66.699219"/>
     <use xlink:href="#ArialMT-75" x="116.699219"/>
     <use xlink:href="#ArialMT-74" x="172.314453"/>
     <use xlink:href="#ArialMT-65" x="200.097656"/>
     <use xlink:href="#ArialMT-20" x="255.712891"/>
     <use xlink:href="#ArialMT-62" x="283.496094"/>
     <use xlink:href="#ArialMT-6c" x="339.111328"/>
     <use xlink:href="#ArialMT-6f" x="361.328125"/>
     <use xlink:href="#ArialMT-6f" x="416.943359"/>
     <use xlink:href="#ArialMT-64" x="472.558594"/>
     <use xlink:href="#ArialMT-79" x="528.173828"/>
     <use xlink:href="#ArialMT-20" x="578.173828"/>
     <use xlink:href="#ArialMT-64" x="605.957031"/>
     <use xlink:href="#ArialMT-69" x="661.572266"/>
     <use xlink:href="#ArialMT-61" x="683.789062"/>
     <use xlink:href="#ArialMT-72" x="739.404297"/>
     <use xlink:href="#ArialMT-72" x="772.705078"/>
     <use xlink:href="#ArialMT-68" x="806.005859"/>
     <use xlink:href="#ArialMT-65" x="861.621094"/>
     <use xlink:href="#ArialMT-61" x="917.236328"/>
    </g>
   </g>
  </g>
  <g id="axes_2">
   <g id="patch_7">
    <path d="M 139.8 267.283333 
L 834.394035 267.283333 
L 834.394035 172.575 
L 139.8 172.575 
z
" style="fill: #ffffff"/>
   </g>
   <g id="matplotlib.axis_3">
    <g id="xtick_7">
     <g id="line2d_10">
      <g>
       <use xlink:href="#m08f3bebff3" x="243.423884" y="267.283333" style="fill: #262626; stroke: #262626; stroke-width: 1.25"/>
      </g>
     </g>
    </g>
    <g id="xtick_8">
     <g id="line2d_11">
      <g>
       <use xlink:href="#m08f3bebff3" x="358.03818" y="267.283333" style="fill: #262626; stroke: #262626; stroke-width: 1.25"/>
      </g>
     </g>
    </g>
    <g id="xtick_9">
     <g id="line2d_12">
      <g>
       <use xlink:href="#m08f3bebff3" x="472.652476" y="267.283333" style="fill: #262626; stroke: #262626; stroke-width: 1.25"/>
      </g>
     </g>
    </g>
    <g id="xtick_10">
     <g id="line2d_13">
      <g>
       <use xlink:href="#m08f3bebff3" x="587.266772" y="267.283333" style="fill: #262626; stroke: #262626; stroke-width: 1.25"/>
      </g>
     </g>
    </g>
    <g id="xtick_11">
     <g id="line2d_14">
      <g>
       <use xlink:href="#m08f3bebff3" x="702.19508" y="267.283333" style="fill: #262626; stroke: #262626; stroke-width: 1.25"/>
      </g>
     </g>
    </g>
    <g id="xtick_12">
     <g id="line2d_15">
      <g>
       <use xlink:href="#m08f3bebff3" x="816.809376" y="267.283333" style="fill: #262626; stroke: #262626; stroke-width: 1.25"/>
      </g>
     </g>
    </g>
   </g>
   <g id="matplotlib.axis_4">
    <g id="ytick_3">
     <g id="line2d_16">
      <g>
       <use xlink:href="#m503fc3f62f" x="139.8" y="242.973064" style="fill: #262626; stroke: #262626; stroke-width: 1.25"/>
      </g>
     </g>
     <g id="text_4">
      <!-- 5000 -->
      <g style="fill: #262626" transform="translate(105.831875 246.90986) scale(0.11 -0.11)">
       <defs>
        <path id="ArialMT-35" d="M 266 1200 
L 856 1250 
Q 922 819 1161 601 
Q 1400 384 1738 384 
Q 2144 384 2425 690 
Q 2706 997 2706 1503 
Q 2706 1984 2436 2262 
Q 2166 2541 1728 2541 
Q 1456 2541 1237 2417 
Q 1019 2294 894 2097 
L 366 2166 
L 809 4519 
L 3088 4519 
L 3088 3981 
L 1259 3981 
L 1013 2750 
Q 1425 3038 1878 3038 
Q 2478 3038 2890 2622 
Q 3303 2206 3303 1553 
Q 3303 931 2941 478 
Q 2500 -78 1738 -78 
Q 1113 -78 717 272 
Q 322 622 266 1200 
z
" transform="scale(0.015625)"/>
       </defs>
       <use xlink:href="#ArialMT-35"/>
       <use xlink:href="#ArialMT-30" x="55.615234"/>
       <use xlink:href="#ArialMT-30" x="111.230469"/>
       <use xlink:href="#ArialMT-30" x="166.845703"/>
      </g>
     </g>
    </g>
    <g id="ytick_4">
     <g id="line2d_17">
      <g>
       <use xlink:href="#m503fc3f62f" x="139.8" y="213.636014" style="fill: #262626; stroke: #262626; stroke-width: 1.25"/>
      </g>
     </g>
     <g id="text_5">
      <!-- 7500 -->
      <g style="fill: #262626" transform="translate(105.831875 217.572811) scale(0.11 -0.11)">
       <defs>
        <path id="ArialMT-37" d="M 303 3981 
L 303 4522 
L 3269 4522 
L 3269 4084 
Q 2831 3619 2401 2847 
Q 1972 2075 1738 1259 
Q 1569 684 1522 0 
L 944 0 
Q 953 541 1156 1306 
Q 1359 2072 1739 2783 
Q 2119 3494 2547 3981 
L 303 3981 
z
" transform="scale(0.015625)"/>
       </defs>
       <use xlink:href="#ArialMT-37"/>
       <use xlink:href="#ArialMT-35" x="55.615234"/>
       <use xlink:href="#ArialMT-30" x="111.230469"/>
       <use xlink:href="#ArialMT-30" x="166.845703"/>
      </g>
     </g>
    </g>
    <g id="ytick_5">
     <g id="line2d_18">
      <g>
       <use xlink:href="#m503fc3f62f" x="139.8" y="184.298965" style="fill: #262626; stroke: #262626; stroke-width: 1.25"/>
      </g>
     </g>
     <g id="text_6">
      <!-- 10000 -->
      <g style="fill: #262626" transform="translate(99.714844 188.235762) scale(0.11 -0.11)">
       <use xlink:href="#ArialMT-31"/>
       <use xlink:href="#ArialMT-30" x="55.615234"/>
       <use xlink:href="#ArialMT-30" x="111.230469"/>
       <use xlink:href="#ArialMT-30" x="166.845703"/>
       <use xlink:href="#ArialMT-30" x="222.460938"/>
      </g>
     </g>
    </g>
    <g id="text_7">
     <!-- Trend -->
     <g style="fill: #262626" transform="translate(93.329844 235.376354) rotate(-90) scale(0.12 -0.12)">
      <defs>
       <path id="ArialMT-54" d="M 1659 0 
L 1659 4041 
L 150 4041 
L 150 4581 
L 3781 4581 
L 3781 4041 
L 2266 4041 
L 2266 0 
L 1659 0 
z
" transform="scale(0.015625)"/>
       <path id="ArialMT-6e" d="M 422 0 
L 422 3319 
L 928 3319 
L 928 2847 
Q 1294 3394 1984 3394 
Q 2284 3394 2536 3286 
Q 2788 3178 2913 3003 
Q 3038 2828 3088 2588 
Q 3119 2431 3119 2041 
L 3119 0 
L 2556 0 
L 2556 2019 
Q 2556 2363 2490 2533 
Q 2425 2703 2258 2804 
Q 2091 2906 1866 2906 
Q 1506 2906 1245 2678 
Q 984 2450 984 1813 
L 984 0 
L 422 0 
z
" transform="scale(0.015625)"/>
      </defs>
      <use xlink:href="#ArialMT-54"/>
      <use xlink:href="#ArialMT-72" x="57.333984"/>
      <use xlink:href="#ArialMT-65" x="90.634766"/>
      <use xlink:href="#ArialMT-6e" x="146.25"/>
      <use xlink:href="#ArialMT-64" x="201.865234"/>
     </g>
    </g>
   </g>
   <g id="line2d_19">
    <path d="M 139.8 217.385165 
L 150.790412 218.002472 
L 159.582742 218.331368 
L 174.969318 218.952895 
L 190.355895 219.342057 
L 205.742472 219.491934 
L 249.70412 219.472545 
L 256.298367 218.592608 
L 260.694531 217.8 
L 265.090696 216.771997 
L 269.486861 215.47642 
L 273.883026 213.923725 
L 278.279191 212.151522 
L 284.873438 209.198917 
L 298.061932 202.878754 
L 306.854262 198.777202 
L 313.448509 195.893075 
L 320.042756 193.206289 
L 326.637003 190.715079 
L 335.429333 187.669035 
L 344.221662 184.863653 
L 359.608239 180.191104 
L 364.004404 179.562336 
L 368.400569 178.438339 
L 372.796733 177.577293 
L 377.192898 177.047705 
L 381.589063 176.879924 
L 403.569887 176.932817 
L 407.966052 177.302095 
L 412.362216 177.998971 
L 416.758381 178.988802 
L 421.154546 179.581178 
L 425.550711 180.933488 
L 432.144958 183.29338 
L 440.937288 186.805656 
L 454.125782 192.112405 
L 460.720029 194.495849 
L 467.314276 196.580041 
L 473.908523 198.342317 
L 476.106606 198.868739 
L 482.700853 199.373256 
L 493.691265 201.725695 
L 500.285512 202.891502 
L 504.681677 203.467148 
L 509.077842 203.872858 
L 515.672089 204.207473 
L 524.464418 204.321025 
L 537.652913 204.187143 
L 557.435654 203.976338 
L 564.029901 204.116829 
L 568.426066 204.356674 
L 572.822231 204.758983 
L 577.218396 205.37122 
L 581.61456 206.235739 
L 586.010725 207.359782 
L 590.40689 208.718236 
L 594.803055 210.300903 
L 599.19922 211.181186 
L 603.595384 213.137592 
L 607.991549 215.370385 
L 612.387714 217.871831 
L 616.783879 220.611535 
L 618.981961 222.057022 
L 654.151279 223.544035 
L 662.943609 229.76404 
L 671.735939 236.095791 
L 680.528268 239.182006 
L 687.122515 243.590389 
L 689.320598 244.981598 
L 695.914845 246.326536 
L 700.31101 248.863402 
L 704.707174 251.178148 
L 709.103339 253.259852 
L 717.895669 255.113941 
L 722.291833 256.75938 
L 726.687998 258.221301 
L 731.084163 259.520998 
L 737.67841 260.366254 
L 746.47074 261.223149 
L 757.461152 262.034125 
L 768.451564 262.576103 
L 779.441976 262.877024 
L 792.63047 262.97797 
L 805.818964 262.849148 
L 821.205541 262.453576 
L 834.394035 262.014974 
L 834.394035 262.014974 
" clip-path="url(#p6ed3fd25a0)" style="fill: none; stroke: #4c72b0; stroke-width: 1.5; stroke-linecap: round"/>
   </g>
   <g id="patch_8">
    <path d="M 139.8 267.283333 
L 139.8 172.575 
" style="fill: none; stroke: #262626; stroke-width: 1.25; stroke-linejoin: miter; stroke-linecap: square"/>
   </g>
   <g id="patch_9">
    <path d="M 834.394035 267.283333 
L 834.394035 172.575 
" style="fill: none; stroke: #262626; stroke-width: 1.25; stroke-linejoin: miter; stroke-linecap: square"/>
   </g>
   <g id="patch_10">
    <path d="M 139.8 267.283333 
L 834.394035 267.283333 
" style="fill: none; stroke: #262626; stroke-width: 1.25; stroke-linejoin: miter; stroke-linecap: square"/>
   </g>
   <g id="patch_11">
    <path d="M 139.8 172.575 
L 834.394035 172.575 
" style="fill: none; stroke: #262626; stroke-width: 1.25; stroke-linejoin: miter; stroke-linecap: square"/>
   </g>
  </g>
  <g id="axes_3">
   <g id="patch_12">
    <path d="M 139.8 393.591667 
L 834.394035 393.591667 
L 834.394035 298.883333 
L 139.8 298.883333 
z
" style="fill: #ffffff"/>
   </g>
   <g id="matplotlib.axis_5">
    <g id="xtick_13">
     <g id="line2d_20">
      <g>
       <use xlink:href="#m08f3bebff3" x="243.423884" y="393.591667" style="fill: #262626; stroke: #262626; stroke-width: 1.25"/>
      </g>
     </g>
    </g>
    <g id="xtick_14">
     <g id="line2d_21">
      <g>
       <use xlink:href="#m08f3bebff3" x="358.03818" y="393.591667" style="fill: #262626; stroke: #262626; stroke-width: 1.25"/>
      </g>
     </g>
    </g>
    <g id="xtick_15">
     <g id="line2d_22">
      <g>
       <use xlink:href="#m08f3bebff3" x="472.652476" y="393.591667" style="fill: #262626; stroke: #262626; stroke-width: 1.25"/>
      </g>
     </g>
    </g>
    <g id="xtick_16">
     <g id="line2d_23">
      <g>
       <use xlink:href="#m08f3bebff3" x="587.266772" y="393.591667" style="fill: #262626; stroke: #262626; stroke-width: 1.25"/>
      </g>
     </g>
    </g>
    <g id="xtick_17">
     <g id="line2d_24">
      <g>
       <use xlink:href="#m08f3bebff3" x="702.19508" y="393.591667" style="fill: #262626; stroke: #262626; stroke-width: 1.25"/>
      </g>
     </g>
    </g>
    <g id="xtick_18">
     <g id="line2d_25">
      <g>
       <use xlink:href="#m08f3bebff3" x="816.809376" y="393.591667" style="fill: #262626; stroke: #262626; stroke-width: 1.25"/>
      </g>
     </g>
    </g>
   </g>
   <g id="matplotlib.axis_6">
    <g id="ytick_6">
     <g id="line2d_26">
      <g>
       <use xlink:href="#m503fc3f62f" x="139.8" y="372.85677" style="fill: #262626; stroke: #262626; stroke-width: 1.25"/>
      </g>
     </g>
     <g id="text_8">
      <!-- −5000 -->
      <g style="fill: #262626" transform="translate(99.407187 376.793567) scale(0.11 -0.11)">
       <defs>
        <path id="ArialMT-2212" d="M 3381 1997 
L 356 1997 
L 356 2522 
L 3381 2522 
L 3381 1997 
z
" transform="scale(0.015625)"/>
       </defs>
       <use xlink:href="#ArialMT-2212"/>
       <use xlink:href="#ArialMT-35" x="58.398438"/>
       <use xlink:href="#ArialMT-30" x="114.013672"/>
       <use xlink:href="#ArialMT-30" x="169.628906"/>
       <use xlink:href="#ArialMT-30" x="225.244141"/>
      </g>
     </g>
    </g>
    <g id="ytick_7">
     <g id="line2d_27">
      <g>
       <use xlink:href="#m503fc3f62f" x="139.8" y="343.394337" style="fill: #262626; stroke: #262626; stroke-width: 1.25"/>
      </g>
     </g>
     <g id="text_9">
      <!-- 0 -->
      <g style="fill: #262626" transform="translate(124.182969 347.331134) scale(0.11 -0.11)">
       <use xlink:href="#ArialMT-30"/>
      </g>
     </g>
    </g>
    <g id="ytick_8">
     <g id="line2d_28">
      <g>
       <use xlink:href="#m503fc3f62f" x="139.8" y="313.931904" style="fill: #262626; stroke: #262626; stroke-width: 1.25"/>
      </g>
     </g>
     <g id="text_10">
      <!-- 5000 -->
      <g style="fill: #262626" transform="translate(105.831875 317.868701) scale(0.11 -0.11)">
       <use xlink:href="#ArialMT-35"/>
       <use xlink:href="#ArialMT-30" x="55.615234"/>
       <use xlink:href="#ArialMT-30" x="111.230469"/>
       <use xlink:href="#ArialMT-30" x="166.845703"/>
      </g>
     </g>
    </g>
    <g id="text_11">
     <!-- Season -->
     <g style="fill: #262626" transform="translate(93.022187 366.585937) rotate(-90) scale(0.12 -0.12)">
      <defs>
       <path id="ArialMT-53" d="M 288 1472 
L 859 1522 
Q 900 1178 1048 958 
Q 1197 738 1509 602 
Q 1822 466 2213 466 
Q 2559 466 2825 569 
Q 3091 672 3220 851 
Q 3350 1031 3350 1244 
Q 3350 1459 3225 1620 
Q 3100 1781 2813 1891 
Q 2628 1963 1997 2114 
Q 1366 2266 1113 2400 
Q 784 2572 623 2826 
Q 463 3081 463 3397 
Q 463 3744 659 4045 
Q 856 4347 1234 4503 
Q 1613 4659 2075 4659 
Q 2584 4659 2973 4495 
Q 3363 4331 3572 4012 
Q 3781 3694 3797 3291 
L 3216 3247 
Q 3169 3681 2898 3903 
Q 2628 4125 2100 4125 
Q 1550 4125 1298 3923 
Q 1047 3722 1047 3438 
Q 1047 3191 1225 3031 
Q 1400 2872 2139 2705 
Q 2878 2538 3153 2413 
Q 3553 2228 3743 1945 
Q 3934 1663 3934 1294 
Q 3934 928 3725 604 
Q 3516 281 3123 101 
Q 2731 -78 2241 -78 
Q 1619 -78 1198 103 
Q 778 284 539 648 
Q 300 1013 288 1472 
z
" transform="scale(0.015625)"/>
       <path id="ArialMT-73" d="M 197 991 
L 753 1078 
Q 800 744 1014 566 
Q 1228 388 1613 388 
Q 2000 388 2187 545 
Q 2375 703 2375 916 
Q 2375 1106 2209 1216 
Q 2094 1291 1634 1406 
Q 1016 1563 777 1677 
Q 538 1791 414 1992 
Q 291 2194 291 2438 
Q 291 2659 392 2848 
Q 494 3038 669 3163 
Q 800 3259 1026 3326 
Q 1253 3394 1513 3394 
Q 1903 3394 2198 3281 
Q 2494 3169 2634 2976 
Q 2775 2784 2828 2463 
L 2278 2388 
Q 2241 2644 2061 2787 
Q 1881 2931 1553 2931 
Q 1166 2931 1000 2803 
Q 834 2675 834 2503 
Q 834 2394 903 2306 
Q 972 2216 1119 2156 
Q 1203 2125 1616 2013 
Q 2213 1853 2448 1751 
Q 2684 1650 2818 1456 
Q 2953 1263 2953 975 
Q 2953 694 2789 445 
Q 2625 197 2315 61 
Q 2006 -75 1616 -75 
Q 969 -75 630 194 
Q 291 463 197 991 
z
" transform="scale(0.015625)"/>
      </defs>
      <use xlink:href="#ArialMT-53"/>
      <use xlink:href="#ArialMT-65" x="66.699219"/>
      <use xlink:href="#ArialMT-61" x="122.314453"/>
      <use xlink:href="#ArialMT-73" x="177.929688"/>
      <use xlink:href="#ArialMT-6f" x="227.929688"/>
      <use xlink:href="#ArialMT-6e" x="283.544922"/>
     </g>
    </g>
   </g>
   <g id="line2d_29">
    <path d="M 139.8 372.606556 
L 141.998082 380.58527 
L 144.196165 379.107423 
L 146.394247 378.031372 
L 148.59233 374.408379 
L 150.790412 374.508202 
L 155.186577 369.679576 
L 157.384659 370.099867 
L 161.780824 367.986782 
L 163.978906 366.129069 
L 166.176989 364.585712 
L 168.375071 361.58909 
L 170.573153 361.020625 
L 172.771236 357.818294 
L 174.969318 357.632988 
L 177.167401 355.107285 
L 179.365483 354.301468 
L 181.563565 350.697709 
L 183.761648 349.367695 
L 185.95973 348.897917 
L 188.157813 346.936585 
L 190.355895 346.023378 
L 192.553977 342.76634 
L 194.75206 341.247034 
L 196.950142 338.772497 
L 199.148225 338.63767 
L 201.346307 336.513135 
L 203.544389 334.991275 
L 205.742472 329.215979 
L 207.940554 328.625009 
L 210.138636 326.42518 
L 212.336719 322.373559 
L 216.732884 319.473115 
L 218.930966 318.306942 
L 221.129048 316.399116 
L 223.327131 313.212365 
L 225.525213 312.079066 
L 227.723296 311.083401 
L 232.11946 308.111758 
L 234.317543 304.174246 
L 236.515625 312.269674 
L 238.713708 311.638867 
L 240.91179 308.939348 
L 249.70412 360.775185 
L 251.902202 350.522812 
L 254.100284 362.944284 
L 256.298367 385.670134 
L 258.496449 384.1997 
L 260.694531 383.188515 
L 262.892614 380.138601 
L 265.090696 379.660305 
L 267.288779 375.567291 
L 269.486861 375.258038 
L 271.684943 373.831727 
L 273.883026 371.222501 
L 276.081108 366.060089 
L 278.279191 364.299076 
L 280.477273 361.747968 
L 282.675355 360.378796 
L 284.873438 357.579805 
L 287.07152 356.656337 
L 289.269603 354.344608 
L 291.467685 352.465463 
L 293.665767 349.604225 
L 298.061932 346.489673 
L 300.260015 344.39749 
L 302.458097 342.979892 
L 304.656179 340.147955 
L 306.854262 338.245584 
L 309.052344 336.058901 
L 311.250426 335.184791 
L 313.448509 332.97226 
L 315.646591 330.999964 
L 317.844674 325.912771 
L 320.042756 324.953198 
L 322.240838 322.578431 
L 324.438921 321.238425 
L 328.835086 318.277224 
L 331.033168 316.778446 
L 333.23125 314.873939 
L 335.429333 312.01806 
L 337.627415 310.656133 
L 339.825498 309.498818 
L 342.02358 307.986491 
L 344.221662 306.187745 
L 346.419745 303.188258 
L 348.617827 324.804817 
L 350.815909 324.272923 
L 353.013992 322.009299 
L 355.212074 350.050104 
L 357.410157 356.11891 
L 359.608239 357.805947 
L 364.004404 389.286742 
L 366.202486 387.784997 
L 368.400569 386.850546 
L 370.598651 384.368741 
L 372.796733 383.384539 
L 374.994816 380.164064 
L 377.192898 379.122423 
L 379.390981 377.437925 
L 381.589063 372.62306 
L 403.569887 365.367613 
L 405.767969 363.442576 
L 410.164134 359.262984 
L 412.362216 356.926066 
L 414.560299 355.392184 
L 416.758381 353.389179 
L 421.154546 350.668422 
L 423.352628 348.58422 
L 425.550711 346.76971 
L 427.748793 344.375407 
L 429.946876 342.249272 
L 432.144958 340.423936 
L 436.541123 335.770034 
L 438.739205 333.951048 
L 440.937288 332.417117 
L 445.333452 327.928416 
L 447.531535 323.432549 
L 449.729617 322.206212 
L 451.927699 319.764137 
L 454.125782 322.662361 
L 460.720029 317.972002 
L 462.918111 316.186054 
L 465.116194 313.573674 
L 467.314276 312.067611 
L 469.512359 310.824215 
L 471.710441 309.280237 
L 473.908523 307.320337 
L 476.106606 305.174453 
L 482.700853 334.712287 
L 484.898935 334.264563 
L 487.097018 332.38501 
L 489.2951 337.982883 
L 491.493182 359.72595 
L 493.691265 358.869427 
L 495.889347 386.877406 
L 498.08743 385.468067 
L 500.285512 384.356839 
L 502.483594 382.667858 
L 504.681677 381.382422 
L 506.879759 379.109171 
L 509.077842 377.550627 
L 511.275924 375.707094 
L 513.474006 367.863168 
L 515.672089 361.024444 
L 517.870171 359.107601 
L 520.068254 357.388359 
L 522.266336 355.2098 
L 524.464418 353.193595 
L 528.860583 349.80565 
L 531.058666 347.124962 
L 535.45483 343.49633 
L 537.652913 341.052374 
L 544.24716 335.315148 
L 546.445242 333.251761 
L 550.841407 329.736148 
L 553.039489 327.819008 
L 555.237572 325.694802 
L 557.435654 323.098433 
L 559.633737 321.732718 
L 561.831819 319.605384 
L 564.029901 330.043028 
L 566.227984 328.671688 
L 568.426066 327.439768 
L 570.624149 325.789239 
L 572.822231 327.563716 
L 575.020313 328.476346 
L 577.218396 326.830654 
L 581.61456 324.145254 
L 583.812643 322.352798 
L 586.010725 321.179106 
L 588.208808 342.15957 
L 590.40689 341.519733 
L 592.604972 339.983786 
L 594.803055 339.06437 
L 599.19922 366.492676 
L 601.397302 365.426965 
L 603.595384 373.858052 
L 605.793467 372.547136 
L 607.991549 370.972549 
L 612.387714 368.734915 
L 614.585796 367.513777 
L 618.981961 364.172105 
L 654.151279 355.583493 
L 656.349362 352.685964 
L 658.547444 351.188056 
L 660.745527 349.89262 
L 662.943609 348.247834 
L 665.141691 346.76998 
L 669.537856 344.437807 
L 671.735939 342.703775 
L 676.132103 341.294352 
L 680.528268 340.011694 
L 682.72635 338.417813 
L 687.122515 335.944403 
L 689.320598 334.375477 
L 695.914845 332.871338 
L 704.707174 327.362787 
L 709.103339 325.137865 
L 713.499504 323.734809 
L 717.895669 337.436185 
L 722.291833 335.573368 
L 724.489916 334.308131 
L 726.687998 346.369445 
L 728.886081 345.015283 
L 731.084163 343.269606 
L 733.282245 341.882295 
L 735.480328 340.73467 
L 737.67841 339.120426 
L 739.876493 338.933814 
L 742.074575 345.734817 
L 744.272657 344.874633 
L 746.47074 343.611083 
L 748.668822 338.588907 
L 750.866905 373.336191 
L 753.064987 372.017756 
L 755.263069 359.788405 
L 757.461152 358.617633 
L 759.659234 356.548561 
L 761.857317 355.960847 
L 764.055399 355.037372 
L 766.253481 354.779999 
L 768.451564 353.093876 
L 770.649646 351.714276 
L 772.847728 342.105345 
L 775.045811 343.464364 
L 777.243893 342.421355 
L 779.441976 341.587526 
L 783.83814 339.644037 
L 786.036223 339.001212 
L 788.234305 338.47822 
L 790.432388 337.803976 
L 792.63047 336.878501 
L 794.828552 336.104612 
L 801.4228 334.304627 
L 810.215129 330.573434 
L 814.611294 329.36449 
L 816.809376 329.391402 
L 821.205541 328.115842 
L 823.403623 345.867418 
L 825.601706 345.443467 
L 827.799788 344.816925 
L 829.997871 343.993804 
L 834.394035 366.986224 
L 834.394035 366.986224 
" clip-path="url(#pe8e2105777)" style="fill: none; stroke: #4c72b0; stroke-width: 1.5; stroke-linecap: round"/>
   </g>
   <g id="patch_13">
    <path d="M 139.8 393.591667 
L 139.8 298.883333 
" style="fill: none; stroke: #262626; stroke-width: 1.25; stroke-linejoin: miter; stroke-linecap: square"/>
   </g>
   <g id="patch_14">
    <path d="M 834.394035 393.591667 
L 834.394035 298.883333 
" style="fill: none; stroke: #262626; stroke-width: 1.25; stroke-linejoin: miter; stroke-linecap: square"/>
   </g>
   <g id="patch_15">
    <path d="M 139.8 393.591667 
L 834.394035 393.591667 
" style="fill: none; stroke: #262626; stroke-width: 1.25; stroke-linejoin: miter; stroke-linecap: square"/>
   </g>
   <g id="patch_16">
    <path d="M 139.8 298.883333 
L 834.394035 298.883333 
" style="fill: none; stroke: #262626; stroke-width: 1.25; stroke-linejoin: miter; stroke-linecap: square"/>
   </g>
  </g>
  <g id="axes_4">
   <g id="patch_17">
    <path d="M 139.8 519.9 
L 834.394035 519.9 
L 834.394035 425.191667 
L 139.8 425.191667 
z
" style="fill: #ffffff"/>
   </g>
   <g id="line2d_30">
    <path d="M 139.8 474.110005 
L 834.394035 474.110005 
" clip-path="url(#pcea788efd8)" style="fill: none; stroke: #000000; stroke-width: 1.5; stroke-linecap: round"/>
   </g>
   <g id="matplotlib.axis_7">
    <g id="xtick_19">
     <g id="line2d_31">
      <g>
       <use xlink:href="#m08f3bebff3" x="243.423884" y="519.9" style="fill: #262626; stroke: #262626; stroke-width: 1.25"/>
      </g>
     </g>
     <g id="text_12">
      <!-- 2017 -->
      <g style="fill: #262626" transform="translate(231.189822 537.273594) scale(0.11 -0.11)">
       <defs>
        <path id="ArialMT-32" d="M 3222 541 
L 3222 0 
L 194 0 
Q 188 203 259 391 
Q 375 700 629 1000 
Q 884 1300 1366 1694 
Q 2113 2306 2375 2664 
Q 2638 3022 2638 3341 
Q 2638 3675 2398 3904 
Q 2159 4134 1775 4134 
Q 1369 4134 1125 3890 
Q 881 3647 878 3216 
L 300 3275 
Q 359 3922 746 4261 
Q 1134 4600 1788 4600 
Q 2447 4600 2831 4234 
Q 3216 3869 3216 3328 
Q 3216 3053 3103 2787 
Q 2991 2522 2730 2228 
Q 2469 1934 1863 1422 
Q 1356 997 1212 845 
Q 1069 694 975 541 
L 3222 541 
z
" transform="scale(0.015625)"/>
       </defs>
       <use xlink:href="#ArialMT-32"/>
       <use xlink:href="#ArialMT-30" x="55.615234"/>
       <use xlink:href="#ArialMT-31" x="111.230469"/>
       <use xlink:href="#ArialMT-37" x="166.845703"/>
      </g>
     </g>
    </g>
    <g id="xtick_20">
     <g id="line2d_32">
      <g>
       <use xlink:href="#m08f3bebff3" x="358.03818" y="519.9" style="fill: #262626; stroke: #262626; stroke-width: 1.25"/>
      </g>
     </g>
     <g id="text_13">
      <!-- 2018 -->
      <g style="fill: #262626" transform="translate(345.804118 537.273594) scale(0.11 -0.11)">
       <defs>
        <path id="ArialMT-38" d="M 1131 2484 
Q 781 2613 612 2850 
Q 444 3088 444 3419 
Q 444 3919 803 4259 
Q 1163 4600 1759 4600 
Q 2359 4600 2725 4251 
Q 3091 3903 3091 3403 
Q 3091 3084 2923 2848 
Q 2756 2613 2416 2484 
Q 2838 2347 3058 2040 
Q 3278 1734 3278 1309 
Q 3278 722 2862 322 
Q 2447 -78 1769 -78 
Q 1091 -78 675 323 
Q 259 725 259 1325 
Q 259 1772 486 2073 
Q 713 2375 1131 2484 
z
M 1019 3438 
Q 1019 3113 1228 2906 
Q 1438 2700 1772 2700 
Q 2097 2700 2305 2904 
Q 2513 3109 2513 3406 
Q 2513 3716 2298 3927 
Q 2084 4138 1766 4138 
Q 1444 4138 1231 3931 
Q 1019 3725 1019 3438 
z
M 838 1322 
Q 838 1081 952 856 
Q 1066 631 1291 507 
Q 1516 384 1775 384 
Q 2178 384 2440 643 
Q 2703 903 2703 1303 
Q 2703 1709 2433 1975 
Q 2163 2241 1756 2241 
Q 1359 2241 1098 1978 
Q 838 1716 838 1322 
z
" transform="scale(0.015625)"/>
       </defs>
       <use xlink:href="#ArialMT-32"/>
       <use xlink:href="#ArialMT-30" x="55.615234"/>
       <use xlink:href="#ArialMT-31" x="111.230469"/>
       <use xlink:href="#ArialMT-38" x="166.845703"/>
      </g>
     </g>
    </g>
    <g id="xtick_21">
     <g id="line2d_33">
      <g>
       <use xlink:href="#m08f3bebff3" x="472.652476" y="519.9" style="fill: #262626; stroke: #262626; stroke-width: 1.25"/>
      </g>
     </g>
     <g id="text_14">
      <!-- 2019 -->
      <g style="fill: #262626" transform="translate(460.418414 537.273594) scale(0.11 -0.11)">
       <defs>
        <path id="ArialMT-39" d="M 350 1059 
L 891 1109 
Q 959 728 1153 556 
Q 1347 384 1650 384 
Q 1909 384 2104 503 
Q 2300 622 2425 820 
Q 2550 1019 2634 1356 
Q 2719 1694 2719 2044 
Q 2719 2081 2716 2156 
Q 2547 1888 2255 1720 
Q 1963 1553 1622 1553 
Q 1053 1553 659 1965 
Q 266 2378 266 3053 
Q 266 3750 677 4175 
Q 1088 4600 1706 4600 
Q 2153 4600 2523 4359 
Q 2894 4119 3086 3673 
Q 3278 3228 3278 2384 
Q 3278 1506 3087 986 
Q 2897 466 2520 194 
Q 2144 -78 1638 -78 
Q 1100 -78 759 220 
Q 419 519 350 1059 
z
M 2653 3081 
Q 2653 3566 2395 3850 
Q 2138 4134 1775 4134 
Q 1400 4134 1122 3828 
Q 844 3522 844 3034 
Q 844 2597 1108 2323 
Q 1372 2050 1759 2050 
Q 2150 2050 2401 2323 
Q 2653 2597 2653 3081 
z
" transform="scale(0.015625)"/>
       </defs>
       <use xlink:href="#ArialMT-32"/>
       <use xlink:href="#ArialMT-30" x="55.615234"/>
       <use xlink:href="#ArialMT-31" x="111.230469"/>
       <use xlink:href="#ArialMT-39" x="166.845703"/>
      </g>
     </g>
    </g>
    <g id="xtick_22">
     <g id="line2d_34">
      <g>
       <use xlink:href="#m08f3bebff3" x="587.266772" y="519.9" style="fill: #262626; stroke: #262626; stroke-width: 1.25"/>
      </g>
     </g>
     <g id="text_15">
      <!-- 2020 -->
      <g style="fill: #262626" transform="translate(575.03271 537.273594) scale(0.11 -0.11)">
       <use xlink:href="#ArialMT-32"/>
       <use xlink:href="#ArialMT-30" x="55.615234"/>
       <use xlink:href="#ArialMT-32" x="111.230469"/>
       <use xlink:href="#ArialMT-30" x="166.845703"/>
      </g>
     </g>
    </g>
    <g id="xtick_23">
     <g id="line2d_35">
      <g>
       <use xlink:href="#m08f3bebff3" x="702.19508" y="519.9" style="fill: #262626; stroke: #262626; stroke-width: 1.25"/>
      </g>
     </g>
     <g id="text_16">
      <!-- 2021 -->
      <g style="fill: #262626" transform="translate(689.961018 537.273594) scale(0.11 -0.11)">
       <use xlink:href="#ArialMT-32"/>
       <use xlink:href="#ArialMT-30" x="55.615234"/>
       <use xlink:href="#ArialMT-32" x="111.230469"/>
       <use xlink:href="#ArialMT-31" x="166.845703"/>
      </g>
     </g>
    </g>
    <g id="xtick_24">
     <g id="line2d_36">
      <g>
       <use xlink:href="#m08f3bebff3" x="816.809376" y="519.9" style="fill: #262626; stroke: #262626; stroke-width: 1.25"/>
      </g>
     </g>
     <g id="text_17">
      <!-- 2022 -->
      <g style="fill: #262626" transform="translate(804.575314 537.273594) scale(0.11 -0.11)">
       <use xlink:href="#ArialMT-32"/>
       <use xlink:href="#ArialMT-30" x="55.615234"/>
       <use xlink:href="#ArialMT-32" x="111.230469"/>
       <use xlink:href="#ArialMT-32" x="166.845703"/>
      </g>
     </g>
    </g>
   </g>
   <g id="matplotlib.axis_8">
    <g id="ytick_9">
     <g id="line2d_37">
      <g>
       <use xlink:href="#m503fc3f62f" x="139.8" y="514.350476" style="fill: #262626; stroke: #262626; stroke-width: 1.25"/>
      </g>
     </g>
     <g id="text_18">
      <!-- −10000 -->
      <g style="fill: #262626" transform="translate(93.290156 518.287272) scale(0.11 -0.11)">
       <use xlink:href="#ArialMT-2212"/>
       <use xlink:href="#ArialMT-31" x="58.398438"/>
       <use xlink:href="#ArialMT-30" x="114.013672"/>
       <use xlink:href="#ArialMT-30" x="169.628906"/>
       <use xlink:href="#ArialMT-30" x="225.244141"/>
       <use xlink:href="#ArialMT-30" x="280.859375"/>
      </g>
     </g>
    </g>
    <g id="ytick_10">
     <g id="line2d_38">
      <g>
       <use xlink:href="#m503fc3f62f" x="139.8" y="474.110005" style="fill: #262626; stroke: #262626; stroke-width: 1.25"/>
      </g>
     </g>
     <g id="text_19">
      <!-- 0 -->
      <g style="fill: #262626" transform="translate(124.182969 478.046802) scale(0.11 -0.11)">
       <use xlink:href="#ArialMT-30"/>
      </g>
     </g>
    </g>
    <g id="ytick_11">
     <g id="line2d_39">
      <g>
       <use xlink:href="#m503fc3f62f" x="139.8" y="433.869535" style="fill: #262626; stroke: #262626; stroke-width: 1.25"/>
      </g>
     </g>
     <g id="text_20">
      <!-- 10000 -->
      <g style="fill: #262626" transform="translate(99.714844 437.806332) scale(0.11 -0.11)">
       <use xlink:href="#ArialMT-31"/>
       <use xlink:href="#ArialMT-30" x="55.615234"/>
       <use xlink:href="#ArialMT-30" x="111.230469"/>
       <use xlink:href="#ArialMT-30" x="166.845703"/>
       <use xlink:href="#ArialMT-30" x="222.460938"/>
      </g>
     </g>
    </g>
    <g id="text_21">
     <!-- Resid -->
     <g style="fill: #262626" transform="translate(86.905156 487.885208) rotate(-90) scale(0.12 -0.12)">
      <defs>
       <path id="ArialMT-52" d="M 503 0 
L 503 4581 
L 2534 4581 
Q 3147 4581 3465 4457 
Q 3784 4334 3975 4021 
Q 4166 3709 4166 3331 
Q 4166 2844 3850 2509 
Q 3534 2175 2875 2084 
Q 3116 1969 3241 1856 
Q 3506 1613 3744 1247 
L 4541 0 
L 3778 0 
L 3172 953 
Q 2906 1366 2734 1584 
Q 2563 1803 2427 1890 
Q 2291 1978 2150 2013 
Q 2047 2034 1813 2034 
L 1109 2034 
L 1109 0 
L 503 0 
z
M 1109 2559 
L 2413 2559 
Q 2828 2559 3062 2645 
Q 3297 2731 3419 2920 
Q 3541 3109 3541 3331 
Q 3541 3656 3305 3865 
Q 3069 4075 2559 4075 
L 1109 4075 
L 1109 2559 
z
" transform="scale(0.015625)"/>
      </defs>
      <use xlink:href="#ArialMT-52"/>
      <use xlink:href="#ArialMT-65" x="72.216797"/>
      <use xlink:href="#ArialMT-73" x="127.832031"/>
      <use xlink:href="#ArialMT-69" x="177.832031"/>
      <use xlink:href="#ArialMT-64" x="200.048828"/>
     </g>
    </g>
   </g>
   <g id="line2d_40">
    <defs>
     <path id="m56a7c5c89f" d="M 0 3 
C 0.795609 3 1.55874 2.683901 2.12132 2.12132 
C 2.683901 1.55874 3 0.795609 3 0 
C 3 -0.795609 2.683901 -1.55874 2.12132 -2.12132 
C 1.55874 -2.683901 0.795609 -3 0 -3 
C -0.795609 -3 -1.55874 -2.683901 -2.12132 -2.12132 
C -2.683901 -1.55874 -3 -0.795609 -3 0 
C -3 0.795609 -2.683901 1.55874 -2.12132 2.12132 
C -1.55874 2.683901 -0.795609 3 0 3 
z
" style="stroke: #4c72b0"/>
    </defs>
    <g clip-path="url(#pcea788efd8)">
     <use xlink:href="#m56a7c5c89f" x="139.8" y="478.121875" style="fill: #4c72b0; stroke: #4c72b0"/>
     <use xlink:href="#m56a7c5c89f" x="141.998082" y="472.47575" style="fill: #4c72b0; stroke: #4c72b0"/>
     <use xlink:href="#m56a7c5c89f" x="144.196165" y="472.475765" style="fill: #4c72b0; stroke: #4c72b0"/>
     <use xlink:href="#m56a7c5c89f" x="146.394247" y="472.379507" style="fill: #4c72b0; stroke: #4c72b0"/>
     <use xlink:href="#m56a7c5c89f" x="148.59233" y="473.07805" style="fill: #4c72b0; stroke: #4c72b0"/>
     <use xlink:href="#m56a7c5c89f" x="150.790412" y="472.91746" style="fill: #4c72b0; stroke: #4c72b0"/>
     <use xlink:href="#m56a7c5c89f" x="155.186577" y="473.347194" style="fill: #4c72b0; stroke: #4c72b0"/>
     <use xlink:href="#m56a7c5c89f" x="157.384659" y="472.938056" style="fill: #4c72b0; stroke: #4c72b0"/>
     <use xlink:href="#m56a7c5c89f" x="159.582742" y="472.71139" style="fill: #4c72b0; stroke: #4c72b0"/>
     <use xlink:href="#m56a7c5c89f" x="161.780824" y="472.257641" style="fill: #4c72b0; stroke: #4c72b0"/>
     <use xlink:href="#m56a7c5c89f" x="163.978906" y="473.021988" style="fill: #4c72b0; stroke: #4c72b0"/>
     <use xlink:href="#m56a7c5c89f" x="166.176989" y="473.013779" style="fill: #4c72b0; stroke: #4c72b0"/>
     <use xlink:href="#m56a7c5c89f" x="168.375071" y="472.808408" style="fill: #4c72b0; stroke: #4c72b0"/>
     <use xlink:href="#m56a7c5c89f" x="170.573153" y="473.07911" style="fill: #4c72b0; stroke: #4c72b0"/>
     <use xlink:href="#m56a7c5c89f" x="172.771236" y="472.82419" style="fill: #4c72b0; stroke: #4c72b0"/>
     <use xlink:href="#m56a7c5c89f" x="174.969318" y="472.892756" style="fill: #4c72b0; stroke: #4c72b0"/>
     <use xlink:href="#m56a7c5c89f" x="177.167401" y="472.790668" style="fill: #4c72b0; stroke: #4c72b0"/>
     <use xlink:href="#m56a7c5c89f" x="179.365483" y="473.221913" style="fill: #4c72b0; stroke: #4c72b0"/>
     <use xlink:href="#m56a7c5c89f" x="181.563565" y="472.362452" style="fill: #4c72b0; stroke: #4c72b0"/>
     <use xlink:href="#m56a7c5c89f" x="183.761648" y="472.579632" style="fill: #4c72b0; stroke: #4c72b0"/>
     <use xlink:href="#m56a7c5c89f" x="185.95973" y="472.782479" style="fill: #4c72b0; stroke: #4c72b0"/>
     <use xlink:href="#m56a7c5c89f" x="188.157813" y="472.738071" style="fill: #4c72b0; stroke: #4c72b0"/>
     <use xlink:href="#m56a7c5c89f" x="190.355895" y="473.295469" style="fill: #4c72b0; stroke: #4c72b0"/>
     <use xlink:href="#m56a7c5c89f" x="192.553977" y="472.489482" style="fill: #4c72b0; stroke: #4c72b0"/>
     <use xlink:href="#m56a7c5c89f" x="194.75206" y="473.47224" style="fill: #4c72b0; stroke: #4c72b0"/>
     <use xlink:href="#m56a7c5c89f" x="196.950142" y="472.449106" style="fill: #4c72b0; stroke: #4c72b0"/>
     <use xlink:href="#m56a7c5c89f" x="199.148225" y="472.453461" style="fill: #4c72b0; stroke: #4c72b0"/>
     <use xlink:href="#m56a7c5c89f" x="201.346307" y="472.635118" style="fill: #4c72b0; stroke: #4c72b0"/>
     <use xlink:href="#m56a7c5c89f" x="203.544389" y="472.563648" style="fill: #4c72b0; stroke: #4c72b0"/>
     <use xlink:href="#m56a7c5c89f" x="205.742472" y="475.366131" style="fill: #4c72b0; stroke: #4c72b0"/>
     <use xlink:href="#m56a7c5c89f" x="207.940554" y="474.983614" style="fill: #4c72b0; stroke: #4c72b0"/>
     <use xlink:href="#m56a7c5c89f" x="210.138636" y="475.250308" style="fill: #4c72b0; stroke: #4c72b0"/>
     <use xlink:href="#m56a7c5c89f" x="212.336719" y="477.281643" style="fill: #4c72b0; stroke: #4c72b0"/>
     <use xlink:href="#m56a7c5c89f" x="214.534801" y="477.202272" style="fill: #4c72b0; stroke: #4c72b0"/>
     <use xlink:href="#m56a7c5c89f" x="216.732884" y="477.363123" style="fill: #4c72b0; stroke: #4c72b0"/>
     <use xlink:href="#m56a7c5c89f" x="218.930966" y="477.546685" style="fill: #4c72b0; stroke: #4c72b0"/>
     <use xlink:href="#m56a7c5c89f" x="221.129048" y="477.367734" style="fill: #4c72b0; stroke: #4c72b0"/>
     <use xlink:href="#m56a7c5c89f" x="223.327131" y="479.534886" style="fill: #4c72b0; stroke: #4c72b0"/>
     <use xlink:href="#m56a7c5c89f" x="225.525213" y="479.180617" style="fill: #4c72b0; stroke: #4c72b0"/>
     <use xlink:href="#m56a7c5c89f" x="227.723296" y="478.671256" style="fill: #4c72b0; stroke: #4c72b0"/>
     <use xlink:href="#m56a7c5c89f" x="229.921378" y="478.672976" style="fill: #4c72b0; stroke: #4c72b0"/>
     <use xlink:href="#m56a7c5c89f" x="232.11946" y="478.342713" style="fill: #4c72b0; stroke: #4c72b0"/>
     <use xlink:href="#m56a7c5c89f" x="234.317543" y="479.142439" style="fill: #4c72b0; stroke: #4c72b0"/>
     <use xlink:href="#m56a7c5c89f" x="236.515625" y="473.562552" style="fill: #4c72b0; stroke: #4c72b0"/>
     <use xlink:href="#m56a7c5c89f" x="238.713708" y="473.233296" style="fill: #4c72b0; stroke: #4c72b0"/>
     <use xlink:href="#m56a7c5c89f" x="240.91179" y="473.094618" style="fill: #4c72b0; stroke: #4c72b0"/>
     <use xlink:href="#m56a7c5c89f" x="249.70412" y="490.383125" style="fill: #4c72b0; stroke: #4c72b0"/>
     <use xlink:href="#m56a7c5c89f" x="251.902202" y="497.075382" style="fill: #4c72b0; stroke: #4c72b0"/>
     <use xlink:href="#m56a7c5c89f" x="254.100284" y="488.213825" style="fill: #4c72b0; stroke: #4c72b0"/>
     <use xlink:href="#m56a7c5c89f" x="256.298367" y="471.728135" style="fill: #4c72b0; stroke: #4c72b0"/>
     <use xlink:href="#m56a7c5c89f" x="258.496449" y="471.406785" style="fill: #4c72b0; stroke: #4c72b0"/>
     <use xlink:href="#m56a7c5c89f" x="260.694531" y="471.573985" style="fill: #4c72b0; stroke: #4c72b0"/>
     <use xlink:href="#m56a7c5c89f" x="262.892614" y="470.417539" style="fill: #4c72b0; stroke: #4c72b0"/>
     <use xlink:href="#m56a7c5c89f" x="265.090696" y="470.851134" style="fill: #4c72b0; stroke: #4c72b0"/>
     <use xlink:href="#m56a7c5c89f" x="267.288779" y="470.834853" style="fill: #4c72b0; stroke: #4c72b0"/>
     <use xlink:href="#m56a7c5c89f" x="269.486861" y="471.187153" style="fill: #4c72b0; stroke: #4c72b0"/>
     <use xlink:href="#m56a7c5c89f" x="271.684943" y="471.628329" style="fill: #4c72b0; stroke: #4c72b0"/>
     <use xlink:href="#m56a7c5c89f" x="273.883026" y="471.010806" style="fill: #4c72b0; stroke: #4c72b0"/>
     <use xlink:href="#m56a7c5c89f" x="276.081108" y="474.731173" style="fill: #4c72b0; stroke: #4c72b0"/>
     <use xlink:href="#m56a7c5c89f" x="278.279191" y="474.881855" style="fill: #4c72b0; stroke: #4c72b0"/>
     <use xlink:href="#m56a7c5c89f" x="280.477273" y="475.087431" style="fill: #4c72b0; stroke: #4c72b0"/>
     <use xlink:href="#m56a7c5c89f" x="282.675355" y="474.819548" style="fill: #4c72b0; stroke: #4c72b0"/>
     <use xlink:href="#m56a7c5c89f" x="284.873438" y="475.420764" style="fill: #4c72b0; stroke: #4c72b0"/>
     <use xlink:href="#m56a7c5c89f" x="287.07152" y="475.629541" style="fill: #4c72b0; stroke: #4c72b0"/>
     <use xlink:href="#m56a7c5c89f" x="289.269603" y="476.147549" style="fill: #4c72b0; stroke: #4c72b0"/>
     <use xlink:href="#m56a7c5c89f" x="291.467685" y="476.192125" style="fill: #4c72b0; stroke: #4c72b0"/>
     <use xlink:href="#m56a7c5c89f" x="293.665767" y="477.657131" style="fill: #4c72b0; stroke: #4c72b0"/>
     <use xlink:href="#m56a7c5c89f" x="295.86385" y="477.504745" style="fill: #4c72b0; stroke: #4c72b0"/>
     <use xlink:href="#m56a7c5c89f" x="298.061932" y="477.544101" style="fill: #4c72b0; stroke: #4c72b0"/>
     <use xlink:href="#m56a7c5c89f" x="300.260015" y="477.814669" style="fill: #4c72b0; stroke: #4c72b0"/>
     <use xlink:href="#m56a7c5c89f" x="302.458097" y="477.27025" style="fill: #4c72b0; stroke: #4c72b0"/>
     <use xlink:href="#m56a7c5c89f" x="304.656179" y="478.386716" style="fill: #4c72b0; stroke: #4c72b0"/>
     <use xlink:href="#m56a7c5c89f" x="306.854262" y="476.798062" style="fill: #4c72b0; stroke: #4c72b0"/>
     <use xlink:href="#m56a7c5c89f" x="309.052344" y="478.531678" style="fill: #4c72b0; stroke: #4c72b0"/>
     <use xlink:href="#m56a7c5c89f" x="311.250426" y="478.605298" style="fill: #4c72b0; stroke: #4c72b0"/>
     <use xlink:href="#m56a7c5c89f" x="313.448509" y="478.325986" style="fill: #4c72b0; stroke: #4c72b0"/>
     <use xlink:href="#m56a7c5c89f" x="315.646591" y="478.981633" style="fill: #4c72b0; stroke: #4c72b0"/>
     <use xlink:href="#m56a7c5c89f" x="317.844674" y="474.018579" style="fill: #4c72b0; stroke: #4c72b0"/>
     <use xlink:href="#m56a7c5c89f" x="320.042756" y="474.852649" style="fill: #4c72b0; stroke: #4c72b0"/>
     <use xlink:href="#m56a7c5c89f" x="322.240838" y="474.762432" style="fill: #4c72b0; stroke: #4c72b0"/>
     <use xlink:href="#m56a7c5c89f" x="324.438921" y="474.718802" style="fill: #4c72b0; stroke: #4c72b0"/>
     <use xlink:href="#m56a7c5c89f" x="326.637003" y="474.999068" style="fill: #4c72b0; stroke: #4c72b0"/>
     <use xlink:href="#m56a7c5c89f" x="328.835086" y="474.738038" style="fill: #4c72b0; stroke: #4c72b0"/>
     <use xlink:href="#m56a7c5c89f" x="331.033168" y="474.617184" style="fill: #4c72b0; stroke: #4c72b0"/>
     <use xlink:href="#m56a7c5c89f" x="333.23125" y="475.330538" style="fill: #4c72b0; stroke: #4c72b0"/>
     <use xlink:href="#m56a7c5c89f" x="335.429333" y="471.529016" style="fill: #4c72b0; stroke: #4c72b0"/>
     <use xlink:href="#m56a7c5c89f" x="337.627415" y="472.371929" style="fill: #4c72b0; stroke: #4c72b0"/>
     <use xlink:href="#m56a7c5c89f" x="339.825498" y="473.352164" style="fill: #4c72b0; stroke: #4c72b0"/>
     <use xlink:href="#m56a7c5c89f" x="342.02358" y="473.532619" style="fill: #4c72b0; stroke: #4c72b0"/>
     <use xlink:href="#m56a7c5c89f" x="344.221662" y="474.195002" style="fill: #4c72b0; stroke: #4c72b0"/>
     <use xlink:href="#m56a7c5c89f" x="346.419745" y="472.712917" style="fill: #4c72b0; stroke: #4c72b0"/>
     <use xlink:href="#m56a7c5c89f" x="348.617827" y="457.726023" style="fill: #4c72b0; stroke: #4c72b0"/>
     <use xlink:href="#m56a7c5c89f" x="350.815909" y="458.241806" style="fill: #4c72b0; stroke: #4c72b0"/>
     <use xlink:href="#m56a7c5c89f" x="353.013992" y="458.18173" style="fill: #4c72b0; stroke: #4c72b0"/>
     <use xlink:href="#m56a7c5c89f" x="355.212074" y="435.551646" style="fill: #4c72b0; stroke: #4c72b0"/>
     <use xlink:href="#m56a7c5c89f" x="357.410157" y="430.778549" style="fill: #4c72b0; stroke: #4c72b0"/>
     <use xlink:href="#m56a7c5c89f" x="359.608239" y="429.496591" style="fill: #4c72b0; stroke: #4c72b0"/>
     <use xlink:href="#m56a7c5c89f" x="364.004404" y="484.537707" style="fill: #4c72b0; stroke: #4c72b0"/>
     <use xlink:href="#m56a7c5c89f" x="366.202486" y="485.334649" style="fill: #4c72b0; stroke: #4c72b0"/>
     <use xlink:href="#m56a7c5c89f" x="368.400569" y="485.250866" style="fill: #4c72b0; stroke: #4c72b0"/>
     <use xlink:href="#m56a7c5c89f" x="370.598651" y="485.516932" style="fill: #4c72b0; stroke: #4c72b0"/>
     <use xlink:href="#m56a7c5c89f" x="372.796733" y="485.116395" style="fill: #4c72b0; stroke: #4c72b0"/>
     <use xlink:href="#m56a7c5c89f" x="374.994816" y="483.61488" style="fill: #4c72b0; stroke: #4c72b0"/>
     <use xlink:href="#m56a7c5c89f" x="377.192898" y="484.325441" style="fill: #4c72b0; stroke: #4c72b0"/>
     <use xlink:href="#m56a7c5c89f" x="379.390981" y="484.111876" style="fill: #4c72b0; stroke: #4c72b0"/>
     <use xlink:href="#m56a7c5c89f" x="381.589063" y="485.895984" style="fill: #4c72b0; stroke: #4c72b0"/>
     <use xlink:href="#m56a7c5c89f" x="403.569887" y="475.211324" style="fill: #4c72b0; stroke: #4c72b0"/>
     <use xlink:href="#m56a7c5c89f" x="405.767969" y="474.883821" style="fill: #4c72b0; stroke: #4c72b0"/>
     <use xlink:href="#m56a7c5c89f" x="407.966052" y="475.117005" style="fill: #4c72b0; stroke: #4c72b0"/>
     <use xlink:href="#m56a7c5c89f" x="410.164134" y="474.914178" style="fill: #4c72b0; stroke: #4c72b0"/>
     <use xlink:href="#m56a7c5c89f" x="412.362216" y="474.341088" style="fill: #4c72b0; stroke: #4c72b0"/>
     <use xlink:href="#m56a7c5c89f" x="414.560299" y="473.729648" style="fill: #4c72b0; stroke: #4c72b0"/>
     <use xlink:href="#m56a7c5c89f" x="416.758381" y="472.831615" style="fill: #4c72b0; stroke: #4c72b0"/>
     <use xlink:href="#m56a7c5c89f" x="421.154546" y="471.424216" style="fill: #4c72b0; stroke: #4c72b0"/>
     <use xlink:href="#m56a7c5c89f" x="423.352628" y="470.874144" style="fill: #4c72b0; stroke: #4c72b0"/>
     <use xlink:href="#m56a7c5c89f" x="425.550711" y="470.427871" style="fill: #4c72b0; stroke: #4c72b0"/>
     <use xlink:href="#m56a7c5c89f" x="427.748793" y="469.830525" style="fill: #4c72b0; stroke: #4c72b0"/>
     <use xlink:href="#m56a7c5c89f" x="429.946876" y="469.42255" style="fill: #4c72b0; stroke: #4c72b0"/>
     <use xlink:href="#m56a7c5c89f" x="432.144958" y="468.753162" style="fill: #4c72b0; stroke: #4c72b0"/>
     <use xlink:href="#m56a7c5c89f" x="434.34304" y="469.015827" style="fill: #4c72b0; stroke: #4c72b0"/>
     <use xlink:href="#m56a7c5c89f" x="436.541123" y="469.271799" style="fill: #4c72b0; stroke: #4c72b0"/>
     <use xlink:href="#m56a7c5c89f" x="438.739205" y="468.808768" style="fill: #4c72b0; stroke: #4c72b0"/>
     <use xlink:href="#m56a7c5c89f" x="440.937288" y="468.727064" style="fill: #4c72b0; stroke: #4c72b0"/>
     <use xlink:href="#m56a7c5c89f" x="443.13537" y="468.835399" style="fill: #4c72b0; stroke: #4c72b0"/>
     <use xlink:href="#m56a7c5c89f" x="445.333452" y="467.680134" style="fill: #4c72b0; stroke: #4c72b0"/>
     <use xlink:href="#m56a7c5c89f" x="447.531535" y="469.601898" style="fill: #4c72b0; stroke: #4c72b0"/>
     <use xlink:href="#m56a7c5c89f" x="449.729617" y="469.065324" style="fill: #4c72b0; stroke: #4c72b0"/>
     <use xlink:href="#m56a7c5c89f" x="451.927699" y="468.414834" style="fill: #4c72b0; stroke: #4c72b0"/>
     <use xlink:href="#m56a7c5c89f" x="454.125782" y="464.587263" style="fill: #4c72b0; stroke: #4c72b0"/>
     <use xlink:href="#m56a7c5c89f" x="456.323864" y="464.250635" style="fill: #4c72b0; stroke: #4c72b0"/>
     <use xlink:href="#m56a7c5c89f" x="458.521947" y="464.330474" style="fill: #4c72b0; stroke: #4c72b0"/>
     <use xlink:href="#m56a7c5c89f" x="460.720029" y="464.079754" style="fill: #4c72b0; stroke: #4c72b0"/>
     <use xlink:href="#m56a7c5c89f" x="462.918111" y="463.081102" style="fill: #4c72b0; stroke: #4c72b0"/>
     <use xlink:href="#m56a7c5c89f" x="465.116194" y="464.457753" style="fill: #4c72b0; stroke: #4c72b0"/>
     <use xlink:href="#m56a7c5c89f" x="467.314276" y="463.775588" style="fill: #4c72b0; stroke: #4c72b0"/>
     <use xlink:href="#m56a7c5c89f" x="469.512359" y="463.361219" style="fill: #4c72b0; stroke: #4c72b0"/>
     <use xlink:href="#m56a7c5c89f" x="471.710441" y="463.00731" style="fill: #4c72b0; stroke: #4c72b0"/>
     <use xlink:href="#m56a7c5c89f" x="473.908523" y="462.807698" style="fill: #4c72b0; stroke: #4c72b0"/>
     <use xlink:href="#m56a7c5c89f" x="476.106606" y="463.400493" style="fill: #4c72b0; stroke: #4c72b0"/>
     <use xlink:href="#m56a7c5c89f" x="482.700853" y="515.009744" style="fill: #4c72b0; stroke: #4c72b0"/>
     <use xlink:href="#m56a7c5c89f" x="484.898935" y="514.918464" style="fill: #4c72b0; stroke: #4c72b0"/>
     <use xlink:href="#m56a7c5c89f" x="487.097018" y="515.595076" style="fill: #4c72b0; stroke: #4c72b0"/>
     <use xlink:href="#m56a7c5c89f" x="489.2951" y="510.584091" style="fill: #4c72b0; stroke: #4c72b0"/>
     <use xlink:href="#m56a7c5c89f" x="491.493182" y="492.308938" style="fill: #4c72b0; stroke: #4c72b0"/>
     <use xlink:href="#m56a7c5c89f" x="493.691265" y="492.647641" style="fill: #4c72b0; stroke: #4c72b0"/>
     <use xlink:href="#m56a7c5c89f" x="495.889347" y="472.960896" style="fill: #4c72b0; stroke: #4c72b0"/>
     <use xlink:href="#m56a7c5c89f" x="498.08743" y="472.199919" style="fill: #4c72b0; stroke: #4c72b0"/>
     <use xlink:href="#m56a7c5c89f" x="500.285512" y="472.383528" style="fill: #4c72b0; stroke: #4c72b0"/>
     <use xlink:href="#m56a7c5c89f" x="502.483594" y="472.65018" style="fill: #4c72b0; stroke: #4c72b0"/>
     <use xlink:href="#m56a7c5c89f" x="504.681677" y="472.378404" style="fill: #4c72b0; stroke: #4c72b0"/>
     <use xlink:href="#m56a7c5c89f" x="506.879759" y="473.697286" style="fill: #4c72b0; stroke: #4c72b0"/>
     <use xlink:href="#m56a7c5c89f" x="509.077842" y="472.332979" style="fill: #4c72b0; stroke: #4c72b0"/>
     <use xlink:href="#m56a7c5c89f" x="511.275924" y="472.029482" style="fill: #4c72b0; stroke: #4c72b0"/>
     <use xlink:href="#m56a7c5c89f" x="513.474006" y="475.094992" style="fill: #4c72b0; stroke: #4c72b0"/>
     <use xlink:href="#m56a7c5c89f" x="515.672089" y="478.240702" style="fill: #4c72b0; stroke: #4c72b0"/>
     <use xlink:href="#m56a7c5c89f" x="517.870171" y="478.238986" style="fill: #4c72b0; stroke: #4c72b0"/>
     <use xlink:href="#m56a7c5c89f" x="520.068254" y="477.875957" style="fill: #4c72b0; stroke: #4c72b0"/>
     <use xlink:href="#m56a7c5c89f" x="522.266336" y="477.349445" style="fill: #4c72b0; stroke: #4c72b0"/>
     <use xlink:href="#m56a7c5c89f" x="524.464418" y="477.646263" style="fill: #4c72b0; stroke: #4c72b0"/>
     <use xlink:href="#m56a7c5c89f" x="526.662501" y="477.267466" style="fill: #4c72b0; stroke: #4c72b0"/>
     <use xlink:href="#m56a7c5c89f" x="528.860583" y="477.765973" style="fill: #4c72b0; stroke: #4c72b0"/>
     <use xlink:href="#m56a7c5c89f" x="531.058666" y="477.632282" style="fill: #4c72b0; stroke: #4c72b0"/>
     <use xlink:href="#m56a7c5c89f" x="533.256748" y="477.841019" style="fill: #4c72b0; stroke: #4c72b0"/>
     <use xlink:href="#m56a7c5c89f" x="535.45483" y="478.170394" style="fill: #4c72b0; stroke: #4c72b0"/>
     <use xlink:href="#m56a7c5c89f" x="537.652913" y="477.364045" style="fill: #4c72b0; stroke: #4c72b0"/>
     <use xlink:href="#m56a7c5c89f" x="539.850995" y="477.035183" style="fill: #4c72b0; stroke: #4c72b0"/>
     <use xlink:href="#m56a7c5c89f" x="542.049077" y="477.503817" style="fill: #4c72b0; stroke: #4c72b0"/>
     <use xlink:href="#m56a7c5c89f" x="544.24716" y="476.405062" style="fill: #4c72b0; stroke: #4c72b0"/>
     <use xlink:href="#m56a7c5c89f" x="546.445242" y="476.710916" style="fill: #4c72b0; stroke: #4c72b0"/>
     <use xlink:href="#m56a7c5c89f" x="548.643325" y="476.102488" style="fill: #4c72b0; stroke: #4c72b0"/>
     <use xlink:href="#m56a7c5c89f" x="550.841407" y="475.404141" style="fill: #4c72b0; stroke: #4c72b0"/>
     <use xlink:href="#m56a7c5c89f" x="553.039489" y="474.86814" style="fill: #4c72b0; stroke: #4c72b0"/>
     <use xlink:href="#m56a7c5c89f" x="555.237572" y="474.727589" style="fill: #4c72b0; stroke: #4c72b0"/>
     <use xlink:href="#m56a7c5c89f" x="557.435654" y="474.808312" style="fill: #4c72b0; stroke: #4c72b0"/>
     <use xlink:href="#m56a7c5c89f" x="559.633737" y="474.372687" style="fill: #4c72b0; stroke: #4c72b0"/>
     <use xlink:href="#m56a7c5c89f" x="561.831819" y="474.461877" style="fill: #4c72b0; stroke: #4c72b0"/>
     <use xlink:href="#m56a7c5c89f" x="564.029901" y="465.9694" style="fill: #4c72b0; stroke: #4c72b0"/>
     <use xlink:href="#m56a7c5c89f" x="566.227984" y="465.832666" style="fill: #4c72b0; stroke: #4c72b0"/>
     <use xlink:href="#m56a7c5c89f" x="568.426066" y="465.689143" style="fill: #4c72b0; stroke: #4c72b0"/>
     <use xlink:href="#m56a7c5c89f" x="570.624149" y="465.39512" style="fill: #4c72b0; stroke: #4c72b0"/>
     <use xlink:href="#m56a7c5c89f" x="572.822231" y="463.337819" style="fill: #4c72b0; stroke: #4c72b0"/>
     <use xlink:href="#m56a7c5c89f" x="575.020313" y="462.064343" style="fill: #4c72b0; stroke: #4c72b0"/>
     <use xlink:href="#m56a7c5c89f" x="577.218396" y="461.998751" style="fill: #4c72b0; stroke: #4c72b0"/>
     <use xlink:href="#m56a7c5c89f" x="579.416478" y="461.477926" style="fill: #4c72b0; stroke: #4c72b0"/>
     <use xlink:href="#m56a7c5c89f" x="581.61456" y="461.34308" style="fill: #4c72b0; stroke: #4c72b0"/>
     <use xlink:href="#m56a7c5c89f" x="583.812643" y="460.33683" style="fill: #4c72b0; stroke: #4c72b0"/>
     <use xlink:href="#m56a7c5c89f" x="586.010725" y="460.935005" style="fill: #4c72b0; stroke: #4c72b0"/>
     <use xlink:href="#m56a7c5c89f" x="588.208808" y="445.389925" style="fill: #4c72b0; stroke: #4c72b0"/>
     <use xlink:href="#m56a7c5c89f" x="590.40689" y="445.503901" style="fill: #4c72b0; stroke: #4c72b0"/>
     <use xlink:href="#m56a7c5c89f" x="592.604972" y="444.882866" style="fill: #4c72b0; stroke: #4c72b0"/>
     <use xlink:href="#m56a7c5c89f" x="594.803055" y="444.875444" style="fill: #4c72b0; stroke: #4c72b0"/>
     <use xlink:href="#m56a7c5c89f" x="599.19922" y="488.834908" style="fill: #4c72b0; stroke: #4c72b0"/>
     <use xlink:href="#m56a7c5c89f" x="601.397302" y="488.051732" style="fill: #4c72b0; stroke: #4c72b0"/>
     <use xlink:href="#m56a7c5c89f" x="603.595384" y="481.621084" style="fill: #4c72b0; stroke: #4c72b0"/>
     <use xlink:href="#m56a7c5c89f" x="605.793467" y="481.730948" style="fill: #4c72b0; stroke: #4c72b0"/>
     <use xlink:href="#m56a7c5c89f" x="607.991549" y="482.125785" style="fill: #4c72b0; stroke: #4c72b0"/>
     <use xlink:href="#m56a7c5c89f" x="610.189632" y="482.355666" style="fill: #4c72b0; stroke: #4c72b0"/>
     <use xlink:href="#m56a7c5c89f" x="612.387714" y="482.224693" style="fill: #4c72b0; stroke: #4c72b0"/>
     <use xlink:href="#m56a7c5c89f" x="614.585796" y="482.324595" style="fill: #4c72b0; stroke: #4c72b0"/>
     <use xlink:href="#m56a7c5c89f" x="616.783879" y="482.307669" style="fill: #4c72b0; stroke: #4c72b0"/>
     <use xlink:href="#m56a7c5c89f" x="618.981961" y="482.147015" style="fill: #4c72b0; stroke: #4c72b0"/>
     <use xlink:href="#m56a7c5c89f" x="654.151279" y="472.548998" style="fill: #4c72b0; stroke: #4c72b0"/>
     <use xlink:href="#m56a7c5c89f" x="656.349362" y="473.720346" style="fill: #4c72b0; stroke: #4c72b0"/>
     <use xlink:href="#m56a7c5c89f" x="658.547444" y="473.347111" style="fill: #4c72b0; stroke: #4c72b0"/>
     <use xlink:href="#m56a7c5c89f" x="660.745527" y="473.380049" style="fill: #4c72b0; stroke: #4c72b0"/>
     <use xlink:href="#m56a7c5c89f" x="662.943609" y="473.224517" style="fill: #4c72b0; stroke: #4c72b0"/>
     <use xlink:href="#m56a7c5c89f" x="665.141691" y="472.964767" style="fill: #4c72b0; stroke: #4c72b0"/>
     <use xlink:href="#m56a7c5c89f" x="667.339774" y="472.99421" style="fill: #4c72b0; stroke: #4c72b0"/>
     <use xlink:href="#m56a7c5c89f" x="669.537856" y="472.745437" style="fill: #4c72b0; stroke: #4c72b0"/>
     <use xlink:href="#m56a7c5c89f" x="671.735939" y="472.927944" style="fill: #4c72b0; stroke: #4c72b0"/>
     <use xlink:href="#m56a7c5c89f" x="676.132103" y="472.456038" style="fill: #4c72b0; stroke: #4c72b0"/>
     <use xlink:href="#m56a7c5c89f" x="680.528268" y="471.812761" style="fill: #4c72b0; stroke: #4c72b0"/>
     <use xlink:href="#m56a7c5c89f" x="682.72635" y="471.834218" style="fill: #4c72b0; stroke: #4c72b0"/>
     <use xlink:href="#m56a7c5c89f" x="684.924433" y="471.853071" style="fill: #4c72b0; stroke: #4c72b0"/>
     <use xlink:href="#m56a7c5c89f" x="687.122515" y="471.452945" style="fill: #4c72b0; stroke: #4c72b0"/>
     <use xlink:href="#m56a7c5c89f" x="689.320598" y="471.652959" style="fill: #4c72b0; stroke: #4c72b0"/>
     <use xlink:href="#m56a7c5c89f" x="695.914845" y="470.995643" style="fill: #4c72b0; stroke: #4c72b0"/>
     <use xlink:href="#m56a7c5c89f" x="698.112927" y="471.029787" style="fill: #4c72b0; stroke: #4c72b0"/>
     <use xlink:href="#m56a7c5c89f" x="700.31101" y="470.924938" style="fill: #4c72b0; stroke: #4c72b0"/>
     <use xlink:href="#m56a7c5c89f" x="702.509092" y="471.059125" style="fill: #4c72b0; stroke: #4c72b0"/>
     <use xlink:href="#m56a7c5c89f" x="704.707174" y="471.258839" style="fill: #4c72b0; stroke: #4c72b0"/>
     <use xlink:href="#m56a7c5c89f" x="706.905257" y="471.664656" style="fill: #4c72b0; stroke: #4c72b0"/>
     <use xlink:href="#m56a7c5c89f" x="709.103339" y="471.706277" style="fill: #4c72b0; stroke: #4c72b0"/>
     <use xlink:href="#m56a7c5c89f" x="713.499504" y="471.68924" style="fill: #4c72b0; stroke: #4c72b0"/>
     <use xlink:href="#m56a7c5c89f" x="717.895669" y="494.043288" style="fill: #4c72b0; stroke: #4c72b0"/>
     <use xlink:href="#m56a7c5c89f" x="720.093751" y="493.990186" style="fill: #4c72b0; stroke: #4c72b0"/>
     <use xlink:href="#m56a7c5c89f" x="722.291833" y="493.986612" style="fill: #4c72b0; stroke: #4c72b0"/>
     <use xlink:href="#m56a7c5c89f" x="724.489916" y="494.194264" style="fill: #4c72b0; stroke: #4c72b0"/>
     <use xlink:href="#m56a7c5c89f" x="726.687998" y="485.27553" style="fill: #4c72b0; stroke: #4c72b0"/>
     <use xlink:href="#m56a7c5c89f" x="728.886081" y="485.954797" style="fill: #4c72b0; stroke: #4c72b0"/>
     <use xlink:href="#m56a7c5c89f" x="731.084163" y="486.190239" style="fill: #4c72b0; stroke: #4c72b0"/>
     <use xlink:href="#m56a7c5c89f" x="733.282245" y="486.645674" style="fill: #4c72b0; stroke: #4c72b0"/>
     <use xlink:href="#m56a7c5c89f" x="735.480328" y="486.86219" style="fill: #4c72b0; stroke: #4c72b0"/>
     <use xlink:href="#m56a7c5c89f" x="737.67841" y="487.603154" style="fill: #4c72b0; stroke: #4c72b0"/>
     <use xlink:href="#m56a7c5c89f" x="739.876493" y="487.102483" style="fill: #4c72b0; stroke: #4c72b0"/>
     <use xlink:href="#m56a7c5c89f" x="742.074575" y="481.891716" style="fill: #4c72b0; stroke: #4c72b0"/>
     <use xlink:href="#m56a7c5c89f" x="744.272657" y="481.832885" style="fill: #4c72b0; stroke: #4c72b0"/>
     <use xlink:href="#m56a7c5c89f" x="746.47074" y="482.06558" style="fill: #4c72b0; stroke: #4c72b0"/>
     <use xlink:href="#m56a7c5c89f" x="748.668822" y="485.05797" style="fill: #4c72b0; stroke: #4c72b0"/>
     <use xlink:href="#m56a7c5c89f" x="750.866905" y="460.935277" style="fill: #4c72b0; stroke: #4c72b0"/>
     <use xlink:href="#m56a7c5c89f" x="753.064987" y="461.373581" style="fill: #4c72b0; stroke: #4c72b0"/>
     <use xlink:href="#m56a7c5c89f" x="755.263069" y="469.154164" style="fill: #4c72b0; stroke: #4c72b0"/>
     <use xlink:href="#m56a7c5c89f" x="757.461152" y="469.301969" style="fill: #4c72b0; stroke: #4c72b0"/>
     <use xlink:href="#m56a7c5c89f" x="759.659234" y="468.996567" style="fill: #4c72b0; stroke: #4c72b0"/>
     <use xlink:href="#m56a7c5c89f" x="761.857317" y="468.741539" style="fill: #4c72b0; stroke: #4c72b0"/>
     <use xlink:href="#m56a7c5c89f" x="764.055399" y="468.968915" style="fill: #4c72b0; stroke: #4c72b0"/>
     <use xlink:href="#m56a7c5c89f" x="766.253481" y="468.56788" style="fill: #4c72b0; stroke: #4c72b0"/>
     <use xlink:href="#m56a7c5c89f" x="768.451564" y="469.013196" style="fill: #4c72b0; stroke: #4c72b0"/>
     <use xlink:href="#m56a7c5c89f" x="770.649646" y="469.260555" style="fill: #4c72b0; stroke: #4c72b0"/>
     <use xlink:href="#m56a7c5c89f" x="772.847728" y="474.817145" style="fill: #4c72b0; stroke: #4c72b0"/>
     <use xlink:href="#m56a7c5c89f" x="775.045811" y="473.610999" style="fill: #4c72b0; stroke: #4c72b0"/>
     <use xlink:href="#m56a7c5c89f" x="777.243893" y="473.907339" style="fill: #4c72b0; stroke: #4c72b0"/>
     <use xlink:href="#m56a7c5c89f" x="779.441976" y="474.011353" style="fill: #4c72b0; stroke: #4c72b0"/>
     <use xlink:href="#m56a7c5c89f" x="781.640058" y="474.314811" style="fill: #4c72b0; stroke: #4c72b0"/>
     <use xlink:href="#m56a7c5c89f" x="783.83814" y="474.452038" style="fill: #4c72b0; stroke: #4c72b0"/>
     <use xlink:href="#m56a7c5c89f" x="786.036223" y="474.606514" style="fill: #4c72b0; stroke: #4c72b0"/>
     <use xlink:href="#m56a7c5c89f" x="788.234305" y="474.685602" style="fill: #4c72b0; stroke: #4c72b0"/>
     <use xlink:href="#m56a7c5c89f" x="790.432388" y="474.693258" style="fill: #4c72b0; stroke: #4c72b0"/>
     <use xlink:href="#m56a7c5c89f" x="792.63047" y="475.015574" style="fill: #4c72b0; stroke: #4c72b0"/>
     <use xlink:href="#m56a7c5c89f" x="794.828552" y="475.389457" style="fill: #4c72b0; stroke: #4c72b0"/>
     <use xlink:href="#m56a7c5c89f" x="797.026635" y="475.685273" style="fill: #4c72b0; stroke: #4c72b0"/>
     <use xlink:href="#m56a7c5c89f" x="799.224717" y="475.819755" style="fill: #4c72b0; stroke: #4c72b0"/>
     <use xlink:href="#m56a7c5c89f" x="801.4228" y="475.986088" style="fill: #4c72b0; stroke: #4c72b0"/>
     <use xlink:href="#m56a7c5c89f" x="803.620882" y="476.223127" style="fill: #4c72b0; stroke: #4c72b0"/>
     <use xlink:href="#m56a7c5c89f" x="805.818964" y="476.557825" style="fill: #4c72b0; stroke: #4c72b0"/>
     <use xlink:href="#m56a7c5c89f" x="808.017047" y="476.796247" style="fill: #4c72b0; stroke: #4c72b0"/>
     <use xlink:href="#m56a7c5c89f" x="810.215129" y="477.117837" style="fill: #4c72b0; stroke: #4c72b0"/>
     <use xlink:href="#m56a7c5c89f" x="812.413212" y="477.206306" style="fill: #4c72b0; stroke: #4c72b0"/>
     <use xlink:href="#m56a7c5c89f" x="814.611294" y="477.199789" style="fill: #4c72b0; stroke: #4c72b0"/>
     <use xlink:href="#m56a7c5c89f" x="816.809376" y="476.739793" style="fill: #4c72b0; stroke: #4c72b0"/>
     <use xlink:href="#m56a7c5c89f" x="819.007459" y="476.909616" style="fill: #4c72b0; stroke: #4c72b0"/>
     <use xlink:href="#m56a7c5c89f" x="821.205541" y="476.942197" style="fill: #4c72b0; stroke: #4c72b0"/>
     <use xlink:href="#m56a7c5c89f" x="823.403623" y="464.467653" style="fill: #4c72b0; stroke: #4c72b0"/>
     <use xlink:href="#m56a7c5c89f" x="825.601706" y="464.58828" style="fill: #4c72b0; stroke: #4c72b0"/>
     <use xlink:href="#m56a7c5c89f" x="827.799788" y="464.647872" style="fill: #4c72b0; stroke: #4c72b0"/>
     <use xlink:href="#m56a7c5c89f" x="829.997871" y="464.630233" style="fill: #4c72b0; stroke: #4c72b0"/>
     <use xlink:href="#m56a7c5c89f" x="834.394035" y="471.557117" style="fill: #4c72b0; stroke: #4c72b0"/>
    </g>
   </g>
   <g id="patch_18">
    <path d="M 139.8 519.9 
L 139.8 425.191667 
" style="fill: none; stroke: #262626; stroke-width: 1.25; stroke-linejoin: miter; stroke-linecap: square"/>
   </g>
   <g id="patch_19">
    <path d="M 834.394035 519.9 
L 834.394035 425.191667 
" style="fill: none; stroke: #262626; stroke-width: 1.25; stroke-linejoin: miter; stroke-linecap: square"/>
   </g>
   <g id="patch_20">
    <path d="M 139.8 519.9 
L 834.394035 519.9 
" style="fill: none; stroke: #262626; stroke-width: 1.25; stroke-linejoin: miter; stroke-linecap: square"/>
   </g>
   <g id="patch_21">
    <path d="M 139.8 425.191667 
L 834.394035 425.191667 
" style="fill: none; stroke: #262626; stroke-width: 1.25; stroke-linejoin: miter; stroke-linecap: square"/>
   </g>
  </g>
 </g>
 <defs>
  <clipPath id="pf0f444ea32">
   <rect x="139.8" y="46.266667" width="694.594035" height="94.708333"/>
  </clipPath>
  <clipPath id="p6ed3fd25a0">
   <rect x="139.8" y="172.575" width="694.594035" height="94.708333"/>
  </clipPath>
  <clipPath id="pe8e2105777">
   <rect x="139.8" y="298.883333" width="694.594035" height="94.708333"/>
  </clipPath>
  <clipPath id="pcea788efd8">
   <rect x="139.8" y="425.191667" width="694.594035" height="94.708333"/>
  </clipPath>
 </defs>
</svg>
