<?xml version="1.0" encoding="utf-8" standalone="no"?>
<!DOCTYPE svg PUBLIC "-//W3C//DTD SVG 1.1//EN"
  "http://www.w3.org/Graphics/SVG/1.1/DTD/svg11.dtd">
<svg xmlns:xlink="http://www.w3.org/1999/xlink" width="864pt" height="864pt" viewBox="0 0 864 864" xmlns="http://www.w3.org/2000/svg" version="1.1">
 <metadata>
  <rdf:RDF xmlns:dc="http://purl.org/dc/elements/1.1/" xmlns:cc="http://creativecommons.org/ns#" xmlns:rdf="http://www.w3.org/1999/02/22-rdf-syntax-ns#">
   <cc:Work>
    <dc:type rdf:resource="http://purl.org/dc/dcmitype/StillImage"/>
    <dc:date>2023-08-01T02:49:21.364311</dc:date>
    <dc:format>image/svg+xml</dc:format>
    <dc:creator>
     <cc:Agent>
      <dc:title>Matplotlib v3.7.1, https://matplotlib.org/</dc:title>
     </cc:Agent>
    </dc:creator>
   </cc:Work>
  </rdf:RDF>
 </metadata>
 <defs>
  <style type="text/css">*{stroke-linejoin: round; stroke-linecap: butt}</style>
 </defs>
 <g id="figure_1">
  <g id="patch_1">
   <path d="M 0 864 
L 864 864 
L 864 0 
L 0 0 
z
" style="fill: #ffffff"/>
  </g>
  <g id="axes_1">
   <g id="patch_2">
    <path d="M 108 406.08 
L 777.6 406.08 
L 777.6 103.68 
L 108 103.68 
z
" style="fill: #ffffff"/>
   </g>
   <g id="matplotlib.axis_1">
    <g id="xtick_1">
     <g id="line2d_1">
      <defs>
       <path id="mf885050bfc" d="M 0 0 
L 0 6 
" style="stroke: #262626; stroke-width: 1.25"/>
      </defs>
      <g>
       <use xlink:href="#mf885050bfc" x="128.272086" y="406.08" style="fill: #262626; stroke: #262626; stroke-width: 1.25"/>
      </g>
     </g>
     <g id="text_1">
      <!-- 2016 -->
      <g style="fill: #262626" transform="translate(116.038024 423.453594) scale(0.11 -0.11)">
       <defs>
        <path id="ArialMT-32" d="M 3222 541 
L 3222 0 
L 194 0 
Q 188 203 259 391 
Q 375 700 629 1000 
Q 884 1300 1366 1694 
Q 2113 2306 2375 2664 
Q 2638 3022 2638 3341 
Q 2638 3675 2398 3904 
Q 2159 4134 1775 4134 
Q 1369 4134 1125 3890 
Q 881 3647 878 3216 
L 300 3275 
Q 359 3922 746 4261 
Q 1134 4600 1788 4600 
Q 2447 4600 2831 4234 
Q 3216 3869 3216 3328 
Q 3216 3053 3103 2787 
Q 2991 2522 2730 2228 
Q 2469 1934 1863 1422 
Q 1356 997 1212 845 
Q 1069 694 975 541 
L 3222 541 
z
" transform="scale(0.015625)"/>
        <path id="ArialMT-30" d="M 266 2259 
Q 266 3072 433 3567 
Q 600 4063 929 4331 
Q 1259 4600 1759 4600 
Q 2128 4600 2406 4451 
Q 2684 4303 2865 4023 
Q 3047 3744 3150 3342 
Q 3253 2941 3253 2259 
Q 3253 1453 3087 958 
Q 2922 463 2592 192 
Q 2263 -78 1759 -78 
Q 1097 -78 719 397 
Q 266 969 266 2259 
z
M 844 2259 
Q 844 1131 1108 757 
Q 1372 384 1759 384 
Q 2147 384 2411 759 
Q 2675 1134 2675 2259 
Q 2675 3391 2411 3762 
Q 2147 4134 1753 4134 
Q 1366 4134 1134 3806 
Q 844 3388 844 2259 
z
" transform="scale(0.015625)"/>
        <path id="ArialMT-31" d="M 2384 0 
L 1822 0 
L 1822 3584 
Q 1619 3391 1289 3197 
Q 959 3003 697 2906 
L 697 3450 
Q 1169 3672 1522 3987 
Q 1875 4303 2022 4600 
L 2384 4600 
L 2384 0 
z
" transform="scale(0.015625)"/>
        <path id="ArialMT-36" d="M 3184 3459 
L 2625 3416 
Q 2550 3747 2413 3897 
Q 2184 4138 1850 4138 
Q 1581 4138 1378 3988 
Q 1113 3794 959 3422 
Q 806 3050 800 2363 
Q 1003 2672 1297 2822 
Q 1591 2972 1913 2972 
Q 2475 2972 2870 2558 
Q 3266 2144 3266 1488 
Q 3266 1056 3080 686 
Q 2894 316 2569 119 
Q 2244 -78 1831 -78 
Q 1128 -78 684 439 
Q 241 956 241 2144 
Q 241 3472 731 4075 
Q 1159 4600 1884 4600 
Q 2425 4600 2770 4297 
Q 3116 3994 3184 3459 
z
M 888 1484 
Q 888 1194 1011 928 
Q 1134 663 1356 523 
Q 1578 384 1822 384 
Q 2178 384 2434 671 
Q 2691 959 2691 1453 
Q 2691 1928 2437 2201 
Q 2184 2475 1800 2475 
Q 1419 2475 1153 2201 
Q 888 1928 888 1484 
z
" transform="scale(0.015625)"/>
       </defs>
       <use xlink:href="#ArialMT-32"/>
       <use xlink:href="#ArialMT-30" x="55.615234"/>
       <use xlink:href="#ArialMT-31" x="111.230469"/>
       <use xlink:href="#ArialMT-36" x="166.845703"/>
      </g>
     </g>
    </g>
    <g id="xtick_2">
     <g id="line2d_2">
      <g>
       <use xlink:href="#mf885050bfc" x="231.608905" y="406.08" style="fill: #262626; stroke: #262626; stroke-width: 1.25"/>
      </g>
     </g>
     <g id="text_2">
      <!-- 2017 -->
      <g style="fill: #262626" transform="translate(219.374843 423.453594) scale(0.11 -0.11)">
       <defs>
        <path id="ArialMT-37" d="M 303 3981 
L 303 4522 
L 3269 4522 
L 3269 4084 
Q 2831 3619 2401 2847 
Q 1972 2075 1738 1259 
Q 1569 684 1522 0 
L 944 0 
Q 953 541 1156 1306 
Q 1359 2072 1739 2783 
Q 2119 3494 2547 3981 
L 303 3981 
z
" transform="scale(0.015625)"/>
       </defs>
       <use xlink:href="#ArialMT-32"/>
       <use xlink:href="#ArialMT-30" x="55.615234"/>
       <use xlink:href="#ArialMT-31" x="111.230469"/>
       <use xlink:href="#ArialMT-37" x="166.845703"/>
      </g>
     </g>
    </g>
    <g id="xtick_3">
     <g id="line2d_3">
      <g>
       <use xlink:href="#mf885050bfc" x="334.663383" y="406.08" style="fill: #262626; stroke: #262626; stroke-width: 1.25"/>
      </g>
     </g>
     <g id="text_3">
      <!-- 2018 -->
      <g style="fill: #262626" transform="translate(322.429321 423.453594) scale(0.11 -0.11)">
       <defs>
        <path id="ArialMT-38" d="M 1131 2484 
Q 781 2613 612 2850 
Q 444 3088 444 3419 
Q 444 3919 803 4259 
Q 1163 4600 1759 4600 
Q 2359 4600 2725 4251 
Q 3091 3903 3091 3403 
Q 3091 3084 2923 2848 
Q 2756 2613 2416 2484 
Q 2838 2347 3058 2040 
Q 3278 1734 3278 1309 
Q 3278 722 2862 322 
Q 2447 -78 1769 -78 
Q 1091 -78 675 323 
Q 259 725 259 1325 
Q 259 1772 486 2073 
Q 713 2375 1131 2484 
z
M 1019 3438 
Q 1019 3113 1228 2906 
Q 1438 2700 1772 2700 
Q 2097 2700 2305 2904 
Q 2513 3109 2513 3406 
Q 2513 3716 2298 3927 
Q 2084 4138 1766 4138 
Q 1444 4138 1231 3931 
Q 1019 3725 1019 3438 
z
M 838 1322 
Q 838 1081 952 856 
Q 1066 631 1291 507 
Q 1516 384 1775 384 
Q 2178 384 2440 643 
Q 2703 903 2703 1303 
Q 2703 1709 2433 1975 
Q 2163 2241 1756 2241 
Q 1359 2241 1098 1978 
Q 838 1716 838 1322 
z
" transform="scale(0.015625)"/>
       </defs>
       <use xlink:href="#ArialMT-32"/>
       <use xlink:href="#ArialMT-30" x="55.615234"/>
       <use xlink:href="#ArialMT-31" x="111.230469"/>
       <use xlink:href="#ArialMT-38" x="166.845703"/>
      </g>
     </g>
    </g>
    <g id="xtick_4">
     <g id="line2d_4">
      <g>
       <use xlink:href="#mf885050bfc" x="437.717861" y="406.08" style="fill: #262626; stroke: #262626; stroke-width: 1.25"/>
      </g>
     </g>
     <g id="text_4">
      <!-- 2019 -->
      <g style="fill: #262626" transform="translate(425.483799 423.453594) scale(0.11 -0.11)">
       <defs>
        <path id="ArialMT-39" d="M 350 1059 
L 891 1109 
Q 959 728 1153 556 
Q 1347 384 1650 384 
Q 1909 384 2104 503 
Q 2300 622 2425 820 
Q 2550 1019 2634 1356 
Q 2719 1694 2719 2044 
Q 2719 2081 2716 2156 
Q 2547 1888 2255 1720 
Q 1963 1553 1622 1553 
Q 1053 1553 659 1965 
Q 266 2378 266 3053 
Q 266 3750 677 4175 
Q 1088 4600 1706 4600 
Q 2153 4600 2523 4359 
Q 2894 4119 3086 3673 
Q 3278 3228 3278 2384 
Q 3278 1506 3087 986 
Q 2897 466 2520 194 
Q 2144 -78 1638 -78 
Q 1100 -78 759 220 
Q 419 519 350 1059 
z
M 2653 3081 
Q 2653 3566 2395 3850 
Q 2138 4134 1775 4134 
Q 1400 4134 1122 3828 
Q 844 3522 844 3034 
Q 844 2597 1108 2323 
Q 1372 2050 1759 2050 
Q 2150 2050 2401 2323 
Q 2653 2597 2653 3081 
z
" transform="scale(0.015625)"/>
       </defs>
       <use xlink:href="#ArialMT-32"/>
       <use xlink:href="#ArialMT-30" x="55.615234"/>
       <use xlink:href="#ArialMT-31" x="111.230469"/>
       <use xlink:href="#ArialMT-39" x="166.845703"/>
      </g>
     </g>
    </g>
    <g id="xtick_5">
     <g id="line2d_5">
      <g>
       <use xlink:href="#mf885050bfc" x="540.772339" y="406.08" style="fill: #262626; stroke: #262626; stroke-width: 1.25"/>
      </g>
     </g>
     <g id="text_5">
      <!-- 2020 -->
      <g style="fill: #262626" transform="translate(528.538277 423.453594) scale(0.11 -0.11)">
       <use xlink:href="#ArialMT-32"/>
       <use xlink:href="#ArialMT-30" x="55.615234"/>
       <use xlink:href="#ArialMT-32" x="111.230469"/>
       <use xlink:href="#ArialMT-30" x="166.845703"/>
      </g>
     </g>
    </g>
    <g id="xtick_6">
     <g id="line2d_6">
      <g>
       <use xlink:href="#mf885050bfc" x="644.109158" y="406.08" style="fill: #262626; stroke: #262626; stroke-width: 1.25"/>
      </g>
     </g>
     <g id="text_6">
      <!-- 2021 -->
      <g style="fill: #262626" transform="translate(631.875096 423.453594) scale(0.11 -0.11)">
       <use xlink:href="#ArialMT-32"/>
       <use xlink:href="#ArialMT-30" x="55.615234"/>
       <use xlink:href="#ArialMT-32" x="111.230469"/>
       <use xlink:href="#ArialMT-31" x="166.845703"/>
      </g>
     </g>
    </g>
    <g id="xtick_7">
     <g id="line2d_7">
      <g>
       <use xlink:href="#mf885050bfc" x="747.163636" y="406.08" style="fill: #262626; stroke: #262626; stroke-width: 1.25"/>
      </g>
     </g>
     <g id="text_7">
      <!-- 2022 -->
      <g style="fill: #262626" transform="translate(734.929574 423.453594) scale(0.11 -0.11)">
       <use xlink:href="#ArialMT-32"/>
       <use xlink:href="#ArialMT-30" x="55.615234"/>
       <use xlink:href="#ArialMT-32" x="111.230469"/>
       <use xlink:href="#ArialMT-32" x="166.845703"/>
      </g>
     </g>
    </g>
   </g>
   <g id="matplotlib.axis_2">
    <g id="ytick_1">
     <g id="line2d_8">
      <defs>
       <path id="me729120e3c" d="M 0 0 
L -6 0 
" style="stroke: #262626; stroke-width: 1.25"/>
      </defs>
      <g>
       <use xlink:href="#me729120e3c" x="108" y="382.459636" style="fill: #262626; stroke: #262626; stroke-width: 1.25"/>
      </g>
     </g>
     <g id="text_8">
      <!-- −2 -->
      <g style="fill: #262626" transform="translate(85.958281 386.396433) scale(0.11 -0.11)">
       <defs>
        <path id="ArialMT-2212" d="M 3381 1997 
L 356 1997 
L 356 2522 
L 3381 2522 
L 3381 1997 
z
" transform="scale(0.015625)"/>
       </defs>
       <use xlink:href="#ArialMT-2212"/>
       <use xlink:href="#ArialMT-32" x="58.398438"/>
      </g>
     </g>
    </g>
    <g id="ytick_2">
     <g id="line2d_9">
      <g>
       <use xlink:href="#me729120e3c" x="108" y="339.76275" style="fill: #262626; stroke: #262626; stroke-width: 1.25"/>
      </g>
     </g>
     <g id="text_9">
      <!-- −1 -->
      <g style="fill: #262626" transform="translate(85.958281 343.699547) scale(0.11 -0.11)">
       <use xlink:href="#ArialMT-2212"/>
       <use xlink:href="#ArialMT-31" x="58.398438"/>
      </g>
     </g>
    </g>
    <g id="ytick_3">
     <g id="line2d_10">
      <g>
       <use xlink:href="#me729120e3c" x="108" y="297.065864" style="fill: #262626; stroke: #262626; stroke-width: 1.25"/>
      </g>
     </g>
     <g id="text_10">
      <!-- 0 -->
      <g style="fill: #262626" transform="translate(92.382969 301.002661) scale(0.11 -0.11)">
       <use xlink:href="#ArialMT-30"/>
      </g>
     </g>
    </g>
    <g id="ytick_4">
     <g id="line2d_11">
      <g>
       <use xlink:href="#me729120e3c" x="108" y="254.368978" style="fill: #262626; stroke: #262626; stroke-width: 1.25"/>
      </g>
     </g>
     <g id="text_11">
      <!-- 1 -->
      <g style="fill: #262626" transform="translate(92.382969 258.305774) scale(0.11 -0.11)">
       <use xlink:href="#ArialMT-31"/>
      </g>
     </g>
    </g>
    <g id="ytick_5">
     <g id="line2d_12">
      <g>
       <use xlink:href="#me729120e3c" x="108" y="211.672091" style="fill: #262626; stroke: #262626; stroke-width: 1.25"/>
      </g>
     </g>
     <g id="text_12">
      <!-- 2 -->
      <g style="fill: #262626" transform="translate(92.382969 215.608888) scale(0.11 -0.11)">
       <use xlink:href="#ArialMT-32"/>
      </g>
     </g>
    </g>
    <g id="ytick_6">
     <g id="line2d_13">
      <g>
       <use xlink:href="#me729120e3c" x="108" y="168.975205" style="fill: #262626; stroke: #262626; stroke-width: 1.25"/>
      </g>
     </g>
     <g id="text_13">
      <!-- 3 -->
      <g style="fill: #262626" transform="translate(92.382969 172.912002) scale(0.11 -0.11)">
       <defs>
        <path id="ArialMT-33" d="M 269 1209 
L 831 1284 
Q 928 806 1161 595 
Q 1394 384 1728 384 
Q 2125 384 2398 659 
Q 2672 934 2672 1341 
Q 2672 1728 2419 1979 
Q 2166 2231 1775 2231 
Q 1616 2231 1378 2169 
L 1441 2663 
Q 1497 2656 1531 2656 
Q 1891 2656 2178 2843 
Q 2466 3031 2466 3422 
Q 2466 3731 2256 3934 
Q 2047 4138 1716 4138 
Q 1388 4138 1169 3931 
Q 950 3725 888 3313 
L 325 3413 
Q 428 3978 793 4289 
Q 1159 4600 1703 4600 
Q 2078 4600 2393 4439 
Q 2709 4278 2876 4000 
Q 3044 3722 3044 3409 
Q 3044 3113 2884 2869 
Q 2725 2625 2413 2481 
Q 2819 2388 3044 2092 
Q 3269 1797 3269 1353 
Q 3269 753 2831 336 
Q 2394 -81 1725 -81 
Q 1122 -81 723 278 
Q 325 638 269 1209 
z
" transform="scale(0.015625)"/>
       </defs>
       <use xlink:href="#ArialMT-33"/>
      </g>
     </g>
    </g>
    <g id="ytick_7">
     <g id="line2d_14">
      <g>
       <use xlink:href="#me729120e3c" x="108" y="126.278319" style="fill: #262626; stroke: #262626; stroke-width: 1.25"/>
      </g>
     </g>
     <g id="text_14">
      <!-- 4 -->
      <g style="fill: #262626" transform="translate(92.382969 130.215116) scale(0.11 -0.11)">
       <defs>
        <path id="ArialMT-34" d="M 2069 0 
L 2069 1097 
L 81 1097 
L 81 1613 
L 2172 4581 
L 2631 4581 
L 2631 1613 
L 3250 1613 
L 3250 1097 
L 2631 1097 
L 2631 0 
L 2069 0 
z
M 2069 1613 
L 2069 3678 
L 634 1613 
L 2069 1613 
z
" transform="scale(0.015625)"/>
       </defs>
       <use xlink:href="#ArialMT-34"/>
      </g>
     </g>
    </g>
   </g>
   <g id="PolyCollection_1">
    <defs>
     <path id="m1268228656" d="M 138.436364 -634.233549 
L 138.436364 -471.665455 
L 140.412751 -481.102055 
L 142.389138 -485.383492 
L 144.365525 -488.305782 
L 146.341913 -490.759561 
L 148.3183 -492.919756 
L 150.294687 -494.837327 
L 152.271074 -496.548295 
L 154.247462 -498.083643 
L 156.223849 -499.468687 
L 158.200236 -500.723537 
L 160.176623 -501.864247 
L 162.153011 -502.903802 
L 164.129398 -503.852899 
L 166.105785 -504.720497 
L 168.082172 -505.514241 
L 170.05856 -506.240738 
L 172.034947 -506.9058 
L 174.011334 -507.514599 
L 175.987721 -508.071776 
L 177.964109 -508.581557 
L 179.940496 -509.047783 
L 181.916883 -509.473988 
L 183.89327 -509.863419 
L 185.869658 -510.219078 
L 187.846045 -510.543715 
L 189.822432 -510.839899 
L 191.798819 -511.109993 
L 193.775207 -511.356175 
L 195.751594 -511.580449 
L 197.727981 -511.78469 
L 199.704368 -511.970613 
L 201.680756 -512.13979 
L 203.657143 -512.293667 
L 205.63353 -512.433546 
L 207.609917 -512.560549 
L 209.586305 -512.676084 
L 211.562692 -512.785409 
L 213.539079 -512.914035 
L 215.515466 -513.166798 
L 217.491854 -513.281101 
L 219.468241 -513.358645 
L 221.444628 -513.430855 
L 223.421015 -513.493226 
L 225.397403 -513.547153 
L 227.37379 -513.591878 
L 229.350177 -513.605559 
L 231.326564 -513.461806 
L 233.302952 -513.460783 
L 235.279339 -513.488553 
L 237.255726 -513.520192 
L 239.232113 -513.558875 
L 241.208501 -513.585332 
L 243.184888 -513.608435 
L 245.161275 -513.634643 
L 247.137662 -513.659471 
L 249.11405 -513.683465 
L 251.090437 -513.699905 
L 253.066824 -513.717058 
L 255.043211 -513.738242 
L 257.019599 -513.749618 
L 258.995986 -513.755222 
L 260.972373 -513.766654 
L 262.94876 -513.772079 
L 264.925148 -513.776833 
L 266.901535 -513.78685 
L 268.877922 -513.793375 
L 270.854309 -513.800954 
L 272.830697 -513.808808 
L 274.807084 -513.818448 
L 276.783471 -513.827172 
L 278.759858 -513.83104 
L 280.736246 -513.834878 
L 282.712633 -513.84436 
L 284.68902 -513.850199 
L 286.665407 -513.854785 
L 288.641795 -513.858276 
L 290.618182 -513.868573 
L 292.594569 -513.871103 
L 294.570956 -513.872492 
L 296.547344 -513.877928 
L 298.523731 -513.904121 
L 300.500118 -513.911704 
L 302.476505 -513.927427 
L 304.452893 -513.962466 
L 306.42928 -514.030777 
L 308.405667 -514.06606 
L 310.382054 -514.174403 
L 312.358442 -514.220751 
L 314.334829 -514.358004 
L 316.311216 -514.410847 
L 318.287603 -514.550727 
L 320.263991 -514.582081 
L 322.240378 -514.587873 
L 324.216765 -514.598857 
L 326.193152 -514.611683 
L 328.16954 -514.615806 
L 330.145927 -514.62989 
L 332.122314 -514.665824 
L 334.098701 -514.657411 
L 336.075089 -514.534796 
L 338.051476 -513.931163 
L 340.027863 -513.992287 
L 342.00425 -514.156064 
L 343.980638 -514.293689 
L 345.957025 -514.404862 
L 347.933412 -514.485047 
L 349.909799 -514.512237 
L 351.886187 -514.535305 
L 353.862574 -514.608843 
L 355.838961 -514.904747 
L 357.815348 -513.959656 
L 359.791736 -513.763706 
L 361.768123 -513.734995 
L 363.74451 -513.733264 
L 365.720897 -513.732292 
L 367.697285 -513.728286 
L 369.673672 -513.72737 
L 371.650059 -513.814081 
L 373.626446 -514.478028 
L 375.602834 -517.82435 
L 377.579221 -518.564641 
L 379.555608 -519.040253 
L 381.531995 -519.176076 
L 383.508383 -519.421204 
L 385.48477 -519.981339 
L 387.461157 -520.087549 
L 389.437544 -518.866052 
L 391.413932 -520.297536 
L 393.390319 -520.506521 
L 395.366706 -520.639321 
L 397.343093 -520.874773 
L 399.319481 -521.180379 
L 401.295868 -521.464688 
L 403.272255 -521.596165 
L 405.248642 -521.690765 
L 407.22503 -521.779532 
L 409.201417 -521.630893 
L 411.177804 -522.379963 
L 413.154191 -522.761372 
L 415.130579 -523.139865 
L 417.106966 -523.3936 
L 419.083353 -523.613319 
L 421.05974 -523.859567 
L 423.036128 -524.228231 
L 425.012515 -525.012202 
L 426.988902 -525.962847 
L 428.965289 -526.848295 
L 430.941677 -528.477266 
L 432.918064 -529.15207 
L 434.894451 -529.411083 
L 436.870838 -529.770911 
L 438.847226 -529.71564 
L 440.823613 -528.218123 
L 442.8 -516.383608 
L 444.776387 -514.236189 
L 446.752774 -514.924089 
L 448.729162 -517.049688 
L 450.705549 -519.143241 
L 452.681936 -518.638688 
L 454.658323 -520.025447 
L 456.634711 -526.085958 
L 458.611098 -551.819661 
L 460.587485 -560.26499 
L 462.563872 -576.21179 
L 464.54026 -589.120262 
L 466.516647 -599.114597 
L 468.493034 -606.450928 
L 470.469421 -614.973355 
L 472.445809 -620.191445 
L 474.422196 -625.132055 
L 476.398583 -628.055002 
L 478.37497 -631.227403 
L 480.351358 -634.160967 
L 482.327745 -637.158618 
L 484.304132 -639.268637 
L 486.280519 -641.002887 
L 488.256907 -642.846813 
L 490.233294 -644.698343 
L 492.209681 -646.266291 
L 494.186068 -647.455462 
L 496.162456 -648.683738 
L 498.138843 -649.788636 
L 500.11523 -651.108917 
L 502.091617 -652.232962 
L 504.068005 -653.062336 
L 506.044392 -654.339312 
L 508.020779 -655.243954 
L 509.997166 -656.07577 
L 511.973554 -657.03864 
L 513.949941 -658.089779 
L 515.926328 -659.186869 
L 517.902715 -660.583101 
L 519.879103 -661.522211 
L 521.85549 -662.474983 
L 523.831877 -663.338336 
L 525.808264 -663.918907 
L 527.784652 -664.493145 
L 529.761039 -665.308369 
L 531.737426 -666.245535 
L 533.713813 -667.314967 
L 535.690201 -670.272067 
L 537.666588 -676.887456 
L 539.642975 -682.00101 
L 541.619362 -683.032838 
L 543.59575 -680.713804 
L 545.572137 -658.105211 
L 547.548524 -539.809663 
L 549.524911 -516.668335 
L 551.501299 -514.58264 
L 553.477686 -515.738732 
L 555.454073 -517.118518 
L 557.43046 -518.25364 
L 559.406848 -519.371109 
L 561.383235 -520.701982 
L 563.359622 -522.100234 
L 565.336009 -523.488113 
L 567.312397 -523.054355 
L 569.288784 -515.403514 
L 571.265171 -513.86328 
L 573.241558 -513.656356 
L 575.217946 -513.656275 
L 577.194333 -513.664693 
L 579.17072 -513.667442 
L 581.147107 -513.668399 
L 583.123495 -513.669152 
L 585.099882 -513.669946 
L 587.076269 -513.670572 
L 589.052656 -513.66902 
L 591.029044 -513.65996 
L 593.005431 -513.661003 
L 594.981818 -513.934304 
L 596.958205 -515.997613 
L 598.934593 -526.357769 
L 600.91098 -528.496709 
L 602.887367 -528.848693 
L 604.863754 -528.894317 
L 606.840142 -528.917671 
L 608.816529 -528.945233 
L 610.792916 -528.970527 
L 612.769303 -528.759132 
L 614.745691 -526.977035 
L 616.722078 -518.182845 
L 618.698465 -524.929421 
L 620.674852 -518.233703 
L 622.65124 -527.267491 
L 624.627627 -529.213153 
L 626.604014 -529.524348 
L 628.580401 -529.278813 
L 630.556789 -527.18316 
L 632.533176 -516.413399 
L 634.509563 -516.145061 
L 636.48595 -525.341204 
L 638.462338 -525.629359 
L 640.438725 -518.072339 
L 642.415112 -525.956479 
L 644.391499 -527.642658 
L 646.367887 -527.656759 
L 648.344274 -525.99235 
L 650.320661 -517.847362 
L 652.297048 -523.817097 
L 654.273436 -515.645129 
L 656.249823 -513.96327 
L 658.22621 -513.738807 
L 660.202597 -513.756245 
L 662.178985 -513.793406 
L 664.155372 -513.850835 
L 666.131759 -513.899891 
L 668.108146 -513.966533 
L 670.084534 -514.020953 
L 672.060921 -514.070457 
L 674.037308 -514.104274 
L 676.013695 -514.074254 
L 677.990083 -514.045186 
L 679.96647 -514.041028 
L 681.942857 -514.05869 
L 683.919244 -514.063286 
L 685.895632 -514.079975 
L 687.872019 -514.094919 
L 689.848406 -514.089758 
L 691.824793 -514.105832 
L 693.801181 -514.127321 
L 695.777568 -514.113182 
L 697.753955 -514.154562 
L 699.730342 -514.182348 
L 701.70673 -514.182088 
L 703.683117 -514.177207 
L 705.659504 -514.167994 
L 707.635891 -514.194441 
L 709.612279 -514.218888 
L 711.588666 -514.250659 
L 713.565053 -514.258039 
L 715.54144 -514.266692 
L 717.517828 -514.283489 
L 719.494215 -514.274724 
L 721.470602 -514.293531 
L 723.446989 -514.323851 
L 725.423377 -514.349504 
L 727.399764 -514.353316 
L 729.376151 -514.372724 
L 731.352538 -514.392809 
L 733.328926 -514.389368 
L 735.305313 -514.399298 
L 737.2817 -514.423282 
L 739.258087 -514.437396 
L 741.234475 -514.443107 
L 743.210862 -514.449917 
L 745.187249 -514.449092 
L 747.163636 -514.133444 
L 747.163636 -578.182262 
L 747.163636 -578.182262 
L 745.187249 -577.812678 
L 743.210862 -577.803475 
L 741.234475 -577.794544 
L 739.258087 -577.788086 
L 737.2817 -577.773462 
L 735.305313 -577.749073 
L 733.328926 -577.738808 
L 731.352538 -577.741982 
L 729.376151 -577.721673 
L 727.399764 -577.702076 
L 725.423377 -577.698107 
L 723.446989 -577.67232 
L 721.470602 -577.641885 
L 719.494215 -577.622984 
L 717.517828 -577.631657 
L 715.54144 -577.614789 
L 713.565053 -577.606065 
L 711.588666 -577.598629 
L 709.612279 -577.566802 
L 707.635891 -577.542313 
L 705.659504 -577.515819 
L 703.683117 -577.525002 
L 701.70673 -577.529839 
L 699.730342 -577.530074 
L 697.753955 -577.502271 
L 695.777568 -577.460866 
L 693.801181 -577.474991 
L 691.824793 -577.453477 
L 689.848406 -577.437397 
L 687.872019 -577.442547 
L 685.895632 -577.427592 
L 683.919244 -577.410891 
L 681.942857 -577.406293 
L 679.96647 -577.388626 
L 677.990083 -577.392778 
L 676.013695 -577.421842 
L 674.037308 -577.45186 
L 672.060921 -577.418043 
L 670.084534 -577.36854 
L 668.108146 -577.314122 
L 666.131759 -577.247481 
L 664.155372 -577.198425 
L 662.178985 -577.140999 
L 660.202597 -577.103911 
L 658.22621 -577.087054 
L 656.249823 -577.312086 
L 654.273436 -579.001619 
L 652.297048 -587.205066 
L 650.320661 -581.236318 
L 648.344274 -589.347209 
L 646.367887 -591.00753 
L 644.391499 -590.992757 
L 642.415112 -589.31515 
L 640.438725 -581.455828 
L 638.462338 -588.985016 
L 636.48595 -588.698948 
L 634.509563 -579.49847 
L 632.533176 -579.767908 
L 630.556789 -590.544187 
L 628.580401 -592.630638 
L 626.604014 -592.876244 
L 624.627627 -592.562988 
L 622.65124 -590.627119 
L 620.674852 -581.617955 
L 618.698465 -588.348488 
L 616.722078 -581.566487 
L 614.745691 -590.336765 
L 612.769303 -592.108209 
L 610.792916 -592.319151 
L 608.816529 -592.293236 
L 606.840142 -592.265648 
L 604.863754 -592.242411 
L 602.887367 -592.197928 
L 600.91098 -591.848254 
L 598.934593 -589.712821 
L 596.958205 -579.353586 
L 594.981818 -577.286019 
L 593.005431 -577.010355 
L 591.029044 -577.008245 
L 589.052656 -577.017279 
L 587.076269 -577.01887 
L 585.099882 -577.01829 
L 583.123495 -577.017534 
L 581.147107 -577.016831 
L 579.17072 -577.01592 
L 577.194333 -577.013218 
L 575.217946 -577.004865 
L 573.241558 -577.005506 
L 571.265171 -577.213483 
L 569.288784 -578.758446 
L 567.312397 -586.406693 
L 565.336009 -586.840323 
L 563.359622 -585.450755 
L 561.383235 -584.051346 
L 559.406848 -582.720649 
L 557.43046 -581.603444 
L 555.454073 -580.468652 
L 553.477686 -579.101651 
L 551.501299 -578.100545 
L 549.524911 -580.489738 
L 547.548524 -604.138834 
L 545.572137 -722.436428 
L 543.59575 -744.553563 
L 541.619362 -746.574545 
L 539.642975 -745.365031 
L 537.666588 -740.238131 
L 535.690201 -733.623383 
L 533.713813 -730.667342 
L 531.737426 -729.597177 
L 529.761039 -728.658891 
L 527.784652 -727.843505 
L 525.808264 -727.269307 
L 523.831877 -726.688818 
L 521.85549 -725.825566 
L 519.879103 -724.872937 
L 517.902715 -723.933969 
L 515.926328 -722.5379 
L 513.949941 -721.440993 
L 511.973554 -720.389997 
L 509.997166 -719.427269 
L 508.020779 -718.595596 
L 506.044392 -717.691116 
L 504.068005 -716.414385 
L 502.091617 -715.585134 
L 500.11523 -714.461271 
L 498.138843 -713.141214 
L 496.162456 -712.0365 
L 494.186068 -710.808448 
L 492.209681 -709.619455 
L 490.233294 -708.051736 
L 488.256907 -706.200491 
L 486.280519 -704.356829 
L 484.304132 -702.622783 
L 482.327745 -700.512993 
L 480.351358 -697.515765 
L 478.37497 -694.582425 
L 476.398583 -691.410716 
L 474.422196 -688.487687 
L 472.445809 -683.549184 
L 470.469421 -678.329792 
L 468.493034 -669.811688 
L 466.516647 -662.472428 
L 464.54026 -652.4792 
L 462.563872 -639.569652 
L 460.587485 -623.648604 
L 458.611098 -615.253196 
L 456.634711 -589.478084 
L 454.658323 -583.40997 
L 452.681936 -582.003533 
L 450.705549 -582.505549 
L 448.729162 -580.411435 
L 446.752774 -578.288025 
L 444.776387 -577.605116 
L 442.8 -579.758745 
L 440.823613 -591.59131 
L 438.847226 -593.085636 
L 436.870838 -593.137268 
L 434.894451 -592.777043 
L 432.918064 -592.518355 
L 430.941677 -591.844152 
L 428.965289 -590.216382 
L 426.988902 -589.331489 
L 425.012515 -588.381715 
L 423.036128 -587.598664 
L 421.05974 -587.230839 
L 419.083353 -586.985488 
L 417.106966 -586.766725 
L 415.130579 -586.513986 
L 413.154191 -586.136598 
L 411.177804 -585.756249 
L 409.201417 -585.008663 
L 407.22503 -585.158191 
L 405.248642 -585.070659 
L 403.272255 -584.977339 
L 401.295868 -584.847182 
L 399.319481 -584.564304 
L 397.343093 -584.260204 
L 395.366706 -584.026408 
L 393.390319 -583.897123 
L 391.413932 -583.809312 
L 389.437544 -585.045155 
L 387.461157 -583.602779 
L 385.48477 -583.378835 
L 383.508383 -582.818895 
L 381.531995 -582.575589 
L 379.555608 -582.441708 
L 377.579221 -581.968625 
L 375.602834 -581.230427 
L 373.626446 -577.888121 
L 371.650059 -577.225735 
L 369.673672 -577.141162 
L 367.697285 -577.144577 
L 365.720897 -577.151385 
L 363.74451 -577.155301 
L 361.768123 -577.160139 
L 359.791736 -577.192124 
L 357.815348 -577.391662 
L 355.838961 -578.339577 
L 353.862574 -578.047728 
L 351.886187 -577.977904 
L 349.909799 -577.958799 
L 347.933412 -577.935748 
L 345.957025 -577.859918 
L 343.980638 -577.753304 
L 342.00425 -577.620477 
L 340.027863 -577.461782 
L 338.051476 -577.406071 
L 336.075089 -578.014694 
L 334.098701 -578.143066 
L 332.122314 -578.157503 
L 330.145927 -578.127885 
L 328.16954 -578.120375 
L 326.193152 -578.123119 
L 324.216765 -578.117533 
L 322.240378 -578.114125 
L 320.263991 -578.116265 
L 318.287603 -578.093251 
L 316.311216 -577.962223 
L 314.334829 -577.918565 
L 312.358442 -577.791076 
L 310.382054 -577.754885 
L 308.405667 -577.657322 
L 306.42928 -577.633316 
L 304.452893 -577.576943 
L 302.476505 -577.55445 
L 300.500118 -577.551953 
L 298.523731 -577.558312 
L 296.547344 -577.546871 
L 294.570956 -577.557001 
L 292.594569 -577.572047 
L 290.618182 -577.586899 
L 288.641795 -577.595007 
L 286.665407 -577.610991 
L 284.68902 -577.62702 
L 282.712633 -577.643046 
L 280.736246 -577.656746 
L 278.759858 -577.677501 
L 276.783471 -577.699749 
L 274.807084 -577.718777 
L 272.830697 -577.738651 
L 270.854309 -577.762184 
L 268.877922 -577.788017 
L 266.901535 -577.817103 
L 264.925148 -577.845053 
L 262.94876 -577.88079 
L 260.972373 -577.918595 
L 258.995986 -577.953346 
L 257.019599 -577.997118 
L 255.043211 -578.038566 
L 253.066824 -578.073941 
L 251.090437 -578.11738 
L 249.11405 -578.16589 
L 247.137662 -578.211573 
L 245.161275 -578.261564 
L 243.184888 -578.315728 
L 241.208501 -578.379019 
L 239.232113 -578.445521 
L 237.255726 -578.5069 
L 235.279339 -578.583117 
L 233.302952 -578.671584 
L 231.326564 -578.797712 
L 229.350177 -579.076766 
L 227.37379 -579.208899 
L 225.397403 -579.322049 
L 223.421015 -579.438818 
L 221.444628 -579.561036 
L 219.468241 -579.688531 
L 217.491854 -579.827274 
L 215.515466 -579.947699 
L 213.539079 -579.948861 
L 211.562692 -580.096149 
L 209.586305 -580.285717 
L 207.609917 -580.494584 
L 205.63353 -580.71985 
L 203.657143 -580.962603 
L 201.680756 -581.224417 
L 199.704368 -581.506961 
L 197.727981 -581.812013 
L 195.751594 -582.141499 
L 193.775207 -582.497512 
L 191.798819 -582.882328 
L 189.822432 -583.298402 
L 187.846045 -583.748404 
L 185.869658 -584.235228 
L 183.89327 -584.762008 
L 181.916883 -585.332154 
L 179.940496 -585.949354 
L 177.964109 -586.617636 
L 175.987721 -587.341389 
L 174.011334 -588.125412 
L 172.034947 -588.975 
L 170.05856 -589.896003 
L 168.082172 -590.894925 
L 166.105785 -591.979125 
L 164.129398 -593.15692 
L 162.153011 -594.437937 
L 160.176623 -595.833385 
L 158.200236 -597.356537 
L 156.223849 -599.023361 
L 154.247462 -600.853341 
L 152.271074 -602.870597 
L 150.294687 -605.104997 
L 148.3183 -607.592358 
L 146.341913 -610.372835 
L 144.365525 -613.503178 
L 142.389138 -617.198059 
L 140.412751 -622.58134 
L 138.436364 -634.233549 
z
" style="stroke: #ffffff; stroke-opacity: 0.4"/>
    </defs>
    <g clip-path="url(#p44761aeca8)">
     <use xlink:href="#m1268228656" x="0" y="864" style="fill: #4c72b0; fill-opacity: 0.4; stroke: #ffffff; stroke-opacity: 0.4"/>
    </g>
   </g>
   <g id="line2d_15">
    <path d="M 138.436364 311.050496 
L 140.412751 312.158301 
L 142.389138 312.709223 
L 146.341913 313.433801 
L 152.271074 314.290554 
L 160.176623 315.151185 
L 170.05856 315.931631 
L 181.916883 316.596928 
L 195.751594 317.139026 
L 211.562692 317.559222 
L 213.539079 317.568552 
L 215.515466 317.442752 
L 225.397403 317.565399 
L 229.350177 317.658836 
L 231.326564 317.870241 
L 237.255726 317.986455 
L 302.476505 318.259062 
L 310.382054 318.035356 
L 316.311216 317.813466 
L 320.263991 317.650827 
L 336.075089 317.725254 
L 338.051476 318.331383 
L 342.00425 318.11173 
L 347.933412 317.789602 
L 353.862574 317.671716 
L 355.838961 317.377839 
L 357.815348 318.324341 
L 359.791736 318.522085 
L 369.673672 318.565733 
L 371.650059 318.480093 
L 373.626446 317.816926 
L 375.602834 314.472612 
L 377.579221 313.733368 
L 379.555608 313.25902 
L 383.508383 312.87995 
L 385.48477 312.319913 
L 389.437544 312.044396 
L 395.366706 311.667135 
L 399.319481 311.127659 
L 401.295868 310.844063 
L 407.22503 310.531139 
L 409.201417 310.680223 
L 411.177804 309.931895 
L 415.130579 309.173073 
L 423.036128 308.086553 
L 425.012515 307.30304 
L 428.965289 305.467662 
L 430.941677 303.839292 
L 432.918064 303.164787 
L 436.870838 302.545911 
L 438.847226 302.599361 
L 440.823613 304.095284 
L 442.8 315.928824 
L 444.776387 318.079348 
L 446.752774 317.393944 
L 450.705549 313.175606 
L 452.681936 313.67889 
L 454.658323 312.282291 
L 456.634711 306.217979 
L 458.611098 280.463573 
L 460.587485 272.043202 
L 462.563872 256.109279 
L 464.54026 243.20027 
L 466.516647 233.206488 
L 468.493034 225.868693 
L 470.469421 217.348426 
L 474.422196 207.190129 
L 476.398583 204.267141 
L 478.37497 201.095086 
L 482.327745 195.164192 
L 484.304132 193.05429 
L 488.256907 189.476348 
L 490.233294 187.624961 
L 492.209681 186.057129 
L 502.091617 180.090952 
L 504.068005 179.26164 
L 506.044392 177.984786 
L 511.973554 175.285681 
L 515.926328 173.137615 
L 517.902715 171.741465 
L 523.831877 168.986423 
L 527.784652 167.831675 
L 529.761039 167.01637 
L 531.737426 166.078644 
L 533.713813 165.008846 
L 535.690201 162.052275 
L 537.666588 155.437201 
L 539.642975 150.31698 
L 541.619362 149.196313 
L 543.59575 151.366317 
L 545.572137 173.72918 
L 547.548524 292.025752 
L 549.524911 315.420965 
L 551.501299 317.658406 
L 553.477686 316.57981 
L 555.454073 315.206415 
L 559.406848 312.954121 
L 565.336009 308.835783 
L 567.312397 309.269477 
L 569.288784 316.919019 
L 571.265171 318.461617 
L 573.241558 318.66907 
L 593.005431 318.664321 
L 594.981818 318.38984 
L 596.958205 316.324401 
L 598.934593 305.964703 
L 600.91098 303.82752 
L 602.887367 303.476688 
L 610.792916 303.355161 
L 612.769303 303.56633 
L 614.745691 305.343099 
L 616.722078 314.125334 
L 618.698465 307.361046 
L 620.674852 314.074171 
L 622.65124 305.052695 
L 624.627627 303.11193 
L 626.604014 302.799703 
L 628.580401 303.045274 
L 630.556789 305.136326 
L 632.533176 315.909346 
L 634.509563 316.178234 
L 636.48595 306.979924 
L 638.462338 306.692812 
L 640.438725 314.235917 
L 642.415112 306.364187 
L 644.391499 304.682293 
L 646.367887 304.667857 
L 648.344274 306.33022 
L 650.320661 314.458159 
L 652.297048 308.488918 
L 654.273436 316.676627 
L 656.249823 318.362323 
L 658.22621 318.58707 
L 666.131759 318.426314 
L 674.037308 318.221933 
L 683.919244 318.262911 
L 741.234475 317.881175 
L 747.163636 317.842146 
L 747.163636 317.842146 
" clip-path="url(#p44761aeca8)" style="fill: none; stroke: #4c72b0; stroke-width: 1.5; stroke-linecap: round"/>
   </g>
   <g id="patch_3">
    <path d="M 108 406.08 
L 108 103.68 
" style="fill: none; stroke: #262626; stroke-width: 1.25; stroke-linejoin: miter; stroke-linecap: square"/>
   </g>
   <g id="patch_4">
    <path d="M 777.6 406.08 
L 777.6 103.68 
" style="fill: none; stroke: #262626; stroke-width: 1.25; stroke-linejoin: miter; stroke-linecap: square"/>
   </g>
   <g id="patch_5">
    <path d="M 108 406.08 
L 777.6 406.08 
" style="fill: none; stroke: #262626; stroke-width: 1.25; stroke-linejoin: miter; stroke-linecap: square"/>
   </g>
   <g id="patch_6">
    <path d="M 108 103.68 
L 777.6 103.68 
" style="fill: none; stroke: #262626; stroke-width: 1.25; stroke-linejoin: miter; stroke-linecap: square"/>
   </g>
   <g id="text_15">
    <!-- sts_local_trend/ -->
    <g style="fill: #262626" transform="translate(400.779375 97.68) scale(0.12 -0.12)">
     <defs>
      <path id="ArialMT-73" d="M 197 991 
L 753 1078 
Q 800 744 1014 566 
Q 1228 388 1613 388 
Q 2000 388 2187 545 
Q 2375 703 2375 916 
Q 2375 1106 2209 1216 
Q 2094 1291 1634 1406 
Q 1016 1563 777 1677 
Q 538 1791 414 1992 
Q 291 2194 291 2438 
Q 291 2659 392 2848 
Q 494 3038 669 3163 
Q 800 3259 1026 3326 
Q 1253 3394 1513 3394 
Q 1903 3394 2198 3281 
Q 2494 3169 2634 2976 
Q 2775 2784 2828 2463 
L 2278 2388 
Q 2241 2644 2061 2787 
Q 1881 2931 1553 2931 
Q 1166 2931 1000 2803 
Q 834 2675 834 2503 
Q 834 2394 903 2306 
Q 972 2216 1119 2156 
Q 1203 2125 1616 2013 
Q 2213 1853 2448 1751 
Q 2684 1650 2818 1456 
Q 2953 1263 2953 975 
Q 2953 694 2789 445 
Q 2625 197 2315 61 
Q 2006 -75 1616 -75 
Q 969 -75 630 194 
Q 291 463 197 991 
z
" transform="scale(0.015625)"/>
      <path id="ArialMT-74" d="M 1650 503 
L 1731 6 
Q 1494 -44 1306 -44 
Q 1000 -44 831 53 
Q 663 150 594 308 
Q 525 466 525 972 
L 525 2881 
L 113 2881 
L 113 3319 
L 525 3319 
L 525 4141 
L 1084 4478 
L 1084 3319 
L 1650 3319 
L 1650 2881 
L 1084 2881 
L 1084 941 
Q 1084 700 1114 631 
Q 1144 563 1211 522 
Q 1278 481 1403 481 
Q 1497 481 1650 503 
z
" transform="scale(0.015625)"/>
      <path id="ArialMT-5f" d="M -97 -1272 
L -97 -866 
L 3631 -866 
L 3631 -1272 
L -97 -1272 
z
" transform="scale(0.015625)"/>
      <path id="ArialMT-6c" d="M 409 0 
L 409 4581 
L 972 4581 
L 972 0 
L 409 0 
z
" transform="scale(0.015625)"/>
      <path id="ArialMT-6f" d="M 213 1659 
Q 213 2581 725 3025 
Q 1153 3394 1769 3394 
Q 2453 3394 2887 2945 
Q 3322 2497 3322 1706 
Q 3322 1066 3130 698 
Q 2938 331 2570 128 
Q 2203 -75 1769 -75 
Q 1072 -75 642 372 
Q 213 819 213 1659 
z
M 791 1659 
Q 791 1022 1069 705 
Q 1347 388 1769 388 
Q 2188 388 2466 706 
Q 2744 1025 2744 1678 
Q 2744 2294 2464 2611 
Q 2184 2928 1769 2928 
Q 1347 2928 1069 2612 
Q 791 2297 791 1659 
z
" transform="scale(0.015625)"/>
      <path id="ArialMT-63" d="M 2588 1216 
L 3141 1144 
Q 3050 572 2676 248 
Q 2303 -75 1759 -75 
Q 1078 -75 664 370 
Q 250 816 250 1647 
Q 250 2184 428 2587 
Q 606 2991 970 3192 
Q 1334 3394 1763 3394 
Q 2303 3394 2647 3120 
Q 2991 2847 3088 2344 
L 2541 2259 
Q 2463 2594 2264 2762 
Q 2066 2931 1784 2931 
Q 1359 2931 1093 2626 
Q 828 2322 828 1663 
Q 828 994 1084 691 
Q 1341 388 1753 388 
Q 2084 388 2306 591 
Q 2528 794 2588 1216 
z
" transform="scale(0.015625)"/>
      <path id="ArialMT-61" d="M 2588 409 
Q 2275 144 1986 34 
Q 1697 -75 1366 -75 
Q 819 -75 525 192 
Q 231 459 231 875 
Q 231 1119 342 1320 
Q 453 1522 633 1644 
Q 813 1766 1038 1828 
Q 1203 1872 1538 1913 
Q 2219 1994 2541 2106 
Q 2544 2222 2544 2253 
Q 2544 2597 2384 2738 
Q 2169 2928 1744 2928 
Q 1347 2928 1158 2789 
Q 969 2650 878 2297 
L 328 2372 
Q 403 2725 575 2942 
Q 747 3159 1072 3276 
Q 1397 3394 1825 3394 
Q 2250 3394 2515 3294 
Q 2781 3194 2906 3042 
Q 3031 2891 3081 2659 
Q 3109 2516 3109 2141 
L 3109 1391 
Q 3109 606 3145 398 
Q 3181 191 3288 0 
L 2700 0 
Q 2613 175 2588 409 
z
M 2541 1666 
Q 2234 1541 1622 1453 
Q 1275 1403 1131 1340 
Q 988 1278 909 1158 
Q 831 1038 831 891 
Q 831 666 1001 516 
Q 1172 366 1500 366 
Q 1825 366 2078 508 
Q 2331 650 2450 897 
Q 2541 1088 2541 1459 
L 2541 1666 
z
" transform="scale(0.015625)"/>
      <path id="ArialMT-72" d="M 416 0 
L 416 3319 
L 922 3319 
L 922 2816 
Q 1116 3169 1280 3281 
Q 1444 3394 1641 3394 
Q 1925 3394 2219 3213 
L 2025 2691 
Q 1819 2813 1613 2813 
Q 1428 2813 1281 2702 
Q 1134 2591 1072 2394 
Q 978 2094 978 1738 
L 978 0 
L 416 0 
z
" transform="scale(0.015625)"/>
      <path id="ArialMT-65" d="M 2694 1069 
L 3275 997 
Q 3138 488 2766 206 
Q 2394 -75 1816 -75 
Q 1088 -75 661 373 
Q 234 822 234 1631 
Q 234 2469 665 2931 
Q 1097 3394 1784 3394 
Q 2450 3394 2872 2941 
Q 3294 2488 3294 1666 
Q 3294 1616 3291 1516 
L 816 1516 
Q 847 969 1125 678 
Q 1403 388 1819 388 
Q 2128 388 2347 550 
Q 2566 713 2694 1069 
z
M 847 1978 
L 2700 1978 
Q 2663 2397 2488 2606 
Q 2219 2931 1791 2931 
Q 1403 2931 1139 2672 
Q 875 2413 847 1978 
z
" transform="scale(0.015625)"/>
      <path id="ArialMT-6e" d="M 422 0 
L 422 3319 
L 928 3319 
L 928 2847 
Q 1294 3394 1984 3394 
Q 2284 3394 2536 3286 
Q 2788 3178 2913 3003 
Q 3038 2828 3088 2588 
Q 3119 2431 3119 2041 
L 3119 0 
L 2556 0 
L 2556 2019 
Q 2556 2363 2490 2533 
Q 2425 2703 2258 2804 
Q 2091 2906 1866 2906 
Q 1506 2906 1245 2678 
Q 984 2450 984 1813 
L 984 0 
L 422 0 
z
" transform="scale(0.015625)"/>
      <path id="ArialMT-64" d="M 2575 0 
L 2575 419 
Q 2259 -75 1647 -75 
Q 1250 -75 917 144 
Q 584 363 401 755 
Q 219 1147 219 1656 
Q 219 2153 384 2558 
Q 550 2963 881 3178 
Q 1213 3394 1622 3394 
Q 1922 3394 2156 3267 
Q 2391 3141 2538 2938 
L 2538 4581 
L 3097 4581 
L 3097 0 
L 2575 0 
z
M 797 1656 
Q 797 1019 1065 703 
Q 1334 388 1700 388 
Q 2069 388 2326 689 
Q 2584 991 2584 1609 
Q 2584 2291 2321 2609 
Q 2059 2928 1675 2928 
Q 1300 2928 1048 2622 
Q 797 2316 797 1656 
z
" transform="scale(0.015625)"/>
      <path id="ArialMT-2f" d="M 0 -78 
L 1328 4659 
L 1778 4659 
L 453 -78 
L 0 -78 
z
" transform="scale(0.015625)"/>
     </defs>
     <use xlink:href="#ArialMT-73"/>
     <use xlink:href="#ArialMT-74" x="50"/>
     <use xlink:href="#ArialMT-73" x="77.783203"/>
     <use xlink:href="#ArialMT-5f" x="127.783203"/>
     <use xlink:href="#ArialMT-6c" x="183.398438"/>
     <use xlink:href="#ArialMT-6f" x="205.615234"/>
     <use xlink:href="#ArialMT-63" x="261.230469"/>
     <use xlink:href="#ArialMT-61" x="311.230469"/>
     <use xlink:href="#ArialMT-6c" x="366.845703"/>
     <use xlink:href="#ArialMT-5f" x="389.0625"/>
     <use xlink:href="#ArialMT-74" x="444.677734"/>
     <use xlink:href="#ArialMT-72" x="472.460938"/>
     <use xlink:href="#ArialMT-65" x="505.761719"/>
     <use xlink:href="#ArialMT-6e" x="561.376953"/>
     <use xlink:href="#ArialMT-64" x="616.992188"/>
     <use xlink:href="#ArialMT-2f" x="672.607422"/>
    </g>
   </g>
  </g>
  <g id="axes_2">
   <g id="patch_7">
    <path d="M 108 768.96 
L 777.6 768.96 
L 777.6 466.56 
L 108 466.56 
z
" style="fill: #ffffff"/>
   </g>
   <g id="matplotlib.axis_3">
    <g id="xtick_8">
     <g id="line2d_16">
      <g>
       <use xlink:href="#mf885050bfc" x="128.272086" y="768.96" style="fill: #262626; stroke: #262626; stroke-width: 1.25"/>
      </g>
     </g>
     <g id="text_16">
      <!-- 2016 -->
      <g style="fill: #262626" transform="translate(116.038024 786.333594) scale(0.11 -0.11)">
       <use xlink:href="#ArialMT-32"/>
       <use xlink:href="#ArialMT-30" x="55.615234"/>
       <use xlink:href="#ArialMT-31" x="111.230469"/>
       <use xlink:href="#ArialMT-36" x="166.845703"/>
      </g>
     </g>
    </g>
    <g id="xtick_9">
     <g id="line2d_17">
      <g>
       <use xlink:href="#mf885050bfc" x="231.608905" y="768.96" style="fill: #262626; stroke: #262626; stroke-width: 1.25"/>
      </g>
     </g>
     <g id="text_17">
      <!-- 2017 -->
      <g style="fill: #262626" transform="translate(219.374843 786.333594) scale(0.11 -0.11)">
       <use xlink:href="#ArialMT-32"/>
       <use xlink:href="#ArialMT-30" x="55.615234"/>
       <use xlink:href="#ArialMT-31" x="111.230469"/>
       <use xlink:href="#ArialMT-37" x="166.845703"/>
      </g>
     </g>
    </g>
    <g id="xtick_10">
     <g id="line2d_18">
      <g>
       <use xlink:href="#mf885050bfc" x="334.663383" y="768.96" style="fill: #262626; stroke: #262626; stroke-width: 1.25"/>
      </g>
     </g>
     <g id="text_18">
      <!-- 2018 -->
      <g style="fill: #262626" transform="translate(322.429321 786.333594) scale(0.11 -0.11)">
       <use xlink:href="#ArialMT-32"/>
       <use xlink:href="#ArialMT-30" x="55.615234"/>
       <use xlink:href="#ArialMT-31" x="111.230469"/>
       <use xlink:href="#ArialMT-38" x="166.845703"/>
      </g>
     </g>
    </g>
    <g id="xtick_11">
     <g id="line2d_19">
      <g>
       <use xlink:href="#mf885050bfc" x="437.717861" y="768.96" style="fill: #262626; stroke: #262626; stroke-width: 1.25"/>
      </g>
     </g>
     <g id="text_19">
      <!-- 2019 -->
      <g style="fill: #262626" transform="translate(425.483799 786.333594) scale(0.11 -0.11)">
       <use xlink:href="#ArialMT-32"/>
       <use xlink:href="#ArialMT-30" x="55.615234"/>
       <use xlink:href="#ArialMT-31" x="111.230469"/>
       <use xlink:href="#ArialMT-39" x="166.845703"/>
      </g>
     </g>
    </g>
    <g id="xtick_12">
     <g id="line2d_20">
      <g>
       <use xlink:href="#mf885050bfc" x="540.772339" y="768.96" style="fill: #262626; stroke: #262626; stroke-width: 1.25"/>
      </g>
     </g>
     <g id="text_20">
      <!-- 2020 -->
      <g style="fill: #262626" transform="translate(528.538277 786.333594) scale(0.11 -0.11)">
       <use xlink:href="#ArialMT-32"/>
       <use xlink:href="#ArialMT-30" x="55.615234"/>
       <use xlink:href="#ArialMT-32" x="111.230469"/>
       <use xlink:href="#ArialMT-30" x="166.845703"/>
      </g>
     </g>
    </g>
    <g id="xtick_13">
     <g id="line2d_21">
      <g>
       <use xlink:href="#mf885050bfc" x="644.109158" y="768.96" style="fill: #262626; stroke: #262626; stroke-width: 1.25"/>
      </g>
     </g>
     <g id="text_21">
      <!-- 2021 -->
      <g style="fill: #262626" transform="translate(631.875096 786.333594) scale(0.11 -0.11)">
       <use xlink:href="#ArialMT-32"/>
       <use xlink:href="#ArialMT-30" x="55.615234"/>
       <use xlink:href="#ArialMT-32" x="111.230469"/>
       <use xlink:href="#ArialMT-31" x="166.845703"/>
      </g>
     </g>
    </g>
    <g id="xtick_14">
     <g id="line2d_22">
      <g>
       <use xlink:href="#mf885050bfc" x="747.163636" y="768.96" style="fill: #262626; stroke: #262626; stroke-width: 1.25"/>
      </g>
     </g>
     <g id="text_22">
      <!-- 2022 -->
      <g style="fill: #262626" transform="translate(734.929574 786.333594) scale(0.11 -0.11)">
       <use xlink:href="#ArialMT-32"/>
       <use xlink:href="#ArialMT-30" x="55.615234"/>
       <use xlink:href="#ArialMT-32" x="111.230469"/>
       <use xlink:href="#ArialMT-32" x="166.845703"/>
      </g>
     </g>
    </g>
   </g>
   <g id="matplotlib.axis_4">
    <g id="ytick_8">
     <g id="line2d_23">
      <g>
       <use xlink:href="#me729120e3c" x="108" y="749.258021" style="fill: #262626; stroke: #262626; stroke-width: 1.25"/>
      </g>
     </g>
     <g id="text_23">
      <!-- −2.0 -->
      <g style="fill: #262626" transform="translate(76.785313 753.194818) scale(0.11 -0.11)">
       <defs>
        <path id="ArialMT-2e" d="M 581 0 
L 581 641 
L 1222 641 
L 1222 0 
L 581 0 
z
" transform="scale(0.015625)"/>
       </defs>
       <use xlink:href="#ArialMT-2212"/>
       <use xlink:href="#ArialMT-32" x="58.398438"/>
       <use xlink:href="#ArialMT-2e" x="114.013672"/>
       <use xlink:href="#ArialMT-30" x="141.796875"/>
      </g>
     </g>
    </g>
    <g id="ytick_9">
     <g id="line2d_24">
      <g>
       <use xlink:href="#me729120e3c" x="108" y="713.17111" style="fill: #262626; stroke: #262626; stroke-width: 1.25"/>
      </g>
     </g>
     <g id="text_24">
      <!-- −1.5 -->
      <g style="fill: #262626" transform="translate(76.785313 717.107907) scale(0.11 -0.11)">
       <defs>
        <path id="ArialMT-35" d="M 266 1200 
L 856 1250 
Q 922 819 1161 601 
Q 1400 384 1738 384 
Q 2144 384 2425 690 
Q 2706 997 2706 1503 
Q 2706 1984 2436 2262 
Q 2166 2541 1728 2541 
Q 1456 2541 1237 2417 
Q 1019 2294 894 2097 
L 366 2166 
L 809 4519 
L 3088 4519 
L 3088 3981 
L 1259 3981 
L 1013 2750 
Q 1425 3038 1878 3038 
Q 2478 3038 2890 2622 
Q 3303 2206 3303 1553 
Q 3303 931 2941 478 
Q 2500 -78 1738 -78 
Q 1113 -78 717 272 
Q 322 622 266 1200 
z
" transform="scale(0.015625)"/>
       </defs>
       <use xlink:href="#ArialMT-2212"/>
       <use xlink:href="#ArialMT-31" x="58.398438"/>
       <use xlink:href="#ArialMT-2e" x="114.013672"/>
       <use xlink:href="#ArialMT-35" x="141.796875"/>
      </g>
     </g>
    </g>
    <g id="ytick_10">
     <g id="line2d_25">
      <g>
       <use xlink:href="#me729120e3c" x="108" y="677.084199" style="fill: #262626; stroke: #262626; stroke-width: 1.25"/>
      </g>
     </g>
     <g id="text_25">
      <!-- −1.0 -->
      <g style="fill: #262626" transform="translate(76.785313 681.020996) scale(0.11 -0.11)">
       <use xlink:href="#ArialMT-2212"/>
       <use xlink:href="#ArialMT-31" x="58.398438"/>
       <use xlink:href="#ArialMT-2e" x="114.013672"/>
       <use xlink:href="#ArialMT-30" x="141.796875"/>
      </g>
     </g>
    </g>
    <g id="ytick_11">
     <g id="line2d_26">
      <g>
       <use xlink:href="#me729120e3c" x="108" y="640.997288" style="fill: #262626; stroke: #262626; stroke-width: 1.25"/>
      </g>
     </g>
     <g id="text_26">
      <!-- −0.5 -->
      <g style="fill: #262626" transform="translate(76.785313 644.934085) scale(0.11 -0.11)">
       <use xlink:href="#ArialMT-2212"/>
       <use xlink:href="#ArialMT-30" x="58.398438"/>
       <use xlink:href="#ArialMT-2e" x="114.013672"/>
       <use xlink:href="#ArialMT-35" x="141.796875"/>
      </g>
     </g>
    </g>
    <g id="ytick_12">
     <g id="line2d_27">
      <g>
       <use xlink:href="#me729120e3c" x="108" y="604.910377" style="fill: #262626; stroke: #262626; stroke-width: 1.25"/>
      </g>
     </g>
     <g id="text_27">
      <!-- 0.0 -->
      <g style="fill: #262626" transform="translate(83.21 608.847174) scale(0.11 -0.11)">
       <use xlink:href="#ArialMT-30"/>
       <use xlink:href="#ArialMT-2e" x="55.615234"/>
       <use xlink:href="#ArialMT-30" x="83.398438"/>
      </g>
     </g>
    </g>
    <g id="ytick_13">
     <g id="line2d_28">
      <g>
       <use xlink:href="#me729120e3c" x="108" y="568.823466" style="fill: #262626; stroke: #262626; stroke-width: 1.25"/>
      </g>
     </g>
     <g id="text_28">
      <!-- 0.5 -->
      <g style="fill: #262626" transform="translate(83.21 572.760263) scale(0.11 -0.11)">
       <use xlink:href="#ArialMT-30"/>
       <use xlink:href="#ArialMT-2e" x="55.615234"/>
       <use xlink:href="#ArialMT-35" x="83.398438"/>
      </g>
     </g>
    </g>
    <g id="ytick_14">
     <g id="line2d_29">
      <g>
       <use xlink:href="#me729120e3c" x="108" y="532.736555" style="fill: #262626; stroke: #262626; stroke-width: 1.25"/>
      </g>
     </g>
     <g id="text_29">
      <!-- 1.0 -->
      <g style="fill: #262626" transform="translate(83.21 536.673352) scale(0.11 -0.11)">
       <use xlink:href="#ArialMT-31"/>
       <use xlink:href="#ArialMT-2e" x="55.615234"/>
       <use xlink:href="#ArialMT-30" x="83.398438"/>
      </g>
     </g>
    </g>
    <g id="ytick_15">
     <g id="line2d_30">
      <g>
       <use xlink:href="#me729120e3c" x="108" y="496.649644" style="fill: #262626; stroke: #262626; stroke-width: 1.25"/>
      </g>
     </g>
     <g id="text_30">
      <!-- 1.5 -->
      <g style="fill: #262626" transform="translate(83.21 500.586441) scale(0.11 -0.11)">
       <use xlink:href="#ArialMT-31"/>
       <use xlink:href="#ArialMT-2e" x="55.615234"/>
       <use xlink:href="#ArialMT-35" x="83.398438"/>
      </g>
     </g>
    </g>
   </g>
   <g id="PolyCollection_2">
    <defs>
     <path id="m0c46c309dd" d="M 138.436364 -383.694545 
L 138.436364 -108.785455 
L 140.412751 -128.647261 
L 142.389138 -137.635683 
L 144.365525 -143.893142 
L 146.341913 -149.193154 
L 148.3183 -153.895642 
L 150.294687 -158.101028 
L 152.271074 -161.878565 
L 154.247462 -165.289022 
L 156.223849 -168.382927 
L 158.200236 -171.201021 
L 160.176623 -173.776222 
L 162.153011 -176.135553 
L 164.129398 -178.301428 
L 166.105785 -180.29281 
L 168.082172 -182.12595 
L 170.05856 -183.814926 
L 172.034947 -185.37216 
L 174.011334 -186.808666 
L 175.987721 -188.134338 
L 177.964109 -189.358094 
L 179.940496 -190.488069 
L 181.916883 -191.531683 
L 183.89327 -192.495729 
L 185.869658 -193.386466 
L 187.846045 -194.209647 
L 189.822432 -194.970561 
L 191.798819 -195.674111 
L 193.775207 -196.324811 
L 195.751594 -196.92681 
L 197.727981 -197.483952 
L 199.704368 -197.99978 
L 201.680756 -198.477552 
L 203.657143 -198.920265 
L 205.63353 -199.330747 
L 207.609917 -199.711624 
L 209.586305 -200.064646 
L 211.562692 -200.384927 
L 213.539079 -200.637319 
L 215.515466 -201.039869 
L 217.491854 -201.252485 
L 219.468241 -201.487003 
L 221.444628 -201.719503 
L 223.421015 -201.931983 
L 225.397403 -202.129625 
L 227.37379 -202.321394 
L 229.350177 -202.558132 
L 231.326564 -202.58421 
L 233.302952 -202.793755 
L 235.279339 -202.943621 
L 237.255726 -203.072923 
L 239.232113 -203.206002 
L 241.208501 -203.318681 
L 243.184888 -203.425786 
L 245.161275 -203.531074 
L 247.137662 -203.627437 
L 249.11405 -203.721816 
L 251.090437 -203.804012 
L 253.066824 -203.883305 
L 255.043211 -203.96585 
L 257.019599 -204.036014 
L 258.995986 -204.09877 
L 260.972373 -204.168727 
L 262.94876 -204.227018 
L 264.925148 -204.281815 
L 266.901535 -204.34036 
L 268.877922 -204.389681 
L 270.854309 -204.439058 
L 272.830697 -204.484654 
L 274.807084 -204.529738 
L 276.783471 -204.573342 
L 278.759858 -204.611031 
L 280.736246 -204.646246 
L 282.712633 -204.68646 
L 284.68902 -204.719404 
L 286.665407 -204.75221 
L 288.641795 -204.779459 
L 290.618182 -204.815831 
L 292.594569 -204.841109 
L 294.570956 -204.86649 
L 296.547344 -204.884102 
L 298.523731 -204.927104 
L 300.500118 -204.93847 
L 302.476505 -204.957191 
L 304.452893 -204.971487 
L 306.42928 -205.023901 
L 308.405667 -204.992097 
L 310.382054 -205.076405 
L 312.358442 -205.019711 
L 314.334829 -205.121395 
L 316.311216 -205.052823 
L 318.287603 -205.160125 
L 320.263991 -205.135118 
L 322.240378 -205.138753 
L 324.216765 -205.155754 
L 326.193152 -205.17476 
L 328.16954 -205.179728 
L 330.145927 -205.184873 
L 332.122314 -205.220639 
L 334.098701 -205.252237 
L 336.075089 -205.456091 
L 338.051476 -204.947362 
L 340.027863 -205.23191 
L 342.00425 -205.281455 
L 343.980638 -205.282479 
L 345.957025 -205.29221 
L 347.933412 -205.312872 
L 349.909799 -205.303133 
L 351.886187 -205.288102 
L 353.862574 -205.181871 
L 355.838961 -205.88699 
L 357.815348 -204.977875 
L 359.791736 -205.293531 
L 361.768123 -205.348789 
L 363.74451 -205.357866 
L 365.720897 -205.364615 
L 367.697285 -205.375336 
L 369.673672 -205.377835 
L 371.650059 -205.229394 
L 373.626446 -204.175894 
L 375.602834 -206.582107 
L 377.579221 -205.408159 
L 379.555608 -205.521523 
L 381.531995 -205.352252 
L 383.508383 -205.262213 
L 385.48477 -205.588636 
L 387.461157 -205.334773 
L 389.437544 -204.967314 
L 391.413932 -205.312575 
L 393.390319 -205.443899 
L 395.366706 -205.394914 
L 397.343093 -205.413192 
L 399.319481 -205.450933 
L 401.295868 -205.511189 
L 403.272255 -205.460646 
L 405.248642 -205.453256 
L 407.22503 -205.59293 
L 409.201417 -205.063018 
L 411.177804 -205.655445 
L 413.154191 -205.458956 
L 415.130579 -205.523871 
L 417.106966 -205.489392 
L 419.083353 -205.475686 
L 421.05974 -205.451083 
L 423.036128 -205.323924 
L 425.012515 -205.439146 
L 426.988902 -205.552191 
L 428.965289 -205.14105 
L 430.941677 -205.913365 
L 432.918064 -205.647456 
L 434.894451 -205.415266 
L 436.870838 -205.56538 
L 438.847226 -205.762945 
L 440.823613 -210.207714 
L 442.8 -201.162339 
L 444.776387 -204.719864 
L 446.752774 -205.10192 
L 448.729162 -205.556751 
L 450.705549 -206.768061 
L 452.681936 -204.964298 
L 454.658323 -204.297109 
L 456.634711 -196.806378 
L 458.611098 -213.848443 
L 460.587485 -201.657621 
L 462.563872 -206.846093 
L 464.54026 -206.562018 
L 466.516647 -206.510163 
L 468.493034 -204.735678 
L 470.469421 -206.880022 
L 472.445809 -205.398919 
L 474.422196 -206.30559 
L 476.398583 -205.285103 
L 478.37497 -205.575606 
L 480.351358 -205.410366 
L 482.327745 -205.844595 
L 484.304132 -205.613901 
L 486.280519 -205.419912 
L 488.256907 -205.475062 
L 490.233294 -205.597516 
L 492.209681 -205.642668 
L 494.186068 -205.458672 
L 496.162456 -205.554875 
L 498.138843 -205.393421 
L 500.11523 -205.580712 
L 502.091617 -205.632808 
L 504.068005 -205.284583 
L 506.044392 -205.671246 
L 508.020779 -205.525695 
L 509.997166 -205.444446 
L 511.973554 -205.471423 
L 513.949941 -205.493147 
L 515.926328 -205.356652 
L 517.902715 -205.700292 
L 519.879103 -205.466712 
L 521.85549 -205.515199 
L 523.831877 -205.604282 
L 525.808264 -205.484036 
L 527.784652 -205.378958 
L 529.761039 -205.445177 
L 531.737426 -205.50863 
L 533.713813 -204.798077 
L 535.690201 -203.903644 
L 537.666588 -206.064525 
L 539.642975 -206.811041 
L 541.619362 -205.125361 
L 543.59575 -210.239062 
L 545.572137 -248.05395 
L 547.548524 -161.752623 
L 549.524911 -199.529146 
L 551.501299 -205.521854 
L 553.477686 -205.762343 
L 555.454073 -205.751979 
L 557.43046 -205.635751 
L 559.406848 -205.539294 
L 561.383235 -205.58809 
L 563.359622 -205.504147 
L 565.336009 -206.127479 
L 567.312397 -208.811892 
L 569.288784 -202.786915 
L 571.265171 -205.238639 
L 573.241558 -205.601779 
L 575.217946 -205.610292 
L 577.194333 -205.598083 
L 579.17072 -205.593794 
L 581.147107 -205.59225 
L 583.123495 -205.59105 
L 585.099882 -205.589789 
L 587.076269 -205.588809 
L 589.052656 -205.591149 
L 591.029044 -205.603869 
L 593.005431 -205.590177 
L 594.981818 -205.107293 
L 596.958205 -201.818765 
L 598.934593 -209.288047 
L 600.91098 -206.033758 
L 602.887367 -205.569506 
L 604.863754 -205.547953 
L 606.840142 -205.558016 
L 608.816529 -205.542245 
L 610.792916 -205.558639 
L 612.769303 -206.033538 
L 614.745691 -208.965043 
L 616.722078 -198.284303 
L 618.698465 -212.313212 
L 620.674852 -198.200902 
L 622.65124 -209.001467 
L 624.627627 -206.0327 
L 626.604014 -205.562124 
L 628.580401 -206.032239 
L 630.556789 -209.604868 
L 632.533176 -201.105309 
L 634.509563 -201.541444 
L 636.48595 -209.535943 
L 638.462338 -209.131509 
L 640.438725 -198.435824 
L 642.415112 -208.634357 
L 644.391499 -206.015535 
L 646.367887 -205.998805 
L 648.344274 -208.663162 
L 650.320661 -198.826169 
L 652.297048 -212.26596 
L 654.273436 -202.422975 
L 656.249823 -205.135139 
L 658.22621 -205.570474 
L 660.202597 -205.589824 
L 662.178985 -205.569979 
L 664.155372 -205.581706 
L 666.131759 -205.56862 
L 668.108146 -205.581818 
L 670.084534 -205.576527 
L 672.060921 -205.579224 
L 674.037308 -205.601426 
L 676.013695 -205.57284 
L 677.990083 -205.564421 
L 679.96647 -205.565673 
L 681.942857 -205.581112 
L 683.919244 -205.56834 
L 685.895632 -205.574354 
L 687.872019 -205.5831 
L 689.848406 -205.563961 
L 691.824793 -205.570999 
L 693.801181 -205.590985 
L 695.777568 -205.548074 
L 697.753955 -205.579981 
L 699.730342 -205.584803 
L 701.70673 -205.574186 
L 703.683117 -205.576187 
L 705.659504 -205.558071 
L 707.635891 -205.575623 
L 709.612279 -205.569351 
L 711.588666 -205.58384 
L 713.565053 -205.571863 
L 715.54144 -205.568775 
L 717.517828 -205.585311 
L 719.494215 -205.560906 
L 721.470602 -205.568719 
L 723.446989 -205.574724 
L 725.423377 -205.582498 
L 727.399764 -205.565122 
L 729.376151 -205.571919 
L 731.352538 -205.583048 
L 733.328926 -205.566168 
L 735.305313 -205.566 
L 737.2817 -205.576122 
L 739.258087 -205.574535 
L 741.234475 -205.569583 
L 743.210862 -205.571588 
L 745.187249 -205.550005 
L 747.163636 -205.020029 
L 747.163636 -313.157539 
L 747.163636 -313.157539 
L 745.187249 -312.604866 
L 743.210862 -312.607709 
L 741.234475 -312.602487 
L 739.258087 -312.606225 
L 737.2817 -312.606961 
L 735.305313 -312.596141 
L 733.328926 -312.59575 
L 731.352538 -312.612174 
L 729.376151 -312.600667 
L 727.399764 -312.59356 
L 725.423377 -312.61066 
L 723.446989 -312.602672 
L 721.470602 -312.596468 
L 719.494215 -312.588484 
L 717.517828 -312.612742 
L 715.54144 -312.596077 
L 713.565053 -312.599062 
L 711.588666 -312.610927 
L 709.612279 -312.596361 
L 707.635891 -312.602555 
L 705.659504 -312.584926 
L 703.683117 -312.602981 
L 701.70673 -312.600921 
L 699.730342 -312.611495 
L 697.753955 -312.606638 
L 695.777568 -312.574688 
L 693.801181 -312.617556 
L 691.824793 -312.597552 
L 689.848406 -312.590489 
L 687.872019 -312.609602 
L 685.895632 -312.600839 
L 683.919244 -312.594816 
L 681.942857 -312.60758 
L 679.96647 -312.592123 
L 677.990083 -312.590872 
L 676.013695 -312.59929 
L 674.037308 -312.627868 
L 672.060921 -312.605666 
L 670.084534 -312.60296 
L 668.108146 -312.608268 
L 666.131759 -312.59507 
L 664.155372 -312.608157 
L 662.178985 -312.596447 
L 660.202597 -312.616395 
L 658.22621 -312.597991 
L 656.249823 -312.163775 
L 654.273436 -309.464887 
L 652.297048 -319.361086 
L 650.320661 -305.923222 
L 648.344274 -315.702226 
L 646.367887 -313.030762 
L 644.391499 -313.046365 
L 642.415112 -315.679615 
L 640.438725 -305.523542 
L 638.462338 -316.171743 
L 636.48595 -316.5793 
L 634.509563 -308.578451 
L 632.533176 -308.144433 
L 630.556789 -316.653887 
L 628.580401 -313.065994 
L 626.604014 -312.595518 
L 624.627627 -313.063134 
L 622.65124 -316.048533 
L 620.674852 -305.291072 
L 618.698465 -319.460228 
L 616.722078 -305.373423 
L 614.745691 -316.012263 
L 612.769303 -313.062665 
L 610.792916 -312.586793 
L 608.816529 -312.569409 
L 606.840142 -312.585128 
L 604.863754 -312.575256 
L 602.887367 -312.598649 
L 600.91098 -313.06704 
L 598.934593 -316.327377 
L 596.958205 -308.859842 
L 594.981818 -312.140824 
L 593.005431 -312.619509 
L 591.029044 -312.63149 
L 589.052656 -312.618735 
L 587.076269 -312.616463 
L 585.099882 -312.617522 
L 583.123495 -312.618851 
L 581.147107 -312.620129 
L 579.17072 -312.621751 
L 577.194333 -312.626117 
L 575.217946 -312.638446 
L 573.241558 -312.630828 
L 571.265171 -312.269563 
L 569.288784 -309.825867 
L 567.312397 -315.846782 
L 565.336009 -313.161853 
L 563.359622 -312.53545 
L 561.383235 -312.617535 
L 559.406848 -312.569039 
L 557.43046 -312.665935 
L 555.454073 -312.782758 
L 553.477686 -312.813761 
L 551.501299 -312.823075 
L 549.524911 -307.372621 
L 547.548524 -270.486306 
L 545.572137 -356.788567 
L 543.59575 -318.113124 
L 541.619362 -312.465506 
L 539.642975 -313.864714 
L 537.666588 -313.096146 
L 535.690201 -310.93672 
L 533.713813 -311.832693 
L 531.737426 -312.541826 
L 529.761039 -312.476566 
L 527.784652 -312.410097 
L 525.808264 -312.515244 
L 523.831877 -312.63562 
L 521.85549 -312.546725 
L 519.879103 -312.498471 
L 517.902715 -312.732301 
L 515.926328 -312.388953 
L 513.949941 -312.525715 
L 511.973554 -312.50424 
L 509.997166 -312.477504 
L 508.020779 -312.558994 
L 506.044392 -312.704837 
L 504.068005 -312.318605 
L 502.091617 -312.666994 
L 500.11523 -312.615216 
L 498.138843 -312.428329 
L 496.162456 -312.590076 
L 494.186068 -312.494242 
L 492.209681 -312.67854 
L 490.233294 -312.6338 
L 488.256907 -312.511803 
L 486.280519 -312.457117 
L 484.304132 -312.651451 
L 482.327745 -312.882523 
L 480.351358 -312.449034 
L 478.37497 -312.614618 
L 476.398583 -312.325337 
L 474.422196 -313.345609 
L 472.445809 -312.442611 
L 470.469421 -313.921435 
L 468.493034 -311.784387 
L 466.516647 -313.553932 
L 464.54026 -313.607861 
L 462.563872 -313.88988 
L 460.587485 -308.745537 
L 458.611098 -321.019566 
L 456.634711 -303.91151 
L 454.658323 -311.386711 
L 452.681936 -312.019657 
L 450.705549 -313.819351 
L 448.729162 -312.607154 
L 446.752774 -312.155971 
L 444.776387 -311.782554 
L 442.8 -308.236145 
L 440.823613 -317.2777 
L 438.847226 -312.827536 
L 436.870838 -312.623433 
L 434.894451 -312.472793 
L 432.918064 -312.705534 
L 430.941677 -312.972407 
L 428.965289 -312.202217 
L 426.988902 -312.614226 
L 425.012515 -312.50267 
L 423.036128 -312.389022 
L 421.05974 -312.517576 
L 419.083353 -312.54371 
L 417.106966 -312.559033 
L 415.130579 -312.595199 
L 413.154191 -312.532142 
L 411.177804 -312.730395 
L 409.201417 -312.140566 
L 407.22503 -312.671898 
L 405.248642 -312.534349 
L 403.272255 -312.543899 
L 401.295868 -312.596653 
L 399.319481 -312.53884 
L 397.343093 -312.503638 
L 395.366706 -312.488164 
L 393.390319 -312.543336 
L 391.413932 -312.594567 
L 389.437544 -312.986031 
L 387.461157 -312.622615 
L 385.48477 -312.699714 
L 383.508383 -312.373402 
L 381.531995 -312.466512 
L 379.555608 -312.639061 
L 377.579221 -312.53006 
L 375.602834 -313.707304 
L 373.626446 -311.308283 
L 371.650059 -312.364166 
L 369.673672 -312.516229 
L 367.697285 -312.517989 
L 365.720897 -312.512001 
L 363.74451 -312.510232 
L 361.768123 -312.506404 
L 359.791736 -312.45667 
L 357.815348 -312.147174 
L 355.838961 -313.060892 
L 353.862574 -312.362768 
L 351.886187 -312.475228 
L 349.909799 -312.496978 
L 347.933412 -312.513713 
L 345.957025 -312.500416 
L 343.980638 -312.498394 
L 342.00425 -312.505475 
L 340.027863 -312.464516 
L 338.051476 -312.189199 
L 336.075089 -312.706248 
L 334.098701 -312.512203 
L 332.122314 -312.490775 
L 330.145927 -312.465695 
L 328.16954 -312.471666 
L 326.193152 -312.478338 
L 324.216765 -312.47155 
L 322.240378 -312.46736 
L 320.263991 -312.477155 
L 318.287603 -312.516238 
L 316.311216 -312.423941 
L 314.334829 -312.508017 
L 312.358442 -312.42287 
L 310.382054 -312.49672 
L 308.405667 -312.430669 
L 306.42928 -312.48153 
L 304.452893 -312.449309 
L 302.476505 -312.456231 
L 300.500118 -312.45987 
L 298.523731 -312.472105 
L 296.547344 -312.454054 
L 294.570956 -312.462752 
L 292.594569 -312.46517 
L 290.618182 -312.4693 
L 288.641795 -312.46403 
L 286.665407 -312.469717 
L 284.68902 -312.471799 
L 282.712633 -312.475817 
L 280.736246 -312.474811 
L 278.759858 -312.481195 
L 276.783471 -312.487669 
L 274.807084 -312.491007 
L 272.830697 -312.495834 
L 270.854309 -312.503324 
L 268.877922 -312.510456 
L 266.901535 -312.521361 
L 264.925148 -312.527018 
L 262.94876 -312.540699 
L 260.972373 -312.555514 
L 258.995986 -312.563679 
L 257.019599 -312.584432 
L 255.043211 -312.603601 
L 253.066824 -312.616704 
L 251.090437 -312.639874 
L 249.11405 -312.66754 
L 247.137662 -312.691007 
L 245.161275 -312.721154 
L 243.184888 -312.751797 
L 241.208501 -312.790811 
L 239.232113 -312.835331 
L 237.255726 -312.871488 
L 235.279339 -312.924587 
L 233.302952 -312.97131 
L 231.326564 -312.973349 
L 229.350177 -313.176054 
L 227.37379 -313.185927 
L 225.397403 -313.261176 
L 223.421015 -313.352199 
L 221.444628 -313.451891 
L 219.468241 -313.557142 
L 217.491854 -313.688388 
L 215.515466 -313.872716 
L 213.539079 -313.899607 
L 211.562692 -314.113841 
L 209.586305 -314.299016 
L 207.609917 -314.494598 
L 205.63353 -314.709456 
L 203.657143 -314.946056 
L 201.680756 -315.206316 
L 199.704368 -315.492448 
L 197.727981 -315.806904 
L 195.751594 -316.152333 
L 193.775207 -316.531657 
L 191.798819 -316.948007 
L 189.822432 -317.404791 
L 187.846045 -317.905699 
L 185.869658 -318.45472 
L 183.89327 -319.05619 
L 181.916883 -319.714767 
L 179.940496 -320.435523 
L 177.964109 -321.223953 
L 175.987721 -322.086023 
L 174.011334 -323.028232 
L 172.034947 -324.057715 
L 170.05856 -325.182316 
L 168.082172 -326.410782 
L 166.105785 -327.752948 
L 164.129398 -329.219976 
L 162.153011 -330.82478 
L 160.176623 -332.582518 
L 158.200236 -334.511246 
L 156.223849 -336.63295 
L 154.247462 -338.974746 
L 152.271074 -341.570613 
L 150.294687 -344.463354 
L 148.3183 -347.705528 
L 146.341913 -351.359093 
L 144.365525 -355.5137 
L 142.389138 -360.462884 
L 140.412751 -367.612401 
L 138.436364 -383.694545 
z
" style="stroke: #ffffff; stroke-opacity: 0.4"/>
    </defs>
    <g clip-path="url(#pe4854d2326)">
     <use xlink:href="#m0c46c309dd" x="0" y="864" style="fill: #4c72b0; fill-opacity: 0.4; stroke: #ffffff; stroke-opacity: 0.4"/>
    </g>
   </g>
   <g id="line2d_31">
    <path d="M 138.436364 617.759998 
L 140.412751 615.870166 
L 142.389138 614.950715 
L 146.341913 613.723879 
L 150.294687 612.717812 
L 156.223849 611.49206 
L 162.153011 610.519832 
L 170.05856 609.501379 
L 177.964109 608.708974 
L 187.846045 607.942329 
L 199.704368 607.253884 
L 211.562692 606.750615 
L 213.539079 606.731538 
L 215.515466 606.54371 
L 221.444628 606.414301 
L 241.208501 605.945253 
L 272.830697 605.509754 
L 306.42928 605.247285 
L 308.405667 605.288618 
L 310.382054 605.213438 
L 312.358442 605.278709 
L 314.334829 605.185295 
L 316.311216 605.261617 
L 318.287603 605.161818 
L 324.216765 605.186347 
L 334.098701 605.117779 
L 336.075089 604.918831 
L 338.051476 605.43172 
L 340.027863 605.151788 
L 345.957025 605.103686 
L 351.886187 605.118334 
L 353.862574 605.22768 
L 355.838961 604.52606 
L 357.815348 605.437477 
L 359.791736 605.124901 
L 365.720897 605.061694 
L 369.673672 605.052967 
L 371.650059 605.20322 
L 373.626446 606.257913 
L 375.602834 603.855293 
L 377.579221 605.03089 
L 379.555608 604.919706 
L 383.508383 605.182191 
L 385.48477 604.855825 
L 387.461157 605.021304 
L 405.248642 605.006199 
L 407.22503 604.867587 
L 409.201417 605.398207 
L 411.177804 604.80708 
L 413.154191 605.004452 
L 417.106966 604.975789 
L 421.05974 605.015671 
L 423.036128 605.143528 
L 426.988902 604.916789 
L 428.965289 605.328366 
L 430.941677 604.557116 
L 434.894451 605.05597 
L 438.847226 604.704758 
L 440.823613 600.257293 
L 442.8 609.300757 
L 444.776387 605.748793 
L 448.729162 604.918048 
L 450.705549 603.706294 
L 452.681936 605.508022 
L 454.658323 606.158089 
L 456.634711 613.641056 
L 458.611098 596.565997 
L 460.587485 608.79842 
L 462.563872 603.632012 
L 464.54026 603.915061 
L 466.516647 603.96795 
L 468.493034 605.73997 
L 470.469421 603.599273 
L 472.445809 605.079237 
L 474.422196 604.174399 
L 476.398583 605.194782 
L 478.37497 604.904888 
L 480.351358 605.070299 
L 482.327745 604.636443 
L 486.280519 605.061487 
L 492.209681 604.839397 
L 494.186068 605.023544 
L 496.162456 604.927526 
L 498.138843 605.089127 
L 500.11523 604.902036 
L 502.091617 604.850099 
L 504.068005 605.198407 
L 506.044392 604.81196 
L 509.997166 605.039023 
L 513.949941 604.990567 
L 515.926328 605.127196 
L 517.902715 604.783705 
L 519.879103 605.017407 
L 523.831877 604.880048 
L 527.784652 605.105473 
L 531.737426 604.97477 
L 533.713813 605.684614 
L 535.690201 606.579818 
L 537.666588 604.419665 
L 539.642975 603.662123 
L 541.619362 605.204567 
L 543.59575 599.823907 
L 545.572137 561.578739 
L 547.548524 647.880535 
L 549.524911 610.549116 
L 551.501299 604.827537 
L 553.477686 604.711946 
L 557.43046 604.849157 
L 559.406848 604.945834 
L 561.383235 604.897186 
L 563.359622 604.980201 
L 565.336009 604.355334 
L 567.312397 601.670662 
L 569.288784 607.693608 
L 571.265171 605.245901 
L 573.241558 604.883699 
L 593.005431 604.895156 
L 594.981818 605.37594 
L 596.958205 608.660696 
L 598.934593 601.19229 
L 600.91098 604.4496 
L 602.887367 604.915923 
L 610.792916 604.927283 
L 612.769303 604.451899 
L 614.745691 601.511348 
L 616.722078 612.171137 
L 618.698465 598.113281 
L 620.674852 612.254012 
L 622.65124 601.474998 
L 624.627627 604.452084 
L 626.604014 604.921178 
L 628.580401 604.450882 
L 630.556789 600.870623 
L 632.533176 609.375129 
L 634.509563 608.940055 
L 636.48595 600.942378 
L 638.462338 601.348372 
L 640.438725 612.020315 
L 642.415112 601.843012 
L 644.391499 604.469052 
L 646.367887 604.485216 
L 648.344274 601.817305 
L 650.320661 611.625303 
L 652.297048 598.186476 
L 654.273436 608.056068 
L 656.249823 605.350543 
L 658.22621 604.915769 
L 670.084534 604.910258 
L 743.210862 604.910351 
L 747.163636 604.911215 
L 747.163636 604.911215 
" clip-path="url(#pe4854d2326)" style="fill: none; stroke: #4c72b0; stroke-width: 1.5; stroke-linecap: round"/>
   </g>
   <g id="patch_8">
    <path d="M 108 768.96 
L 108 466.56 
" style="fill: none; stroke: #262626; stroke-width: 1.25; stroke-linejoin: miter; stroke-linecap: square"/>
   </g>
   <g id="patch_9">
    <path d="M 777.6 768.96 
L 777.6 466.56 
" style="fill: none; stroke: #262626; stroke-width: 1.25; stroke-linejoin: miter; stroke-linecap: square"/>
   </g>
   <g id="patch_10">
    <path d="M 108 768.96 
L 777.6 768.96 
" style="fill: none; stroke: #262626; stroke-width: 1.25; stroke-linejoin: miter; stroke-linecap: square"/>
   </g>
   <g id="patch_11">
    <path d="M 108 466.56 
L 777.6 466.56 
" style="fill: none; stroke: #262626; stroke-width: 1.25; stroke-linejoin: miter; stroke-linecap: square"/>
   </g>
   <g id="text_31">
    <!-- sts_residuals/ -->
    <g style="fill: #262626" transform="translate(406.119375 460.56) scale(0.12 -0.12)">
     <defs>
      <path id="ArialMT-69" d="M 425 3934 
L 425 4581 
L 988 4581 
L 988 3934 
L 425 3934 
z
M 425 0 
L 425 3319 
L 988 3319 
L 988 0 
L 425 0 
z
" transform="scale(0.015625)"/>
      <path id="ArialMT-75" d="M 2597 0 
L 2597 488 
Q 2209 -75 1544 -75 
Q 1250 -75 995 37 
Q 741 150 617 320 
Q 494 491 444 738 
Q 409 903 409 1263 
L 409 3319 
L 972 3319 
L 972 1478 
Q 972 1038 1006 884 
Q 1059 663 1231 536 
Q 1403 409 1656 409 
Q 1909 409 2131 539 
Q 2353 669 2445 892 
Q 2538 1116 2538 1541 
L 2538 3319 
L 3100 3319 
L 3100 0 
L 2597 0 
z
" transform="scale(0.015625)"/>
     </defs>
     <use xlink:href="#ArialMT-73"/>
     <use xlink:href="#ArialMT-74" x="50"/>
     <use xlink:href="#ArialMT-73" x="77.783203"/>
     <use xlink:href="#ArialMT-5f" x="127.783203"/>
     <use xlink:href="#ArialMT-72" x="183.398438"/>
     <use xlink:href="#ArialMT-65" x="216.699219"/>
     <use xlink:href="#ArialMT-73" x="272.314453"/>
     <use xlink:href="#ArialMT-69" x="322.314453"/>
     <use xlink:href="#ArialMT-64" x="344.53125"/>
     <use xlink:href="#ArialMT-75" x="400.146484"/>
     <use xlink:href="#ArialMT-61" x="455.761719"/>
     <use xlink:href="#ArialMT-6c" x="511.376953"/>
     <use xlink:href="#ArialMT-73" x="533.59375"/>
     <use xlink:href="#ArialMT-2f" x="583.59375"/>
    </g>
   </g>
  </g>
 </g>
 <defs>
  <clipPath id="p44761aeca8">
   <rect x="108" y="103.68" width="669.6" height="302.4"/>
  </clipPath>
  <clipPath id="pe4854d2326">
   <rect x="108" y="466.56" width="669.6" height="302.4"/>
  </clipPath>
 </defs>
</svg>
