<?xml version="1.0" encoding="utf-8" standalone="no"?>
<!DOCTYPE svg PUBLIC "-//W3C//DTD SVG 1.1//EN"
  "http://www.w3.org/Graphics/SVG/1.1/DTD/svg11.dtd">
<svg xmlns:xlink="http://www.w3.org/1999/xlink" width="864pt" height="360pt" viewBox="0 0 864 360" xmlns="http://www.w3.org/2000/svg" version="1.1">
 <metadata>
  <rdf:RDF xmlns:dc="http://purl.org/dc/elements/1.1/" xmlns:cc="http://creativecommons.org/ns#" xmlns:rdf="http://www.w3.org/1999/02/22-rdf-syntax-ns#">
   <cc:Work>
    <dc:type rdf:resource="http://purl.org/dc/dcmitype/StillImage"/>
    <dc:date>2023-08-01T03:17:35.141053</dc:date>
    <dc:format>image/svg+xml</dc:format>
    <dc:creator>
     <cc:Agent>
      <dc:title>Matplotlib v3.7.1, https://matplotlib.org/</dc:title>
     </cc:Agent>
    </dc:creator>
   </cc:Work>
  </rdf:RDF>
 </metadata>
 <defs>
  <style type="text/css">*{stroke-linejoin: round; stroke-linecap: butt}</style>
 </defs>
 <g id="figure_1">
  <g id="patch_1">
   <path d="M 0 360 
L 864 360 
L 864 0 
L 0 0 
z
" style="fill: #ffffff"/>
  </g>
  <g id="axes_1">
   <g id="patch_2">
    <path d="M 108 320.4 
L 777.6 320.4 
L 777.6 43.2 
L 108 43.2 
z
" style="fill: #ffffff"/>
   </g>
   <g id="matplotlib.axis_1">
    <g id="xtick_1">
     <g id="line2d_1">
      <defs>
       <path id="m31662fb9ef" d="M 0 0 
L 0 6 
" style="stroke: #262626; stroke-width: 1.25"/>
      </defs>
      <g>
       <use xlink:href="#m31662fb9ef" x="128.673114" y="320.4" style="fill: #262626; stroke: #262626; stroke-width: 1.25"/>
      </g>
     </g>
     <g id="text_1">
      <!-- 2016 -->
      <g style="fill: #262626" transform="translate(116.439051 337.773594) scale(0.11 -0.11)">
       <defs>
        <path id="ArialMT-32" d="M 3222 541 
L 3222 0 
L 194 0 
Q 188 203 259 391 
Q 375 700 629 1000 
Q 884 1300 1366 1694 
Q 2113 2306 2375 2664 
Q 2638 3022 2638 3341 
Q 2638 3675 2398 3904 
Q 2159 4134 1775 4134 
Q 1369 4134 1125 3890 
Q 881 3647 878 3216 
L 300 3275 
Q 359 3922 746 4261 
Q 1134 4600 1788 4600 
Q 2447 4600 2831 4234 
Q 3216 3869 3216 3328 
Q 3216 3053 3103 2787 
Q 2991 2522 2730 2228 
Q 2469 1934 1863 1422 
Q 1356 997 1212 845 
Q 1069 694 975 541 
L 3222 541 
z
" transform="scale(0.015625)"/>
        <path id="ArialMT-30" d="M 266 2259 
Q 266 3072 433 3567 
Q 600 4063 929 4331 
Q 1259 4600 1759 4600 
Q 2128 4600 2406 4451 
Q 2684 4303 2865 4023 
Q 3047 3744 3150 3342 
Q 3253 2941 3253 2259 
Q 3253 1453 3087 958 
Q 2922 463 2592 192 
Q 2263 -78 1759 -78 
Q 1097 -78 719 397 
Q 266 969 266 2259 
z
M 844 2259 
Q 844 1131 1108 757 
Q 1372 384 1759 384 
Q 2147 384 2411 759 
Q 2675 1134 2675 2259 
Q 2675 3391 2411 3762 
Q 2147 4134 1753 4134 
Q 1366 4134 1134 3806 
Q 844 3388 844 2259 
z
" transform="scale(0.015625)"/>
        <path id="ArialMT-31" d="M 2384 0 
L 1822 0 
L 1822 3584 
Q 1619 3391 1289 3197 
Q 959 3003 697 2906 
L 697 3450 
Q 1169 3672 1522 3987 
Q 1875 4303 2022 4600 
L 2384 4600 
L 2384 0 
z
" transform="scale(0.015625)"/>
        <path id="ArialMT-36" d="M 3184 3459 
L 2625 3416 
Q 2550 3747 2413 3897 
Q 2184 4138 1850 4138 
Q 1581 4138 1378 3988 
Q 1113 3794 959 3422 
Q 806 3050 800 2363 
Q 1003 2672 1297 2822 
Q 1591 2972 1913 2972 
Q 2475 2972 2870 2558 
Q 3266 2144 3266 1488 
Q 3266 1056 3080 686 
Q 2894 316 2569 119 
Q 2244 -78 1831 -78 
Q 1128 -78 684 439 
Q 241 956 241 2144 
Q 241 3472 731 4075 
Q 1159 4600 1884 4600 
Q 2425 4600 2770 4297 
Q 3116 3994 3184 3459 
z
M 888 1484 
Q 888 1194 1011 928 
Q 1134 663 1356 523 
Q 1578 384 1822 384 
Q 2178 384 2434 671 
Q 2691 959 2691 1453 
Q 2691 1928 2437 2201 
Q 2184 2475 1800 2475 
Q 1419 2475 1153 2201 
Q 888 1928 888 1484 
z
" transform="scale(0.015625)"/>
       </defs>
       <use xlink:href="#ArialMT-32"/>
       <use xlink:href="#ArialMT-30" x="55.615234"/>
       <use xlink:href="#ArialMT-31" x="111.230469"/>
       <use xlink:href="#ArialMT-36" x="166.845703"/>
      </g>
     </g>
    </g>
    <g id="xtick_2">
     <g id="line2d_2">
      <g>
       <use xlink:href="#m31662fb9ef" x="211.774263" y="320.4" style="fill: #262626; stroke: #262626; stroke-width: 1.25"/>
      </g>
     </g>
     <g id="text_2">
      <!-- 2017 -->
      <g style="fill: #262626" transform="translate(199.540201 337.773594) scale(0.11 -0.11)">
       <defs>
        <path id="ArialMT-37" d="M 303 3981 
L 303 4522 
L 3269 4522 
L 3269 4084 
Q 2831 3619 2401 2847 
Q 1972 2075 1738 1259 
Q 1569 684 1522 0 
L 944 0 
Q 953 541 1156 1306 
Q 1359 2072 1739 2783 
Q 2119 3494 2547 3981 
L 303 3981 
z
" transform="scale(0.015625)"/>
       </defs>
       <use xlink:href="#ArialMT-32"/>
       <use xlink:href="#ArialMT-30" x="55.615234"/>
       <use xlink:href="#ArialMT-31" x="111.230469"/>
       <use xlink:href="#ArialMT-37" x="166.845703"/>
      </g>
     </g>
    </g>
    <g id="xtick_3">
     <g id="line2d_3">
      <g>
       <use xlink:href="#m31662fb9ef" x="294.648361" y="320.4" style="fill: #262626; stroke: #262626; stroke-width: 1.25"/>
      </g>
     </g>
     <g id="text_3">
      <!-- 2018 -->
      <g style="fill: #262626" transform="translate(282.414298 337.773594) scale(0.11 -0.11)">
       <defs>
        <path id="ArialMT-38" d="M 1131 2484 
Q 781 2613 612 2850 
Q 444 3088 444 3419 
Q 444 3919 803 4259 
Q 1163 4600 1759 4600 
Q 2359 4600 2725 4251 
Q 3091 3903 3091 3403 
Q 3091 3084 2923 2848 
Q 2756 2613 2416 2484 
Q 2838 2347 3058 2040 
Q 3278 1734 3278 1309 
Q 3278 722 2862 322 
Q 2447 -78 1769 -78 
Q 1091 -78 675 323 
Q 259 725 259 1325 
Q 259 1772 486 2073 
Q 713 2375 1131 2484 
z
M 1019 3438 
Q 1019 3113 1228 2906 
Q 1438 2700 1772 2700 
Q 2097 2700 2305 2904 
Q 2513 3109 2513 3406 
Q 2513 3716 2298 3927 
Q 2084 4138 1766 4138 
Q 1444 4138 1231 3931 
Q 1019 3725 1019 3438 
z
M 838 1322 
Q 838 1081 952 856 
Q 1066 631 1291 507 
Q 1516 384 1775 384 
Q 2178 384 2440 643 
Q 2703 903 2703 1303 
Q 2703 1709 2433 1975 
Q 2163 2241 1756 2241 
Q 1359 2241 1098 1978 
Q 838 1716 838 1322 
z
" transform="scale(0.015625)"/>
       </defs>
       <use xlink:href="#ArialMT-32"/>
       <use xlink:href="#ArialMT-30" x="55.615234"/>
       <use xlink:href="#ArialMT-31" x="111.230469"/>
       <use xlink:href="#ArialMT-38" x="166.845703"/>
      </g>
     </g>
    </g>
    <g id="xtick_4">
     <g id="line2d_4">
      <g>
       <use xlink:href="#m31662fb9ef" x="377.522458" y="320.4" style="fill: #262626; stroke: #262626; stroke-width: 1.25"/>
      </g>
     </g>
     <g id="text_4">
      <!-- 2019 -->
      <g style="fill: #262626" transform="translate(365.288395 337.773594) scale(0.11 -0.11)">
       <defs>
        <path id="ArialMT-39" d="M 350 1059 
L 891 1109 
Q 959 728 1153 556 
Q 1347 384 1650 384 
Q 1909 384 2104 503 
Q 2300 622 2425 820 
Q 2550 1019 2634 1356 
Q 2719 1694 2719 2044 
Q 2719 2081 2716 2156 
Q 2547 1888 2255 1720 
Q 1963 1553 1622 1553 
Q 1053 1553 659 1965 
Q 266 2378 266 3053 
Q 266 3750 677 4175 
Q 1088 4600 1706 4600 
Q 2153 4600 2523 4359 
Q 2894 4119 3086 3673 
Q 3278 3228 3278 2384 
Q 3278 1506 3087 986 
Q 2897 466 2520 194 
Q 2144 -78 1638 -78 
Q 1100 -78 759 220 
Q 419 519 350 1059 
z
M 2653 3081 
Q 2653 3566 2395 3850 
Q 2138 4134 1775 4134 
Q 1400 4134 1122 3828 
Q 844 3522 844 3034 
Q 844 2597 1108 2323 
Q 1372 2050 1759 2050 
Q 2150 2050 2401 2323 
Q 2653 2597 2653 3081 
z
" transform="scale(0.015625)"/>
       </defs>
       <use xlink:href="#ArialMT-32"/>
       <use xlink:href="#ArialMT-30" x="55.615234"/>
       <use xlink:href="#ArialMT-31" x="111.230469"/>
       <use xlink:href="#ArialMT-39" x="166.845703"/>
      </g>
     </g>
    </g>
    <g id="xtick_5">
     <g id="line2d_5">
      <g>
       <use xlink:href="#m31662fb9ef" x="460.396555" y="320.4" style="fill: #262626; stroke: #262626; stroke-width: 1.25"/>
      </g>
     </g>
     <g id="text_5">
      <!-- 2020 -->
      <g style="fill: #262626" transform="translate(448.162492 337.773594) scale(0.11 -0.11)">
       <use xlink:href="#ArialMT-32"/>
       <use xlink:href="#ArialMT-30" x="55.615234"/>
       <use xlink:href="#ArialMT-32" x="111.230469"/>
       <use xlink:href="#ArialMT-30" x="166.845703"/>
      </g>
     </g>
    </g>
    <g id="xtick_6">
     <g id="line2d_6">
      <g>
       <use xlink:href="#m31662fb9ef" x="543.497704" y="320.4" style="fill: #262626; stroke: #262626; stroke-width: 1.25"/>
      </g>
     </g>
     <g id="text_6">
      <!-- 2021 -->
      <g style="fill: #262626" transform="translate(531.263642 337.773594) scale(0.11 -0.11)">
       <use xlink:href="#ArialMT-32"/>
       <use xlink:href="#ArialMT-30" x="55.615234"/>
       <use xlink:href="#ArialMT-32" x="111.230469"/>
       <use xlink:href="#ArialMT-31" x="166.845703"/>
      </g>
     </g>
    </g>
    <g id="xtick_7">
     <g id="line2d_7">
      <g>
       <use xlink:href="#m31662fb9ef" x="626.371802" y="320.4" style="fill: #262626; stroke: #262626; stroke-width: 1.25"/>
      </g>
     </g>
     <g id="text_7">
      <!-- 2022 -->
      <g style="fill: #262626" transform="translate(614.137739 337.773594) scale(0.11 -0.11)">
       <use xlink:href="#ArialMT-32"/>
       <use xlink:href="#ArialMT-30" x="55.615234"/>
       <use xlink:href="#ArialMT-32" x="111.230469"/>
       <use xlink:href="#ArialMT-32" x="166.845703"/>
      </g>
     </g>
    </g>
    <g id="xtick_8">
     <g id="line2d_8">
      <g>
       <use xlink:href="#m31662fb9ef" x="709.245899" y="320.4" style="fill: #262626; stroke: #262626; stroke-width: 1.25"/>
      </g>
     </g>
     <g id="text_8">
      <!-- 2023 -->
      <g style="fill: #262626" transform="translate(697.011836 337.773594) scale(0.11 -0.11)">
       <defs>
        <path id="ArialMT-33" d="M 269 1209 
L 831 1284 
Q 928 806 1161 595 
Q 1394 384 1728 384 
Q 2125 384 2398 659 
Q 2672 934 2672 1341 
Q 2672 1728 2419 1979 
Q 2166 2231 1775 2231 
Q 1616 2231 1378 2169 
L 1441 2663 
Q 1497 2656 1531 2656 
Q 1891 2656 2178 2843 
Q 2466 3031 2466 3422 
Q 2466 3731 2256 3934 
Q 2047 4138 1716 4138 
Q 1388 4138 1169 3931 
Q 950 3725 888 3313 
L 325 3413 
Q 428 3978 793 4289 
Q 1159 4600 1703 4600 
Q 2078 4600 2393 4439 
Q 2709 4278 2876 4000 
Q 3044 3722 3044 3409 
Q 3044 3113 2884 2869 
Q 2725 2625 2413 2481 
Q 2819 2388 3044 2092 
Q 3269 1797 3269 1353 
Q 3269 753 2831 336 
Q 2394 -81 1725 -81 
Q 1122 -81 723 278 
Q 325 638 269 1209 
z
" transform="scale(0.015625)"/>
       </defs>
       <use xlink:href="#ArialMT-32"/>
       <use xlink:href="#ArialMT-30" x="55.615234"/>
       <use xlink:href="#ArialMT-32" x="111.230469"/>
       <use xlink:href="#ArialMT-33" x="166.845703"/>
      </g>
     </g>
    </g>
    <g id="text_9">
     <!-- Date -->
     <g style="fill: #262626" transform="translate(430.126875 352.549219) scale(0.12 -0.12)">
      <defs>
       <path id="ArialMT-44" d="M 494 0 
L 494 4581 
L 2072 4581 
Q 2606 4581 2888 4516 
Q 3281 4425 3559 4188 
Q 3922 3881 4101 3404 
Q 4281 2928 4281 2316 
Q 4281 1794 4159 1391 
Q 4038 988 3847 723 
Q 3656 459 3429 307 
Q 3203 156 2883 78 
Q 2563 0 2147 0 
L 494 0 
z
M 1100 541 
L 2078 541 
Q 2531 541 2789 625 
Q 3047 709 3200 863 
Q 3416 1078 3536 1442 
Q 3656 1806 3656 2325 
Q 3656 3044 3420 3430 
Q 3184 3816 2847 3947 
Q 2603 4041 2063 4041 
L 1100 4041 
L 1100 541 
z
" transform="scale(0.015625)"/>
       <path id="ArialMT-61" d="M 2588 409 
Q 2275 144 1986 34 
Q 1697 -75 1366 -75 
Q 819 -75 525 192 
Q 231 459 231 875 
Q 231 1119 342 1320 
Q 453 1522 633 1644 
Q 813 1766 1038 1828 
Q 1203 1872 1538 1913 
Q 2219 1994 2541 2106 
Q 2544 2222 2544 2253 
Q 2544 2597 2384 2738 
Q 2169 2928 1744 2928 
Q 1347 2928 1158 2789 
Q 969 2650 878 2297 
L 328 2372 
Q 403 2725 575 2942 
Q 747 3159 1072 3276 
Q 1397 3394 1825 3394 
Q 2250 3394 2515 3294 
Q 2781 3194 2906 3042 
Q 3031 2891 3081 2659 
Q 3109 2516 3109 2141 
L 3109 1391 
Q 3109 606 3145 398 
Q 3181 191 3288 0 
L 2700 0 
Q 2613 175 2588 409 
z
M 2541 1666 
Q 2234 1541 1622 1453 
Q 1275 1403 1131 1340 
Q 988 1278 909 1158 
Q 831 1038 831 891 
Q 831 666 1001 516 
Q 1172 366 1500 366 
Q 1825 366 2078 508 
Q 2331 650 2450 897 
Q 2541 1088 2541 1459 
L 2541 1666 
z
" transform="scale(0.015625)"/>
       <path id="ArialMT-74" d="M 1650 503 
L 1731 6 
Q 1494 -44 1306 -44 
Q 1000 -44 831 53 
Q 663 150 594 308 
Q 525 466 525 972 
L 525 2881 
L 113 2881 
L 113 3319 
L 525 3319 
L 525 4141 
L 1084 4478 
L 1084 3319 
L 1650 3319 
L 1650 2881 
L 1084 2881 
L 1084 941 
Q 1084 700 1114 631 
Q 1144 563 1211 522 
Q 1278 481 1403 481 
Q 1497 481 1650 503 
z
" transform="scale(0.015625)"/>
       <path id="ArialMT-65" d="M 2694 1069 
L 3275 997 
Q 3138 488 2766 206 
Q 2394 -75 1816 -75 
Q 1088 -75 661 373 
Q 234 822 234 1631 
Q 234 2469 665 2931 
Q 1097 3394 1784 3394 
Q 2450 3394 2872 2941 
Q 3294 2488 3294 1666 
Q 3294 1616 3291 1516 
L 816 1516 
Q 847 969 1125 678 
Q 1403 388 1819 388 
Q 2128 388 2347 550 
Q 2566 713 2694 1069 
z
M 847 1978 
L 2700 1978 
Q 2663 2397 2488 2606 
Q 2219 2931 1791 2931 
Q 1403 2931 1139 2672 
Q 875 2413 847 1978 
z
" transform="scale(0.015625)"/>
      </defs>
      <use xlink:href="#ArialMT-44"/>
      <use xlink:href="#ArialMT-61" x="72.216797"/>
      <use xlink:href="#ArialMT-74" x="127.832031"/>
      <use xlink:href="#ArialMT-65" x="155.615234"/>
     </g>
    </g>
   </g>
   <g id="matplotlib.axis_2">
    <g id="ytick_1">
     <g id="line2d_9">
      <defs>
       <path id="mf15ccc4246" d="M 0 0 
L -6 0 
" style="stroke: #262626; stroke-width: 1.25"/>
      </defs>
      <g>
       <use xlink:href="#mf15ccc4246" x="108" y="313.208966" style="fill: #262626; stroke: #262626; stroke-width: 1.25"/>
      </g>
     </g>
     <g id="text_10">
      <!-- 0 -->
      <g style="fill: #262626" transform="translate(92.382969 317.145762) scale(0.11 -0.11)">
       <use xlink:href="#ArialMT-30"/>
      </g>
     </g>
    </g>
    <g id="ytick_2">
     <g id="line2d_10">
      <g>
       <use xlink:href="#mf15ccc4246" x="108" y="277.253793" style="fill: #262626; stroke: #262626; stroke-width: 1.25"/>
      </g>
     </g>
     <g id="text_11">
      <!-- 250 -->
      <g style="fill: #262626" transform="translate(80.148906 281.19059) scale(0.11 -0.11)">
       <defs>
        <path id="ArialMT-35" d="M 266 1200 
L 856 1250 
Q 922 819 1161 601 
Q 1400 384 1738 384 
Q 2144 384 2425 690 
Q 2706 997 2706 1503 
Q 2706 1984 2436 2262 
Q 2166 2541 1728 2541 
Q 1456 2541 1237 2417 
Q 1019 2294 894 2097 
L 366 2166 
L 809 4519 
L 3088 4519 
L 3088 3981 
L 1259 3981 
L 1013 2750 
Q 1425 3038 1878 3038 
Q 2478 3038 2890 2622 
Q 3303 2206 3303 1553 
Q 3303 931 2941 478 
Q 2500 -78 1738 -78 
Q 1113 -78 717 272 
Q 322 622 266 1200 
z
" transform="scale(0.015625)"/>
       </defs>
       <use xlink:href="#ArialMT-32"/>
       <use xlink:href="#ArialMT-35" x="55.615234"/>
       <use xlink:href="#ArialMT-30" x="111.230469"/>
      </g>
     </g>
    </g>
    <g id="ytick_3">
     <g id="line2d_11">
      <g>
       <use xlink:href="#mf15ccc4246" x="108" y="241.298621" style="fill: #262626; stroke: #262626; stroke-width: 1.25"/>
      </g>
     </g>
     <g id="text_12">
      <!-- 500 -->
      <g style="fill: #262626" transform="translate(80.148906 245.235418) scale(0.11 -0.11)">
       <use xlink:href="#ArialMT-35"/>
       <use xlink:href="#ArialMT-30" x="55.615234"/>
       <use xlink:href="#ArialMT-30" x="111.230469"/>
      </g>
     </g>
    </g>
    <g id="ytick_4">
     <g id="line2d_12">
      <g>
       <use xlink:href="#mf15ccc4246" x="108" y="205.343449" style="fill: #262626; stroke: #262626; stroke-width: 1.25"/>
      </g>
     </g>
     <g id="text_13">
      <!-- 750 -->
      <g style="fill: #262626" transform="translate(80.148906 209.280245) scale(0.11 -0.11)">
       <use xlink:href="#ArialMT-37"/>
       <use xlink:href="#ArialMT-35" x="55.615234"/>
       <use xlink:href="#ArialMT-30" x="111.230469"/>
      </g>
     </g>
    </g>
    <g id="ytick_5">
     <g id="line2d_13">
      <g>
       <use xlink:href="#mf15ccc4246" x="108" y="169.388276" style="fill: #262626; stroke: #262626; stroke-width: 1.25"/>
      </g>
     </g>
     <g id="text_14">
      <!-- 1000 -->
      <g style="fill: #262626" transform="translate(74.031875 173.325073) scale(0.11 -0.11)">
       <use xlink:href="#ArialMT-31"/>
       <use xlink:href="#ArialMT-30" x="55.615234"/>
       <use xlink:href="#ArialMT-30" x="111.230469"/>
       <use xlink:href="#ArialMT-30" x="166.845703"/>
      </g>
     </g>
    </g>
    <g id="ytick_6">
     <g id="line2d_14">
      <g>
       <use xlink:href="#mf15ccc4246" x="108" y="133.433104" style="fill: #262626; stroke: #262626; stroke-width: 1.25"/>
      </g>
     </g>
     <g id="text_15">
      <!-- 1250 -->
      <g style="fill: #262626" transform="translate(74.031875 137.369901) scale(0.11 -0.11)">
       <use xlink:href="#ArialMT-31"/>
       <use xlink:href="#ArialMT-32" x="55.615234"/>
       <use xlink:href="#ArialMT-35" x="111.230469"/>
       <use xlink:href="#ArialMT-30" x="166.845703"/>
      </g>
     </g>
    </g>
    <g id="ytick_7">
     <g id="line2d_15">
      <g>
       <use xlink:href="#mf15ccc4246" x="108" y="97.477932" style="fill: #262626; stroke: #262626; stroke-width: 1.25"/>
      </g>
     </g>
     <g id="text_16">
      <!-- 1500 -->
      <g style="fill: #262626" transform="translate(74.031875 101.414729) scale(0.11 -0.11)">
       <use xlink:href="#ArialMT-31"/>
       <use xlink:href="#ArialMT-35" x="55.615234"/>
       <use xlink:href="#ArialMT-30" x="111.230469"/>
       <use xlink:href="#ArialMT-30" x="166.845703"/>
      </g>
     </g>
    </g>
    <g id="ytick_8">
     <g id="line2d_16">
      <g>
       <use xlink:href="#mf15ccc4246" x="108" y="61.522759" style="fill: #262626; stroke: #262626; stroke-width: 1.25"/>
      </g>
     </g>
     <g id="text_17">
      <!-- 1750 -->
      <g style="fill: #262626" transform="translate(74.031875 65.459556) scale(0.11 -0.11)">
       <use xlink:href="#ArialMT-31"/>
       <use xlink:href="#ArialMT-37" x="55.615234"/>
       <use xlink:href="#ArialMT-35" x="111.230469"/>
       <use xlink:href="#ArialMT-30" x="166.845703"/>
      </g>
     </g>
    </g>
    <g id="text_18">
     <!-- Number of Cases -->
     <g style="fill: #262626" transform="translate(67.646875 228.481875) rotate(-90) scale(0.12 -0.12)">
      <defs>
       <path id="ArialMT-4e" d="M 488 0 
L 488 4581 
L 1109 4581 
L 3516 984 
L 3516 4581 
L 4097 4581 
L 4097 0 
L 3475 0 
L 1069 3600 
L 1069 0 
L 488 0 
z
" transform="scale(0.015625)"/>
       <path id="ArialMT-75" d="M 2597 0 
L 2597 488 
Q 2209 -75 1544 -75 
Q 1250 -75 995 37 
Q 741 150 617 320 
Q 494 491 444 738 
Q 409 903 409 1263 
L 409 3319 
L 972 3319 
L 972 1478 
Q 972 1038 1006 884 
Q 1059 663 1231 536 
Q 1403 409 1656 409 
Q 1909 409 2131 539 
Q 2353 669 2445 892 
Q 2538 1116 2538 1541 
L 2538 3319 
L 3100 3319 
L 3100 0 
L 2597 0 
z
" transform="scale(0.015625)"/>
       <path id="ArialMT-6d" d="M 422 0 
L 422 3319 
L 925 3319 
L 925 2853 
Q 1081 3097 1340 3245 
Q 1600 3394 1931 3394 
Q 2300 3394 2536 3241 
Q 2772 3088 2869 2813 
Q 3263 3394 3894 3394 
Q 4388 3394 4653 3120 
Q 4919 2847 4919 2278 
L 4919 0 
L 4359 0 
L 4359 2091 
Q 4359 2428 4304 2576 
Q 4250 2725 4106 2815 
Q 3963 2906 3769 2906 
Q 3419 2906 3187 2673 
Q 2956 2441 2956 1928 
L 2956 0 
L 2394 0 
L 2394 2156 
Q 2394 2531 2256 2718 
Q 2119 2906 1806 2906 
Q 1569 2906 1367 2781 
Q 1166 2656 1075 2415 
Q 984 2175 984 1722 
L 984 0 
L 422 0 
z
" transform="scale(0.015625)"/>
       <path id="ArialMT-62" d="M 941 0 
L 419 0 
L 419 4581 
L 981 4581 
L 981 2947 
Q 1338 3394 1891 3394 
Q 2197 3394 2470 3270 
Q 2744 3147 2920 2923 
Q 3097 2700 3197 2384 
Q 3297 2069 3297 1709 
Q 3297 856 2875 390 
Q 2453 -75 1863 -75 
Q 1275 -75 941 416 
L 941 0 
z
M 934 1684 
Q 934 1088 1097 822 
Q 1363 388 1816 388 
Q 2184 388 2453 708 
Q 2722 1028 2722 1663 
Q 2722 2313 2464 2622 
Q 2206 2931 1841 2931 
Q 1472 2931 1203 2611 
Q 934 2291 934 1684 
z
" transform="scale(0.015625)"/>
       <path id="ArialMT-72" d="M 416 0 
L 416 3319 
L 922 3319 
L 922 2816 
Q 1116 3169 1280 3281 
Q 1444 3394 1641 3394 
Q 1925 3394 2219 3213 
L 2025 2691 
Q 1819 2813 1613 2813 
Q 1428 2813 1281 2702 
Q 1134 2591 1072 2394 
Q 978 2094 978 1738 
L 978 0 
L 416 0 
z
" transform="scale(0.015625)"/>
       <path id="ArialMT-20" transform="scale(0.015625)"/>
       <path id="ArialMT-6f" d="M 213 1659 
Q 213 2581 725 3025 
Q 1153 3394 1769 3394 
Q 2453 3394 2887 2945 
Q 3322 2497 3322 1706 
Q 3322 1066 3130 698 
Q 2938 331 2570 128 
Q 2203 -75 1769 -75 
Q 1072 -75 642 372 
Q 213 819 213 1659 
z
M 791 1659 
Q 791 1022 1069 705 
Q 1347 388 1769 388 
Q 2188 388 2466 706 
Q 2744 1025 2744 1678 
Q 2744 2294 2464 2611 
Q 2184 2928 1769 2928 
Q 1347 2928 1069 2612 
Q 791 2297 791 1659 
z
" transform="scale(0.015625)"/>
       <path id="ArialMT-66" d="M 556 0 
L 556 2881 
L 59 2881 
L 59 3319 
L 556 3319 
L 556 3672 
Q 556 4006 616 4169 
Q 697 4388 901 4523 
Q 1106 4659 1475 4659 
Q 1713 4659 2000 4603 
L 1916 4113 
Q 1741 4144 1584 4144 
Q 1328 4144 1222 4034 
Q 1116 3925 1116 3625 
L 1116 3319 
L 1763 3319 
L 1763 2881 
L 1116 2881 
L 1116 0 
L 556 0 
z
" transform="scale(0.015625)"/>
       <path id="ArialMT-43" d="M 3763 1606 
L 4369 1453 
Q 4178 706 3683 314 
Q 3188 -78 2472 -78 
Q 1731 -78 1267 223 
Q 803 525 561 1097 
Q 319 1669 319 2325 
Q 319 3041 592 3573 
Q 866 4106 1370 4382 
Q 1875 4659 2481 4659 
Q 3169 4659 3637 4309 
Q 4106 3959 4291 3325 
L 3694 3184 
Q 3534 3684 3231 3912 
Q 2928 4141 2469 4141 
Q 1941 4141 1586 3887 
Q 1231 3634 1087 3207 
Q 944 2781 944 2328 
Q 944 1744 1114 1308 
Q 1284 872 1643 656 
Q 2003 441 2422 441 
Q 2931 441 3284 734 
Q 3638 1028 3763 1606 
z
" transform="scale(0.015625)"/>
       <path id="ArialMT-73" d="M 197 991 
L 753 1078 
Q 800 744 1014 566 
Q 1228 388 1613 388 
Q 2000 388 2187 545 
Q 2375 703 2375 916 
Q 2375 1106 2209 1216 
Q 2094 1291 1634 1406 
Q 1016 1563 777 1677 
Q 538 1791 414 1992 
Q 291 2194 291 2438 
Q 291 2659 392 2848 
Q 494 3038 669 3163 
Q 800 3259 1026 3326 
Q 1253 3394 1513 3394 
Q 1903 3394 2198 3281 
Q 2494 3169 2634 2976 
Q 2775 2784 2828 2463 
L 2278 2388 
Q 2241 2644 2061 2787 
Q 1881 2931 1553 2931 
Q 1166 2931 1000 2803 
Q 834 2675 834 2503 
Q 834 2394 903 2306 
Q 972 2216 1119 2156 
Q 1203 2125 1616 2013 
Q 2213 1853 2448 1751 
Q 2684 1650 2818 1456 
Q 2953 1263 2953 975 
Q 2953 694 2789 445 
Q 2625 197 2315 61 
Q 2006 -75 1616 -75 
Q 969 -75 630 194 
Q 291 463 197 991 
z
" transform="scale(0.015625)"/>
      </defs>
      <use xlink:href="#ArialMT-4e"/>
      <use xlink:href="#ArialMT-75" x="72.216797"/>
      <use xlink:href="#ArialMT-6d" x="127.832031"/>
      <use xlink:href="#ArialMT-62" x="211.132812"/>
      <use xlink:href="#ArialMT-65" x="266.748047"/>
      <use xlink:href="#ArialMT-72" x="322.363281"/>
      <use xlink:href="#ArialMT-20" x="355.664062"/>
      <use xlink:href="#ArialMT-6f" x="383.447266"/>
      <use xlink:href="#ArialMT-66" x="439.0625"/>
      <use xlink:href="#ArialMT-20" x="466.845703"/>
      <use xlink:href="#ArialMT-43" x="494.628906"/>
      <use xlink:href="#ArialMT-61" x="566.845703"/>
      <use xlink:href="#ArialMT-73" x="622.460938"/>
      <use xlink:href="#ArialMT-65" x="672.460938"/>
      <use xlink:href="#ArialMT-73" x="728.076172"/>
     </g>
    </g>
   </g>
   <g id="PolyCollection_1">
    <defs>
     <path id="m7c2febcccd" d="M 639.086732 -106.807501 
L 639.086732 -46.789596 
L 640.676098 -46.789596 
L 642.265464 -46.789596 
L 643.85483 -46.789596 
L 645.444197 -46.789596 
L 647.033563 -46.789596 
L 648.622929 -46.789596 
L 650.212295 -46.789596 
L 651.801662 -46.789596 
L 653.391028 -46.789596 
L 654.980394 -46.789596 
L 656.56976 -46.789596 
L 658.159127 -46.789596 
L 659.748493 -46.789596 
L 661.337859 -46.789596 
L 662.927225 -46.789596 
L 664.516592 -46.789596 
L 666.105958 -46.789596 
L 667.695324 -46.789596 
L 669.28469 -46.789596 
L 670.874056 -46.789596 
L 672.463423 -46.789596 
L 674.052789 -46.789596 
L 675.642155 -46.789596 
L 677.231521 -46.789596 
L 678.820888 -46.789596 
L 680.410254 -46.789596 
L 681.99962 -46.789596 
L 683.588986 -46.789596 
L 685.178353 -46.789596 
L 686.767719 -46.789596 
L 688.357085 -46.789596 
L 689.946451 -46.789596 
L 691.535818 -46.789596 
L 693.125184 -46.789596 
L 694.71455 -46.789596 
L 696.303916 -46.789596 
L 697.893283 -46.789596 
L 699.482649 -46.789596 
L 701.072015 -46.789596 
L 702.661381 -46.789596 
L 704.250748 -46.789596 
L 705.840114 -46.789596 
L 707.42948 -46.789596 
L 709.018846 -46.789596 
L 710.608213 -46.789596 
L 712.197579 -46.789596 
L 713.786945 -46.789596 
L 715.376311 -46.789596 
L 716.965678 -46.789596 
L 718.555044 -46.789596 
L 720.14441 -46.789596 
L 721.733776 -46.789596 
L 723.323143 -46.789596 
L 724.912509 -46.789596 
L 726.501875 -46.789596 
L 728.091241 -46.789596 
L 729.680608 -46.789596 
L 731.269974 -46.789596 
L 732.85934 -46.789596 
L 734.448706 -46.789596 
L 736.038073 -46.789596 
L 737.627439 -46.789596 
L 739.216805 -46.789596 
L 740.806171 -46.789596 
L 742.395538 -46.789596 
L 743.984904 -46.789596 
L 745.57427 -46.789596 
L 747.163636 -46.789596 
L 747.163636 -151.944506 
L 747.163636 -151.944506 
L 745.57427 -177.00231 
L 743.984904 -149.457909 
L 742.395538 -152.754185 
L 740.806171 -139.809506 
L 739.216805 -162.08538 
L 737.627439 -207.404274 
L 736.038073 -164.748262 
L 734.448706 -128.695451 
L 732.85934 -124.448142 
L 731.269974 -156.507938 
L 729.680608 -181.38488 
L 728.091241 -157.905733 
L 726.501875 -143.646766 
L 724.912509 -131.60274 
L 723.323143 -147.844126 
L 721.733776 -157.557849 
L 720.14441 -149.657576 
L 718.555044 -166.562624 
L 716.965678 -143.363799 
L 715.376311 -142.654162 
L 713.786945 -116.260138 
L 712.197579 -155.307826 
L 710.608213 -119.394882 
L 709.018846 -154.27478 
L 707.42948 -125.06641 
L 705.840114 -144.226137 
L 704.250748 -117.853282 
L 702.661381 -128.011439 
L 701.072015 -129.400834 
L 699.482649 -124.27762 
L 697.893283 -113.116939 
L 696.303916 -123.983386 
L 694.71455 -137.413351 
L 693.125184 -140.739851 
L 691.535818 -134.293467 
L 689.946451 -124.587059 
L 688.357085 -137.579144 
L 686.767719 -127.267899 
L 685.178353 -136.154696 
L 683.588986 -118.321883 
L 681.99962 -122.694615 
L 680.410254 -131.828765 
L 678.820888 -175.823448 
L 677.231521 -147.575086 
L 675.642155 -123.636091 
L 674.052789 -128.044286 
L 672.463423 -116.402275 
L 670.874056 -134.333586 
L 669.28469 -180.600697 
L 667.695324 -139.080014 
L 666.105958 -130.954025 
L 664.516592 -167.633375 
L 662.927225 -148.005012 
L 661.337859 -164.063136 
L 659.748493 -145.500213 
L 658.159127 -136.088772 
L 656.56976 -128.839766 
L 654.980394 -140.535685 
L 653.391028 -174.667674 
L 651.801662 -141.973348 
L 650.212295 -145.344343 
L 648.622929 -135.589905 
L 647.033563 -134.082381 
L 645.444197 -134.340369 
L 643.85483 -145.54225 
L 642.265464 -159.032663 
L 640.676098 -111.299774 
L 639.086732 -106.807501 
z
" style="stroke: #ffa500; stroke-opacity: 0.25"/>
    </defs>
    <g clip-path="url(#p685100086b)">
     <use xlink:href="#m7c2febcccd" x="0" y="360" style="fill: #ffa500; fill-opacity: 0.25; stroke: #ffa500; stroke-opacity: 0.25"/>
    </g>
   </g>
   <g id="PathCollection_1">
    <defs>
     <path id="m1bd1f0045e" d="M 0 3.535534 
C 0.937635 3.535534 1.836992 3.163008 2.5 2.5 
C 3.163008 1.836992 3.535534 0.937635 3.535534 0 
C 3.535534 -0.937635 3.163008 -1.836992 2.5 -2.5 
C 1.836992 -3.163008 0.937635 -3.535534 0 -3.535534 
C -0.937635 -3.535534 -1.836992 -3.163008 -2.5 -2.5 
C -3.163008 -1.836992 -3.535534 -0.937635 -3.535534 0 
C -3.535534 0.937635 -3.163008 1.836992 -2.5 2.5 
C -1.836992 3.163008 -0.937635 3.535534 0 3.535534 
z
" style="stroke: #ffffff; stroke-opacity: 0.8; stroke-width: 0.565685"/>
    </defs>
    <g clip-path="url(#p685100086b)">
     <use xlink:href="#m1bd1f0045e" x="639.086732" y="287.465062" style="fill: #ff0000; fill-opacity: 0.8; stroke: #ffffff; stroke-opacity: 0.8; stroke-width: 0.565685"/>
     <use xlink:href="#m1bd1f0045e" x="640.676098" y="309.038166" style="fill: #ff0000; fill-opacity: 0.8; stroke: #ffffff; stroke-opacity: 0.8; stroke-width: 0.565685"/>
     <use xlink:href="#m1bd1f0045e" x="642.265464" y="309.613448" style="fill: #ff0000; fill-opacity: 0.8; stroke: #ffffff; stroke-opacity: 0.8; stroke-width: 0.565685"/>
     <use xlink:href="#m1bd1f0045e" x="643.85483" y="309.469628" style="fill: #ff0000; fill-opacity: 0.8; stroke: #ffffff; stroke-opacity: 0.8; stroke-width: 0.565685"/>
     <use xlink:href="#m1bd1f0045e" x="645.444197" y="308.750524" style="fill: #ff0000; fill-opacity: 0.8; stroke: #ffffff; stroke-opacity: 0.8; stroke-width: 0.565685"/>
     <use xlink:href="#m1bd1f0045e" x="647.033563" y="310.476372" style="fill: #ff0000; fill-opacity: 0.8; stroke: #ffffff; stroke-opacity: 0.8; stroke-width: 0.565685"/>
     <use xlink:href="#m1bd1f0045e" x="648.622929" y="311.914579" style="fill: #ff0000; fill-opacity: 0.8; stroke: #ffffff; stroke-opacity: 0.8; stroke-width: 0.565685"/>
     <use xlink:href="#m1bd1f0045e" x="650.212295" y="308.894345" style="fill: #ff0000; fill-opacity: 0.8; stroke: #ffffff; stroke-opacity: 0.8; stroke-width: 0.565685"/>
     <use xlink:href="#m1bd1f0045e" x="651.801662" y="310.332552" style="fill: #ff0000; fill-opacity: 0.8; stroke: #ffffff; stroke-opacity: 0.8; stroke-width: 0.565685"/>
     <use xlink:href="#m1bd1f0045e" x="653.391028" y="309.757269" style="fill: #ff0000; fill-opacity: 0.8; stroke: #ffffff; stroke-opacity: 0.8; stroke-width: 0.565685"/>
     <use xlink:href="#m1bd1f0045e" x="654.980394" y="308.606703" style="fill: #ff0000; fill-opacity: 0.8; stroke: #ffffff; stroke-opacity: 0.8; stroke-width: 0.565685"/>
     <use xlink:href="#m1bd1f0045e" x="656.56976" y="307.599959" style="fill: #ff0000; fill-opacity: 0.8; stroke: #ffffff; stroke-opacity: 0.8; stroke-width: 0.565685"/>
     <use xlink:href="#m1bd1f0045e" x="658.159127" y="306.593214" style="fill: #ff0000; fill-opacity: 0.8; stroke: #ffffff; stroke-opacity: 0.8; stroke-width: 0.565685"/>
     <use xlink:href="#m1bd1f0045e" x="659.748493" y="303.7168" style="fill: #ff0000; fill-opacity: 0.8; stroke: #ffffff; stroke-opacity: 0.8; stroke-width: 0.565685"/>
     <use xlink:href="#m1bd1f0045e" x="661.337859" y="313.208966" style="fill: #ff0000; fill-opacity: 0.8; stroke: #ffffff; stroke-opacity: 0.8; stroke-width: 0.565685"/>
     <use xlink:href="#m1bd1f0045e" x="662.927225" y="295.806662" style="fill: #ff0000; fill-opacity: 0.8; stroke: #ffffff; stroke-opacity: 0.8; stroke-width: 0.565685"/>
     <use xlink:href="#m1bd1f0045e" x="664.516592" y="306.737035" style="fill: #ff0000; fill-opacity: 0.8; stroke: #ffffff; stroke-opacity: 0.8; stroke-width: 0.565685"/>
     <use xlink:href="#m1bd1f0045e" x="666.105958" y="309.038166" style="fill: #ff0000; fill-opacity: 0.8; stroke: #ffffff; stroke-opacity: 0.8; stroke-width: 0.565685"/>
     <use xlink:href="#m1bd1f0045e" x="667.695324" y="310.188731" style="fill: #ff0000; fill-opacity: 0.8; stroke: #ffffff; stroke-opacity: 0.8; stroke-width: 0.565685"/>
     <use xlink:href="#m1bd1f0045e" x="669.28469" y="308.319062" style="fill: #ff0000; fill-opacity: 0.8; stroke: #ffffff; stroke-opacity: 0.8; stroke-width: 0.565685"/>
     <use xlink:href="#m1bd1f0045e" x="670.874056" y="309.613448" style="fill: #ff0000; fill-opacity: 0.8; stroke: #ffffff; stroke-opacity: 0.8; stroke-width: 0.565685"/>
     <use xlink:href="#m1bd1f0045e" x="672.463423" y="310.764014" style="fill: #ff0000; fill-opacity: 0.8; stroke: #ffffff; stroke-opacity: 0.8; stroke-width: 0.565685"/>
     <use xlink:href="#m1bd1f0045e" x="674.052789" y="309.90109" style="fill: #ff0000; fill-opacity: 0.8; stroke: #ffffff; stroke-opacity: 0.8; stroke-width: 0.565685"/>
     <use xlink:href="#m1bd1f0045e" x="675.642155" y="310.332552" style="fill: #ff0000; fill-opacity: 0.8; stroke: #ffffff; stroke-opacity: 0.8; stroke-width: 0.565685"/>
     <use xlink:href="#m1bd1f0045e" x="677.231521" y="310.04491" style="fill: #ff0000; fill-opacity: 0.8; stroke: #ffffff; stroke-opacity: 0.8; stroke-width: 0.565685"/>
     <use xlink:href="#m1bd1f0045e" x="678.820888" y="309.613448" style="fill: #ff0000; fill-opacity: 0.8; stroke: #ffffff; stroke-opacity: 0.8; stroke-width: 0.565685"/>
     <use xlink:href="#m1bd1f0045e" x="680.410254" y="311.483117" style="fill: #ff0000; fill-opacity: 0.8; stroke: #ffffff; stroke-opacity: 0.8; stroke-width: 0.565685"/>
     <use xlink:href="#m1bd1f0045e" x="681.99962" y="309.757269" style="fill: #ff0000; fill-opacity: 0.8; stroke: #ffffff; stroke-opacity: 0.8; stroke-width: 0.565685"/>
     <use xlink:href="#m1bd1f0045e" x="683.588986" y="311.626938" style="fill: #ff0000; fill-opacity: 0.8; stroke: #ffffff; stroke-opacity: 0.8; stroke-width: 0.565685"/>
     <use xlink:href="#m1bd1f0045e" x="685.178353" y="311.195476" style="fill: #ff0000; fill-opacity: 0.8; stroke: #ffffff; stroke-opacity: 0.8; stroke-width: 0.565685"/>
     <use xlink:href="#m1bd1f0045e" x="686.767719" y="311.483117" style="fill: #ff0000; fill-opacity: 0.8; stroke: #ffffff; stroke-opacity: 0.8; stroke-width: 0.565685"/>
     <use xlink:href="#m1bd1f0045e" x="688.357085" y="310.620193" style="fill: #ff0000; fill-opacity: 0.8; stroke: #ffffff; stroke-opacity: 0.8; stroke-width: 0.565685"/>
     <use xlink:href="#m1bd1f0045e" x="689.946451" y="309.181986" style="fill: #ff0000; fill-opacity: 0.8; stroke: #ffffff; stroke-opacity: 0.8; stroke-width: 0.565685"/>
     <use xlink:href="#m1bd1f0045e" x="691.535818" y="310.476372" style="fill: #ff0000; fill-opacity: 0.8; stroke: #ffffff; stroke-opacity: 0.8; stroke-width: 0.565685"/>
     <use xlink:href="#m1bd1f0045e" x="693.125184" y="310.764014" style="fill: #ff0000; fill-opacity: 0.8; stroke: #ffffff; stroke-opacity: 0.8; stroke-width: 0.565685"/>
     <use xlink:href="#m1bd1f0045e" x="694.71455" y="311.626938" style="fill: #ff0000; fill-opacity: 0.8; stroke: #ffffff; stroke-opacity: 0.8; stroke-width: 0.565685"/>
     <use xlink:href="#m1bd1f0045e" x="696.303916" y="311.195476" style="fill: #ff0000; fill-opacity: 0.8; stroke: #ffffff; stroke-opacity: 0.8; stroke-width: 0.565685"/>
     <use xlink:href="#m1bd1f0045e" x="697.893283" y="312.346041" style="fill: #ff0000; fill-opacity: 0.8; stroke: #ffffff; stroke-opacity: 0.8; stroke-width: 0.565685"/>
     <use xlink:href="#m1bd1f0045e" x="699.482649" y="311.195476" style="fill: #ff0000; fill-opacity: 0.8; stroke: #ffffff; stroke-opacity: 0.8; stroke-width: 0.565685"/>
     <use xlink:href="#m1bd1f0045e" x="701.072015" y="312.202221" style="fill: #ff0000; fill-opacity: 0.8; stroke: #ffffff; stroke-opacity: 0.8; stroke-width: 0.565685"/>
     <use xlink:href="#m1bd1f0045e" x="702.661381" y="310.764014" style="fill: #ff0000; fill-opacity: 0.8; stroke: #ffffff; stroke-opacity: 0.8; stroke-width: 0.565685"/>
     <use xlink:href="#m1bd1f0045e" x="704.250748" y="311.051655" style="fill: #ff0000; fill-opacity: 0.8; stroke: #ffffff; stroke-opacity: 0.8; stroke-width: 0.565685"/>
     <use xlink:href="#m1bd1f0045e" x="705.840114" y="310.907835" style="fill: #ff0000; fill-opacity: 0.8; stroke: #ffffff; stroke-opacity: 0.8; stroke-width: 0.565685"/>
     <use xlink:href="#m1bd1f0045e" x="707.42948" y="308.462883" style="fill: #ff0000; fill-opacity: 0.8; stroke: #ffffff; stroke-opacity: 0.8; stroke-width: 0.565685"/>
     <use xlink:href="#m1bd1f0045e" x="709.018846" y="310.04491" style="fill: #ff0000; fill-opacity: 0.8; stroke: #ffffff; stroke-opacity: 0.8; stroke-width: 0.565685"/>
     <use xlink:href="#m1bd1f0045e" x="712.197579" y="304.004441" style="fill: #ff0000; fill-opacity: 0.8; stroke: #ffffff; stroke-opacity: 0.8; stroke-width: 0.565685"/>
     <use xlink:href="#m1bd1f0045e" x="713.786945" y="309.613448" style="fill: #ff0000; fill-opacity: 0.8; stroke: #ffffff; stroke-opacity: 0.8; stroke-width: 0.565685"/>
     <use xlink:href="#m1bd1f0045e" x="715.376311" y="310.907835" style="fill: #ff0000; fill-opacity: 0.8; stroke: #ffffff; stroke-opacity: 0.8; stroke-width: 0.565685"/>
     <use xlink:href="#m1bd1f0045e" x="716.965678" y="307.168497" style="fill: #ff0000; fill-opacity: 0.8; stroke: #ffffff; stroke-opacity: 0.8; stroke-width: 0.565685"/>
     <use xlink:href="#m1bd1f0045e" x="718.555044" y="309.325807" style="fill: #ff0000; fill-opacity: 0.8; stroke: #ffffff; stroke-opacity: 0.8; stroke-width: 0.565685"/>
     <use xlink:href="#m1bd1f0045e" x="720.14441" y="308.606703" style="fill: #ff0000; fill-opacity: 0.8; stroke: #ffffff; stroke-opacity: 0.8; stroke-width: 0.565685"/>
     <use xlink:href="#m1bd1f0045e" x="721.733776" y="306.737035" style="fill: #ff0000; fill-opacity: 0.8; stroke: #ffffff; stroke-opacity: 0.8; stroke-width: 0.565685"/>
     <use xlink:href="#m1bd1f0045e" x="723.323143" y="306.737035" style="fill: #ff0000; fill-opacity: 0.8; stroke: #ffffff; stroke-opacity: 0.8; stroke-width: 0.565685"/>
     <use xlink:href="#m1bd1f0045e" x="724.912509" y="260.858235" style="fill: #ff0000; fill-opacity: 0.8; stroke: #ffffff; stroke-opacity: 0.8; stroke-width: 0.565685"/>
     <use xlink:href="#m1bd1f0045e" x="726.501875" y="305.155007" style="fill: #ff0000; fill-opacity: 0.8; stroke: #ffffff; stroke-opacity: 0.8; stroke-width: 0.565685"/>
     <use xlink:href="#m1bd1f0045e" x="728.091241" y="302.422414" style="fill: #ff0000; fill-opacity: 0.8; stroke: #ffffff; stroke-opacity: 0.8; stroke-width: 0.565685"/>
     <use xlink:href="#m1bd1f0045e" x="729.680608" y="299.546" style="fill: #ff0000; fill-opacity: 0.8; stroke: #ffffff; stroke-opacity: 0.8; stroke-width: 0.565685"/>
     <use xlink:href="#m1bd1f0045e" x="731.269974" y="303.572979" style="fill: #ff0000; fill-opacity: 0.8; stroke: #ffffff; stroke-opacity: 0.8; stroke-width: 0.565685"/>
     <use xlink:href="#m1bd1f0045e" x="732.85934" y="302.278593" style="fill: #ff0000; fill-opacity: 0.8; stroke: #ffffff; stroke-opacity: 0.8; stroke-width: 0.565685"/>
     <use xlink:href="#m1bd1f0045e" x="734.448706" y="303.141517" style="fill: #ff0000; fill-opacity: 0.8; stroke: #ffffff; stroke-opacity: 0.8; stroke-width: 0.565685"/>
     <use xlink:href="#m1bd1f0045e" x="736.038073" y="300.696566" style="fill: #ff0000; fill-opacity: 0.8; stroke: #ffffff; stroke-opacity: 0.8; stroke-width: 0.565685"/>
     <use xlink:href="#m1bd1f0045e" x="737.627439" y="298.107793" style="fill: #ff0000; fill-opacity: 0.8; stroke: #ffffff; stroke-opacity: 0.8; stroke-width: 0.565685"/>
     <use xlink:href="#m1bd1f0045e" x="739.216805" y="295.519021" style="fill: #ff0000; fill-opacity: 0.8; stroke: #ffffff; stroke-opacity: 0.8; stroke-width: 0.565685"/>
     <use xlink:href="#m1bd1f0045e" x="740.806171" y="293.21789" style="fill: #ff0000; fill-opacity: 0.8; stroke: #ffffff; stroke-opacity: 0.8; stroke-width: 0.565685"/>
     <use xlink:href="#m1bd1f0045e" x="742.395538" y="294.656097" style="fill: #ff0000; fill-opacity: 0.8; stroke: #ffffff; stroke-opacity: 0.8; stroke-width: 0.565685"/>
     <use xlink:href="#m1bd1f0045e" x="743.984904" y="289.622372" style="fill: #ff0000; fill-opacity: 0.8; stroke: #ffffff; stroke-opacity: 0.8; stroke-width: 0.565685"/>
     <use xlink:href="#m1bd1f0045e" x="745.57427" y="288.040345" style="fill: #ff0000; fill-opacity: 0.8; stroke: #ffffff; stroke-opacity: 0.8; stroke-width: 0.565685"/>
     <use xlink:href="#m1bd1f0045e" x="747.163636" y="292.642607" style="fill: #ff0000; fill-opacity: 0.8; stroke: #ffffff; stroke-opacity: 0.8; stroke-width: 0.565685"/>
    </g>
   </g>
   <g id="line2d_17">
    <path d="M 138.436364 313.208966 
L 144.793829 313.208966 
M 147.972561 313.208966 
L 209.957845 313.208966 
M 216.31531 311.051655 
L 217.904676 309.90109 
L 219.494042 313.208966 
L 221.083408 312.346041 
L 222.672775 313.208966 
L 224.262141 313.208966 
L 225.851507 284.157186 
L 227.440873 313.208966 
L 229.03024 313.208966 
L 230.619606 312.0584 
L 232.208972 312.346041 
L 233.798338 271.932428 
L 235.387705 312.346041 
L 236.977071 310.907835 
L 238.566437 293.074069 
L 240.155803 313.065145 
L 241.74517 313.065145 
L 243.334536 299.833641 
L 244.923902 313.208966 
L 246.513268 312.921324 
L 248.102635 313.208966 
L 249.692001 311.626938 
L 251.281367 306.305572 
L 252.870733 311.195476 
L 254.4601 312.633683 
L 256.049466 295.662841 
L 257.638832 313.208966 
L 259.228198 310.188731 
L 260.817565 312.633683 
L 262.406931 313.208966 
L 263.996297 313.208966 
L 265.585663 311.051655 
L 267.17503 313.208966 
L 268.764396 297.676331 
L 270.353762 312.489862 
L 271.943128 313.208966 
L 273.532495 307.312317 
L 275.121861 313.208966 
L 279.88996 313.208966 
L 281.479326 312.489862 
L 283.068692 307.599959 
L 284.658058 313.208966 
L 286.247425 313.208966 
L 287.836791 312.921324 
L 289.426157 312.777503 
L 291.015523 313.208966 
L 292.60489 313.208966 
M 297.372988 313.208966 
L 298.962355 313.208966 
L 300.551721 310.476372 
L 302.141087 312.346041 
L 303.730453 306.305572 
L 305.31982 313.208966 
L 308.498552 309.181986 
M 327.570947 153.999463 
L 329.160313 309.181986 
L 330.74968 295.662841 
L 332.339046 309.613448 
L 333.928412 312.489862 
M 340.285877 284.013366 
L 343.46461 311.339297 
L 345.053976 306.161752 
L 346.643342 304.292083 
L 348.232708 288.327986 
L 349.822075 299.402179 
L 351.411441 309.038166 
L 353.000807 311.195476 
L 354.590173 309.757269 
L 356.17954 313.065145 
L 357.768906 301.55949 
L 359.358272 303.860621 
L 360.947638 303.7168 
L 362.537005 303.141517 
L 364.126371 309.469628 
L 365.715737 309.038166 
L 368.894469 307.312317 
L 370.483836 304.148262 
L 372.073202 312.346041 
L 373.662568 291.2044 
L 376.841301 311.483117 
M 384.788132 310.907835 
L 386.377498 312.346041 
L 387.966864 313.065145 
L 389.556231 311.914579 
L 391.145597 311.914579 
L 392.734963 313.065145 
L 394.324329 312.0584 
L 395.913696 312.489862 
L 397.503062 312.489862 
L 399.092428 312.777503 
L 400.681794 312.633683 
L 402.271161 312.0584 
L 403.860527 312.346041 
L 405.449893 311.770759 
L 407.039259 312.346041 
L 410.217992 312.346041 
L 411.807358 312.489862 
L 413.396724 312.202221 
L 414.986091 312.346041 
L 416.575457 311.770759 
L 418.164823 312.633683 
L 419.754189 311.770759 
L 421.343556 312.0584 
L 422.932922 311.339297 
L 424.522288 312.489862 
L 426.111654 311.195476 
L 427.701021 312.633683 
L 429.290387 312.777503 
L 430.879753 312.0584 
L 432.469119 312.346041 
L 435.647852 312.0584 
L 437.237218 312.0584 
L 438.826584 312.346041 
L 440.415951 312.489862 
L 442.005317 311.914579 
L 443.594683 312.346041 
L 446.773416 312.921324 
L 448.362782 312.489862 
L 449.952148 312.777503 
L 451.541514 312.633683 
L 453.130881 312.633683 
L 454.720247 312.921324 
L 456.309613 311.770759 
L 457.898979 311.914579 
L 459.488346 312.633683 
M 462.667078 306.161752 
L 464.256444 298.107793 
L 465.845811 297.38869 
L 467.435177 302.134772 
L 469.024543 310.764014 
L 470.613909 289.622372 
L 472.203276 299.258359 
L 473.792642 308.175241 
L 475.382008 299.258359 
M 500.811868 79.644166 
L 502.401234 310.907835 
L 503.990601 311.770759 
L 505.579967 310.764014 
L 507.169333 311.483117 
L 508.758699 71.734028 
L 510.348066 313.208966 
L 511.937432 312.777503 
L 513.526798 312.0584 
M 516.705531 69.720539 
L 518.294897 311.626938 
L 519.884263 311.195476 
M 524.652362 311.770759 
L 526.241728 56.057573 
M 532.599193 312.0584 
L 534.188559 311.051655 
L 535.777925 311.195476 
L 537.367292 311.914579 
L 538.956658 312.921324 
L 542.13539 312.633683 
M 545.314123 312.489862 
L 546.903489 311.770759 
L 548.492855 312.346041 
L 550.082222 308.462883 
L 551.671588 312.489862 
L 553.260954 312.633683 
L 554.85032 310.764014 
L 556.439687 312.346041 
L 558.029053 309.181986 
L 559.618419 310.332552 
L 561.207785 306.017931 
L 562.797152 310.04491 
L 564.386518 310.332552 
L 565.975884 307.743779 
L 567.56525 309.90109 
L 569.154617 313.208966 
L 570.743983 308.175241 
L 572.333349 309.757269 
L 573.922715 312.777503 
L 575.512082 310.332552 
L 577.101448 308.462883 
L 578.690814 310.332552 
L 580.28018 300.265104 
L 581.869547 307.168497 
L 583.458913 298.539255 
L 585.048279 309.325807 
L 586.637645 306.449393 
L 588.227012 301.271848 
L 589.816378 310.476372 
L 591.405744 311.770759 
L 592.99511 311.626938 
L 594.584477 310.764014 
L 596.173843 305.87411 
L 597.763209 308.750524 
L 599.352575 311.914579 
L 600.941942 309.90109 
L 602.531308 311.483117 
L 604.120674 311.626938 
L 605.71004 311.483117 
L 607.299407 310.620193 
L 608.888773 309.038166 
L 610.478139 309.613448 
L 612.067505 312.777503 
L 613.656872 310.188731 
L 615.246238 310.907835 
L 616.835604 312.633683 
L 618.42497 311.195476 
L 620.014337 312.633683 
L 621.603703 310.764014 
L 623.193069 312.489862 
L 624.782435 310.04491 
M 627.961168 312.633683 
L 629.550534 310.04491 
L 631.1399 311.626938 
L 632.729267 304.723545 
L 634.318633 310.188731 
L 637.497365 310.188731 
L 637.497365 310.188731 
" clip-path="url(#p685100086b)" style="fill: none; stroke: #008080; stroke-width: 1.5; stroke-linecap: round"/>
   </g>
   <g id="line2d_18">
    <path d="M 639.086732 313.208966 
L 640.676098 313.208966 
L 642.265464 289.04709 
L 643.85483 312.777503 
L 645.444197 312.921324 
L 647.033563 311.770759 
L 648.622929 312.633683 
L 650.212295 303.7168 
L 651.801662 298.826897 
L 653.391028 270.062759 
L 654.980394 306.161752 
L 656.56976 307.168497 
L 658.159127 307.599959 
L 659.748493 304.148262 
L 661.337859 267.761628 
L 662.927225 305.011186 
L 664.516592 307.168497 
L 666.105958 311.626938 
L 667.695324 303.429159 
L 669.28469 267.330166 
L 670.874056 310.332552 
L 672.463423 308.606703 
L 674.052789 313.208966 
L 675.642155 311.914579 
L 677.231521 309.757269 
L 678.820888 266.467242 
L 680.410254 296.669586 
L 681.99962 307.743779 
L 683.588986 310.332552 
L 685.178353 312.777503 
L 686.767719 311.339297 
L 688.357085 311.339297 
L 689.946451 313.208966 
L 691.535818 309.325807 
L 693.125184 313.208966 
L 694.71455 312.346041 
L 696.303916 306.880855 
L 697.893283 313.208966 
L 699.482649 311.626938 
L 701.072015 310.764014 
L 702.661381 312.346041 
L 704.250748 310.476372 
L 705.840114 312.921324 
L 707.42948 313.208966 
L 709.018846 297.38869 
L 710.608213 313.208966 
L 712.197579 308.606703 
L 713.786945 307.312317 
L 715.376311 313.208966 
L 716.965678 313.208966 
L 718.555044 288.903269 
L 720.14441 312.633683 
L 721.733776 312.921324 
L 723.323143 311.770759 
L 724.912509 312.489862 
L 726.501875 303.572979 
L 728.091241 298.826897 
L 729.680608 269.918938 
L 731.269974 306.017931 
L 732.85934 307.168497 
L 734.448706 307.599959 
L 736.038073 304.148262 
L 737.627439 267.761628 
L 739.216805 305.011186 
L 740.806171 307.168497 
L 742.395538 311.483117 
L 743.984904 303.429159 
L 745.57427 267.330166 
L 747.163636 310.332552 
" clip-path="url(#p685100086b)" style="fill: none; stroke: #0000ff; stroke-width: 2; stroke-linecap: round"/>
   </g>
   <g id="patch_3">
    <path d="M 108 320.4 
L 108 43.2 
" style="fill: none; stroke: #262626; stroke-width: 1.25; stroke-linejoin: miter; stroke-linecap: square"/>
   </g>
   <g id="patch_4">
    <path d="M 777.6 320.4 
L 777.6 43.2 
" style="fill: none; stroke: #262626; stroke-width: 1.25; stroke-linejoin: miter; stroke-linecap: square"/>
   </g>
   <g id="patch_5">
    <path d="M 108 320.4 
L 777.6 320.4 
" style="fill: none; stroke: #262626; stroke-width: 1.25; stroke-linejoin: miter; stroke-linecap: square"/>
   </g>
   <g id="patch_6">
    <path d="M 108 43.2 
L 777.6 43.2 
" style="fill: none; stroke: #262626; stroke-width: 1.25; stroke-linejoin: miter; stroke-linecap: square"/>
   </g>
   <g id="text_19">
    <!-- MSLE:  3.58%     MAPE:  63.74%                       Model: STS - Variational Inference Fit -->
    <g style="fill: #262626" transform="translate(215.828438 37.2) scale(0.12 -0.12)">
     <defs>
      <path id="ArialMT-4d" d="M 475 0 
L 475 4581 
L 1388 4581 
L 2472 1338 
Q 2622 884 2691 659 
Q 2769 909 2934 1394 
L 4031 4581 
L 4847 4581 
L 4847 0 
L 4263 0 
L 4263 3834 
L 2931 0 
L 2384 0 
L 1059 3900 
L 1059 0 
L 475 0 
z
" transform="scale(0.015625)"/>
      <path id="ArialMT-53" d="M 288 1472 
L 859 1522 
Q 900 1178 1048 958 
Q 1197 738 1509 602 
Q 1822 466 2213 466 
Q 2559 466 2825 569 
Q 3091 672 3220 851 
Q 3350 1031 3350 1244 
Q 3350 1459 3225 1620 
Q 3100 1781 2813 1891 
Q 2628 1963 1997 2114 
Q 1366 2266 1113 2400 
Q 784 2572 623 2826 
Q 463 3081 463 3397 
Q 463 3744 659 4045 
Q 856 4347 1234 4503 
Q 1613 4659 2075 4659 
Q 2584 4659 2973 4495 
Q 3363 4331 3572 4012 
Q 3781 3694 3797 3291 
L 3216 3247 
Q 3169 3681 2898 3903 
Q 2628 4125 2100 4125 
Q 1550 4125 1298 3923 
Q 1047 3722 1047 3438 
Q 1047 3191 1225 3031 
Q 1400 2872 2139 2705 
Q 2878 2538 3153 2413 
Q 3553 2228 3743 1945 
Q 3934 1663 3934 1294 
Q 3934 928 3725 604 
Q 3516 281 3123 101 
Q 2731 -78 2241 -78 
Q 1619 -78 1198 103 
Q 778 284 539 648 
Q 300 1013 288 1472 
z
" transform="scale(0.015625)"/>
      <path id="ArialMT-4c" d="M 469 0 
L 469 4581 
L 1075 4581 
L 1075 541 
L 3331 541 
L 3331 0 
L 469 0 
z
" transform="scale(0.015625)"/>
      <path id="ArialMT-45" d="M 506 0 
L 506 4581 
L 3819 4581 
L 3819 4041 
L 1113 4041 
L 1113 2638 
L 3647 2638 
L 3647 2100 
L 1113 2100 
L 1113 541 
L 3925 541 
L 3925 0 
L 506 0 
z
" transform="scale(0.015625)"/>
      <path id="ArialMT-3a" d="M 578 2678 
L 578 3319 
L 1219 3319 
L 1219 2678 
L 578 2678 
z
M 578 0 
L 578 641 
L 1219 641 
L 1219 0 
L 578 0 
z
" transform="scale(0.015625)"/>
      <path id="ArialMT-2e" d="M 581 0 
L 581 641 
L 1222 641 
L 1222 0 
L 581 0 
z
" transform="scale(0.015625)"/>
      <path id="ArialMT-25" d="M 372 3481 
Q 372 3972 619 4315 
Q 866 4659 1334 4659 
Q 1766 4659 2048 4351 
Q 2331 4044 2331 3447 
Q 2331 2866 2045 2552 
Q 1759 2238 1341 2238 
Q 925 2238 648 2547 
Q 372 2856 372 3481 
z
M 1350 4272 
Q 1141 4272 1002 4090 
Q 863 3909 863 3425 
Q 863 2984 1003 2804 
Q 1144 2625 1350 2625 
Q 1563 2625 1702 2806 
Q 1841 2988 1841 3469 
Q 1841 3913 1700 4092 
Q 1559 4272 1350 4272 
z
M 1353 -169 
L 3859 4659 
L 4316 4659 
L 1819 -169 
L 1353 -169 
z
M 3334 1075 
Q 3334 1569 3581 1911 
Q 3828 2253 4300 2253 
Q 4731 2253 5014 1945 
Q 5297 1638 5297 1041 
Q 5297 459 5011 145 
Q 4725 -169 4303 -169 
Q 3888 -169 3611 142 
Q 3334 453 3334 1075 
z
M 4316 1866 
Q 4103 1866 3964 1684 
Q 3825 1503 3825 1019 
Q 3825 581 3965 400 
Q 4106 219 4313 219 
Q 4528 219 4667 400 
Q 4806 581 4806 1063 
Q 4806 1506 4665 1686 
Q 4525 1866 4316 1866 
z
" transform="scale(0.015625)"/>
      <path id="ArialMT-41" d="M -9 0 
L 1750 4581 
L 2403 4581 
L 4278 0 
L 3588 0 
L 3053 1388 
L 1138 1388 
L 634 0 
L -9 0 
z
M 1313 1881 
L 2866 1881 
L 2388 3150 
Q 2169 3728 2063 4100 
Q 1975 3659 1816 3225 
L 1313 1881 
z
" transform="scale(0.015625)"/>
      <path id="ArialMT-50" d="M 494 0 
L 494 4581 
L 2222 4581 
Q 2678 4581 2919 4538 
Q 3256 4481 3484 4323 
Q 3713 4166 3852 3881 
Q 3991 3597 3991 3256 
Q 3991 2672 3619 2267 
Q 3247 1863 2275 1863 
L 1100 1863 
L 1100 0 
L 494 0 
z
M 1100 2403 
L 2284 2403 
Q 2872 2403 3119 2622 
Q 3366 2841 3366 3238 
Q 3366 3525 3220 3729 
Q 3075 3934 2838 4000 
Q 2684 4041 2272 4041 
L 1100 4041 
L 1100 2403 
z
" transform="scale(0.015625)"/>
      <path id="ArialMT-34" d="M 2069 0 
L 2069 1097 
L 81 1097 
L 81 1613 
L 2172 4581 
L 2631 4581 
L 2631 1613 
L 3250 1613 
L 3250 1097 
L 2631 1097 
L 2631 0 
L 2069 0 
z
M 2069 1613 
L 2069 3678 
L 634 1613 
L 2069 1613 
z
" transform="scale(0.015625)"/>
      <path id="ArialMT-64" d="M 2575 0 
L 2575 419 
Q 2259 -75 1647 -75 
Q 1250 -75 917 144 
Q 584 363 401 755 
Q 219 1147 219 1656 
Q 219 2153 384 2558 
Q 550 2963 881 3178 
Q 1213 3394 1622 3394 
Q 1922 3394 2156 3267 
Q 2391 3141 2538 2938 
L 2538 4581 
L 3097 4581 
L 3097 0 
L 2575 0 
z
M 797 1656 
Q 797 1019 1065 703 
Q 1334 388 1700 388 
Q 2069 388 2326 689 
Q 2584 991 2584 1609 
Q 2584 2291 2321 2609 
Q 2059 2928 1675 2928 
Q 1300 2928 1048 2622 
Q 797 2316 797 1656 
z
" transform="scale(0.015625)"/>
      <path id="ArialMT-6c" d="M 409 0 
L 409 4581 
L 972 4581 
L 972 0 
L 409 0 
z
" transform="scale(0.015625)"/>
      <path id="ArialMT-54" d="M 1659 0 
L 1659 4041 
L 150 4041 
L 150 4581 
L 3781 4581 
L 3781 4041 
L 2266 4041 
L 2266 0 
L 1659 0 
z
" transform="scale(0.015625)"/>
      <path id="ArialMT-2d" d="M 203 1375 
L 203 1941 
L 1931 1941 
L 1931 1375 
L 203 1375 
z
" transform="scale(0.015625)"/>
      <path id="ArialMT-56" d="M 1803 0 
L 28 4581 
L 684 4581 
L 1875 1253 
Q 2019 853 2116 503 
Q 2222 878 2363 1253 
L 3600 4581 
L 4219 4581 
L 2425 0 
L 1803 0 
z
" transform="scale(0.015625)"/>
      <path id="ArialMT-69" d="M 425 3934 
L 425 4581 
L 988 4581 
L 988 3934 
L 425 3934 
z
M 425 0 
L 425 3319 
L 988 3319 
L 988 0 
L 425 0 
z
" transform="scale(0.015625)"/>
      <path id="ArialMT-6e" d="M 422 0 
L 422 3319 
L 928 3319 
L 928 2847 
Q 1294 3394 1984 3394 
Q 2284 3394 2536 3286 
Q 2788 3178 2913 3003 
Q 3038 2828 3088 2588 
Q 3119 2431 3119 2041 
L 3119 0 
L 2556 0 
L 2556 2019 
Q 2556 2363 2490 2533 
Q 2425 2703 2258 2804 
Q 2091 2906 1866 2906 
Q 1506 2906 1245 2678 
Q 984 2450 984 1813 
L 984 0 
L 422 0 
z
" transform="scale(0.015625)"/>
      <path id="ArialMT-49" d="M 597 0 
L 597 4581 
L 1203 4581 
L 1203 0 
L 597 0 
z
" transform="scale(0.015625)"/>
      <path id="ArialMT-63" d="M 2588 1216 
L 3141 1144 
Q 3050 572 2676 248 
Q 2303 -75 1759 -75 
Q 1078 -75 664 370 
Q 250 816 250 1647 
Q 250 2184 428 2587 
Q 606 2991 970 3192 
Q 1334 3394 1763 3394 
Q 2303 3394 2647 3120 
Q 2991 2847 3088 2344 
L 2541 2259 
Q 2463 2594 2264 2762 
Q 2066 2931 1784 2931 
Q 1359 2931 1093 2626 
Q 828 2322 828 1663 
Q 828 994 1084 691 
Q 1341 388 1753 388 
Q 2084 388 2306 591 
Q 2528 794 2588 1216 
z
" transform="scale(0.015625)"/>
      <path id="ArialMT-46" d="M 525 0 
L 525 4581 
L 3616 4581 
L 3616 4041 
L 1131 4041 
L 1131 2622 
L 3281 2622 
L 3281 2081 
L 1131 2081 
L 1131 0 
L 525 0 
z
" transform="scale(0.015625)"/>
     </defs>
     <use xlink:href="#ArialMT-4d"/>
     <use xlink:href="#ArialMT-53" x="83.300781"/>
     <use xlink:href="#ArialMT-4c" x="150"/>
     <use xlink:href="#ArialMT-45" x="205.615234"/>
     <use xlink:href="#ArialMT-3a" x="272.314453"/>
     <use xlink:href="#ArialMT-20" x="300.097656"/>
     <use xlink:href="#ArialMT-20" x="327.880859"/>
     <use xlink:href="#ArialMT-33" x="355.664062"/>
     <use xlink:href="#ArialMT-2e" x="411.279297"/>
     <use xlink:href="#ArialMT-35" x="439.0625"/>
     <use xlink:href="#ArialMT-38" x="494.677734"/>
     <use xlink:href="#ArialMT-25" x="550.292969"/>
     <use xlink:href="#ArialMT-20" x="639.208984"/>
     <use xlink:href="#ArialMT-20" x="666.992188"/>
     <use xlink:href="#ArialMT-20" x="694.775391"/>
     <use xlink:href="#ArialMT-20" x="722.558594"/>
     <use xlink:href="#ArialMT-20" x="750.341797"/>
     <use xlink:href="#ArialMT-4d" x="778.125"/>
     <use xlink:href="#ArialMT-41" x="861.425781"/>
     <use xlink:href="#ArialMT-50" x="928.125"/>
     <use xlink:href="#ArialMT-45" x="994.824219"/>
     <use xlink:href="#ArialMT-3a" x="1061.523438"/>
     <use xlink:href="#ArialMT-20" x="1089.306641"/>
     <use xlink:href="#ArialMT-20" x="1117.089844"/>
     <use xlink:href="#ArialMT-36" x="1144.873047"/>
     <use xlink:href="#ArialMT-33" x="1200.488281"/>
     <use xlink:href="#ArialMT-2e" x="1256.103516"/>
     <use xlink:href="#ArialMT-37" x="1283.886719"/>
     <use xlink:href="#ArialMT-34" x="1339.501953"/>
     <use xlink:href="#ArialMT-25" x="1395.117188"/>
     <use xlink:href="#ArialMT-20" x="1484.033203"/>
     <use xlink:href="#ArialMT-20" x="1511.816406"/>
     <use xlink:href="#ArialMT-20" x="1539.599609"/>
     <use xlink:href="#ArialMT-20" x="1567.382812"/>
     <use xlink:href="#ArialMT-20" x="1595.166016"/>
     <use xlink:href="#ArialMT-20" x="1622.949219"/>
     <use xlink:href="#ArialMT-20" x="1650.732422"/>
     <use xlink:href="#ArialMT-20" x="1678.515625"/>
     <use xlink:href="#ArialMT-20" x="1706.298828"/>
     <use xlink:href="#ArialMT-20" x="1734.082031"/>
     <use xlink:href="#ArialMT-20" x="1761.865234"/>
     <use xlink:href="#ArialMT-20" x="1789.648438"/>
     <use xlink:href="#ArialMT-20" x="1817.431641"/>
     <use xlink:href="#ArialMT-20" x="1845.214844"/>
     <use xlink:href="#ArialMT-20" x="1872.998047"/>
     <use xlink:href="#ArialMT-20" x="1900.78125"/>
     <use xlink:href="#ArialMT-20" x="1928.564453"/>
     <use xlink:href="#ArialMT-20" x="1956.347656"/>
     <use xlink:href="#ArialMT-20" x="1984.130859"/>
     <use xlink:href="#ArialMT-20" x="2011.914062"/>
     <use xlink:href="#ArialMT-20" x="2039.697266"/>
     <use xlink:href="#ArialMT-20" x="2067.480469"/>
     <use xlink:href="#ArialMT-20" x="2095.263672"/>
     <use xlink:href="#ArialMT-4d" x="2123.046875"/>
     <use xlink:href="#ArialMT-6f" x="2206.347656"/>
     <use xlink:href="#ArialMT-64" x="2261.962891"/>
     <use xlink:href="#ArialMT-65" x="2317.578125"/>
     <use xlink:href="#ArialMT-6c" x="2373.193359"/>
     <use xlink:href="#ArialMT-3a" x="2395.410156"/>
     <use xlink:href="#ArialMT-20" x="2423.193359"/>
     <use xlink:href="#ArialMT-53" x="2450.976562"/>
     <use xlink:href="#ArialMT-54" x="2517.675781"/>
     <use xlink:href="#ArialMT-53" x="2578.759766"/>
     <use xlink:href="#ArialMT-20" x="2645.458984"/>
     <use xlink:href="#ArialMT-2d" x="2673.242188"/>
     <use xlink:href="#ArialMT-20" x="2706.542969"/>
     <use xlink:href="#ArialMT-56" x="2734.326172"/>
     <use xlink:href="#ArialMT-61" x="2793.650391"/>
     <use xlink:href="#ArialMT-72" x="2849.265625"/>
     <use xlink:href="#ArialMT-69" x="2882.566406"/>
     <use xlink:href="#ArialMT-61" x="2904.783203"/>
     <use xlink:href="#ArialMT-74" x="2960.398438"/>
     <use xlink:href="#ArialMT-69" x="2988.181641"/>
     <use xlink:href="#ArialMT-6f" x="3010.398438"/>
     <use xlink:href="#ArialMT-6e" x="3066.013672"/>
     <use xlink:href="#ArialMT-61" x="3121.628906"/>
     <use xlink:href="#ArialMT-6c" x="3177.244141"/>
     <use xlink:href="#ArialMT-20" x="3199.460938"/>
     <use xlink:href="#ArialMT-49" x="3227.244141"/>
     <use xlink:href="#ArialMT-6e" x="3255.027344"/>
     <use xlink:href="#ArialMT-66" x="3310.642578"/>
     <use xlink:href="#ArialMT-65" x="3338.425781"/>
     <use xlink:href="#ArialMT-72" x="3394.041016"/>
     <use xlink:href="#ArialMT-65" x="3427.341797"/>
     <use xlink:href="#ArialMT-6e" x="3482.957031"/>
     <use xlink:href="#ArialMT-63" x="3538.572266"/>
     <use xlink:href="#ArialMT-65" x="3588.572266"/>
     <use xlink:href="#ArialMT-20" x="3644.1875"/>
     <use xlink:href="#ArialMT-46" x="3671.970703"/>
     <use xlink:href="#ArialMT-69" x="3733.054688"/>
     <use xlink:href="#ArialMT-74" x="3755.271484"/>
    </g>
   </g>
   <g id="legend_1">
    <g id="patch_7">
     <path d="M 115.7 114.239375 
L 194.915469 114.239375 
Q 197.115469 114.239375 197.115469 112.039375 
L 197.115469 50.9 
Q 197.115469 48.7 194.915469 48.7 
L 115.7 48.7 
Q 113.5 48.7 113.5 50.9 
L 113.5 112.039375 
Q 113.5 114.239375 115.7 114.239375 
z
" style="fill: #ffffff; opacity: 0.8; stroke: #cccccc; stroke-linejoin: miter"/>
    </g>
    <g id="patch_8">
     <path d="M 117.9 60.973594 
L 139.9 60.973594 
L 139.9 53.273594 
L 117.9 53.273594 
z
" style="fill: #ffa500; fill-opacity: 0.25; stroke: #ffa500; stroke-opacity: 0.25; stroke-linejoin: miter"/>
    </g>
    <g id="text_20">
     <!-- 95% HDI -->
     <g style="fill: #262626" transform="translate(148.7 60.973594) scale(0.11 -0.11)">
      <defs>
       <path id="ArialMT-48" d="M 513 0 
L 513 4581 
L 1119 4581 
L 1119 2700 
L 3500 2700 
L 3500 4581 
L 4106 4581 
L 4106 0 
L 3500 0 
L 3500 2159 
L 1119 2159 
L 1119 0 
L 513 0 
z
" transform="scale(0.015625)"/>
      </defs>
      <use xlink:href="#ArialMT-39"/>
      <use xlink:href="#ArialMT-35" x="55.615234"/>
      <use xlink:href="#ArialMT-25" x="111.230469"/>
      <use xlink:href="#ArialMT-20" x="200.146484"/>
      <use xlink:href="#ArialMT-48" x="227.929688"/>
      <use xlink:href="#ArialMT-44" x="300.146484"/>
      <use xlink:href="#ArialMT-49" x="372.363281"/>
     </g>
    </g>
    <g id="line2d_19">
     <path d="M 117.9 72.683437 
L 128.9 72.683437 
L 139.9 72.683437 
" style="fill: none; stroke: #008080; stroke-width: 1.5; stroke-linecap: round"/>
    </g>
    <g id="text_21">
     <!-- Train -->
     <g style="fill: #262626" transform="translate(148.7 76.533437) scale(0.11 -0.11)">
      <use xlink:href="#ArialMT-54"/>
      <use xlink:href="#ArialMT-72" x="57.333984"/>
      <use xlink:href="#ArialMT-61" x="90.634766"/>
      <use xlink:href="#ArialMT-69" x="146.25"/>
      <use xlink:href="#ArialMT-6e" x="168.466797"/>
     </g>
    </g>
    <g id="PathCollection_2">
     <g>
      <use xlink:href="#m1bd1f0045e" x="128.9" y="89.205781" style="fill: #ff0000; fill-opacity: 0.8; stroke: #ffffff; stroke-opacity: 0.8; stroke-width: 0.565685"/>
     </g>
    </g>
    <g id="text_22">
     <!-- Test -->
     <g style="fill: #262626" transform="translate(148.7 92.093281) scale(0.11 -0.11)">
      <use xlink:href="#ArialMT-54"/>
      <use xlink:href="#ArialMT-65" x="49.958984"/>
      <use xlink:href="#ArialMT-73" x="105.574219"/>
      <use xlink:href="#ArialMT-74" x="155.574219"/>
     </g>
    </g>
    <g id="line2d_20">
     <path d="M 117.9 103.803125 
L 128.9 103.803125 
L 139.9 103.803125 
" style="fill: none; stroke: #0000ff; stroke-width: 2; stroke-linecap: round"/>
    </g>
    <g id="text_23">
     <!-- Forecast -->
     <g style="fill: #262626" transform="translate(148.7 107.653125) scale(0.11 -0.11)">
      <use xlink:href="#ArialMT-46"/>
      <use xlink:href="#ArialMT-6f" x="61.083984"/>
      <use xlink:href="#ArialMT-72" x="116.699219"/>
      <use xlink:href="#ArialMT-65" x="150"/>
      <use xlink:href="#ArialMT-63" x="205.615234"/>
      <use xlink:href="#ArialMT-61" x="255.615234"/>
      <use xlink:href="#ArialMT-73" x="311.230469"/>
      <use xlink:href="#ArialMT-74" x="361.230469"/>
     </g>
    </g>
   </g>
  </g>
  <g id="text_24">
   <!-- Rotavirus Weekly Cases -->
   <g style="fill: #262626" transform="translate(353.705625 17.68275) scale(0.144 -0.144)">
    <defs>
     <path id="ArialMT-52" d="M 503 0 
L 503 4581 
L 2534 4581 
Q 3147 4581 3465 4457 
Q 3784 4334 3975 4021 
Q 4166 3709 4166 3331 
Q 4166 2844 3850 2509 
Q 3534 2175 2875 2084 
Q 3116 1969 3241 1856 
Q 3506 1613 3744 1247 
L 4541 0 
L 3778 0 
L 3172 953 
Q 2906 1366 2734 1584 
Q 2563 1803 2427 1890 
Q 2291 1978 2150 2013 
Q 2047 2034 1813 2034 
L 1109 2034 
L 1109 0 
L 503 0 
z
M 1109 2559 
L 2413 2559 
Q 2828 2559 3062 2645 
Q 3297 2731 3419 2920 
Q 3541 3109 3541 3331 
Q 3541 3656 3305 3865 
Q 3069 4075 2559 4075 
L 1109 4075 
L 1109 2559 
z
" transform="scale(0.015625)"/>
     <path id="ArialMT-76" d="M 1344 0 
L 81 3319 
L 675 3319 
L 1388 1331 
Q 1503 1009 1600 663 
Q 1675 925 1809 1294 
L 2547 3319 
L 3125 3319 
L 1869 0 
L 1344 0 
z
" transform="scale(0.015625)"/>
     <path id="ArialMT-57" d="M 1294 0 
L 78 4581 
L 700 4581 
L 1397 1578 
Q 1509 1106 1591 641 
Q 1766 1375 1797 1488 
L 2669 4581 
L 3400 4581 
L 4056 2263 
Q 4303 1400 4413 641 
Q 4500 1075 4641 1638 
L 5359 4581 
L 5969 4581 
L 4713 0 
L 4128 0 
L 3163 3491 
Q 3041 3928 3019 4028 
Q 2947 3713 2884 3491 
L 1913 0 
L 1294 0 
z
" transform="scale(0.015625)"/>
     <path id="ArialMT-6b" d="M 425 0 
L 425 4581 
L 988 4581 
L 988 1969 
L 2319 3319 
L 3047 3319 
L 1778 2088 
L 3175 0 
L 2481 0 
L 1384 1697 
L 988 1316 
L 988 0 
L 425 0 
z
" transform="scale(0.015625)"/>
     <path id="ArialMT-79" d="M 397 -1278 
L 334 -750 
Q 519 -800 656 -800 
Q 844 -800 956 -737 
Q 1069 -675 1141 -563 
Q 1194 -478 1313 -144 
Q 1328 -97 1363 -6 
L 103 3319 
L 709 3319 
L 1400 1397 
Q 1534 1031 1641 628 
Q 1738 1016 1872 1384 
L 2581 3319 
L 3144 3319 
L 1881 -56 
Q 1678 -603 1566 -809 
Q 1416 -1088 1222 -1217 
Q 1028 -1347 759 -1347 
Q 597 -1347 397 -1278 
z
" transform="scale(0.015625)"/>
    </defs>
    <use xlink:href="#ArialMT-52"/>
    <use xlink:href="#ArialMT-6f" x="72.216797"/>
    <use xlink:href="#ArialMT-74" x="127.832031"/>
    <use xlink:href="#ArialMT-61" x="155.615234"/>
    <use xlink:href="#ArialMT-76" x="211.230469"/>
    <use xlink:href="#ArialMT-69" x="261.230469"/>
    <use xlink:href="#ArialMT-72" x="283.447266"/>
    <use xlink:href="#ArialMT-75" x="316.748047"/>
    <use xlink:href="#ArialMT-73" x="372.363281"/>
    <use xlink:href="#ArialMT-20" x="422.363281"/>
    <use xlink:href="#ArialMT-57" x="450.146484"/>
    <use xlink:href="#ArialMT-65" x="542.78125"/>
    <use xlink:href="#ArialMT-65" x="598.396484"/>
    <use xlink:href="#ArialMT-6b" x="654.011719"/>
    <use xlink:href="#ArialMT-6c" x="704.011719"/>
    <use xlink:href="#ArialMT-79" x="726.228516"/>
    <use xlink:href="#ArialMT-20" x="776.228516"/>
    <use xlink:href="#ArialMT-43" x="804.011719"/>
    <use xlink:href="#ArialMT-61" x="876.228516"/>
    <use xlink:href="#ArialMT-73" x="931.84375"/>
    <use xlink:href="#ArialMT-65" x="981.84375"/>
    <use xlink:href="#ArialMT-73" x="1037.458984"/>
   </g>
  </g>
 </g>
 <defs>
  <clipPath id="p685100086b">
   <rect x="108" y="43.2" width="669.6" height="277.2"/>
  </clipPath>
 </defs>
</svg>
