<?xml version="1.0" encoding="utf-8" standalone="no"?>
<!DOCTYPE svg PUBLIC "-//W3C//DTD SVG 1.1//EN"
  "http://www.w3.org/Graphics/SVG/1.1/DTD/svg11.dtd">
<svg xmlns:xlink="http://www.w3.org/1999/xlink" width="864pt" height="360pt" viewBox="0 0 864 360" xmlns="http://www.w3.org/2000/svg" version="1.1">
 <metadata>
  <rdf:RDF xmlns:dc="http://purl.org/dc/elements/1.1/" xmlns:cc="http://creativecommons.org/ns#" xmlns:rdf="http://www.w3.org/1999/02/22-rdf-syntax-ns#">
   <cc:Work>
    <dc:type rdf:resource="http://purl.org/dc/dcmitype/StillImage"/>
    <dc:date>2023-08-01T02:49:45.828370</dc:date>
    <dc:format>image/svg+xml</dc:format>
    <dc:creator>
     <cc:Agent>
      <dc:title>Matplotlib v3.7.1, https://matplotlib.org/</dc:title>
     </cc:Agent>
    </dc:creator>
   </cc:Work>
  </rdf:RDF>
 </metadata>
 <defs>
  <style type="text/css">*{stroke-linejoin: round; stroke-linecap: butt}</style>
 </defs>
 <g id="figure_1">
  <g id="patch_1">
   <path d="M 0 360 
L 864 360 
L 864 0 
L 0 0 
z
" style="fill: #ffffff"/>
  </g>
  <g id="axes_1">
   <g id="patch_2">
    <path d="M 108 320.4 
L 777.6 320.4 
L 777.6 43.2 
L 108 43.2 
z
" style="fill: #ffffff"/>
   </g>
   <g id="matplotlib.axis_1">
    <g id="xtick_1">
     <g id="line2d_1">
      <defs>
       <path id="md8abc11552" d="M 0 0 
L 0 6 
" style="stroke: #262626; stroke-width: 1.25"/>
      </defs>
      <g>
       <use xlink:href="#md8abc11552" x="130.304942" y="320.4" style="fill: #262626; stroke: #262626; stroke-width: 1.25"/>
      </g>
     </g>
     <g id="text_1">
      <!-- 2016 -->
      <g style="fill: #262626" transform="translate(118.070879 337.773594) scale(0.11 -0.11)">
       <defs>
        <path id="ArialMT-32" d="M 3222 541 
L 3222 0 
L 194 0 
Q 188 203 259 391 
Q 375 700 629 1000 
Q 884 1300 1366 1694 
Q 2113 2306 2375 2664 
Q 2638 3022 2638 3341 
Q 2638 3675 2398 3904 
Q 2159 4134 1775 4134 
Q 1369 4134 1125 3890 
Q 881 3647 878 3216 
L 300 3275 
Q 359 3922 746 4261 
Q 1134 4600 1788 4600 
Q 2447 4600 2831 4234 
Q 3216 3869 3216 3328 
Q 3216 3053 3103 2787 
Q 2991 2522 2730 2228 
Q 2469 1934 1863 1422 
Q 1356 997 1212 845 
Q 1069 694 975 541 
L 3222 541 
z
" transform="scale(0.015625)"/>
        <path id="ArialMT-30" d="M 266 2259 
Q 266 3072 433 3567 
Q 600 4063 929 4331 
Q 1259 4600 1759 4600 
Q 2128 4600 2406 4451 
Q 2684 4303 2865 4023 
Q 3047 3744 3150 3342 
Q 3253 2941 3253 2259 
Q 3253 1453 3087 958 
Q 2922 463 2592 192 
Q 2263 -78 1759 -78 
Q 1097 -78 719 397 
Q 266 969 266 2259 
z
M 844 2259 
Q 844 1131 1108 757 
Q 1372 384 1759 384 
Q 2147 384 2411 759 
Q 2675 1134 2675 2259 
Q 2675 3391 2411 3762 
Q 2147 4134 1753 4134 
Q 1366 4134 1134 3806 
Q 844 3388 844 2259 
z
" transform="scale(0.015625)"/>
        <path id="ArialMT-31" d="M 2384 0 
L 1822 0 
L 1822 3584 
Q 1619 3391 1289 3197 
Q 959 3003 697 2906 
L 697 3450 
Q 1169 3672 1522 3987 
Q 1875 4303 2022 4600 
L 2384 4600 
L 2384 0 
z
" transform="scale(0.015625)"/>
        <path id="ArialMT-36" d="M 3184 3459 
L 2625 3416 
Q 2550 3747 2413 3897 
Q 2184 4138 1850 4138 
Q 1581 4138 1378 3988 
Q 1113 3794 959 3422 
Q 806 3050 800 2363 
Q 1003 2672 1297 2822 
Q 1591 2972 1913 2972 
Q 2475 2972 2870 2558 
Q 3266 2144 3266 1488 
Q 3266 1056 3080 686 
Q 2894 316 2569 119 
Q 2244 -78 1831 -78 
Q 1128 -78 684 439 
Q 241 956 241 2144 
Q 241 3472 731 4075 
Q 1159 4600 1884 4600 
Q 2425 4600 2770 4297 
Q 3116 3994 3184 3459 
z
M 888 1484 
Q 888 1194 1011 928 
Q 1134 663 1356 523 
Q 1578 384 1822 384 
Q 2178 384 2434 671 
Q 2691 959 2691 1453 
Q 2691 1928 2437 2201 
Q 2184 2475 1800 2475 
Q 1419 2475 1153 2201 
Q 888 1928 888 1484 
z
" transform="scale(0.015625)"/>
       </defs>
       <use xlink:href="#ArialMT-32"/>
       <use xlink:href="#ArialMT-30" x="55.615234"/>
       <use xlink:href="#ArialMT-31" x="111.230469"/>
       <use xlink:href="#ArialMT-36" x="166.845703"/>
      </g>
     </g>
    </g>
    <g id="xtick_2">
     <g id="line2d_2">
      <g>
       <use xlink:href="#md8abc11552" x="212.974397" y="320.4" style="fill: #262626; stroke: #262626; stroke-width: 1.25"/>
      </g>
     </g>
     <g id="text_2">
      <!-- 2017 -->
      <g style="fill: #262626" transform="translate(200.740335 337.773594) scale(0.11 -0.11)">
       <defs>
        <path id="ArialMT-37" d="M 303 3981 
L 303 4522 
L 3269 4522 
L 3269 4084 
Q 2831 3619 2401 2847 
Q 1972 2075 1738 1259 
Q 1569 684 1522 0 
L 944 0 
Q 953 541 1156 1306 
Q 1359 2072 1739 2783 
Q 2119 3494 2547 3981 
L 303 3981 
z
" transform="scale(0.015625)"/>
       </defs>
       <use xlink:href="#ArialMT-32"/>
       <use xlink:href="#ArialMT-30" x="55.615234"/>
       <use xlink:href="#ArialMT-31" x="111.230469"/>
       <use xlink:href="#ArialMT-37" x="166.845703"/>
      </g>
     </g>
    </g>
    <g id="xtick_3">
     <g id="line2d_3">
      <g>
       <use xlink:href="#md8abc11552" x="295.417979" y="320.4" style="fill: #262626; stroke: #262626; stroke-width: 1.25"/>
      </g>
     </g>
     <g id="text_3">
      <!-- 2018 -->
      <g style="fill: #262626" transform="translate(283.183917 337.773594) scale(0.11 -0.11)">
       <defs>
        <path id="ArialMT-38" d="M 1131 2484 
Q 781 2613 612 2850 
Q 444 3088 444 3419 
Q 444 3919 803 4259 
Q 1163 4600 1759 4600 
Q 2359 4600 2725 4251 
Q 3091 3903 3091 3403 
Q 3091 3084 2923 2848 
Q 2756 2613 2416 2484 
Q 2838 2347 3058 2040 
Q 3278 1734 3278 1309 
Q 3278 722 2862 322 
Q 2447 -78 1769 -78 
Q 1091 -78 675 323 
Q 259 725 259 1325 
Q 259 1772 486 2073 
Q 713 2375 1131 2484 
z
M 1019 3438 
Q 1019 3113 1228 2906 
Q 1438 2700 1772 2700 
Q 2097 2700 2305 2904 
Q 2513 3109 2513 3406 
Q 2513 3716 2298 3927 
Q 2084 4138 1766 4138 
Q 1444 4138 1231 3931 
Q 1019 3725 1019 3438 
z
M 838 1322 
Q 838 1081 952 856 
Q 1066 631 1291 507 
Q 1516 384 1775 384 
Q 2178 384 2440 643 
Q 2703 903 2703 1303 
Q 2703 1709 2433 1975 
Q 2163 2241 1756 2241 
Q 1359 2241 1098 1978 
Q 838 1716 838 1322 
z
" transform="scale(0.015625)"/>
       </defs>
       <use xlink:href="#ArialMT-32"/>
       <use xlink:href="#ArialMT-30" x="55.615234"/>
       <use xlink:href="#ArialMT-31" x="111.230469"/>
       <use xlink:href="#ArialMT-38" x="166.845703"/>
      </g>
     </g>
    </g>
    <g id="xtick_4">
     <g id="line2d_4">
      <g>
       <use xlink:href="#md8abc11552" x="377.861562" y="320.4" style="fill: #262626; stroke: #262626; stroke-width: 1.25"/>
      </g>
     </g>
     <g id="text_4">
      <!-- 2019 -->
      <g style="fill: #262626" transform="translate(365.627499 337.773594) scale(0.11 -0.11)">
       <defs>
        <path id="ArialMT-39" d="M 350 1059 
L 891 1109 
Q 959 728 1153 556 
Q 1347 384 1650 384 
Q 1909 384 2104 503 
Q 2300 622 2425 820 
Q 2550 1019 2634 1356 
Q 2719 1694 2719 2044 
Q 2719 2081 2716 2156 
Q 2547 1888 2255 1720 
Q 1963 1553 1622 1553 
Q 1053 1553 659 1965 
Q 266 2378 266 3053 
Q 266 3750 677 4175 
Q 1088 4600 1706 4600 
Q 2153 4600 2523 4359 
Q 2894 4119 3086 3673 
Q 3278 3228 3278 2384 
Q 3278 1506 3087 986 
Q 2897 466 2520 194 
Q 2144 -78 1638 -78 
Q 1100 -78 759 220 
Q 419 519 350 1059 
z
M 2653 3081 
Q 2653 3566 2395 3850 
Q 2138 4134 1775 4134 
Q 1400 4134 1122 3828 
Q 844 3522 844 3034 
Q 844 2597 1108 2323 
Q 1372 2050 1759 2050 
Q 2150 2050 2401 2323 
Q 2653 2597 2653 3081 
z
" transform="scale(0.015625)"/>
       </defs>
       <use xlink:href="#ArialMT-32"/>
       <use xlink:href="#ArialMT-30" x="55.615234"/>
       <use xlink:href="#ArialMT-31" x="111.230469"/>
       <use xlink:href="#ArialMT-39" x="166.845703"/>
      </g>
     </g>
    </g>
    <g id="xtick_5">
     <g id="line2d_5">
      <g>
       <use xlink:href="#md8abc11552" x="460.305144" y="320.4" style="fill: #262626; stroke: #262626; stroke-width: 1.25"/>
      </g>
     </g>
     <g id="text_5">
      <!-- 2020 -->
      <g style="fill: #262626" transform="translate(448.071082 337.773594) scale(0.11 -0.11)">
       <use xlink:href="#ArialMT-32"/>
       <use xlink:href="#ArialMT-30" x="55.615234"/>
       <use xlink:href="#ArialMT-32" x="111.230469"/>
       <use xlink:href="#ArialMT-30" x="166.845703"/>
      </g>
     </g>
    </g>
    <g id="xtick_6">
     <g id="line2d_6">
      <g>
       <use xlink:href="#md8abc11552" x="542.974599" y="320.4" style="fill: #262626; stroke: #262626; stroke-width: 1.25"/>
      </g>
     </g>
     <g id="text_6">
      <!-- 2021 -->
      <g style="fill: #262626" transform="translate(530.740537 337.773594) scale(0.11 -0.11)">
       <use xlink:href="#ArialMT-32"/>
       <use xlink:href="#ArialMT-30" x="55.615234"/>
       <use xlink:href="#ArialMT-32" x="111.230469"/>
       <use xlink:href="#ArialMT-31" x="166.845703"/>
      </g>
     </g>
    </g>
    <g id="xtick_7">
     <g id="line2d_7">
      <g>
       <use xlink:href="#md8abc11552" x="625.418182" y="320.4" style="fill: #262626; stroke: #262626; stroke-width: 1.25"/>
      </g>
     </g>
     <g id="text_7">
      <!-- 2022 -->
      <g style="fill: #262626" transform="translate(613.184119 337.773594) scale(0.11 -0.11)">
       <use xlink:href="#ArialMT-32"/>
       <use xlink:href="#ArialMT-30" x="55.615234"/>
       <use xlink:href="#ArialMT-32" x="111.230469"/>
       <use xlink:href="#ArialMT-32" x="166.845703"/>
      </g>
     </g>
    </g>
    <g id="xtick_8">
     <g id="line2d_8">
      <g>
       <use xlink:href="#md8abc11552" x="707.861764" y="320.4" style="fill: #262626; stroke: #262626; stroke-width: 1.25"/>
      </g>
     </g>
     <g id="text_8">
      <!-- 2023 -->
      <g style="fill: #262626" transform="translate(695.627702 337.773594) scale(0.11 -0.11)">
       <defs>
        <path id="ArialMT-33" d="M 269 1209 
L 831 1284 
Q 928 806 1161 595 
Q 1394 384 1728 384 
Q 2125 384 2398 659 
Q 2672 934 2672 1341 
Q 2672 1728 2419 1979 
Q 2166 2231 1775 2231 
Q 1616 2231 1378 2169 
L 1441 2663 
Q 1497 2656 1531 2656 
Q 1891 2656 2178 2843 
Q 2466 3031 2466 3422 
Q 2466 3731 2256 3934 
Q 2047 4138 1716 4138 
Q 1388 4138 1169 3931 
Q 950 3725 888 3313 
L 325 3413 
Q 428 3978 793 4289 
Q 1159 4600 1703 4600 
Q 2078 4600 2393 4439 
Q 2709 4278 2876 4000 
Q 3044 3722 3044 3409 
Q 3044 3113 2884 2869 
Q 2725 2625 2413 2481 
Q 2819 2388 3044 2092 
Q 3269 1797 3269 1353 
Q 3269 753 2831 336 
Q 2394 -81 1725 -81 
Q 1122 -81 723 278 
Q 325 638 269 1209 
z
" transform="scale(0.015625)"/>
       </defs>
       <use xlink:href="#ArialMT-32"/>
       <use xlink:href="#ArialMT-30" x="55.615234"/>
       <use xlink:href="#ArialMT-32" x="111.230469"/>
       <use xlink:href="#ArialMT-33" x="166.845703"/>
      </g>
     </g>
    </g>
    <g id="text_9">
     <!-- Date -->
     <g style="fill: #262626" transform="translate(430.126875 352.549219) scale(0.12 -0.12)">
      <defs>
       <path id="ArialMT-44" d="M 494 0 
L 494 4581 
L 2072 4581 
Q 2606 4581 2888 4516 
Q 3281 4425 3559 4188 
Q 3922 3881 4101 3404 
Q 4281 2928 4281 2316 
Q 4281 1794 4159 1391 
Q 4038 988 3847 723 
Q 3656 459 3429 307 
Q 3203 156 2883 78 
Q 2563 0 2147 0 
L 494 0 
z
M 1100 541 
L 2078 541 
Q 2531 541 2789 625 
Q 3047 709 3200 863 
Q 3416 1078 3536 1442 
Q 3656 1806 3656 2325 
Q 3656 3044 3420 3430 
Q 3184 3816 2847 3947 
Q 2603 4041 2063 4041 
L 1100 4041 
L 1100 541 
z
" transform="scale(0.015625)"/>
       <path id="ArialMT-61" d="M 2588 409 
Q 2275 144 1986 34 
Q 1697 -75 1366 -75 
Q 819 -75 525 192 
Q 231 459 231 875 
Q 231 1119 342 1320 
Q 453 1522 633 1644 
Q 813 1766 1038 1828 
Q 1203 1872 1538 1913 
Q 2219 1994 2541 2106 
Q 2544 2222 2544 2253 
Q 2544 2597 2384 2738 
Q 2169 2928 1744 2928 
Q 1347 2928 1158 2789 
Q 969 2650 878 2297 
L 328 2372 
Q 403 2725 575 2942 
Q 747 3159 1072 3276 
Q 1397 3394 1825 3394 
Q 2250 3394 2515 3294 
Q 2781 3194 2906 3042 
Q 3031 2891 3081 2659 
Q 3109 2516 3109 2141 
L 3109 1391 
Q 3109 606 3145 398 
Q 3181 191 3288 0 
L 2700 0 
Q 2613 175 2588 409 
z
M 2541 1666 
Q 2234 1541 1622 1453 
Q 1275 1403 1131 1340 
Q 988 1278 909 1158 
Q 831 1038 831 891 
Q 831 666 1001 516 
Q 1172 366 1500 366 
Q 1825 366 2078 508 
Q 2331 650 2450 897 
Q 2541 1088 2541 1459 
L 2541 1666 
z
" transform="scale(0.015625)"/>
       <path id="ArialMT-74" d="M 1650 503 
L 1731 6 
Q 1494 -44 1306 -44 
Q 1000 -44 831 53 
Q 663 150 594 308 
Q 525 466 525 972 
L 525 2881 
L 113 2881 
L 113 3319 
L 525 3319 
L 525 4141 
L 1084 4478 
L 1084 3319 
L 1650 3319 
L 1650 2881 
L 1084 2881 
L 1084 941 
Q 1084 700 1114 631 
Q 1144 563 1211 522 
Q 1278 481 1403 481 
Q 1497 481 1650 503 
z
" transform="scale(0.015625)"/>
       <path id="ArialMT-65" d="M 2694 1069 
L 3275 997 
Q 3138 488 2766 206 
Q 2394 -75 1816 -75 
Q 1088 -75 661 373 
Q 234 822 234 1631 
Q 234 2469 665 2931 
Q 1097 3394 1784 3394 
Q 2450 3394 2872 2941 
Q 3294 2488 3294 1666 
Q 3294 1616 3291 1516 
L 816 1516 
Q 847 969 1125 678 
Q 1403 388 1819 388 
Q 2128 388 2347 550 
Q 2566 713 2694 1069 
z
M 847 1978 
L 2700 1978 
Q 2663 2397 2488 2606 
Q 2219 2931 1791 2931 
Q 1403 2931 1139 2672 
Q 875 2413 847 1978 
z
" transform="scale(0.015625)"/>
      </defs>
      <use xlink:href="#ArialMT-44"/>
      <use xlink:href="#ArialMT-61" x="72.216797"/>
      <use xlink:href="#ArialMT-74" x="127.832031"/>
      <use xlink:href="#ArialMT-65" x="155.615234"/>
     </g>
    </g>
   </g>
   <g id="matplotlib.axis_2">
    <g id="ytick_1">
     <g id="line2d_9">
      <defs>
       <path id="md0ab43ffd1" d="M 0 0 
L -6 0 
" style="stroke: #262626; stroke-width: 1.25"/>
      </defs>
      <g>
       <use xlink:href="#md0ab43ffd1" x="108" y="318.416713" style="fill: #262626; stroke: #262626; stroke-width: 1.25"/>
      </g>
     </g>
     <g id="text_10">
      <!-- 0 -->
      <g style="fill: #262626" transform="translate(92.382969 322.35351) scale(0.11 -0.11)">
       <use xlink:href="#ArialMT-30"/>
      </g>
     </g>
    </g>
    <g id="ytick_2">
     <g id="line2d_10">
      <g>
       <use xlink:href="#md0ab43ffd1" x="108" y="278.750981" style="fill: #262626; stroke: #262626; stroke-width: 1.25"/>
      </g>
     </g>
     <g id="text_11">
      <!-- 1000 -->
      <g style="fill: #262626" transform="translate(74.031875 282.687778) scale(0.11 -0.11)">
       <use xlink:href="#ArialMT-31"/>
       <use xlink:href="#ArialMT-30" x="55.615234"/>
       <use xlink:href="#ArialMT-30" x="111.230469"/>
       <use xlink:href="#ArialMT-30" x="166.845703"/>
      </g>
     </g>
    </g>
    <g id="ytick_3">
     <g id="line2d_11">
      <g>
       <use xlink:href="#md0ab43ffd1" x="108" y="239.085249" style="fill: #262626; stroke: #262626; stroke-width: 1.25"/>
      </g>
     </g>
     <g id="text_12">
      <!-- 2000 -->
      <g style="fill: #262626" transform="translate(74.031875 243.022046) scale(0.11 -0.11)">
       <use xlink:href="#ArialMT-32"/>
       <use xlink:href="#ArialMT-30" x="55.615234"/>
       <use xlink:href="#ArialMT-30" x="111.230469"/>
       <use xlink:href="#ArialMT-30" x="166.845703"/>
      </g>
     </g>
    </g>
    <g id="ytick_4">
     <g id="line2d_12">
      <g>
       <use xlink:href="#md0ab43ffd1" x="108" y="199.419516" style="fill: #262626; stroke: #262626; stroke-width: 1.25"/>
      </g>
     </g>
     <g id="text_13">
      <!-- 3000 -->
      <g style="fill: #262626" transform="translate(74.031875 203.356313) scale(0.11 -0.11)">
       <use xlink:href="#ArialMT-33"/>
       <use xlink:href="#ArialMT-30" x="55.615234"/>
       <use xlink:href="#ArialMT-30" x="111.230469"/>
       <use xlink:href="#ArialMT-30" x="166.845703"/>
      </g>
     </g>
    </g>
    <g id="ytick_5">
     <g id="line2d_13">
      <g>
       <use xlink:href="#md0ab43ffd1" x="108" y="159.753784" style="fill: #262626; stroke: #262626; stroke-width: 1.25"/>
      </g>
     </g>
     <g id="text_14">
      <!-- 4000 -->
      <g style="fill: #262626" transform="translate(74.031875 163.690581) scale(0.11 -0.11)">
       <defs>
        <path id="ArialMT-34" d="M 2069 0 
L 2069 1097 
L 81 1097 
L 81 1613 
L 2172 4581 
L 2631 4581 
L 2631 1613 
L 3250 1613 
L 3250 1097 
L 2631 1097 
L 2631 0 
L 2069 0 
z
M 2069 1613 
L 2069 3678 
L 634 1613 
L 2069 1613 
z
" transform="scale(0.015625)"/>
       </defs>
       <use xlink:href="#ArialMT-34"/>
       <use xlink:href="#ArialMT-30" x="55.615234"/>
       <use xlink:href="#ArialMT-30" x="111.230469"/>
       <use xlink:href="#ArialMT-30" x="166.845703"/>
      </g>
     </g>
    </g>
    <g id="ytick_6">
     <g id="line2d_14">
      <g>
       <use xlink:href="#md0ab43ffd1" x="108" y="120.088052" style="fill: #262626; stroke: #262626; stroke-width: 1.25"/>
      </g>
     </g>
     <g id="text_15">
      <!-- 5000 -->
      <g style="fill: #262626" transform="translate(74.031875 124.024849) scale(0.11 -0.11)">
       <defs>
        <path id="ArialMT-35" d="M 266 1200 
L 856 1250 
Q 922 819 1161 601 
Q 1400 384 1738 384 
Q 2144 384 2425 690 
Q 2706 997 2706 1503 
Q 2706 1984 2436 2262 
Q 2166 2541 1728 2541 
Q 1456 2541 1237 2417 
Q 1019 2294 894 2097 
L 366 2166 
L 809 4519 
L 3088 4519 
L 3088 3981 
L 1259 3981 
L 1013 2750 
Q 1425 3038 1878 3038 
Q 2478 3038 2890 2622 
Q 3303 2206 3303 1553 
Q 3303 931 2941 478 
Q 2500 -78 1738 -78 
Q 1113 -78 717 272 
Q 322 622 266 1200 
z
" transform="scale(0.015625)"/>
       </defs>
       <use xlink:href="#ArialMT-35"/>
       <use xlink:href="#ArialMT-30" x="55.615234"/>
       <use xlink:href="#ArialMT-30" x="111.230469"/>
       <use xlink:href="#ArialMT-30" x="166.845703"/>
      </g>
     </g>
    </g>
    <g id="ytick_7">
     <g id="line2d_15">
      <g>
       <use xlink:href="#md0ab43ffd1" x="108" y="80.422319" style="fill: #262626; stroke: #262626; stroke-width: 1.25"/>
      </g>
     </g>
     <g id="text_16">
      <!-- 6000 -->
      <g style="fill: #262626" transform="translate(74.031875 84.359116) scale(0.11 -0.11)">
       <use xlink:href="#ArialMT-36"/>
       <use xlink:href="#ArialMT-30" x="55.615234"/>
       <use xlink:href="#ArialMT-30" x="111.230469"/>
       <use xlink:href="#ArialMT-30" x="166.845703"/>
      </g>
     </g>
    </g>
    <g id="text_17">
     <!-- Number of Cases -->
     <g style="fill: #262626" transform="translate(67.646875 228.481875) rotate(-90) scale(0.12 -0.12)">
      <defs>
       <path id="ArialMT-4e" d="M 488 0 
L 488 4581 
L 1109 4581 
L 3516 984 
L 3516 4581 
L 4097 4581 
L 4097 0 
L 3475 0 
L 1069 3600 
L 1069 0 
L 488 0 
z
" transform="scale(0.015625)"/>
       <path id="ArialMT-75" d="M 2597 0 
L 2597 488 
Q 2209 -75 1544 -75 
Q 1250 -75 995 37 
Q 741 150 617 320 
Q 494 491 444 738 
Q 409 903 409 1263 
L 409 3319 
L 972 3319 
L 972 1478 
Q 972 1038 1006 884 
Q 1059 663 1231 536 
Q 1403 409 1656 409 
Q 1909 409 2131 539 
Q 2353 669 2445 892 
Q 2538 1116 2538 1541 
L 2538 3319 
L 3100 3319 
L 3100 0 
L 2597 0 
z
" transform="scale(0.015625)"/>
       <path id="ArialMT-6d" d="M 422 0 
L 422 3319 
L 925 3319 
L 925 2853 
Q 1081 3097 1340 3245 
Q 1600 3394 1931 3394 
Q 2300 3394 2536 3241 
Q 2772 3088 2869 2813 
Q 3263 3394 3894 3394 
Q 4388 3394 4653 3120 
Q 4919 2847 4919 2278 
L 4919 0 
L 4359 0 
L 4359 2091 
Q 4359 2428 4304 2576 
Q 4250 2725 4106 2815 
Q 3963 2906 3769 2906 
Q 3419 2906 3187 2673 
Q 2956 2441 2956 1928 
L 2956 0 
L 2394 0 
L 2394 2156 
Q 2394 2531 2256 2718 
Q 2119 2906 1806 2906 
Q 1569 2906 1367 2781 
Q 1166 2656 1075 2415 
Q 984 2175 984 1722 
L 984 0 
L 422 0 
z
" transform="scale(0.015625)"/>
       <path id="ArialMT-62" d="M 941 0 
L 419 0 
L 419 4581 
L 981 4581 
L 981 2947 
Q 1338 3394 1891 3394 
Q 2197 3394 2470 3270 
Q 2744 3147 2920 2923 
Q 3097 2700 3197 2384 
Q 3297 2069 3297 1709 
Q 3297 856 2875 390 
Q 2453 -75 1863 -75 
Q 1275 -75 941 416 
L 941 0 
z
M 934 1684 
Q 934 1088 1097 822 
Q 1363 388 1816 388 
Q 2184 388 2453 708 
Q 2722 1028 2722 1663 
Q 2722 2313 2464 2622 
Q 2206 2931 1841 2931 
Q 1472 2931 1203 2611 
Q 934 2291 934 1684 
z
" transform="scale(0.015625)"/>
       <path id="ArialMT-72" d="M 416 0 
L 416 3319 
L 922 3319 
L 922 2816 
Q 1116 3169 1280 3281 
Q 1444 3394 1641 3394 
Q 1925 3394 2219 3213 
L 2025 2691 
Q 1819 2813 1613 2813 
Q 1428 2813 1281 2702 
Q 1134 2591 1072 2394 
Q 978 2094 978 1738 
L 978 0 
L 416 0 
z
" transform="scale(0.015625)"/>
       <path id="ArialMT-20" transform="scale(0.015625)"/>
       <path id="ArialMT-6f" d="M 213 1659 
Q 213 2581 725 3025 
Q 1153 3394 1769 3394 
Q 2453 3394 2887 2945 
Q 3322 2497 3322 1706 
Q 3322 1066 3130 698 
Q 2938 331 2570 128 
Q 2203 -75 1769 -75 
Q 1072 -75 642 372 
Q 213 819 213 1659 
z
M 791 1659 
Q 791 1022 1069 705 
Q 1347 388 1769 388 
Q 2188 388 2466 706 
Q 2744 1025 2744 1678 
Q 2744 2294 2464 2611 
Q 2184 2928 1769 2928 
Q 1347 2928 1069 2612 
Q 791 2297 791 1659 
z
" transform="scale(0.015625)"/>
       <path id="ArialMT-66" d="M 556 0 
L 556 2881 
L 59 2881 
L 59 3319 
L 556 3319 
L 556 3672 
Q 556 4006 616 4169 
Q 697 4388 901 4523 
Q 1106 4659 1475 4659 
Q 1713 4659 2000 4603 
L 1916 4113 
Q 1741 4144 1584 4144 
Q 1328 4144 1222 4034 
Q 1116 3925 1116 3625 
L 1116 3319 
L 1763 3319 
L 1763 2881 
L 1116 2881 
L 1116 0 
L 556 0 
z
" transform="scale(0.015625)"/>
       <path id="ArialMT-43" d="M 3763 1606 
L 4369 1453 
Q 4178 706 3683 314 
Q 3188 -78 2472 -78 
Q 1731 -78 1267 223 
Q 803 525 561 1097 
Q 319 1669 319 2325 
Q 319 3041 592 3573 
Q 866 4106 1370 4382 
Q 1875 4659 2481 4659 
Q 3169 4659 3637 4309 
Q 4106 3959 4291 3325 
L 3694 3184 
Q 3534 3684 3231 3912 
Q 2928 4141 2469 4141 
Q 1941 4141 1586 3887 
Q 1231 3634 1087 3207 
Q 944 2781 944 2328 
Q 944 1744 1114 1308 
Q 1284 872 1643 656 
Q 2003 441 2422 441 
Q 2931 441 3284 734 
Q 3638 1028 3763 1606 
z
" transform="scale(0.015625)"/>
       <path id="ArialMT-73" d="M 197 991 
L 753 1078 
Q 800 744 1014 566 
Q 1228 388 1613 388 
Q 2000 388 2187 545 
Q 2375 703 2375 916 
Q 2375 1106 2209 1216 
Q 2094 1291 1634 1406 
Q 1016 1563 777 1677 
Q 538 1791 414 1992 
Q 291 2194 291 2438 
Q 291 2659 392 2848 
Q 494 3038 669 3163 
Q 800 3259 1026 3326 
Q 1253 3394 1513 3394 
Q 1903 3394 2198 3281 
Q 2494 3169 2634 2976 
Q 2775 2784 2828 2463 
L 2278 2388 
Q 2241 2644 2061 2787 
Q 1881 2931 1553 2931 
Q 1166 2931 1000 2803 
Q 834 2675 834 2503 
Q 834 2394 903 2306 
Q 972 2216 1119 2156 
Q 1203 2125 1616 2013 
Q 2213 1853 2448 1751 
Q 2684 1650 2818 1456 
Q 2953 1263 2953 975 
Q 2953 694 2789 445 
Q 2625 197 2315 61 
Q 2006 -75 1616 -75 
Q 969 -75 630 194 
Q 291 463 197 991 
z
" transform="scale(0.015625)"/>
      </defs>
      <use xlink:href="#ArialMT-4e"/>
      <use xlink:href="#ArialMT-75" x="72.216797"/>
      <use xlink:href="#ArialMT-6d" x="127.832031"/>
      <use xlink:href="#ArialMT-62" x="211.132812"/>
      <use xlink:href="#ArialMT-65" x="266.748047"/>
      <use xlink:href="#ArialMT-72" x="322.363281"/>
      <use xlink:href="#ArialMT-20" x="355.664062"/>
      <use xlink:href="#ArialMT-6f" x="383.447266"/>
      <use xlink:href="#ArialMT-66" x="439.0625"/>
      <use xlink:href="#ArialMT-20" x="466.845703"/>
      <use xlink:href="#ArialMT-43" x="494.628906"/>
      <use xlink:href="#ArialMT-61" x="566.845703"/>
      <use xlink:href="#ArialMT-73" x="622.460938"/>
      <use xlink:href="#ArialMT-65" x="672.460938"/>
      <use xlink:href="#ArialMT-73" x="728.076172"/>
     </g>
    </g>
   </g>
   <g id="PolyCollection_1">
    <defs>
     <path id="ma6de2161de" d="M 634.904841 -126.283888 
L 634.904841 -54.70842 
L 636.48595 -41.58289 
L 638.06706 -41.58289 
L 639.64817 -41.58289 
L 641.22928 -41.58289 
L 642.81039 -41.58289 
L 644.391499 -41.58289 
L 645.972609 -41.58289 
L 647.553719 -41.58289 
L 649.134829 -41.58289 
L 650.715939 -41.58289 
L 652.297048 -41.58289 
L 653.878158 -41.58289 
L 655.459268 -41.58289 
L 657.040378 -41.58289 
L 658.621488 -41.58289 
L 660.202597 -41.58289 
L 661.783707 -41.58289 
L 663.364817 -41.58289 
L 664.945927 -41.58289 
L 666.527037 -41.58289 
L 668.108146 -41.58289 
L 669.689256 -41.58289 
L 671.270366 -41.58289 
L 672.851476 -41.58289 
L 674.432586 -41.58289 
L 676.013695 -41.58289 
L 677.594805 -41.58289 
L 679.175915 -41.58289 
L 680.757025 -41.58289 
L 682.338135 -41.58289 
L 683.919244 -41.58289 
L 685.500354 -41.58289 
L 687.081464 -41.58289 
L 688.662574 -41.58289 
L 690.243684 -41.58289 
L 691.824793 -41.58289 
L 693.405903 -41.58289 
L 694.987013 -41.58289 
L 696.568123 -41.58289 
L 698.149233 -41.58289 
L 699.730342 -41.58289 
L 701.311452 -41.58289 
L 702.892562 -41.58289 
L 704.473672 -41.58289 
L 706.054782 -41.58289 
L 707.635891 -41.58289 
L 709.217001 -41.58289 
L 710.798111 -41.58289 
L 712.379221 -41.58289 
L 713.960331 -41.58289 
L 715.54144 -41.58289 
L 717.12255 -41.58289 
L 718.70366 -41.58289 
L 720.28477 -41.58289 
L 721.86588 -41.58289 
L 723.446989 -41.58289 
L 725.028099 -41.58289 
L 726.609209 -41.58289 
L 728.190319 -41.58289 
L 729.771429 -41.58289 
L 731.352538 -41.58289 
L 732.933648 -41.58289 
L 734.514758 -41.58289 
L 736.095868 -41.58289 
L 737.676978 -41.58289 
L 739.258087 -41.58289 
L 740.839197 -41.58289 
L 742.420307 -41.58289 
L 744.001417 -41.58289 
L 745.582527 -41.58289 
L 747.163636 -41.58289 
L 747.163636 -232.568237 
L 747.163636 -232.568237 
L 745.582527 -224.317514 
L 744.001417 -231.769214 
L 742.420307 -199.227688 
L 740.839197 -212.831269 
L 739.258087 -196.372988 
L 737.676978 -210.954431 
L 736.095868 -209.577201 
L 734.514758 -186.256879 
L 732.933648 -196.842478 
L 731.352538 -180.603743 
L 729.771429 -173.16179 
L 728.190319 -195.386418 
L 726.609209 -201.41014 
L 725.028099 -177.932676 
L 723.446989 -217.224978 
L 721.86588 -200.018219 
L 720.28477 -186.239836 
L 718.70366 -174.002099 
L 717.12255 -175.441597 
L 715.54144 -149.419074 
L 713.960331 -157.736574 
L 712.379221 -179.399505 
L 710.798111 -179.502436 
L 709.217001 -173.319526 
L 707.635891 -205.040575 
L 706.054782 -204.59877 
L 704.473672 -200.385702 
L 702.892562 -208.389946 
L 701.311452 -213.164891 
L 699.730342 -218.712781 
L 698.149233 -224.241494 
L 696.568123 -194.623398 
L 694.987013 -181.487962 
L 693.405903 -201.697974 
L 691.824793 -182.995048 
L 690.243684 -178.274699 
L 688.662574 -168.256538 
L 687.081464 -204.050915 
L 685.500354 -214.342098 
L 683.919244 -178.495718 
L 682.338135 -181.295537 
L 680.757025 -175.834367 
L 679.175915 -155.561456 
L 677.594805 -162.025842 
L 676.013695 -197.663812 
L 674.432586 -169.503152 
L 672.851476 -156.50774 
L 671.270366 -163.095271 
L 669.689256 -193.786771 
L 668.108146 -179.693884 
L 666.527037 -179.837139 
L 664.945927 -156.625971 
L 663.364817 -167.331927 
L 661.783707 -156.874757 
L 660.202597 -171.632693 
L 658.621488 -155.009656 
L 657.040378 -137.070013 
L 655.459268 -158.866911 
L 653.878158 -149.401023 
L 652.297048 -140.248647 
L 650.715939 -144.304684 
L 649.134829 -149.535069 
L 647.553719 -175.464307 
L 645.972609 -155.494672 
L 644.391499 -152.86302 
L 642.81039 -148.489924 
L 641.22928 -116.431764 
L 639.64817 -139.320012 
L 638.06706 -163.021235 
L 636.48595 -130.818173 
L 634.904841 -126.283888 
z
" style="stroke: #ffa500; stroke-opacity: 0.25"/>
    </defs>
    <g clip-path="url(#pa4ded61a4e)">
     <use xlink:href="#ma6de2161de" x="0" y="360" style="fill: #ffa500; fill-opacity: 0.25; stroke: #ffa500; stroke-opacity: 0.25"/>
    </g>
   </g>
   <g id="PathCollection_1">
    <defs>
     <path id="m8aac64482b" d="M 0 3.535534 
C 0.937635 3.535534 1.836992 3.163008 2.5 2.5 
C 3.163008 1.836992 3.535534 0.937635 3.535534 0 
C 3.535534 -0.937635 3.163008 -1.836992 2.5 -2.5 
C 1.836992 -3.163008 0.937635 -3.535534 0 -3.535534 
C -0.937635 -3.535534 -1.836992 -3.163008 -2.5 -2.5 
C -3.163008 -1.836992 -3.535534 -0.937635 -3.535534 0 
C -3.535534 0.937635 -3.163008 1.836992 -2.5 2.5 
C -1.836992 3.163008 -0.937635 3.535534 0 3.535534 
z
" style="stroke: #ffffff; stroke-opacity: 0.8; stroke-width: 0.565685"/>
    </defs>
    <g clip-path="url(#pa4ded61a4e)">
     <use xlink:href="#m8aac64482b" x="634.904841" y="264.748978" style="fill: #ff0000; fill-opacity: 0.8; stroke: #ffffff; stroke-opacity: 0.8; stroke-width: 0.565685"/>
     <use xlink:href="#m8aac64482b" x="638.06706" y="318.139053" style="fill: #ff0000; fill-opacity: 0.8; stroke: #ffffff; stroke-opacity: 0.8; stroke-width: 0.565685"/>
     <use xlink:href="#m8aac64482b" x="639.64817" y="317.266407" style="fill: #ff0000; fill-opacity: 0.8; stroke: #ffffff; stroke-opacity: 0.8; stroke-width: 0.565685"/>
     <use xlink:href="#m8aac64482b" x="641.22928" y="316.671421" style="fill: #ff0000; fill-opacity: 0.8; stroke: #ffffff; stroke-opacity: 0.8; stroke-width: 0.565685"/>
     <use xlink:href="#m8aac64482b" x="642.81039" y="305.723679" style="fill: #ff0000; fill-opacity: 0.8; stroke: #ffffff; stroke-opacity: 0.8; stroke-width: 0.565685"/>
     <use xlink:href="#m8aac64482b" x="644.391499" y="304.375044" style="fill: #ff0000; fill-opacity: 0.8; stroke: #ffffff; stroke-opacity: 0.8; stroke-width: 0.565685"/>
     <use xlink:href="#m8aac64482b" x="645.972609" y="303.145406" style="fill: #ff0000; fill-opacity: 0.8; stroke: #ffffff; stroke-opacity: 0.8; stroke-width: 0.565685"/>
     <use xlink:href="#m8aac64482b" x="647.553719" y="302.431423" style="fill: #ff0000; fill-opacity: 0.8; stroke: #ffffff; stroke-opacity: 0.8; stroke-width: 0.565685"/>
     <use xlink:href="#m8aac64482b" x="649.134829" y="301.320783" style="fill: #ff0000; fill-opacity: 0.8; stroke: #ffffff; stroke-opacity: 0.8; stroke-width: 0.565685"/>
     <use xlink:href="#m8aac64482b" x="650.715939" y="294.974266" style="fill: #ff0000; fill-opacity: 0.8; stroke: #ffffff; stroke-opacity: 0.8; stroke-width: 0.565685"/>
     <use xlink:href="#m8aac64482b" x="652.297048" y="293.585965" style="fill: #ff0000; fill-opacity: 0.8; stroke: #ffffff; stroke-opacity: 0.8; stroke-width: 0.565685"/>
     <use xlink:href="#m8aac64482b" x="653.878158" y="289.81772" style="fill: #ff0000; fill-opacity: 0.8; stroke: #ffffff; stroke-opacity: 0.8; stroke-width: 0.565685"/>
     <use xlink:href="#m8aac64482b" x="655.459268" y="281.368919" style="fill: #ff0000; fill-opacity: 0.8; stroke: #ffffff; stroke-opacity: 0.8; stroke-width: 0.565685"/>
     <use xlink:href="#m8aac64482b" x="657.040378" y="281.011928" style="fill: #ff0000; fill-opacity: 0.8; stroke: #ffffff; stroke-opacity: 0.8; stroke-width: 0.565685"/>
     <use xlink:href="#m8aac64482b" x="658.621488" y="274.070425" style="fill: #ff0000; fill-opacity: 0.8; stroke: #ffffff; stroke-opacity: 0.8; stroke-width: 0.565685"/>
     <use xlink:href="#m8aac64482b" x="660.202597" y="270.500509" style="fill: #ff0000; fill-opacity: 0.8; stroke: #ffffff; stroke-opacity: 0.8; stroke-width: 0.565685"/>
     <use xlink:href="#m8aac64482b" x="661.783707" y="267.446247" style="fill: #ff0000; fill-opacity: 0.8; stroke: #ffffff; stroke-opacity: 0.8; stroke-width: 0.565685"/>
     <use xlink:href="#m8aac64482b" x="663.364817" y="263.797" style="fill: #ff0000; fill-opacity: 0.8; stroke: #ffffff; stroke-opacity: 0.8; stroke-width: 0.565685"/>
     <use xlink:href="#m8aac64482b" x="664.945927" y="260.26675" style="fill: #ff0000; fill-opacity: 0.8; stroke: #ffffff; stroke-opacity: 0.8; stroke-width: 0.565685"/>
     <use xlink:href="#m8aac64482b" x="666.527037" y="252.254272" style="fill: #ff0000; fill-opacity: 0.8; stroke: #ffffff; stroke-opacity: 0.8; stroke-width: 0.565685"/>
     <use xlink:href="#m8aac64482b" x="668.108146" y="250.151988" style="fill: #ff0000; fill-opacity: 0.8; stroke: #ffffff; stroke-opacity: 0.8; stroke-width: 0.565685"/>
     <use xlink:href="#m8aac64482b" x="669.689256" y="245.193771" style="fill: #ff0000; fill-opacity: 0.8; stroke: #ffffff; stroke-opacity: 0.8; stroke-width: 0.565685"/>
     <use xlink:href="#m8aac64482b" x="671.270366" y="244.916111" style="fill: #ff0000; fill-opacity: 0.8; stroke: #ffffff; stroke-opacity: 0.8; stroke-width: 0.565685"/>
     <use xlink:href="#m8aac64482b" x="672.851476" y="237.419288" style="fill: #ff0000; fill-opacity: 0.8; stroke: #ffffff; stroke-opacity: 0.8; stroke-width: 0.565685"/>
     <use xlink:href="#m8aac64482b" x="674.432586" y="233.49238" style="fill: #ff0000; fill-opacity: 0.8; stroke: #ffffff; stroke-opacity: 0.8; stroke-width: 0.565685"/>
     <use xlink:href="#m8aac64482b" x="676.013695" y="233.49238" style="fill: #ff0000; fill-opacity: 0.8; stroke: #ffffff; stroke-opacity: 0.8; stroke-width: 0.565685"/>
     <use xlink:href="#m8aac64482b" x="677.594805" y="228.772158" style="fill: #ff0000; fill-opacity: 0.8; stroke: #ffffff; stroke-opacity: 0.8; stroke-width: 0.565685"/>
     <use xlink:href="#m8aac64482b" x="679.175915" y="224.131268" style="fill: #ff0000; fill-opacity: 0.8; stroke: #ffffff; stroke-opacity: 0.8; stroke-width: 0.565685"/>
     <use xlink:href="#m8aac64482b" x="680.757025" y="223.853607" style="fill: #ff0000; fill-opacity: 0.8; stroke: #ffffff; stroke-opacity: 0.8; stroke-width: 0.565685"/>
     <use xlink:href="#m8aac64482b" x="682.338135" y="218.935057" style="fill: #ff0000; fill-opacity: 0.8; stroke: #ffffff; stroke-opacity: 0.8; stroke-width: 0.565685"/>
     <use xlink:href="#m8aac64482b" x="683.919244" y="214.016506" style="fill: #ff0000; fill-opacity: 0.8; stroke: #ffffff; stroke-opacity: 0.8; stroke-width: 0.565685"/>
     <use xlink:href="#m8aac64482b" x="685.500354" y="213.302523" style="fill: #ff0000; fill-opacity: 0.8; stroke: #ffffff; stroke-opacity: 0.8; stroke-width: 0.565685"/>
     <use xlink:href="#m8aac64482b" x="687.081464" y="200.887148" style="fill: #ff0000; fill-opacity: 0.8; stroke: #ffffff; stroke-opacity: 0.8; stroke-width: 0.565685"/>
     <use xlink:href="#m8aac64482b" x="688.662574" y="193.231662" style="fill: #ff0000; fill-opacity: 0.8; stroke: #ffffff; stroke-opacity: 0.8; stroke-width: 0.565685"/>
     <use xlink:href="#m8aac64482b" x="690.243684" y="186.805813" style="fill: #ff0000; fill-opacity: 0.8; stroke: #ffffff; stroke-opacity: 0.8; stroke-width: 0.565685"/>
     <use xlink:href="#m8aac64482b" x="691.824793" y="182.363251" style="fill: #ff0000; fill-opacity: 0.8; stroke: #ffffff; stroke-opacity: 0.8; stroke-width: 0.565685"/>
     <use xlink:href="#m8aac64482b" x="693.405903" y="181.371608" style="fill: #ff0000; fill-opacity: 0.8; stroke: #ffffff; stroke-opacity: 0.8; stroke-width: 0.565685"/>
     <use xlink:href="#m8aac64482b" x="694.987013" y="172.407153" style="fill: #ff0000; fill-opacity: 0.8; stroke: #ffffff; stroke-opacity: 0.8; stroke-width: 0.565685"/>
     <use xlink:href="#m8aac64482b" x="696.568123" y="170.503197" style="fill: #ff0000; fill-opacity: 0.8; stroke: #ffffff; stroke-opacity: 0.8; stroke-width: 0.565685"/>
     <use xlink:href="#m8aac64482b" x="698.149233" y="164.117015" style="fill: #ff0000; fill-opacity: 0.8; stroke: #ffffff; stroke-opacity: 0.8; stroke-width: 0.565685"/>
     <use xlink:href="#m8aac64482b" x="699.730342" y="160.547099" style="fill: #ff0000; fill-opacity: 0.8; stroke: #ffffff; stroke-opacity: 0.8; stroke-width: 0.565685"/>
     <use xlink:href="#m8aac64482b" x="701.311452" y="155.707879" style="fill: #ff0000; fill-opacity: 0.8; stroke: #ffffff; stroke-opacity: 0.8; stroke-width: 0.565685"/>
     <use xlink:href="#m8aac64482b" x="702.892562" y="154.95423" style="fill: #ff0000; fill-opacity: 0.8; stroke: #ffffff; stroke-opacity: 0.8; stroke-width: 0.565685"/>
     <use xlink:href="#m8aac64482b" x="704.473672" y="141.904204" style="fill: #ff0000; fill-opacity: 0.8; stroke: #ffffff; stroke-opacity: 0.8; stroke-width: 0.565685"/>
     <use xlink:href="#m8aac64482b" x="706.054782" y="130.282145" style="fill: #ff0000; fill-opacity: 0.8; stroke: #ffffff; stroke-opacity: 0.8; stroke-width: 0.565685"/>
     <use xlink:href="#m8aac64482b" x="707.635891" y="108.545324" style="fill: #ff0000; fill-opacity: 0.8; stroke: #ffffff; stroke-opacity: 0.8; stroke-width: 0.565685"/>
     <use xlink:href="#m8aac64482b" x="709.217001" y="96.090284" style="fill: #ff0000; fill-opacity: 0.8; stroke: #ffffff; stroke-opacity: 0.8; stroke-width: 0.565685"/>
     <use xlink:href="#m8aac64482b" x="710.798111" y="85.975522" style="fill: #ff0000; fill-opacity: 0.8; stroke: #ffffff; stroke-opacity: 0.8; stroke-width: 0.565685"/>
     <use xlink:href="#m8aac64482b" x="712.379221" y="77.963044" style="fill: #ff0000; fill-opacity: 0.8; stroke: #ffffff; stroke-opacity: 0.8; stroke-width: 0.565685"/>
     <use xlink:href="#m8aac64482b" x="713.960331" y="75.424437" style="fill: #ff0000; fill-opacity: 0.8; stroke: #ffffff; stroke-opacity: 0.8; stroke-width: 0.565685"/>
     <use xlink:href="#m8aac64482b" x="715.54144" y="66.856639" style="fill: #ff0000; fill-opacity: 0.8; stroke: #ffffff; stroke-opacity: 0.8; stroke-width: 0.565685"/>
     <use xlink:href="#m8aac64482b" x="717.12255" y="60.986111" style="fill: #ff0000; fill-opacity: 0.8; stroke: #ffffff; stroke-opacity: 0.8; stroke-width: 0.565685"/>
     <use xlink:href="#m8aac64482b" x="718.70366" y="56.305554" style="fill: #ff0000; fill-opacity: 0.8; stroke: #ffffff; stroke-opacity: 0.8; stroke-width: 0.565685"/>
     <use xlink:href="#m8aac64482b" x="723.446989" y="316.393761" style="fill: #ff0000; fill-opacity: 0.8; stroke: #ffffff; stroke-opacity: 0.8; stroke-width: 0.565685"/>
     <use xlink:href="#m8aac64482b" x="725.028099" y="314.648469" style="fill: #ff0000; fill-opacity: 0.8; stroke: #ffffff; stroke-opacity: 0.8; stroke-width: 0.565685"/>
     <use xlink:href="#m8aac64482b" x="726.609209" y="309.491924" style="fill: #ff0000; fill-opacity: 0.8; stroke: #ffffff; stroke-opacity: 0.8; stroke-width: 0.565685"/>
     <use xlink:href="#m8aac64482b" x="728.190319" y="308.896938" style="fill: #ff0000; fill-opacity: 0.8; stroke: #ffffff; stroke-opacity: 0.8; stroke-width: 0.565685"/>
     <use xlink:href="#m8aac64482b" x="729.771429" y="304.176715" style="fill: #ff0000; fill-opacity: 0.8; stroke: #ffffff; stroke-opacity: 0.8; stroke-width: 0.565685"/>
     <use xlink:href="#m8aac64482b" x="731.352538" y="303.105741" style="fill: #ff0000; fill-opacity: 0.8; stroke: #ffffff; stroke-opacity: 0.8; stroke-width: 0.565685"/>
     <use xlink:href="#m8aac64482b" x="732.933648" y="297.076549" style="fill: #ff0000; fill-opacity: 0.8; stroke: #ffffff; stroke-opacity: 0.8; stroke-width: 0.565685"/>
     <use xlink:href="#m8aac64482b" x="734.514758" y="295.093263" style="fill: #ff0000; fill-opacity: 0.8; stroke: #ffffff; stroke-opacity: 0.8; stroke-width: 0.565685"/>
     <use xlink:href="#m8aac64482b" x="736.095868" y="288.826077" style="fill: #ff0000; fill-opacity: 0.8; stroke: #ffffff; stroke-opacity: 0.8; stroke-width: 0.565685"/>
     <use xlink:href="#m8aac64482b" x="737.676978" y="284.304184" style="fill: #ff0000; fill-opacity: 0.8; stroke: #ffffff; stroke-opacity: 0.8; stroke-width: 0.565685"/>
     <use xlink:href="#m8aac64482b" x="739.258087" y="278.512987" style="fill: #ff0000; fill-opacity: 0.8; stroke: #ffffff; stroke-opacity: 0.8; stroke-width: 0.565685"/>
     <use xlink:href="#m8aac64482b" x="740.839197" y="276.371037" style="fill: #ff0000; fill-opacity: 0.8; stroke: #ffffff; stroke-opacity: 0.8; stroke-width: 0.565685"/>
     <use xlink:href="#m8aac64482b" x="742.420307" y="273.197779" style="fill: #ff0000; fill-opacity: 0.8; stroke: #ffffff; stroke-opacity: 0.8; stroke-width: 0.565685"/>
     <use xlink:href="#m8aac64482b" x="744.001417" y="272.959784" style="fill: #ff0000; fill-opacity: 0.8; stroke: #ffffff; stroke-opacity: 0.8; stroke-width: 0.565685"/>
     <use xlink:href="#m8aac64482b" x="745.582527" y="271.214492" style="fill: #ff0000; fill-opacity: 0.8; stroke: #ffffff; stroke-opacity: 0.8; stroke-width: 0.565685"/>
     <use xlink:href="#m8aac64482b" x="747.163636" y="271.730146" style="fill: #ff0000; fill-opacity: 0.8; stroke: #ffffff; stroke-opacity: 0.8; stroke-width: 0.565685"/>
    </g>
   </g>
   <g id="line2d_16">
    <path d="M 138.436364 318.25805 
L 146.341913 318.25805 
M 149.504132 318.25805 
L 154.247462 318.25805 
L 155.828571 317.861393 
L 157.409681 317.861393 
L 158.990791 317.70273 
L 160.571901 317.70273 
L 162.153011 317.504402 
L 163.73412 317.504402 
L 165.31523 317.345739 
L 174.801889 317.266407 
L 176.382999 317.107744 
L 184.288548 317.028413 
L 185.869658 316.512758 
L 192.194097 316.512758 
L 193.775207 316.235098 
L 195.356316 316.195432 
L 196.937426 315.322786 
L 201.680756 315.243455 
L 203.261865 313.855154 
L 209.586305 313.855154 
L 211.167414 313.656826 
M 217.491854 318.416713 
L 225.397403 318.416713 
L 226.978512 318.218385 
L 228.559622 318.218385 
L 230.140732 317.940725 
L 249.11405 317.861393 
L 250.695159 317.306073 
L 252.276269 316.393761 
L 257.019599 316.116101 
L 258.600708 315.283121 
L 260.181818 315.283121 
L 261.762928 315.164123 
L 263.344038 314.648469 
L 264.925148 314.489806 
L 266.506257 314.212146 
L 268.087367 314.212146 
L 269.668477 314.013817 
L 271.249587 313.696491 
L 275.992916 313.656826 
L 277.574026 313.656826 
L 279.155136 313.537828 
L 290.222904 313.498163 
L 291.804014 313.260168 
L 296.547344 313.180837 
M 299.709563 318.416713 
L 309.196222 318.337382 
L 310.777332 318.297716 
L 312.358442 289.619392 
M 328.16954 289.619392 
L 329.750649 288.667414 
L 331.331759 288.667414 
L 334.493979 283.352206 
L 336.075089 282.47956 
L 337.656198 281.130925 
M 340.818418 278.94931 
L 342.399528 277.045355 
L 343.980638 274.268753 
L 345.561747 272.166469 
L 347.142857 270.698837 
L 348.723967 269.072542 
L 350.305077 268.160231 
L 355.048406 266.414938 
L 356.629516 266.137278 
L 358.210626 260.623741 
L 359.791736 259.354438 
L 362.953955 257.886806 
L 364.535065 253.444244 
L 366.116175 252.333603 
L 367.697285 249.675999 
L 369.278394 247.415052 
L 370.859504 245.550763 
L 372.440614 245.352434 
L 374.021724 244.0038 
L 375.602834 242.298173 
L 378.765053 235.951656 
L 380.346163 235.039344 
M 385.089492 318.218385 
L 386.670602 318.020056 
L 388.251712 315.997104 
L 389.832822 312.823845 
L 391.413932 306.516994 
L 392.995041 305.961673 
L 394.576151 302.590086 
L 396.157261 294.37928 
L 397.738371 299.456493 
L 399.319481 271.531818 
L 400.90059 261.496387 
L 404.06281 252.055943 
L 405.64392 241.108201 
L 407.22503 236.625973 
L 408.806139 231.390097 
L 410.387249 224.607256 
L 411.968359 221.592661 
L 413.549469 217.864082 
L 415.130579 212.58854 
L 416.711688 205.131382 
L 418.292798 202.870435 
L 419.873908 196.047929 
L 421.455018 190.65339 
L 424.617237 183.672221 
L 426.198347 178.47601 
L 427.779457 175.937403 
L 429.360567 160.785093 
L 430.941677 143.649497 
L 432.522786 154.716236 
L 434.103896 151.582643 
L 435.685006 147.814399 
L 437.266116 145.910443 
L 438.847226 141.38855 
L 440.428335 139.762255 
L 442.009445 137.8583 
L 443.590555 132.146434 
L 445.171665 129.885488 
L 448.333884 123.419973 
L 449.914994 119.374069 
L 451.496104 117.192453 
L 453.077214 116.557802 
L 454.658323 112.194571 
L 456.239433 112.194571 
L 457.820543 108.386661 
L 459.401653 106.7207 
L 460.982763 104.380422 
L 462.563872 104.340756 
L 464.144982 100.612177 
L 465.726092 99.104879 
M 468.888312 317.742396 
L 470.469421 315.640112 
L 472.050531 312.347856 
L 473.631641 309.571255 
L 475.212751 306.516994 
L 476.793861 305.961673 
L 478.37497 302.590086 
L 479.95608 300.170477 
L 481.53719 299.456493 
L 483.1183 295.76758 
M 508.416057 269.389868 
L 509.997166 268.199896 
L 511.578276 267.208253 
L 516.321606 262.884688 
L 517.902715 262.408699 
L 519.483825 261.09973 
L 521.064935 260.346081 
M 527.389374 255.42753 
L 528.970484 254.515219 
L 532.132704 251.421291 
L 533.713813 251.024634 
M 538.457143 247.018395 
L 540.038253 246.383743 
L 541.619362 245.3921 
L 544.781582 243.884802 
L 546.362692 243.567476 
L 547.943802 243.131153 
M 554.268241 317.901059 
L 555.849351 317.187076 
L 557.43046 317.068078 
L 559.01157 316.631755 
L 562.17379 316.235098 
L 563.7549 314.370809 
L 565.336009 313.89482 
L 566.917119 312.784179 
L 568.498229 312.109862 
L 570.079339 311.118219 
L 571.660449 309.967912 
L 573.241558 308.976269 
L 574.822668 307.587968 
L 577.984888 306.715322 
L 581.147107 305.52535 
L 582.728217 304.216381 
L 584.309327 303.740392 
L 585.890437 303.066075 
L 587.471547 301.598443 
L 590.633766 299.575491 
L 592.214876 297.592204 
L 593.795986 295.331257 
L 595.377096 294.974266 
L 596.958205 293.546299 
L 598.539315 292.673653 
L 600.120425 289.857386 
L 601.701535 289.024406 
L 604.863754 286.28747 
L 606.444864 285.018167 
L 609.607084 283.352206 
L 611.188194 281.844908 
L 612.769303 281.289588 
L 615.931523 280.020284 
L 617.512633 278.274992 
L 619.093743 277.640341 
L 620.674852 273.713433 
L 622.255962 272.682124 
L 623.837072 271.809478 
L 625.418182 269.4692 
L 628.580401 268.199896 
L 630.161511 266.970259 
L 631.742621 266.652933 
L 633.323731 265.819952 
L 633.323731 265.819952 
" clip-path="url(#pa4ded61a4e)" style="fill: none; stroke: #008080; stroke-width: 1.5; stroke-linecap: round"/>
   </g>
   <g id="line2d_17">
    <path d="M 634.904841 275.181065 
L 636.48595 292.990979 
L 638.06706 310.761227 
L 639.64817 318.416713 
L 641.22928 318.416713 
L 642.81039 315.600446 
L 644.391499 306.913651 
L 645.972609 306.715322 
L 647.553719 310.761227 
L 649.134829 312.466854 
L 650.715939 308.976269 
L 652.297048 304.018053 
L 653.878158 302.471089 
L 655.459268 304.851033 
L 657.040378 305.684013 
L 658.621488 304.573373 
L 660.202597 301.082788 
L 661.783707 298.980505 
L 663.364817 298.663179 
L 664.945927 300.011814 
L 666.527037 298.74251 
L 668.108146 294.974266 
L 669.689256 291.523347 
L 671.270366 291.087024 
L 672.851476 291.999336 
L 674.432586 291.245687 
L 676.013695 287.755102 
L 677.594805 284.502512 
L 679.175915 283.629866 
L 680.757025 284.462847 
L 682.338135 283.867861 
L 683.919244 281.527582 
L 685.500354 278.909644 
L 687.081464 278.592318 
L 688.662574 279.147638 
L 690.243684 280.139282 
L 691.824793 277.799003 
L 693.405903 273.078781 
L 694.987013 276.172708 
L 696.568123 273.713433 
L 698.149233 271.571483 
L 699.730342 268.080899 
L 701.311452 269.984854 
L 702.892562 267.565245 
L 704.473672 267.644576 
L 706.054782 268.398225 
L 707.635891 264.391986 
L 709.217001 266.454604 
L 710.798111 275.577722 
L 712.379221 293.268639 
L 713.960331 310.999221 
L 715.54144 318.416713 
L 717.12255 318.416713 
L 718.70366 315.679778 
L 720.28477 306.953317 
L 721.86588 306.754988 
L 723.446989 310.800893 
L 725.028099 312.466854 
L 726.609209 309.015935 
L 728.190319 304.018053 
L 729.771429 302.431423 
L 731.352538 304.851033 
L 732.933648 305.644348 
L 734.514758 304.533707 
L 736.095868 301.043123 
L 737.676978 298.940839 
L 739.258087 298.623513 
L 740.839197 299.972148 
L 742.420307 298.702844 
L 744.001417 294.9346 
L 745.582527 291.483681 
L 747.163636 291.047358 
" clip-path="url(#pa4ded61a4e)" style="fill: none; stroke: #0000ff; stroke-width: 2; stroke-linecap: round"/>
   </g>
   <g id="patch_3">
    <path d="M 108 320.4 
L 108 43.2 
" style="fill: none; stroke: #262626; stroke-width: 1.25; stroke-linejoin: miter; stroke-linecap: square"/>
   </g>
   <g id="patch_4">
    <path d="M 777.6 320.4 
L 777.6 43.2 
" style="fill: none; stroke: #262626; stroke-width: 1.25; stroke-linejoin: miter; stroke-linecap: square"/>
   </g>
   <g id="patch_5">
    <path d="M 108 320.4 
L 777.6 320.4 
" style="fill: none; stroke: #262626; stroke-width: 1.25; stroke-linejoin: miter; stroke-linecap: square"/>
   </g>
   <g id="patch_6">
    <path d="M 108 43.2 
L 777.6 43.2 
" style="fill: none; stroke: #262626; stroke-width: 1.25; stroke-linejoin: miter; stroke-linecap: square"/>
   </g>
   <g id="text_18">
    <!-- MSLE:  4.16%     MAPE:  27.89%                       Model: STS - Variational Inference Fit -->
    <g style="fill: #262626" transform="translate(215.828438 37.2) scale(0.12 -0.12)">
     <defs>
      <path id="ArialMT-4d" d="M 475 0 
L 475 4581 
L 1388 4581 
L 2472 1338 
Q 2622 884 2691 659 
Q 2769 909 2934 1394 
L 4031 4581 
L 4847 4581 
L 4847 0 
L 4263 0 
L 4263 3834 
L 2931 0 
L 2384 0 
L 1059 3900 
L 1059 0 
L 475 0 
z
" transform="scale(0.015625)"/>
      <path id="ArialMT-53" d="M 288 1472 
L 859 1522 
Q 900 1178 1048 958 
Q 1197 738 1509 602 
Q 1822 466 2213 466 
Q 2559 466 2825 569 
Q 3091 672 3220 851 
Q 3350 1031 3350 1244 
Q 3350 1459 3225 1620 
Q 3100 1781 2813 1891 
Q 2628 1963 1997 2114 
Q 1366 2266 1113 2400 
Q 784 2572 623 2826 
Q 463 3081 463 3397 
Q 463 3744 659 4045 
Q 856 4347 1234 4503 
Q 1613 4659 2075 4659 
Q 2584 4659 2973 4495 
Q 3363 4331 3572 4012 
Q 3781 3694 3797 3291 
L 3216 3247 
Q 3169 3681 2898 3903 
Q 2628 4125 2100 4125 
Q 1550 4125 1298 3923 
Q 1047 3722 1047 3438 
Q 1047 3191 1225 3031 
Q 1400 2872 2139 2705 
Q 2878 2538 3153 2413 
Q 3553 2228 3743 1945 
Q 3934 1663 3934 1294 
Q 3934 928 3725 604 
Q 3516 281 3123 101 
Q 2731 -78 2241 -78 
Q 1619 -78 1198 103 
Q 778 284 539 648 
Q 300 1013 288 1472 
z
" transform="scale(0.015625)"/>
      <path id="ArialMT-4c" d="M 469 0 
L 469 4581 
L 1075 4581 
L 1075 541 
L 3331 541 
L 3331 0 
L 469 0 
z
" transform="scale(0.015625)"/>
      <path id="ArialMT-45" d="M 506 0 
L 506 4581 
L 3819 4581 
L 3819 4041 
L 1113 4041 
L 1113 2638 
L 3647 2638 
L 3647 2100 
L 1113 2100 
L 1113 541 
L 3925 541 
L 3925 0 
L 506 0 
z
" transform="scale(0.015625)"/>
      <path id="ArialMT-3a" d="M 578 2678 
L 578 3319 
L 1219 3319 
L 1219 2678 
L 578 2678 
z
M 578 0 
L 578 641 
L 1219 641 
L 1219 0 
L 578 0 
z
" transform="scale(0.015625)"/>
      <path id="ArialMT-2e" d="M 581 0 
L 581 641 
L 1222 641 
L 1222 0 
L 581 0 
z
" transform="scale(0.015625)"/>
      <path id="ArialMT-25" d="M 372 3481 
Q 372 3972 619 4315 
Q 866 4659 1334 4659 
Q 1766 4659 2048 4351 
Q 2331 4044 2331 3447 
Q 2331 2866 2045 2552 
Q 1759 2238 1341 2238 
Q 925 2238 648 2547 
Q 372 2856 372 3481 
z
M 1350 4272 
Q 1141 4272 1002 4090 
Q 863 3909 863 3425 
Q 863 2984 1003 2804 
Q 1144 2625 1350 2625 
Q 1563 2625 1702 2806 
Q 1841 2988 1841 3469 
Q 1841 3913 1700 4092 
Q 1559 4272 1350 4272 
z
M 1353 -169 
L 3859 4659 
L 4316 4659 
L 1819 -169 
L 1353 -169 
z
M 3334 1075 
Q 3334 1569 3581 1911 
Q 3828 2253 4300 2253 
Q 4731 2253 5014 1945 
Q 5297 1638 5297 1041 
Q 5297 459 5011 145 
Q 4725 -169 4303 -169 
Q 3888 -169 3611 142 
Q 3334 453 3334 1075 
z
M 4316 1866 
Q 4103 1866 3964 1684 
Q 3825 1503 3825 1019 
Q 3825 581 3965 400 
Q 4106 219 4313 219 
Q 4528 219 4667 400 
Q 4806 581 4806 1063 
Q 4806 1506 4665 1686 
Q 4525 1866 4316 1866 
z
" transform="scale(0.015625)"/>
      <path id="ArialMT-41" d="M -9 0 
L 1750 4581 
L 2403 4581 
L 4278 0 
L 3588 0 
L 3053 1388 
L 1138 1388 
L 634 0 
L -9 0 
z
M 1313 1881 
L 2866 1881 
L 2388 3150 
Q 2169 3728 2063 4100 
Q 1975 3659 1816 3225 
L 1313 1881 
z
" transform="scale(0.015625)"/>
      <path id="ArialMT-50" d="M 494 0 
L 494 4581 
L 2222 4581 
Q 2678 4581 2919 4538 
Q 3256 4481 3484 4323 
Q 3713 4166 3852 3881 
Q 3991 3597 3991 3256 
Q 3991 2672 3619 2267 
Q 3247 1863 2275 1863 
L 1100 1863 
L 1100 0 
L 494 0 
z
M 1100 2403 
L 2284 2403 
Q 2872 2403 3119 2622 
Q 3366 2841 3366 3238 
Q 3366 3525 3220 3729 
Q 3075 3934 2838 4000 
Q 2684 4041 2272 4041 
L 1100 4041 
L 1100 2403 
z
" transform="scale(0.015625)"/>
      <path id="ArialMT-64" d="M 2575 0 
L 2575 419 
Q 2259 -75 1647 -75 
Q 1250 -75 917 144 
Q 584 363 401 755 
Q 219 1147 219 1656 
Q 219 2153 384 2558 
Q 550 2963 881 3178 
Q 1213 3394 1622 3394 
Q 1922 3394 2156 3267 
Q 2391 3141 2538 2938 
L 2538 4581 
L 3097 4581 
L 3097 0 
L 2575 0 
z
M 797 1656 
Q 797 1019 1065 703 
Q 1334 388 1700 388 
Q 2069 388 2326 689 
Q 2584 991 2584 1609 
Q 2584 2291 2321 2609 
Q 2059 2928 1675 2928 
Q 1300 2928 1048 2622 
Q 797 2316 797 1656 
z
" transform="scale(0.015625)"/>
      <path id="ArialMT-6c" d="M 409 0 
L 409 4581 
L 972 4581 
L 972 0 
L 409 0 
z
" transform="scale(0.015625)"/>
      <path id="ArialMT-54" d="M 1659 0 
L 1659 4041 
L 150 4041 
L 150 4581 
L 3781 4581 
L 3781 4041 
L 2266 4041 
L 2266 0 
L 1659 0 
z
" transform="scale(0.015625)"/>
      <path id="ArialMT-2d" d="M 203 1375 
L 203 1941 
L 1931 1941 
L 1931 1375 
L 203 1375 
z
" transform="scale(0.015625)"/>
      <path id="ArialMT-56" d="M 1803 0 
L 28 4581 
L 684 4581 
L 1875 1253 
Q 2019 853 2116 503 
Q 2222 878 2363 1253 
L 3600 4581 
L 4219 4581 
L 2425 0 
L 1803 0 
z
" transform="scale(0.015625)"/>
      <path id="ArialMT-69" d="M 425 3934 
L 425 4581 
L 988 4581 
L 988 3934 
L 425 3934 
z
M 425 0 
L 425 3319 
L 988 3319 
L 988 0 
L 425 0 
z
" transform="scale(0.015625)"/>
      <path id="ArialMT-6e" d="M 422 0 
L 422 3319 
L 928 3319 
L 928 2847 
Q 1294 3394 1984 3394 
Q 2284 3394 2536 3286 
Q 2788 3178 2913 3003 
Q 3038 2828 3088 2588 
Q 3119 2431 3119 2041 
L 3119 0 
L 2556 0 
L 2556 2019 
Q 2556 2363 2490 2533 
Q 2425 2703 2258 2804 
Q 2091 2906 1866 2906 
Q 1506 2906 1245 2678 
Q 984 2450 984 1813 
L 984 0 
L 422 0 
z
" transform="scale(0.015625)"/>
      <path id="ArialMT-49" d="M 597 0 
L 597 4581 
L 1203 4581 
L 1203 0 
L 597 0 
z
" transform="scale(0.015625)"/>
      <path id="ArialMT-63" d="M 2588 1216 
L 3141 1144 
Q 3050 572 2676 248 
Q 2303 -75 1759 -75 
Q 1078 -75 664 370 
Q 250 816 250 1647 
Q 250 2184 428 2587 
Q 606 2991 970 3192 
Q 1334 3394 1763 3394 
Q 2303 3394 2647 3120 
Q 2991 2847 3088 2344 
L 2541 2259 
Q 2463 2594 2264 2762 
Q 2066 2931 1784 2931 
Q 1359 2931 1093 2626 
Q 828 2322 828 1663 
Q 828 994 1084 691 
Q 1341 388 1753 388 
Q 2084 388 2306 591 
Q 2528 794 2588 1216 
z
" transform="scale(0.015625)"/>
      <path id="ArialMT-46" d="M 525 0 
L 525 4581 
L 3616 4581 
L 3616 4041 
L 1131 4041 
L 1131 2622 
L 3281 2622 
L 3281 2081 
L 1131 2081 
L 1131 0 
L 525 0 
z
" transform="scale(0.015625)"/>
     </defs>
     <use xlink:href="#ArialMT-4d"/>
     <use xlink:href="#ArialMT-53" x="83.300781"/>
     <use xlink:href="#ArialMT-4c" x="150"/>
     <use xlink:href="#ArialMT-45" x="205.615234"/>
     <use xlink:href="#ArialMT-3a" x="272.314453"/>
     <use xlink:href="#ArialMT-20" x="300.097656"/>
     <use xlink:href="#ArialMT-20" x="327.880859"/>
     <use xlink:href="#ArialMT-34" x="355.664062"/>
     <use xlink:href="#ArialMT-2e" x="411.279297"/>
     <use xlink:href="#ArialMT-31" x="439.0625"/>
     <use xlink:href="#ArialMT-36" x="494.677734"/>
     <use xlink:href="#ArialMT-25" x="550.292969"/>
     <use xlink:href="#ArialMT-20" x="639.208984"/>
     <use xlink:href="#ArialMT-20" x="666.992188"/>
     <use xlink:href="#ArialMT-20" x="694.775391"/>
     <use xlink:href="#ArialMT-20" x="722.558594"/>
     <use xlink:href="#ArialMT-20" x="750.341797"/>
     <use xlink:href="#ArialMT-4d" x="778.125"/>
     <use xlink:href="#ArialMT-41" x="861.425781"/>
     <use xlink:href="#ArialMT-50" x="928.125"/>
     <use xlink:href="#ArialMT-45" x="994.824219"/>
     <use xlink:href="#ArialMT-3a" x="1061.523438"/>
     <use xlink:href="#ArialMT-20" x="1089.306641"/>
     <use xlink:href="#ArialMT-20" x="1117.089844"/>
     <use xlink:href="#ArialMT-32" x="1144.873047"/>
     <use xlink:href="#ArialMT-37" x="1200.488281"/>
     <use xlink:href="#ArialMT-2e" x="1256.103516"/>
     <use xlink:href="#ArialMT-38" x="1283.886719"/>
     <use xlink:href="#ArialMT-39" x="1339.501953"/>
     <use xlink:href="#ArialMT-25" x="1395.117188"/>
     <use xlink:href="#ArialMT-20" x="1484.033203"/>
     <use xlink:href="#ArialMT-20" x="1511.816406"/>
     <use xlink:href="#ArialMT-20" x="1539.599609"/>
     <use xlink:href="#ArialMT-20" x="1567.382812"/>
     <use xlink:href="#ArialMT-20" x="1595.166016"/>
     <use xlink:href="#ArialMT-20" x="1622.949219"/>
     <use xlink:href="#ArialMT-20" x="1650.732422"/>
     <use xlink:href="#ArialMT-20" x="1678.515625"/>
     <use xlink:href="#ArialMT-20" x="1706.298828"/>
     <use xlink:href="#ArialMT-20" x="1734.082031"/>
     <use xlink:href="#ArialMT-20" x="1761.865234"/>
     <use xlink:href="#ArialMT-20" x="1789.648438"/>
     <use xlink:href="#ArialMT-20" x="1817.431641"/>
     <use xlink:href="#ArialMT-20" x="1845.214844"/>
     <use xlink:href="#ArialMT-20" x="1872.998047"/>
     <use xlink:href="#ArialMT-20" x="1900.78125"/>
     <use xlink:href="#ArialMT-20" x="1928.564453"/>
     <use xlink:href="#ArialMT-20" x="1956.347656"/>
     <use xlink:href="#ArialMT-20" x="1984.130859"/>
     <use xlink:href="#ArialMT-20" x="2011.914062"/>
     <use xlink:href="#ArialMT-20" x="2039.697266"/>
     <use xlink:href="#ArialMT-20" x="2067.480469"/>
     <use xlink:href="#ArialMT-20" x="2095.263672"/>
     <use xlink:href="#ArialMT-4d" x="2123.046875"/>
     <use xlink:href="#ArialMT-6f" x="2206.347656"/>
     <use xlink:href="#ArialMT-64" x="2261.962891"/>
     <use xlink:href="#ArialMT-65" x="2317.578125"/>
     <use xlink:href="#ArialMT-6c" x="2373.193359"/>
     <use xlink:href="#ArialMT-3a" x="2395.410156"/>
     <use xlink:href="#ArialMT-20" x="2423.193359"/>
     <use xlink:href="#ArialMT-53" x="2450.976562"/>
     <use xlink:href="#ArialMT-54" x="2517.675781"/>
     <use xlink:href="#ArialMT-53" x="2578.759766"/>
     <use xlink:href="#ArialMT-20" x="2645.458984"/>
     <use xlink:href="#ArialMT-2d" x="2673.242188"/>
     <use xlink:href="#ArialMT-20" x="2706.542969"/>
     <use xlink:href="#ArialMT-56" x="2734.326172"/>
     <use xlink:href="#ArialMT-61" x="2793.650391"/>
     <use xlink:href="#ArialMT-72" x="2849.265625"/>
     <use xlink:href="#ArialMT-69" x="2882.566406"/>
     <use xlink:href="#ArialMT-61" x="2904.783203"/>
     <use xlink:href="#ArialMT-74" x="2960.398438"/>
     <use xlink:href="#ArialMT-69" x="2988.181641"/>
     <use xlink:href="#ArialMT-6f" x="3010.398438"/>
     <use xlink:href="#ArialMT-6e" x="3066.013672"/>
     <use xlink:href="#ArialMT-61" x="3121.628906"/>
     <use xlink:href="#ArialMT-6c" x="3177.244141"/>
     <use xlink:href="#ArialMT-20" x="3199.460938"/>
     <use xlink:href="#ArialMT-49" x="3227.244141"/>
     <use xlink:href="#ArialMT-6e" x="3255.027344"/>
     <use xlink:href="#ArialMT-66" x="3310.642578"/>
     <use xlink:href="#ArialMT-65" x="3338.425781"/>
     <use xlink:href="#ArialMT-72" x="3394.041016"/>
     <use xlink:href="#ArialMT-65" x="3427.341797"/>
     <use xlink:href="#ArialMT-6e" x="3482.957031"/>
     <use xlink:href="#ArialMT-63" x="3538.572266"/>
     <use xlink:href="#ArialMT-65" x="3588.572266"/>
     <use xlink:href="#ArialMT-20" x="3644.1875"/>
     <use xlink:href="#ArialMT-46" x="3671.970703"/>
     <use xlink:href="#ArialMT-69" x="3733.054688"/>
     <use xlink:href="#ArialMT-74" x="3755.271484"/>
    </g>
   </g>
   <g id="legend_1">
    <g id="patch_7">
     <path d="M 115.7 114.239375 
L 194.915469 114.239375 
Q 197.115469 114.239375 197.115469 112.039375 
L 197.115469 50.9 
Q 197.115469 48.7 194.915469 48.7 
L 115.7 48.7 
Q 113.5 48.7 113.5 50.9 
L 113.5 112.039375 
Q 113.5 114.239375 115.7 114.239375 
z
" style="fill: #ffffff; opacity: 0.8; stroke: #cccccc; stroke-linejoin: miter"/>
    </g>
    <g id="patch_8">
     <path d="M 117.9 60.973594 
L 139.9 60.973594 
L 139.9 53.273594 
L 117.9 53.273594 
z
" style="fill: #ffa500; fill-opacity: 0.25; stroke: #ffa500; stroke-opacity: 0.25; stroke-linejoin: miter"/>
    </g>
    <g id="text_19">
     <!-- 95% HDI -->
     <g style="fill: #262626" transform="translate(148.7 60.973594) scale(0.11 -0.11)">
      <defs>
       <path id="ArialMT-48" d="M 513 0 
L 513 4581 
L 1119 4581 
L 1119 2700 
L 3500 2700 
L 3500 4581 
L 4106 4581 
L 4106 0 
L 3500 0 
L 3500 2159 
L 1119 2159 
L 1119 0 
L 513 0 
z
" transform="scale(0.015625)"/>
      </defs>
      <use xlink:href="#ArialMT-39"/>
      <use xlink:href="#ArialMT-35" x="55.615234"/>
      <use xlink:href="#ArialMT-25" x="111.230469"/>
      <use xlink:href="#ArialMT-20" x="200.146484"/>
      <use xlink:href="#ArialMT-48" x="227.929688"/>
      <use xlink:href="#ArialMT-44" x="300.146484"/>
      <use xlink:href="#ArialMT-49" x="372.363281"/>
     </g>
    </g>
    <g id="line2d_18">
     <path d="M 117.9 72.683437 
L 128.9 72.683437 
L 139.9 72.683437 
" style="fill: none; stroke: #008080; stroke-width: 1.5; stroke-linecap: round"/>
    </g>
    <g id="text_20">
     <!-- Train -->
     <g style="fill: #262626" transform="translate(148.7 76.533437) scale(0.11 -0.11)">
      <use xlink:href="#ArialMT-54"/>
      <use xlink:href="#ArialMT-72" x="57.333984"/>
      <use xlink:href="#ArialMT-61" x="90.634766"/>
      <use xlink:href="#ArialMT-69" x="146.25"/>
      <use xlink:href="#ArialMT-6e" x="168.466797"/>
     </g>
    </g>
    <g id="PathCollection_2">
     <g>
      <use xlink:href="#m8aac64482b" x="128.9" y="89.205781" style="fill: #ff0000; fill-opacity: 0.8; stroke: #ffffff; stroke-opacity: 0.8; stroke-width: 0.565685"/>
     </g>
    </g>
    <g id="text_21">
     <!-- Test -->
     <g style="fill: #262626" transform="translate(148.7 92.093281) scale(0.11 -0.11)">
      <use xlink:href="#ArialMT-54"/>
      <use xlink:href="#ArialMT-65" x="49.958984"/>
      <use xlink:href="#ArialMT-73" x="105.574219"/>
      <use xlink:href="#ArialMT-74" x="155.574219"/>
     </g>
    </g>
    <g id="line2d_19">
     <path d="M 117.9 103.803125 
L 128.9 103.803125 
L 139.9 103.803125 
" style="fill: none; stroke: #0000ff; stroke-width: 2; stroke-linecap: round"/>
    </g>
    <g id="text_22">
     <!-- Forecast -->
     <g style="fill: #262626" transform="translate(148.7 107.653125) scale(0.11 -0.11)">
      <use xlink:href="#ArialMT-46"/>
      <use xlink:href="#ArialMT-6f" x="61.083984"/>
      <use xlink:href="#ArialMT-72" x="116.699219"/>
      <use xlink:href="#ArialMT-65" x="150"/>
      <use xlink:href="#ArialMT-63" x="205.615234"/>
      <use xlink:href="#ArialMT-61" x="255.615234"/>
      <use xlink:href="#ArialMT-73" x="311.230469"/>
      <use xlink:href="#ArialMT-74" x="361.230469"/>
     </g>
    </g>
   </g>
  </g>
  <g id="text_23">
   <!-- Cholera Weekly Cases -->
   <g style="fill: #262626" transform="translate(358.902 17.68275) scale(0.144 -0.144)">
    <defs>
     <path id="ArialMT-68" d="M 422 0 
L 422 4581 
L 984 4581 
L 984 2938 
Q 1378 3394 1978 3394 
Q 2347 3394 2619 3248 
Q 2891 3103 3008 2847 
Q 3125 2591 3125 2103 
L 3125 0 
L 2563 0 
L 2563 2103 
Q 2563 2525 2380 2717 
Q 2197 2909 1863 2909 
Q 1613 2909 1392 2779 
Q 1172 2650 1078 2428 
Q 984 2206 984 1816 
L 984 0 
L 422 0 
z
" transform="scale(0.015625)"/>
     <path id="ArialMT-57" d="M 1294 0 
L 78 4581 
L 700 4581 
L 1397 1578 
Q 1509 1106 1591 641 
Q 1766 1375 1797 1488 
L 2669 4581 
L 3400 4581 
L 4056 2263 
Q 4303 1400 4413 641 
Q 4500 1075 4641 1638 
L 5359 4581 
L 5969 4581 
L 4713 0 
L 4128 0 
L 3163 3491 
Q 3041 3928 3019 4028 
Q 2947 3713 2884 3491 
L 1913 0 
L 1294 0 
z
" transform="scale(0.015625)"/>
     <path id="ArialMT-6b" d="M 425 0 
L 425 4581 
L 988 4581 
L 988 1969 
L 2319 3319 
L 3047 3319 
L 1778 2088 
L 3175 0 
L 2481 0 
L 1384 1697 
L 988 1316 
L 988 0 
L 425 0 
z
" transform="scale(0.015625)"/>
     <path id="ArialMT-79" d="M 397 -1278 
L 334 -750 
Q 519 -800 656 -800 
Q 844 -800 956 -737 
Q 1069 -675 1141 -563 
Q 1194 -478 1313 -144 
Q 1328 -97 1363 -6 
L 103 3319 
L 709 3319 
L 1400 1397 
Q 1534 1031 1641 628 
Q 1738 1016 1872 1384 
L 2581 3319 
L 3144 3319 
L 1881 -56 
Q 1678 -603 1566 -809 
Q 1416 -1088 1222 -1217 
Q 1028 -1347 759 -1347 
Q 597 -1347 397 -1278 
z
" transform="scale(0.015625)"/>
    </defs>
    <use xlink:href="#ArialMT-43"/>
    <use xlink:href="#ArialMT-68" x="72.216797"/>
    <use xlink:href="#ArialMT-6f" x="127.832031"/>
    <use xlink:href="#ArialMT-6c" x="183.447266"/>
    <use xlink:href="#ArialMT-65" x="205.664062"/>
    <use xlink:href="#ArialMT-72" x="261.279297"/>
    <use xlink:href="#ArialMT-61" x="294.580078"/>
    <use xlink:href="#ArialMT-20" x="350.195312"/>
    <use xlink:href="#ArialMT-57" x="377.978516"/>
    <use xlink:href="#ArialMT-65" x="470.613281"/>
    <use xlink:href="#ArialMT-65" x="526.228516"/>
    <use xlink:href="#ArialMT-6b" x="581.84375"/>
    <use xlink:href="#ArialMT-6c" x="631.84375"/>
    <use xlink:href="#ArialMT-79" x="654.060547"/>
    <use xlink:href="#ArialMT-20" x="704.060547"/>
    <use xlink:href="#ArialMT-43" x="731.84375"/>
    <use xlink:href="#ArialMT-61" x="804.060547"/>
    <use xlink:href="#ArialMT-73" x="859.675781"/>
    <use xlink:href="#ArialMT-65" x="909.675781"/>
    <use xlink:href="#ArialMT-73" x="965.291016"/>
   </g>
  </g>
 </g>
 <defs>
  <clipPath id="pa4ded61a4e">
   <rect x="108" y="43.2" width="669.6" height="277.2"/>
  </clipPath>
 </defs>
</svg>
