<?xml version="1.0" encoding="utf-8" standalone="no"?>
<!DOCTYPE svg PUBLIC "-//W3C//DTD SVG 1.1//EN"
  "http://www.w3.org/Graphics/SVG/1.1/DTD/svg11.dtd">
<svg xmlns:xlink="http://www.w3.org/1999/xlink" width="864pt" height="576pt" viewBox="0 0 864 576" xmlns="http://www.w3.org/2000/svg" version="1.1">
 <metadata>
  <rdf:RDF xmlns:dc="http://purl.org/dc/elements/1.1/" xmlns:cc="http://creativecommons.org/ns#" xmlns:rdf="http://www.w3.org/1999/02/22-rdf-syntax-ns#">
   <cc:Work>
    <dc:type rdf:resource="http://purl.org/dc/dcmitype/StillImage"/>
    <dc:date>2023-08-01T02:22:38.498949</dc:date>
    <dc:format>image/svg+xml</dc:format>
    <dc:creator>
     <cc:Agent>
      <dc:title>Matplotlib v3.7.1, https://matplotlib.org/</dc:title>
     </cc:Agent>
    </dc:creator>
   </cc:Work>
  </rdf:RDF>
 </metadata>
 <defs>
  <style type="text/css">*{stroke-linejoin: round; stroke-linecap: butt}</style>
 </defs>
 <g id="figure_1">
  <g id="patch_1">
   <path d="M 0 576 
L 864 576 
L 864 0 
L 0 0 
z
" style="fill: #ffffff"/>
  </g>
  <g id="axes_1">
   <g id="patch_2">
    <path d="M 116.925 140.975 
L 828.176382 140.975 
L 828.176382 46.266667 
L 116.925 46.266667 
z
" style="fill: #ffffff"/>
   </g>
   <g id="matplotlib.axis_1">
    <g id="xtick_1">
     <g id="line2d_1">
      <defs>
       <path id="mfc16c0a8a0" d="M 0 0 
L 0 6 
" style="stroke: #262626; stroke-width: 1.25"/>
      </defs>
      <g>
       <use xlink:href="#mfc16c0a8a0" x="224.05095" y="140.975" style="fill: #262626; stroke: #262626; stroke-width: 1.25"/>
      </g>
     </g>
    </g>
    <g id="xtick_2">
     <g id="line2d_2">
      <g>
       <use xlink:href="#mfc16c0a8a0" x="342.538743" y="140.975" style="fill: #262626; stroke: #262626; stroke-width: 1.25"/>
      </g>
     </g>
    </g>
    <g id="xtick_3">
     <g id="line2d_3">
      <g>
       <use xlink:href="#mfc16c0a8a0" x="461.026536" y="140.975" style="fill: #262626; stroke: #262626; stroke-width: 1.25"/>
      </g>
     </g>
    </g>
    <g id="xtick_4">
     <g id="line2d_4">
      <g>
       <use xlink:href="#mfc16c0a8a0" x="579.514328" y="140.975" style="fill: #262626; stroke: #262626; stroke-width: 1.25"/>
      </g>
     </g>
    </g>
    <g id="xtick_5">
     <g id="line2d_5">
      <g>
       <use xlink:href="#mfc16c0a8a0" x="698.326745" y="140.975" style="fill: #262626; stroke: #262626; stroke-width: 1.25"/>
      </g>
     </g>
    </g>
    <g id="xtick_6">
     <g id="line2d_6">
      <g>
       <use xlink:href="#mfc16c0a8a0" x="816.814538" y="140.975" style="fill: #262626; stroke: #262626; stroke-width: 1.25"/>
      </g>
     </g>
    </g>
   </g>
   <g id="matplotlib.axis_2">
    <g id="ytick_1">
     <g id="line2d_7">
      <defs>
       <path id="m422446afce" d="M 0 0 
L -6 0 
" style="stroke: #262626; stroke-width: 1.25"/>
      </defs>
      <g>
       <use xlink:href="#m422446afce" x="116.925" y="136.670076" style="fill: #262626; stroke: #262626; stroke-width: 1.25"/>
      </g>
     </g>
     <g id="text_1">
      <!-- 0 -->
      <g style="fill: #262626" transform="translate(101.307969 140.606873) scale(0.11 -0.11)">
       <defs>
        <path id="ArialMT-30" d="M 266 2259 
Q 266 3072 433 3567 
Q 600 4063 929 4331 
Q 1259 4600 1759 4600 
Q 2128 4600 2406 4451 
Q 2684 4303 2865 4023 
Q 3047 3744 3150 3342 
Q 3253 2941 3253 2259 
Q 3253 1453 3087 958 
Q 2922 463 2592 192 
Q 2263 -78 1759 -78 
Q 1097 -78 719 397 
Q 266 969 266 2259 
z
M 844 2259 
Q 844 1131 1108 757 
Q 1372 384 1759 384 
Q 2147 384 2411 759 
Q 2675 1134 2675 2259 
Q 2675 3391 2411 3762 
Q 2147 4134 1753 4134 
Q 1366 4134 1134 3806 
Q 844 3388 844 2259 
z
" transform="scale(0.015625)"/>
       </defs>
       <use xlink:href="#ArialMT-30"/>
      </g>
     </g>
    </g>
    <g id="ytick_2">
     <g id="line2d_8">
      <g>
       <use xlink:href="#m422446afce" x="116.925" y="108.806488" style="fill: #262626; stroke: #262626; stroke-width: 1.25"/>
      </g>
     </g>
     <g id="text_2">
      <!-- 200 -->
      <g style="fill: #262626" transform="translate(89.073906 112.743285) scale(0.11 -0.11)">
       <defs>
        <path id="ArialMT-32" d="M 3222 541 
L 3222 0 
L 194 0 
Q 188 203 259 391 
Q 375 700 629 1000 
Q 884 1300 1366 1694 
Q 2113 2306 2375 2664 
Q 2638 3022 2638 3341 
Q 2638 3675 2398 3904 
Q 2159 4134 1775 4134 
Q 1369 4134 1125 3890 
Q 881 3647 878 3216 
L 300 3275 
Q 359 3922 746 4261 
Q 1134 4600 1788 4600 
Q 2447 4600 2831 4234 
Q 3216 3869 3216 3328 
Q 3216 3053 3103 2787 
Q 2991 2522 2730 2228 
Q 2469 1934 1863 1422 
Q 1356 997 1212 845 
Q 1069 694 975 541 
L 3222 541 
z
" transform="scale(0.015625)"/>
       </defs>
       <use xlink:href="#ArialMT-32"/>
       <use xlink:href="#ArialMT-30" x="55.615234"/>
       <use xlink:href="#ArialMT-30" x="111.230469"/>
      </g>
     </g>
    </g>
    <g id="ytick_3">
     <g id="line2d_9">
      <g>
       <use xlink:href="#m422446afce" x="116.925" y="80.942901" style="fill: #262626; stroke: #262626; stroke-width: 1.25"/>
      </g>
     </g>
     <g id="text_3">
      <!-- 400 -->
      <g style="fill: #262626" transform="translate(89.073906 84.879698) scale(0.11 -0.11)">
       <defs>
        <path id="ArialMT-34" d="M 2069 0 
L 2069 1097 
L 81 1097 
L 81 1613 
L 2172 4581 
L 2631 4581 
L 2631 1613 
L 3250 1613 
L 3250 1097 
L 2631 1097 
L 2631 0 
L 2069 0 
z
M 2069 1613 
L 2069 3678 
L 634 1613 
L 2069 1613 
z
" transform="scale(0.015625)"/>
       </defs>
       <use xlink:href="#ArialMT-34"/>
       <use xlink:href="#ArialMT-30" x="55.615234"/>
       <use xlink:href="#ArialMT-30" x="111.230469"/>
      </g>
     </g>
    </g>
    <g id="ytick_4">
     <g id="line2d_10">
      <g>
       <use xlink:href="#m422446afce" x="116.925" y="53.079314" style="fill: #262626; stroke: #262626; stroke-width: 1.25"/>
      </g>
     </g>
     <g id="text_4">
      <!-- 600 -->
      <g style="fill: #262626" transform="translate(89.073906 57.016111) scale(0.11 -0.11)">
       <defs>
        <path id="ArialMT-36" d="M 3184 3459 
L 2625 3416 
Q 2550 3747 2413 3897 
Q 2184 4138 1850 4138 
Q 1581 4138 1378 3988 
Q 1113 3794 959 3422 
Q 806 3050 800 2363 
Q 1003 2672 1297 2822 
Q 1591 2972 1913 2972 
Q 2475 2972 2870 2558 
Q 3266 2144 3266 1488 
Q 3266 1056 3080 686 
Q 2894 316 2569 119 
Q 2244 -78 1831 -78 
Q 1128 -78 684 439 
Q 241 956 241 2144 
Q 241 3472 731 4075 
Q 1159 4600 1884 4600 
Q 2425 4600 2770 4297 
Q 3116 3994 3184 3459 
z
M 888 1484 
Q 888 1194 1011 928 
Q 1134 663 1356 523 
Q 1578 384 1822 384 
Q 2178 384 2434 671 
Q 2691 959 2691 1453 
Q 2691 1928 2437 2201 
Q 2184 2475 1800 2475 
Q 1419 2475 1153 2201 
Q 888 1928 888 1484 
z
" transform="scale(0.015625)"/>
       </defs>
       <use xlink:href="#ArialMT-36"/>
       <use xlink:href="#ArialMT-30" x="55.615234"/>
       <use xlink:href="#ArialMT-30" x="111.230469"/>
      </g>
     </g>
    </g>
   </g>
   <g id="line2d_11">
    <path d="M 116.925 133.326445 
L 119.197369 133.326445 
L 121.469737 130.818722 
L 123.742106 121.623739 
L 126.014475 118.419426 
L 128.286843 117.026247 
L 132.83158 115.215114 
L 135.103949 111.592847 
L 137.376318 108.66717 
L 139.648686 106.438084 
L 141.921055 105.602176 
L 144.193424 103.791043 
L 146.465792 101.422638 
L 148.738161 100.447412 
L 151.010529 98.636279 
L 153.282898 95.292649 
L 155.555267 93.20288 
L 157.827635 93.20288 
L 160.100004 89.580613 
L 162.372373 89.301977 
L 164.644741 88.605388 
L 166.91711 88.048116 
L 169.189479 86.654937 
L 173.734216 84.42585 
L 176.006584 82.196763 
L 178.278953 82.057445 
L 180.551322 79.828358 
L 182.82369 78.017224 
L 185.096059 76.902681 
L 187.368428 74.673594 
L 189.640796 70.91201 
L 191.913165 70.91201 
L 194.185533 69.658148 
L 196.457902 68.682923 
L 198.730271 61.856344 
L 201.002639 61.020436 
L 203.275008 60.7418 
L 205.547377 60.602482 
L 207.819745 59.766575 
L 210.092114 56.562262 
L 212.364483 55.169083 
L 214.636851 53.079314 
L 216.90922 53.079314 
L 219.181588 52.382724 
L 221.453957 50.571591 
L 230.543432 136.530758 
L 232.8158 136.252122 
L 237.360537 134.301671 
L 239.632906 134.023035 
L 241.905275 133.465763 
L 244.177643 130.540087 
L 246.450012 130.122133 
L 248.722381 126.499866 
L 250.994749 126.360548 
L 253.267118 124.828051 
L 255.539487 119.673287 
L 257.811855 119.673287 
L 260.084224 118.419426 
L 262.356592 117.862154 
L 264.628961 116.608293 
L 266.90133 116.051021 
L 269.173698 114.518524 
L 271.446067 113.821934 
L 273.718436 112.568073 
L 275.990804 111.592847 
L 278.263173 109.36376 
L 280.535541 108.249217 
L 282.80791 106.577401 
L 285.080279 104.208997 
L 287.352647 103.373089 
L 289.625016 100.58673 
L 291.897385 100.308094 
L 294.169753 99.89014 
L 296.442122 97.382418 
L 298.71449 96.128556 
L 300.986859 93.620833 
L 303.259228 93.620833 
L 305.531596 91.949018 
L 307.803965 91.391746 
L 310.076334 90.416521 
L 312.348702 89.580613 
L 314.621071 88.187434 
L 316.89344 87.630162 
L 319.165808 83.589942 
L 321.438177 83.311306 
L 323.710545 83.311306 
L 325.982914 83.03267 
L 328.255283 82.196763 
L 330.527651 79.967676 
L 332.80002 79.131768 
L 335.072389 78.99245 
L 337.344757 77.877906 
L 339.617126 75.370184 
L 344.161863 74.812912 
L 348.7066 136.670076 
L 350.978969 136.39144 
L 353.251338 135.69485 
L 355.523706 135.416214 
L 357.796075 135.276896 
L 360.068444 134.023035 
L 362.340812 134.023035 
L 364.613181 133.883717 
L 366.885549 133.187127 
L 391.881604 124.410097 
L 394.153973 123.434872 
L 396.426342 122.320328 
L 398.69871 121.484421 
L 400.971079 121.205785 
L 403.243448 121.205785 
L 407.788185 118.419426 
L 410.060553 117.165565 
L 412.332922 116.468975 
L 416.877659 114.79716 
L 419.150028 112.568073 
L 421.422397 107.134673 
L 423.694765 104.487632 
L 425.967134 103.791043 
L 428.239502 102.119227 
L 430.511871 101.701274 
L 432.78424 99.750823 
L 435.056608 99.472187 
L 437.328977 99.472187 
L 439.601346 98.636279 
L 441.873714 98.079007 
L 444.146083 97.661053 
L 446.418452 97.382418 
L 448.69082 96.407192 
L 450.963189 96.128556 
L 453.235557 95.014013 
L 455.507926 95.014013 
L 457.780295 94.596059 
L 460.052663 93.899469 
L 464.597401 93.342197 
L 471.414506 136.670076 
L 473.686875 136.670076 
L 475.959244 136.39144 
L 478.231612 135.973486 
L 480.503981 134.858943 
L 482.77635 134.858943 
L 485.048718 133.883717 
L 487.321087 133.187127 
L 489.593456 133.187127 
L 491.865824 132.629856 
L 494.138193 131.793948 
L 496.410561 131.793948 
L 498.68293 131.515312 
L 500.955299 130.95804 
L 503.227667 130.261451 
L 505.500036 129.704179 
L 507.772405 128.868271 
L 510.044773 128.589635 
L 514.58951 127.475092 
L 516.861879 126.778502 
L 519.134248 126.360548 
L 521.406616 125.106687 
L 523.678985 124.688733 
L 525.951354 124.131461 
L 528.223722 122.8776 
L 530.496091 121.902374 
L 532.76846 121.066467 
L 535.040828 120.369877 
L 537.313197 120.369877 
L 539.585565 119.394652 
L 541.857934 118.280108 
L 544.130303 117.444201 
L 546.402671 116.190339 
L 548.67504 115.493749 
L 550.947409 114.936478 
L 553.219777 114.518524 
L 555.492146 113.125344 
L 557.764514 112.428755 
L 562.309252 111.592847 
L 564.58162 110.617622 
L 566.853989 110.06035 
L 569.126358 109.781714 
L 571.398726 109.085124 
L 573.671095 108.527853 
L 575.943463 107.691945 
L 578.215832 106.716719 
L 580.488201 106.577401 
L 582.760569 106.577401 
L 585.032938 105.880812 
L 587.305307 105.602176 
L 591.850044 136.670076 
L 594.122413 136.112804 
L 596.394781 135.834168 
L 598.66715 135.69485 
L 600.939518 134.858943 
L 603.211887 134.858943 
L 605.484256 133.883717 
L 607.756624 133.605081 
L 612.301362 132.769174 
L 648.65926 130.261451 
L 650.931628 130.261451 
L 653.203997 129.843497 
L 655.476366 128.450317 
L 657.748734 129.704179 
L 660.021103 129.425543 
L 662.293471 129.007589 
L 666.838209 128.450317 
L 671.382946 128.032364 
L 678.200052 126.91782 
L 680.472421 126.91782 
L 682.744789 126.639184 
L 685.017158 126.499866 
L 691.834264 126.221231 
L 696.379001 125.663959 
L 705.468475 125.106687 
L 710.013213 125.246005 
L 714.55795 136.670076 
L 716.830319 136.530758 
L 719.102687 136.112804 
L 721.375056 135.834168 
L 725.919793 135.834168 
L 728.192162 135.555532 
L 732.736899 135.555532 
L 735.009268 135.416214 
L 737.281636 135.137578 
L 739.554005 135.137578 
L 741.826374 134.998261 
L 744.098742 134.998261 
L 746.371111 134.858943 
L 748.643479 134.858943 
L 750.915848 134.580307 
L 753.188217 134.580307 
L 757.732954 133.187127 
L 760.005323 132.908491 
L 764.55006 132.629856 
L 766.822429 132.629856 
L 769.094797 132.490538 
L 775.911903 132.490538 
L 778.184272 132.35122 
L 780.45664 132.072584 
L 782.729009 131.933266 
L 785.001378 131.933266 
L 787.273746 131.515312 
L 789.546115 131.515312 
L 791.818483 131.097358 
L 796.363221 130.818722 
L 798.635589 130.818722 
L 800.907958 130.400769 
L 803.180327 130.400769 
L 805.452695 130.261451 
L 807.725064 129.843497 
L 819.086907 129.843497 
L 823.631644 129.564861 
L 828.176382 129.564861 
L 828.176382 129.564861 
" clip-path="url(#pad73355e68)" style="fill: none; stroke: #4c72b0; stroke-width: 1.5; stroke-linecap: round"/>
   </g>
   <g id="patch_3">
    <path d="M 116.925 140.975 
L 116.925 46.266667 
" style="fill: none; stroke: #262626; stroke-width: 1.25; stroke-linejoin: miter; stroke-linecap: square"/>
   </g>
   <g id="patch_4">
    <path d="M 828.176382 140.975 
L 828.176382 46.266667 
" style="fill: none; stroke: #262626; stroke-width: 1.25; stroke-linejoin: miter; stroke-linecap: square"/>
   </g>
   <g id="patch_5">
    <path d="M 116.925 140.975 
L 828.176382 140.975 
" style="fill: none; stroke: #262626; stroke-width: 1.25; stroke-linejoin: miter; stroke-linecap: square"/>
   </g>
   <g id="patch_6">
    <path d="M 116.925 46.266667 
L 828.176382 46.266667 
" style="fill: none; stroke: #262626; stroke-width: 1.25; stroke-linejoin: miter; stroke-linecap: square"/>
   </g>
   <g id="text_5">
    <!-- Hepatitis A -->
    <g style="fill: #262626" transform="translate(443.868816 40.266667) scale(0.12 -0.12)">
     <defs>
      <path id="ArialMT-48" d="M 513 0 
L 513 4581 
L 1119 4581 
L 1119 2700 
L 3500 2700 
L 3500 4581 
L 4106 4581 
L 4106 0 
L 3500 0 
L 3500 2159 
L 1119 2159 
L 1119 0 
L 513 0 
z
" transform="scale(0.015625)"/>
      <path id="ArialMT-65" d="M 2694 1069 
L 3275 997 
Q 3138 488 2766 206 
Q 2394 -75 1816 -75 
Q 1088 -75 661 373 
Q 234 822 234 1631 
Q 234 2469 665 2931 
Q 1097 3394 1784 3394 
Q 2450 3394 2872 2941 
Q 3294 2488 3294 1666 
Q 3294 1616 3291 1516 
L 816 1516 
Q 847 969 1125 678 
Q 1403 388 1819 388 
Q 2128 388 2347 550 
Q 2566 713 2694 1069 
z
M 847 1978 
L 2700 1978 
Q 2663 2397 2488 2606 
Q 2219 2931 1791 2931 
Q 1403 2931 1139 2672 
Q 875 2413 847 1978 
z
" transform="scale(0.015625)"/>
      <path id="ArialMT-70" d="M 422 -1272 
L 422 3319 
L 934 3319 
L 934 2888 
Q 1116 3141 1344 3267 
Q 1572 3394 1897 3394 
Q 2322 3394 2647 3175 
Q 2972 2956 3137 2557 
Q 3303 2159 3303 1684 
Q 3303 1175 3120 767 
Q 2938 359 2589 142 
Q 2241 -75 1856 -75 
Q 1575 -75 1351 44 
Q 1128 163 984 344 
L 984 -1272 
L 422 -1272 
z
M 931 1641 
Q 931 1000 1190 694 
Q 1450 388 1819 388 
Q 2194 388 2461 705 
Q 2728 1022 2728 1688 
Q 2728 2322 2467 2637 
Q 2206 2953 1844 2953 
Q 1484 2953 1207 2617 
Q 931 2281 931 1641 
z
" transform="scale(0.015625)"/>
      <path id="ArialMT-61" d="M 2588 409 
Q 2275 144 1986 34 
Q 1697 -75 1366 -75 
Q 819 -75 525 192 
Q 231 459 231 875 
Q 231 1119 342 1320 
Q 453 1522 633 1644 
Q 813 1766 1038 1828 
Q 1203 1872 1538 1913 
Q 2219 1994 2541 2106 
Q 2544 2222 2544 2253 
Q 2544 2597 2384 2738 
Q 2169 2928 1744 2928 
Q 1347 2928 1158 2789 
Q 969 2650 878 2297 
L 328 2372 
Q 403 2725 575 2942 
Q 747 3159 1072 3276 
Q 1397 3394 1825 3394 
Q 2250 3394 2515 3294 
Q 2781 3194 2906 3042 
Q 3031 2891 3081 2659 
Q 3109 2516 3109 2141 
L 3109 1391 
Q 3109 606 3145 398 
Q 3181 191 3288 0 
L 2700 0 
Q 2613 175 2588 409 
z
M 2541 1666 
Q 2234 1541 1622 1453 
Q 1275 1403 1131 1340 
Q 988 1278 909 1158 
Q 831 1038 831 891 
Q 831 666 1001 516 
Q 1172 366 1500 366 
Q 1825 366 2078 508 
Q 2331 650 2450 897 
Q 2541 1088 2541 1459 
L 2541 1666 
z
" transform="scale(0.015625)"/>
      <path id="ArialMT-74" d="M 1650 503 
L 1731 6 
Q 1494 -44 1306 -44 
Q 1000 -44 831 53 
Q 663 150 594 308 
Q 525 466 525 972 
L 525 2881 
L 113 2881 
L 113 3319 
L 525 3319 
L 525 4141 
L 1084 4478 
L 1084 3319 
L 1650 3319 
L 1650 2881 
L 1084 2881 
L 1084 941 
Q 1084 700 1114 631 
Q 1144 563 1211 522 
Q 1278 481 1403 481 
Q 1497 481 1650 503 
z
" transform="scale(0.015625)"/>
      <path id="ArialMT-69" d="M 425 3934 
L 425 4581 
L 988 4581 
L 988 3934 
L 425 3934 
z
M 425 0 
L 425 3319 
L 988 3319 
L 988 0 
L 425 0 
z
" transform="scale(0.015625)"/>
      <path id="ArialMT-73" d="M 197 991 
L 753 1078 
Q 800 744 1014 566 
Q 1228 388 1613 388 
Q 2000 388 2187 545 
Q 2375 703 2375 916 
Q 2375 1106 2209 1216 
Q 2094 1291 1634 1406 
Q 1016 1563 777 1677 
Q 538 1791 414 1992 
Q 291 2194 291 2438 
Q 291 2659 392 2848 
Q 494 3038 669 3163 
Q 800 3259 1026 3326 
Q 1253 3394 1513 3394 
Q 1903 3394 2198 3281 
Q 2494 3169 2634 2976 
Q 2775 2784 2828 2463 
L 2278 2388 
Q 2241 2644 2061 2787 
Q 1881 2931 1553 2931 
Q 1166 2931 1000 2803 
Q 834 2675 834 2503 
Q 834 2394 903 2306 
Q 972 2216 1119 2156 
Q 1203 2125 1616 2013 
Q 2213 1853 2448 1751 
Q 2684 1650 2818 1456 
Q 2953 1263 2953 975 
Q 2953 694 2789 445 
Q 2625 197 2315 61 
Q 2006 -75 1616 -75 
Q 969 -75 630 194 
Q 291 463 197 991 
z
" transform="scale(0.015625)"/>
      <path id="ArialMT-20" transform="scale(0.015625)"/>
      <path id="ArialMT-41" d="M -9 0 
L 1750 4581 
L 2403 4581 
L 4278 0 
L 3588 0 
L 3053 1388 
L 1138 1388 
L 634 0 
L -9 0 
z
M 1313 1881 
L 2866 1881 
L 2388 3150 
Q 2169 3728 2063 4100 
Q 1975 3659 1816 3225 
L 1313 1881 
z
" transform="scale(0.015625)"/>
     </defs>
     <use xlink:href="#ArialMT-48"/>
     <use xlink:href="#ArialMT-65" x="72.216797"/>
     <use xlink:href="#ArialMT-70" x="127.832031"/>
     <use xlink:href="#ArialMT-61" x="183.447266"/>
     <use xlink:href="#ArialMT-74" x="239.0625"/>
     <use xlink:href="#ArialMT-69" x="266.845703"/>
     <use xlink:href="#ArialMT-74" x="289.0625"/>
     <use xlink:href="#ArialMT-69" x="316.845703"/>
     <use xlink:href="#ArialMT-73" x="339.0625"/>
     <use xlink:href="#ArialMT-20" x="389.0625"/>
     <use xlink:href="#ArialMT-41" x="411.345703"/>
    </g>
   </g>
  </g>
  <g id="axes_2">
   <g id="patch_7">
    <path d="M 116.925 267.283333 
L 828.176382 267.283333 
L 828.176382 172.575 
L 116.925 172.575 
z
" style="fill: #ffffff"/>
   </g>
   <g id="matplotlib.axis_3">
    <g id="xtick_7">
     <g id="line2d_12">
      <g>
       <use xlink:href="#mfc16c0a8a0" x="224.05095" y="267.283333" style="fill: #262626; stroke: #262626; stroke-width: 1.25"/>
      </g>
     </g>
    </g>
    <g id="xtick_8">
     <g id="line2d_13">
      <g>
       <use xlink:href="#mfc16c0a8a0" x="342.538743" y="267.283333" style="fill: #262626; stroke: #262626; stroke-width: 1.25"/>
      </g>
     </g>
    </g>
    <g id="xtick_9">
     <g id="line2d_14">
      <g>
       <use xlink:href="#mfc16c0a8a0" x="461.026536" y="267.283333" style="fill: #262626; stroke: #262626; stroke-width: 1.25"/>
      </g>
     </g>
    </g>
    <g id="xtick_10">
     <g id="line2d_15">
      <g>
       <use xlink:href="#mfc16c0a8a0" x="579.514328" y="267.283333" style="fill: #262626; stroke: #262626; stroke-width: 1.25"/>
      </g>
     </g>
    </g>
    <g id="xtick_11">
     <g id="line2d_16">
      <g>
       <use xlink:href="#mfc16c0a8a0" x="698.326745" y="267.283333" style="fill: #262626; stroke: #262626; stroke-width: 1.25"/>
      </g>
     </g>
    </g>
    <g id="xtick_12">
     <g id="line2d_17">
      <g>
       <use xlink:href="#mfc16c0a8a0" x="816.814538" y="267.283333" style="fill: #262626; stroke: #262626; stroke-width: 1.25"/>
      </g>
     </g>
    </g>
   </g>
   <g id="matplotlib.axis_4">
    <g id="ytick_5">
     <g id="line2d_18">
      <g>
       <use xlink:href="#m422446afce" x="116.925" y="225.289528" style="fill: #262626; stroke: #262626; stroke-width: 1.25"/>
      </g>
     </g>
     <g id="text_6">
      <!-- 200 -->
      <g style="fill: #262626" transform="translate(89.073906 229.226325) scale(0.11 -0.11)">
       <use xlink:href="#ArialMT-32"/>
       <use xlink:href="#ArialMT-30" x="55.615234"/>
       <use xlink:href="#ArialMT-30" x="111.230469"/>
      </g>
     </g>
    </g>
    <g id="ytick_6">
     <g id="line2d_19">
      <g>
       <use xlink:href="#m422446afce" x="116.925" y="182.434391" style="fill: #262626; stroke: #262626; stroke-width: 1.25"/>
      </g>
     </g>
     <g id="text_7">
      <!-- 400 -->
      <g style="fill: #262626" transform="translate(89.073906 186.371188) scale(0.11 -0.11)">
       <use xlink:href="#ArialMT-34"/>
       <use xlink:href="#ArialMT-30" x="55.615234"/>
       <use xlink:href="#ArialMT-30" x="111.230469"/>
      </g>
     </g>
    </g>
    <g id="text_8">
     <!-- Trend -->
     <g style="fill: #262626" transform="translate(82.688906 235.376354) rotate(-90) scale(0.12 -0.12)">
      <defs>
       <path id="ArialMT-54" d="M 1659 0 
L 1659 4041 
L 150 4041 
L 150 4581 
L 3781 4581 
L 3781 4041 
L 2266 4041 
L 2266 0 
L 1659 0 
z
" transform="scale(0.015625)"/>
       <path id="ArialMT-72" d="M 416 0 
L 416 3319 
L 922 3319 
L 922 2816 
Q 1116 3169 1280 3281 
Q 1444 3394 1641 3394 
Q 1925 3394 2219 3213 
L 2025 2691 
Q 1819 2813 1613 2813 
Q 1428 2813 1281 2702 
Q 1134 2591 1072 2394 
Q 978 2094 978 1738 
L 978 0 
L 416 0 
z
" transform="scale(0.015625)"/>
       <path id="ArialMT-6e" d="M 422 0 
L 422 3319 
L 928 3319 
L 928 2847 
Q 1294 3394 1984 3394 
Q 2284 3394 2536 3286 
Q 2788 3178 2913 3003 
Q 3038 2828 3088 2588 
Q 3119 2431 3119 2041 
L 3119 0 
L 2556 0 
L 2556 2019 
Q 2556 2363 2490 2533 
Q 2425 2703 2258 2804 
Q 2091 2906 1866 2906 
Q 1506 2906 1245 2678 
Q 984 2450 984 1813 
L 984 0 
L 422 0 
z
" transform="scale(0.015625)"/>
       <path id="ArialMT-64" d="M 2575 0 
L 2575 419 
Q 2259 -75 1647 -75 
Q 1250 -75 917 144 
Q 584 363 401 755 
Q 219 1147 219 1656 
Q 219 2153 384 2558 
Q 550 2963 881 3178 
Q 1213 3394 1622 3394 
Q 1922 3394 2156 3267 
Q 2391 3141 2538 2938 
L 2538 4581 
L 3097 4581 
L 3097 0 
L 2575 0 
z
M 797 1656 
Q 797 1019 1065 703 
Q 1334 388 1700 388 
Q 2069 388 2326 689 
Q 2584 991 2584 1609 
Q 2584 2291 2321 2609 
Q 2059 2928 1675 2928 
Q 1300 2928 1048 2622 
Q 797 2316 797 1656 
z
" transform="scale(0.015625)"/>
      </defs>
      <use xlink:href="#ArialMT-54"/>
      <use xlink:href="#ArialMT-72" x="57.333984"/>
      <use xlink:href="#ArialMT-65" x="90.634766"/>
      <use xlink:href="#ArialMT-6e" x="146.25"/>
      <use xlink:href="#ArialMT-64" x="201.865234"/>
     </g>
    </g>
   </g>
   <g id="line2d_20">
    <path d="M 116.925 176.879924 
L 128.286843 179.977951 
L 132.83158 180.598199 
L 189.640796 195.995738 
L 221.453957 204.567238 
L 230.543432 205.198838 
L 244.177643 208.631855 
L 250.994749 210.131221 
L 257.811855 211.406536 
L 264.628961 212.472377 
L 273.718436 213.653657 
L 287.352647 215.152006 
L 337.344757 220.225824 
L 344.161863 220.828545 
L 350.978969 221.229846 
L 360.068444 222.179371 
L 366.885549 223.095952 
L 389.609236 223.443617 
L 398.69871 225.023865 
L 403.243448 225.910155 
L 407.788185 226.372685 
L 419.150028 228.826918 
L 444.146083 234.335786 
L 453.235557 236.070509 
L 462.325032 237.540979 
L 464.597401 237.868918 
L 471.414506 238.185005 
L 489.593456 240.538571 
L 498.68293 241.518793 
L 507.772405 242.301259 
L 516.861879 242.896824 
L 528.223722 243.401916 
L 546.402671 243.890037 
L 557.764514 244.301507 
L 566.853989 244.868848 
L 575.943463 245.720588 
L 587.305307 247.066049 
L 591.850044 247.35634 
L 603.211887 248.921083 
L 612.301362 250.306069 
L 648.65926 250.667439 
L 666.838209 253.692779 
L 675.927683 254.465937 
L 685.017158 255.988893 
L 691.834264 256.358361 
L 703.196107 258.081514 
L 705.468475 258.39448 
L 714.55795 258.983611 
L 723.647425 260.00934 
L 735.009268 260.591403 
L 757.732954 261.472305 
L 782.729009 262.204483 
L 807.725064 262.717286 
L 828.176382 262.978409 
L 828.176382 262.978409 
" clip-path="url(#p9f6b59b7fc)" style="fill: none; stroke: #4c72b0; stroke-width: 1.5; stroke-linecap: round"/>
   </g>
   <g id="patch_8">
    <path d="M 116.925 267.283333 
L 116.925 172.575 
" style="fill: none; stroke: #262626; stroke-width: 1.25; stroke-linejoin: miter; stroke-linecap: square"/>
   </g>
   <g id="patch_9">
    <path d="M 828.176382 267.283333 
L 828.176382 172.575 
" style="fill: none; stroke: #262626; stroke-width: 1.25; stroke-linejoin: miter; stroke-linecap: square"/>
   </g>
   <g id="patch_10">
    <path d="M 116.925 267.283333 
L 828.176382 267.283333 
" style="fill: none; stroke: #262626; stroke-width: 1.25; stroke-linejoin: miter; stroke-linecap: square"/>
   </g>
   <g id="patch_11">
    <path d="M 116.925 172.575 
L 828.176382 172.575 
" style="fill: none; stroke: #262626; stroke-width: 1.25; stroke-linejoin: miter; stroke-linecap: square"/>
   </g>
  </g>
  <g id="axes_3">
   <g id="patch_12">
    <path d="M 116.925 393.591667 
L 828.176382 393.591667 
L 828.176382 298.883333 
L 116.925 298.883333 
z
" style="fill: #ffffff"/>
   </g>
   <g id="matplotlib.axis_5">
    <g id="xtick_13">
     <g id="line2d_21">
      <g>
       <use xlink:href="#mfc16c0a8a0" x="224.05095" y="393.591667" style="fill: #262626; stroke: #262626; stroke-width: 1.25"/>
      </g>
     </g>
    </g>
    <g id="xtick_14">
     <g id="line2d_22">
      <g>
       <use xlink:href="#mfc16c0a8a0" x="342.538743" y="393.591667" style="fill: #262626; stroke: #262626; stroke-width: 1.25"/>
      </g>
     </g>
    </g>
    <g id="xtick_15">
     <g id="line2d_23">
      <g>
       <use xlink:href="#mfc16c0a8a0" x="461.026536" y="393.591667" style="fill: #262626; stroke: #262626; stroke-width: 1.25"/>
      </g>
     </g>
    </g>
    <g id="xtick_16">
     <g id="line2d_24">
      <g>
       <use xlink:href="#mfc16c0a8a0" x="579.514328" y="393.591667" style="fill: #262626; stroke: #262626; stroke-width: 1.25"/>
      </g>
     </g>
    </g>
    <g id="xtick_17">
     <g id="line2d_25">
      <g>
       <use xlink:href="#mfc16c0a8a0" x="698.326745" y="393.591667" style="fill: #262626; stroke: #262626; stroke-width: 1.25"/>
      </g>
     </g>
    </g>
    <g id="xtick_18">
     <g id="line2d_26">
      <g>
       <use xlink:href="#mfc16c0a8a0" x="816.814538" y="393.591667" style="fill: #262626; stroke: #262626; stroke-width: 1.25"/>
      </g>
     </g>
    </g>
   </g>
   <g id="matplotlib.axis_6">
    <g id="ytick_7">
     <g id="line2d_27">
      <g>
       <use xlink:href="#m422446afce" x="116.925" y="391.971178" style="fill: #262626; stroke: #262626; stroke-width: 1.25"/>
      </g>
     </g>
     <g id="text_9">
      <!-- −400 -->
      <g style="fill: #262626" transform="translate(82.649219 395.907975) scale(0.11 -0.11)">
       <defs>
        <path id="ArialMT-2212" d="M 3381 1997 
L 356 1997 
L 356 2522 
L 3381 2522 
L 3381 1997 
z
" transform="scale(0.015625)"/>
       </defs>
       <use xlink:href="#ArialMT-2212"/>
       <use xlink:href="#ArialMT-34" x="58.398438"/>
       <use xlink:href="#ArialMT-30" x="114.013672"/>
       <use xlink:href="#ArialMT-30" x="169.628906"/>
      </g>
     </g>
    </g>
    <g id="ytick_8">
     <g id="line2d_28">
      <g>
       <use xlink:href="#m422446afce" x="116.925" y="365.91666" style="fill: #262626; stroke: #262626; stroke-width: 1.25"/>
      </g>
     </g>
     <g id="text_10">
      <!-- −200 -->
      <g style="fill: #262626" transform="translate(82.649219 369.853457) scale(0.11 -0.11)">
       <use xlink:href="#ArialMT-2212"/>
       <use xlink:href="#ArialMT-32" x="58.398438"/>
       <use xlink:href="#ArialMT-30" x="114.013672"/>
       <use xlink:href="#ArialMT-30" x="169.628906"/>
      </g>
     </g>
    </g>
    <g id="ytick_9">
     <g id="line2d_29">
      <g>
       <use xlink:href="#m422446afce" x="116.925" y="339.862142" style="fill: #262626; stroke: #262626; stroke-width: 1.25"/>
      </g>
     </g>
     <g id="text_11">
      <!-- 0 -->
      <g style="fill: #262626" transform="translate(101.307969 343.798939) scale(0.11 -0.11)">
       <use xlink:href="#ArialMT-30"/>
      </g>
     </g>
    </g>
    <g id="ytick_10">
     <g id="line2d_30">
      <g>
       <use xlink:href="#m422446afce" x="116.925" y="313.807624" style="fill: #262626; stroke: #262626; stroke-width: 1.25"/>
      </g>
     </g>
     <g id="text_12">
      <!-- 200 -->
      <g style="fill: #262626" transform="translate(89.073906 317.744421) scale(0.11 -0.11)">
       <use xlink:href="#ArialMT-32"/>
       <use xlink:href="#ArialMT-30" x="55.615234"/>
       <use xlink:href="#ArialMT-30" x="111.230469"/>
      </g>
     </g>
    </g>
    <g id="text_13">
     <!-- Season -->
     <g style="fill: #262626" transform="translate(76.264219 366.585937) rotate(-90) scale(0.12 -0.12)">
      <defs>
       <path id="ArialMT-53" d="M 288 1472 
L 859 1522 
Q 900 1178 1048 958 
Q 1197 738 1509 602 
Q 1822 466 2213 466 
Q 2559 466 2825 569 
Q 3091 672 3220 851 
Q 3350 1031 3350 1244 
Q 3350 1459 3225 1620 
Q 3100 1781 2813 1891 
Q 2628 1963 1997 2114 
Q 1366 2266 1113 2400 
Q 784 2572 623 2826 
Q 463 3081 463 3397 
Q 463 3744 659 4045 
Q 856 4347 1234 4503 
Q 1613 4659 2075 4659 
Q 2584 4659 2973 4495 
Q 3363 4331 3572 4012 
Q 3781 3694 3797 3291 
L 3216 3247 
Q 3169 3681 2898 3903 
Q 2628 4125 2100 4125 
Q 1550 4125 1298 3923 
Q 1047 3722 1047 3438 
Q 1047 3191 1225 3031 
Q 1400 2872 2139 2705 
Q 2878 2538 3153 2413 
Q 3553 2228 3743 1945 
Q 3934 1663 3934 1294 
Q 3934 928 3725 604 
Q 3516 281 3123 101 
Q 2731 -78 2241 -78 
Q 1619 -78 1198 103 
Q 778 284 539 648 
Q 300 1013 288 1472 
z
" transform="scale(0.015625)"/>
       <path id="ArialMT-6f" d="M 213 1659 
Q 213 2581 725 3025 
Q 1153 3394 1769 3394 
Q 2453 3394 2887 2945 
Q 3322 2497 3322 1706 
Q 3322 1066 3130 698 
Q 2938 331 2570 128 
Q 2203 -75 1769 -75 
Q 1072 -75 642 372 
Q 213 819 213 1659 
z
M 791 1659 
Q 791 1022 1069 705 
Q 1347 388 1769 388 
Q 2188 388 2466 706 
Q 2744 1025 2744 1678 
Q 2744 2294 2464 2611 
Q 2184 2928 1769 2928 
Q 1347 2928 1069 2612 
Q 791 2297 791 1659 
z
" transform="scale(0.015625)"/>
      </defs>
      <use xlink:href="#ArialMT-53"/>
      <use xlink:href="#ArialMT-65" x="66.699219"/>
      <use xlink:href="#ArialMT-61" x="122.314453"/>
      <use xlink:href="#ArialMT-73" x="177.929688"/>
      <use xlink:href="#ArialMT-6f" x="227.929688"/>
      <use xlink:href="#ArialMT-6e" x="283.544922"/>
     </g>
    </g>
   </g>
   <g id="line2d_31">
    <path d="M 116.925 385.480745 
L 119.197369 389.286742 
L 121.469737 387.228427 
L 123.742106 380.653887 
L 126.014475 377.169912 
L 128.286843 375.865822 
L 132.83158 372.939672 
L 137.376318 367.467247 
L 139.648686 363.957675 
L 141.921055 362.550453 
L 146.465792 358.566768 
L 148.738161 357.046518 
L 151.010529 355.340527 
L 153.282898 352.346492 
L 155.555267 350.459969 
L 157.827635 349.616021 
L 160.100004 346.550771 
L 162.372373 345.283015 
L 164.644741 344.185873 
L 166.91711 342.929721 
L 169.189479 340.780199 
L 171.461847 339.115655 
L 173.734216 336.88921 
L 176.006584 335.072669 
L 178.278953 334.512105 
L 180.551322 331.890608 
L 185.096059 328.026929 
L 187.368428 326.315398 
L 189.640796 322.913447 
L 191.913165 321.852972 
L 194.185533 320.411217 
L 196.457902 319.20183 
L 198.730271 313.919223 
L 201.002639 312.933026 
L 203.275008 310.952239 
L 205.547377 310.490354 
L 207.819745 309.670094 
L 210.092114 307.173031 
L 212.364483 305.720765 
L 214.636851 303.332877 
L 216.90922 305.838121 
L 219.181588 305.033653 
L 221.453957 303.188258 
L 230.543432 358.035215 
L 232.8158 354.464294 
L 235.088169 366.668156 
L 237.360537 378.063094 
L 239.632906 376.663478 
L 241.905275 372.714116 
L 244.177643 370.29895 
L 246.450012 369.282493 
L 248.722381 367.02737 
L 250.994749 365.358115 
L 253.267118 363.488363 
L 255.539487 360.68308 
L 257.811855 358.512041 
L 262.356592 355.464685 
L 266.90133 352.920983 
L 269.173698 350.877166 
L 273.718436 348.342514 
L 275.990804 346.195929 
L 282.80791 342.705598 
L 289.625016 336.724066 
L 291.897385 335.36022 
L 294.169753 334.51702 
L 296.442122 332.565915 
L 298.71449 330.804404 
L 300.986859 329.298438 
L 303.259228 328.187138 
L 305.531596 325.876722 
L 307.803965 325.301803 
L 310.076334 324.170135 
L 312.348702 323.229123 
L 314.621071 319.857201 
L 316.89344 319.009886 
L 319.165808 317.215136 
L 321.438177 316.812755 
L 323.710545 316.126902 
L 325.982914 314.453298 
L 328.255283 313.336771 
L 330.527651 311.546981 
L 332.80002 319.491466 
L 335.072389 318.953779 
L 337.344757 317.616562 
L 339.617126 347.87759 
L 341.889494 349.646286 
L 344.161863 351.04799 
L 348.7066 366.935027 
L 350.978969 366.153044 
L 355.523706 363.236489 
L 357.796075 362.455245 
L 360.068444 360.834807 
L 362.340812 360.138615 
L 364.613181 359.07134 
L 366.885549 356.824269 
L 389.609236 354.268292 
L 394.153973 352.10149 
L 398.69871 350.29526 
L 400.971079 349.130661 
L 403.243448 348.439913 
L 407.788185 346.864032 
L 412.332922 344.472121 
L 416.877659 342.272393 
L 419.150028 340.554966 
L 421.422397 338.418181 
L 423.694765 336.716812 
L 425.967134 335.803139 
L 428.239502 334.757215 
L 430.511871 333.432072 
L 432.78424 331.935785 
L 435.056608 330.787295 
L 437.328977 330.2447 
L 439.601346 328.993713 
L 441.873714 329.259366 
L 444.146083 328.43079 
L 446.418452 327.740537 
L 448.69082 326.195972 
L 450.963189 325.492471 
L 453.235557 323.888033 
L 455.507926 323.538948 
L 457.780295 323.005644 
L 462.325032 321.349048 
L 464.597401 320.110037 
L 471.414506 331.335026 
L 473.686875 331.050057 
L 475.959244 330.198551 
L 480.503981 344.160392 
L 482.77635 343.672479 
L 485.048718 357.911833 
L 489.593456 356.706713 
L 494.138193 355.302694 
L 496.410561 354.410514 
L 498.68293 354.049105 
L 500.955299 353.435648 
L 503.227667 351.823925 
L 505.500036 349.595946 
L 510.044773 347.896124 
L 512.317142 347.461616 
L 516.861879 346.132958 
L 519.134248 345.675612 
L 521.406616 344.313398 
L 525.951354 342.62028 
L 528.223722 341.694921 
L 530.496091 340.90661 
L 532.76846 339.651879 
L 535.040828 337.883579 
L 537.313197 336.742822 
L 539.585565 336.017906 
L 541.857934 335.04945 
L 544.130303 334.295946 
L 546.402671 333.181849 
L 548.67504 332.502606 
L 550.947409 332.163947 
L 553.219777 331.561393 
L 555.492146 333.575212 
L 560.036883 332.506675 
L 562.309252 333.457804 
L 564.58162 332.917096 
L 566.853989 332.092946 
L 571.398726 331.340718 
L 575.943463 330.327259 
L 578.215832 329.575722 
L 580.488201 337.786732 
L 582.760569 337.595512 
L 585.032938 337.115666 
L 587.305307 337.019232 
L 591.850044 345.764342 
L 594.122413 345.346565 
L 596.394781 349.721543 
L 605.484256 347.444452 
L 612.301362 346.33525 
L 648.65926 345.256227 
L 650.931628 344.406503 
L 653.203997 343.922579 
L 655.476366 343.203523 
L 657.748734 343.141778 
L 664.56584 341.849856 
L 666.838209 341.178332 
L 675.927683 340.046934 
L 678.200052 339.438785 
L 680.472421 339.056949 
L 685.017158 337.642617 
L 691.834264 337.17785 
L 696.379001 336.046872 
L 698.65137 335.690377 
L 700.923738 335.142501 
L 705.468475 334.57706 
L 710.013213 334.313035 
L 714.55795 337.197523 
L 719.102687 336.56374 
L 721.375056 340.949159 
L 723.647425 340.556328 
L 725.919793 340.591159 
L 730.46453 339.950851 
L 732.736899 339.824967 
L 737.281636 339.179748 
L 739.554005 342.228039 
L 744.098742 341.958018 
L 746.371111 337.118512 
L 748.643479 348.206806 
L 750.915848 347.817347 
L 753.188217 341.797174 
L 755.460585 341.196147 
L 757.732954 340.447955 
L 760.005323 340.326042 
L 762.277691 339.770772 
L 764.55006 339.809472 
L 769.094797 339.286238 
L 771.367166 338.595211 
L 773.639534 339.214907 
L 775.911903 339.06603 
L 778.184272 338.489458 
L 780.45664 338.810048 
L 785.001378 338.432408 
L 787.273746 337.986558 
L 789.546115 338.047653 
L 794.090852 337.417542 
L 796.363221 337.151124 
L 798.635589 337.179149 
L 800.907958 337.015726 
L 803.180327 337.403553 
L 805.452695 337.548709 
L 807.725064 337.12227 
L 812.269801 337.069593 
L 816.814538 337.137682 
L 819.086907 336.996636 
L 821.359276 337.049344 
L 823.631644 341.019455 
L 828.176382 340.820564 
L 828.176382 340.820564 
" clip-path="url(#p290484362f)" style="fill: none; stroke: #4c72b0; stroke-width: 1.5; stroke-linecap: round"/>
   </g>
   <g id="patch_13">
    <path d="M 116.925 393.591667 
L 116.925 298.883333 
" style="fill: none; stroke: #262626; stroke-width: 1.25; stroke-linejoin: miter; stroke-linecap: square"/>
   </g>
   <g id="patch_14">
    <path d="M 828.176382 393.591667 
L 828.176382 298.883333 
" style="fill: none; stroke: #262626; stroke-width: 1.25; stroke-linejoin: miter; stroke-linecap: square"/>
   </g>
   <g id="patch_15">
    <path d="M 116.925 393.591667 
L 828.176382 393.591667 
" style="fill: none; stroke: #262626; stroke-width: 1.25; stroke-linejoin: miter; stroke-linecap: square"/>
   </g>
   <g id="patch_16">
    <path d="M 116.925 298.883333 
L 828.176382 298.883333 
" style="fill: none; stroke: #262626; stroke-width: 1.25; stroke-linejoin: miter; stroke-linecap: square"/>
   </g>
  </g>
  <g id="axes_4">
   <g id="patch_17">
    <path d="M 116.925 519.9 
L 828.176382 519.9 
L 828.176382 425.191667 
L 116.925 425.191667 
z
" style="fill: #ffffff"/>
   </g>
   <g id="line2d_32">
    <path d="M 116.925 480.844746 
L 828.176382 480.844746 
" clip-path="url(#p825cd5ce35)" style="fill: none; stroke: #000000; stroke-width: 1.5; stroke-linecap: round"/>
   </g>
   <g id="matplotlib.axis_7">
    <g id="xtick_19">
     <g id="line2d_33">
      <g>
       <use xlink:href="#mfc16c0a8a0" x="224.05095" y="519.9" style="fill: #262626; stroke: #262626; stroke-width: 1.25"/>
      </g>
     </g>
     <g id="text_14">
      <!-- 2017 -->
      <g style="fill: #262626" transform="translate(211.816887 537.273594) scale(0.11 -0.11)">
       <defs>
        <path id="ArialMT-31" d="M 2384 0 
L 1822 0 
L 1822 3584 
Q 1619 3391 1289 3197 
Q 959 3003 697 2906 
L 697 3450 
Q 1169 3672 1522 3987 
Q 1875 4303 2022 4600 
L 2384 4600 
L 2384 0 
z
" transform="scale(0.015625)"/>
        <path id="ArialMT-37" d="M 303 3981 
L 303 4522 
L 3269 4522 
L 3269 4084 
Q 2831 3619 2401 2847 
Q 1972 2075 1738 1259 
Q 1569 684 1522 0 
L 944 0 
Q 953 541 1156 1306 
Q 1359 2072 1739 2783 
Q 2119 3494 2547 3981 
L 303 3981 
z
" transform="scale(0.015625)"/>
       </defs>
       <use xlink:href="#ArialMT-32"/>
       <use xlink:href="#ArialMT-30" x="55.615234"/>
       <use xlink:href="#ArialMT-31" x="111.230469"/>
       <use xlink:href="#ArialMT-37" x="166.845703"/>
      </g>
     </g>
    </g>
    <g id="xtick_20">
     <g id="line2d_34">
      <g>
       <use xlink:href="#mfc16c0a8a0" x="342.538743" y="519.9" style="fill: #262626; stroke: #262626; stroke-width: 1.25"/>
      </g>
     </g>
     <g id="text_15">
      <!-- 2018 -->
      <g style="fill: #262626" transform="translate(330.30468 537.273594) scale(0.11 -0.11)">
       <defs>
        <path id="ArialMT-38" d="M 1131 2484 
Q 781 2613 612 2850 
Q 444 3088 444 3419 
Q 444 3919 803 4259 
Q 1163 4600 1759 4600 
Q 2359 4600 2725 4251 
Q 3091 3903 3091 3403 
Q 3091 3084 2923 2848 
Q 2756 2613 2416 2484 
Q 2838 2347 3058 2040 
Q 3278 1734 3278 1309 
Q 3278 722 2862 322 
Q 2447 -78 1769 -78 
Q 1091 -78 675 323 
Q 259 725 259 1325 
Q 259 1772 486 2073 
Q 713 2375 1131 2484 
z
M 1019 3438 
Q 1019 3113 1228 2906 
Q 1438 2700 1772 2700 
Q 2097 2700 2305 2904 
Q 2513 3109 2513 3406 
Q 2513 3716 2298 3927 
Q 2084 4138 1766 4138 
Q 1444 4138 1231 3931 
Q 1019 3725 1019 3438 
z
M 838 1322 
Q 838 1081 952 856 
Q 1066 631 1291 507 
Q 1516 384 1775 384 
Q 2178 384 2440 643 
Q 2703 903 2703 1303 
Q 2703 1709 2433 1975 
Q 2163 2241 1756 2241 
Q 1359 2241 1098 1978 
Q 838 1716 838 1322 
z
" transform="scale(0.015625)"/>
       </defs>
       <use xlink:href="#ArialMT-32"/>
       <use xlink:href="#ArialMT-30" x="55.615234"/>
       <use xlink:href="#ArialMT-31" x="111.230469"/>
       <use xlink:href="#ArialMT-38" x="166.845703"/>
      </g>
     </g>
    </g>
    <g id="xtick_21">
     <g id="line2d_35">
      <g>
       <use xlink:href="#mfc16c0a8a0" x="461.026536" y="519.9" style="fill: #262626; stroke: #262626; stroke-width: 1.25"/>
      </g>
     </g>
     <g id="text_16">
      <!-- 2019 -->
      <g style="fill: #262626" transform="translate(448.792473 537.273594) scale(0.11 -0.11)">
       <defs>
        <path id="ArialMT-39" d="M 350 1059 
L 891 1109 
Q 959 728 1153 556 
Q 1347 384 1650 384 
Q 1909 384 2104 503 
Q 2300 622 2425 820 
Q 2550 1019 2634 1356 
Q 2719 1694 2719 2044 
Q 2719 2081 2716 2156 
Q 2547 1888 2255 1720 
Q 1963 1553 1622 1553 
Q 1053 1553 659 1965 
Q 266 2378 266 3053 
Q 266 3750 677 4175 
Q 1088 4600 1706 4600 
Q 2153 4600 2523 4359 
Q 2894 4119 3086 3673 
Q 3278 3228 3278 2384 
Q 3278 1506 3087 986 
Q 2897 466 2520 194 
Q 2144 -78 1638 -78 
Q 1100 -78 759 220 
Q 419 519 350 1059 
z
M 2653 3081 
Q 2653 3566 2395 3850 
Q 2138 4134 1775 4134 
Q 1400 4134 1122 3828 
Q 844 3522 844 3034 
Q 844 2597 1108 2323 
Q 1372 2050 1759 2050 
Q 2150 2050 2401 2323 
Q 2653 2597 2653 3081 
z
" transform="scale(0.015625)"/>
       </defs>
       <use xlink:href="#ArialMT-32"/>
       <use xlink:href="#ArialMT-30" x="55.615234"/>
       <use xlink:href="#ArialMT-31" x="111.230469"/>
       <use xlink:href="#ArialMT-39" x="166.845703"/>
      </g>
     </g>
    </g>
    <g id="xtick_22">
     <g id="line2d_36">
      <g>
       <use xlink:href="#mfc16c0a8a0" x="579.514328" y="519.9" style="fill: #262626; stroke: #262626; stroke-width: 1.25"/>
      </g>
     </g>
     <g id="text_17">
      <!-- 2020 -->
      <g style="fill: #262626" transform="translate(567.280266 537.273594) scale(0.11 -0.11)">
       <use xlink:href="#ArialMT-32"/>
       <use xlink:href="#ArialMT-30" x="55.615234"/>
       <use xlink:href="#ArialMT-32" x="111.230469"/>
       <use xlink:href="#ArialMT-30" x="166.845703"/>
      </g>
     </g>
    </g>
    <g id="xtick_23">
     <g id="line2d_37">
      <g>
       <use xlink:href="#mfc16c0a8a0" x="698.326745" y="519.9" style="fill: #262626; stroke: #262626; stroke-width: 1.25"/>
      </g>
     </g>
     <g id="text_18">
      <!-- 2021 -->
      <g style="fill: #262626" transform="translate(686.092683 537.273594) scale(0.11 -0.11)">
       <use xlink:href="#ArialMT-32"/>
       <use xlink:href="#ArialMT-30" x="55.615234"/>
       <use xlink:href="#ArialMT-32" x="111.230469"/>
       <use xlink:href="#ArialMT-31" x="166.845703"/>
      </g>
     </g>
    </g>
    <g id="xtick_24">
     <g id="line2d_38">
      <g>
       <use xlink:href="#mfc16c0a8a0" x="816.814538" y="519.9" style="fill: #262626; stroke: #262626; stroke-width: 1.25"/>
      </g>
     </g>
     <g id="text_19">
      <!-- 2022 -->
      <g style="fill: #262626" transform="translate(804.580476 537.273594) scale(0.11 -0.11)">
       <use xlink:href="#ArialMT-32"/>
       <use xlink:href="#ArialMT-30" x="55.615234"/>
       <use xlink:href="#ArialMT-32" x="111.230469"/>
       <use xlink:href="#ArialMT-32" x="166.845703"/>
      </g>
     </g>
    </g>
   </g>
   <g id="matplotlib.axis_8">
    <g id="ytick_11">
     <g id="line2d_39">
      <g>
       <use xlink:href="#m422446afce" x="116.925" y="514.074846" style="fill: #262626; stroke: #262626; stroke-width: 1.25"/>
      </g>
     </g>
     <g id="text_20">
      <!-- −200 -->
      <g style="fill: #262626" transform="translate(82.649219 518.011643) scale(0.11 -0.11)">
       <use xlink:href="#ArialMT-2212"/>
       <use xlink:href="#ArialMT-32" x="58.398438"/>
       <use xlink:href="#ArialMT-30" x="114.013672"/>
       <use xlink:href="#ArialMT-30" x="169.628906"/>
      </g>
     </g>
    </g>
    <g id="ytick_12">
     <g id="line2d_40">
      <g>
       <use xlink:href="#m422446afce" x="116.925" y="480.844746" style="fill: #262626; stroke: #262626; stroke-width: 1.25"/>
      </g>
     </g>
     <g id="text_21">
      <!-- 0 -->
      <g style="fill: #262626" transform="translate(101.307969 484.781542) scale(0.11 -0.11)">
       <use xlink:href="#ArialMT-30"/>
      </g>
     </g>
    </g>
    <g id="ytick_13">
     <g id="line2d_41">
      <g>
       <use xlink:href="#m422446afce" x="116.925" y="447.614645" style="fill: #262626; stroke: #262626; stroke-width: 1.25"/>
      </g>
     </g>
     <g id="text_22">
      <!-- 200 -->
      <g style="fill: #262626" transform="translate(89.073906 451.551442) scale(0.11 -0.11)">
       <use xlink:href="#ArialMT-32"/>
       <use xlink:href="#ArialMT-30" x="55.615234"/>
       <use xlink:href="#ArialMT-30" x="111.230469"/>
      </g>
     </g>
    </g>
    <g id="text_23">
     <!-- Resid -->
     <g style="fill: #262626" transform="translate(76.264219 487.885208) rotate(-90) scale(0.12 -0.12)">
      <defs>
       <path id="ArialMT-52" d="M 503 0 
L 503 4581 
L 2534 4581 
Q 3147 4581 3465 4457 
Q 3784 4334 3975 4021 
Q 4166 3709 4166 3331 
Q 4166 2844 3850 2509 
Q 3534 2175 2875 2084 
Q 3116 1969 3241 1856 
Q 3506 1613 3744 1247 
L 4541 0 
L 3778 0 
L 3172 953 
Q 2906 1366 2734 1584 
Q 2563 1803 2427 1890 
Q 2291 1978 2150 2013 
Q 2047 2034 1813 2034 
L 1109 2034 
L 1109 0 
L 503 0 
z
M 1109 2559 
L 2413 2559 
Q 2828 2559 3062 2645 
Q 3297 2731 3419 2920 
Q 3541 3109 3541 3331 
Q 3541 3656 3305 3865 
Q 3069 4075 2559 4075 
L 1109 4075 
L 1109 2559 
z
" transform="scale(0.015625)"/>
      </defs>
      <use xlink:href="#ArialMT-52"/>
      <use xlink:href="#ArialMT-65" x="72.216797"/>
      <use xlink:href="#ArialMT-73" x="127.832031"/>
      <use xlink:href="#ArialMT-69" x="177.832031"/>
      <use xlink:href="#ArialMT-64" x="200.048828"/>
     </g>
    </g>
   </g>
   <g id="line2d_42">
    <defs>
     <path id="m2ee8fc7433" d="M 0 3 
C 0.795609 3 1.55874 2.683901 2.12132 2.12132 
C 2.683901 1.55874 3 0.795609 3 0 
C 3 -0.795609 2.683901 -1.55874 2.12132 -2.12132 
C 1.55874 -2.683901 0.795609 -3 0 -3 
C -0.795609 -3 -1.55874 -2.683901 -2.12132 -2.12132 
C -2.683901 -1.55874 -3 -0.795609 -3 0 
C -3 0.795609 -2.683901 1.55874 -2.12132 2.12132 
C -1.55874 2.683901 -0.795609 3 0 3 
z
" style="stroke: #4c72b0"/>
    </defs>
    <g clip-path="url(#p825cd5ce35)">
     <use xlink:href="#m2ee8fc7433" x="116.925" y="489.442037" style="fill: #4c72b0; stroke: #4c72b0"/>
     <use xlink:href="#m2ee8fc7433" x="119.197369" y="484.107878" style="fill: #4c72b0; stroke: #4c72b0"/>
     <use xlink:href="#m2ee8fc7433" x="121.469737" y="483.262112" style="fill: #4c72b0; stroke: #4c72b0"/>
     <use xlink:href="#m2ee8fc7433" x="123.742106" y="480.2009" style="fill: #4c72b0; stroke: #4c72b0"/>
     <use xlink:href="#m2ee8fc7433" x="126.014475" y="480.342235" style="fill: #4c72b0; stroke: #4c72b0"/>
     <use xlink:href="#m2ee8fc7433" x="128.286843" y="479.863137" style="fill: #4c72b0; stroke: #4c72b0"/>
     <use xlink:href="#m2ee8fc7433" x="132.83158" y="480.954267" style="fill: #4c72b0; stroke: #4c72b0"/>
     <use xlink:href="#m2ee8fc7433" x="135.103949" y="479.625342" style="fill: #4c72b0; stroke: #4c72b0"/>
     <use xlink:href="#m2ee8fc7433" x="137.376318" y="479.162742" style="fill: #4c72b0; stroke: #4c72b0"/>
     <use xlink:href="#m2ee8fc7433" x="139.648686" y="480.499484" style="fill: #4c72b0; stroke: #4c72b0"/>
     <use xlink:href="#m2ee8fc7433" x="141.921055" y="480.816458" style="fill: #4c72b0; stroke: #4c72b0"/>
     <use xlink:href="#m2ee8fc7433" x="144.193424" y="480.641858" style="fill: #4c72b0; stroke: #4c72b0"/>
     <use xlink:href="#m2ee8fc7433" x="146.465792" y="479.951373" style="fill: #4c72b0; stroke: #4c72b0"/>
     <use xlink:href="#m2ee8fc7433" x="148.738161" y="480.24686" style="fill: #4c72b0; stroke: #4c72b0"/>
     <use xlink:href="#m2ee8fc7433" x="151.010529" y="479.782601" style="fill: #4c72b0; stroke: #4c72b0"/>
     <use xlink:href="#m2ee8fc7433" x="153.282898" y="479.133772" style="fill: #4c72b0; stroke: #4c72b0"/>
     <use xlink:href="#m2ee8fc7433" x="155.555267" y="478.568119" style="fill: #4c72b0; stroke: #4c72b0"/>
     <use xlink:href="#m2ee8fc7433" x="157.827635" y="479.165405" style="fill: #4c72b0; stroke: #4c72b0"/>
     <use xlink:href="#m2ee8fc7433" x="160.100004" y="478.276268" style="fill: #4c72b0; stroke: #4c72b0"/>
     <use xlink:href="#m2ee8fc7433" x="162.372373" y="479.082665" style="fill: #4c72b0; stroke: #4c72b0"/>
     <use xlink:href="#m2ee8fc7433" x="164.644741" y="479.173493" style="fill: #4c72b0; stroke: #4c72b0"/>
     <use xlink:href="#m2ee8fc7433" x="166.91711" y="479.633779" style="fill: #4c72b0; stroke: #4c72b0"/>
     <use xlink:href="#m2ee8fc7433" x="169.189479" y="480.237092" style="fill: #4c72b0; stroke: #4c72b0"/>
     <use xlink:href="#m2ee8fc7433" x="171.461847" y="480.554693" style="fill: #4c72b0; stroke: #4c72b0"/>
     <use xlink:href="#m2ee8fc7433" x="173.734216" y="481.589482" style="fill: #4c72b0; stroke: #4c72b0"/>
     <use xlink:href="#m2ee8fc7433" x="176.006584" y="480.772812" style="fill: #4c72b0; stroke: #4c72b0"/>
     <use xlink:href="#m2ee8fc7433" x="178.278953" y="480.847057" style="fill: #4c72b0; stroke: #4c72b0"/>
     <use xlink:href="#m2ee8fc7433" x="180.551322" y="481.0581" style="fill: #4c72b0; stroke: #4c72b0"/>
     <use xlink:href="#m2ee8fc7433" x="182.82369" y="480.932774" style="fill: #4c72b0; stroke: #4c72b0"/>
     <use xlink:href="#m2ee8fc7433" x="185.096059" y="481.550187" style="fill: #4c72b0; stroke: #4c72b0"/>
     <use xlink:href="#m2ee8fc7433" x="187.368428" y="480.602139" style="fill: #4c72b0; stroke: #4c72b0"/>
     <use xlink:href="#m2ee8fc7433" x="189.640796" y="479.982844" style="fill: #4c72b0; stroke: #4c72b0"/>
     <use xlink:href="#m2ee8fc7433" x="191.913165" y="480.863665" style="fill: #4c72b0; stroke: #4c72b0"/>
     <use xlink:href="#m2ee8fc7433" x="194.185533" y="480.735742" style="fill: #4c72b0; stroke: #4c72b0"/>
     <use xlink:href="#m2ee8fc7433" x="196.457902" y="480.643999" style="fill: #4c72b0; stroke: #4c72b0"/>
     <use xlink:href="#m2ee8fc7433" x="198.730271" y="478.769081" style="fill: #4c72b0; stroke: #4c72b0"/>
     <use xlink:href="#m2ee8fc7433" x="201.002639" y="478.558968" style="fill: #4c72b0; stroke: #4c72b0"/>
     <use xlink:href="#m2ee8fc7433" x="203.275008" y="480.281789" style="fill: #4c72b0; stroke: #4c72b0"/>
     <use xlink:href="#m2ee8fc7433" x="205.547377" y="480.233138" style="fill: #4c72b0; stroke: #4c72b0"/>
     <use xlink:href="#m2ee8fc7433" x="207.819745" y="479.810103" style="fill: #4c72b0; stroke: #4c72b0"/>
     <use xlink:href="#m2ee8fc7433" x="210.092114" y="478.700033" style="fill: #4c72b0; stroke: #4c72b0"/>
     <use xlink:href="#m2ee8fc7433" x="212.364483" y="478.415826" style="fill: #4c72b0; stroke: #4c72b0"/>
     <use xlink:href="#m2ee8fc7433" x="214.636851" y="478.49204" style="fill: #4c72b0; stroke: #4c72b0"/>
     <use xlink:href="#m2ee8fc7433" x="216.90922" y="474.817026" style="fill: #4c72b0; stroke: #4c72b0"/>
     <use xlink:href="#m2ee8fc7433" x="219.181588" y="474.529163" style="fill: #4c72b0; stroke: #4c72b0"/>
     <use xlink:href="#m2ee8fc7433" x="221.453957" y="474.236118" style="fill: #4c72b0; stroke: #4c72b0"/>
     <use xlink:href="#m2ee8fc7433" x="230.543432" y="506.309069" style="fill: #4c72b0; stroke: #4c72b0"/>
     <use xlink:href="#m2ee8fc7433" x="232.8158" y="510.073942" style="fill: #4c72b0; stroke: #4c72b0"/>
     <use xlink:href="#m2ee8fc7433" x="235.088169" y="492.891727" style="fill: #4c72b0; stroke: #4c72b0"/>
     <use xlink:href="#m2ee8fc7433" x="237.360537" y="476.745272" style="fill: #4c72b0; stroke: #4c72b0"/>
     <use xlink:href="#m2ee8fc7433" x="239.632906" y="477.754057" style="fill: #4c72b0; stroke: #4c72b0"/>
     <use xlink:href="#m2ee8fc7433" x="241.905275" y="481.691874" style="fill: #4c72b0; stroke: #4c72b0"/>
     <use xlink:href="#m2ee8fc7433" x="244.177643" y="480.861371" style="fill: #4c72b0; stroke: #4c72b0"/>
     <use xlink:href="#m2ee8fc7433" x="246.450012" y="481.253506" style="fill: #4c72b0; stroke: #4c72b0"/>
     <use xlink:href="#m2ee8fc7433" x="248.722381" y="479.421837" style="fill: #4c72b0; stroke: #4c72b0"/>
     <use xlink:href="#m2ee8fc7433" x="250.994749" y="481.015813" style="fill: #4c72b0; stroke: #4c72b0"/>
     <use xlink:href="#m2ee8fc7433" x="253.267118" y="481.223686" style="fill: #4c72b0; stroke: #4c72b0"/>
     <use xlink:href="#m2ee8fc7433" x="255.539487" y="478.324529" style="fill: #4c72b0; stroke: #4c72b0"/>
     <use xlink:href="#m2ee8fc7433" x="257.811855" y="480.783229" style="fill: #4c72b0; stroke: #4c72b0"/>
     <use xlink:href="#m2ee8fc7433" x="260.084224" y="480.948412" style="fill: #4c72b0; stroke: #4c72b0"/>
     <use xlink:href="#m2ee8fc7433" x="262.356592" y="481.94295" style="fill: #4c72b0; stroke: #4c72b0"/>
     <use xlink:href="#m2ee8fc7433" x="264.628961" y="481.777008" style="fill: #4c72b0; stroke: #4c72b0"/>
     <use xlink:href="#m2ee8fc7433" x="266.90133" y="482.522026" style="fill: #4c72b0; stroke: #4c72b0"/>
     <use xlink:href="#m2ee8fc7433" x="269.173698" y="483.067548" style="fill: #4c72b0; stroke: #4c72b0"/>
     <use xlink:href="#m2ee8fc7433" x="271.446067" y="483.625317" style="fill: #4c72b0; stroke: #4c72b0"/>
     <use xlink:href="#m2ee8fc7433" x="273.718436" y="483.537404" style="fill: #4c72b0; stroke: #4c72b0"/>
     <use xlink:href="#m2ee8fc7433" x="275.990804" y="484.905999" style="fill: #4c72b0; stroke: #4c72b0"/>
     <use xlink:href="#m2ee8fc7433" x="278.263173" y="483.575602" style="fill: #4c72b0; stroke: #4c72b0"/>
     <use xlink:href="#m2ee8fc7433" x="280.535541" y="483.45757" style="fill: #4c72b0; stroke: #4c72b0"/>
     <use xlink:href="#m2ee8fc7433" x="282.80791" y="482.791793" style="fill: #4c72b0; stroke: #4c72b0"/>
     <use xlink:href="#m2ee8fc7433" x="285.080279" y="482.281454" style="fill: #4c72b0; stroke: #4c72b0"/>
     <use xlink:href="#m2ee8fc7433" x="287.352647" y="483.679611" style="fill: #4c72b0; stroke: #4c72b0"/>
     <use xlink:href="#m2ee8fc7433" x="289.625016" y="482.722246" style="fill: #4c72b0; stroke: #4c72b0"/>
     <use xlink:href="#m2ee8fc7433" x="291.897385" y="483.947891" style="fill: #4c72b0; stroke: #4c72b0"/>
     <use xlink:href="#m2ee8fc7433" x="294.169753" y="484.343914" style="fill: #4c72b0; stroke: #4c72b0"/>
     <use xlink:href="#m2ee8fc7433" x="296.442122" y="483.660881" style="fill: #4c72b0; stroke: #4c72b0"/>
     <use xlink:href="#m2ee8fc7433" x="298.71449" y="484.231336" style="fill: #4c72b0; stroke: #4c72b0"/>
     <use xlink:href="#m2ee8fc7433" x="300.986859" y="482.980352" style="fill: #4c72b0; stroke: #4c72b0"/>
     <use xlink:href="#m2ee8fc7433" x="303.259228" y="484.216545" style="fill: #4c72b0; stroke: #4c72b0"/>
     <use xlink:href="#m2ee8fc7433" x="305.531596" y="484.988186" style="fill: #4c72b0; stroke: #4c72b0"/>
     <use xlink:href="#m2ee8fc7433" x="307.803965" y="484.875552" style="fill: #4c72b0; stroke: #4c72b0"/>
     <use xlink:href="#m2ee8fc7433" x="310.076334" y="484.974615" style="fill: #4c72b0; stroke: #4c72b0"/>
     <use xlink:href="#m2ee8fc7433" x="312.348702" y="484.996788" style="fill: #4c72b0; stroke: #4c72b0"/>
     <use xlink:href="#m2ee8fc7433" x="314.621071" y="487.454936" style="fill: #4c72b0; stroke: #4c72b0"/>
     <use xlink:href="#m2ee8fc7433" x="316.89344" y="487.690366" style="fill: #4c72b0; stroke: #4c72b0"/>
     <use xlink:href="#m2ee8fc7433" x="319.165808" y="484.980794" style="fill: #4c72b0; stroke: #4c72b0"/>
     <use xlink:href="#m2ee8fc7433" x="321.438177" y="484.981969" style="fill: #4c72b0; stroke: #4c72b0"/>
     <use xlink:href="#m2ee8fc7433" x="323.710545" y="485.677636" style="fill: #4c72b0; stroke: #4c72b0"/>
     <use xlink:href="#m2ee8fc7433" x="325.982914" y="487.301608" style="fill: #4c72b0; stroke: #4c72b0"/>
     <use xlink:href="#m2ee8fc7433" x="328.255283" y="487.551562" style="fill: #4c72b0; stroke: #4c72b0"/>
     <use xlink:href="#m2ee8fc7433" x="330.527651" y="487.000193" style="fill: #4c72b0; stroke: #4c72b0"/>
     <use xlink:href="#m2ee8fc7433" x="332.80002" y="475.697397" style="fill: #4c72b0; stroke: #4c72b0"/>
     <use xlink:href="#m2ee8fc7433" x="335.072389" y="476.04693" style="fill: #4c72b0; stroke: #4c72b0"/>
     <use xlink:href="#m2ee8fc7433" x="337.344757" y="476.257914" style="fill: #4c72b0; stroke: #4c72b0"/>
     <use xlink:href="#m2ee8fc7433" x="339.617126" y="434.512351" style="fill: #4c72b0; stroke: #4c72b0"/>
     <use xlink:href="#m2ee8fc7433" x="341.889494" y="431.769233" style="fill: #4c72b0; stroke: #4c72b0"/>
     <use xlink:href="#m2ee8fc7433" x="344.161863" y="429.496591" style="fill: #4c72b0; stroke: #4c72b0"/>
     <use xlink:href="#m2ee8fc7433" x="348.7066" y="482.851585" style="fill: #4c72b0; stroke: #4c72b0"/>
     <use xlink:href="#m2ee8fc7433" x="350.978969" y="483.358858" style="fill: #4c72b0; stroke: #4c72b0"/>
     <use xlink:href="#m2ee8fc7433" x="353.251338" y="484.254858" style="fill: #4c72b0; stroke: #4c72b0"/>
     <use xlink:href="#m2ee8fc7433" x="355.523706" y="485.573569" style="fill: #4c72b0; stroke: #4c72b0"/>
     <use xlink:href="#m2ee8fc7433" x="357.796075" y="486.214134" style="fill: #4c72b0; stroke: #4c72b0"/>
     <use xlink:href="#m2ee8fc7433" x="360.068444" y="486.580946" style="fill: #4c72b0; stroke: #4c72b0"/>
     <use xlink:href="#m2ee8fc7433" x="362.340812" y="487.248426" style="fill: #4c72b0; stroke: #4c72b0"/>
     <use xlink:href="#m2ee8fc7433" x="364.613181" y="488.206599" style="fill: #4c72b0; stroke: #4c72b0"/>
     <use xlink:href="#m2ee8fc7433" x="366.885549" y="489.988388" style="fill: #4c72b0; stroke: #4c72b0"/>
     <use xlink:href="#m2ee8fc7433" x="389.609236" y="483.508138" style="fill: #4c72b0; stroke: #4c72b0"/>
     <use xlink:href="#m2ee8fc7433" x="391.881604" y="483.68542" style="fill: #4c72b0; stroke: #4c72b0"/>
     <use xlink:href="#m2ee8fc7433" x="394.153973" y="483.526647" style="fill: #4c72b0; stroke: #4c72b0"/>
     <use xlink:href="#m2ee8fc7433" x="396.426342" y="483.049504" style="fill: #4c72b0; stroke: #4c72b0"/>
     <use xlink:href="#m2ee8fc7433" x="398.69871" y="482.863973" style="fill: #4c72b0; stroke: #4c72b0"/>
     <use xlink:href="#m2ee8fc7433" x="400.971079" y="483.678746" style="fill: #4c72b0; stroke: #4c72b0"/>
     <use xlink:href="#m2ee8fc7433" x="403.243448" y="484.210759" style="fill: #4c72b0; stroke: #4c72b0"/>
     <use xlink:href="#m2ee8fc7433" x="407.788185" y="482.53899" style="fill: #4c72b0; stroke: #4c72b0"/>
     <use xlink:href="#m2ee8fc7433" x="410.060553" y="482.267764" style="fill: #4c72b0; stroke: #4c72b0"/>
     <use xlink:href="#m2ee8fc7433" x="412.332922" y="482.521244" style="fill: #4c72b0; stroke: #4c72b0"/>
     <use xlink:href="#m2ee8fc7433" x="414.605291" y="482.536865" style="fill: #4c72b0; stroke: #4c72b0"/>
     <use xlink:href="#m2ee8fc7433" x="416.877659" y="482.564071" style="fill: #4c72b0; stroke: #4c72b0"/>
     <use xlink:href="#m2ee8fc7433" x="419.150028" y="481.704267" style="fill: #4c72b0; stroke: #4c72b0"/>
     <use xlink:href="#m2ee8fc7433" x="421.422397" y="477.554427" style="fill: #4c72b0; stroke: #4c72b0"/>
     <use xlink:href="#m2ee8fc7433" x="423.694765" y="476.170019" style="fill: #4c72b0; stroke: #4c72b0"/>
     <use xlink:href="#m2ee8fc7433" x="425.967134" y="476.106052" style="fill: #4c72b0; stroke: #4c72b0"/>
     <use xlink:href="#m2ee8fc7433" x="428.239502" y="475.047891" style="fill: #4c72b0; stroke: #4c72b0"/>
     <use xlink:href="#m2ee8fc7433" x="430.511871" y="475.842598" style="fill: #4c72b0; stroke: #4c72b0"/>
     <use xlink:href="#m2ee8fc7433" x="432.78424" y="475.030507" style="fill: #4c72b0; stroke: #4c72b0"/>
     <use xlink:href="#m2ee8fc7433" x="435.056608" y="475.77242" style="fill: #4c72b0; stroke: #4c72b0"/>
     <use xlink:href="#m2ee8fc7433" x="437.328977" y="476.078867" style="fill: #4c72b0; stroke: #4c72b0"/>
     <use xlink:href="#m2ee8fc7433" x="439.601346" y="476.298114" style="fill: #4c72b0; stroke: #4c72b0"/>
     <use xlink:href="#m2ee8fc7433" x="441.873714" y="474.922767" style="fill: #4c72b0; stroke: #4c72b0"/>
     <use xlink:href="#m2ee8fc7433" x="444.146083" y="475.117809" style="fill: #4c72b0; stroke: #4c72b0"/>
     <use xlink:href="#m2ee8fc7433" x="446.418452" y="475.3124" style="fill: #4c72b0; stroke: #4c72b0"/>
     <use xlink:href="#m2ee8fc7433" x="448.69082" y="475.776693" style="fill: #4c72b0; stroke: #4c72b0"/>
     <use xlink:href="#m2ee8fc7433" x="450.963189" y="476.010823" style="fill: #4c72b0; stroke: #4c72b0"/>
     <use xlink:href="#m2ee8fc7433" x="453.235557" y="476.409698" style="fill: #4c72b0; stroke: #4c72b0"/>
     <use xlink:href="#m2ee8fc7433" x="455.507926" y="476.549885" style="fill: #4c72b0; stroke: #4c72b0"/>
     <use xlink:href="#m2ee8fc7433" x="457.780295" y="476.440083" style="fill: #4c72b0; stroke: #4c72b0"/>
     <use xlink:href="#m2ee8fc7433" x="460.052663" y="476.431408" style="fill: #4c72b0; stroke: #4c72b0"/>
     <use xlink:href="#m2ee8fc7433" x="462.325032" y="476.846221" style="fill: #4c72b0; stroke: #4c72b0"/>
     <use xlink:href="#m2ee8fc7433" x="464.597401" y="477.839877" style="fill: #4c72b0; stroke: #4c72b0"/>
     <use xlink:href="#m2ee8fc7433" x="471.414506" y="514.951165" style="fill: #4c72b0; stroke: #4c72b0"/>
     <use xlink:href="#m2ee8fc7433" x="473.686875" y="515.076116" style="fill: #4c72b0; stroke: #4c72b0"/>
     <use xlink:href="#m2ee8fc7433" x="475.959244" y="515.595076" style="fill: #4c72b0; stroke: #4c72b0"/>
     <use xlink:href="#m2ee8fc7433" x="478.231612" y="505.83879" style="fill: #4c72b0; stroke: #4c72b0"/>
     <use xlink:href="#m2ee8fc7433" x="480.503981" y="495.495475" style="fill: #4c72b0; stroke: #4c72b0"/>
     <use xlink:href="#m2ee8fc7433" x="482.77635" y="495.888222" style="fill: #4c72b0; stroke: #4c72b0"/>
     <use xlink:href="#m2ee8fc7433" x="485.048718" y="476.338718" style="fill: #4c72b0; stroke: #4c72b0"/>
     <use xlink:href="#m2ee8fc7433" x="487.321087" y="475.988861" style="fill: #4c72b0; stroke: #4c72b0"/>
     <use xlink:href="#m2ee8fc7433" x="489.593456" y="476.61322" style="fill: #4c72b0; stroke: #4c72b0"/>
     <use xlink:href="#m2ee8fc7433" x="491.865824" y="476.622133" style="fill: #4c72b0; stroke: #4c72b0"/>
     <use xlink:href="#m2ee8fc7433" x="494.138193" y="476.343583" style="fill: #4c72b0; stroke: #4c72b0"/>
     <use xlink:href="#m2ee8fc7433" x="496.410561" y="477.295994" style="fill: #4c72b0; stroke: #4c72b0"/>
     <use xlink:href="#m2ee8fc7433" x="498.68293" y="477.248876" style="fill: #4c72b0; stroke: #4c72b0"/>
     <use xlink:href="#m2ee8fc7433" x="500.955299" y="477.200715" style="fill: #4c72b0; stroke: #4c72b0"/>
     <use xlink:href="#m2ee8fc7433" x="503.227667" y="478.269262" style="fill: #4c72b0; stroke: #4c72b0"/>
     <use xlink:href="#m2ee8fc7433" x="505.500036" y="480.299393" style="fill: #4c72b0; stroke: #4c72b0"/>
     <use xlink:href="#m2ee8fc7433" x="507.772405" y="480.207044" style="fill: #4c72b0; stroke: #4c72b0"/>
     <use xlink:href="#m2ee8fc7433" x="510.044773" y="480.87194" style="fill: #4c72b0; stroke: #4c72b0"/>
     <use xlink:href="#m2ee8fc7433" x="512.317142" y="480.641767" style="fill: #4c72b0; stroke: #4c72b0"/>
     <use xlink:href="#m2ee8fc7433" x="514.58951" y="480.703785" style="fill: #4c72b0; stroke: #4c72b0"/>
     <use xlink:href="#m2ee8fc7433" x="516.861879" y="480.627531" style="fill: #4c72b0; stroke: #4c72b0"/>
     <use xlink:href="#m2ee8fc7433" x="519.134248" y="480.618366" style="fill: #4c72b0; stroke: #4c72b0"/>
     <use xlink:href="#m2ee8fc7433" x="521.406616" y="480.774573" style="fill: #4c72b0; stroke: #4c72b0"/>
     <use xlink:href="#m2ee8fc7433" x="523.678985" y="481.239042" style="fill: #4c72b0; stroke: #4c72b0"/>
     <use xlink:href="#m2ee8fc7433" x="525.951354" y="481.622597" style="fill: #4c72b0; stroke: #4c72b0"/>
     <use xlink:href="#m2ee8fc7433" x="528.223722" y="481.243968" style="fill: #4c72b0; stroke: #4c72b0"/>
     <use xlink:href="#m2ee8fc7433" x="530.496091" y="481.029032" style="fill: #4c72b0; stroke: #4c72b0"/>
     <use xlink:href="#m2ee8fc7433" x="532.76846" y="481.580351" style="fill: #4c72b0; stroke: #4c72b0"/>
     <use xlink:href="#m2ee8fc7433" x="535.040828" y="482.956974" style="fill: #4c72b0; stroke: #4c72b0"/>
     <use xlink:href="#m2ee8fc7433" x="537.313197" y="484.366941" style="fill: #4c72b0; stroke: #4c72b0"/>
     <use xlink:href="#m2ee8fc7433" x="539.585565" y="484.085195" style="fill: #4c72b0; stroke: #4c72b0"/>
     <use xlink:href="#m2ee8fc7433" x="541.857934" y="483.948305" style="fill: #4c72b0; stroke: #4c72b0"/>
     <use xlink:href="#m2ee8fc7433" x="544.130303" y="483.868574" style="fill: #4c72b0; stroke: #4c72b0"/>
     <use xlink:href="#m2ee8fc7433" x="546.402671" y="483.747879" style="fill: #4c72b0; stroke: #4c72b0"/>
     <use xlink:href="#m2ee8fc7433" x="548.67504" y="483.73329" style="fill: #4c72b0; stroke: #4c72b0"/>
     <use xlink:href="#m2ee8fc7433" x="550.947409" y="483.4451" style="fill: #4c72b0; stroke: #4c72b0"/>
     <use xlink:href="#m2ee8fc7433" x="553.219777" y="483.652767" style="fill: #4c72b0; stroke: #4c72b0"/>
     <use xlink:href="#m2ee8fc7433" x="555.492146" y="479.352138" style="fill: #4c72b0; stroke: #4c72b0"/>
     <use xlink:href="#m2ee8fc7433" x="557.764514" y="479.158259" style="fill: #4c72b0; stroke: #4c72b0"/>
     <use xlink:href="#m2ee8fc7433" x="560.036883" y="479.214274" style="fill: #4c72b0; stroke: #4c72b0"/>
     <use xlink:href="#m2ee8fc7433" x="562.309252" y="477.399705" style="fill: #4c72b0; stroke: #4c72b0"/>
     <use xlink:href="#m2ee8fc7433" x="564.58162" y="476.810323" style="fill: #4c72b0; stroke: #4c72b0"/>
     <use xlink:href="#m2ee8fc7433" x="566.853989" y="477.067075" style="fill: #4c72b0; stroke: #4c72b0"/>
     <use xlink:href="#m2ee8fc7433" x="569.126358" y="477.016977" style="fill: #4c72b0; stroke: #4c72b0"/>
     <use xlink:href="#m2ee8fc7433" x="571.398726" y="476.560506" style="fill: #4c72b0; stroke: #4c72b0"/>
     <use xlink:href="#m2ee8fc7433" x="573.671095" y="476.315666" style="fill: #4c72b0; stroke: #4c72b0"/>
     <use xlink:href="#m2ee8fc7433" x="575.943463" y="475.834042" style="fill: #4c72b0; stroke: #4c72b0"/>
     <use xlink:href="#m2ee8fc7433" x="578.215832" y="475.434322" style="fill: #4c72b0; stroke: #4c72b0"/>
     <use xlink:href="#m2ee8fc7433" x="580.488201" y="464.592526" style="fill: #4c72b0; stroke: #4c72b0"/>
     <use xlink:href="#m2ee8fc7433" x="582.760569" y="464.626729" style="fill: #4c72b0; stroke: #4c72b0"/>
     <use xlink:href="#m2ee8fc7433" x="585.032938" y="464.192899" style="fill: #4c72b0; stroke: #4c72b0"/>
     <use xlink:href="#m2ee8fc7433" x="587.305307" y="463.76352" style="fill: #4c72b0; stroke: #4c72b0"/>
     <use xlink:href="#m2ee8fc7433" x="591.850044" y="489.43642" style="fill: #4c72b0; stroke: #4c72b0"/>
     <use xlink:href="#m2ee8fc7433" x="594.122413" y="489.074112" style="fill: #4c72b0; stroke: #4c72b0"/>
     <use xlink:href="#m2ee8fc7433" x="596.394781" y="482.925528" style="fill: #4c72b0; stroke: #4c72b0"/>
     <use xlink:href="#m2ee8fc7433" x="598.66715" y="483.256898" style="fill: #4c72b0; stroke: #4c72b0"/>
     <use xlink:href="#m2ee8fc7433" x="600.939518" y="482.882013" style="fill: #4c72b0; stroke: #4c72b0"/>
     <use xlink:href="#m2ee8fc7433" x="603.211887" y="483.103966" style="fill: #4c72b0; stroke: #4c72b0"/>
     <use xlink:href="#m2ee8fc7433" x="605.484256" y="482.496619" style="fill: #4c72b0; stroke: #4c72b0"/>
     <use xlink:href="#m2ee8fc7433" x="607.756624" y="482.377085" style="fill: #4c72b0; stroke: #4c72b0"/>
     <use xlink:href="#m2ee8fc7433" x="610.028993" y="481.996883" style="fill: #4c72b0; stroke: #4c72b0"/>
     <use xlink:href="#m2ee8fc7433" x="612.301362" y="481.768831" style="fill: #4c72b0; stroke: #4c72b0"/>
     <use xlink:href="#m2ee8fc7433" x="648.65926" y="479.874107" style="fill: #4c72b0; stroke: #4c72b0"/>
     <use xlink:href="#m2ee8fc7433" x="650.931628" y="480.673801" style="fill: #4c72b0; stroke: #4c72b0"/>
     <use xlink:href="#m2ee8fc7433" x="653.203997" y="480.505084" style="fill: #4c72b0; stroke: #4c72b0"/>
     <use xlink:href="#m2ee8fc7433" x="655.476366" y="479.470183" style="fill: #4c72b0; stroke: #4c72b0"/>
     <use xlink:href="#m2ee8fc7433" x="657.748734" y="480.751168" style="fill: #4c72b0; stroke: #4c72b0"/>
     <use xlink:href="#m2ee8fc7433" x="660.021103" y="480.678018" style="fill: #4c72b0; stroke: #4c72b0"/>
     <use xlink:href="#m2ee8fc7433" x="662.293471" y="480.409395" style="fill: #4c72b0; stroke: #4c72b0"/>
     <use xlink:href="#m2ee8fc7433" x="664.56584" y="480.344625" style="fill: #4c72b0; stroke: #4c72b0"/>
     <use xlink:href="#m2ee8fc7433" x="666.838209" y="480.569259" style="fill: #4c72b0; stroke: #4c72b0"/>
     <use xlink:href="#m2ee8fc7433" x="671.382946" y="480.511946" style="fill: #4c72b0; stroke: #4c72b0"/>
     <use xlink:href="#m2ee8fc7433" x="675.927683" y="480.083536" style="fill: #4c72b0; stroke: #4c72b0"/>
     <use xlink:href="#m2ee8fc7433" x="678.200052" y="480.062039" style="fill: #4c72b0; stroke: #4c72b0"/>
     <use xlink:href="#m2ee8fc7433" x="680.472421" y="480.252076" style="fill: #4c72b0; stroke: #4c72b0"/>
     <use xlink:href="#m2ee8fc7433" x="682.744789" y="480.516085" style="fill: #4c72b0; stroke: #4c72b0"/>
     <use xlink:href="#m2ee8fc7433" x="685.017158" y="480.972206" style="fill: #4c72b0; stroke: #4c72b0"/>
     <use xlink:href="#m2ee8fc7433" x="691.834264" y="480.946185" style="fill: #4c72b0; stroke: #4c72b0"/>
     <use xlink:href="#m2ee8fc7433" x="694.106632" y="481.086554" style="fill: #4c72b0; stroke: #4c72b0"/>
     <use xlink:href="#m2ee8fc7433" x="696.379001" y="481.167827" style="fill: #4c72b0; stroke: #4c72b0"/>
     <use xlink:href="#m2ee8fc7433" x="698.65137" y="481.188346" style="fill: #4c72b0; stroke: #4c72b0"/>
     <use xlink:href="#m2ee8fc7433" x="700.923738" y="481.460754" style="fill: #4c72b0; stroke: #4c72b0"/>
     <use xlink:href="#m2ee8fc7433" x="703.196107" y="481.443943" style="fill: #4c72b0; stroke: #4c72b0"/>
     <use xlink:href="#m2ee8fc7433" x="705.468475" y="481.355228" style="fill: #4c72b0; stroke: #4c72b0"/>
     <use xlink:href="#m2ee8fc7433" x="710.013213" y="481.624867" style="fill: #4c72b0; stroke: #4c72b0"/>
     <use xlink:href="#m2ee8fc7433" x="714.55795" y="491.346749" style="fill: #4c72b0; stroke: #4c72b0"/>
     <use xlink:href="#m2ee8fc7433" x="716.830319" y="491.361931" style="fill: #4c72b0; stroke: #4c72b0"/>
     <use xlink:href="#m2ee8fc7433" x="719.102687" y="491.072921" style="fill: #4c72b0; stroke: #4c72b0"/>
     <use xlink:href="#m2ee8fc7433" x="721.375056" y="484.953525" style="fill: #4c72b0; stroke: #4c72b0"/>
     <use xlink:href="#m2ee8fc7433" x="723.647425" y="485.270648" style="fill: #4c72b0; stroke: #4c72b0"/>
     <use xlink:href="#m2ee8fc7433" x="725.919793" y="485.122072" style="fill: #4c72b0; stroke: #4c72b0"/>
     <use xlink:href="#m2ee8fc7433" x="728.192162" y="485.111071" style="fill: #4c72b0; stroke: #4c72b0"/>
     <use xlink:href="#m2ee8fc7433" x="730.46453" y="485.422049" style="fill: #4c72b0; stroke: #4c72b0"/>
     <use xlink:href="#m2ee8fc7433" x="732.736899" y="485.499276" style="fill: #4c72b0; stroke: #4c72b0"/>
     <use xlink:href="#m2ee8fc7433" x="735.009268" y="485.682718" style="fill: #4c72b0; stroke: #4c72b0"/>
     <use xlink:href="#m2ee8fc7433" x="737.281636" y="485.667637" style="fill: #4c72b0; stroke: #4c72b0"/>
     <use xlink:href="#m2ee8fc7433" x="739.554005" y="481.705463" style="fill: #4c72b0; stroke: #4c72b0"/>
     <use xlink:href="#m2ee8fc7433" x="741.826374" y="481.621463" style="fill: #4c72b0; stroke: #4c72b0"/>
     <use xlink:href="#m2ee8fc7433" x="744.098742" y="481.740602" style="fill: #4c72b0; stroke: #4c72b0"/>
     <use xlink:href="#m2ee8fc7433" x="746.371111" y="487.677815" style="fill: #4c72b0; stroke: #4c72b0"/>
     <use xlink:href="#m2ee8fc7433" x="748.643479" y="473.468424" style="fill: #4c72b0; stroke: #4c72b0"/>
     <use xlink:href="#m2ee8fc7433" x="750.915848" y="473.567199" style="fill: #4c72b0; stroke: #4c72b0"/>
     <use xlink:href="#m2ee8fc7433" x="753.188217" y="481.181385" style="fill: #4c72b0; stroke: #4c72b0"/>
     <use xlink:href="#m2ee8fc7433" x="755.460585" y="481.054846" style="fill: #4c72b0; stroke: #4c72b0"/>
     <use xlink:href="#m2ee8fc7433" x="757.732954" y="481.117617" style="fill: #4c72b0; stroke: #4c72b0"/>
     <use xlink:href="#m2ee8fc7433" x="760.005323" y="480.881673" style="fill: #4c72b0; stroke: #4c72b0"/>
     <use xlink:href="#m2ee8fc7433" x="762.277691" y="481.366156" style="fill: #4c72b0; stroke: #4c72b0"/>
     <use xlink:href="#m2ee8fc7433" x="764.55006" y="481.094633" style="fill: #4c72b0; stroke: #4c72b0"/>
     <use xlink:href="#m2ee8fc7433" x="766.822429" y="481.361052" style="fill: #4c72b0; stroke: #4c72b0"/>
     <use xlink:href="#m2ee8fc7433" x="769.094797" y="481.488334" style="fill: #4c72b0; stroke: #4c72b0"/>
     <use xlink:href="#m2ee8fc7433" x="771.367166" y="482.31816" style="fill: #4c72b0; stroke: #4c72b0"/>
     <use xlink:href="#m2ee8fc7433" x="773.639534" y="481.47774" style="fill: #4c72b0; stroke: #4c72b0"/>
     <use xlink:href="#m2ee8fc7433" x="775.911903" y="481.619002" style="fill: #4c72b0; stroke: #4c72b0"/>
     <use xlink:href="#m2ee8fc7433" x="778.184272" y="482.141022" style="fill: #4c72b0; stroke: #4c72b0"/>
     <use xlink:href="#m2ee8fc7433" x="780.45664" y="481.354058" style="fill: #4c72b0; stroke: #4c72b0"/>
     <use xlink:href="#m2ee8fc7433" x="782.729009" y="481.405647" style="fill: #4c72b0; stroke: #4c72b0"/>
     <use xlink:href="#m2ee8fc7433" x="785.001378" y="481.582178" style="fill: #4c72b0; stroke: #4c72b0"/>
     <use xlink:href="#m2ee8fc7433" x="787.273746" y="481.610754" style="fill: #4c72b0; stroke: #4c72b0"/>
     <use xlink:href="#m2ee8fc7433" x="789.546115" y="481.492596" style="fill: #4c72b0; stroke: #4c72b0"/>
     <use xlink:href="#m2ee8fc7433" x="791.818483" y="481.414451" style="fill: #4c72b0; stroke: #4c72b0"/>
     <use xlink:href="#m2ee8fc7433" x="794.090852" y="481.555269" style="fill: #4c72b0; stroke: #4c72b0"/>
     <use xlink:href="#m2ee8fc7433" x="796.363221" y="481.692768" style="fill: #4c72b0; stroke: #4c72b0"/>
     <use xlink:href="#m2ee8fc7433" x="798.635589" y="481.622245" style="fill: #4c72b0; stroke: #4c72b0"/>
     <use xlink:href="#m2ee8fc7433" x="800.907958" y="481.298803" style="fill: #4c72b0; stroke: #4c72b0"/>
     <use xlink:href="#m2ee8fc7433" x="803.180327" y="480.772109" style="fill: #4c72b0; stroke: #4c72b0"/>
     <use xlink:href="#m2ee8fc7433" x="805.452695" y="480.390134" style="fill: #4c72b0; stroke: #4c72b0"/>
     <use xlink:href="#m2ee8fc7433" x="807.725064" y="480.406241" style="fill: #4c72b0; stroke: #4c72b0"/>
     <use xlink:href="#m2ee8fc7433" x="809.997433" y="480.45715" style="fill: #4c72b0; stroke: #4c72b0"/>
     <use xlink:href="#m2ee8fc7433" x="812.269801" y="480.418884" style="fill: #4c72b0; stroke: #4c72b0"/>
     <use xlink:href="#m2ee8fc7433" x="814.54217" y="480.321594" style="fill: #4c72b0; stroke: #4c72b0"/>
     <use xlink:href="#m2ee8fc7433" x="816.814538" y="480.282976" style="fill: #4c72b0; stroke: #4c72b0"/>
     <use xlink:href="#m2ee8fc7433" x="819.086907" y="480.440381" style="fill: #4c72b0; stroke: #4c72b0"/>
     <use xlink:href="#m2ee8fc7433" x="821.359276" y="480.185884" style="fill: #4c72b0; stroke: #4c72b0"/>
     <use xlink:href="#m2ee8fc7433" x="823.631644" y="474.936463" style="fill: #4c72b0; stroke: #4c72b0"/>
     <use xlink:href="#m2ee8fc7433" x="825.904013" y="474.981652" style="fill: #4c72b0; stroke: #4c72b0"/>
     <use xlink:href="#m2ee8fc7433" x="828.176382" y="475.154636" style="fill: #4c72b0; stroke: #4c72b0"/>
    </g>
   </g>
   <g id="patch_18">
    <path d="M 116.925 519.9 
L 116.925 425.191667 
" style="fill: none; stroke: #262626; stroke-width: 1.25; stroke-linejoin: miter; stroke-linecap: square"/>
   </g>
   <g id="patch_19">
    <path d="M 828.176382 519.9 
L 828.176382 425.191667 
" style="fill: none; stroke: #262626; stroke-width: 1.25; stroke-linejoin: miter; stroke-linecap: square"/>
   </g>
   <g id="patch_20">
    <path d="M 116.925 519.9 
L 828.176382 519.9 
" style="fill: none; stroke: #262626; stroke-width: 1.25; stroke-linejoin: miter; stroke-linecap: square"/>
   </g>
   <g id="patch_21">
    <path d="M 116.925 425.191667 
L 828.176382 425.191667 
" style="fill: none; stroke: #262626; stroke-width: 1.25; stroke-linejoin: miter; stroke-linecap: square"/>
   </g>
  </g>
 </g>
 <defs>
  <clipPath id="pad73355e68">
   <rect x="116.925" y="46.266667" width="711.251382" height="94.708333"/>
  </clipPath>
  <clipPath id="p9f6b59b7fc">
   <rect x="116.925" y="172.575" width="711.251382" height="94.708333"/>
  </clipPath>
  <clipPath id="p290484362f">
   <rect x="116.925" y="298.883333" width="711.251382" height="94.708333"/>
  </clipPath>
  <clipPath id="p825cd5ce35">
   <rect x="116.925" y="425.191667" width="711.251382" height="94.708333"/>
  </clipPath>
 </defs>
</svg>
