<?xml version="1.0" encoding="utf-8" standalone="no"?>
<!DOCTYPE svg PUBLIC "-//W3C//DTD SVG 1.1//EN"
  "http://www.w3.org/Graphics/SVG/1.1/DTD/svg11.dtd">
<svg xmlns:xlink="http://www.w3.org/1999/xlink" width="864pt" height="576pt" viewBox="0 0 864 576" xmlns="http://www.w3.org/2000/svg" version="1.1">
 <metadata>
  <rdf:RDF xmlns:dc="http://purl.org/dc/elements/1.1/" xmlns:cc="http://creativecommons.org/ns#" xmlns:rdf="http://www.w3.org/1999/02/22-rdf-syntax-ns#">
   <cc:Work>
    <dc:type rdf:resource="http://purl.org/dc/dcmitype/StillImage"/>
    <dc:date>2023-07-30T23:34:05.693138</dc:date>
    <dc:format>image/svg+xml</dc:format>
    <dc:creator>
     <cc:Agent>
      <dc:title>Matplotlib v3.7.1, https://matplotlib.org/</dc:title>
     </cc:Agent>
    </dc:creator>
   </cc:Work>
  </rdf:RDF>
 </metadata>
 <defs>
  <style type="text/css">*{stroke-linejoin: round; stroke-linecap: butt}</style>
 </defs>
 <g id="figure_1">
  <g id="patch_1">
   <path d="M 0 576 
L 864 576 
L 864 0 
L 0 0 
z
" style="fill: #ffffff"/>
  </g>
  <g id="axes_1">
   <g id="patch_2">
    <path d="M 139.8 140.959418 
L 825.614867 140.959418 
L 825.614867 46.266667 
L 139.8 46.266667 
z
" style="fill: #ffffff"/>
   </g>
   <g id="matplotlib.axis_1">
    <g id="xtick_1">
     <g id="line2d_1">
      <defs>
       <path id="m32c0bd729a" d="M 0 0 
L 0 6 
" style="stroke: #262626; stroke-width: 1.25"/>
      </defs>
      <g>
       <use xlink:href="#m32c0bd729a" x="243.425873" y="140.959418" style="fill: #262626; stroke: #262626; stroke-width: 1.25"/>
      </g>
     </g>
    </g>
    <g id="xtick_2">
     <g id="line2d_2">
      <g>
       <use xlink:href="#m32c0bd729a" x="358.042368" y="140.959418" style="fill: #262626; stroke: #262626; stroke-width: 1.25"/>
      </g>
     </g>
    </g>
    <g id="xtick_3">
     <g id="line2d_3">
      <g>
       <use xlink:href="#m32c0bd729a" x="472.658864" y="140.959418" style="fill: #262626; stroke: #262626; stroke-width: 1.25"/>
      </g>
     </g>
    </g>
    <g id="xtick_4">
     <g id="line2d_4">
      <g>
       <use xlink:href="#m32c0bd729a" x="587.27536" y="140.959418" style="fill: #262626; stroke: #262626; stroke-width: 1.25"/>
      </g>
     </g>
    </g>
    <g id="xtick_5">
     <g id="line2d_5">
      <g>
       <use xlink:href="#m32c0bd729a" x="702.205873" y="140.959418" style="fill: #262626; stroke: #262626; stroke-width: 1.25"/>
      </g>
     </g>
    </g>
    <g id="xtick_6">
     <g id="line2d_6">
      <g>
       <use xlink:href="#m32c0bd729a" x="816.822369" y="140.959418" style="fill: #262626; stroke: #262626; stroke-width: 1.25"/>
      </g>
     </g>
    </g>
   </g>
   <g id="matplotlib.axis_2">
    <g id="ytick_1">
     <g id="line2d_7">
      <defs>
       <path id="m414b8c6479" d="M 0 0 
L -6 0 
" style="stroke: #262626; stroke-width: 1.25"/>
      </defs>
      <g>
       <use xlink:href="#m414b8c6479" x="139.8" y="136.70319" style="fill: #262626; stroke: #262626; stroke-width: 1.25"/>
      </g>
     </g>
     <g id="text_1">
      <!-- 0 -->
      <g style="fill: #262626" transform="translate(124.182969 140.639987) scale(0.11 -0.11)">
       <defs>
        <path id="ArialMT-30" d="M 266 2259 
Q 266 3072 433 3567 
Q 600 4063 929 4331 
Q 1259 4600 1759 4600 
Q 2128 4600 2406 4451 
Q 2684 4303 2865 4023 
Q 3047 3744 3150 3342 
Q 3253 2941 3253 2259 
Q 3253 1453 3087 958 
Q 2922 463 2592 192 
Q 2263 -78 1759 -78 
Q 1097 -78 719 397 
Q 266 969 266 2259 
z
M 844 2259 
Q 844 1131 1108 757 
Q 1372 384 1759 384 
Q 2147 384 2411 759 
Q 2675 1134 2675 2259 
Q 2675 3391 2411 3762 
Q 2147 4134 1753 4134 
Q 1366 4134 1134 3806 
Q 844 3388 844 2259 
z
" transform="scale(0.015625)"/>
       </defs>
       <use xlink:href="#ArialMT-30"/>
      </g>
     </g>
    </g>
    <g id="ytick_2">
     <g id="line2d_8">
      <g>
       <use xlink:href="#m414b8c6479" x="139.8" y="106.710744" style="fill: #262626; stroke: #262626; stroke-width: 1.25"/>
      </g>
     </g>
     <g id="text_2">
      <!-- 10000 -->
      <g style="fill: #262626" transform="translate(99.714844 110.64754) scale(0.11 -0.11)">
       <defs>
        <path id="ArialMT-31" d="M 2384 0 
L 1822 0 
L 1822 3584 
Q 1619 3391 1289 3197 
Q 959 3003 697 2906 
L 697 3450 
Q 1169 3672 1522 3987 
Q 1875 4303 2022 4600 
L 2384 4600 
L 2384 0 
z
" transform="scale(0.015625)"/>
       </defs>
       <use xlink:href="#ArialMT-31"/>
       <use xlink:href="#ArialMT-30" x="55.615234"/>
       <use xlink:href="#ArialMT-30" x="111.230469"/>
       <use xlink:href="#ArialMT-30" x="166.845703"/>
       <use xlink:href="#ArialMT-30" x="222.460938"/>
      </g>
     </g>
    </g>
    <g id="ytick_3">
     <g id="line2d_9">
      <g>
       <use xlink:href="#m414b8c6479" x="139.8" y="76.718297" style="fill: #262626; stroke: #262626; stroke-width: 1.25"/>
      </g>
     </g>
     <g id="text_3">
      <!-- 20000 -->
      <g style="fill: #262626" transform="translate(99.714844 80.655094) scale(0.11 -0.11)">
       <defs>
        <path id="ArialMT-32" d="M 3222 541 
L 3222 0 
L 194 0 
Q 188 203 259 391 
Q 375 700 629 1000 
Q 884 1300 1366 1694 
Q 2113 2306 2375 2664 
Q 2638 3022 2638 3341 
Q 2638 3675 2398 3904 
Q 2159 4134 1775 4134 
Q 1369 4134 1125 3890 
Q 881 3647 878 3216 
L 300 3275 
Q 359 3922 746 4261 
Q 1134 4600 1788 4600 
Q 2447 4600 2831 4234 
Q 3216 3869 3216 3328 
Q 3216 3053 3103 2787 
Q 2991 2522 2730 2228 
Q 2469 1934 1863 1422 
Q 1356 997 1212 845 
Q 1069 694 975 541 
L 3222 541 
z
" transform="scale(0.015625)"/>
       </defs>
       <use xlink:href="#ArialMT-32"/>
       <use xlink:href="#ArialMT-30" x="55.615234"/>
       <use xlink:href="#ArialMT-30" x="111.230469"/>
       <use xlink:href="#ArialMT-30" x="166.845703"/>
       <use xlink:href="#ArialMT-30" x="222.460938"/>
      </g>
     </g>
    </g>
    <g id="ytick_4">
     <g id="line2d_10">
      <g>
       <use xlink:href="#m414b8c6479" x="139.8" y="46.725851" style="fill: #262626; stroke: #262626; stroke-width: 1.25"/>
      </g>
     </g>
     <g id="text_4">
      <!-- 30000 -->
      <g style="fill: #262626" transform="translate(99.714844 50.662648) scale(0.11 -0.11)">
       <defs>
        <path id="ArialMT-33" d="M 269 1209 
L 831 1284 
Q 928 806 1161 595 
Q 1394 384 1728 384 
Q 2125 384 2398 659 
Q 2672 934 2672 1341 
Q 2672 1728 2419 1979 
Q 2166 2231 1775 2231 
Q 1616 2231 1378 2169 
L 1441 2663 
Q 1497 2656 1531 2656 
Q 1891 2656 2178 2843 
Q 2466 3031 2466 3422 
Q 2466 3731 2256 3934 
Q 2047 4138 1716 4138 
Q 1388 4138 1169 3931 
Q 950 3725 888 3313 
L 325 3413 
Q 428 3978 793 4289 
Q 1159 4600 1703 4600 
Q 2078 4600 2393 4439 
Q 2709 4278 2876 4000 
Q 3044 3722 3044 3409 
Q 3044 3113 2884 2869 
Q 2725 2625 2413 2481 
Q 2819 2388 3044 2092 
Q 3269 1797 3269 1353 
Q 3269 753 2831 336 
Q 2394 -81 1725 -81 
Q 1122 -81 723 278 
Q 325 638 269 1209 
z
" transform="scale(0.015625)"/>
       </defs>
       <use xlink:href="#ArialMT-33"/>
       <use xlink:href="#ArialMT-30" x="55.615234"/>
       <use xlink:href="#ArialMT-30" x="111.230469"/>
       <use xlink:href="#ArialMT-30" x="166.845703"/>
       <use xlink:href="#ArialMT-30" x="222.460938"/>
      </g>
     </g>
    </g>
   </g>
   <g id="line2d_11">
    <path d="M 139.8 136.646204 
L 190.356865 136.355278 
L 194.753114 136.2653 
L 223.328734 136.007365 
L 225.526858 60.969264 
L 227.724983 59.805557 
L 229.923108 57.361172 
L 232.121232 56.287443 
L 234.319357 55.405665 
L 236.517481 53.444159 
L 238.715606 52.559382 
L 240.91373 50.570883 
L 249.706229 136.586219 
L 251.904353 136.06735 
L 254.102478 135.383522 
L 256.300602 133.206071 
L 258.498727 133.116093 
L 260.696852 130.35079 
L 262.894976 129.870911 
L 265.093101 129.71495 
L 267.291225 127.018629 
L 269.48935 126.559745 
L 271.687474 126.421779 
L 273.885599 125.084116 
L 276.083724 123.881419 
L 278.281848 122.438782 
L 280.479973 121.353056 
L 282.678097 120.084375 
L 287.074346 117.939916 
L 289.272471 115.993406 
L 291.470596 115.516526 
L 293.66872 114.682736 
L 300.263094 110.705737 
L 302.461218 109.419062 
L 304.659343 108.294345 
L 306.857468 106.848709 
L 309.055592 104.629268 
L 311.253717 104.518296 
L 313.451841 102.205878 
L 315.649966 98.735752 
L 317.84809 98.636777 
L 320.046215 95.68552 
L 322.24434 93.079177 
L 324.442464 93.043186 
L 326.640589 91.12067 
L 328.838713 89.582058 
L 331.036838 87.791508 
L 333.234962 85.856996 
L 335.433087 80.404369 
L 337.631212 80.404369 
L 339.829336 79.678552 
L 342.027461 78.475855 
L 344.225585 77.612072 
L 346.42371 73.875013 
L 348.621834 73.21518 
L 350.819959 73.098209 
L 353.018084 71.760546 
L 355.216208 68.161452 
L 357.414333 67.468627 
L 359.612457 67.129712 
L 364.008706 136.610213 
L 366.206831 136.247305 
L 368.404956 135.521488 
L 370.60308 134.651707 
L 372.801205 133.496997 
L 374.999329 131.394527 
L 377.197454 131.256562 
L 379.395578 130.11085 
L 381.593703 129.130097 
L 405.773073 116.857188 
L 412.367447 114.100882 
L 414.565572 112.505284 
L 416.763696 110.360824 
L 421.159945 108.051406 
L 425.556195 104.824219 
L 434.348693 98.912708 
L 436.546817 97.997938 
L 438.744942 94.644782 
L 440.943067 93.06718 
L 443.141191 92.080428 
L 445.339316 90.265885 
L 447.53744 88.952216 
L 449.735565 87.830499 
L 451.933689 86.07894 
L 454.131814 84.795263 
L 456.329939 83.355626 
L 458.528063 82.167925 
L 460.726188 80.614316 
L 462.924312 78.427867 
L 465.122437 77.34214 
L 471.716811 72.330402 
L 476.11306 70.017985 
L 482.707433 136.628209 
L 484.905558 136.18732 
L 487.103683 135.323537 
L 489.301807 134.165829 
L 491.499932 132.675204 
L 493.698056 132.615219 
L 495.896181 130.575733 
L 498.094305 128.737196 
L 500.29243 128.545245 
L 502.490555 125.920905 
L 504.688679 124.160349 
L 506.886804 122.840681 
L 511.283053 120.378301 
L 513.481177 117.900925 
L 515.679302 117.061137 
L 517.877427 115.939419 
L 520.075551 114.568765 
L 526.669925 111.17362 
L 528.868049 109.626009 
L 531.066174 108.558278 
L 533.264299 107.007669 
L 535.462423 105.993924 
L 537.660548 104.18538 
L 539.858672 102.655765 
L 544.254921 98.561796 
L 546.453046 96.927208 
L 548.651171 93.763005 
L 550.849295 91.585553 
L 553.04742 89.588056 
L 555.245544 88.439345 
L 557.443669 86.051947 
L 559.641793 84.21041 
L 561.839918 82.020962 
L 564.038043 80.059456 
L 566.236167 77.768033 
L 570.632416 73.698058 
L 575.028666 69.931007 
L 577.22679 69.178196 
L 579.424915 67.129712 
L 581.623039 67.129712 
L 583.821164 63.44664 
L 588.217413 60.66634 
L 590.415538 60.58836 
L 592.613662 58.914781 
L 594.811787 58.52188 
L 599.208036 136.376272 
L 601.40616 134.690697 
L 603.604285 134.453756 
L 605.80241 133.476003 
L 608.000534 132.675204 
L 610.198659 132.615219 
L 612.396783 130.575733 
L 614.594908 129.514001 
L 616.793032 128.737196 
L 618.991157 127.05462 
L 654.16115 122.303816 
L 656.359275 122.123862 
L 658.557399 121.521014 
L 671.746147 119.367556 
L 676.142396 118.524768 
L 682.73677 116.977158 
L 684.934894 116.617249 
L 689.331143 115.768462 
L 695.925517 114.808704 
L 698.123642 114.256843 
L 702.519891 113.570016 
L 704.718015 113.045148 
L 706.91614 113.003159 
L 709.114264 112.646249 
L 713.510514 112.40331 
L 717.906763 136.655202 
L 726.699261 135.704441 
L 733.293635 134.552732 
L 737.689884 133.937886 
L 739.888009 133.937886 
L 742.086133 133.341037 
L 746.482382 132.489251 
L 755.274881 131.292553 
L 757.473005 131.124595 
L 759.67113 130.752689 
L 761.869254 130.494754 
L 764.067379 130.113849 
L 768.463628 129.642968 
L 775.058002 128.587234 
L 779.454251 127.999382 
L 781.652375 127.618478 
L 786.048625 126.463769 
L 790.444874 125.593988 
L 792.642998 125.024131 
L 797.039247 124.223333 
L 799.237372 123.99539 
L 801.435497 123.530508 
L 810.227995 122.195844 
L 814.624244 121.464028 
L 819.020493 120.912167 
L 825.614867 120.018392 
L 825.614867 120.018392 
" clip-path="url(#p69a2cc8db0)" style="fill: none; stroke: #4c72b0; stroke-width: 1.5; stroke-linecap: round"/>
   </g>
   <g id="patch_3">
    <path d="M 139.8 140.959418 
L 139.8 46.266667 
" style="fill: none; stroke: #262626; stroke-width: 1.25; stroke-linejoin: miter; stroke-linecap: square"/>
   </g>
   <g id="patch_4">
    <path d="M 825.614867 140.959418 
L 825.614867 46.266667 
" style="fill: none; stroke: #262626; stroke-width: 1.25; stroke-linejoin: miter; stroke-linecap: square"/>
   </g>
   <g id="patch_5">
    <path d="M 139.8 140.959418 
L 825.614867 140.959418 
" style="fill: none; stroke: #262626; stroke-width: 1.25; stroke-linejoin: miter; stroke-linecap: square"/>
   </g>
   <g id="patch_6">
    <path d="M 139.8 46.266667 
L 825.614867 46.266667 
" style="fill: none; stroke: #262626; stroke-width: 1.25; stroke-linejoin: miter; stroke-linecap: square"/>
   </g>
   <g id="text_5">
    <!-- Typhoid Fever -->
    <g style="fill: #262626" transform="translate(444.690871 40.266667) scale(0.12 -0.12)">
     <defs>
      <path id="ArialMT-54" d="M 1659 0 
L 1659 4041 
L 150 4041 
L 150 4581 
L 3781 4581 
L 3781 4041 
L 2266 4041 
L 2266 0 
L 1659 0 
z
" transform="scale(0.015625)"/>
      <path id="ArialMT-79" d="M 397 -1278 
L 334 -750 
Q 519 -800 656 -800 
Q 844 -800 956 -737 
Q 1069 -675 1141 -563 
Q 1194 -478 1313 -144 
Q 1328 -97 1363 -6 
L 103 3319 
L 709 3319 
L 1400 1397 
Q 1534 1031 1641 628 
Q 1738 1016 1872 1384 
L 2581 3319 
L 3144 3319 
L 1881 -56 
Q 1678 -603 1566 -809 
Q 1416 -1088 1222 -1217 
Q 1028 -1347 759 -1347 
Q 597 -1347 397 -1278 
z
" transform="scale(0.015625)"/>
      <path id="ArialMT-70" d="M 422 -1272 
L 422 3319 
L 934 3319 
L 934 2888 
Q 1116 3141 1344 3267 
Q 1572 3394 1897 3394 
Q 2322 3394 2647 3175 
Q 2972 2956 3137 2557 
Q 3303 2159 3303 1684 
Q 3303 1175 3120 767 
Q 2938 359 2589 142 
Q 2241 -75 1856 -75 
Q 1575 -75 1351 44 
Q 1128 163 984 344 
L 984 -1272 
L 422 -1272 
z
M 931 1641 
Q 931 1000 1190 694 
Q 1450 388 1819 388 
Q 2194 388 2461 705 
Q 2728 1022 2728 1688 
Q 2728 2322 2467 2637 
Q 2206 2953 1844 2953 
Q 1484 2953 1207 2617 
Q 931 2281 931 1641 
z
" transform="scale(0.015625)"/>
      <path id="ArialMT-68" d="M 422 0 
L 422 4581 
L 984 4581 
L 984 2938 
Q 1378 3394 1978 3394 
Q 2347 3394 2619 3248 
Q 2891 3103 3008 2847 
Q 3125 2591 3125 2103 
L 3125 0 
L 2563 0 
L 2563 2103 
Q 2563 2525 2380 2717 
Q 2197 2909 1863 2909 
Q 1613 2909 1392 2779 
Q 1172 2650 1078 2428 
Q 984 2206 984 1816 
L 984 0 
L 422 0 
z
" transform="scale(0.015625)"/>
      <path id="ArialMT-6f" d="M 213 1659 
Q 213 2581 725 3025 
Q 1153 3394 1769 3394 
Q 2453 3394 2887 2945 
Q 3322 2497 3322 1706 
Q 3322 1066 3130 698 
Q 2938 331 2570 128 
Q 2203 -75 1769 -75 
Q 1072 -75 642 372 
Q 213 819 213 1659 
z
M 791 1659 
Q 791 1022 1069 705 
Q 1347 388 1769 388 
Q 2188 388 2466 706 
Q 2744 1025 2744 1678 
Q 2744 2294 2464 2611 
Q 2184 2928 1769 2928 
Q 1347 2928 1069 2612 
Q 791 2297 791 1659 
z
" transform="scale(0.015625)"/>
      <path id="ArialMT-69" d="M 425 3934 
L 425 4581 
L 988 4581 
L 988 3934 
L 425 3934 
z
M 425 0 
L 425 3319 
L 988 3319 
L 988 0 
L 425 0 
z
" transform="scale(0.015625)"/>
      <path id="ArialMT-64" d="M 2575 0 
L 2575 419 
Q 2259 -75 1647 -75 
Q 1250 -75 917 144 
Q 584 363 401 755 
Q 219 1147 219 1656 
Q 219 2153 384 2558 
Q 550 2963 881 3178 
Q 1213 3394 1622 3394 
Q 1922 3394 2156 3267 
Q 2391 3141 2538 2938 
L 2538 4581 
L 3097 4581 
L 3097 0 
L 2575 0 
z
M 797 1656 
Q 797 1019 1065 703 
Q 1334 388 1700 388 
Q 2069 388 2326 689 
Q 2584 991 2584 1609 
Q 2584 2291 2321 2609 
Q 2059 2928 1675 2928 
Q 1300 2928 1048 2622 
Q 797 2316 797 1656 
z
" transform="scale(0.015625)"/>
      <path id="ArialMT-20" transform="scale(0.015625)"/>
      <path id="ArialMT-46" d="M 525 0 
L 525 4581 
L 3616 4581 
L 3616 4041 
L 1131 4041 
L 1131 2622 
L 3281 2622 
L 3281 2081 
L 1131 2081 
L 1131 0 
L 525 0 
z
" transform="scale(0.015625)"/>
      <path id="ArialMT-65" d="M 2694 1069 
L 3275 997 
Q 3138 488 2766 206 
Q 2394 -75 1816 -75 
Q 1088 -75 661 373 
Q 234 822 234 1631 
Q 234 2469 665 2931 
Q 1097 3394 1784 3394 
Q 2450 3394 2872 2941 
Q 3294 2488 3294 1666 
Q 3294 1616 3291 1516 
L 816 1516 
Q 847 969 1125 678 
Q 1403 388 1819 388 
Q 2128 388 2347 550 
Q 2566 713 2694 1069 
z
M 847 1978 
L 2700 1978 
Q 2663 2397 2488 2606 
Q 2219 2931 1791 2931 
Q 1403 2931 1139 2672 
Q 875 2413 847 1978 
z
" transform="scale(0.015625)"/>
      <path id="ArialMT-76" d="M 1344 0 
L 81 3319 
L 675 3319 
L 1388 1331 
Q 1503 1009 1600 663 
Q 1675 925 1809 1294 
L 2547 3319 
L 3125 3319 
L 1869 0 
L 1344 0 
z
" transform="scale(0.015625)"/>
      <path id="ArialMT-72" d="M 416 0 
L 416 3319 
L 922 3319 
L 922 2816 
Q 1116 3169 1280 3281 
Q 1444 3394 1641 3394 
Q 1925 3394 2219 3213 
L 2025 2691 
Q 1819 2813 1613 2813 
Q 1428 2813 1281 2702 
Q 1134 2591 1072 2394 
Q 978 2094 978 1738 
L 978 0 
L 416 0 
z
" transform="scale(0.015625)"/>
     </defs>
     <use xlink:href="#ArialMT-54"/>
     <use xlink:href="#ArialMT-79" x="55.583984"/>
     <use xlink:href="#ArialMT-70" x="105.583984"/>
     <use xlink:href="#ArialMT-68" x="161.199219"/>
     <use xlink:href="#ArialMT-6f" x="216.814453"/>
     <use xlink:href="#ArialMT-69" x="272.429688"/>
     <use xlink:href="#ArialMT-64" x="294.646484"/>
     <use xlink:href="#ArialMT-20" x="350.261719"/>
     <use xlink:href="#ArialMT-46" x="378.044922"/>
     <use xlink:href="#ArialMT-65" x="439.128906"/>
     <use xlink:href="#ArialMT-76" x="494.744141"/>
     <use xlink:href="#ArialMT-65" x="544.744141"/>
     <use xlink:href="#ArialMT-72" x="600.359375"/>
    </g>
   </g>
  </g>
  <g id="axes_2">
   <g id="patch_7">
    <path d="M 139.8 267.272945 
L 825.614867 267.272945 
L 825.614867 172.580194 
L 139.8 172.580194 
z
" style="fill: #ffffff"/>
   </g>
   <g id="matplotlib.axis_3">
    <g id="xtick_7">
     <g id="line2d_12">
      <g>
       <use xlink:href="#m32c0bd729a" x="243.425873" y="267.272945" style="fill: #262626; stroke: #262626; stroke-width: 1.25"/>
      </g>
     </g>
    </g>
    <g id="xtick_8">
     <g id="line2d_13">
      <g>
       <use xlink:href="#m32c0bd729a" x="358.042368" y="267.272945" style="fill: #262626; stroke: #262626; stroke-width: 1.25"/>
      </g>
     </g>
    </g>
    <g id="xtick_9">
     <g id="line2d_14">
      <g>
       <use xlink:href="#m32c0bd729a" x="472.658864" y="267.272945" style="fill: #262626; stroke: #262626; stroke-width: 1.25"/>
      </g>
     </g>
    </g>
    <g id="xtick_10">
     <g id="line2d_15">
      <g>
       <use xlink:href="#m32c0bd729a" x="587.27536" y="267.272945" style="fill: #262626; stroke: #262626; stroke-width: 1.25"/>
      </g>
     </g>
    </g>
    <g id="xtick_11">
     <g id="line2d_16">
      <g>
       <use xlink:href="#m32c0bd729a" x="702.205873" y="267.272945" style="fill: #262626; stroke: #262626; stroke-width: 1.25"/>
      </g>
     </g>
    </g>
    <g id="xtick_12">
     <g id="line2d_17">
      <g>
       <use xlink:href="#m32c0bd729a" x="816.822369" y="267.272945" style="fill: #262626; stroke: #262626; stroke-width: 1.25"/>
      </g>
     </g>
    </g>
   </g>
   <g id="matplotlib.axis_4">
    <g id="ytick_5">
     <g id="line2d_18">
      <g>
       <use xlink:href="#m414b8c6479" x="139.8" y="238.534142" style="fill: #262626; stroke: #262626; stroke-width: 1.25"/>
      </g>
     </g>
     <g id="text_6">
      <!-- 5000 -->
      <g style="fill: #262626" transform="translate(105.831875 242.470939) scale(0.11 -0.11)">
       <defs>
        <path id="ArialMT-35" d="M 266 1200 
L 856 1250 
Q 922 819 1161 601 
Q 1400 384 1738 384 
Q 2144 384 2425 690 
Q 2706 997 2706 1503 
Q 2706 1984 2436 2262 
Q 2166 2541 1728 2541 
Q 1456 2541 1237 2417 
Q 1019 2294 894 2097 
L 366 2166 
L 809 4519 
L 3088 4519 
L 3088 3981 
L 1259 3981 
L 1013 2750 
Q 1425 3038 1878 3038 
Q 2478 3038 2890 2622 
Q 3303 2206 3303 1553 
Q 3303 931 2941 478 
Q 2500 -78 1738 -78 
Q 1113 -78 717 272 
Q 322 622 266 1200 
z
" transform="scale(0.015625)"/>
       </defs>
       <use xlink:href="#ArialMT-35"/>
       <use xlink:href="#ArialMT-30" x="55.615234"/>
       <use xlink:href="#ArialMT-30" x="111.230469"/>
       <use xlink:href="#ArialMT-30" x="166.845703"/>
      </g>
     </g>
    </g>
    <g id="ytick_6">
     <g id="line2d_19">
      <g>
       <use xlink:href="#m414b8c6479" x="139.8" y="197.232144" style="fill: #262626; stroke: #262626; stroke-width: 1.25"/>
      </g>
     </g>
     <g id="text_7">
      <!-- 10000 -->
      <g style="fill: #262626" transform="translate(99.714844 201.16894) scale(0.11 -0.11)">
       <use xlink:href="#ArialMT-31"/>
       <use xlink:href="#ArialMT-30" x="55.615234"/>
       <use xlink:href="#ArialMT-30" x="111.230469"/>
       <use xlink:href="#ArialMT-30" x="166.845703"/>
       <use xlink:href="#ArialMT-30" x="222.460938"/>
      </g>
     </g>
    </g>
    <g id="text_8">
     <!-- Trend -->
     <g style="fill: #262626" transform="translate(93.329844 235.373757) rotate(-90) scale(0.12 -0.12)">
      <defs>
       <path id="ArialMT-6e" d="M 422 0 
L 422 3319 
L 928 3319 
L 928 2847 
Q 1294 3394 1984 3394 
Q 2284 3394 2536 3286 
Q 2788 3178 2913 3003 
Q 3038 2828 3088 2588 
Q 3119 2431 3119 2041 
L 3119 0 
L 2556 0 
L 2556 2019 
Q 2556 2363 2490 2533 
Q 2425 2703 2258 2804 
Q 2091 2906 1866 2906 
Q 1506 2906 1245 2678 
Q 984 2450 984 1813 
L 984 0 
L 422 0 
z
" transform="scale(0.015625)"/>
      </defs>
      <use xlink:href="#ArialMT-54"/>
      <use xlink:href="#ArialMT-72" x="57.333984"/>
      <use xlink:href="#ArialMT-65" x="90.634766"/>
      <use xlink:href="#ArialMT-6e" x="146.25"/>
      <use xlink:href="#ArialMT-64" x="201.865234"/>
     </g>
    </g>
   </g>
   <g id="line2d_20">
    <path d="M 139.8 262.968729 
L 150.790623 258.6577 
L 155.186872 257.780555 
L 170.573744 251.501834 
L 188.158741 244.072358 
L 232.121232 225.103534 
L 240.91373 221.132936 
L 249.706229 220.056398 
L 278.281848 204.333346 
L 284.876222 200.942824 
L 291.470596 197.858869 
L 295.866845 196.009811 
L 300.263094 194.337253 
L 304.659343 192.838428 
L 311.253717 190.884535 
L 317.84809 189.209767 
L 326.640589 187.230449 
L 339.829336 184.504921 
L 348.621834 182.957001 
L 357.414333 181.68517 
L 359.612457 181.414048 
L 372.801205 180.747343 
L 377.197454 180.924295 
L 381.593703 181.364054 
L 403.574949 181.672432 
L 407.971198 182.436214 
L 414.565572 183.84396 
L 416.763696 184.354386 
L 421.159945 184.873827 
L 432.150568 187.398166 
L 438.744942 188.694957 
L 445.339316 189.751162 
L 451.933689 190.563036 
L 458.528063 191.150051 
L 465.122437 191.510649 
L 471.716811 191.575157 
L 484.905558 191.158905 
L 491.499932 190.581525 
L 498.094305 189.753505 
L 502.490555 188.986471 
L 506.886804 188.041553 
L 513.481177 186.358818 
L 535.462423 180.323763 
L 542.056797 178.872636 
L 546.453046 178.084962 
L 550.849295 177.47147 
L 555.245544 177.060685 
L 559.641793 176.88441 
L 564.038043 176.977343 
L 568.434292 177.372589 
L 572.830541 178.097722 
L 577.22679 179.175058 
L 581.623039 180.613274 
L 586.019288 182.392256 
L 590.415538 184.467916 
L 594.811787 186.816094 
L 599.208036 188.093946 
L 603.604285 190.869805 
L 608.000534 193.949394 
L 612.396783 197.319399 
L 616.793032 200.943183 
L 618.991157 202.83497 
L 654.16115 204.770637 
L 662.953648 212.802276 
L 671.746147 220.934494 
L 680.538645 224.888433 
L 687.133019 230.516201 
L 689.331143 232.284408 
L 695.925517 233.988628 
L 700.321766 237.184487 
L 704.718015 240.069855 
L 709.114264 242.626402 
L 717.906763 244.856435 
L 722.303012 245.85503 
L 724.501136 246.780815 
L 739.888009 249.560001 
L 757.473005 252.762458 
L 768.463628 254.496631 
L 779.454251 255.979248 
L 790.444874 257.233683 
L 803.633621 258.489417 
L 819.020493 259.694331 
L 825.614867 260.146095 
L 825.614867 260.146095 
" clip-path="url(#pc8cae6a83c)" style="fill: none; stroke: #4c72b0; stroke-width: 1.5; stroke-linecap: round"/>
   </g>
   <g id="patch_8">
    <path d="M 139.8 267.272945 
L 139.8 172.580194 
" style="fill: none; stroke: #262626; stroke-width: 1.25; stroke-linejoin: miter; stroke-linecap: square"/>
   </g>
   <g id="patch_9">
    <path d="M 825.614867 267.272945 
L 825.614867 172.580194 
" style="fill: none; stroke: #262626; stroke-width: 1.25; stroke-linejoin: miter; stroke-linecap: square"/>
   </g>
   <g id="patch_10">
    <path d="M 139.8 267.272945 
L 825.614867 267.272945 
" style="fill: none; stroke: #262626; stroke-width: 1.25; stroke-linejoin: miter; stroke-linecap: square"/>
   </g>
   <g id="patch_11">
    <path d="M 139.8 172.580194 
L 825.614867 172.580194 
" style="fill: none; stroke: #262626; stroke-width: 1.25; stroke-linejoin: miter; stroke-linecap: square"/>
   </g>
  </g>
  <g id="axes_3">
   <g id="patch_12">
    <path d="M 139.8 393.586473 
L 825.614867 393.586473 
L 825.614867 298.893721 
L 139.8 298.893721 
z
" style="fill: #ffffff"/>
   </g>
   <g id="matplotlib.axis_5">
    <g id="xtick_13">
     <g id="line2d_21">
      <g>
       <use xlink:href="#m32c0bd729a" x="243.425873" y="393.586473" style="fill: #262626; stroke: #262626; stroke-width: 1.25"/>
      </g>
     </g>
    </g>
    <g id="xtick_14">
     <g id="line2d_22">
      <g>
       <use xlink:href="#m32c0bd729a" x="358.042368" y="393.586473" style="fill: #262626; stroke: #262626; stroke-width: 1.25"/>
      </g>
     </g>
    </g>
    <g id="xtick_15">
     <g id="line2d_23">
      <g>
       <use xlink:href="#m32c0bd729a" x="472.658864" y="393.586473" style="fill: #262626; stroke: #262626; stroke-width: 1.25"/>
      </g>
     </g>
    </g>
    <g id="xtick_16">
     <g id="line2d_24">
      <g>
       <use xlink:href="#m32c0bd729a" x="587.27536" y="393.586473" style="fill: #262626; stroke: #262626; stroke-width: 1.25"/>
      </g>
     </g>
    </g>
    <g id="xtick_17">
     <g id="line2d_25">
      <g>
       <use xlink:href="#m32c0bd729a" x="702.205873" y="393.586473" style="fill: #262626; stroke: #262626; stroke-width: 1.25"/>
      </g>
     </g>
    </g>
    <g id="xtick_18">
     <g id="line2d_26">
      <g>
       <use xlink:href="#m32c0bd729a" x="816.822369" y="393.586473" style="fill: #262626; stroke: #262626; stroke-width: 1.25"/>
      </g>
     </g>
    </g>
   </g>
   <g id="matplotlib.axis_6">
    <g id="ytick_7">
     <g id="line2d_27">
      <g>
       <use xlink:href="#m414b8c6479" x="139.8" y="392.274131" style="fill: #262626; stroke: #262626; stroke-width: 1.25"/>
      </g>
     </g>
     <g id="text_9">
      <!-- −10000 -->
      <g style="fill: #262626" transform="translate(93.290156 396.210928) scale(0.11 -0.11)">
       <defs>
        <path id="ArialMT-2212" d="M 3381 1997 
L 356 1997 
L 356 2522 
L 3381 2522 
L 3381 1997 
z
" transform="scale(0.015625)"/>
       </defs>
       <use xlink:href="#ArialMT-2212"/>
       <use xlink:href="#ArialMT-31" x="58.398438"/>
       <use xlink:href="#ArialMT-30" x="114.013672"/>
       <use xlink:href="#ArialMT-30" x="169.628906"/>
       <use xlink:href="#ArialMT-30" x="225.244141"/>
       <use xlink:href="#ArialMT-30" x="280.859375"/>
      </g>
     </g>
    </g>
    <g id="ytick_8">
     <g id="line2d_28">
      <g>
       <use xlink:href="#m414b8c6479" x="139.8" y="359.712089" style="fill: #262626; stroke: #262626; stroke-width: 1.25"/>
      </g>
     </g>
     <g id="text_10">
      <!-- 0 -->
      <g style="fill: #262626" transform="translate(124.182969 363.648886) scale(0.11 -0.11)">
       <use xlink:href="#ArialMT-30"/>
      </g>
     </g>
    </g>
    <g id="ytick_9">
     <g id="line2d_29">
      <g>
       <use xlink:href="#m414b8c6479" x="139.8" y="327.150047" style="fill: #262626; stroke: #262626; stroke-width: 1.25"/>
      </g>
     </g>
     <g id="text_11">
      <!-- 10000 -->
      <g style="fill: #262626" transform="translate(99.714844 331.086844) scale(0.11 -0.11)">
       <use xlink:href="#ArialMT-31"/>
       <use xlink:href="#ArialMT-30" x="55.615234"/>
       <use xlink:href="#ArialMT-30" x="111.230469"/>
       <use xlink:href="#ArialMT-30" x="166.845703"/>
       <use xlink:href="#ArialMT-30" x="222.460938"/>
      </g>
     </g>
    </g>
    <g id="text_12">
     <!-- Season -->
     <g style="fill: #262626" transform="translate(86.905156 366.588535) rotate(-90) scale(0.12 -0.12)">
      <defs>
       <path id="ArialMT-53" d="M 288 1472 
L 859 1522 
Q 900 1178 1048 958 
Q 1197 738 1509 602 
Q 1822 466 2213 466 
Q 2559 466 2825 569 
Q 3091 672 3220 851 
Q 3350 1031 3350 1244 
Q 3350 1459 3225 1620 
Q 3100 1781 2813 1891 
Q 2628 1963 1997 2114 
Q 1366 2266 1113 2400 
Q 784 2572 623 2826 
Q 463 3081 463 3397 
Q 463 3744 659 4045 
Q 856 4347 1234 4503 
Q 1613 4659 2075 4659 
Q 2584 4659 2973 4495 
Q 3363 4331 3572 4012 
Q 3781 3694 3797 3291 
L 3216 3247 
Q 3169 3681 2898 3903 
Q 2628 4125 2100 4125 
Q 1550 4125 1298 3923 
Q 1047 3722 1047 3438 
Q 1047 3191 1225 3031 
Q 1400 2872 2139 2705 
Q 2878 2538 3153 2413 
Q 3553 2228 3743 1945 
Q 3934 1663 3934 1294 
Q 3934 928 3725 604 
Q 3516 281 3123 101 
Q 2731 -78 2241 -78 
Q 1619 -78 1198 103 
Q 778 284 539 648 
Q 300 1013 288 1472 
z
" transform="scale(0.015625)"/>
       <path id="ArialMT-61" d="M 2588 409 
Q 2275 144 1986 34 
Q 1697 -75 1366 -75 
Q 819 -75 525 192 
Q 231 459 231 875 
Q 231 1119 342 1320 
Q 453 1522 633 1644 
Q 813 1766 1038 1828 
Q 1203 1872 1538 1913 
Q 2219 1994 2541 2106 
Q 2544 2222 2544 2253 
Q 2544 2597 2384 2738 
Q 2169 2928 1744 2928 
Q 1347 2928 1158 2789 
Q 969 2650 878 2297 
L 328 2372 
Q 403 2725 575 2942 
Q 747 3159 1072 3276 
Q 1397 3394 1825 3394 
Q 2250 3394 2515 3294 
Q 2781 3194 2906 3042 
Q 3031 2891 3081 2659 
Q 3109 2516 3109 2141 
L 3109 1391 
Q 3109 606 3145 398 
Q 3181 191 3288 0 
L 2700 0 
Q 2613 175 2588 409 
z
M 2541 1666 
Q 2234 1541 1622 1453 
Q 1275 1403 1131 1340 
Q 988 1278 909 1158 
Q 831 1038 831 891 
Q 831 666 1001 516 
Q 1172 366 1500 366 
Q 1825 366 2078 508 
Q 2331 650 2450 897 
Q 2541 1088 2541 1459 
L 2541 1666 
z
" transform="scale(0.015625)"/>
       <path id="ArialMT-73" d="M 197 991 
L 753 1078 
Q 800 744 1014 566 
Q 1228 388 1613 388 
Q 2000 388 2187 545 
Q 2375 703 2375 916 
Q 2375 1106 2209 1216 
Q 2094 1291 1634 1406 
Q 1016 1563 777 1677 
Q 538 1791 414 1992 
Q 291 2194 291 2438 
Q 291 2659 392 2848 
Q 494 3038 669 3163 
Q 800 3259 1026 3326 
Q 1253 3394 1513 3394 
Q 1903 3394 2198 3281 
Q 2494 3169 2634 2976 
Q 2775 2784 2828 2463 
L 2278 2388 
Q 2241 2644 2061 2787 
Q 1881 2931 1553 2931 
Q 1166 2931 1000 2803 
Q 834 2675 834 2503 
Q 834 2394 903 2306 
Q 972 2216 1119 2156 
Q 1203 2125 1616 2013 
Q 2213 1853 2448 1751 
Q 2684 1650 2818 1456 
Q 2953 1263 2953 975 
Q 2953 694 2789 445 
Q 2625 197 2315 61 
Q 2006 -75 1616 -75 
Q 969 -75 630 194 
Q 291 463 197 991 
z
" transform="scale(0.015625)"/>
      </defs>
      <use xlink:href="#ArialMT-53"/>
      <use xlink:href="#ArialMT-65" x="66.699219"/>
      <use xlink:href="#ArialMT-61" x="122.314453"/>
      <use xlink:href="#ArialMT-73" x="177.929688"/>
      <use xlink:href="#ArialMT-6f" x="227.929688"/>
      <use xlink:href="#ArialMT-6e" x="283.544922"/>
     </g>
    </g>
   </g>
   <g id="line2d_30">
    <path d="M 139.8 365.706136 
L 141.998125 371.251353 
L 144.196249 371.898755 
L 146.394374 371.200896 
L 148.592498 371.643354 
L 150.790623 372.255682 
L 155.186872 371.574503 
L 161.781246 372.903782 
L 163.97937 372.009335 
L 166.177495 371.916345 
L 170.573744 371.962067 
L 174.969993 371.983396 
L 177.168118 371.578137 
L 181.564367 371.86065 
L 188.158741 371.585032 
L 194.753114 371.467962 
L 196.951239 371.000239 
L 199.149363 371.449731 
L 201.347488 371.001946 
L 203.545613 369.884521 
L 205.743737 370.345574 
L 210.139986 368.94398 
L 212.338111 367.798125 
L 214.536235 367.461734 
L 216.73436 367.318159 
L 218.932485 367.011737 
L 221.130609 366.584777 
L 223.328734 364.791587 
L 225.526858 308.302482 
L 227.724983 307.585448 
L 229.923108 305.465219 
L 232.121232 304.962051 
L 234.319357 303.197937 
L 236.517481 307.520537 
L 238.715606 307.179314 
L 240.91373 305.633967 
L 249.706229 369.62852 
L 251.904353 360.783804 
L 254.102478 365.023884 
L 256.300602 380.118765 
L 258.498727 380.138259 
L 260.696852 379.309765 
L 262.894976 378.997854 
L 265.093101 378.808728 
L 267.291225 377.560806 
L 269.48935 377.550834 
L 271.687474 377.39625 
L 273.885599 376.747885 
L 276.083724 373.994823 
L 278.281848 373.431736 
L 284.876222 372.060057 
L 287.074346 371.489284 
L 289.272471 370.432502 
L 293.66872 369.302844 
L 302.461218 366.421123 
L 306.857468 365.034173 
L 309.055592 363.424417 
L 311.253717 363.028342 
L 313.451841 362.02638 
L 315.649966 360.498765 
L 317.84809 360.134195 
L 322.24434 357.578794 
L 324.442464 357.4064 
L 326.640589 356.368733 
L 328.838713 355.563607 
L 331.036838 354.599269 
L 333.234962 353.442153 
L 335.433087 351.340355 
L 337.631212 319.30858 
L 339.829336 318.189451 
L 342.027461 316.513164 
L 344.225585 315.343743 
L 346.42371 313.46995 
L 348.621834 327.533274 
L 350.819959 327.18143 
L 353.018084 325.711883 
L 355.216208 360.780367 
L 357.414333 367.168427 
L 359.612457 367.383344 
L 364.008706 387.99938 
L 366.206831 387.398257 
L 372.801205 384.443994 
L 374.999329 382.688822 
L 377.197454 382.237082 
L 379.395578 381.430311 
L 381.593703 379.669227 
L 403.574949 375.697107 
L 407.971198 373.797394 
L 412.367447 372.027783 
L 414.565572 370.977089 
L 416.763696 369.380651 
L 421.159945 368.265924 
L 425.556195 365.858004 
L 434.348693 360.543903 
L 436.546817 359.336158 
L 438.744942 356.765584 
L 440.943067 355.634271 
L 443.141191 354.113247 
L 445.339316 352.223965 
L 447.53744 351.136335 
L 449.735565 349.429083 
L 451.933689 347.530972 
L 454.131814 349.212388 
L 456.329939 347.532171 
L 458.528063 346.123898 
L 460.726188 344.578275 
L 462.924312 342.792906 
L 465.122437 340.363083 
L 467.320561 331.443595 
L 469.518686 329.987727 
L 471.716811 328.774303 
L 473.914935 326.998579 
L 476.11306 324.988258 
L 482.707433 344.88843 
L 484.905558 344.505373 
L 487.103683 343.092051 
L 489.301807 350.857643 
L 491.499932 371.721648 
L 493.698056 370.973577 
L 495.896181 389.282257 
L 498.094305 388.204295 
L 500.29243 387.302748 
L 502.490555 386.037022 
L 504.688679 384.455338 
L 506.886804 382.734205 
L 509.084928 381.903139 
L 511.283053 380.542769 
L 513.481177 377.86358 
L 515.679302 374.131855 
L 520.075551 371.903139 
L 524.4718 369.769241 
L 526.669925 368.562236 
L 528.868049 366.978082 
L 533.264299 364.156287 
L 542.056797 358.445312 
L 546.453046 355.60327 
L 548.651171 353.09142 
L 553.04742 350.24764 
L 555.245544 348.694249 
L 557.443669 347.388242 
L 559.641793 345.910879 
L 561.839918 344.21246 
L 564.038043 349.840422 
L 566.236167 351.795032 
L 570.632416 349.025392 
L 575.028666 345.773452 
L 579.424915 343.021758 
L 581.623039 342.220714 
L 583.821164 340.465188 
L 586.019288 338.947919 
L 588.217413 353.127684 
L 590.415538 352.641335 
L 592.613662 351.433047 
L 594.811787 350.859269 
L 599.208036 376.649262 
L 601.40616 375.733169 
L 603.604285 381.128604 
L 605.80241 379.973383 
L 608.000534 379.245223 
L 610.198659 378.162135 
L 612.396783 376.637709 
L 614.594908 375.432266 
L 616.793032 374.486614 
L 618.991157 373.129245 
L 654.16115 370.462981 
L 656.359275 368.836457 
L 667.349898 364.022241 
L 671.746147 361.843862 
L 680.538645 359.480328 
L 689.331143 355.164297 
L 695.925517 353.993059 
L 698.123642 352.37993 
L 702.519891 350.226755 
L 706.91614 348.304523 
L 709.114264 347.323691 
L 713.510514 346.219856 
L 717.906763 353.671822 
L 722.303012 357.917482 
L 724.501136 356.606359 
L 726.699261 355.452764 
L 728.897386 354.159925 
L 731.09551 353.34944 
L 733.293635 357.216023 
L 735.491759 355.879899 
L 737.689884 355.512346 
L 739.888009 353.746811 
L 742.086133 352.752075 
L 744.284258 357.270034 
L 746.482382 356.655052 
L 748.680507 355.602398 
L 750.878631 349.547892 
L 753.076756 381.594261 
L 755.274881 380.44727 
L 757.473005 372.244371 
L 759.67113 371.07776 
L 761.869254 370.415263 
L 764.067379 369.631989 
L 766.265503 368.215775 
L 768.463628 367.494402 
L 770.661753 366.449715 
L 772.859877 365.122379 
L 775.058002 362.476321 
L 777.256126 363.05352 
L 781.652375 361.515297 
L 786.048625 359.721036 
L 792.642998 357.674104 
L 797.039247 355.856996 
L 801.435497 354.496226 
L 805.831746 353.226544 
L 808.02987 352.294109 
L 810.227995 351.700295 
L 814.624244 350.390171 
L 816.822369 350.060007 
L 821.218618 349.026546 
L 823.416742 348.567347 
L 825.614867 358.366336 
L 825.614867 358.366336 
" clip-path="url(#pf03a2ea8eb)" style="fill: none; stroke: #4c72b0; stroke-width: 1.5; stroke-linecap: round"/>
   </g>
   <g id="patch_13">
    <path d="M 139.8 393.586473 
L 139.8 298.893721 
" style="fill: none; stroke: #262626; stroke-width: 1.25; stroke-linejoin: miter; stroke-linecap: square"/>
   </g>
   <g id="patch_14">
    <path d="M 825.614867 393.586473 
L 825.614867 298.893721 
" style="fill: none; stroke: #262626; stroke-width: 1.25; stroke-linejoin: miter; stroke-linecap: square"/>
   </g>
   <g id="patch_15">
    <path d="M 139.8 393.586473 
L 825.614867 393.586473 
" style="fill: none; stroke: #262626; stroke-width: 1.25; stroke-linejoin: miter; stroke-linecap: square"/>
   </g>
   <g id="patch_16">
    <path d="M 139.8 298.893721 
L 825.614867 298.893721 
" style="fill: none; stroke: #262626; stroke-width: 1.25; stroke-linejoin: miter; stroke-linecap: square"/>
   </g>
  </g>
  <g id="axes_4">
   <g id="patch_17">
    <path d="M 139.8 519.9 
L 825.614867 519.9 
L 825.614867 425.207249 
L 139.8 425.207249 
z
" style="fill: #ffffff"/>
   </g>
   <g id="line2d_31">
    <path d="M 139.8 469.941473 
L 825.614867 469.941473 
" clip-path="url(#p100f48740d)" style="fill: none; stroke: #000000; stroke-width: 1.5; stroke-linecap: round"/>
   </g>
   <g id="matplotlib.axis_7">
    <g id="xtick_19">
     <g id="line2d_32">
      <g>
       <use xlink:href="#m32c0bd729a" x="243.425873" y="519.9" style="fill: #262626; stroke: #262626; stroke-width: 1.25"/>
      </g>
     </g>
     <g id="text_13">
      <!-- 2017 -->
      <g style="fill: #262626" transform="translate(231.19181 537.273594) scale(0.11 -0.11)">
       <defs>
        <path id="ArialMT-37" d="M 303 3981 
L 303 4522 
L 3269 4522 
L 3269 4084 
Q 2831 3619 2401 2847 
Q 1972 2075 1738 1259 
Q 1569 684 1522 0 
L 944 0 
Q 953 541 1156 1306 
Q 1359 2072 1739 2783 
Q 2119 3494 2547 3981 
L 303 3981 
z
" transform="scale(0.015625)"/>
       </defs>
       <use xlink:href="#ArialMT-32"/>
       <use xlink:href="#ArialMT-30" x="55.615234"/>
       <use xlink:href="#ArialMT-31" x="111.230469"/>
       <use xlink:href="#ArialMT-37" x="166.845703"/>
      </g>
     </g>
    </g>
    <g id="xtick_20">
     <g id="line2d_33">
      <g>
       <use xlink:href="#m32c0bd729a" x="358.042368" y="519.9" style="fill: #262626; stroke: #262626; stroke-width: 1.25"/>
      </g>
     </g>
     <g id="text_14">
      <!-- 2018 -->
      <g style="fill: #262626" transform="translate(345.808306 537.273594) scale(0.11 -0.11)">
       <defs>
        <path id="ArialMT-38" d="M 1131 2484 
Q 781 2613 612 2850 
Q 444 3088 444 3419 
Q 444 3919 803 4259 
Q 1163 4600 1759 4600 
Q 2359 4600 2725 4251 
Q 3091 3903 3091 3403 
Q 3091 3084 2923 2848 
Q 2756 2613 2416 2484 
Q 2838 2347 3058 2040 
Q 3278 1734 3278 1309 
Q 3278 722 2862 322 
Q 2447 -78 1769 -78 
Q 1091 -78 675 323 
Q 259 725 259 1325 
Q 259 1772 486 2073 
Q 713 2375 1131 2484 
z
M 1019 3438 
Q 1019 3113 1228 2906 
Q 1438 2700 1772 2700 
Q 2097 2700 2305 2904 
Q 2513 3109 2513 3406 
Q 2513 3716 2298 3927 
Q 2084 4138 1766 4138 
Q 1444 4138 1231 3931 
Q 1019 3725 1019 3438 
z
M 838 1322 
Q 838 1081 952 856 
Q 1066 631 1291 507 
Q 1516 384 1775 384 
Q 2178 384 2440 643 
Q 2703 903 2703 1303 
Q 2703 1709 2433 1975 
Q 2163 2241 1756 2241 
Q 1359 2241 1098 1978 
Q 838 1716 838 1322 
z
" transform="scale(0.015625)"/>
       </defs>
       <use xlink:href="#ArialMT-32"/>
       <use xlink:href="#ArialMT-30" x="55.615234"/>
       <use xlink:href="#ArialMT-31" x="111.230469"/>
       <use xlink:href="#ArialMT-38" x="166.845703"/>
      </g>
     </g>
    </g>
    <g id="xtick_21">
     <g id="line2d_34">
      <g>
       <use xlink:href="#m32c0bd729a" x="472.658864" y="519.9" style="fill: #262626; stroke: #262626; stroke-width: 1.25"/>
      </g>
     </g>
     <g id="text_15">
      <!-- 2019 -->
      <g style="fill: #262626" transform="translate(460.424801 537.273594) scale(0.11 -0.11)">
       <defs>
        <path id="ArialMT-39" d="M 350 1059 
L 891 1109 
Q 959 728 1153 556 
Q 1347 384 1650 384 
Q 1909 384 2104 503 
Q 2300 622 2425 820 
Q 2550 1019 2634 1356 
Q 2719 1694 2719 2044 
Q 2719 2081 2716 2156 
Q 2547 1888 2255 1720 
Q 1963 1553 1622 1553 
Q 1053 1553 659 1965 
Q 266 2378 266 3053 
Q 266 3750 677 4175 
Q 1088 4600 1706 4600 
Q 2153 4600 2523 4359 
Q 2894 4119 3086 3673 
Q 3278 3228 3278 2384 
Q 3278 1506 3087 986 
Q 2897 466 2520 194 
Q 2144 -78 1638 -78 
Q 1100 -78 759 220 
Q 419 519 350 1059 
z
M 2653 3081 
Q 2653 3566 2395 3850 
Q 2138 4134 1775 4134 
Q 1400 4134 1122 3828 
Q 844 3522 844 3034 
Q 844 2597 1108 2323 
Q 1372 2050 1759 2050 
Q 2150 2050 2401 2323 
Q 2653 2597 2653 3081 
z
" transform="scale(0.015625)"/>
       </defs>
       <use xlink:href="#ArialMT-32"/>
       <use xlink:href="#ArialMT-30" x="55.615234"/>
       <use xlink:href="#ArialMT-31" x="111.230469"/>
       <use xlink:href="#ArialMT-39" x="166.845703"/>
      </g>
     </g>
    </g>
    <g id="xtick_22">
     <g id="line2d_35">
      <g>
       <use xlink:href="#m32c0bd729a" x="587.27536" y="519.9" style="fill: #262626; stroke: #262626; stroke-width: 1.25"/>
      </g>
     </g>
     <g id="text_16">
      <!-- 2020 -->
      <g style="fill: #262626" transform="translate(575.041297 537.273594) scale(0.11 -0.11)">
       <use xlink:href="#ArialMT-32"/>
       <use xlink:href="#ArialMT-30" x="55.615234"/>
       <use xlink:href="#ArialMT-32" x="111.230469"/>
       <use xlink:href="#ArialMT-30" x="166.845703"/>
      </g>
     </g>
    </g>
    <g id="xtick_23">
     <g id="line2d_36">
      <g>
       <use xlink:href="#m32c0bd729a" x="702.205873" y="519.9" style="fill: #262626; stroke: #262626; stroke-width: 1.25"/>
      </g>
     </g>
     <g id="text_17">
      <!-- 2021 -->
      <g style="fill: #262626" transform="translate(689.97181 537.273594) scale(0.11 -0.11)">
       <use xlink:href="#ArialMT-32"/>
       <use xlink:href="#ArialMT-30" x="55.615234"/>
       <use xlink:href="#ArialMT-32" x="111.230469"/>
       <use xlink:href="#ArialMT-31" x="166.845703"/>
      </g>
     </g>
    </g>
    <g id="xtick_24">
     <g id="line2d_37">
      <g>
       <use xlink:href="#m32c0bd729a" x="816.822369" y="519.9" style="fill: #262626; stroke: #262626; stroke-width: 1.25"/>
      </g>
     </g>
     <g id="text_18">
      <!-- 2022 -->
      <g style="fill: #262626" transform="translate(804.588306 537.273594) scale(0.11 -0.11)">
       <use xlink:href="#ArialMT-32"/>
       <use xlink:href="#ArialMT-30" x="55.615234"/>
       <use xlink:href="#ArialMT-32" x="111.230469"/>
       <use xlink:href="#ArialMT-32" x="166.845703"/>
      </g>
     </g>
    </g>
   </g>
   <g id="matplotlib.axis_8">
    <g id="ytick_10">
     <g id="line2d_38">
      <g>
       <use xlink:href="#m414b8c6479" x="139.8" y="499.58668" style="fill: #262626; stroke: #262626; stroke-width: 1.25"/>
      </g>
     </g>
     <g id="text_19">
      <!-- −10000 -->
      <g style="fill: #262626" transform="translate(93.290156 503.523477) scale(0.11 -0.11)">
       <use xlink:href="#ArialMT-2212"/>
       <use xlink:href="#ArialMT-31" x="58.398438"/>
       <use xlink:href="#ArialMT-30" x="114.013672"/>
       <use xlink:href="#ArialMT-30" x="169.628906"/>
       <use xlink:href="#ArialMT-30" x="225.244141"/>
       <use xlink:href="#ArialMT-30" x="280.859375"/>
      </g>
     </g>
    </g>
    <g id="ytick_11">
     <g id="line2d_39">
      <g>
       <use xlink:href="#m414b8c6479" x="139.8" y="469.941473" style="fill: #262626; stroke: #262626; stroke-width: 1.25"/>
      </g>
     </g>
     <g id="text_20">
      <!-- 0 -->
      <g style="fill: #262626" transform="translate(124.182969 473.87827) scale(0.11 -0.11)">
       <use xlink:href="#ArialMT-30"/>
      </g>
     </g>
    </g>
    <g id="ytick_12">
     <g id="line2d_40">
      <g>
       <use xlink:href="#m414b8c6479" x="139.8" y="440.296266" style="fill: #262626; stroke: #262626; stroke-width: 1.25"/>
      </g>
     </g>
     <g id="text_21">
      <!-- 10000 -->
      <g style="fill: #262626" transform="translate(99.714844 444.233063) scale(0.11 -0.11)">
       <use xlink:href="#ArialMT-31"/>
       <use xlink:href="#ArialMT-30" x="55.615234"/>
       <use xlink:href="#ArialMT-30" x="111.230469"/>
       <use xlink:href="#ArialMT-30" x="166.845703"/>
       <use xlink:href="#ArialMT-30" x="222.460938"/>
      </g>
     </g>
    </g>
    <g id="text_22">
     <!-- Resid -->
     <g style="fill: #262626" transform="translate(86.905156 487.892999) rotate(-90) scale(0.12 -0.12)">
      <defs>
       <path id="ArialMT-52" d="M 503 0 
L 503 4581 
L 2534 4581 
Q 3147 4581 3465 4457 
Q 3784 4334 3975 4021 
Q 4166 3709 4166 3331 
Q 4166 2844 3850 2509 
Q 3534 2175 2875 2084 
Q 3116 1969 3241 1856 
Q 3506 1613 3744 1247 
L 4541 0 
L 3778 0 
L 3172 953 
Q 2906 1366 2734 1584 
Q 2563 1803 2427 1890 
Q 2291 1978 2150 2013 
Q 2047 2034 1813 2034 
L 1109 2034 
L 1109 0 
L 503 0 
z
M 1109 2559 
L 2413 2559 
Q 2828 2559 3062 2645 
Q 3297 2731 3419 2920 
Q 3541 3109 3541 3331 
Q 3541 3656 3305 3865 
Q 3069 4075 2559 4075 
L 1109 4075 
L 1109 2559 
z
" transform="scale(0.015625)"/>
      </defs>
      <use xlink:href="#ArialMT-52"/>
      <use xlink:href="#ArialMT-65" x="72.216797"/>
      <use xlink:href="#ArialMT-73" x="127.832031"/>
      <use xlink:href="#ArialMT-69" x="177.832031"/>
      <use xlink:href="#ArialMT-64" x="200.048828"/>
     </g>
    </g>
   </g>
   <g id="line2d_41">
    <defs>
     <path id="mae779408cf" d="M 0 3 
C 0.795609 3 1.55874 2.683901 2.12132 2.12132 
C 2.683901 1.55874 3 0.795609 3 0 
C 3 -0.795609 2.683901 -1.55874 2.12132 -2.12132 
C 1.55874 -2.683901 0.795609 -3 0 -3 
C -0.795609 -3 -1.55874 -2.683901 -2.12132 -2.12132 
C -2.683901 -1.55874 -3 -0.795609 -3 0 
C -3 0.795609 -2.683901 1.55874 -2.12132 2.12132 
C -1.55874 2.683901 -0.795609 3 0 3 
z
" style="stroke: #4c72b0"/>
    </defs>
    <g clip-path="url(#p100f48740d)">
     <use xlink:href="#mae779408cf" x="139.8" y="470.481468" style="fill: #4c72b0; stroke: #4c72b0"/>
     <use xlink:href="#mae779408cf" x="141.998125" y="465.730035" style="fill: #4c72b0; stroke: #4c72b0"/>
     <use xlink:href="#mae779408cf" x="144.196249" y="465.448278" style="fill: #4c72b0; stroke: #4c72b0"/>
     <use xlink:href="#mae779408cf" x="146.394374" y="466.39006" style="fill: #4c72b0; stroke: #4c72b0"/>
     <use xlink:href="#mae779408cf" x="148.592498" y="466.265803" style="fill: #4c72b0; stroke: #4c72b0"/>
     <use xlink:href="#mae779408cf" x="150.790623" y="466.021306" style="fill: #4c72b0; stroke: #4c72b0"/>
     <use xlink:href="#mae779408cf" x="155.186872" y="466.905863" style="fill: #4c72b0; stroke: #4c72b0"/>
     <use xlink:href="#mae779408cf" x="157.384997" y="466.835817" style="fill: #4c72b0; stroke: #4c72b0"/>
     <use xlink:href="#mae779408cf" x="159.583121" y="466.654373" style="fill: #4c72b0; stroke: #4c72b0"/>
     <use xlink:href="#mae779408cf" x="161.781246" y="466.627179" style="fill: #4c72b0; stroke: #4c72b0"/>
     <use xlink:href="#mae779408cf" x="163.97937" y="467.757551" style="fill: #4c72b0; stroke: #4c72b0"/>
     <use xlink:href="#mae779408cf" x="166.177495" y="468.159987" style="fill: #4c72b0; stroke: #4c72b0"/>
     <use xlink:href="#mae779408cf" x="168.375619" y="468.407094" style="fill: #4c72b0; stroke: #4c72b0"/>
     <use xlink:href="#mae779408cf" x="170.573744" y="468.752983" style="fill: #4c72b0; stroke: #4c72b0"/>
     <use xlink:href="#mae779408cf" x="172.771869" y="469.032166" style="fill: #4c72b0; stroke: #4c72b0"/>
     <use xlink:href="#mae779408cf" x="174.969993" y="469.365568" style="fill: #4c72b0; stroke: #4c72b0"/>
     <use xlink:href="#mae779408cf" x="177.168118" y="470.039368" style="fill: #4c72b0; stroke: #4c72b0"/>
     <use xlink:href="#mae779408cf" x="179.366242" y="470.222519" style="fill: #4c72b0; stroke: #4c72b0"/>
     <use xlink:href="#mae779408cf" x="181.564367" y="470.410637" style="fill: #4c72b0; stroke: #4c72b0"/>
     <use xlink:href="#mae779408cf" x="183.762491" y="470.852873" style="fill: #4c72b0; stroke: #4c72b0"/>
     <use xlink:href="#mae779408cf" x="185.960616" y="471.233378" style="fill: #4c72b0; stroke: #4c72b0"/>
     <use xlink:href="#mae779408cf" x="188.158741" y="471.626192" style="fill: #4c72b0; stroke: #4c72b0"/>
     <use xlink:href="#mae779408cf" x="190.356865" y="471.977837" style="fill: #4c72b0; stroke: #4c72b0"/>
     <use xlink:href="#mae779408cf" x="192.55499" y="472.261691" style="fill: #4c72b0; stroke: #4c72b0"/>
     <use xlink:href="#mae779408cf" x="194.753114" y="472.657878" style="fill: #4c72b0; stroke: #4c72b0"/>
     <use xlink:href="#mae779408cf" x="196.951239" y="473.406178" style="fill: #4c72b0; stroke: #4c72b0"/>
     <use xlink:href="#mae779408cf" x="199.149363" y="473.337657" style="fill: #4c72b0; stroke: #4c72b0"/>
     <use xlink:href="#mae779408cf" x="201.347488" y="474.080437" style="fill: #4c72b0; stroke: #4c72b0"/>
     <use xlink:href="#mae779408cf" x="203.545613" y="475.394551" style="fill: #4c72b0; stroke: #4c72b0"/>
     <use xlink:href="#mae779408cf" x="205.743737" y="475.301331" style="fill: #4c72b0; stroke: #4c72b0"/>
     <use xlink:href="#mae779408cf" x="207.941862" y="476.320985" style="fill: #4c72b0; stroke: #4c72b0"/>
     <use xlink:href="#mae779408cf" x="210.139986" y="477.224384" style="fill: #4c72b0; stroke: #4c72b0"/>
     <use xlink:href="#mae779408cf" x="212.338111" y="478.56712" style="fill: #4c72b0; stroke: #4c72b0"/>
     <use xlink:href="#mae779408cf" x="214.536235" y="479.148897" style="fill: #4c72b0; stroke: #4c72b0"/>
     <use xlink:href="#mae779408cf" x="216.73436" y="479.62" style="fill: #4c72b0; stroke: #4c72b0"/>
     <use xlink:href="#mae779408cf" x="218.932485" y="480.23306" style="fill: #4c72b0; stroke: #4c72b0"/>
     <use xlink:href="#mae779408cf" x="221.130609" y="480.940689" style="fill: #4c72b0; stroke: #4c72b0"/>
     <use xlink:href="#mae779408cf" x="223.328734" y="482.909701" style="fill: #4c72b0; stroke: #4c72b0"/>
     <use xlink:href="#mae779408cf" x="225.526858" y="460.508675" style="fill: #4c72b0; stroke: #4c72b0"/>
     <use xlink:href="#mae779408cf" x="227.724983" y="460.350967" style="fill: #4c72b0; stroke: #4c72b0"/>
     <use xlink:href="#mae779408cf" x="229.923108" y="460.205821" style="fill: #4c72b0; stroke: #4c72b0"/>
     <use xlink:href="#mae779408cf" x="232.121232" y="459.945023" style="fill: #4c72b0; stroke: #4c72b0"/>
     <use xlink:href="#mae779408cf" x="234.319357" y="461.025031" style="fill: #4c72b0; stroke: #4c72b0"/>
     <use xlink:href="#mae779408cf" x="236.517481" y="455.50141" style="fill: #4c72b0; stroke: #4c72b0"/>
     <use xlink:href="#mae779408cf" x="238.715606" y="455.296084" style="fill: #4c72b0; stroke: #4c72b0"/>
     <use xlink:href="#mae779408cf" x="240.91373" y="455.107901" style="fill: #4c72b0; stroke: #4c72b0"/>
     <use xlink:href="#mae779408cf" x="249.706229" y="482.251678" style="fill: #4c72b0; stroke: #4c72b0"/>
     <use xlink:href="#mae779408cf" x="251.904353" y="490.227952" style="fill: #4c72b0; stroke: #4c72b0"/>
     <use xlink:href="#mae779408cf" x="254.102478" y="486.129082" style="fill: #4c72b0; stroke: #4c72b0"/>
     <use xlink:href="#mae779408cf" x="256.300602" y="470.670512" style="fill: #4c72b0; stroke: #4c72b0"/>
     <use xlink:href="#mae779408cf" x="258.498727" y="470.998854" style="fill: #4c72b0; stroke: #4c72b0"/>
     <use xlink:href="#mae779408cf" x="260.696852" y="469.454091" style="fill: #4c72b0; stroke: #4c72b0"/>
     <use xlink:href="#mae779408cf" x="262.894976" y="469.698321" style="fill: #4c72b0; stroke: #4c72b0"/>
     <use xlink:href="#mae779408cf" x="265.093101" y="470.151834" style="fill: #4c72b0; stroke: #4c72b0"/>
     <use xlink:href="#mae779408cf" x="267.291225" y="469.059127" style="fill: #4c72b0; stroke: #4c72b0"/>
     <use xlink:href="#mae779408cf" x="269.48935" y="469.050996" style="fill: #4c72b0; stroke: #4c72b0"/>
     <use xlink:href="#mae779408cf" x="271.687474" y="469.490722" style="fill: #4c72b0; stroke: #4c72b0"/>
     <use xlink:href="#mae779408cf" x="273.885599" y="469.191784" style="fill: #4c72b0; stroke: #4c72b0"/>
     <use xlink:href="#mae779408cf" x="276.083724" y="470.938387" style="fill: #4c72b0; stroke: #4c72b0"/>
     <use xlink:href="#mae779408cf" x="278.281848" y="470.448245" style="fill: #4c72b0; stroke: #4c72b0"/>
     <use xlink:href="#mae779408cf" x="280.479973" y="470.194466" style="fill: #4c72b0; stroke: #4c72b0"/>
     <use xlink:href="#mae779408cf" x="282.678097" y="469.775309" style="fill: #4c72b0; stroke: #4c72b0"/>
     <use xlink:href="#mae779408cf" x="284.876222" y="469.507619" style="fill: #4c72b0; stroke: #4c72b0"/>
     <use xlink:href="#mae779408cf" x="287.074346" y="469.369473" style="fill: #4c72b0; stroke: #4c72b0"/>
     <use xlink:href="#mae779408cf" x="289.272471" y="468.776854" style="fill: #4c72b0; stroke: #4c72b0"/>
     <use xlink:href="#mae779408cf" x="291.470596" y="469.157833" style="fill: #4c72b0; stroke: #4c72b0"/>
     <use xlink:href="#mae779408cf" x="293.66872" y="469.204234" style="fill: #4c72b0; stroke: #4c72b0"/>
     <use xlink:href="#mae779408cf" x="295.866845" y="468.815916" style="fill: #4c72b0; stroke: #4c72b0"/>
     <use xlink:href="#mae779408cf" x="298.064969" y="468.474049" style="fill: #4c72b0; stroke: #4c72b0"/>
     <use xlink:href="#mae779408cf" x="300.263094" y="468.134158" style="fill: #4c72b0; stroke: #4c72b0"/>
     <use xlink:href="#mae779408cf" x="302.461218" y="467.825841" style="fill: #4c72b0; stroke: #4c72b0"/>
     <use xlink:href="#mae779408cf" x="304.659343" y="467.647913" style="fill: #4c72b0; stroke: #4c72b0"/>
     <use xlink:href="#mae779408cf" x="306.857468" y="467.05625" style="fill: #4c72b0; stroke: #4c72b0"/>
     <use xlink:href="#mae779408cf" x="309.055592" y="466.561438" style="fill: #4c72b0; stroke: #4c72b0"/>
     <use xlink:href="#mae779408cf" x="311.253717" y="467.03327" style="fill: #4c72b0; stroke: #4c72b0"/>
     <use xlink:href="#mae779408cf" x="313.451841" y="465.869551" style="fill: #4c72b0; stroke: #4c72b0"/>
     <use xlink:href="#mae779408cf" x="315.649966" y="464.030242" style="fill: #4c72b0; stroke: #4c72b0"/>
     <use xlink:href="#mae779408cf" x="317.84809" y="464.455787" style="fill: #4c72b0; stroke: #4c72b0"/>
     <use xlink:href="#mae779408cf" x="320.046215" y="462.856767" style="fill: #4c72b0; stroke: #4c72b0"/>
     <use xlink:href="#mae779408cf" x="322.24434" y="461.652634" style="fill: #4c72b0; stroke: #4c72b0"/>
     <use xlink:href="#mae779408cf" x="324.442464" y="461.948915" style="fill: #4c72b0; stroke: #4c72b0"/>
     <use xlink:href="#mae779408cf" x="326.640589" y="461.165203" style="fill: #4c72b0; stroke: #4c72b0"/>
     <use xlink:href="#mae779408cf" x="328.838713" y="460.546935" style="fill: #4c72b0; stroke: #4c72b0"/>
     <use xlink:href="#mae779408cf" x="331.036838" y="459.822642" style="fill: #4c72b0; stroke: #4c72b0"/>
     <use xlink:href="#mae779408cf" x="333.234962" y="459.129449" style="fill: #4c72b0; stroke: #4c72b0"/>
     <use xlink:href="#mae779408cf" x="335.433087" y="455.816089" style="fill: #4c72b0; stroke: #4c72b0"/>
     <use xlink:href="#mae779408cf" x="337.631212" y="485.137379" style="fill: #4c72b0; stroke: #4c72b0"/>
     <use xlink:href="#mae779408cf" x="339.829336" y="485.592971" style="fill: #4c72b0; stroke: #4c72b0"/>
     <use xlink:href="#mae779408cf" x="342.027461" y="486.078912" style="fill: #4c72b0; stroke: #4c72b0"/>
     <use xlink:href="#mae779408cf" x="344.225585" y="486.432197" style="fill: #4c72b0; stroke: #4c72b0"/>
     <use xlink:href="#mae779408cf" x="346.42371" y="484.580048" style="fill: #4c72b0; stroke: #4c72b0"/>
     <use xlink:href="#mae779408cf" x="348.621834" y="471.253127" style="fill: #4c72b0; stroke: #4c72b0"/>
     <use xlink:href="#mae779408cf" x="350.819959" y="471.58018" style="fill: #4c72b0; stroke: #4c72b0"/>
     <use xlink:href="#mae779408cf" x="353.018084" y="471.712627" style="fill: #4c72b0; stroke: #4c72b0"/>
     <use xlink:href="#mae779408cf" x="355.216208" y="436.339741" style="fill: #4c72b0; stroke: #4c72b0"/>
     <use xlink:href="#mae779408cf" x="357.414333" y="429.94482" style="fill: #4c72b0; stroke: #4c72b0"/>
     <use xlink:href="#mae779408cf" x="359.612457" y="429.511465" style="fill: #4c72b0; stroke: #4c72b0"/>
     <use xlink:href="#mae779408cf" x="364.008706" y="479.503677" style="fill: #4c72b0; stroke: #4c72b0"/>
     <use xlink:href="#mae779408cf" x="366.206831" y="479.761938" style="fill: #4c72b0; stroke: #4c72b0"/>
     <use xlink:href="#mae779408cf" x="368.404956" y="479.992022" style="fill: #4c72b0; stroke: #4c72b0"/>
     <use xlink:href="#mae779408cf" x="370.60308" y="480.069197" style="fill: #4c72b0; stroke: #4c72b0"/>
     <use xlink:href="#mae779408cf" x="372.801205" y="479.817254" style="fill: #4c72b0; stroke: #4c72b0"/>
     <use xlink:href="#mae779408cf" x="374.999329" y="479.317554" style="fill: #4c72b0; stroke: #4c72b0"/>
     <use xlink:href="#mae779408cf" x="377.197454" y="479.548474" style="fill: #4c72b0; stroke: #4c72b0"/>
     <use xlink:href="#mae779408cf" x="379.395578" y="479.082808" style="fill: #4c72b0; stroke: #4c72b0"/>
     <use xlink:href="#mae779408cf" x="381.593703" y="479.626638" style="fill: #4c72b0; stroke: #4c72b0"/>
     <use xlink:href="#mae779408cf" x="403.574949" y="472.033107" style="fill: #4c72b0; stroke: #4c72b0"/>
     <use xlink:href="#mae779408cf" x="405.773073" y="471.777819" style="fill: #4c72b0; stroke: #4c72b0"/>
     <use xlink:href="#mae779408cf" x="407.971198" y="471.552708" style="fill: #4c72b0; stroke: #4c72b0"/>
     <use xlink:href="#mae779408cf" x="410.169323" y="471.351968" style="fill: #4c72b0; stroke: #4c72b0"/>
     <use xlink:href="#mae779408cf" x="412.367447" y="471.015863" style="fill: #4c72b0; stroke: #4c72b0"/>
     <use xlink:href="#mae779408cf" x="414.565572" y="470.217818" style="fill: #4c72b0; stroke: #4c72b0"/>
     <use xlink:href="#mae779408cf" x="416.763696" y="469.368435" style="fill: #4c72b0; stroke: #4c72b0"/>
     <use xlink:href="#mae779408cf" x="421.159945" y="467.914207" style="fill: #4c72b0; stroke: #4c72b0"/>
     <use xlink:href="#mae779408cf" x="423.35807" y="467.198426" style="fill: #4c72b0; stroke: #4c72b0"/>
     <use xlink:href="#mae779408cf" x="425.556195" y="466.543171" style="fill: #4c72b0; stroke: #4c72b0"/>
     <use xlink:href="#mae779408cf" x="427.754319" y="466.118134" style="fill: #4c72b0; stroke: #4c72b0"/>
     <use xlink:href="#mae779408cf" x="429.952444" y="465.633558" style="fill: #4c72b0; stroke: #4c72b0"/>
     <use xlink:href="#mae779408cf" x="432.150568" y="465.269389" style="fill: #4c72b0; stroke: #4c72b0"/>
     <use xlink:href="#mae779408cf" x="434.348693" y="464.841705" style="fill: #4c72b0; stroke: #4c72b0"/>
     <use xlink:href="#mae779408cf" x="436.546817" y="464.881715" style="fill: #4c72b0; stroke: #4c72b0"/>
     <use xlink:href="#mae779408cf" x="438.744942" y="463.761625" style="fill: #4c72b0; stroke: #4c72b0"/>
     <use xlink:href="#mae779408cf" x="440.943067" y="463.095946" style="fill: #4c72b0; stroke: #4c72b0"/>
     <use xlink:href="#mae779408cf" x="443.141191" y="463.379038" style="fill: #4c72b0; stroke: #4c72b0"/>
     <use xlink:href="#mae779408cf" x="445.339316" y="463.189161" style="fill: #4c72b0; stroke: #4c72b0"/>
     <use xlink:href="#mae779408cf" x="447.53744" y="462.774332" style="fill: #4c72b0; stroke: #4c72b0"/>
     <use xlink:href="#mae779408cf" x="449.735565" y="463.122901" style="fill: #4c72b0; stroke: #4c72b0"/>
     <use xlink:href="#mae779408cf" x="451.933689" y="463.031928" style="fill: #4c72b0; stroke: #4c72b0"/>
     <use xlink:href="#mae779408cf" x="454.131814" y="460.153463" style="fill: #4c72b0; stroke: #4c72b0"/>
     <use xlink:href="#mae779408cf" x="456.329939" y="460.190016" style="fill: #4c72b0; stroke: #4c72b0"/>
     <use xlink:href="#mae779408cf" x="458.528063" y="460.236554" style="fill: #4c72b0; stroke: #4c72b0"/>
     <use xlink:href="#mae779408cf" x="460.726188" y="460.055161" style="fill: #4c72b0; stroke: #4c72b0"/>
     <use xlink:href="#mae779408cf" x="462.924312" y="459.475896" style="fill: #4c72b0; stroke: #4c72b0"/>
     <use xlink:href="#mae779408cf" x="465.122437" y="460.582002" style="fill: #4c72b0; stroke: #4c72b0"/>
     <use xlink:href="#mae779408cf" x="467.320561" y="467.07184" style="fill: #4c72b0; stroke: #4c72b0"/>
     <use xlink:href="#mae779408cf" x="469.518686" y="466.794463" style="fill: #4c72b0; stroke: #4c72b0"/>
     <use xlink:href="#mae779408cf" x="471.716811" y="466.15582" style="fill: #4c72b0; stroke: #4c72b0"/>
     <use xlink:href="#mae779408cf" x="473.914935" y="466.656381" style="fill: #4c72b0; stroke: #4c72b0"/>
     <use xlink:href="#mae779408cf" x="476.11306" y="467.368629" style="fill: #4c72b0; stroke: #4c72b0"/>
     <use xlink:href="#mae779408cf" x="482.707433" y="515.134048" style="fill: #4c72b0; stroke: #4c72b0"/>
     <use xlink:href="#mae779408cf" x="484.905558" y="515.1009" style="fill: #4c72b0; stroke: #4c72b0"/>
     <use xlink:href="#mae779408cf" x="487.103683" y="515.595784" style="fill: #4c72b0; stroke: #4c72b0"/>
     <use xlink:href="#mae779408cf" x="489.301807" y="507.450415" style="fill: #4c72b0; stroke: #4c72b0"/>
     <use xlink:href="#mae779408cf" x="491.499932" y="487.058356" style="fill: #4c72b0; stroke: #4c72b0"/>
     <use xlink:href="#mae779408cf" x="493.698056" y="487.766062" style="fill: #4c72b0; stroke: #4c72b0"/>
     <use xlink:href="#mae779408cf" x="495.896181" y="469.179746" style="fill: #4c72b0; stroke: #4c72b0"/>
     <use xlink:href="#mae779408cf" x="498.094305" y="468.456935" style="fill: #4c72b0; stroke: #4c72b0"/>
     <use xlink:href="#mae779408cf" x="500.29243" y="469.217332" style="fill: #4c72b0; stroke: #4c72b0"/>
     <use xlink:href="#mae779408cf" x="502.490555" y="467.92166" style="fill: #4c72b0; stroke: #4c72b0"/>
     <use xlink:href="#mae779408cf" x="504.688679" y="467.783533" style="fill: #4c72b0; stroke: #4c72b0"/>
     <use xlink:href="#mae779408cf" x="506.886804" y="468.22317" style="fill: #4c72b0; stroke: #4c72b0"/>
     <use xlink:href="#mae779408cf" x="509.084928" y="467.996371" style="fill: #4c72b0; stroke: #4c72b0"/>
     <use xlink:href="#mae779408cf" x="511.283053" y="468.177007" style="fill: #4c72b0; stroke: #4c72b0"/>
     <use xlink:href="#mae779408cf" x="513.481177" y="468.378835" style="fill: #4c72b0; stroke: #4c72b0"/>
     <use xlink:href="#mae779408cf" x="515.679302" y="471.164521" style="fill: #4c72b0; stroke: #4c72b0"/>
     <use xlink:href="#mae779408cf" x="517.877427" y="471.318279" style="fill: #4c72b0; stroke: #4c72b0"/>
     <use xlink:href="#mae779408cf" x="520.075551" y="471.178625" style="fill: #4c72b0; stroke: #4c72b0"/>
     <use xlink:href="#mae779408cf" x="522.273676" y="471.200189" style="fill: #4c72b0; stroke: #4c72b0"/>
     <use xlink:href="#mae779408cf" x="524.4718" y="471.295438" style="fill: #4c72b0; stroke: #4c72b0"/>
     <use xlink:href="#mae779408cf" x="526.669925" y="471.536946" style="fill: #4c72b0; stroke: #4c72b0"/>
     <use xlink:href="#mae779408cf" x="528.868049" y="471.666585" style="fill: #4c72b0; stroke: #4c72b0"/>
     <use xlink:href="#mae779408cf" x="531.066174" y="472.050333" style="fill: #4c72b0; stroke: #4c72b0"/>
     <use xlink:href="#mae779408cf" x="533.264299" y="472.062134" style="fill: #4c72b0; stroke: #4c72b0"/>
     <use xlink:href="#mae779408cf" x="535.462423" y="472.528529" style="fill: #4c72b0; stroke: #4c72b0"/>
     <use xlink:href="#mae779408cf" x="537.660548" y="472.247111" style="fill: #4c72b0; stroke: #4c72b0"/>
     <use xlink:href="#mae779408cf" x="539.858672" y="472.119761" style="fill: #4c72b0; stroke: #4c72b0"/>
     <use xlink:href="#mae779408cf" x="542.056797" y="471.618289" style="fill: #4c72b0; stroke: #4c72b0"/>
     <use xlink:href="#mae779408cf" x="544.254921" y="471.104725" style="fill: #4c72b0; stroke: #4c72b0"/>
     <use xlink:href="#mae779408cf" x="546.453046" y="470.883574" style="fill: #4c72b0; stroke: #4c72b0"/>
     <use xlink:href="#mae779408cf" x="548.651171" y="470.161363" style="fill: #4c72b0; stroke: #4c72b0"/>
     <use xlink:href="#mae779408cf" x="550.849295" y="469.392834" style="fill: #4c72b0; stroke: #4c72b0"/>
     <use xlink:href="#mae779408cf" x="553.04742" y="468.808937" style="fill: #4c72b0; stroke: #4c72b0"/>
     <use xlink:href="#mae779408cf" x="555.245544" y="469.151702" style="fill: #4c72b0; stroke: #4c72b0"/>
     <use xlink:href="#mae779408cf" x="557.443669" y="468.023876" style="fill: #4c72b0; stroke: #4c72b0"/>
     <use xlink:href="#mae779408cf" x="559.641793" y="467.569032" style="fill: #4c72b0; stroke: #4c72b0"/>
     <use xlink:href="#mae779408cf" x="561.839918" y="466.947393" style="fill: #4c72b0; stroke: #4c72b0"/>
     <use xlink:href="#mae779408cf" x="564.038043" y="459.85524" style="fill: #4c72b0; stroke: #4c72b0"/>
     <use xlink:href="#mae779408cf" x="566.236167" y="455.75413" style="fill: #4c72b0; stroke: #4c72b0"/>
     <use xlink:href="#mae779408cf" x="568.434292" y="454.847226" style="fill: #4c72b0; stroke: #4c72b0"/>
     <use xlink:href="#mae779408cf" x="570.632416" y="454.052915" style="fill: #4c72b0; stroke: #4c72b0"/>
     <use xlink:href="#mae779408cf" x="572.830541" y="453.507556" style="fill: #4c72b0; stroke: #4c72b0"/>
     <use xlink:href="#mae779408cf" x="575.028666" y="452.967471" style="fill: #4c72b0; stroke: #4c72b0"/>
     <use xlink:href="#mae779408cf" x="577.22679" y="453.240289" style="fill: #4c72b0; stroke: #4c72b0"/>
     <use xlink:href="#mae779408cf" x="579.424915" y="452.252309" style="fill: #4c72b0; stroke: #4c72b0"/>
     <use xlink:href="#mae779408cf" x="581.623039" y="452.707467" style="fill: #4c72b0; stroke: #4c72b0"/>
     <use xlink:href="#mae779408cf" x="583.821164" y="450.360378" style="fill: #4c72b0; stroke: #4c72b0"/>
     <use xlink:href="#mae779408cf" x="586.019288" y="449.970422" style="fill: #4c72b0; stroke: #4c72b0"/>
     <use xlink:href="#mae779408cf" x="588.217413" y="435.390533" style="fill: #4c72b0; stroke: #4c72b0"/>
     <use xlink:href="#mae779408cf" x="590.415538" y="435.371316" style="fill: #4c72b0; stroke: #4c72b0"/>
     <use xlink:href="#mae779408cf" x="592.613662" y="434.408003" style="fill: #4c72b0; stroke: #4c72b0"/>
     <use xlink:href="#mae779408cf" x="594.811787" y="434.108471" style="fill: #4c72b0; stroke: #4c72b0"/>
     <use xlink:href="#mae779408cf" x="599.208036" y="487.123117" style="fill: #4c72b0; stroke: #4c72b0"/>
     <use xlink:href="#mae779408cf" x="601.40616" y="485.806441" style="fill: #4c72b0; stroke: #4c72b0"/>
     <use xlink:href="#mae779408cf" x="603.604285" y="480.148556" style="fill: #4c72b0; stroke: #4c72b0"/>
     <use xlink:href="#mae779408cf" x="605.80241" y="479.694849" style="fill: #4c72b0; stroke: #4c72b0"/>
     <use xlink:href="#mae779408cf" x="608.000534" y="479.000054" style="fill: #4c72b0; stroke: #4c72b0"/>
     <use xlink:href="#mae779408cf" x="610.198659" y="479.334455" style="fill: #4c72b0; stroke: #4c72b0"/>
     <use xlink:href="#mae779408cf" x="612.396783" y="478.08939" style="fill: #4c72b0; stroke: #4c72b0"/>
     <use xlink:href="#mae779408cf" x="614.594908" y="477.497505" style="fill: #4c72b0; stroke: #4c72b0"/>
     <use xlink:href="#mae779408cf" x="616.793032" y="476.930027" style="fill: #4c72b0; stroke: #4c72b0"/>
     <use xlink:href="#mae779408cf" x="618.991157" y="475.823779" style="fill: #4c72b0; stroke: #4c72b0"/>
     <use xlink:href="#mae779408cf" x="654.16115" y="472.860725" style="fill: #4c72b0; stroke: #4c72b0"/>
     <use xlink:href="#mae779408cf" x="656.359275" y="473.455918" style="fill: #4c72b0; stroke: #4c72b0"/>
     <use xlink:href="#mae779408cf" x="658.557399" y="473.011572" style="fill: #4c72b0; stroke: #4c72b0"/>
     <use xlink:href="#mae779408cf" x="660.755524" y="472.786664" style="fill: #4c72b0; stroke: #4c72b0"/>
     <use xlink:href="#mae779408cf" x="662.953648" y="472.643245" style="fill: #4c72b0; stroke: #4c72b0"/>
     <use xlink:href="#mae779408cf" x="665.151773" y="472.350209" style="fill: #4c72b0; stroke: #4c72b0"/>
     <use xlink:href="#mae779408cf" x="667.349898" y="472.105727" style="fill: #4c72b0; stroke: #4c72b0"/>
     <use xlink:href="#mae779408cf" x="669.548022" y="472.100368" style="fill: #4c72b0; stroke: #4c72b0"/>
     <use xlink:href="#mae779408cf" x="671.746147" y="472.004556" style="fill: #4c72b0; stroke: #4c72b0"/>
     <use xlink:href="#mae779408cf" x="676.142396" y="471.559473" style="fill: #4c72b0; stroke: #4c72b0"/>
     <use xlink:href="#mae779408cf" x="680.538645" y="470.887506" style="fill: #4c72b0; stroke: #4c72b0"/>
     <use xlink:href="#mae779408cf" x="682.73677" y="470.658142" style="fill: #4c72b0; stroke: #4c72b0"/>
     <use xlink:href="#mae779408cf" x="684.934894" y="470.579584" style="fill: #4c72b0; stroke: #4c72b0"/>
     <use xlink:href="#mae779408cf" x="687.133019" y="470.496065" style="fill: #4c72b0; stroke: #4c72b0"/>
     <use xlink:href="#mae779408cf" x="689.331143" y="470.45506" style="fill: #4c72b0; stroke: #4c72b0"/>
     <use xlink:href="#mae779408cf" x="695.925517" y="469.961118" style="fill: #4c72b0; stroke: #4c72b0"/>
     <use xlink:href="#mae779408cf" x="698.123642" y="470.29753" style="fill: #4c72b0; stroke: #4c72b0"/>
     <use xlink:href="#mae779408cf" x="700.321766" y="470.448459" style="fill: #4c72b0; stroke: #4c72b0"/>
     <use xlink:href="#mae779408cf" x="702.519891" y="470.486507" style="fill: #4c72b0; stroke: #4c72b0"/>
     <use xlink:href="#mae779408cf" x="704.718015" y="470.301904" style="fill: #4c72b0; stroke: #4c72b0"/>
     <use xlink:href="#mae779408cf" x="706.91614" y="470.699356" style="fill: #4c72b0; stroke: #4c72b0"/>
     <use xlink:href="#mae779408cf" x="709.114264" y="470.795685" style="fill: #4c72b0; stroke: #4c72b0"/>
     <use xlink:href="#mae779408cf" x="713.510514" y="471.146053" style="fill: #4c72b0; stroke: #4c72b0"/>
     <use xlink:href="#mae779408cf" x="717.906763" y="487.946872" style="fill: #4c72b0; stroke: #4c72b0"/>
     <use xlink:href="#mae779408cf" x="722.303012" y="483.228075" style="fill: #4c72b0; stroke: #4c72b0"/>
     <use xlink:href="#mae779408cf" x="724.501136" y="483.890879" style="fill: #4c72b0; stroke: #4c72b0"/>
     <use xlink:href="#mae779408cf" x="726.699261" y="484.557557" style="fill: #4c72b0; stroke: #4c72b0"/>
     <use xlink:href="#mae779408cf" x="728.897386" y="485.181296" style="fill: #4c72b0; stroke: #4c72b0"/>
     <use xlink:href="#mae779408cf" x="731.09551" y="485.405712" style="fill: #4c72b0; stroke: #4c72b0"/>
     <use xlink:href="#mae779408cf" x="733.293635" y="481.393387" style="fill: #4c72b0; stroke: #4c72b0"/>
     <use xlink:href="#mae779408cf" x="735.491759" y="482.159786" style="fill: #4c72b0; stroke: #4c72b0"/>
     <use xlink:href="#mae779408cf" x="737.689884" y="482.045346" style="fill: #4c72b0; stroke: #4c72b0"/>
     <use xlink:href="#mae779408cf" x="739.888009" y="483.504713" style="fill: #4c72b0; stroke: #4c72b0"/>
     <use xlink:href="#mae779408cf" x="742.086133" y="483.671814" style="fill: #4c72b0; stroke: #4c72b0"/>
     <use xlink:href="#mae779408cf" x="744.284258" y="478.953624" style="fill: #4c72b0; stroke: #4c72b0"/>
     <use xlink:href="#mae779408cf" x="746.482382" y="478.980623" style="fill: #4c72b0; stroke: #4c72b0"/>
     <use xlink:href="#mae779408cf" x="748.680507" y="479.499516" style="fill: #4c72b0; stroke: #4c72b0"/>
     <use xlink:href="#mae779408cf" x="750.878631" y="484.467558" style="fill: #4c72b0; stroke: #4c72b0"/>
     <use xlink:href="#mae779408cf" x="753.076756" y="454.87181" style="fill: #4c72b0; stroke: #4c72b0"/>
     <use xlink:href="#mae779408cf" x="755.274881" y="455.567168" style="fill: #4c72b0; stroke: #4c72b0"/>
     <use xlink:href="#mae779408cf" x="757.473005" y="462.734094" style="fill: #4c72b0; stroke: #4c72b0"/>
     <use xlink:href="#mae779408cf" x="759.67113" y="463.296879" style="fill: #4c72b0; stroke: #4c72b0"/>
     <use xlink:href="#mae779408cf" x="761.869254" y="463.516926" style="fill: #4c72b0; stroke: #4c72b0"/>
     <use xlink:href="#mae779408cf" x="764.067379" y="463.729032" style="fill: #4c72b0; stroke: #4c72b0"/>
     <use xlink:href="#mae779408cf" x="766.265503" y="464.675217" style="fill: #4c72b0; stroke: #4c72b0"/>
     <use xlink:href="#mae779408cf" x="768.463628" y="464.971732" style="fill: #4c72b0; stroke: #4c72b0"/>
     <use xlink:href="#mae779408cf" x="770.661753" y="465.444709" style="fill: #4c72b0; stroke: #4c72b0"/>
     <use xlink:href="#mae779408cf" x="772.859877" y="466.199376" style="fill: #4c72b0; stroke: #4c72b0"/>
     <use xlink:href="#mae779408cf" x="775.058002" y="468.167075" style="fill: #4c72b0; stroke: #4c72b0"/>
     <use xlink:href="#mae779408cf" x="777.256126" y="467.283757" style="fill: #4c72b0; stroke: #4c72b0"/>
     <use xlink:href="#mae779408cf" x="779.454251" y="467.562235" style="fill: #4c72b0; stroke: #4c72b0"/>
     <use xlink:href="#mae779408cf" x="781.652375" y="467.785897" style="fill: #4c72b0; stroke: #4c72b0"/>
     <use xlink:href="#mae779408cf" x="783.8505" y="467.89641" style="fill: #4c72b0; stroke: #4c72b0"/>
     <use xlink:href="#mae779408cf" x="786.048625" y="468.095143" style="fill: #4c72b0; stroke: #4c72b0"/>
     <use xlink:href="#mae779408cf" x="788.246749" y="468.238212" style="fill: #4c72b0; stroke: #4c72b0"/>
     <use xlink:href="#mae779408cf" x="790.444874" y="468.248605" style="fill: #4c72b0; stroke: #4c72b0"/>
     <use xlink:href="#mae779408cf" x="792.642998" y="468.283373" style="fill: #4c72b0; stroke: #4c72b0"/>
     <use xlink:href="#mae779408cf" x="794.841123" y="468.637803" style="fill: #4c72b0; stroke: #4c72b0"/>
     <use xlink:href="#mae779408cf" x="797.039247" y="468.991327" style="fill: #4c72b0; stroke: #4c72b0"/>
     <use xlink:href="#mae779408cf" x="799.237372" y="469.271559" style="fill: #4c72b0; stroke: #4c72b0"/>
     <use xlink:href="#mae779408cf" x="801.435497" y="469.400191" style="fill: #4c72b0; stroke: #4c72b0"/>
     <use xlink:href="#mae779408cf" x="803.633621" y="469.648785" style="fill: #4c72b0; stroke: #4c72b0"/>
     <use xlink:href="#mae779408cf" x="805.831746" y="469.877169" style="fill: #4c72b0; stroke: #4c72b0"/>
     <use xlink:href="#mae779408cf" x="808.02987" y="470.293253" style="fill: #4c72b0; stroke: #4c72b0"/>
     <use xlink:href="#mae779408cf" x="810.227995" y="470.361414" style="fill: #4c72b0; stroke: #4c72b0"/>
     <use xlink:href="#mae779408cf" x="812.426119" y="470.562495" style="fill: #4c72b0; stroke: #4c72b0"/>
     <use xlink:href="#mae779408cf" x="814.624244" y="470.709333" style="fill: #4c72b0; stroke: #4c72b0"/>
     <use xlink:href="#mae779408cf" x="816.822369" y="470.723327" style="fill: #4c72b0; stroke: #4c72b0"/>
     <use xlink:href="#mae779408cf" x="819.020493" y="470.858542" style="fill: #4c72b0; stroke: #4c72b0"/>
     <use xlink:href="#mae779408cf" x="821.218618" y="470.914635" style="fill: #4c72b0; stroke: #4c72b0"/>
     <use xlink:href="#mae779408cf" x="823.416742" y="470.878467" style="fill: #4c72b0; stroke: #4c72b0"/>
     <use xlink:href="#mae779408cf" x="825.614867" y="461.74148" style="fill: #4c72b0; stroke: #4c72b0"/>
    </g>
   </g>
   <g id="patch_18">
    <path d="M 139.8 519.9 
L 139.8 425.207249 
" style="fill: none; stroke: #262626; stroke-width: 1.25; stroke-linejoin: miter; stroke-linecap: square"/>
   </g>
   <g id="patch_19">
    <path d="M 825.614867 519.9 
L 825.614867 425.207249 
" style="fill: none; stroke: #262626; stroke-width: 1.25; stroke-linejoin: miter; stroke-linecap: square"/>
   </g>
   <g id="patch_20">
    <path d="M 139.8 519.9 
L 825.614867 519.9 
" style="fill: none; stroke: #262626; stroke-width: 1.25; stroke-linejoin: miter; stroke-linecap: square"/>
   </g>
   <g id="patch_21">
    <path d="M 139.8 425.207249 
L 825.614867 425.207249 
" style="fill: none; stroke: #262626; stroke-width: 1.25; stroke-linejoin: miter; stroke-linecap: square"/>
   </g>
  </g>
 </g>
 <defs>
  <clipPath id="p69a2cc8db0">
   <rect x="139.8" y="46.266667" width="685.814867" height="94.692751"/>
  </clipPath>
  <clipPath id="pc8cae6a83c">
   <rect x="139.8" y="172.580194" width="685.814867" height="94.692751"/>
  </clipPath>
  <clipPath id="pf03a2ea8eb">
   <rect x="139.8" y="298.893721" width="685.814867" height="94.692751"/>
  </clipPath>
  <clipPath id="p100f48740d">
   <rect x="139.8" y="425.207249" width="685.814867" height="94.692751"/>
  </clipPath>
 </defs>
</svg>
