<?xml version="1.0" encoding="utf-8" standalone="no"?>
<!DOCTYPE svg PUBLIC "-//W3C//DTD SVG 1.1//EN"
  "http://www.w3.org/Graphics/SVG/1.1/DTD/svg11.dtd">
<svg xmlns:xlink="http://www.w3.org/1999/xlink" width="864pt" height="576pt" viewBox="0 0 864 576" xmlns="http://www.w3.org/2000/svg" version="1.1">
 <metadata>
  <rdf:RDF xmlns:dc="http://purl.org/dc/elements/1.1/" xmlns:cc="http://creativecommons.org/ns#" xmlns:rdf="http://www.w3.org/1999/02/22-rdf-syntax-ns#">
   <cc:Work>
    <dc:type rdf:resource="http://purl.org/dc/dcmitype/StillImage"/>
    <dc:date>2023-07-30T23:37:20.143241</dc:date>
    <dc:format>image/svg+xml</dc:format>
    <dc:creator>
     <cc:Agent>
      <dc:title>Matplotlib v3.7.1, https://matplotlib.org/</dc:title>
     </cc:Agent>
    </dc:creator>
   </cc:Work>
  </rdf:RDF>
 </metadata>
 <defs>
  <style type="text/css">*{stroke-linejoin: round; stroke-linecap: butt}</style>
 </defs>
 <g id="figure_1">
  <g id="patch_1">
   <path d="M 0 576 
L 864 576 
L 864 0 
L 0 0 
z
" style="fill: #ffffff"/>
  </g>
  <g id="axes_1">
   <g id="patch_2">
    <path d="M 128.3625 136.057441 
L 827.993674 136.057441 
L 827.993674 46.266667 
L 128.3625 46.266667 
z
" style="fill: #ffffff"/>
   </g>
   <g id="matplotlib.axis_1">
    <g id="xtick_1">
     <g id="line2d_1">
      <defs>
       <path id="md76a144bd8" d="M 0 0 
L 0 6 
" style="stroke: #262626; stroke-width: 1.25"/>
      </defs>
      <g>
       <use xlink:href="#md76a144bd8" x="233.738259" y="136.057441" style="fill: #262626; stroke: #262626; stroke-width: 1.25"/>
      </g>
     </g>
    </g>
    <g id="xtick_2">
     <g id="line2d_2">
      <g>
       <use xlink:href="#md76a144bd8" x="350.290234" y="136.057441" style="fill: #262626; stroke: #262626; stroke-width: 1.25"/>
      </g>
     </g>
    </g>
    <g id="xtick_3">
     <g id="line2d_3">
      <g>
       <use xlink:href="#md76a144bd8" x="466.84221" y="136.057441" style="fill: #262626; stroke: #262626; stroke-width: 1.25"/>
      </g>
     </g>
    </g>
    <g id="xtick_4">
     <g id="line2d_4">
      <g>
       <use xlink:href="#md76a144bd8" x="583.394185" y="136.057441" style="fill: #262626; stroke: #262626; stroke-width: 1.25"/>
      </g>
     </g>
    </g>
    <g id="xtick_5">
     <g id="line2d_5">
      <g>
       <use xlink:href="#md76a144bd8" x="700.265481" y="136.057441" style="fill: #262626; stroke: #262626; stroke-width: 1.25"/>
      </g>
     </g>
    </g>
    <g id="xtick_6">
     <g id="line2d_6">
      <g>
       <use xlink:href="#md76a144bd8" x="816.817457" y="136.057441" style="fill: #262626; stroke: #262626; stroke-width: 1.25"/>
      </g>
     </g>
    </g>
   </g>
   <g id="matplotlib.axis_2">
    <g id="ytick_1">
     <g id="line2d_7">
      <defs>
       <path id="m43a0f09e88" d="M 0 0 
L -6 0 
" style="stroke: #262626; stroke-width: 1.25"/>
      </defs>
      <g>
       <use xlink:href="#m43a0f09e88" x="128.3625" y="131.976042" style="fill: #262626; stroke: #262626; stroke-width: 1.25"/>
      </g>
     </g>
     <g id="text_1">
      <!-- 0 -->
      <g style="fill: #262626" transform="translate(112.745469 135.912839) scale(0.11 -0.11)">
       <defs>
        <path id="ArialMT-30" d="M 266 2259 
Q 266 3072 433 3567 
Q 600 4063 929 4331 
Q 1259 4600 1759 4600 
Q 2128 4600 2406 4451 
Q 2684 4303 2865 4023 
Q 3047 3744 3150 3342 
Q 3253 2941 3253 2259 
Q 3253 1453 3087 958 
Q 2922 463 2592 192 
Q 2263 -78 1759 -78 
Q 1097 -78 719 397 
Q 266 969 266 2259 
z
M 844 2259 
Q 844 1131 1108 757 
Q 1372 384 1759 384 
Q 2147 384 2411 759 
Q 2675 1134 2675 2259 
Q 2675 3391 2411 3762 
Q 2147 4134 1753 4134 
Q 1366 4134 1134 3806 
Q 844 3388 844 2259 
z
" transform="scale(0.015625)"/>
       </defs>
       <use xlink:href="#ArialMT-30"/>
      </g>
     </g>
    </g>
    <g id="ytick_2">
     <g id="line2d_8">
      <g>
       <use xlink:href="#m43a0f09e88" x="128.3625" y="102.448831" style="fill: #262626; stroke: #262626; stroke-width: 1.25"/>
      </g>
     </g>
     <g id="text_2">
      <!-- 2000 -->
      <g style="fill: #262626" transform="translate(94.394375 106.385628) scale(0.11 -0.11)">
       <defs>
        <path id="ArialMT-32" d="M 3222 541 
L 3222 0 
L 194 0 
Q 188 203 259 391 
Q 375 700 629 1000 
Q 884 1300 1366 1694 
Q 2113 2306 2375 2664 
Q 2638 3022 2638 3341 
Q 2638 3675 2398 3904 
Q 2159 4134 1775 4134 
Q 1369 4134 1125 3890 
Q 881 3647 878 3216 
L 300 3275 
Q 359 3922 746 4261 
Q 1134 4600 1788 4600 
Q 2447 4600 2831 4234 
Q 3216 3869 3216 3328 
Q 3216 3053 3103 2787 
Q 2991 2522 2730 2228 
Q 2469 1934 1863 1422 
Q 1356 997 1212 845 
Q 1069 694 975 541 
L 3222 541 
z
" transform="scale(0.015625)"/>
       </defs>
       <use xlink:href="#ArialMT-32"/>
       <use xlink:href="#ArialMT-30" x="55.615234"/>
       <use xlink:href="#ArialMT-30" x="111.230469"/>
       <use xlink:href="#ArialMT-30" x="166.845703"/>
      </g>
     </g>
    </g>
    <g id="ytick_3">
     <g id="line2d_9">
      <g>
       <use xlink:href="#m43a0f09e88" x="128.3625" y="72.921619" style="fill: #262626; stroke: #262626; stroke-width: 1.25"/>
      </g>
     </g>
     <g id="text_3">
      <!-- 4000 -->
      <g style="fill: #262626" transform="translate(94.394375 76.858416) scale(0.11 -0.11)">
       <defs>
        <path id="ArialMT-34" d="M 2069 0 
L 2069 1097 
L 81 1097 
L 81 1613 
L 2172 4581 
L 2631 4581 
L 2631 1613 
L 3250 1613 
L 3250 1097 
L 2631 1097 
L 2631 0 
L 2069 0 
z
M 2069 1613 
L 2069 3678 
L 634 1613 
L 2069 1613 
z
" transform="scale(0.015625)"/>
       </defs>
       <use xlink:href="#ArialMT-34"/>
       <use xlink:href="#ArialMT-30" x="55.615234"/>
       <use xlink:href="#ArialMT-30" x="111.230469"/>
       <use xlink:href="#ArialMT-30" x="166.845703"/>
      </g>
     </g>
    </g>
   </g>
   <g id="line2d_10">
    <path d="M 128.3625 131.916988 
L 150.714934 131.916988 
L 152.950177 131.769352 
L 159.655907 131.710297 
L 166.361637 131.577425 
L 184.243584 131.488843 
L 208.831261 131.14928 
L 211.066505 130.824481 
L 217.772235 130.794954 
L 220.007478 130.278228 
L 231.183695 130.20441 
L 240.124668 131.976042 
L 255.771372 131.902224 
L 260.241859 131.798879 
L 284.829536 131.769352 
L 287.064779 131.562661 
L 289.300022 131.223099 
L 296.005753 131.119753 
L 298.240996 130.809718 
L 302.711483 130.765427 
L 304.946726 130.5735 
L 322.828673 130.20441 
L 342.945863 130.145355 
L 347.41635 130.04201 
L 351.886837 130.027246 
L 356.357323 131.976042 
L 372.004027 131.931752 
L 374.23927 121.257665 
L 396.591704 121.257665 
L 398.826947 120.903338 
L 401.062191 120.903338 
L 405.532678 118.925015 
L 407.767921 118.600215 
L 410.003164 118.098253 
L 414.473651 117.286255 
L 416.708894 116.577601 
L 418.944138 115.544149 
L 421.179381 114.761678 
L 425.649868 113.610117 
L 427.885111 113.270554 
L 436.826085 112.51761 
L 439.061328 110.465469 
L 441.296571 109.993033 
L 445.767058 109.44678 
L 448.002301 107.793256 
L 450.237545 107.379875 
L 452.472788 106.390713 
L 454.708032 105.549188 
L 456.943275 104.855298 
L 459.178518 104.78148 
L 461.413762 104.279518 
L 463.649005 103.644683 
L 468.119492 101.282506 
L 470.354735 100.942943 
L 477.060465 131.902224 
L 479.295709 131.828406 
L 481.530952 131.075462 
L 483.766195 129.894374 
L 486.001439 127.546961 
L 488.236682 127.34027 
L 490.471925 126.085364 
L 492.707169 123.029297 
L 494.942412 124.919039 
L 497.177656 114.52546 
L 499.412899 110.790268 
L 503.883386 107.27653 
L 506.118629 103.201775 
L 508.353872 101.533487 
L 510.589116 99.584691 
L 512.824359 97.060115 
L 515.059603 95.93808 
L 517.294846 94.550302 
L 519.530089 92.586742 
L 521.765333 89.811184 
L 524.000576 88.969658 
L 526.235819 86.430318 
L 528.471063 84.422468 
L 532.941549 81.824073 
L 535.176793 79.890041 
L 537.412036 78.94517 
L 539.64728 73.305473 
L 541.882523 66.927595 
L 544.117766 71.046641 
L 546.35301 69.880316 
L 548.588253 68.477774 
L 550.823496 67.76912 
L 553.05874 66.086069 
L 557.529226 64.772108 
L 559.76447 62.646149 
L 561.999713 61.804624 
L 566.4702 59.398156 
L 568.705443 57.892268 
L 570.940687 57.08027 
L 573.17593 56.844052 
L 575.411173 55.220055 
L 577.646417 55.220055 
L 579.88166 53.802749 
L 582.116904 53.182678 
L 584.352147 52.311625 
L 586.58739 52.296861 
L 588.822634 50.909083 
L 591.057877 50.348066 
L 595.528364 131.725061 
L 597.763607 130.94259 
L 599.99885 129.717211 
L 604.469337 127.546961 
L 606.704581 127.34027 
L 608.939824 126.085364 
L 611.175067 125.184784 
L 613.410311 124.919039 
L 615.645554 123.546023 
L 651.409448 113.728226 
L 660.350421 111.853248 
L 662.585665 111.306994 
L 664.820908 111.129831 
L 667.056151 110.642632 
L 669.291395 110.362123 
L 673.761882 109.550125 
L 678.232368 108.531436 
L 680.467612 108.191873 
L 684.938098 107.040312 
L 687.173342 106.892676 
L 693.879072 105.401552 
L 696.114315 105.165334 
L 700.584802 104.515735 
L 702.820045 104.235227 
L 707.290532 103.954718 
L 711.761019 103.423229 
L 716.231506 131.784116 
L 718.466749 131.518371 
L 720.701992 131.47408 
L 725.172479 131.223099 
L 727.407722 131.164044 
L 729.642966 130.470155 
L 731.878209 130.292991 
L 734.113452 129.87961 
L 736.348696 129.628629 
L 743.054426 128.462304 
L 745.289669 127.945578 
L 751.995399 127.399325 
L 754.230643 127.17787 
L 756.465886 126.690671 
L 760.936373 126.262527 
L 763.171616 125.716274 
L 767.642103 124.96333 
L 772.11259 123.383624 
L 774.347833 123.250751 
L 776.583076 122.719262 
L 778.81832 122.394462 
L 781.053563 121.346246 
L 783.288807 121.03621 
L 789.994537 119.545086 
L 794.465023 118.925015 
L 796.700267 118.363998 
L 803.405997 117.684872 
L 805.64124 117.035273 
L 807.876484 116.799056 
L 810.111727 115.337459 
L 814.582214 114.628805 
L 816.817457 113.757753 
L 821.287944 113.285317 
L 823.523187 112.827646 
L 825.758431 112.709537 
L 827.993674 112.399501 
L 827.993674 112.399501 
" clip-path="url(#p5a81d6669f)" style="fill: none; stroke: #4c72b0; stroke-width: 1.5; stroke-linecap: round"/>
   </g>
   <g id="patch_3">
    <path d="M 128.3625 136.057441 
L 128.3625 46.266667 
" style="fill: none; stroke: #262626; stroke-width: 1.25; stroke-linejoin: miter; stroke-linecap: square"/>
   </g>
   <g id="patch_4">
    <path d="M 827.993674 136.057441 
L 827.993674 46.266667 
" style="fill: none; stroke: #262626; stroke-width: 1.25; stroke-linejoin: miter; stroke-linecap: square"/>
   </g>
   <g id="patch_5">
    <path d="M 128.3625 136.057441 
L 827.993674 136.057441 
" style="fill: none; stroke: #262626; stroke-width: 1.25; stroke-linejoin: miter; stroke-linecap: square"/>
   </g>
   <g id="patch_6">
    <path d="M 128.3625 46.266667 
L 827.993674 46.266667 
" style="fill: none; stroke: #262626; stroke-width: 1.25; stroke-linejoin: miter; stroke-linecap: square"/>
   </g>
   <g id="text_4">
    <!-- Cholera -->
    <g style="fill: #262626" transform="translate(457.167774 40.266667) scale(0.12 -0.12)">
     <defs>
      <path id="ArialMT-43" d="M 3763 1606 
L 4369 1453 
Q 4178 706 3683 314 
Q 3188 -78 2472 -78 
Q 1731 -78 1267 223 
Q 803 525 561 1097 
Q 319 1669 319 2325 
Q 319 3041 592 3573 
Q 866 4106 1370 4382 
Q 1875 4659 2481 4659 
Q 3169 4659 3637 4309 
Q 4106 3959 4291 3325 
L 3694 3184 
Q 3534 3684 3231 3912 
Q 2928 4141 2469 4141 
Q 1941 4141 1586 3887 
Q 1231 3634 1087 3207 
Q 944 2781 944 2328 
Q 944 1744 1114 1308 
Q 1284 872 1643 656 
Q 2003 441 2422 441 
Q 2931 441 3284 734 
Q 3638 1028 3763 1606 
z
" transform="scale(0.015625)"/>
      <path id="ArialMT-68" d="M 422 0 
L 422 4581 
L 984 4581 
L 984 2938 
Q 1378 3394 1978 3394 
Q 2347 3394 2619 3248 
Q 2891 3103 3008 2847 
Q 3125 2591 3125 2103 
L 3125 0 
L 2563 0 
L 2563 2103 
Q 2563 2525 2380 2717 
Q 2197 2909 1863 2909 
Q 1613 2909 1392 2779 
Q 1172 2650 1078 2428 
Q 984 2206 984 1816 
L 984 0 
L 422 0 
z
" transform="scale(0.015625)"/>
      <path id="ArialMT-6f" d="M 213 1659 
Q 213 2581 725 3025 
Q 1153 3394 1769 3394 
Q 2453 3394 2887 2945 
Q 3322 2497 3322 1706 
Q 3322 1066 3130 698 
Q 2938 331 2570 128 
Q 2203 -75 1769 -75 
Q 1072 -75 642 372 
Q 213 819 213 1659 
z
M 791 1659 
Q 791 1022 1069 705 
Q 1347 388 1769 388 
Q 2188 388 2466 706 
Q 2744 1025 2744 1678 
Q 2744 2294 2464 2611 
Q 2184 2928 1769 2928 
Q 1347 2928 1069 2612 
Q 791 2297 791 1659 
z
" transform="scale(0.015625)"/>
      <path id="ArialMT-6c" d="M 409 0 
L 409 4581 
L 972 4581 
L 972 0 
L 409 0 
z
" transform="scale(0.015625)"/>
      <path id="ArialMT-65" d="M 2694 1069 
L 3275 997 
Q 3138 488 2766 206 
Q 2394 -75 1816 -75 
Q 1088 -75 661 373 
Q 234 822 234 1631 
Q 234 2469 665 2931 
Q 1097 3394 1784 3394 
Q 2450 3394 2872 2941 
Q 3294 2488 3294 1666 
Q 3294 1616 3291 1516 
L 816 1516 
Q 847 969 1125 678 
Q 1403 388 1819 388 
Q 2128 388 2347 550 
Q 2566 713 2694 1069 
z
M 847 1978 
L 2700 1978 
Q 2663 2397 2488 2606 
Q 2219 2931 1791 2931 
Q 1403 2931 1139 2672 
Q 875 2413 847 1978 
z
" transform="scale(0.015625)"/>
      <path id="ArialMT-72" d="M 416 0 
L 416 3319 
L 922 3319 
L 922 2816 
Q 1116 3169 1280 3281 
Q 1444 3394 1641 3394 
Q 1925 3394 2219 3213 
L 2025 2691 
Q 1819 2813 1613 2813 
Q 1428 2813 1281 2702 
Q 1134 2591 1072 2394 
Q 978 2094 978 1738 
L 978 0 
L 416 0 
z
" transform="scale(0.015625)"/>
      <path id="ArialMT-61" d="M 2588 409 
Q 2275 144 1986 34 
Q 1697 -75 1366 -75 
Q 819 -75 525 192 
Q 231 459 231 875 
Q 231 1119 342 1320 
Q 453 1522 633 1644 
Q 813 1766 1038 1828 
Q 1203 1872 1538 1913 
Q 2219 1994 2541 2106 
Q 2544 2222 2544 2253 
Q 2544 2597 2384 2738 
Q 2169 2928 1744 2928 
Q 1347 2928 1158 2789 
Q 969 2650 878 2297 
L 328 2372 
Q 403 2725 575 2942 
Q 747 3159 1072 3276 
Q 1397 3394 1825 3394 
Q 2250 3394 2515 3294 
Q 2781 3194 2906 3042 
Q 3031 2891 3081 2659 
Q 3109 2516 3109 2141 
L 3109 1391 
Q 3109 606 3145 398 
Q 3181 191 3288 0 
L 2700 0 
Q 2613 175 2588 409 
z
M 2541 1666 
Q 2234 1541 1622 1453 
Q 1275 1403 1131 1340 
Q 988 1278 909 1158 
Q 831 1038 831 891 
Q 831 666 1001 516 
Q 1172 366 1500 366 
Q 1825 366 2078 508 
Q 2331 650 2450 897 
Q 2541 1088 2541 1459 
L 2541 1666 
z
" transform="scale(0.015625)"/>
     </defs>
     <use xlink:href="#ArialMT-43"/>
     <use xlink:href="#ArialMT-68" x="72.216797"/>
     <use xlink:href="#ArialMT-6f" x="127.832031"/>
     <use xlink:href="#ArialMT-6c" x="183.447266"/>
     <use xlink:href="#ArialMT-65" x="205.664062"/>
     <use xlink:href="#ArialMT-72" x="261.279297"/>
     <use xlink:href="#ArialMT-61" x="294.580078"/>
    </g>
   </g>
  </g>
  <g id="axes_2">
   <g id="patch_7">
    <path d="M 128.3625 264.004961 
L 827.993674 264.004961 
L 827.993674 174.214186 
L 128.3625 174.214186 
z
" style="fill: #ffffff"/>
   </g>
   <g id="matplotlib.axis_3">
    <g id="xtick_7">
     <g id="line2d_11">
      <g>
       <use xlink:href="#md76a144bd8" x="233.738259" y="264.004961" style="fill: #262626; stroke: #262626; stroke-width: 1.25"/>
      </g>
     </g>
    </g>
    <g id="xtick_8">
     <g id="line2d_12">
      <g>
       <use xlink:href="#md76a144bd8" x="350.290234" y="264.004961" style="fill: #262626; stroke: #262626; stroke-width: 1.25"/>
      </g>
     </g>
    </g>
    <g id="xtick_9">
     <g id="line2d_13">
      <g>
       <use xlink:href="#md76a144bd8" x="466.84221" y="264.004961" style="fill: #262626; stroke: #262626; stroke-width: 1.25"/>
      </g>
     </g>
    </g>
    <g id="xtick_10">
     <g id="line2d_14">
      <g>
       <use xlink:href="#md76a144bd8" x="583.394185" y="264.004961" style="fill: #262626; stroke: #262626; stroke-width: 1.25"/>
      </g>
     </g>
    </g>
    <g id="xtick_11">
     <g id="line2d_15">
      <g>
       <use xlink:href="#md76a144bd8" x="700.265481" y="264.004961" style="fill: #262626; stroke: #262626; stroke-width: 1.25"/>
      </g>
     </g>
    </g>
    <g id="xtick_12">
     <g id="line2d_16">
      <g>
       <use xlink:href="#md76a144bd8" x="816.817457" y="264.004961" style="fill: #262626; stroke: #262626; stroke-width: 1.25"/>
      </g>
     </g>
    </g>
   </g>
   <g id="matplotlib.axis_4">
    <g id="ytick_4">
     <g id="line2d_17">
      <g>
       <use xlink:href="#m43a0f09e88" x="128.3625" y="253.754357" style="fill: #262626; stroke: #262626; stroke-width: 1.25"/>
      </g>
     </g>
     <g id="text_5">
      <!-- 0 -->
      <g style="fill: #262626" transform="translate(112.745469 257.691154) scale(0.11 -0.11)">
       <use xlink:href="#ArialMT-30"/>
      </g>
     </g>
    </g>
    <g id="ytick_5">
     <g id="line2d_18">
      <g>
       <use xlink:href="#m43a0f09e88" x="128.3625" y="229.491039" style="fill: #262626; stroke: #262626; stroke-width: 1.25"/>
      </g>
     </g>
     <g id="text_6">
      <!-- 1000 -->
      <g style="fill: #262626" transform="translate(94.394375 233.427836) scale(0.11 -0.11)">
       <defs>
        <path id="ArialMT-31" d="M 2384 0 
L 1822 0 
L 1822 3584 
Q 1619 3391 1289 3197 
Q 959 3003 697 2906 
L 697 3450 
Q 1169 3672 1522 3987 
Q 1875 4303 2022 4600 
L 2384 4600 
L 2384 0 
z
" transform="scale(0.015625)"/>
       </defs>
       <use xlink:href="#ArialMT-31"/>
       <use xlink:href="#ArialMT-30" x="55.615234"/>
       <use xlink:href="#ArialMT-30" x="111.230469"/>
       <use xlink:href="#ArialMT-30" x="166.845703"/>
      </g>
     </g>
    </g>
    <g id="ytick_6">
     <g id="line2d_19">
      <g>
       <use xlink:href="#m43a0f09e88" x="128.3625" y="205.227721" style="fill: #262626; stroke: #262626; stroke-width: 1.25"/>
      </g>
     </g>
     <g id="text_7">
      <!-- 2000 -->
      <g style="fill: #262626" transform="translate(94.394375 209.164518) scale(0.11 -0.11)">
       <use xlink:href="#ArialMT-32"/>
       <use xlink:href="#ArialMT-30" x="55.615234"/>
       <use xlink:href="#ArialMT-30" x="111.230469"/>
       <use xlink:href="#ArialMT-30" x="166.845703"/>
      </g>
     </g>
    </g>
    <g id="ytick_7">
     <g id="line2d_20">
      <g>
       <use xlink:href="#m43a0f09e88" x="128.3625" y="180.964402" style="fill: #262626; stroke: #262626; stroke-width: 1.25"/>
      </g>
     </g>
     <g id="text_8">
      <!-- 3000 -->
      <g style="fill: #262626" transform="translate(94.394375 184.901199) scale(0.11 -0.11)">
       <defs>
        <path id="ArialMT-33" d="M 269 1209 
L 831 1284 
Q 928 806 1161 595 
Q 1394 384 1728 384 
Q 2125 384 2398 659 
Q 2672 934 2672 1341 
Q 2672 1728 2419 1979 
Q 2166 2231 1775 2231 
Q 1616 2231 1378 2169 
L 1441 2663 
Q 1497 2656 1531 2656 
Q 1891 2656 2178 2843 
Q 2466 3031 2466 3422 
Q 2466 3731 2256 3934 
Q 2047 4138 1716 4138 
Q 1388 4138 1169 3931 
Q 950 3725 888 3313 
L 325 3413 
Q 428 3978 793 4289 
Q 1159 4600 1703 4600 
Q 2078 4600 2393 4439 
Q 2709 4278 2876 4000 
Q 3044 3722 3044 3409 
Q 3044 3113 2884 2869 
Q 2725 2625 2413 2481 
Q 2819 2388 3044 2092 
Q 3269 1797 3269 1353 
Q 3269 753 2831 336 
Q 2394 -81 1725 -81 
Q 1122 -81 723 278 
Q 325 638 269 1209 
z
" transform="scale(0.015625)"/>
       </defs>
       <use xlink:href="#ArialMT-33"/>
       <use xlink:href="#ArialMT-30" x="55.615234"/>
       <use xlink:href="#ArialMT-30" x="111.230469"/>
       <use xlink:href="#ArialMT-30" x="166.845703"/>
      </g>
     </g>
    </g>
    <g id="text_9">
     <!-- Trend -->
     <g style="fill: #262626" transform="translate(88.009375 234.556761) rotate(-90) scale(0.12 -0.12)">
      <defs>
       <path id="ArialMT-54" d="M 1659 0 
L 1659 4041 
L 150 4041 
L 150 4581 
L 3781 4581 
L 3781 4041 
L 2266 4041 
L 2266 0 
L 1659 0 
z
" transform="scale(0.015625)"/>
       <path id="ArialMT-6e" d="M 422 0 
L 422 3319 
L 928 3319 
L 928 2847 
Q 1294 3394 1984 3394 
Q 2284 3394 2536 3286 
Q 2788 3178 2913 3003 
Q 3038 2828 3088 2588 
Q 3119 2431 3119 2041 
L 3119 0 
L 2556 0 
L 2556 2019 
Q 2556 2363 2490 2533 
Q 2425 2703 2258 2804 
Q 2091 2906 1866 2906 
Q 1506 2906 1245 2678 
Q 984 2450 984 1813 
L 984 0 
L 422 0 
z
" transform="scale(0.015625)"/>
       <path id="ArialMT-64" d="M 2575 0 
L 2575 419 
Q 2259 -75 1647 -75 
Q 1250 -75 917 144 
Q 584 363 401 755 
Q 219 1147 219 1656 
Q 219 2153 384 2558 
Q 550 2963 881 3178 
Q 1213 3394 1622 3394 
Q 1922 3394 2156 3267 
Q 2391 3141 2538 2938 
L 2538 4581 
L 3097 4581 
L 3097 0 
L 2575 0 
z
M 797 1656 
Q 797 1019 1065 703 
Q 1334 388 1700 388 
Q 2069 388 2326 689 
Q 2584 991 2584 1609 
Q 2584 2291 2321 2609 
Q 2059 2928 1675 2928 
Q 1300 2928 1048 2622 
Q 797 2316 797 1656 
z
" transform="scale(0.015625)"/>
      </defs>
      <use xlink:href="#ArialMT-54"/>
      <use xlink:href="#ArialMT-72" x="57.333984"/>
      <use xlink:href="#ArialMT-65" x="90.634766"/>
      <use xlink:href="#ArialMT-6e" x="146.25"/>
      <use xlink:href="#ArialMT-64" x="201.865234"/>
     </g>
    </g>
   </g>
   <g id="line2d_21">
    <path d="M 128.3625 259.923562 
L 139.538717 258.84769 
L 146.244447 258.436223 
L 166.361637 256.721057 
L 188.714071 255.058663 
L 215.536991 253.314365 
L 231.183695 252.423806 
L 244.595155 252.37165 
L 278.123806 252.735839 
L 287.064779 252.507126 
L 296.005753 252.039168 
L 304.946726 251.309009 
L 313.887699 250.309953 
L 322.828673 249.051604 
L 331.769646 247.553453 
L 340.71062 245.835752 
L 349.651593 243.916617 
L 351.886837 243.409092 
L 356.357323 242.894353 
L 374.23927 238.737201 
L 396.591704 238.218368 
L 410.003164 234.985218 
L 414.473651 234.411738 
L 423.414624 231.975504 
L 432.355598 229.27762 
L 441.296571 226.2913 
L 448.002301 223.843505 
L 454.708032 221.199563 
L 461.413762 218.341428 
L 468.119492 215.244421 
L 470.354735 214.15561 
L 477.060465 213.038238 
L 483.766195 209.517131 
L 490.471925 205.744178 
L 497.177656 201.721484 
L 515.059603 190.778675 
L 519.530089 188.321535 
L 524.000576 186.082758 
L 528.471063 184.097301 
L 532.941549 182.389516 
L 537.412036 180.974195 
L 541.882523 179.85791 
L 546.35301 179.041613 
L 550.823496 178.523189 
L 555.293983 178.29888 
L 559.76447 178.363947 
L 564.234957 178.712074 
L 568.705443 179.33597 
L 573.17593 180.233067 
L 577.646417 181.402669 
L 582.116904 182.837755 
L 586.58739 184.525906 
L 591.057877 186.462061 
L 595.528364 187.524516 
L 599.99885 189.841709 
L 604.469337 192.413656 
L 608.939824 195.220337 
L 615.645554 199.778453 
L 651.409448 201.363173 
L 669.291395 214.134051 
L 678.232368 217.099906 
L 682.702855 219.88151 
L 687.173342 222.443926 
L 693.879072 223.634043 
L 698.349559 225.818378 
L 702.820045 227.73065 
L 707.290532 229.36924 
L 716.231506 230.747733 
L 720.701992 231.893547 
L 725.172479 232.843201 
L 738.583939 233.950238 
L 756.465886 235.419347 
L 769.877346 236.257677 
L 783.288807 236.862198 
L 798.93551 237.349993 
L 821.287944 237.811864 
L 827.993674 237.918713 
L 827.993674 237.918713 
" clip-path="url(#pc9fc37474b)" style="fill: none; stroke: #4c72b0; stroke-width: 1.5; stroke-linecap: round"/>
   </g>
   <g id="patch_8">
    <path d="M 128.3625 264.004961 
L 128.3625 174.214186 
" style="fill: none; stroke: #262626; stroke-width: 1.25; stroke-linejoin: miter; stroke-linecap: square"/>
   </g>
   <g id="patch_9">
    <path d="M 827.993674 264.004961 
L 827.993674 174.214186 
" style="fill: none; stroke: #262626; stroke-width: 1.25; stroke-linejoin: miter; stroke-linecap: square"/>
   </g>
   <g id="patch_10">
    <path d="M 128.3625 264.004961 
L 827.993674 264.004961 
" style="fill: none; stroke: #262626; stroke-width: 1.25; stroke-linejoin: miter; stroke-linecap: square"/>
   </g>
   <g id="patch_11">
    <path d="M 128.3625 174.214186 
L 827.993674 174.214186 
" style="fill: none; stroke: #262626; stroke-width: 1.25; stroke-linejoin: miter; stroke-linecap: square"/>
   </g>
  </g>
  <g id="axes_3">
   <g id="patch_12">
    <path d="M 128.3625 391.95248 
L 827.993674 391.95248 
L 827.993674 302.161706 
L 128.3625 302.161706 
z
" style="fill: #ffffff"/>
   </g>
   <g id="matplotlib.axis_5">
    <g id="xtick_13">
     <g id="line2d_22">
      <g>
       <use xlink:href="#md76a144bd8" x="233.738259" y="391.95248" style="fill: #262626; stroke: #262626; stroke-width: 1.25"/>
      </g>
     </g>
    </g>
    <g id="xtick_14">
     <g id="line2d_23">
      <g>
       <use xlink:href="#md76a144bd8" x="350.290234" y="391.95248" style="fill: #262626; stroke: #262626; stroke-width: 1.25"/>
      </g>
     </g>
    </g>
    <g id="xtick_15">
     <g id="line2d_24">
      <g>
       <use xlink:href="#md76a144bd8" x="466.84221" y="391.95248" style="fill: #262626; stroke: #262626; stroke-width: 1.25"/>
      </g>
     </g>
    </g>
    <g id="xtick_16">
     <g id="line2d_25">
      <g>
       <use xlink:href="#md76a144bd8" x="583.394185" y="391.95248" style="fill: #262626; stroke: #262626; stroke-width: 1.25"/>
      </g>
     </g>
    </g>
    <g id="xtick_17">
     <g id="line2d_26">
      <g>
       <use xlink:href="#md76a144bd8" x="700.265481" y="391.95248" style="fill: #262626; stroke: #262626; stroke-width: 1.25"/>
      </g>
     </g>
    </g>
    <g id="xtick_18">
     <g id="line2d_27">
      <g>
       <use xlink:href="#md76a144bd8" x="816.817457" y="391.95248" style="fill: #262626; stroke: #262626; stroke-width: 1.25"/>
      </g>
     </g>
    </g>
   </g>
   <g id="matplotlib.axis_6">
    <g id="ytick_8">
     <g id="line2d_28">
      <g>
       <use xlink:href="#m43a0f09e88" x="128.3625" y="371.813724" style="fill: #262626; stroke: #262626; stroke-width: 1.25"/>
      </g>
     </g>
     <g id="text_10">
      <!-- −1000 -->
      <g style="fill: #262626" transform="translate(87.969687 375.750521) scale(0.11 -0.11)">
       <defs>
        <path id="ArialMT-2212" d="M 3381 1997 
L 356 1997 
L 356 2522 
L 3381 2522 
L 3381 1997 
z
" transform="scale(0.015625)"/>
       </defs>
       <use xlink:href="#ArialMT-2212"/>
       <use xlink:href="#ArialMT-31" x="58.398438"/>
       <use xlink:href="#ArialMT-30" x="114.013672"/>
       <use xlink:href="#ArialMT-30" x="169.628906"/>
       <use xlink:href="#ArialMT-30" x="225.244141"/>
      </g>
     </g>
    </g>
    <g id="ytick_9">
     <g id="line2d_29">
      <g>
       <use xlink:href="#m43a0f09e88" x="128.3625" y="337.375825" style="fill: #262626; stroke: #262626; stroke-width: 1.25"/>
      </g>
     </g>
     <g id="text_11">
      <!-- 0 -->
      <g style="fill: #262626" transform="translate(112.745469 341.312622) scale(0.11 -0.11)">
       <use xlink:href="#ArialMT-30"/>
      </g>
     </g>
    </g>
    <g id="ytick_10">
     <g id="line2d_30">
      <g>
       <use xlink:href="#m43a0f09e88" x="128.3625" y="302.937925" style="fill: #262626; stroke: #262626; stroke-width: 1.25"/>
      </g>
     </g>
     <g id="text_12">
      <!-- 1000 -->
      <g style="fill: #262626" transform="translate(94.394375 306.874722) scale(0.11 -0.11)">
       <use xlink:href="#ArialMT-31"/>
       <use xlink:href="#ArialMT-30" x="55.615234"/>
       <use xlink:href="#ArialMT-30" x="111.230469"/>
       <use xlink:href="#ArialMT-30" x="166.845703"/>
      </g>
     </g>
    </g>
    <g id="text_13">
     <!-- Season -->
     <g style="fill: #262626" transform="translate(81.584687 367.405531) rotate(-90) scale(0.12 -0.12)">
      <defs>
       <path id="ArialMT-53" d="M 288 1472 
L 859 1522 
Q 900 1178 1048 958 
Q 1197 738 1509 602 
Q 1822 466 2213 466 
Q 2559 466 2825 569 
Q 3091 672 3220 851 
Q 3350 1031 3350 1244 
Q 3350 1459 3225 1620 
Q 3100 1781 2813 1891 
Q 2628 1963 1997 2114 
Q 1366 2266 1113 2400 
Q 784 2572 623 2826 
Q 463 3081 463 3397 
Q 463 3744 659 4045 
Q 856 4347 1234 4503 
Q 1613 4659 2075 4659 
Q 2584 4659 2973 4495 
Q 3363 4331 3572 4012 
Q 3781 3694 3797 3291 
L 3216 3247 
Q 3169 3681 2898 3903 
Q 2628 4125 2100 4125 
Q 1550 4125 1298 3923 
Q 1047 3722 1047 3438 
Q 1047 3191 1225 3031 
Q 1400 2872 2139 2705 
Q 2878 2538 3153 2413 
Q 3553 2228 3743 1945 
Q 3934 1663 3934 1294 
Q 3934 928 3725 604 
Q 3516 281 3123 101 
Q 2731 -78 2241 -78 
Q 1619 -78 1198 103 
Q 778 284 539 648 
Q 300 1013 288 1472 
z
" transform="scale(0.015625)"/>
       <path id="ArialMT-73" d="M 197 991 
L 753 1078 
Q 800 744 1014 566 
Q 1228 388 1613 388 
Q 2000 388 2187 545 
Q 2375 703 2375 916 
Q 2375 1106 2209 1216 
Q 2094 1291 1634 1406 
Q 1016 1563 777 1677 
Q 538 1791 414 1992 
Q 291 2194 291 2438 
Q 291 2659 392 2848 
Q 494 3038 669 3163 
Q 800 3259 1026 3326 
Q 1253 3394 1513 3394 
Q 1903 3394 2198 3281 
Q 2494 3169 2634 2976 
Q 2775 2784 2828 2463 
L 2278 2388 
Q 2241 2644 2061 2787 
Q 1881 2931 1553 2931 
Q 1166 2931 1000 2803 
Q 834 2675 834 2503 
Q 834 2394 903 2306 
Q 972 2216 1119 2156 
Q 1203 2125 1616 2013 
Q 2213 1853 2448 1751 
Q 2684 1650 2818 1456 
Q 2953 1263 2953 975 
Q 2953 694 2789 445 
Q 2625 197 2315 61 
Q 2006 -75 1616 -75 
Q 969 -75 630 194 
Q 291 463 197 991 
z
" transform="scale(0.015625)"/>
      </defs>
      <use xlink:href="#ArialMT-53"/>
      <use xlink:href="#ArialMT-65" x="66.699219"/>
      <use xlink:href="#ArialMT-61" x="122.314453"/>
      <use xlink:href="#ArialMT-73" x="177.929688"/>
      <use xlink:href="#ArialMT-6f" x="227.929688"/>
      <use xlink:href="#ArialMT-6e" x="283.544922"/>
     </g>
    </g>
   </g>
   <g id="line2d_31">
    <path d="M 128.3625 319.689172 
L 132.832987 321.751475 
L 135.06823 321.655176 
L 137.303473 324.24223 
L 139.538717 325.475129 
L 144.009204 326.098522 
L 146.244447 326.738202 
L 148.47969 328.071833 
L 150.714934 328.097963 
L 152.950177 328.577082 
L 155.18542 329.365071 
L 161.891151 330.745354 
L 164.126394 331.596592 
L 166.361637 331.934595 
L 170.832124 333.436763 
L 173.067367 333.81333 
L 175.302611 334.027945 
L 177.537854 334.705706 
L 179.773097 335.221478 
L 182.008341 336.72226 
L 184.243584 338.47694 
L 186.478828 337.836464 
L 190.949314 339.070374 
L 193.184558 339.28214 
L 195.419801 339.644428 
L 199.890288 340.810206 
L 202.125531 337.466151 
L 204.360774 338.113599 
L 206.596018 338.578252 
L 208.831261 339.235033 
L 211.066505 339.495845 
L 217.772235 341.638795 
L 220.007478 341.245891 
L 224.477965 342.789842 
L 226.713208 349.235881 
L 231.183695 350.677055 
L 240.124668 354.16101 
L 242.359912 335.25439 
L 244.595155 340.818094 
L 246.830398 341.940854 
L 249.065642 341.771836 
L 251.300885 342.554437 
L 253.536129 340.927582 
L 255.771372 340.61686 
L 260.241859 340.704765 
L 262.477102 340.325301 
L 264.712345 335.10949 
L 266.947589 335.023091 
L 269.182832 334.788118 
L 271.418075 334.939136 
L 273.653319 334.61179 
L 275.888562 334.10576 
L 278.123806 333.827261 
L 280.359049 333.788785 
L 282.594292 333.329374 
L 284.829536 333.016768 
L 289.300022 332.078543 
L 291.535266 331.806953 
L 293.770509 331.748537 
L 296.005753 330.846693 
L 298.240996 329.712022 
L 300.476239 330.804416 
L 304.946726 330.873705 
L 307.181969 330.146042 
L 309.417213 329.797355 
L 313.887699 330.141923 
L 316.122943 329.671544 
L 318.358186 329.768531 
L 320.59343 329.436134 
L 322.828673 329.268144 
L 325.063916 328.833508 
L 329.534403 329.294997 
L 331.769646 329.165309 
L 334.00489 328.621911 
L 336.240133 328.297332 
L 338.475377 328.521034 
L 340.71062 343.924753 
L 342.945863 344.411574 
L 345.181107 344.169941 
L 347.41635 345.614263 
L 349.651593 360.61743 
L 351.886837 363.566069 
L 356.357323 364.389436 
L 358.592567 362.87613 
L 360.82781 364.296653 
L 363.063054 358.54319 
L 365.298297 356.559443 
L 367.53354 355.78545 
L 369.768784 355.209377 
L 372.004027 352.98219 
L 374.23927 343.068959 
L 396.591704 342.291825 
L 398.826947 340.976474 
L 401.062191 340.673149 
L 403.297434 339.559632 
L 407.767921 336.620071 
L 410.003164 336.122994 
L 414.473651 334.455053 
L 418.944138 331.642074 
L 421.179381 330.499395 
L 423.414624 329.225409 
L 425.649868 328.533494 
L 427.885111 325.265565 
L 430.120355 321.179055 
L 432.355598 323.814887 
L 434.590841 323.25238 
L 436.826085 322.543969 
L 439.061328 321.01891 
L 441.296571 319.930098 
L 443.531815 319.705164 
L 445.767058 319.292611 
L 448.002301 323.814218 
L 450.237545 323.309809 
L 456.943275 320.112963 
L 461.413762 319.599305 
L 463.649005 318.492279 
L 465.884248 317.797594 
L 468.119492 316.423605 
L 470.354735 316.034666 
L 477.060465 336.44447 
L 479.295709 336.587719 
L 481.530952 335.341891 
L 483.766195 334.855692 
L 486.001439 382.149205 
L 488.236682 381.730782 
L 490.471925 381.501856 
L 492.707169 378.944403 
L 494.942412 379.699919 
L 497.177656 372.739994 
L 499.412899 369.541027 
L 501.648142 367.897999 
L 503.883386 366.625623 
L 506.118629 363.048402 
L 508.353872 349.618008 
L 510.589116 348.146884 
L 512.824359 346.017599 
L 515.059603 344.970502 
L 517.294846 342.991863 
L 521.765333 338.565491 
L 524.000576 337.361285 
L 528.471063 332.685352 
L 530.706306 330.506464 
L 532.941549 328.809909 
L 535.176793 326.809302 
L 537.412036 325.465956 
L 539.64728 321.374962 
L 541.882523 315.904097 
L 544.117766 318.366668 
L 546.35301 316.933662 
L 548.588253 315.677449 
L 550.823496 313.768975 
L 553.05874 312.115938 
L 555.293983 311.445815 
L 557.529226 310.487835 
L 559.76447 324.967273 
L 561.999713 324.03397 
L 564.234957 322.59146 
L 566.4702 326.442045 
L 568.705443 324.820358 
L 570.940687 324.166849 
L 573.17593 323.130189 
L 575.411173 321.458446 
L 577.646417 320.457248 
L 579.88166 318.565867 
L 582.116904 317.52926 
L 584.352147 331.453994 
L 586.58739 330.956708 
L 588.822634 328.956237 
L 591.057877 327.70987 
L 595.528364 385.775393 
L 597.763607 384.72176 
L 599.99885 383.194546 
L 602.234094 380.299546 
L 604.469337 379.999779 
L 606.704581 374.326433 
L 608.939824 370.837616 
L 611.175067 368.735807 
L 613.410311 367.034235 
L 615.645554 363.078374 
L 651.409448 351.95387 
L 653.644691 350.241979 
L 655.879935 347.863278 
L 658.115178 346.284104 
L 660.350421 343.741112 
L 662.585665 341.561743 
L 664.820908 339.192626 
L 667.056151 337.512868 
L 669.291395 335.124225 
L 678.232368 330.542596 
L 682.702855 326.613237 
L 684.938098 325.059676 
L 687.173342 321.600196 
L 693.879072 316.439963 
L 696.114315 317.683783 
L 698.349559 315.161899 
L 702.820045 312.064538 
L 705.055289 309.993294 
L 707.290532 309.026572 
L 711.761019 307.778303 
L 716.231506 326.504318 
L 718.466749 325.468427 
L 720.701992 324.128425 
L 722.937236 331.838238 
L 725.172479 329.636692 
L 727.407722 328.429896 
L 729.642966 326.576368 
L 731.878209 324.245845 
L 734.113452 322.920405 
L 736.348696 320.477436 
L 738.583939 318.674642 
L 740.819183 322.101533 
L 743.054426 320.822706 
L 745.289669 317.947969 
L 747.524913 316.040665 
L 749.760156 387.871082 
L 751.995399 386.013165 
L 756.465886 380.009411 
L 758.70113 378.203328 
L 760.936373 374.909036 
L 763.171616 371.352563 
L 765.40686 368.779452 
L 767.642103 366.667249 
L 769.877346 362.585141 
L 772.11259 353.653981 
L 774.347833 351.752703 
L 776.583076 349.247285 
L 778.81832 347.08382 
L 781.053563 343.955203 
L 783.288807 341.901193 
L 787.759293 337.33733 
L 792.22978 332.809903 
L 794.465023 330.538981 
L 798.93551 326.5125 
L 801.170753 324.760251 
L 803.405997 322.541212 
L 805.64124 318.314303 
L 807.876484 317.753638 
L 810.111727 314.161943 
L 812.34697 312.38442 
L 814.582214 311.29295 
L 816.817457 308.947783 
L 819.0527 307.730908 
L 821.287944 306.243105 
L 823.523187 330.48463 
L 827.993674 328.388539 
L 827.993674 328.388539 
" clip-path="url(#pec85cdf83e)" style="fill: none; stroke: #4c72b0; stroke-width: 1.5; stroke-linecap: round"/>
   </g>
   <g id="patch_13">
    <path d="M 128.3625 391.95248 
L 128.3625 302.161706 
" style="fill: none; stroke: #262626; stroke-width: 1.25; stroke-linejoin: miter; stroke-linecap: square"/>
   </g>
   <g id="patch_14">
    <path d="M 827.993674 391.95248 
L 827.993674 302.161706 
" style="fill: none; stroke: #262626; stroke-width: 1.25; stroke-linejoin: miter; stroke-linecap: square"/>
   </g>
   <g id="patch_15">
    <path d="M 128.3625 391.95248 
L 827.993674 391.95248 
" style="fill: none; stroke: #262626; stroke-width: 1.25; stroke-linejoin: miter; stroke-linecap: square"/>
   </g>
   <g id="patch_16">
    <path d="M 128.3625 302.161706 
L 827.993674 302.161706 
" style="fill: none; stroke: #262626; stroke-width: 1.25; stroke-linejoin: miter; stroke-linecap: square"/>
   </g>
  </g>
  <g id="axes_4">
   <g id="patch_17">
    <path d="M 128.3625 519.9 
L 827.993674 519.9 
L 827.993674 430.109225 
L 128.3625 430.109225 
z
" style="fill: #ffffff"/>
   </g>
   <g id="line2d_32">
    <path d="M 128.3625 481.762489 
L 827.993674 481.762489 
" clip-path="url(#p57ccfa2e5b)" style="fill: none; stroke: #000000; stroke-width: 1.5; stroke-linecap: round"/>
   </g>
   <g id="matplotlib.axis_7">
    <g id="xtick_19">
     <g id="line2d_33">
      <g>
       <use xlink:href="#md76a144bd8" x="233.738259" y="519.9" style="fill: #262626; stroke: #262626; stroke-width: 1.25"/>
      </g>
     </g>
     <g id="text_14">
      <!-- 2017 -->
      <g style="fill: #262626" transform="translate(221.504196 537.273594) scale(0.11 -0.11)">
       <defs>
        <path id="ArialMT-37" d="M 303 3981 
L 303 4522 
L 3269 4522 
L 3269 4084 
Q 2831 3619 2401 2847 
Q 1972 2075 1738 1259 
Q 1569 684 1522 0 
L 944 0 
Q 953 541 1156 1306 
Q 1359 2072 1739 2783 
Q 2119 3494 2547 3981 
L 303 3981 
z
" transform="scale(0.015625)"/>
       </defs>
       <use xlink:href="#ArialMT-32"/>
       <use xlink:href="#ArialMT-30" x="55.615234"/>
       <use xlink:href="#ArialMT-31" x="111.230469"/>
       <use xlink:href="#ArialMT-37" x="166.845703"/>
      </g>
     </g>
    </g>
    <g id="xtick_20">
     <g id="line2d_34">
      <g>
       <use xlink:href="#md76a144bd8" x="350.290234" y="519.9" style="fill: #262626; stroke: #262626; stroke-width: 1.25"/>
      </g>
     </g>
     <g id="text_15">
      <!-- 2018 -->
      <g style="fill: #262626" transform="translate(338.056172 537.273594) scale(0.11 -0.11)">
       <defs>
        <path id="ArialMT-38" d="M 1131 2484 
Q 781 2613 612 2850 
Q 444 3088 444 3419 
Q 444 3919 803 4259 
Q 1163 4600 1759 4600 
Q 2359 4600 2725 4251 
Q 3091 3903 3091 3403 
Q 3091 3084 2923 2848 
Q 2756 2613 2416 2484 
Q 2838 2347 3058 2040 
Q 3278 1734 3278 1309 
Q 3278 722 2862 322 
Q 2447 -78 1769 -78 
Q 1091 -78 675 323 
Q 259 725 259 1325 
Q 259 1772 486 2073 
Q 713 2375 1131 2484 
z
M 1019 3438 
Q 1019 3113 1228 2906 
Q 1438 2700 1772 2700 
Q 2097 2700 2305 2904 
Q 2513 3109 2513 3406 
Q 2513 3716 2298 3927 
Q 2084 4138 1766 4138 
Q 1444 4138 1231 3931 
Q 1019 3725 1019 3438 
z
M 838 1322 
Q 838 1081 952 856 
Q 1066 631 1291 507 
Q 1516 384 1775 384 
Q 2178 384 2440 643 
Q 2703 903 2703 1303 
Q 2703 1709 2433 1975 
Q 2163 2241 1756 2241 
Q 1359 2241 1098 1978 
Q 838 1716 838 1322 
z
" transform="scale(0.015625)"/>
       </defs>
       <use xlink:href="#ArialMT-32"/>
       <use xlink:href="#ArialMT-30" x="55.615234"/>
       <use xlink:href="#ArialMT-31" x="111.230469"/>
       <use xlink:href="#ArialMT-38" x="166.845703"/>
      </g>
     </g>
    </g>
    <g id="xtick_21">
     <g id="line2d_35">
      <g>
       <use xlink:href="#md76a144bd8" x="466.84221" y="519.9" style="fill: #262626; stroke: #262626; stroke-width: 1.25"/>
      </g>
     </g>
     <g id="text_16">
      <!-- 2019 -->
      <g style="fill: #262626" transform="translate(454.608147 537.273594) scale(0.11 -0.11)">
       <defs>
        <path id="ArialMT-39" d="M 350 1059 
L 891 1109 
Q 959 728 1153 556 
Q 1347 384 1650 384 
Q 1909 384 2104 503 
Q 2300 622 2425 820 
Q 2550 1019 2634 1356 
Q 2719 1694 2719 2044 
Q 2719 2081 2716 2156 
Q 2547 1888 2255 1720 
Q 1963 1553 1622 1553 
Q 1053 1553 659 1965 
Q 266 2378 266 3053 
Q 266 3750 677 4175 
Q 1088 4600 1706 4600 
Q 2153 4600 2523 4359 
Q 2894 4119 3086 3673 
Q 3278 3228 3278 2384 
Q 3278 1506 3087 986 
Q 2897 466 2520 194 
Q 2144 -78 1638 -78 
Q 1100 -78 759 220 
Q 419 519 350 1059 
z
M 2653 3081 
Q 2653 3566 2395 3850 
Q 2138 4134 1775 4134 
Q 1400 4134 1122 3828 
Q 844 3522 844 3034 
Q 844 2597 1108 2323 
Q 1372 2050 1759 2050 
Q 2150 2050 2401 2323 
Q 2653 2597 2653 3081 
z
" transform="scale(0.015625)"/>
       </defs>
       <use xlink:href="#ArialMT-32"/>
       <use xlink:href="#ArialMT-30" x="55.615234"/>
       <use xlink:href="#ArialMT-31" x="111.230469"/>
       <use xlink:href="#ArialMT-39" x="166.845703"/>
      </g>
     </g>
    </g>
    <g id="xtick_22">
     <g id="line2d_36">
      <g>
       <use xlink:href="#md76a144bd8" x="583.394185" y="519.9" style="fill: #262626; stroke: #262626; stroke-width: 1.25"/>
      </g>
     </g>
     <g id="text_17">
      <!-- 2020 -->
      <g style="fill: #262626" transform="translate(571.160123 537.273594) scale(0.11 -0.11)">
       <use xlink:href="#ArialMT-32"/>
       <use xlink:href="#ArialMT-30" x="55.615234"/>
       <use xlink:href="#ArialMT-32" x="111.230469"/>
       <use xlink:href="#ArialMT-30" x="166.845703"/>
      </g>
     </g>
    </g>
    <g id="xtick_23">
     <g id="line2d_37">
      <g>
       <use xlink:href="#md76a144bd8" x="700.265481" y="519.9" style="fill: #262626; stroke: #262626; stroke-width: 1.25"/>
      </g>
     </g>
     <g id="text_18">
      <!-- 2021 -->
      <g style="fill: #262626" transform="translate(688.031419 537.273594) scale(0.11 -0.11)">
       <use xlink:href="#ArialMT-32"/>
       <use xlink:href="#ArialMT-30" x="55.615234"/>
       <use xlink:href="#ArialMT-32" x="111.230469"/>
       <use xlink:href="#ArialMT-31" x="166.845703"/>
      </g>
     </g>
    </g>
    <g id="xtick_24">
     <g id="line2d_38">
      <g>
       <use xlink:href="#md76a144bd8" x="816.817457" y="519.9" style="fill: #262626; stroke: #262626; stroke-width: 1.25"/>
      </g>
     </g>
     <g id="text_19">
      <!-- 2022 -->
      <g style="fill: #262626" transform="translate(804.583395 537.273594) scale(0.11 -0.11)">
       <use xlink:href="#ArialMT-32"/>
       <use xlink:href="#ArialMT-30" x="55.615234"/>
       <use xlink:href="#ArialMT-32" x="111.230469"/>
       <use xlink:href="#ArialMT-32" x="166.845703"/>
      </g>
     </g>
    </g>
   </g>
   <g id="matplotlib.axis_8">
    <g id="ytick_11">
     <g id="line2d_39">
      <g>
       <use xlink:href="#m43a0f09e88" x="128.3625" y="481.762489" style="fill: #262626; stroke: #262626; stroke-width: 1.25"/>
      </g>
     </g>
     <g id="text_20">
      <!-- 0 -->
      <g style="fill: #262626" transform="translate(112.745469 485.699286) scale(0.11 -0.11)">
       <use xlink:href="#ArialMT-30"/>
      </g>
     </g>
    </g>
    <g id="ytick_12">
     <g id="line2d_40">
      <g>
       <use xlink:href="#m43a0f09e88" x="128.3625" y="443.319108" style="fill: #262626; stroke: #262626; stroke-width: 1.25"/>
      </g>
     </g>
     <g id="text_21">
      <!-- 2000 -->
      <g style="fill: #262626" transform="translate(94.394375 447.255905) scale(0.11 -0.11)">
       <use xlink:href="#ArialMT-32"/>
       <use xlink:href="#ArialMT-30" x="55.615234"/>
       <use xlink:href="#ArialMT-30" x="111.230469"/>
       <use xlink:href="#ArialMT-30" x="166.845703"/>
      </g>
     </g>
    </g>
    <g id="text_22">
     <!-- Resid -->
     <g style="fill: #262626" transform="translate(88.009375 490.343988) rotate(-90) scale(0.12 -0.12)">
      <defs>
       <path id="ArialMT-52" d="M 503 0 
L 503 4581 
L 2534 4581 
Q 3147 4581 3465 4457 
Q 3784 4334 3975 4021 
Q 4166 3709 4166 3331 
Q 4166 2844 3850 2509 
Q 3534 2175 2875 2084 
Q 3116 1969 3241 1856 
Q 3506 1613 3744 1247 
L 4541 0 
L 3778 0 
L 3172 953 
Q 2906 1366 2734 1584 
Q 2563 1803 2427 1890 
Q 2291 1978 2150 2013 
Q 2047 2034 1813 2034 
L 1109 2034 
L 1109 0 
L 503 0 
z
M 1109 2559 
L 2413 2559 
Q 2828 2559 3062 2645 
Q 3297 2731 3419 2920 
Q 3541 3109 3541 3331 
Q 3541 3656 3305 3865 
Q 3069 4075 2559 4075 
L 1109 4075 
L 1109 2559 
z
" transform="scale(0.015625)"/>
       <path id="ArialMT-69" d="M 425 3934 
L 425 4581 
L 988 4581 
L 988 3934 
L 425 3934 
z
M 425 0 
L 425 3319 
L 988 3319 
L 988 0 
L 425 0 
z
" transform="scale(0.015625)"/>
      </defs>
      <use xlink:href="#ArialMT-52"/>
      <use xlink:href="#ArialMT-65" x="72.216797"/>
      <use xlink:href="#ArialMT-73" x="127.832031"/>
      <use xlink:href="#ArialMT-69" x="177.832031"/>
      <use xlink:href="#ArialMT-64" x="200.048828"/>
     </g>
    </g>
   </g>
   <g id="line2d_41">
    <defs>
     <path id="m1f1bf86e27" d="M 0 3 
C 0.795609 3 1.55874 2.683901 2.12132 2.12132 
C 2.683901 1.55874 3 0.795609 3 0 
C 3 -0.795609 2.683901 -1.55874 2.12132 -2.12132 
C 1.55874 -2.683901 0.795609 -3 0 -3 
C -0.795609 -3 -1.55874 -2.683901 -2.12132 -2.12132 
C -2.683901 -1.55874 -3 -0.795609 -3 0 
C -3 0.795609 -2.683901 1.55874 -2.12132 2.12132 
C -1.55874 2.683901 -0.795609 3 0 3 
z
" style="stroke: #4c72b0"/>
    </defs>
    <g clip-path="url(#p57ccfa2e5b)">
     <use xlink:href="#m1f1bf86e27" x="128.3625" y="486.670181" style="fill: #4c72b0; stroke: #4c72b0"/>
     <use xlink:href="#m1f1bf86e27" x="130.597743" y="486.281452" style="fill: #4c72b0; stroke: #4c72b0"/>
     <use xlink:href="#m1f1bf86e27" x="132.832987" y="485.866279" style="fill: #4c72b0; stroke: #4c72b0"/>
     <use xlink:href="#m1f1bf86e27" x="135.06823" y="486.090533" style="fill: #4c72b0; stroke: #4c72b0"/>
     <use xlink:href="#m1f1bf86e27" x="137.303473" y="484.814944" style="fill: #4c72b0; stroke: #4c72b0"/>
     <use xlink:href="#m1f1bf86e27" x="139.538717" y="484.293038" style="fill: #4c72b0; stroke: #4c72b0"/>
     <use xlink:href="#m1f1bf86e27" x="144.009204" y="484.109165" style="fill: #4c72b0; stroke: #4c72b0"/>
     <use xlink:href="#m1f1bf86e27" x="146.244447" y="483.914016" style="fill: #4c72b0; stroke: #4c72b0"/>
     <use xlink:href="#m1f1bf86e27" x="148.47969" y="483.329342" style="fill: #4c72b0; stroke: #4c72b0"/>
     <use xlink:href="#m1f1bf86e27" x="150.714934" y="483.472258" style="fill: #4c72b0; stroke: #4c72b0"/>
     <use xlink:href="#m1f1bf86e27" x="152.950177" y="483.16792" style="fill: #4c72b0; stroke: #4c72b0"/>
     <use xlink:href="#m1f1bf86e27" x="155.18542" y="482.881209" style="fill: #4c72b0; stroke: #4c72b0"/>
     <use xlink:href="#m1f1bf86e27" x="157.420664" y="482.699058" style="fill: #4c72b0; stroke: #4c72b0"/>
     <use xlink:href="#m1f1bf86e27" x="159.655907" y="482.598892" style="fill: #4c72b0; stroke: #4c72b0"/>
     <use xlink:href="#m1f1bf86e27" x="161.891151" y="482.384097" style="fill: #4c72b0; stroke: #4c72b0"/>
     <use xlink:href="#m1f1bf86e27" x="164.126394" y="482.053458" style="fill: #4c72b0; stroke: #4c72b0"/>
     <use xlink:href="#m1f1bf86e27" x="166.361637" y="481.930299" style="fill: #4c72b0; stroke: #4c72b0"/>
     <use xlink:href="#m1f1bf86e27" x="168.596881" y="481.645936" style="fill: #4c72b0; stroke: #4c72b0"/>
     <use xlink:href="#m1f1bf86e27" x="170.832124" y="481.37046" style="fill: #4c72b0; stroke: #4c72b0"/>
     <use xlink:href="#m1f1bf86e27" x="173.067367" y="481.296568" style="fill: #4c72b0; stroke: #4c72b0"/>
     <use xlink:href="#m1f1bf86e27" x="175.302611" y="481.311117" style="fill: #4c72b0; stroke: #4c72b0"/>
     <use xlink:href="#m1f1bf86e27" x="177.537854" y="481.026806" style="fill: #4c72b0; stroke: #4c72b0"/>
     <use xlink:href="#m1f1bf86e27" x="179.773097" y="480.869492" style="fill: #4c72b0; stroke: #4c72b0"/>
     <use xlink:href="#m1f1bf86e27" x="182.008341" y="480.083695" style="fill: #4c72b0; stroke: #4c72b0"/>
     <use xlink:href="#m1f1bf86e27" x="184.243584" y="479.231315" style="fill: #4c72b0; stroke: #4c72b0"/>
     <use xlink:href="#m1f1bf86e27" x="186.478828" y="479.675664" style="fill: #4c72b0; stroke: #4c72b0"/>
     <use xlink:href="#m1f1bf86e27" x="188.714071" y="479.439087" style="fill: #4c72b0; stroke: #4c72b0"/>
     <use xlink:href="#m1f1bf86e27" x="190.949314" y="479.232718" style="fill: #4c72b0; stroke: #4c72b0"/>
     <use xlink:href="#m1f1bf86e27" x="193.184558" y="479.235104" style="fill: #4c72b0; stroke: #4c72b0"/>
     <use xlink:href="#m1f1bf86e27" x="195.419801" y="478.90215" style="fill: #4c72b0; stroke: #4c72b0"/>
     <use xlink:href="#m1f1bf86e27" x="197.655044" y="478.701914" style="fill: #4c72b0; stroke: #4c72b0"/>
     <use xlink:href="#m1f1bf86e27" x="199.890288" y="478.485705" style="fill: #4c72b0; stroke: #4c72b0"/>
     <use xlink:href="#m1f1bf86e27" x="202.125531" y="480.467456" style="fill: #4c72b0; stroke: #4c72b0"/>
     <use xlink:href="#m1f1bf86e27" x="204.360774" y="480.220188" style="fill: #4c72b0; stroke: #4c72b0"/>
     <use xlink:href="#m1f1bf86e27" x="206.596018" y="479.939342" style="fill: #4c72b0; stroke: #4c72b0"/>
     <use xlink:href="#m1f1bf86e27" x="208.831261" y="479.665625" style="fill: #4c72b0; stroke: #4c72b0"/>
     <use xlink:href="#m1f1bf86e27" x="211.066505" y="479.208391" style="fill: #4c72b0; stroke: #4c72b0"/>
     <use xlink:href="#m1f1bf86e27" x="213.301748" y="478.934317" style="fill: #4c72b0; stroke: #4c72b0"/>
     <use xlink:href="#m1f1bf86e27" x="215.536991" y="478.688872" style="fill: #4c72b0; stroke: #4c72b0"/>
     <use xlink:href="#m1f1bf86e27" x="217.772235" y="478.302779" style="fill: #4c72b0; stroke: #4c72b0"/>
     <use xlink:href="#m1f1bf86e27" x="220.007478" y="477.957189" style="fill: #4c72b0; stroke: #4c72b0"/>
     <use xlink:href="#m1f1bf86e27" x="222.242721" y="477.627347" style="fill: #4c72b0; stroke: #4c72b0"/>
     <use xlink:href="#m1f1bf86e27" x="224.477965" y="477.30595" style="fill: #4c72b0; stroke: #4c72b0"/>
     <use xlink:href="#m1f1bf86e27" x="226.713208" y="473.808268" style="fill: #4c72b0; stroke: #4c72b0"/>
     <use xlink:href="#m1f1bf86e27" x="228.948452" y="473.507753" style="fill: #4c72b0; stroke: #4c72b0"/>
     <use xlink:href="#m1f1bf86e27" x="231.183695" y="473.085815" style="fill: #4c72b0; stroke: #4c72b0"/>
     <use xlink:href="#m1f1bf86e27" x="240.124668" y="473.518936" style="fill: #4c72b0; stroke: #4c72b0"/>
     <use xlink:href="#m1f1bf86e27" x="242.359912" y="484.06018" style="fill: #4c72b0; stroke: #4c72b0"/>
     <use xlink:href="#m1f1bf86e27" x="244.595155" y="480.936566" style="fill: #4c72b0; stroke: #4c72b0"/>
     <use xlink:href="#m1f1bf86e27" x="246.830398" y="480.28586" style="fill: #4c72b0; stroke: #4c72b0"/>
     <use xlink:href="#m1f1bf86e27" x="249.065642" y="480.351264" style="fill: #4c72b0; stroke: #4c72b0"/>
     <use xlink:href="#m1f1bf86e27" x="251.300885" y="479.881775" style="fill: #4c72b0; stroke: #4c72b0"/>
     <use xlink:href="#m1f1bf86e27" x="253.536129" y="480.65866" style="fill: #4c72b0; stroke: #4c72b0"/>
     <use xlink:href="#m1f1bf86e27" x="255.771372" y="480.796152" style="fill: #4c72b0; stroke: #4c72b0"/>
     <use xlink:href="#m1f1bf86e27" x="258.006615" y="480.625322" style="fill: #4c72b0; stroke: #4c72b0"/>
     <use xlink:href="#m1f1bf86e27" x="260.241859" y="480.543932" style="fill: #4c72b0; stroke: #4c72b0"/>
     <use xlink:href="#m1f1bf86e27" x="262.477102" y="480.725882" style="fill: #4c72b0; stroke: #4c72b0"/>
     <use xlink:href="#m1f1bf86e27" x="264.712345" y="483.592633" style="fill: #4c72b0; stroke: #4c72b0"/>
     <use xlink:href="#m1f1bf86e27" x="266.947589" y="483.62118" style="fill: #4c72b0; stroke: #4c72b0"/>
     <use xlink:href="#m1f1bf86e27" x="269.182832" y="483.739059" style="fill: #4c72b0; stroke: #4c72b0"/>
     <use xlink:href="#m1f1bf86e27" x="271.418075" y="483.648583" style="fill: #4c72b0; stroke: #4c72b0"/>
     <use xlink:href="#m1f1bf86e27" x="273.653319" y="483.832891" style="fill: #4c72b0; stroke: #4c72b0"/>
     <use xlink:href="#m1f1bf86e27" x="275.888562" y="484.125423" style="fill: #4c72b0; stroke: #4c72b0"/>
     <use xlink:href="#m1f1bf86e27" x="278.123806" y="484.280917" style="fill: #4c72b0; stroke: #4c72b0"/>
     <use xlink:href="#m1f1bf86e27" x="280.359049" y="484.33149" style="fill: #4c72b0; stroke: #4c72b0"/>
     <use xlink:href="#m1f1bf86e27" x="282.594292" y="484.627445" style="fill: #4c72b0; stroke: #4c72b0"/>
     <use xlink:href="#m1f1bf86e27" x="284.829536" y="484.852457" style="fill: #4c72b0; stroke: #4c72b0"/>
     <use xlink:href="#m1f1bf86e27" x="287.064779" y="484.918551" style="fill: #4c72b0; stroke: #4c72b0"/>
     <use xlink:href="#m1f1bf86e27" x="289.300022" y="484.800924" style="fill: #4c72b0; stroke: #4c72b0"/>
     <use xlink:href="#m1f1bf86e27" x="291.535266" y="484.981107" style="fill: #4c72b0; stroke: #4c72b0"/>
     <use xlink:href="#m1f1bf86e27" x="293.770509" y="485.093331" style="fill: #4c72b0; stroke: #4c72b0"/>
     <use xlink:href="#m1f1bf86e27" x="296.005753" y="485.650693" style="fill: #4c72b0; stroke: #4c72b0"/>
     <use xlink:href="#m1f1bf86e27" x="298.240996" y="486.005045" style="fill: #4c72b0; stroke: #4c72b0"/>
     <use xlink:href="#m1f1bf86e27" x="300.476239" y="485.533205" style="fill: #4c72b0; stroke: #4c72b0"/>
     <use xlink:href="#m1f1bf86e27" x="302.711483" y="485.579835" style="fill: #4c72b0; stroke: #4c72b0"/>
     <use xlink:href="#m1f1bf86e27" x="304.946726" y="485.502855" style="fill: #4c72b0; stroke: #4c72b0"/>
     <use xlink:href="#m1f1bf86e27" x="307.181969" y="486.010143" style="fill: #4c72b0; stroke: #4c72b0"/>
     <use xlink:href="#m1f1bf86e27" x="309.417213" y="486.261543" style="fill: #4c72b0; stroke: #4c72b0"/>
     <use xlink:href="#m1f1bf86e27" x="311.652456" y="486.351149" style="fill: #4c72b0; stroke: #4c72b0"/>
     <use xlink:href="#m1f1bf86e27" x="313.887699" y="486.395219" style="fill: #4c72b0; stroke: #4c72b0"/>
     <use xlink:href="#m1f1bf86e27" x="316.122943" y="486.734466" style="fill: #4c72b0; stroke: #4c72b0"/>
     <use xlink:href="#m1f1bf86e27" x="318.358186" y="486.904266" style="fill: #4c72b0; stroke: #4c72b0"/>
     <use xlink:href="#m1f1bf86e27" x="320.59343" y="487.345364" style="fill: #4c72b0; stroke: #4c72b0"/>
     <use xlink:href="#m1f1bf86e27" x="322.828673" y="487.706808" style="fill: #4c72b0; stroke: #4c72b0"/>
     <use xlink:href="#m1f1bf86e27" x="325.063916" y="488.228925" style="fill: #4c72b0; stroke: #4c72b0"/>
     <use xlink:href="#m1f1bf86e27" x="327.29916" y="488.311005" style="fill: #4c72b0; stroke: #4c72b0"/>
     <use xlink:href="#m1f1bf86e27" x="329.534403" y="488.507329" style="fill: #4c72b0; stroke: #4c72b0"/>
     <use xlink:href="#m1f1bf86e27" x="331.769646" y="488.893393" style="fill: #4c72b0; stroke: #4c72b0"/>
     <use xlink:href="#m1f1bf86e27" x="334.00489" y="489.521277" style="fill: #4c72b0; stroke: #4c72b0"/>
     <use xlink:href="#m1f1bf86e27" x="336.240133" y="490.037636" style="fill: #4c72b0; stroke: #4c72b0"/>
     <use xlink:href="#m1f1bf86e27" x="338.475377" y="490.23904" style="fill: #4c72b0; stroke: #4c72b0"/>
     <use xlink:href="#m1f1bf86e27" x="340.71062" y="481.996896" style="fill: #4c72b0; stroke: #4c72b0"/>
     <use xlink:href="#m1f1bf86e27" x="342.945863" y="482.090598" style="fill: #4c72b0; stroke: #4c72b0"/>
     <use xlink:href="#m1f1bf86e27" x="345.181107" y="482.485473" style="fill: #4c72b0; stroke: #4c72b0"/>
     <use xlink:href="#m1f1bf86e27" x="347.41635" y="482.045324" style="fill: #4c72b0; stroke: #4c72b0"/>
     <use xlink:href="#m1f1bf86e27" x="349.651593" y="474.04638" style="fill: #4c72b0; stroke: #4c72b0"/>
     <use xlink:href="#m1f1bf86e27" x="351.886837" y="472.80265" style="fill: #4c72b0; stroke: #4c72b0"/>
     <use xlink:href="#m1f1bf86e27" x="356.357323" y="475.288129" style="fill: #4c72b0; stroke: #4c72b0"/>
     <use xlink:href="#m1f1bf86e27" x="358.592567" y="476.544075" style="fill: #4c72b0; stroke: #4c72b0"/>
     <use xlink:href="#m1f1bf86e27" x="360.82781" y="476.164202" style="fill: #4c72b0; stroke: #4c72b0"/>
     <use xlink:href="#m1f1bf86e27" x="363.063054" y="479.788921" style="fill: #4c72b0; stroke: #4c72b0"/>
     <use xlink:href="#m1f1bf86e27" x="365.298297" y="481.289838" style="fill: #4c72b0; stroke: #4c72b0"/>
     <use xlink:href="#m1f1bf86e27" x="367.53354" y="482.114542" style="fill: #4c72b0; stroke: #4c72b0"/>
     <use xlink:href="#m1f1bf86e27" x="369.768784" y="482.846888" style="fill: #4c72b0; stroke: #4c72b0"/>
     <use xlink:href="#m1f1bf86e27" x="372.004027" y="484.480817" style="fill: #4c72b0; stroke: #4c72b0"/>
     <use xlink:href="#m1f1bf86e27" x="374.23927" y="476.52666" style="fill: #4c72b0; stroke: #4c72b0"/>
     <use xlink:href="#m1f1bf86e27" x="396.591704" y="477.371448" style="fill: #4c72b0; stroke: #4c72b0"/>
     <use xlink:href="#m1f1bf86e27" x="398.826947" y="478.057605" style="fill: #4c72b0; stroke: #4c72b0"/>
     <use xlink:href="#m1f1bf86e27" x="401.062191" y="478.6439" style="fill: #4c72b0; stroke: #4c72b0"/>
     <use xlink:href="#m1f1bf86e27" x="403.297434" y="478.399607" style="fill: #4c72b0; stroke: #4c72b0"/>
     <use xlink:href="#m1f1bf86e27" x="405.532678" y="478.372778" style="fill: #4c72b0; stroke: #4c72b0"/>
     <use xlink:href="#m1f1bf86e27" x="407.767921" y="479.193961" style="fill: #4c72b0; stroke: #4c72b0"/>
     <use xlink:href="#m1f1bf86e27" x="410.003164" y="479.26251" style="fill: #4c72b0; stroke: #4c72b0"/>
     <use xlink:href="#m1f1bf86e27" x="414.473651" y="479.590605" style="fill: #4c72b0; stroke: #4c72b0"/>
     <use xlink:href="#m1f1bf86e27" x="416.708894" y="479.922392" style="fill: #4c72b0; stroke: #4c72b0"/>
     <use xlink:href="#m1f1bf86e27" x="418.944138" y="479.833588" style="fill: #4c72b0; stroke: #4c72b0"/>
     <use xlink:href="#m1f1bf86e27" x="421.179381" y="479.940818" style="fill: #4c72b0; stroke: #4c72b0"/>
     <use xlink:href="#m1f1bf86e27" x="423.414624" y="480.441459" style="fill: #4c72b0; stroke: #4c72b0"/>
     <use xlink:href="#m1f1bf86e27" x="425.649868" y="480.553402" style="fill: #4c72b0; stroke: #4c72b0"/>
     <use xlink:href="#m1f1bf86e27" x="427.885111" y="482.462623" style="fill: #4c72b0; stroke: #4c72b0"/>
     <use xlink:href="#m1f1bf86e27" x="430.120355" y="485.015503" style="fill: #4c72b0; stroke: #4c72b0"/>
     <use xlink:href="#m1f1bf86e27" x="432.355598" y="483.791827" style="fill: #4c72b0; stroke: #4c72b0"/>
     <use xlink:href="#m1f1bf86e27" x="434.590841" y="484.405968" style="fill: #4c72b0; stroke: #4c72b0"/>
     <use xlink:href="#m1f1bf86e27" x="436.826085" y="485.250589" style="fill: #4c72b0; stroke: #4c72b0"/>
     <use xlink:href="#m1f1bf86e27" x="439.061328" y="484.02868" style="fill: #4c72b0; stroke: #4c72b0"/>
     <use xlink:href="#m1f1bf86e27" x="441.296571" y="484.635376" style="fill: #4c72b0; stroke: #4c72b0"/>
     <use xlink:href="#m1f1bf86e27" x="443.531815" y="485.025621" style="fill: #4c72b0; stroke: #4c72b0"/>
     <use xlink:href="#m1f1bf86e27" x="445.767058" y="485.556132" style="fill: #4c72b0; stroke: #4c72b0"/>
     <use xlink:href="#m1f1bf86e27" x="448.002301" y="481.542575" style="fill: #4c72b0; stroke: #4c72b0"/>
     <use xlink:href="#m1f1bf86e27" x="450.237545" y="481.966217" style="fill: #4c72b0; stroke: #4c72b0"/>
     <use xlink:href="#m1f1bf86e27" x="452.472788" y="481.984081" style="fill: #4c72b0; stroke: #4c72b0"/>
     <use xlink:href="#m1f1bf86e27" x="454.708032" y="482.149361" style="fill: #4c72b0; stroke: #4c72b0"/>
     <use xlink:href="#m1f1bf86e27" x="456.943275" y="482.612887" style="fill: #4c72b0; stroke: #4c72b0"/>
     <use xlink:href="#m1f1bf86e27" x="459.178518" y="483.392238" style="fill: #4c72b0; stroke: #4c72b0"/>
     <use xlink:href="#m1f1bf86e27" x="461.413762" y="483.679199" style="fill: #4c72b0; stroke: #4c72b0"/>
     <use xlink:href="#m1f1bf86e27" x="463.649005" y="484.266404" style="fill: #4c72b0; stroke: #4c72b0"/>
     <use xlink:href="#m1f1bf86e27" x="465.884248" y="483.914841" style="fill: #4c72b0; stroke: #4c72b0"/>
     <use xlink:href="#m1f1bf86e27" x="468.119492" y="484.003215" style="fill: #4c72b0; stroke: #4c72b0"/>
     <use xlink:href="#m1f1bf86e27" x="470.354735" y="484.640774" style="fill: #4c72b0; stroke: #4c72b0"/>
     <use xlink:href="#m1f1bf86e27" x="477.060465" y="514.442018" style="fill: #4c72b0; stroke: #4c72b0"/>
     <use xlink:href="#m1f1bf86e27" x="479.295709" y="515.173631" style="fill: #4c72b0; stroke: #4c72b0"/>
     <use xlink:href="#m1f1bf86e27" x="481.530952" y="515.818601" style="fill: #4c72b0; stroke: #4c72b0"/>
     <use xlink:href="#m1f1bf86e27" x="483.766195" y="515.504115" style="fill: #4c72b0; stroke: #4c72b0"/>
     <use xlink:href="#m1f1bf86e27" x="486.001439" y="487.024607" style="fill: #4c72b0; stroke: #4c72b0"/>
     <use xlink:href="#m1f1bf86e27" x="488.236682" y="487.985222" style="fill: #4c72b0; stroke: #4c72b0"/>
     <use xlink:href="#m1f1bf86e27" x="490.471925" y="487.498101" style="fill: #4c72b0; stroke: #4c72b0"/>
     <use xlink:href="#m1f1bf86e27" x="492.707169" y="485.988521" style="fill: #4c72b0; stroke: #4c72b0"/>
     <use xlink:href="#m1f1bf86e27" x="494.942412" y="489.090494" style="fill: #4c72b0; stroke: #4c72b0"/>
     <use xlink:href="#m1f1bf86e27" x="497.177656" y="480.524822" style="fill: #4c72b0; stroke: #4c72b0"/>
     <use xlink:href="#m1f1bf86e27" x="499.412899" y="478.543069" style="fill: #4c72b0; stroke: #4c72b0"/>
     <use xlink:href="#m1f1bf86e27" x="501.648142" y="478.296748" style="fill: #4c72b0; stroke: #4c72b0"/>
     <use xlink:href="#m1f1bf86e27" x="503.883386" y="477.808204" style="fill: #4c72b0; stroke: #4c72b0"/>
     <use xlink:href="#m1f1bf86e27" x="506.118629" y="475.604265" style="fill: #4c72b0; stroke: #4c72b0"/>
     <use xlink:href="#m1f1bf86e27" x="508.353872" y="482.023233" style="fill: #4c72b0; stroke: #4c72b0"/>
     <use xlink:href="#m1f1bf86e27" x="510.589116" y="481.38551" style="fill: #4c72b0; stroke: #4c72b0"/>
     <use xlink:href="#m1f1bf86e27" x="512.824359" y="480.342805" style="fill: #4c72b0; stroke: #4c72b0"/>
     <use xlink:href="#m1f1bf86e27" x="515.059603" y="480.493422" style="fill: #4c72b0; stroke: #4c72b0"/>
     <use xlink:href="#m1f1bf86e27" x="517.294846" y="480.783801" style="fill: #4c72b0; stroke: #4c72b0"/>
     <use xlink:href="#m1f1bf86e27" x="519.530089" y="480.420045" style="fill: #4c72b0; stroke: #4c72b0"/>
     <use xlink:href="#m1f1bf86e27" x="521.765333" y="478.94834" style="fill: #4c72b0; stroke: #4c72b0"/>
     <use xlink:href="#m1f1bf86e27" x="524.000576" y="479.388069" style="fill: #4c72b0; stroke: #4c72b0"/>
     <use xlink:href="#m1f1bf86e27" x="526.235819" y="478.236493" style="fill: #4c72b0; stroke: #4c72b0"/>
     <use xlink:href="#m1f1bf86e27" x="528.471063" y="477.650587" style="fill: #4c72b0; stroke: #4c72b0"/>
     <use xlink:href="#m1f1bf86e27" x="530.706306" y="477.860875" style="fill: #4c72b0; stroke: #4c72b0"/>
     <use xlink:href="#m1f1bf86e27" x="532.941549" y="477.783595" style="fill: #4c72b0; stroke: #4c72b0"/>
     <use xlink:href="#m1f1bf86e27" x="535.176793" y="476.97224" style="fill: #4c72b0; stroke: #4c72b0"/>
     <use xlink:href="#m1f1bf86e27" x="537.412036" y="477.023045" style="fill: #4c72b0; stroke: #4c72b0"/>
     <use xlink:href="#m1f1bf86e27" x="539.64728" y="472.435674" style="fill: #4c72b0; stroke: #4c72b0"/>
     <use xlink:href="#m1f1bf86e27" x="541.882523" y="467.597924" style="fill: #4c72b0; stroke: #4c72b0"/>
     <use xlink:href="#m1f1bf86e27" x="544.117766" y="471.939257" style="fill: #4c72b0; stroke: #4c72b0"/>
     <use xlink:href="#m1f1bf86e27" x="546.35301" y="471.514285" style="fill: #4c72b0; stroke: #4c72b0"/>
     <use xlink:href="#m1f1bf86e27" x="548.588253" y="470.624074" style="fill: #4c72b0; stroke: #4c72b0"/>
     <use xlink:href="#m1f1bf86e27" x="550.823496" y="470.942671" style="fill: #4c72b0; stroke: #4c72b0"/>
     <use xlink:href="#m1f1bf86e27" x="553.05874" y="469.791804" style="fill: #4c72b0; stroke: #4c72b0"/>
     <use xlink:href="#m1f1bf86e27" x="555.293983" y="469.437694" style="fill: #4c72b0; stroke: #4c72b0"/>
     <use xlink:href="#m1f1bf86e27" x="557.529226" y="469.052364" style="fill: #4c72b0; stroke: #4c72b0"/>
     <use xlink:href="#m1f1bf86e27" x="559.76447" y="458.148511" style="fill: #4c72b0; stroke: #4c72b0"/>
     <use xlink:href="#m1f1bf86e27" x="561.999713" y="457.463559" style="fill: #4c72b0; stroke: #4c72b0"/>
     <use xlink:href="#m1f1bf86e27" x="564.234957" y="456.507756" style="fill: #4c72b0; stroke: #4c72b0"/>
     <use xlink:href="#m1f1bf86e27" x="566.4702" y="452.600732" style="fill: #4c72b0; stroke: #4c72b0"/>
     <use xlink:href="#m1f1bf86e27" x="568.705443" y="451.27108" style="fill: #4c72b0; stroke: #4c72b0"/>
     <use xlink:href="#m1f1bf86e27" x="570.940687" y="450.250373" style="fill: #4c72b0; stroke: #4c72b0"/>
     <use xlink:href="#m1f1bf86e27" x="573.17593" y="450.139025" style="fill: #4c72b0; stroke: #4c72b0"/>
     <use xlink:href="#m1f1bf86e27" x="575.411173" y="448.521257" style="fill: #4c72b0; stroke: #4c72b0"/>
     <use xlink:href="#m1f1bf86e27" x="577.646417" y="448.589982" style="fill: #4c72b0; stroke: #4c72b0"/>
     <use xlink:href="#m1f1bf86e27" x="579.88166" y="447.257585" style="fill: #4c72b0; stroke: #4c72b0"/>
     <use xlink:href="#m1f1bf86e27" x="582.116904" y="446.434768" style="fill: #4c72b0; stroke: #4c72b0"/>
     <use xlink:href="#m1f1bf86e27" x="584.352147" y="436.884418" style="fill: #4c72b0; stroke: #4c72b0"/>
     <use xlink:href="#m1f1bf86e27" x="586.58739" y="436.449494" style="fill: #4c72b0; stroke: #4c72b0"/>
     <use xlink:href="#m1f1bf86e27" x="588.822634" y="435.017015" style="fill: #4c72b0; stroke: #4c72b0"/>
     <use xlink:href="#m1f1bf86e27" x="591.057877" y="434.190624" style="fill: #4c72b0; stroke: #4c72b0"/>
     <use xlink:href="#m1f1bf86e27" x="595.528364" y="506.889325" style="fill: #4c72b0; stroke: #4c72b0"/>
     <use xlink:href="#m1f1bf86e27" x="597.763607" y="505.566302" style="fill: #4c72b0; stroke: #4c72b0"/>
     <use xlink:href="#m1f1bf86e27" x="599.99885" y="503.87998" style="fill: #4c72b0; stroke: #4c72b0"/>
     <use xlink:href="#m1f1bf86e27" x="602.234094" y="503.156232" style="fill: #4c72b0; stroke: #4c72b0"/>
     <use xlink:href="#m1f1bf86e27" x="604.469337" y="500.80004" style="fill: #4c72b0; stroke: #4c72b0"/>
     <use xlink:href="#m1f1bf86e27" x="606.704581" y="502.607361" style="fill: #4c72b0; stroke: #4c72b0"/>
     <use xlink:href="#m1f1bf86e27" x="608.939824" y="501.787514" style="fill: #4c72b0; stroke: #4c72b0"/>
     <use xlink:href="#m1f1bf86e27" x="611.175067" y="500.616143" style="fill: #4c72b0; stroke: #4c72b0"/>
     <use xlink:href="#m1f1bf86e27" x="613.410311" y="500.014345" style="fill: #4c72b0; stroke: #4c72b0"/>
     <use xlink:href="#m1f1bf86e27" x="615.645554" y="499.20125" style="fill: #4c72b0; stroke: #4c72b0"/>
     <use xlink:href="#m1f1bf86e27" x="651.409448" y="491.372591" style="fill: #4c72b0; stroke: #4c72b0"/>
     <use xlink:href="#m1f1bf86e27" x="653.644691" y="490.480127" style="fill: #4c72b0; stroke: #4c72b0"/>
     <use xlink:href="#m1f1bf86e27" x="655.879935" y="490.046215" style="fill: #4c72b0; stroke: #4c72b0"/>
     <use xlink:href="#m1f1bf86e27" x="658.115178" y="488.931726" style="fill: #4c72b0; stroke: #4c72b0"/>
     <use xlink:href="#m1f1bf86e27" x="660.350421" y="488.395879" style="fill: #4c72b0; stroke: #4c72b0"/>
     <use xlink:href="#m1f1bf86e27" x="662.585665" y="487.626536" style="fill: #4c72b0; stroke: #4c72b0"/>
     <use xlink:href="#m1f1bf86e27" x="664.820908" y="487.456989" style="fill: #4c72b0; stroke: #4c72b0"/>
     <use xlink:href="#m1f1bf86e27" x="667.056151" y="486.51755" style="fill: #4c72b0; stroke: #4c72b0"/>
     <use xlink:href="#m1f1bf86e27" x="669.291395" y="486.266356" style="fill: #4c72b0; stroke: #4c72b0"/>
     <use xlink:href="#m1f1bf86e27" x="673.761882" y="485.330799" style="fill: #4c72b0; stroke: #4c72b0"/>
     <use xlink:href="#m1f1bf86e27" x="678.232368" y="484.090541" style="fill: #4c72b0; stroke: #4c72b0"/>
     <use xlink:href="#m1f1bf86e27" x="680.467612" y="483.585583" style="fill: #4c72b0; stroke: #4c72b0"/>
     <use xlink:href="#m1f1bf86e27" x="682.702855" y="482.849924" style="fill: #4c72b0; stroke: #4c72b0"/>
     <use xlink:href="#m1f1bf86e27" x="684.938098" y="481.967669" style="fill: #4c72b0; stroke: #4c72b0"/>
     <use xlink:href="#m1f1bf86e27" x="687.173342" y="482.714584" style="fill: #4c72b0; stroke: #4c72b0"/>
     <use xlink:href="#m1f1bf86e27" x="693.879072" y="482.710578" style="fill: #4c72b0; stroke: #4c72b0"/>
     <use xlink:href="#m1f1bf86e27" x="696.114315" y="480.817121" style="fill: #4c72b0; stroke: #4c72b0"/>
     <use xlink:href="#m1f1bf86e27" x="698.349559" y="480.90539" style="fill: #4c72b0; stroke: #4c72b0"/>
     <use xlink:href="#m1f1bf86e27" x="700.584802" y="480.62773" style="fill: #4c72b0; stroke: #4c72b0"/>
     <use xlink:href="#m1f1bf86e27" x="702.820045" y="480.388849" style="fill: #4c72b0; stroke: #4c72b0"/>
     <use xlink:href="#m1f1bf86e27" x="705.055289" y="480.715372" style="fill: #4c72b0; stroke: #4c72b0"/>
     <use xlink:href="#m1f1bf86e27" x="707.290532" y="480.421183" style="fill: #4c72b0; stroke: #4c72b0"/>
     <use xlink:href="#m1f1bf86e27" x="711.761019" y="479.855278" style="fill: #4c72b0; stroke: #4c72b0"/>
     <use xlink:href="#m1f1bf86e27" x="716.231506" y="505.806717" style="fill: #4c72b0; stroke: #4c72b0"/>
     <use xlink:href="#m1f1bf86e27" x="718.466749" y="505.56371" style="fill: #4c72b0; stroke: #4c72b0"/>
     <use xlink:href="#m1f1bf86e27" x="720.701992" y="505.821451" style="fill: #4c72b0; stroke: #4c72b0"/>
     <use xlink:href="#m1f1bf86e27" x="722.937236" y="500.91307" style="fill: #4c72b0; stroke: #4c72b0"/>
     <use xlink:href="#m1f1bf86e27" x="725.172479" y="501.667888" style="fill: #4c72b0; stroke: #4c72b0"/>
     <use xlink:href="#m1f1bf86e27" x="727.407722" y="502.132568" style="fill: #4c72b0; stroke: #4c72b0"/>
     <use xlink:href="#m1f1bf86e27" x="729.642966" y="502.123518" style="fill: #4c72b0; stroke: #4c72b0"/>
     <use xlink:href="#m1f1bf86e27" x="731.878209" y="503.047601" style="fill: #4c72b0; stroke: #4c72b0"/>
     <use xlink:href="#m1f1bf86e27" x="734.113452" y="503.098794" style="fill: #4c72b0; stroke: #4c72b0"/>
     <use xlink:href="#m1f1bf86e27" x="736.348696" y="503.982207" style="fill: #4c72b0; stroke: #4c72b0"/>
     <use xlink:href="#m1f1bf86e27" x="738.583939" y="504.352919" style="fill: #4c72b0; stroke: #4c72b0"/>
     <use xlink:href="#m1f1bf86e27" x="740.819183" y="501.727477" style="fill: #4c72b0; stroke: #4c72b0"/>
     <use xlink:href="#m1f1bf86e27" x="743.054426" y="501.806378" style="fill: #4c72b0; stroke: #4c72b0"/>
     <use xlink:href="#m1f1bf86e27" x="745.289669" y="502.585864" style="fill: #4c72b0; stroke: #4c72b0"/>
     <use xlink:href="#m1f1bf86e27" x="747.524913" y="503.308919" style="fill: #4c72b0; stroke: #4c72b0"/>
     <use xlink:href="#m1f1bf86e27" x="749.760156" y="462.840289" style="fill: #4c72b0; stroke: #4c72b0"/>
     <use xlink:href="#m1f1bf86e27" x="751.995399" y="463.448068" style="fill: #4c72b0; stroke: #4c72b0"/>
     <use xlink:href="#m1f1bf86e27" x="754.230643" y="464.657745" style="fill: #4c72b0; stroke: #4c72b0"/>
     <use xlink:href="#m1f1bf86e27" x="756.465886" y="465.610183" style="fill: #4c72b0; stroke: #4c72b0"/>
     <use xlink:href="#m1f1bf86e27" x="758.70113" y="466.262772" style="fill: #4c72b0; stroke: #4c72b0"/>
     <use xlink:href="#m1f1bf86e27" x="760.936373" y="467.655606" style="fill: #4c72b0; stroke: #4c72b0"/>
     <use xlink:href="#m1f1bf86e27" x="763.171616" y="468.816057" style="fill: #4c72b0; stroke: #4c72b0"/>
     <use xlink:href="#m1f1bf86e27" x="765.40686" y="469.683177" style="fill: #4c72b0; stroke: #4c72b0"/>
     <use xlink:href="#m1f1bf86e27" x="767.642103" y="470.240919" style="fill: #4c72b0; stroke: #4c72b0"/>
     <use xlink:href="#m1f1bf86e27" x="769.877346" y="471.461472" style="fill: #4c72b0; stroke: #4c72b0"/>
     <use xlink:href="#m1f1bf86e27" x="772.11259" y="475.25921" style="fill: #4c72b0; stroke: #4c72b0"/>
     <use xlink:href="#m1f1bf86e27" x="774.347833" y="476.060835" style="fill: #4c72b0; stroke: #4c72b0"/>
     <use xlink:href="#m1f1bf86e27" x="776.583076" y="476.68547" style="fill: #4c72b0; stroke: #4c72b0"/>
     <use xlink:href="#m1f1bf86e27" x="778.81832" y="477.392911" style="fill: #4c72b0; stroke: #4c72b0"/>
     <use xlink:href="#m1f1bf86e27" x="781.053563" y="477.701528" style="fill: #4c72b0; stroke: #4c72b0"/>
     <use xlink:href="#m1f1bf86e27" x="783.288807" y="478.375529" style="fill: #4c72b0; stroke: #4c72b0"/>
     <use xlink:href="#m1f1bf86e27" x="785.52405" y="478.950035" style="fill: #4c72b0; stroke: #4c72b0"/>
     <use xlink:href="#m1f1bf86e27" x="787.759293" y="479.470328" style="fill: #4c72b0; stroke: #4c72b0"/>
     <use xlink:href="#m1f1bf86e27" x="789.994537" y="480.0244" style="fill: #4c72b0; stroke: #4c72b0"/>
     <use xlink:href="#m1f1bf86e27" x="792.22978" y="480.865911" style="fill: #4c72b0; stroke: #4c72b0"/>
     <use xlink:href="#m1f1bf86e27" x="794.465023" y="481.677963" style="fill: #4c72b0; stroke: #4c72b0"/>
     <use xlink:href="#m1f1bf86e27" x="796.700267" y="482.062435" style="fill: #4c72b0; stroke: #4c72b0"/>
     <use xlink:href="#m1f1bf86e27" x="798.93551" y="482.830141" style="fill: #4c72b0; stroke: #4c72b0"/>
     <use xlink:href="#m1f1bf86e27" x="801.170753" y="483.437111" style="fill: #4c72b0; stroke: #4c72b0"/>
     <use xlink:href="#m1f1bf86e27" x="803.405997" y="484.345181" style="fill: #4c72b0; stroke: #4c72b0"/>
     <use xlink:href="#m1f1bf86e27" x="805.64124" y="485.818461" style="fill: #4c72b0; stroke: #4c72b0"/>
     <use xlink:href="#m1f1bf86e27" x="807.876484" y="485.785385" style="fill: #4c72b0; stroke: #4c72b0"/>
     <use xlink:href="#m1f1bf86e27" x="810.111727" y="485.850317" style="fill: #4c72b0; stroke: #4c72b0"/>
     <use xlink:href="#m1f1bf86e27" x="812.34697" y="486.307334" style="fill: #4c72b0; stroke: #4c72b0"/>
     <use xlink:href="#m1f1bf86e27" x="814.582214" y="486.459689" style="fill: #4c72b0; stroke: #4c72b0"/>
     <use xlink:href="#m1f1bf86e27" x="816.817457" y="486.601877" style="fill: #4c72b0; stroke: #4c72b0"/>
     <use xlink:href="#m1f1bf86e27" x="819.0527" y="486.922814" style="fill: #4c72b0; stroke: #4c72b0"/>
     <use xlink:href="#m1f1bf86e27" x="821.287944" y="487.434551" style="fill: #4c72b0; stroke: #4c72b0"/>
     <use xlink:href="#m1f1bf86e27" x="823.523187" y="473.278878" style="fill: #4c72b0; stroke: #4c72b0"/>
     <use xlink:href="#m1f1bf86e27" x="825.758431" y="473.673606" style="fill: #4c72b0; stroke: #4c72b0"/>
     <use xlink:href="#m1f1bf86e27" x="827.993674" y="473.836014" style="fill: #4c72b0; stroke: #4c72b0"/>
    </g>
   </g>
   <g id="patch_18">
    <path d="M 128.3625 519.9 
L 128.3625 430.109225 
" style="fill: none; stroke: #262626; stroke-width: 1.25; stroke-linejoin: miter; stroke-linecap: square"/>
   </g>
   <g id="patch_19">
    <path d="M 827.993674 519.9 
L 827.993674 430.109225 
" style="fill: none; stroke: #262626; stroke-width: 1.25; stroke-linejoin: miter; stroke-linecap: square"/>
   </g>
   <g id="patch_20">
    <path d="M 128.3625 519.9 
L 827.993674 519.9 
" style="fill: none; stroke: #262626; stroke-width: 1.25; stroke-linejoin: miter; stroke-linecap: square"/>
   </g>
   <g id="patch_21">
    <path d="M 128.3625 430.109225 
L 827.993674 430.109225 
" style="fill: none; stroke: #262626; stroke-width: 1.25; stroke-linejoin: miter; stroke-linecap: square"/>
   </g>
  </g>
 </g>
 <defs>
  <clipPath id="p5a81d6669f">
   <rect x="128.3625" y="46.266667" width="699.631174" height="89.790775"/>
  </clipPath>
  <clipPath id="pc9fc37474b">
   <rect x="128.3625" y="174.214186" width="699.631174" height="89.790775"/>
  </clipPath>
  <clipPath id="pec85cdf83e">
   <rect x="128.3625" y="302.161706" width="699.631174" height="89.790775"/>
  </clipPath>
  <clipPath id="p57ccfa2e5b">
   <rect x="128.3625" y="430.109225" width="699.631174" height="89.790775"/>
  </clipPath>
 </defs>
</svg>
