<?xml version="1.0" encoding="utf-8" standalone="no"?>
<!DOCTYPE svg PUBLIC "-//W3C//DTD SVG 1.1//EN"
  "http://www.w3.org/Graphics/SVG/1.1/DTD/svg11.dtd">
<svg xmlns:xlink="http://www.w3.org/1999/xlink" width="864pt" height="576pt" viewBox="0 0 864 576" xmlns="http://www.w3.org/2000/svg" version="1.1">
 <metadata>
  <rdf:RDF xmlns:dc="http://purl.org/dc/elements/1.1/" xmlns:cc="http://creativecommons.org/ns#" xmlns:rdf="http://www.w3.org/1999/02/22-rdf-syntax-ns#">
   <cc:Work>
    <dc:type rdf:resource="http://purl.org/dc/dcmitype/StillImage"/>
    <dc:date>2023-07-30T23:32:38.488024</dc:date>
    <dc:format>image/svg+xml</dc:format>
    <dc:creator>
     <cc:Agent>
      <dc:title>Matplotlib v3.7.1, https://matplotlib.org/</dc:title>
     </cc:Agent>
    </dc:creator>
   </cc:Work>
  </rdf:RDF>
 </metadata>
 <defs>
  <style type="text/css">*{stroke-linejoin: round; stroke-linecap: butt}</style>
 </defs>
 <g id="figure_1">
  <g id="patch_1">
   <path d="M 0 576 
L 864 576 
L 864 0 
L 0 0 
z
" style="fill: #ffffff"/>
  </g>
  <g id="axes_1">
   <g id="patch_2">
    <path d="M 128.3625 140.975 
L 827.993674 140.975 
L 827.993674 46.266667 
L 128.3625 46.266667 
z
" style="fill: #ffffff"/>
   </g>
   <g id="matplotlib.axis_1">
    <g id="xtick_1">
     <g id="line2d_1">
      <defs>
       <path id="m85ca20754b" d="M 0 0 
L 0 6 
" style="stroke: #262626; stroke-width: 1.25"/>
      </defs>
      <g>
       <use xlink:href="#m85ca20754b" x="233.738259" y="140.975" style="fill: #262626; stroke: #262626; stroke-width: 1.25"/>
      </g>
     </g>
    </g>
    <g id="xtick_2">
     <g id="line2d_2">
      <g>
       <use xlink:href="#m85ca20754b" x="350.290234" y="140.975" style="fill: #262626; stroke: #262626; stroke-width: 1.25"/>
      </g>
     </g>
    </g>
    <g id="xtick_3">
     <g id="line2d_3">
      <g>
       <use xlink:href="#m85ca20754b" x="466.84221" y="140.975" style="fill: #262626; stroke: #262626; stroke-width: 1.25"/>
      </g>
     </g>
    </g>
    <g id="xtick_4">
     <g id="line2d_4">
      <g>
       <use xlink:href="#m85ca20754b" x="583.394185" y="140.975" style="fill: #262626; stroke: #262626; stroke-width: 1.25"/>
      </g>
     </g>
    </g>
    <g id="xtick_5">
     <g id="line2d_5">
      <g>
       <use xlink:href="#m85ca20754b" x="700.265481" y="140.975" style="fill: #262626; stroke: #262626; stroke-width: 1.25"/>
      </g>
     </g>
    </g>
    <g id="xtick_6">
     <g id="line2d_6">
      <g>
       <use xlink:href="#m85ca20754b" x="816.817457" y="140.975" style="fill: #262626; stroke: #262626; stroke-width: 1.25"/>
      </g>
     </g>
    </g>
   </g>
   <g id="matplotlib.axis_2">
    <g id="ytick_1">
     <g id="line2d_7">
      <defs>
       <path id="m3709fc37a9" d="M 0 0 
L -6 0 
" style="stroke: #262626; stroke-width: 1.25"/>
      </defs>
      <g>
       <use xlink:href="#m3709fc37a9" x="128.3625" y="136.670076" style="fill: #262626; stroke: #262626; stroke-width: 1.25"/>
      </g>
     </g>
     <g id="text_1">
      <!-- 0 -->
      <g style="fill: #262626" transform="translate(112.745469 140.606873) scale(0.11 -0.11)">
       <defs>
        <path id="ArialMT-30" d="M 266 2259 
Q 266 3072 433 3567 
Q 600 4063 929 4331 
Q 1259 4600 1759 4600 
Q 2128 4600 2406 4451 
Q 2684 4303 2865 4023 
Q 3047 3744 3150 3342 
Q 3253 2941 3253 2259 
Q 3253 1453 3087 958 
Q 2922 463 2592 192 
Q 2263 -78 1759 -78 
Q 1097 -78 719 397 
Q 266 969 266 2259 
z
M 844 2259 
Q 844 1131 1108 757 
Q 1372 384 1759 384 
Q 2147 384 2411 759 
Q 2675 1134 2675 2259 
Q 2675 3391 2411 3762 
Q 2147 4134 1753 4134 
Q 1366 4134 1134 3806 
Q 844 3388 844 2259 
z
" transform="scale(0.015625)"/>
       </defs>
       <use xlink:href="#ArialMT-30"/>
      </g>
     </g>
    </g>
    <g id="ytick_2">
     <g id="line2d_8">
      <g>
       <use xlink:href="#m3709fc37a9" x="128.3625" y="101.311355" style="fill: #262626; stroke: #262626; stroke-width: 1.25"/>
      </g>
     </g>
     <g id="text_2">
      <!-- 1000 -->
      <g style="fill: #262626" transform="translate(94.394375 105.248152) scale(0.11 -0.11)">
       <defs>
        <path id="ArialMT-31" d="M 2384 0 
L 1822 0 
L 1822 3584 
Q 1619 3391 1289 3197 
Q 959 3003 697 2906 
L 697 3450 
Q 1169 3672 1522 3987 
Q 1875 4303 2022 4600 
L 2384 4600 
L 2384 0 
z
" transform="scale(0.015625)"/>
       </defs>
       <use xlink:href="#ArialMT-31"/>
       <use xlink:href="#ArialMT-30" x="55.615234"/>
       <use xlink:href="#ArialMT-30" x="111.230469"/>
       <use xlink:href="#ArialMT-30" x="166.845703"/>
      </g>
     </g>
    </g>
    <g id="ytick_3">
     <g id="line2d_9">
      <g>
       <use xlink:href="#m3709fc37a9" x="128.3625" y="65.952634" style="fill: #262626; stroke: #262626; stroke-width: 1.25"/>
      </g>
     </g>
     <g id="text_3">
      <!-- 2000 -->
      <g style="fill: #262626" transform="translate(94.394375 69.889431) scale(0.11 -0.11)">
       <defs>
        <path id="ArialMT-32" d="M 3222 541 
L 3222 0 
L 194 0 
Q 188 203 259 391 
Q 375 700 629 1000 
Q 884 1300 1366 1694 
Q 2113 2306 2375 2664 
Q 2638 3022 2638 3341 
Q 2638 3675 2398 3904 
Q 2159 4134 1775 4134 
Q 1369 4134 1125 3890 
Q 881 3647 878 3216 
L 300 3275 
Q 359 3922 746 4261 
Q 1134 4600 1788 4600 
Q 2447 4600 2831 4234 
Q 3216 3869 3216 3328 
Q 3216 3053 3103 2787 
Q 2991 2522 2730 2228 
Q 2469 1934 1863 1422 
Q 1356 997 1212 845 
Q 1069 694 975 541 
L 3222 541 
z
" transform="scale(0.015625)"/>
       </defs>
       <use xlink:href="#ArialMT-32"/>
       <use xlink:href="#ArialMT-30" x="55.615234"/>
       <use xlink:href="#ArialMT-30" x="111.230469"/>
       <use xlink:href="#ArialMT-30" x="166.845703"/>
      </g>
     </g>
    </g>
   </g>
   <g id="line2d_10">
    <path d="M 128.3625 136.422565 
L 135.06823 136.422565 
L 137.303473 136.28113 
L 168.596881 136.175054 
L 177.537854 136.139695 
L 182.008341 136.139695 
L 184.243584 135.99826 
L 240.124668 136.068978 
L 242.359912 133.346356 
L 246.830398 132.038083 
L 249.065642 130.4823 
L 253.536129 128.466853 
L 255.771372 127.795037 
L 260.241859 126.946428 
L 264.712345 126.698917 
L 266.947589 125.814949 
L 271.418075 124.860263 
L 273.653319 124.824904 
L 280.359049 124.082371 
L 282.594292 123.269121 
L 284.829536 122.880175 
L 287.064779 122.774099 
L 289.300022 122.173 
L 291.535266 121.925489 
L 293.770509 121.465826 
L 296.005753 119.98076 
L 298.240996 115.879148 
L 300.476239 115.737713 
L 302.711483 102.301399 
L 307.181969 101.841736 
L 309.417213 90.031923 
L 311.652456 88.759009 
L 313.887699 82.641951 
L 316.122943 82.571233 
L 318.358186 79.388948 
L 320.59343 78.78785 
L 322.828673 68.533821 
L 325.063916 68.074158 
L 327.29916 66.094069 
L 329.534403 65.104025 
L 336.240133 65.068666 
L 338.475377 59.44663 
L 340.71062 56.936161 
L 342.945863 56.12291 
L 345.181107 55.804682 
L 347.41635 52.233451 
L 349.651593 50.642308 
L 351.886837 50.571591 
L 356.357323 136.457923 
L 358.592567 136.033619 
L 360.82781 135.892184 
L 363.063054 134.124248 
L 365.298297 133.664585 
L 367.53354 128.855798 
L 369.768784 128.077907 
L 372.004027 126.804993 
L 374.23927 126.698917 
L 398.826947 122.561946 
L 401.062191 121.784054 
L 403.297434 121.642619 
L 405.532678 118.283541 
L 407.767921 118.248182 
L 410.003164 115.879148 
L 414.473651 113.757625 
L 416.708894 113.297961 
L 418.944138 111.706819 
L 421.179381 104.77651 
L 423.414624 99.649495 
L 425.649868 96.396493 
L 427.885111 88.723651 
L 430.120355 82.783385 
L 432.355598 79.035361 
L 434.590841 75.817717 
L 436.826085 66.62445 
L 439.061328 66.306222 
L 441.296571 61.957099 
L 445.767058 61.320642 
L 448.002301 60.54275 
L 452.472788 55.804682 
L 454.708032 54.920714 
L 456.943275 54.46105 
L 459.178518 54.17818 
L 461.413762 52.198092 
L 465.884248 51.667711 
L 468.119492 51.066613 
L 470.354735 50.748385 
L 477.060465 136.670076 
L 481.530952 136.493282 
L 483.766195 136.104336 
L 486.001439 135.962901 
L 488.236682 134.796064 
L 490.471925 134.689987 
L 499.412899 134.689987 
L 506.118629 134.3364 
L 512.824359 134.088889 
L 515.059603 132.356312 
L 528.471063 132.250236 
L 530.706306 132.179518 
L 532.941549 129.067951 
L 535.176793 127.795037 
L 537.412036 124.11773 
L 539.64728 122.208359 
L 541.882523 121.395108 
L 544.117766 117.576367 
L 546.35301 114.252647 
L 548.588253 113.156527 
L 553.05874 111.95433 
L 555.293983 110.964286 
L 557.529226 109.125632 
L 559.76447 108.170947 
L 561.999713 107.499131 
L 564.234957 106.685881 
L 566.4702 106.296935 
L 568.705443 102.796421 
L 570.940687 102.266041 
L 573.17593 101.947812 
L 577.646417 101.877095 
L 579.88166 101.346714 
L 591.057877 101.134561 
L 595.528364 136.670076 
L 602.234094 136.634717 
L 604.469337 136.528641 
L 606.704581 134.583911 
L 608.939824 134.018172 
L 615.645554 133.912096 
L 664.820908 133.487791 
L 667.056151 133.24028 
L 673.761882 133.169562 
L 678.232368 132.462388 
L 684.938098 132.356312 
L 707.290532 132.320953 
L 711.761019 131.507703 
L 716.231506 136.670076 
L 727.407722 136.564 
L 731.878209 136.457923 
L 756.465886 136.351847 
L 758.70113 136.175054 
L 760.936373 136.175054 
L 763.171616 135.573955 
L 765.40686 135.291086 
L 776.583076 134.725346 
L 778.81832 134.477835 
L 794.465023 134.371759 
L 827.993674 133.806019 
L 827.993674 133.806019 
" clip-path="url(#pc1f6d5417b)" style="fill: none; stroke: #4c72b0; stroke-width: 1.5; stroke-linecap: round"/>
   </g>
   <g id="patch_3">
    <path d="M 128.3625 140.975 
L 128.3625 46.266667 
" style="fill: none; stroke: #262626; stroke-width: 1.25; stroke-linejoin: miter; stroke-linecap: square"/>
   </g>
   <g id="patch_4">
    <path d="M 827.993674 140.975 
L 827.993674 46.266667 
" style="fill: none; stroke: #262626; stroke-width: 1.25; stroke-linejoin: miter; stroke-linecap: square"/>
   </g>
   <g id="patch_5">
    <path d="M 128.3625 140.975 
L 827.993674 140.975 
" style="fill: none; stroke: #262626; stroke-width: 1.25; stroke-linejoin: miter; stroke-linecap: square"/>
   </g>
   <g id="patch_6">
    <path d="M 128.3625 46.266667 
L 827.993674 46.266667 
" style="fill: none; stroke: #262626; stroke-width: 1.25; stroke-linejoin: miter; stroke-linecap: square"/>
   </g>
   <g id="text_4">
    <!-- Chikungunya -->
    <g style="fill: #262626" transform="translate(443.155899 40.266667) scale(0.12 -0.12)">
     <defs>
      <path id="ArialMT-43" d="M 3763 1606 
L 4369 1453 
Q 4178 706 3683 314 
Q 3188 -78 2472 -78 
Q 1731 -78 1267 223 
Q 803 525 561 1097 
Q 319 1669 319 2325 
Q 319 3041 592 3573 
Q 866 4106 1370 4382 
Q 1875 4659 2481 4659 
Q 3169 4659 3637 4309 
Q 4106 3959 4291 3325 
L 3694 3184 
Q 3534 3684 3231 3912 
Q 2928 4141 2469 4141 
Q 1941 4141 1586 3887 
Q 1231 3634 1087 3207 
Q 944 2781 944 2328 
Q 944 1744 1114 1308 
Q 1284 872 1643 656 
Q 2003 441 2422 441 
Q 2931 441 3284 734 
Q 3638 1028 3763 1606 
z
" transform="scale(0.015625)"/>
      <path id="ArialMT-68" d="M 422 0 
L 422 4581 
L 984 4581 
L 984 2938 
Q 1378 3394 1978 3394 
Q 2347 3394 2619 3248 
Q 2891 3103 3008 2847 
Q 3125 2591 3125 2103 
L 3125 0 
L 2563 0 
L 2563 2103 
Q 2563 2525 2380 2717 
Q 2197 2909 1863 2909 
Q 1613 2909 1392 2779 
Q 1172 2650 1078 2428 
Q 984 2206 984 1816 
L 984 0 
L 422 0 
z
" transform="scale(0.015625)"/>
      <path id="ArialMT-69" d="M 425 3934 
L 425 4581 
L 988 4581 
L 988 3934 
L 425 3934 
z
M 425 0 
L 425 3319 
L 988 3319 
L 988 0 
L 425 0 
z
" transform="scale(0.015625)"/>
      <path id="ArialMT-6b" d="M 425 0 
L 425 4581 
L 988 4581 
L 988 1969 
L 2319 3319 
L 3047 3319 
L 1778 2088 
L 3175 0 
L 2481 0 
L 1384 1697 
L 988 1316 
L 988 0 
L 425 0 
z
" transform="scale(0.015625)"/>
      <path id="ArialMT-75" d="M 2597 0 
L 2597 488 
Q 2209 -75 1544 -75 
Q 1250 -75 995 37 
Q 741 150 617 320 
Q 494 491 444 738 
Q 409 903 409 1263 
L 409 3319 
L 972 3319 
L 972 1478 
Q 972 1038 1006 884 
Q 1059 663 1231 536 
Q 1403 409 1656 409 
Q 1909 409 2131 539 
Q 2353 669 2445 892 
Q 2538 1116 2538 1541 
L 2538 3319 
L 3100 3319 
L 3100 0 
L 2597 0 
z
" transform="scale(0.015625)"/>
      <path id="ArialMT-6e" d="M 422 0 
L 422 3319 
L 928 3319 
L 928 2847 
Q 1294 3394 1984 3394 
Q 2284 3394 2536 3286 
Q 2788 3178 2913 3003 
Q 3038 2828 3088 2588 
Q 3119 2431 3119 2041 
L 3119 0 
L 2556 0 
L 2556 2019 
Q 2556 2363 2490 2533 
Q 2425 2703 2258 2804 
Q 2091 2906 1866 2906 
Q 1506 2906 1245 2678 
Q 984 2450 984 1813 
L 984 0 
L 422 0 
z
" transform="scale(0.015625)"/>
      <path id="ArialMT-67" d="M 319 -275 
L 866 -356 
Q 900 -609 1056 -725 
Q 1266 -881 1628 -881 
Q 2019 -881 2231 -725 
Q 2444 -569 2519 -288 
Q 2563 -116 2559 434 
Q 2191 0 1641 0 
Q 956 0 581 494 
Q 206 988 206 1678 
Q 206 2153 378 2554 
Q 550 2956 876 3175 
Q 1203 3394 1644 3394 
Q 2231 3394 2613 2919 
L 2613 3319 
L 3131 3319 
L 3131 450 
Q 3131 -325 2973 -648 
Q 2816 -972 2473 -1159 
Q 2131 -1347 1631 -1347 
Q 1038 -1347 672 -1080 
Q 306 -813 319 -275 
z
M 784 1719 
Q 784 1066 1043 766 
Q 1303 466 1694 466 
Q 2081 466 2343 764 
Q 2606 1063 2606 1700 
Q 2606 2309 2336 2618 
Q 2066 2928 1684 2928 
Q 1309 2928 1046 2623 
Q 784 2319 784 1719 
z
" transform="scale(0.015625)"/>
      <path id="ArialMT-79" d="M 397 -1278 
L 334 -750 
Q 519 -800 656 -800 
Q 844 -800 956 -737 
Q 1069 -675 1141 -563 
Q 1194 -478 1313 -144 
Q 1328 -97 1363 -6 
L 103 3319 
L 709 3319 
L 1400 1397 
Q 1534 1031 1641 628 
Q 1738 1016 1872 1384 
L 2581 3319 
L 3144 3319 
L 1881 -56 
Q 1678 -603 1566 -809 
Q 1416 -1088 1222 -1217 
Q 1028 -1347 759 -1347 
Q 597 -1347 397 -1278 
z
" transform="scale(0.015625)"/>
      <path id="ArialMT-61" d="M 2588 409 
Q 2275 144 1986 34 
Q 1697 -75 1366 -75 
Q 819 -75 525 192 
Q 231 459 231 875 
Q 231 1119 342 1320 
Q 453 1522 633 1644 
Q 813 1766 1038 1828 
Q 1203 1872 1538 1913 
Q 2219 1994 2541 2106 
Q 2544 2222 2544 2253 
Q 2544 2597 2384 2738 
Q 2169 2928 1744 2928 
Q 1347 2928 1158 2789 
Q 969 2650 878 2297 
L 328 2372 
Q 403 2725 575 2942 
Q 747 3159 1072 3276 
Q 1397 3394 1825 3394 
Q 2250 3394 2515 3294 
Q 2781 3194 2906 3042 
Q 3031 2891 3081 2659 
Q 3109 2516 3109 2141 
L 3109 1391 
Q 3109 606 3145 398 
Q 3181 191 3288 0 
L 2700 0 
Q 2613 175 2588 409 
z
M 2541 1666 
Q 2234 1541 1622 1453 
Q 1275 1403 1131 1340 
Q 988 1278 909 1158 
Q 831 1038 831 891 
Q 831 666 1001 516 
Q 1172 366 1500 366 
Q 1825 366 2078 508 
Q 2331 650 2450 897 
Q 2541 1088 2541 1459 
L 2541 1666 
z
" transform="scale(0.015625)"/>
     </defs>
     <use xlink:href="#ArialMT-43"/>
     <use xlink:href="#ArialMT-68" x="72.216797"/>
     <use xlink:href="#ArialMT-69" x="127.832031"/>
     <use xlink:href="#ArialMT-6b" x="150.048828"/>
     <use xlink:href="#ArialMT-75" x="200.048828"/>
     <use xlink:href="#ArialMT-6e" x="255.664062"/>
     <use xlink:href="#ArialMT-67" x="311.279297"/>
     <use xlink:href="#ArialMT-75" x="366.894531"/>
     <use xlink:href="#ArialMT-6e" x="422.509766"/>
     <use xlink:href="#ArialMT-79" x="478.125"/>
     <use xlink:href="#ArialMT-61" x="528.125"/>
    </g>
   </g>
  </g>
  <g id="axes_2">
   <g id="patch_7">
    <path d="M 128.3625 267.283333 
L 827.993674 267.283333 
L 827.993674 172.575 
L 128.3625 172.575 
z
" style="fill: #ffffff"/>
   </g>
   <g id="matplotlib.axis_3">
    <g id="xtick_7">
     <g id="line2d_11">
      <g>
       <use xlink:href="#m85ca20754b" x="233.738259" y="267.283333" style="fill: #262626; stroke: #262626; stroke-width: 1.25"/>
      </g>
     </g>
    </g>
    <g id="xtick_8">
     <g id="line2d_12">
      <g>
       <use xlink:href="#m85ca20754b" x="350.290234" y="267.283333" style="fill: #262626; stroke: #262626; stroke-width: 1.25"/>
      </g>
     </g>
    </g>
    <g id="xtick_9">
     <g id="line2d_13">
      <g>
       <use xlink:href="#m85ca20754b" x="466.84221" y="267.283333" style="fill: #262626; stroke: #262626; stroke-width: 1.25"/>
      </g>
     </g>
    </g>
    <g id="xtick_10">
     <g id="line2d_14">
      <g>
       <use xlink:href="#m85ca20754b" x="583.394185" y="267.283333" style="fill: #262626; stroke: #262626; stroke-width: 1.25"/>
      </g>
     </g>
    </g>
    <g id="xtick_11">
     <g id="line2d_15">
      <g>
       <use xlink:href="#m85ca20754b" x="700.265481" y="267.283333" style="fill: #262626; stroke: #262626; stroke-width: 1.25"/>
      </g>
     </g>
    </g>
    <g id="xtick_12">
     <g id="line2d_16">
      <g>
       <use xlink:href="#m85ca20754b" x="816.817457" y="267.283333" style="fill: #262626; stroke: #262626; stroke-width: 1.25"/>
      </g>
     </g>
    </g>
   </g>
   <g id="matplotlib.axis_4">
    <g id="ytick_4">
     <g id="line2d_17">
      <g>
       <use xlink:href="#m3709fc37a9" x="128.3625" y="256.882442" style="fill: #262626; stroke: #262626; stroke-width: 1.25"/>
      </g>
     </g>
     <g id="text_5">
      <!-- 0 -->
      <g style="fill: #262626" transform="translate(112.745469 260.819239) scale(0.11 -0.11)">
       <use xlink:href="#ArialMT-30"/>
      </g>
     </g>
    </g>
    <g id="ytick_5">
     <g id="line2d_18">
      <g>
       <use xlink:href="#m3709fc37a9" x="128.3625" y="225.067027" style="fill: #262626; stroke: #262626; stroke-width: 1.25"/>
      </g>
     </g>
     <g id="text_6">
      <!-- 500 -->
      <g style="fill: #262626" transform="translate(100.511406 229.003824) scale(0.11 -0.11)">
       <defs>
        <path id="ArialMT-35" d="M 266 1200 
L 856 1250 
Q 922 819 1161 601 
Q 1400 384 1738 384 
Q 2144 384 2425 690 
Q 2706 997 2706 1503 
Q 2706 1984 2436 2262 
Q 2166 2541 1728 2541 
Q 1456 2541 1237 2417 
Q 1019 2294 894 2097 
L 366 2166 
L 809 4519 
L 3088 4519 
L 3088 3981 
L 1259 3981 
L 1013 2750 
Q 1425 3038 1878 3038 
Q 2478 3038 2890 2622 
Q 3303 2206 3303 1553 
Q 3303 931 2941 478 
Q 2500 -78 1738 -78 
Q 1113 -78 717 272 
Q 322 622 266 1200 
z
" transform="scale(0.015625)"/>
       </defs>
       <use xlink:href="#ArialMT-35"/>
       <use xlink:href="#ArialMT-30" x="55.615234"/>
       <use xlink:href="#ArialMT-30" x="111.230469"/>
      </g>
     </g>
    </g>
    <g id="ytick_6">
     <g id="line2d_19">
      <g>
       <use xlink:href="#m3709fc37a9" x="128.3625" y="193.251613" style="fill: #262626; stroke: #262626; stroke-width: 1.25"/>
      </g>
     </g>
     <g id="text_7">
      <!-- 1000 -->
      <g style="fill: #262626" transform="translate(94.394375 197.188409) scale(0.11 -0.11)">
       <use xlink:href="#ArialMT-31"/>
       <use xlink:href="#ArialMT-30" x="55.615234"/>
       <use xlink:href="#ArialMT-30" x="111.230469"/>
       <use xlink:href="#ArialMT-30" x="166.845703"/>
      </g>
     </g>
    </g>
    <g id="text_8">
     <!-- Trend -->
     <g style="fill: #262626" transform="translate(88.009375 235.376354) rotate(-90) scale(0.12 -0.12)">
      <defs>
       <path id="ArialMT-54" d="M 1659 0 
L 1659 4041 
L 150 4041 
L 150 4581 
L 3781 4581 
L 3781 4041 
L 2266 4041 
L 2266 0 
L 1659 0 
z
" transform="scale(0.015625)"/>
       <path id="ArialMT-72" d="M 416 0 
L 416 3319 
L 922 3319 
L 922 2816 
Q 1116 3169 1280 3281 
Q 1444 3394 1641 3394 
Q 1925 3394 2219 3213 
L 2025 2691 
Q 1819 2813 1613 2813 
Q 1428 2813 1281 2702 
Q 1134 2591 1072 2394 
Q 978 2094 978 1738 
L 978 0 
L 416 0 
z
" transform="scale(0.015625)"/>
       <path id="ArialMT-65" d="M 2694 1069 
L 3275 997 
Q 3138 488 2766 206 
Q 2394 -75 1816 -75 
Q 1088 -75 661 373 
Q 234 822 234 1631 
Q 234 2469 665 2931 
Q 1097 3394 1784 3394 
Q 2450 3394 2872 2941 
Q 3294 2488 3294 1666 
Q 3294 1616 3291 1516 
L 816 1516 
Q 847 969 1125 678 
Q 1403 388 1819 388 
Q 2128 388 2347 550 
Q 2566 713 2694 1069 
z
M 847 1978 
L 2700 1978 
Q 2663 2397 2488 2606 
Q 2219 2931 1791 2931 
Q 1403 2931 1139 2672 
Q 875 2413 847 1978 
z
" transform="scale(0.015625)"/>
       <path id="ArialMT-64" d="M 2575 0 
L 2575 419 
Q 2259 -75 1647 -75 
Q 1250 -75 917 144 
Q 584 363 401 755 
Q 219 1147 219 1656 
Q 219 2153 384 2558 
Q 550 2963 881 3178 
Q 1213 3394 1622 3394 
Q 1922 3394 2156 3267 
Q 2391 3141 2538 2938 
L 2538 4581 
L 3097 4581 
L 3097 0 
L 2575 0 
z
M 797 1656 
Q 797 1019 1065 703 
Q 1334 388 1700 388 
Q 2069 388 2326 689 
Q 2584 991 2584 1609 
Q 2584 2291 2321 2609 
Q 2059 2928 1675 2928 
Q 1300 2928 1048 2622 
Q 797 2316 797 1656 
z
" transform="scale(0.015625)"/>
      </defs>
      <use xlink:href="#ArialMT-54"/>
      <use xlink:href="#ArialMT-72" x="57.333984"/>
      <use xlink:href="#ArialMT-65" x="90.634766"/>
      <use xlink:href="#ArialMT-6e" x="146.25"/>
      <use xlink:href="#ArialMT-64" x="201.865234"/>
     </g>
    </g>
   </g>
   <g id="line2d_20">
    <path d="M 128.3625 262.978409 
L 139.538717 261.390346 
L 144.009204 261.051802 
L 155.18542 259.240578 
L 166.361637 257.213417 
L 177.537854 254.955878 
L 188.714071 252.474798 
L 202.125531 249.264539 
L 224.477965 243.861149 
L 231.183695 242.331788 
L 240.124668 241.795648 
L 244.595155 239.834563 
L 249.065642 237.646027 
L 253.536129 235.187293 
L 258.006615 232.436158 
L 262.477102 229.412719 
L 269.182832 224.483391 
L 289.300022 209.135415 
L 293.770509 206.055194 
L 298.240996 203.207593 
L 302.711483 200.616531 
L 307.181969 198.286579 
L 311.652456 196.203586 
L 316.122943 194.338069 
L 322.828673 191.855367 
L 331.769646 188.883203 
L 345.181107 184.478057 
L 351.886837 182.161546 
L 356.357323 181.401192 
L 360.82781 179.967153 
L 365.298297 178.729377 
L 369.768784 177.768228 
L 374.23927 177.140358 
L 403.297434 176.999725 
L 407.767921 177.491791 
L 410.003164 177.869634 
L 414.473651 178.328978 
L 418.944138 179.467204 
L 423.414624 180.84871 
L 430.120355 183.229685 
L 448.002301 189.857838 
L 454.708032 192.034148 
L 463.649005 194.625287 
L 470.354735 196.492728 
L 477.060465 197.142781 
L 483.766195 199.29218 
L 488.236682 200.92991 
L 490.471925 201.808625 
L 499.412899 202.724318 
L 506.118629 205.668528 
L 515.059603 209.924057 
L 528.471063 216.356724 
L 535.176793 219.256457 
L 539.64728 220.979756 
L 544.117766 222.507464 
L 548.588253 223.832112 
L 553.05874 224.961265 
L 557.529226 225.917046 
L 564.234957 227.102724 
L 582.116904 229.993438 
L 588.822634 231.414665 
L 591.057877 231.941362 
L 595.528364 232.490795 
L 604.469337 234.882407 
L 615.645554 238.150633 
L 651.409448 238.810415 
L 662.585665 241.993267 
L 669.291395 243.752017 
L 678.232368 244.847356 
L 687.173342 246.857868 
L 693.879072 247.326489 
L 705.055289 249.498507 
L 707.290532 249.901573 
L 716.231506 250.678458 
L 725.172479 252.118257 
L 736.348696 252.901269 
L 751.995399 253.787334 
L 767.642103 254.439673 
L 783.288807 254.865881 
L 801.170753 255.130827 
L 821.287944 255.201505 
L 827.993674 255.177869 
L 827.993674 255.177869 
" clip-path="url(#p6f1241efaf)" style="fill: none; stroke: #4c72b0; stroke-width: 1.5; stroke-linecap: round"/>
   </g>
   <g id="patch_8">
    <path d="M 128.3625 267.283333 
L 128.3625 172.575 
" style="fill: none; stroke: #262626; stroke-width: 1.25; stroke-linejoin: miter; stroke-linecap: square"/>
   </g>
   <g id="patch_9">
    <path d="M 827.993674 267.283333 
L 827.993674 172.575 
" style="fill: none; stroke: #262626; stroke-width: 1.25; stroke-linejoin: miter; stroke-linecap: square"/>
   </g>
   <g id="patch_10">
    <path d="M 128.3625 267.283333 
L 827.993674 267.283333 
" style="fill: none; stroke: #262626; stroke-width: 1.25; stroke-linejoin: miter; stroke-linecap: square"/>
   </g>
   <g id="patch_11">
    <path d="M 128.3625 172.575 
L 827.993674 172.575 
" style="fill: none; stroke: #262626; stroke-width: 1.25; stroke-linejoin: miter; stroke-linecap: square"/>
   </g>
  </g>
  <g id="axes_3">
   <g id="patch_12">
    <path d="M 128.3625 393.591667 
L 827.993674 393.591667 
L 827.993674 298.883333 
L 128.3625 298.883333 
z
" style="fill: #ffffff"/>
   </g>
   <g id="matplotlib.axis_5">
    <g id="xtick_13">
     <g id="line2d_21">
      <g>
       <use xlink:href="#m85ca20754b" x="233.738259" y="393.591667" style="fill: #262626; stroke: #262626; stroke-width: 1.25"/>
      </g>
     </g>
    </g>
    <g id="xtick_14">
     <g id="line2d_22">
      <g>
       <use xlink:href="#m85ca20754b" x="350.290234" y="393.591667" style="fill: #262626; stroke: #262626; stroke-width: 1.25"/>
      </g>
     </g>
    </g>
    <g id="xtick_15">
     <g id="line2d_23">
      <g>
       <use xlink:href="#m85ca20754b" x="466.84221" y="393.591667" style="fill: #262626; stroke: #262626; stroke-width: 1.25"/>
      </g>
     </g>
    </g>
    <g id="xtick_16">
     <g id="line2d_24">
      <g>
       <use xlink:href="#m85ca20754b" x="583.394185" y="393.591667" style="fill: #262626; stroke: #262626; stroke-width: 1.25"/>
      </g>
     </g>
    </g>
    <g id="xtick_17">
     <g id="line2d_25">
      <g>
       <use xlink:href="#m85ca20754b" x="700.265481" y="393.591667" style="fill: #262626; stroke: #262626; stroke-width: 1.25"/>
      </g>
     </g>
    </g>
    <g id="xtick_18">
     <g id="line2d_26">
      <g>
       <use xlink:href="#m85ca20754b" x="816.817457" y="393.591667" style="fill: #262626; stroke: #262626; stroke-width: 1.25"/>
      </g>
     </g>
    </g>
   </g>
   <g id="matplotlib.axis_6">
    <g id="ytick_7">
     <g id="line2d_27">
      <g>
       <use xlink:href="#m3709fc37a9" x="128.3625" y="381.317991" style="fill: #262626; stroke: #262626; stroke-width: 1.25"/>
      </g>
     </g>
     <g id="text_9">
      <!-- −500 -->
      <g style="fill: #262626" transform="translate(94.086719 385.254788) scale(0.11 -0.11)">
       <defs>
        <path id="ArialMT-2212" d="M 3381 1997 
L 356 1997 
L 356 2522 
L 3381 2522 
L 3381 1997 
z
" transform="scale(0.015625)"/>
       </defs>
       <use xlink:href="#ArialMT-2212"/>
       <use xlink:href="#ArialMT-35" x="58.398438"/>
       <use xlink:href="#ArialMT-30" x="114.013672"/>
       <use xlink:href="#ArialMT-30" x="169.628906"/>
      </g>
     </g>
    </g>
    <g id="ytick_8">
     <g id="line2d_28">
      <g>
       <use xlink:href="#m3709fc37a9" x="128.3625" y="351.721386" style="fill: #262626; stroke: #262626; stroke-width: 1.25"/>
      </g>
     </g>
     <g id="text_10">
      <!-- 0 -->
      <g style="fill: #262626" transform="translate(112.745469 355.658183) scale(0.11 -0.11)">
       <use xlink:href="#ArialMT-30"/>
      </g>
     </g>
    </g>
    <g id="ytick_9">
     <g id="line2d_29">
      <g>
       <use xlink:href="#m3709fc37a9" x="128.3625" y="322.124781" style="fill: #262626; stroke: #262626; stroke-width: 1.25"/>
      </g>
     </g>
     <g id="text_11">
      <!-- 500 -->
      <g style="fill: #262626" transform="translate(100.511406 326.061578) scale(0.11 -0.11)">
       <use xlink:href="#ArialMT-35"/>
       <use xlink:href="#ArialMT-30" x="55.615234"/>
       <use xlink:href="#ArialMT-30" x="111.230469"/>
      </g>
     </g>
    </g>
    <g id="text_12">
     <!-- Season -->
     <g style="fill: #262626" transform="translate(87.701719 366.585937) rotate(-90) scale(0.12 -0.12)">
      <defs>
       <path id="ArialMT-53" d="M 288 1472 
L 859 1522 
Q 900 1178 1048 958 
Q 1197 738 1509 602 
Q 1822 466 2213 466 
Q 2559 466 2825 569 
Q 3091 672 3220 851 
Q 3350 1031 3350 1244 
Q 3350 1459 3225 1620 
Q 3100 1781 2813 1891 
Q 2628 1963 1997 2114 
Q 1366 2266 1113 2400 
Q 784 2572 623 2826 
Q 463 3081 463 3397 
Q 463 3744 659 4045 
Q 856 4347 1234 4503 
Q 1613 4659 2075 4659 
Q 2584 4659 2973 4495 
Q 3363 4331 3572 4012 
Q 3781 3694 3797 3291 
L 3216 3247 
Q 3169 3681 2898 3903 
Q 2628 4125 2100 4125 
Q 1550 4125 1298 3923 
Q 1047 3722 1047 3438 
Q 1047 3191 1225 3031 
Q 1400 2872 2139 2705 
Q 2878 2538 3153 2413 
Q 3553 2228 3743 1945 
Q 3934 1663 3934 1294 
Q 3934 928 3725 604 
Q 3516 281 3123 101 
Q 2731 -78 2241 -78 
Q 1619 -78 1198 103 
Q 778 284 539 648 
Q 300 1013 288 1472 
z
" transform="scale(0.015625)"/>
       <path id="ArialMT-73" d="M 197 991 
L 753 1078 
Q 800 744 1014 566 
Q 1228 388 1613 388 
Q 2000 388 2187 545 
Q 2375 703 2375 916 
Q 2375 1106 2209 1216 
Q 2094 1291 1634 1406 
Q 1016 1563 777 1677 
Q 538 1791 414 1992 
Q 291 2194 291 2438 
Q 291 2659 392 2848 
Q 494 3038 669 3163 
Q 800 3259 1026 3326 
Q 1253 3394 1513 3394 
Q 1903 3394 2198 3281 
Q 2494 3169 2634 2976 
Q 2775 2784 2828 2463 
L 2278 2388 
Q 2241 2644 2061 2787 
Q 1881 2931 1553 2931 
Q 1166 2931 1000 2803 
Q 834 2675 834 2503 
Q 834 2394 903 2306 
Q 972 2216 1119 2156 
Q 1203 2125 1616 2013 
Q 2213 1853 2448 1751 
Q 2684 1650 2818 1456 
Q 2953 1263 2953 975 
Q 2953 694 2789 445 
Q 2625 197 2315 61 
Q 2006 -75 1616 -75 
Q 969 -75 630 194 
Q 291 463 197 991 
z
" transform="scale(0.015625)"/>
       <path id="ArialMT-6f" d="M 213 1659 
Q 213 2581 725 3025 
Q 1153 3394 1769 3394 
Q 2453 3394 2887 2945 
Q 3322 2497 3322 1706 
Q 3322 1066 3130 698 
Q 2938 331 2570 128 
Q 2203 -75 1769 -75 
Q 1072 -75 642 372 
Q 213 819 213 1659 
z
M 791 1659 
Q 791 1022 1069 705 
Q 1347 388 1769 388 
Q 2188 388 2466 706 
Q 2744 1025 2744 1678 
Q 2744 2294 2464 2611 
Q 2184 2928 1769 2928 
Q 1347 2928 1069 2612 
Q 791 2297 791 1659 
z
" transform="scale(0.015625)"/>
      </defs>
      <use xlink:href="#ArialMT-53"/>
      <use xlink:href="#ArialMT-65" x="66.699219"/>
      <use xlink:href="#ArialMT-61" x="122.314453"/>
      <use xlink:href="#ArialMT-73" x="177.929688"/>
      <use xlink:href="#ArialMT-6f" x="227.929688"/>
      <use xlink:href="#ArialMT-6e" x="283.544922"/>
     </g>
    </g>
   </g>
   <g id="line2d_30">
    <path d="M 128.3625 340.881277 
L 130.597743 352.390574 
L 132.832987 352.164564 
L 135.06823 352.291907 
L 137.303473 352.133544 
L 139.538717 352.540662 
L 144.009204 352.532508 
L 146.244447 353.074406 
L 148.47969 353.775377 
L 150.714934 354.954972 
L 152.950177 354.868736 
L 155.18542 355.549101 
L 157.420664 356.064217 
L 159.655907 357.050696 
L 161.891151 357.481246 
L 164.126394 358.369131 
L 166.361637 358.934704 
L 170.832124 360.482268 
L 173.067367 361.785332 
L 175.302611 361.76484 
L 177.537854 362.002592 
L 179.773097 362.824004 
L 182.008341 362.310197 
L 184.243584 359.764151 
L 186.478828 360.107912 
L 188.714071 351.916704 
L 190.949314 351.539488 
L 193.184558 352.477108 
L 195.419801 344.662823 
L 197.655044 344.6134 
L 199.890288 341.455043 
L 202.125531 342.044497 
L 204.360774 340.936422 
L 206.596018 340.961748 
L 208.831261 334.908672 
L 211.066505 335.176992 
L 213.301748 334.466223 
L 215.536991 334.264393 
L 222.242721 335.886934 
L 224.477965 332.81755 
L 226.713208 342.787743 
L 228.948452 336.804228 
L 231.183695 337.185508 
L 240.124668 335.559293 
L 242.359912 332.219628 
L 244.595155 342.1427 
L 246.830398 372.173479 
L 249.065642 371.688007 
L 251.300885 371.558827 
L 253.536129 370.851106 
L 255.771372 370.831682 
L 258.006615 369.417692 
L 262.477102 369.433047 
L 264.712345 369.639079 
L 266.947589 368.368396 
L 269.182832 368.581453 
L 271.418075 368.537215 
L 273.653319 368.987732 
L 275.888562 368.181931 
L 278.123806 368.575051 
L 280.359049 368.050941 
L 282.594292 366.924001 
L 284.829536 366.815902 
L 287.064779 366.13555 
L 289.300022 363.560689 
L 293.770509 360.418906 
L 296.005753 356.874292 
L 298.240996 352.759581 
L 300.476239 351.638774 
L 302.711483 343.697823 
L 304.946726 340.552618 
L 307.181969 340.347448 
L 309.417213 332.830458 
L 311.652456 332.221548 
L 313.887699 329.064735 
L 316.122943 328.961407 
L 318.358186 326.244363 
L 320.59343 325.264124 
L 322.828673 319.769576 
L 325.063916 319.596385 
L 327.29916 318.692337 
L 329.534403 317.638421 
L 334.00489 317.873309 
L 336.240133 317.875651 
L 338.475377 315.010173 
L 340.71062 343.874628 
L 342.945863 348.494146 
L 345.181107 348.518868 
L 347.41635 346.784944 
L 349.651593 344.471944 
L 351.886837 346.808212 
L 356.357323 387.619848 
L 358.592567 386.859164 
L 360.82781 386.481703 
L 363.063054 385.377673 
L 365.298297 384.9912 
L 367.53354 382.612939 
L 372.004027 381.680445 
L 374.23927 381.01086 
L 398.826947 378.796293 
L 401.062191 378.339593 
L 403.297434 378.35332 
L 405.532678 376.712354 
L 407.767921 376.719747 
L 414.473651 372.763818 
L 416.708894 371.896283 
L 418.944138 369.56181 
L 421.179381 365.201312 
L 423.414624 362.312575 
L 425.649868 358.938857 
L 427.885111 353.203148 
L 430.120355 348.100472 
L 432.355598 345.994268 
L 434.590841 338.398814 
L 436.826085 333.448504 
L 439.061328 332.24243 
L 441.296571 325.51114 
L 443.531815 324.474737 
L 445.767058 321.31611 
L 448.002301 320.704324 
L 450.237545 316.663433 
L 452.472788 314.987445 
L 454.708032 309.967367 
L 456.943275 309.473109 
L 459.178518 308.434532 
L 461.413762 306.76331 
L 465.884248 306.311778 
L 468.119492 305.909703 
L 470.354735 303.188258 
L 477.060465 343.293553 
L 479.295709 357.993405 
L 481.530952 357.697753 
L 483.766195 355.841486 
L 486.001439 354.489074 
L 488.236682 353.58067 
L 490.471925 389.286742 
L 499.412899 388.335306 
L 501.648142 387.803493 
L 503.883386 386.628214 
L 506.118629 386.001152 
L 508.353872 383.425472 
L 510.589116 382.730026 
L 512.824359 381.854512 
L 515.059603 380.624842 
L 517.294846 378.547233 
L 519.530089 378.066507 
L 521.765333 377.343465 
L 524.000576 376.859214 
L 526.235819 374.997838 
L 528.471063 374.586967 
L 530.706306 372.836497 
L 532.941549 369.915307 
L 535.176793 368.670802 
L 537.412036 365.838397 
L 539.64728 361.495521 
L 541.882523 358.498169 
L 544.117766 354.842235 
L 546.35301 349.358857 
L 548.588253 345.250288 
L 550.823496 342.988848 
L 553.05874 338.712648 
L 555.293983 333.935879 
L 557.529226 332.213273 
L 559.76447 329.821612 
L 561.999713 328.832066 
L 564.234957 326.958963 
L 566.4702 330.183309 
L 568.705443 326.762864 
L 570.940687 325.321052 
L 573.17593 323.121174 
L 577.646417 322.015977 
L 579.88166 320.646784 
L 584.352147 319.920899 
L 586.58739 319.407853 
L 588.822634 318.169651 
L 591.057877 347.516514 
L 595.528364 365.72098 
L 597.763607 365.362631 
L 599.99885 364.420855 
L 602.234094 363.785662 
L 604.469337 362.858823 
L 606.704581 373.327868 
L 608.939824 372.211406 
L 611.175067 371.584414 
L 613.410311 370.839823 
L 615.645554 370.262903 
L 651.409448 368.83436 
L 653.644691 368.291223 
L 655.879935 367.597317 
L 658.115178 366.374901 
L 660.350421 365.427359 
L 664.820908 364.455698 
L 667.056151 363.898791 
L 669.291395 362.967369 
L 673.761882 362.499988 
L 678.232368 361.354893 
L 680.467612 359.519201 
L 682.702855 358.53397 
L 687.173342 354.644239 
L 693.879072 353.2767 
L 696.114315 351.147059 
L 698.349559 348.580585 
L 700.584802 346.995294 
L 705.055289 344.743095 
L 707.290532 342.837814 
L 711.761019 341.447523 
L 716.231506 342.850811 
L 718.466749 342.277524 
L 720.701992 341.546212 
L 722.937236 343.393261 
L 725.172479 340.799011 
L 727.407722 339.838245 
L 729.642966 340.720858 
L 731.878209 340.298989 
L 734.113452 340.202946 
L 736.348696 339.336361 
L 743.054426 337.861677 
L 745.289669 338.232452 
L 747.524913 349.232773 
L 749.760156 371.873624 
L 751.995399 371.472099 
L 756.465886 371.561273 
L 758.70113 370.710763 
L 760.936373 354.548891 
L 763.171616 353.198962 
L 765.40686 352.468968 
L 767.642103 352.176676 
L 769.877346 351.684513 
L 772.11259 351.502655 
L 776.583076 350.73711 
L 778.81832 349.73338 
L 781.053563 350.00679 
L 787.759293 348.845637 
L 789.994537 348.979961 
L 801.170753 346.63593 
L 803.405997 347.327493 
L 805.64124 347.815627 
L 807.876484 347.664001 
L 810.111727 348.437865 
L 812.34697 349.439516 
L 814.582214 349.637155 
L 816.817457 351.153283 
L 819.0527 352.410969 
L 821.287944 351.555124 
L 823.523187 356.510927 
L 825.758431 356.415571 
L 827.993674 356.651022 
L 827.993674 356.651022 
" clip-path="url(#p1553ebca3d)" style="fill: none; stroke: #4c72b0; stroke-width: 1.5; stroke-linecap: round"/>
   </g>
   <g id="patch_13">
    <path d="M 128.3625 393.591667 
L 128.3625 298.883333 
" style="fill: none; stroke: #262626; stroke-width: 1.25; stroke-linejoin: miter; stroke-linecap: square"/>
   </g>
   <g id="patch_14">
    <path d="M 827.993674 393.591667 
L 827.993674 298.883333 
" style="fill: none; stroke: #262626; stroke-width: 1.25; stroke-linejoin: miter; stroke-linecap: square"/>
   </g>
   <g id="patch_15">
    <path d="M 128.3625 393.591667 
L 827.993674 393.591667 
" style="fill: none; stroke: #262626; stroke-width: 1.25; stroke-linejoin: miter; stroke-linecap: square"/>
   </g>
   <g id="patch_16">
    <path d="M 128.3625 298.883333 
L 827.993674 298.883333 
" style="fill: none; stroke: #262626; stroke-width: 1.25; stroke-linejoin: miter; stroke-linecap: square"/>
   </g>
  </g>
  <g id="axes_4">
   <g id="patch_17">
    <path d="M 128.3625 519.9 
L 827.993674 519.9 
L 827.993674 425.191667 
L 128.3625 425.191667 
z
" style="fill: #ffffff"/>
   </g>
   <g id="line2d_31">
    <path d="M 128.3625 474.384557 
L 827.993674 474.384557 
" clip-path="url(#p3d46c48a77)" style="fill: none; stroke: #000000; stroke-width: 1.5; stroke-linecap: round"/>
   </g>
   <g id="matplotlib.axis_7">
    <g id="xtick_19">
     <g id="line2d_32">
      <g>
       <use xlink:href="#m85ca20754b" x="233.738259" y="519.9" style="fill: #262626; stroke: #262626; stroke-width: 1.25"/>
      </g>
     </g>
     <g id="text_13">
      <!-- 2017 -->
      <g style="fill: #262626" transform="translate(221.504196 537.273594) scale(0.11 -0.11)">
       <defs>
        <path id="ArialMT-37" d="M 303 3981 
L 303 4522 
L 3269 4522 
L 3269 4084 
Q 2831 3619 2401 2847 
Q 1972 2075 1738 1259 
Q 1569 684 1522 0 
L 944 0 
Q 953 541 1156 1306 
Q 1359 2072 1739 2783 
Q 2119 3494 2547 3981 
L 303 3981 
z
" transform="scale(0.015625)"/>
       </defs>
       <use xlink:href="#ArialMT-32"/>
       <use xlink:href="#ArialMT-30" x="55.615234"/>
       <use xlink:href="#ArialMT-31" x="111.230469"/>
       <use xlink:href="#ArialMT-37" x="166.845703"/>
      </g>
     </g>
    </g>
    <g id="xtick_20">
     <g id="line2d_33">
      <g>
       <use xlink:href="#m85ca20754b" x="350.290234" y="519.9" style="fill: #262626; stroke: #262626; stroke-width: 1.25"/>
      </g>
     </g>
     <g id="text_14">
      <!-- 2018 -->
      <g style="fill: #262626" transform="translate(338.056172 537.273594) scale(0.11 -0.11)">
       <defs>
        <path id="ArialMT-38" d="M 1131 2484 
Q 781 2613 612 2850 
Q 444 3088 444 3419 
Q 444 3919 803 4259 
Q 1163 4600 1759 4600 
Q 2359 4600 2725 4251 
Q 3091 3903 3091 3403 
Q 3091 3084 2923 2848 
Q 2756 2613 2416 2484 
Q 2838 2347 3058 2040 
Q 3278 1734 3278 1309 
Q 3278 722 2862 322 
Q 2447 -78 1769 -78 
Q 1091 -78 675 323 
Q 259 725 259 1325 
Q 259 1772 486 2073 
Q 713 2375 1131 2484 
z
M 1019 3438 
Q 1019 3113 1228 2906 
Q 1438 2700 1772 2700 
Q 2097 2700 2305 2904 
Q 2513 3109 2513 3406 
Q 2513 3716 2298 3927 
Q 2084 4138 1766 4138 
Q 1444 4138 1231 3931 
Q 1019 3725 1019 3438 
z
M 838 1322 
Q 838 1081 952 856 
Q 1066 631 1291 507 
Q 1516 384 1775 384 
Q 2178 384 2440 643 
Q 2703 903 2703 1303 
Q 2703 1709 2433 1975 
Q 2163 2241 1756 2241 
Q 1359 2241 1098 1978 
Q 838 1716 838 1322 
z
" transform="scale(0.015625)"/>
       </defs>
       <use xlink:href="#ArialMT-32"/>
       <use xlink:href="#ArialMT-30" x="55.615234"/>
       <use xlink:href="#ArialMT-31" x="111.230469"/>
       <use xlink:href="#ArialMT-38" x="166.845703"/>
      </g>
     </g>
    </g>
    <g id="xtick_21">
     <g id="line2d_34">
      <g>
       <use xlink:href="#m85ca20754b" x="466.84221" y="519.9" style="fill: #262626; stroke: #262626; stroke-width: 1.25"/>
      </g>
     </g>
     <g id="text_15">
      <!-- 2019 -->
      <g style="fill: #262626" transform="translate(454.608147 537.273594) scale(0.11 -0.11)">
       <defs>
        <path id="ArialMT-39" d="M 350 1059 
L 891 1109 
Q 959 728 1153 556 
Q 1347 384 1650 384 
Q 1909 384 2104 503 
Q 2300 622 2425 820 
Q 2550 1019 2634 1356 
Q 2719 1694 2719 2044 
Q 2719 2081 2716 2156 
Q 2547 1888 2255 1720 
Q 1963 1553 1622 1553 
Q 1053 1553 659 1965 
Q 266 2378 266 3053 
Q 266 3750 677 4175 
Q 1088 4600 1706 4600 
Q 2153 4600 2523 4359 
Q 2894 4119 3086 3673 
Q 3278 3228 3278 2384 
Q 3278 1506 3087 986 
Q 2897 466 2520 194 
Q 2144 -78 1638 -78 
Q 1100 -78 759 220 
Q 419 519 350 1059 
z
M 2653 3081 
Q 2653 3566 2395 3850 
Q 2138 4134 1775 4134 
Q 1400 4134 1122 3828 
Q 844 3522 844 3034 
Q 844 2597 1108 2323 
Q 1372 2050 1759 2050 
Q 2150 2050 2401 2323 
Q 2653 2597 2653 3081 
z
" transform="scale(0.015625)"/>
       </defs>
       <use xlink:href="#ArialMT-32"/>
       <use xlink:href="#ArialMT-30" x="55.615234"/>
       <use xlink:href="#ArialMT-31" x="111.230469"/>
       <use xlink:href="#ArialMT-39" x="166.845703"/>
      </g>
     </g>
    </g>
    <g id="xtick_22">
     <g id="line2d_35">
      <g>
       <use xlink:href="#m85ca20754b" x="583.394185" y="519.9" style="fill: #262626; stroke: #262626; stroke-width: 1.25"/>
      </g>
     </g>
     <g id="text_16">
      <!-- 2020 -->
      <g style="fill: #262626" transform="translate(571.160123 537.273594) scale(0.11 -0.11)">
       <use xlink:href="#ArialMT-32"/>
       <use xlink:href="#ArialMT-30" x="55.615234"/>
       <use xlink:href="#ArialMT-32" x="111.230469"/>
       <use xlink:href="#ArialMT-30" x="166.845703"/>
      </g>
     </g>
    </g>
    <g id="xtick_23">
     <g id="line2d_36">
      <g>
       <use xlink:href="#m85ca20754b" x="700.265481" y="519.9" style="fill: #262626; stroke: #262626; stroke-width: 1.25"/>
      </g>
     </g>
     <g id="text_17">
      <!-- 2021 -->
      <g style="fill: #262626" transform="translate(688.031419 537.273594) scale(0.11 -0.11)">
       <use xlink:href="#ArialMT-32"/>
       <use xlink:href="#ArialMT-30" x="55.615234"/>
       <use xlink:href="#ArialMT-32" x="111.230469"/>
       <use xlink:href="#ArialMT-31" x="166.845703"/>
      </g>
     </g>
    </g>
    <g id="xtick_24">
     <g id="line2d_37">
      <g>
       <use xlink:href="#m85ca20754b" x="816.817457" y="519.9" style="fill: #262626; stroke: #262626; stroke-width: 1.25"/>
      </g>
     </g>
     <g id="text_18">
      <!-- 2022 -->
      <g style="fill: #262626" transform="translate(804.583395 537.273594) scale(0.11 -0.11)">
       <use xlink:href="#ArialMT-32"/>
       <use xlink:href="#ArialMT-30" x="55.615234"/>
       <use xlink:href="#ArialMT-32" x="111.230469"/>
       <use xlink:href="#ArialMT-32" x="166.845703"/>
      </g>
     </g>
    </g>
   </g>
   <g id="matplotlib.axis_8">
    <g id="ytick_10">
     <g id="line2d_38">
      <g>
       <use xlink:href="#m3709fc37a9" x="128.3625" y="512.499174" style="fill: #262626; stroke: #262626; stroke-width: 1.25"/>
      </g>
     </g>
     <g id="text_19">
      <!-- −1000 -->
      <g style="fill: #262626" transform="translate(87.969687 516.43597) scale(0.11 -0.11)">
       <use xlink:href="#ArialMT-2212"/>
       <use xlink:href="#ArialMT-31" x="58.398438"/>
       <use xlink:href="#ArialMT-30" x="114.013672"/>
       <use xlink:href="#ArialMT-30" x="169.628906"/>
       <use xlink:href="#ArialMT-30" x="225.244141"/>
      </g>
     </g>
    </g>
    <g id="ytick_11">
     <g id="line2d_39">
      <g>
       <use xlink:href="#m3709fc37a9" x="128.3625" y="474.384557" style="fill: #262626; stroke: #262626; stroke-width: 1.25"/>
      </g>
     </g>
     <g id="text_20">
      <!-- 0 -->
      <g style="fill: #262626" transform="translate(112.745469 478.321354) scale(0.11 -0.11)">
       <use xlink:href="#ArialMT-30"/>
      </g>
     </g>
    </g>
    <g id="ytick_12">
     <g id="line2d_40">
      <g>
       <use xlink:href="#m3709fc37a9" x="128.3625" y="436.269941" style="fill: #262626; stroke: #262626; stroke-width: 1.25"/>
      </g>
     </g>
     <g id="text_21">
      <!-- 1000 -->
      <g style="fill: #262626" transform="translate(94.394375 440.206737) scale(0.11 -0.11)">
       <use xlink:href="#ArialMT-31"/>
       <use xlink:href="#ArialMT-30" x="55.615234"/>
       <use xlink:href="#ArialMT-30" x="111.230469"/>
       <use xlink:href="#ArialMT-30" x="166.845703"/>
      </g>
     </g>
    </g>
    <g id="text_22">
     <!-- Resid -->
     <g style="fill: #262626" transform="translate(81.584687 487.885208) rotate(-90) scale(0.12 -0.12)">
      <defs>
       <path id="ArialMT-52" d="M 503 0 
L 503 4581 
L 2534 4581 
Q 3147 4581 3465 4457 
Q 3784 4334 3975 4021 
Q 4166 3709 4166 3331 
Q 4166 2844 3850 2509 
Q 3534 2175 2875 2084 
Q 3116 1969 3241 1856 
Q 3506 1613 3744 1247 
L 4541 0 
L 3778 0 
L 3172 953 
Q 2906 1366 2734 1584 
Q 2563 1803 2427 1890 
Q 2291 1978 2150 2013 
Q 2047 2034 1813 2034 
L 1109 2034 
L 1109 0 
L 503 0 
z
M 1109 2559 
L 2413 2559 
Q 2828 2559 3062 2645 
Q 3297 2731 3419 2920 
Q 3541 3109 3541 3331 
Q 3541 3656 3305 3865 
Q 3069 4075 2559 4075 
L 1109 4075 
L 1109 2559 
z
" transform="scale(0.015625)"/>
      </defs>
      <use xlink:href="#ArialMT-52"/>
      <use xlink:href="#ArialMT-65" x="72.216797"/>
      <use xlink:href="#ArialMT-73" x="127.832031"/>
      <use xlink:href="#ArialMT-69" x="177.832031"/>
      <use xlink:href="#ArialMT-64" x="200.048828"/>
     </g>
    </g>
   </g>
   <g id="line2d_41">
    <defs>
     <path id="mdf3e93990d" d="M 0 3 
C 0.795609 3 1.55874 2.683901 2.12132 2.12132 
C 2.683901 1.55874 3 0.795609 3 0 
C 3 -0.795609 2.683901 -1.55874 2.12132 -2.12132 
C 1.55874 -2.683901 0.795609 -3 0 -3 
C -0.795609 -3 -1.55874 -2.683901 -2.12132 -2.12132 
C -2.683901 -1.55874 -3 -0.795609 -3 0 
C -3 0.795609 -2.683901 1.55874 -2.12132 2.12132 
C -1.55874 2.683901 -0.795609 3 0 3 
z
" style="stroke: #4c72b0"/>
    </defs>
    <g clip-path="url(#p3d46c48a77)">
     <use xlink:href="#mdf3e93990d" x="128.3625" y="477.446261" style="fill: #4c72b0; stroke: #4c72b0"/>
     <use xlink:href="#mdf3e93990d" x="130.597743" y="470.217837" style="fill: #4c72b0; stroke: #4c72b0"/>
     <use xlink:href="#mdf3e93990d" x="132.832987" y="470.549539" style="fill: #4c72b0; stroke: #4c72b0"/>
     <use xlink:href="#mdf3e93990d" x="135.06823" y="470.657626" style="fill: #4c72b0; stroke: #4c72b0"/>
     <use xlink:href="#mdf3e93990d" x="137.303473" y="470.801296" style="fill: #4c72b0; stroke: #4c72b0"/>
     <use xlink:href="#mdf3e93990d" x="139.538717" y="470.737547" style="fill: #4c72b0; stroke: #4c72b0"/>
     <use xlink:href="#mdf3e93990d" x="144.009204" y="470.869354" style="fill: #4c72b0; stroke: #4c72b0"/>
     <use xlink:href="#mdf3e93990d" x="146.244447" y="470.727757" style="fill: #4c72b0; stroke: #4c72b0"/>
     <use xlink:href="#mdf3e93990d" x="148.47969" y="470.488421" style="fill: #4c72b0; stroke: #4c72b0"/>
     <use xlink:href="#mdf3e93990d" x="150.714934" y="469.94573" style="fill: #4c72b0; stroke: #4c72b0"/>
     <use xlink:href="#mdf3e93990d" x="152.950177" y="470.223071" style="fill: #4c72b0; stroke: #4c72b0"/>
     <use xlink:href="#mdf3e93990d" x="155.18542" y="470.01188" style="fill: #4c72b0; stroke: #4c72b0"/>
     <use xlink:href="#mdf3e93990d" x="157.420664" y="469.874177" style="fill: #4c72b0; stroke: #4c72b0"/>
     <use xlink:href="#mdf3e93990d" x="159.655907" y="469.476374" style="fill: #4c72b0; stroke: #4c72b0"/>
     <use xlink:href="#mdf3e93990d" x="161.891151" y="469.44192" style="fill: #4c72b0; stroke: #4c72b0"/>
     <use xlink:href="#mdf3e93990d" x="164.126394" y="469.118448" style="fill: #4c72b0; stroke: #4c72b0"/>
     <use xlink:href="#mdf3e93990d" x="166.361637" y="469.008032" style="fill: #4c72b0; stroke: #4c72b0"/>
     <use xlink:href="#mdf3e93990d" x="168.596881" y="468.806448" style="fill: #4c72b0; stroke: #4c72b0"/>
     <use xlink:href="#mdf3e93990d" x="170.832124" y="468.49765" style="fill: #4c72b0; stroke: #4c72b0"/>
     <use xlink:href="#mdf3e93990d" x="173.067367" y="467.929081" style="fill: #4c72b0; stroke: #4c72b0"/>
     <use xlink:href="#mdf3e93990d" x="175.302611" y="468.218308" style="fill: #4c72b0; stroke: #4c72b0"/>
     <use xlink:href="#mdf3e93990d" x="177.537854" y="468.346755" style="fill: #4c72b0; stroke: #4c72b0"/>
     <use xlink:href="#mdf3e93990d" x="179.773097" y="468.104805" style="fill: #4c72b0; stroke: #4c72b0"/>
     <use xlink:href="#mdf3e93990d" x="182.008341" y="468.727913" style="fill: #4c72b0; stroke: #4c72b0"/>
     <use xlink:href="#mdf3e93990d" x="184.243584" y="470.512282" style="fill: #4c72b0; stroke: #4c72b0"/>
     <use xlink:href="#mdf3e93990d" x="186.478828" y="470.593323" style="fill: #4c72b0; stroke: #4c72b0"/>
     <use xlink:href="#mdf3e93990d" x="188.714071" y="476.174776" style="fill: #4c72b0; stroke: #4c72b0"/>
     <use xlink:href="#mdf3e93990d" x="190.949314" y="476.729234" style="fill: #4c72b0; stroke: #4c72b0"/>
     <use xlink:href="#mdf3e93990d" x="193.184558" y="476.441191" style="fill: #4c72b0; stroke: #4c72b0"/>
     <use xlink:href="#mdf3e93990d" x="195.419801" y="481.792265" style="fill: #4c72b0; stroke: #4c72b0"/>
     <use xlink:href="#mdf3e93990d" x="197.655044" y="482.146848" style="fill: #4c72b0; stroke: #4c72b0"/>
     <use xlink:href="#mdf3e93990d" x="199.890288" y="484.506112" style="fill: #4c72b0; stroke: #4c72b0"/>
     <use xlink:href="#mdf3e93990d" x="202.125531" y="484.45444" style="fill: #4c72b0; stroke: #4c72b0"/>
     <use xlink:href="#mdf3e93990d" x="204.360774" y="485.497481" style="fill: #4c72b0; stroke: #4c72b0"/>
     <use xlink:href="#mdf3e93990d" x="206.596018" y="485.811705" style="fill: #4c72b0; stroke: #4c72b0"/>
     <use xlink:href="#mdf3e93990d" x="208.831261" y="490.040035" style="fill: #4c72b0; stroke: #4c72b0"/>
     <use xlink:href="#mdf3e93990d" x="211.066505" y="490.197359" style="fill: #4c72b0; stroke: #4c72b0"/>
     <use xlink:href="#mdf3e93990d" x="213.301748" y="490.983544" style="fill: #4c72b0; stroke: #4c72b0"/>
     <use xlink:href="#mdf3e93990d" x="215.536991" y="491.439459" style="fill: #4c72b0; stroke: #4c72b0"/>
     <use xlink:href="#mdf3e93990d" x="217.772235" y="491.399016" style="fill: #4c72b0; stroke: #4c72b0"/>
     <use xlink:href="#mdf3e93990d" x="220.007478" y="491.368696" style="fill: #4c72b0; stroke: #4c72b0"/>
     <use xlink:href="#mdf3e93990d" x="222.242721" y="491.347991" style="fill: #4c72b0; stroke: #4c72b0"/>
     <use xlink:href="#mdf3e93990d" x="224.477965" y="493.632298" style="fill: #4c72b0; stroke: #4c72b0"/>
     <use xlink:href="#mdf3e93990d" x="226.713208" y="487.516613" style="fill: #4c72b0; stroke: #4c72b0"/>
     <use xlink:href="#mdf3e93990d" x="228.948452" y="491.634776" style="fill: #4c72b0; stroke: #4c72b0"/>
     <use xlink:href="#mdf3e93990d" x="231.183695" y="491.697728" style="fill: #4c72b0; stroke: #4c72b0"/>
     <use xlink:href="#mdf3e93990d" x="240.124668" y="493.180341" style="fill: #4c72b0; stroke: #4c72b0"/>
     <use xlink:href="#mdf3e93990d" x="242.359912" y="492.967848" style="fill: #4c72b0; stroke: #4c72b0"/>
     <use xlink:href="#mdf3e93990d" x="244.595155" y="486.533181" style="fill: #4c72b0; stroke: #4c72b0"/>
     <use xlink:href="#mdf3e93990d" x="246.830398" y="467.070802" style="fill: #4c72b0; stroke: #4c72b0"/>
     <use xlink:href="#mdf3e93990d" x="249.065642" y="466.380492" style="fill: #4c72b0; stroke: #4c72b0"/>
     <use xlink:href="#mdf3e93990d" x="251.300885" y="466.034966" style="fill: #4c72b0; stroke: #4c72b0"/>
     <use xlink:href="#mdf3e93990d" x="253.536129" y="466.219613" style="fill: #4c72b0; stroke: #4c72b0"/>
     <use xlink:href="#mdf3e93990d" x="255.771372" y="466.310215" style="fill: #4c72b0; stroke: #4c72b0"/>
     <use xlink:href="#mdf3e93990d" x="258.006615" y="467.647072" style="fill: #4c72b0; stroke: #4c72b0"/>
     <use xlink:href="#mdf3e93990d" x="260.241859" y="468.034418" style="fill: #4c72b0; stroke: #4c72b0"/>
     <use xlink:href="#mdf3e93990d" x="262.477102" y="468.800265" style="fill: #4c72b0; stroke: #4c72b0"/>
     <use xlink:href="#mdf3e93990d" x="264.712345" y="469.510867" style="fill: #4c72b0; stroke: #4c72b0"/>
     <use xlink:href="#mdf3e93990d" x="266.947589" y="470.362188" style="fill: #4c72b0; stroke: #4c72b0"/>
     <use xlink:href="#mdf3e93990d" x="269.182832" y="470.776671" style="fill: #4c72b0; stroke: #4c72b0"/>
     <use xlink:href="#mdf3e93990d" x="271.418075" y="471.259946" style="fill: #4c72b0; stroke: #4c72b0"/>
     <use xlink:href="#mdf3e93990d" x="273.653319" y="471.969974" style="fill: #4c72b0; stroke: #4c72b0"/>
     <use xlink:href="#mdf3e93990d" x="275.888562" y="473.266224" style="fill: #4c72b0; stroke: #4c72b0"/>
     <use xlink:href="#mdf3e93990d" x="278.123806" y="473.866985" style="fill: #4c72b0; stroke: #4c72b0"/>
     <use xlink:href="#mdf3e93990d" x="280.359049" y="474.900599" style="fill: #4c72b0; stroke: #4c72b0"/>
     <use xlink:href="#mdf3e93990d" x="282.594292" y="475.778099" style="fill: #4c72b0; stroke: #4c72b0"/>
     <use xlink:href="#mdf3e93990d" x="284.829536" y="476.441176" style="fill: #4c72b0; stroke: #4c72b0"/>
     <use xlink:href="#mdf3e93990d" x="287.064779" y="477.757131" style="fill: #4c72b0; stroke: #4c72b0"/>
     <use xlink:href="#mdf3e93990d" x="289.300022" y="479.734497" style="fill: #4c72b0; stroke: #4c72b0"/>
     <use xlink:href="#mdf3e93990d" x="291.535266" y="481.453205" style="fill: #4c72b0; stroke: #4c72b0"/>
     <use xlink:href="#mdf3e93990d" x="293.770509" y="482.840245" style="fill: #4c72b0; stroke: #4c72b0"/>
     <use xlink:href="#mdf3e93990d" x="296.005753" y="484.393253" style="fill: #4c72b0; stroke: #4c72b0"/>
     <use xlink:href="#mdf3e93990d" x="298.240996" y="483.45569" style="fill: #4c72b0; stroke: #4c72b0"/>
     <use xlink:href="#mdf3e93990d" x="300.476239" y="484.820594" style="fill: #4c72b0; stroke: #4c72b0"/>
     <use xlink:href="#mdf3e93990d" x="302.711483" y="476.206596" style="fill: #4c72b0; stroke: #4c72b0"/>
     <use xlink:href="#mdf3e93990d" x="304.946726" y="478.72019" style="fill: #4c72b0; stroke: #4c72b0"/>
     <use xlink:href="#mdf3e93990d" x="307.181969" y="479.264051" style="fill: #4c72b0; stroke: #4c72b0"/>
     <use xlink:href="#mdf3e93990d" x="309.417213" y="472.015407" style="fill: #4c72b0; stroke: #4c72b0"/>
     <use xlink:href="#mdf3e93990d" x="311.652456" y="471.641629" style="fill: #4c72b0; stroke: #4c72b0"/>
     <use xlink:href="#mdf3e93990d" x="313.887699" y="467.654068" style="fill: #4c72b0; stroke: #4c72b0"/>
     <use xlink:href="#mdf3e93990d" x="316.122943" y="468.188219" style="fill: #4c72b0; stroke: #4c72b0"/>
     <use xlink:href="#mdf3e93990d" x="318.358186" y="467.024808" style="fill: #4c72b0; stroke: #4c72b0"/>
     <use xlink:href="#mdf3e93990d" x="320.59343" y="467.502531" style="fill: #4c72b0; stroke: #4c72b0"/>
     <use xlink:href="#mdf3e93990d" x="322.828673" y="460.462482" style="fill: #4c72b0; stroke: #4c72b0"/>
     <use xlink:href="#mdf3e93990d" x="325.063916" y="460.538156" style="fill: #4c72b0; stroke: #4c72b0"/>
     <use xlink:href="#mdf3e93990d" x="327.29916" y="459.433504" style="fill: #4c72b0; stroke: #4c72b0"/>
     <use xlink:href="#mdf3e93990d" x="329.534403" y="459.484044" style="fill: #4c72b0; stroke: #4c72b0"/>
     <use xlink:href="#mdf3e93990d" x="331.769646" y="459.838906" style="fill: #4c72b0; stroke: #4c72b0"/>
     <use xlink:href="#mdf3e93990d" x="334.00489" y="460.160247" style="fill: #4c72b0; stroke: #4c72b0"/>
     <use xlink:href="#mdf3e93990d" x="336.240133" y="460.590911" style="fill: #4c72b0; stroke: #4c72b0"/>
     <use xlink:href="#mdf3e93990d" x="338.475377" y="456.810798" style="fill: #4c72b0; stroke: #4c72b0"/>
     <use xlink:href="#mdf3e93990d" x="340.71062" y="435.95869" style="fill: #4c72b0; stroke: #4c72b0"/>
     <use xlink:href="#mdf3e93990d" x="342.945863" y="432.553865" style="fill: #4c72b0; stroke: #4c72b0"/>
     <use xlink:href="#mdf3e93990d" x="345.181107" y="432.648478" style="fill: #4c72b0; stroke: #4c72b0"/>
     <use xlink:href="#mdf3e93990d" x="347.41635" y="430.37573" style="fill: #4c72b0; stroke: #4c72b0"/>
     <use xlink:href="#mdf3e93990d" x="349.651593" y="430.614126" style="fill: #4c72b0; stroke: #4c72b0"/>
     <use xlink:href="#mdf3e93990d" x="351.886837" y="429.496591" style="fill: #4c72b0; stroke: #4c72b0"/>
     <use xlink:href="#mdf3e93990d" x="356.357323" y="496.253756" style="fill: #4c72b0; stroke: #4c72b0"/>
     <use xlink:href="#mdf3e93990d" x="358.592567" y="496.726828" style="fill: #4c72b0; stroke: #4c72b0"/>
     <use xlink:href="#mdf3e93990d" x="360.82781" y="497.235759" style="fill: #4c72b0; stroke: #4c72b0"/>
     <use xlink:href="#mdf3e93990d" x="363.063054" y="496.429666" style="fill: #4c72b0; stroke: #4c72b0"/>
     <use xlink:href="#mdf3e93990d" x="365.298297" y="496.535699" style="fill: #4c72b0; stroke: #4c72b0"/>
     <use xlink:href="#mdf3e93990d" x="367.53354" y="493.1945" style="fill: #4c72b0; stroke: #4c72b0"/>
     <use xlink:href="#mdf3e93990d" x="369.768784" y="492.891098" style="fill: #4c72b0; stroke: #4c72b0"/>
     <use xlink:href="#mdf3e93990d" x="372.004027" y="492.063572" style="fill: #4c72b0; stroke: #4c72b0"/>
     <use xlink:href="#mdf3e93990d" x="374.23927" y="492.541884" style="fill: #4c72b0; stroke: #4c72b0"/>
     <use xlink:href="#mdf3e93990d" x="396.591704" y="489.819405" style="fill: #4c72b0; stroke: #4c72b0"/>
     <use xlink:href="#mdf3e93990d" x="398.826947" y="489.664437" style="fill: #4c72b0; stroke: #4c72b0"/>
     <use xlink:href="#mdf3e93990d" x="401.062191" y="489.112559" style="fill: #4c72b0; stroke: #4c72b0"/>
     <use xlink:href="#mdf3e93990d" x="403.297434" y="488.886927" style="fill: #4c72b0; stroke: #4c72b0"/>
     <use xlink:href="#mdf3e93990d" x="405.532678" y="486.202399" style="fill: #4c72b0; stroke: #4c72b0"/>
     <use xlink:href="#mdf3e93990d" x="407.767921" y="485.98504" style="fill: #4c72b0; stroke: #4c72b0"/>
     <use xlink:href="#mdf3e93990d" x="410.003164" y="484.058413" style="fill: #4c72b0; stroke: #4c72b0"/>
     <use xlink:href="#mdf3e93990d" x="414.473651" y="483.190241" style="fill: #4c72b0; stroke: #4c72b0"/>
     <use xlink:href="#mdf3e93990d" x="416.708894" y="482.933002" style="fill: #4c72b0; stroke: #4c72b0"/>
     <use xlink:href="#mdf3e93990d" x="418.944138" y="482.359579" style="fill: #4c72b0; stroke: #4c72b0"/>
     <use xlink:href="#mdf3e93990d" x="421.179381" y="477.29889" style="fill: #4c72b0; stroke: #4c72b0"/>
     <use xlink:href="#mdf3e93990d" x="423.414624" y="473.202774" style="fill: #4c72b0; stroke: #4c72b0"/>
     <use xlink:href="#mdf3e93990d" x="425.649868" y="471.412574" style="fill: #4c72b0; stroke: #4c72b0"/>
     <use xlink:href="#mdf3e93990d" x="427.885111" y="466.357784" style="fill: #4c72b0; stroke: #4c72b0"/>
     <use xlink:href="#mdf3e93990d" x="430.120355" y="462.747106" style="fill: #4c72b0; stroke: #4c72b0"/>
     <use xlink:href="#mdf3e93990d" x="432.355598" y="459.559287" style="fill: #4c72b0; stroke: #4c72b0"/>
     <use xlink:href="#mdf3e93990d" x="434.590841" y="460.471843" style="fill: #4c72b0; stroke: #4c72b0"/>
     <use xlink:href="#mdf3e93990d" x="436.826085" y="453.238577" style="fill: #4c72b0; stroke: #4c72b0"/>
     <use xlink:href="#mdf3e93990d" x="439.061328" y="453.164108" style="fill: #4c72b0; stroke: #4c72b0"/>
     <use xlink:href="#mdf3e93990d" x="441.296571" y="452.308915" style="fill: #4c72b0; stroke: #4c72b0"/>
     <use xlink:href="#mdf3e93990d" x="443.531815" y="452.103488" style="fill: #4c72b0; stroke: #4c72b0"/>
     <use xlink:href="#mdf3e93990d" x="445.767058" y="453.353055" style="fill: #4c72b0; stroke: #4c72b0"/>
     <use xlink:href="#mdf3e93990d" x="448.002301" y="452.443205" style="fill: #4c72b0; stroke: #4c72b0"/>
     <use xlink:href="#mdf3e93990d" x="450.237545" y="452.079549" style="fill: #4c72b0; stroke: #4c72b0"/>
     <use xlink:href="#mdf3e93990d" x="452.472788" y="450.132496" style="fill: #4c72b0; stroke: #4c72b0"/>
     <use xlink:href="#mdf3e93990d" x="454.708032" y="451.992926" style="fill: #4c72b0; stroke: #4c72b0"/>
     <use xlink:href="#mdf3e93990d" x="456.943275" y="451.410897" style="fill: #4c72b0; stroke: #4c72b0"/>
     <use xlink:href="#mdf3e93990d" x="459.178518" y="451.382725" style="fill: #4c72b0; stroke: #4c72b0"/>
     <use xlink:href="#mdf3e93990d" x="461.413762" y="449.942975" style="fill: #4c72b0; stroke: #4c72b0"/>
     <use xlink:href="#mdf3e93990d" x="463.649005" y="449.406802" style="fill: #4c72b0; stroke: #4c72b0"/>
     <use xlink:href="#mdf3e93990d" x="465.884248" y="448.918033" style="fill: #4c72b0; stroke: #4c72b0"/>
     <use xlink:href="#mdf3e93990d" x="468.119492" y="448.157925" style="fill: #4c72b0; stroke: #4c72b0"/>
     <use xlink:href="#mdf3e93990d" x="470.354735" y="449.189811" style="fill: #4c72b0; stroke: #4c72b0"/>
     <use xlink:href="#mdf3e93990d" x="477.060465" y="515.595076" style="fill: #4c72b0; stroke: #4c72b0"/>
     <use xlink:href="#mdf3e93990d" x="479.295709" y="505.570754" style="fill: #4c72b0; stroke: #4c72b0"/>
     <use xlink:href="#mdf3e93990d" x="481.530952" y="505.294831" style="fill: #4c72b0; stroke: #4c72b0"/>
     <use xlink:href="#mdf3e93990d" x="483.766195" y="505.618124" style="fill: #4c72b0; stroke: #4c72b0"/>
     <use xlink:href="#mdf3e93990d" x="486.001439" y="505.85834" style="fill: #4c72b0; stroke: #4c72b0"/>
     <use xlink:href="#mdf3e93990d" x="488.236682" y="504.682633" style="fill: #4c72b0; stroke: #4c72b0"/>
     <use xlink:href="#mdf3e93990d" x="490.471925" y="481.050737" style="fill: #4c72b0; stroke: #4c72b0"/>
     <use xlink:href="#mdf3e93990d" x="499.412899" y="481.114872" style="fill: #4c72b0; stroke: #4c72b0"/>
     <use xlink:href="#mdf3e93990d" x="501.648142" y="480.735609" style="fill: #4c72b0; stroke: #4c72b0"/>
     <use xlink:href="#mdf3e93990d" x="503.883386" y="480.865796" style="fill: #4c72b0; stroke: #4c72b0"/>
     <use xlink:href="#mdf3e93990d" x="506.118629" y="480.473122" style="fill: #4c72b0; stroke: #4c72b0"/>
     <use xlink:href="#mdf3e93990d" x="508.353872" y="481.434287" style="fill: #4c72b0; stroke: #4c72b0"/>
     <use xlink:href="#mdf3e93990d" x="510.589116" y="481.133949" style="fill: #4c72b0; stroke: #4c72b0"/>
     <use xlink:href="#mdf3e93990d" x="512.824359" y="480.977792" style="fill: #4c72b0; stroke: #4c72b0"/>
     <use xlink:href="#mdf3e93990d" x="515.059603" y="479.251474" style="fill: #4c72b0; stroke: #4c72b0"/>
     <use xlink:href="#mdf3e93990d" x="517.294846" y="479.93524" style="fill: #4c72b0; stroke: #4c72b0"/>
     <use xlink:href="#mdf3e93990d" x="519.530089" y="479.590717" style="fill: #4c72b0; stroke: #4c72b0"/>
     <use xlink:href="#mdf3e93990d" x="521.765333" y="479.405742" style="fill: #4c72b0; stroke: #4c72b0"/>
     <use xlink:href="#mdf3e93990d" x="524.000576" y="479.074136" style="fill: #4c72b0; stroke: #4c72b0"/>
     <use xlink:href="#mdf3e93990d" x="526.235819" y="479.525652" style="fill: #4c72b0; stroke: #4c72b0"/>
     <use xlink:href="#mdf3e93990d" x="528.471063" y="479.171787" style="fill: #4c72b0; stroke: #4c72b0"/>
     <use xlink:href="#mdf3e93990d" x="530.706306" y="479.621919" style="fill: #4c72b0; stroke: #4c72b0"/>
     <use xlink:href="#mdf3e93990d" x="532.941549" y="477.568865" style="fill: #4c72b0; stroke: #4c72b0"/>
     <use xlink:href="#mdf3e93990d" x="535.176793" y="476.441845" style="fill: #4c72b0; stroke: #4c72b0"/>
     <use xlink:href="#mdf3e93990d" x="537.412036" y="473.77158" style="fill: #4c72b0; stroke: #4c72b0"/>
     <use xlink:href="#mdf3e93990d" x="539.64728" y="474.007664" style="fill: #4c72b0; stroke: #4c72b0"/>
     <use xlink:href="#mdf3e93990d" x="541.882523" y="474.588346" style="fill: #4c72b0; stroke: #4c72b0"/>
     <use xlink:href="#mdf3e93990d" x="544.117766" y="472.383621" style="fill: #4c72b0; stroke: #4c72b0"/>
     <use xlink:href="#mdf3e93990d" x="546.35301" y="471.919743" style="fill: #4c72b0; stroke: #4c72b0"/>
     <use xlink:href="#mdf3e93990d" x="548.588253" y="473.002107" style="fill: #4c72b0; stroke: #4c72b0"/>
     <use xlink:href="#mdf3e93990d" x="550.823496" y="473.496244" style="fill: #4c72b0; stroke: #4c72b0"/>
     <use xlink:href="#mdf3e93990d" x="553.05874" y="475.23945" style="fill: #4c72b0; stroke: #4c72b0"/>
     <use xlink:href="#mdf3e93990d" x="555.293983" y="476.9499" style="fill: #4c72b0; stroke: #4c72b0"/>
     <use xlink:href="#mdf3e93990d" x="557.529226" y="475.802732" style="fill: #4c72b0; stroke: #4c72b0"/>
     <use xlink:href="#mdf3e93990d" x="559.76447" y="476.060199" style="fill: #4c72b0; stroke: #4c72b0"/>
     <use xlink:href="#mdf3e93990d" x="561.999713" y="475.737609" style="fill: #4c72b0; stroke: #4c72b0"/>
     <use xlink:href="#mdf3e93990d" x="564.234957" y="475.845866" style="fill: #4c72b0; stroke: #4c72b0"/>
     <use xlink:href="#mdf3e93990d" x="566.4702" y="473.139854" style="fill: #4c72b0; stroke: #4c72b0"/>
     <use xlink:href="#mdf3e93990d" x="568.705443" y="471.364909" style="fill: #4c72b0; stroke: #4c72b0"/>
     <use xlink:href="#mdf3e93990d" x="570.940687" y="471.519886" style="fill: #4c72b0; stroke: #4c72b0"/>
     <use xlink:href="#mdf3e93990d" x="573.17593" y="472.389734" style="fill: #4c72b0; stroke: #4c72b0"/>
     <use xlink:href="#mdf3e93990d" x="575.411173" y="472.42338" style="fill: #4c72b0; stroke: #4c72b0"/>
     <use xlink:href="#mdf3e93990d" x="577.646417" y="472.595703" style="fill: #4c72b0; stroke: #4c72b0"/>
     <use xlink:href="#mdf3e93990d" x="579.88166" y="472.672522" style="fill: #4c72b0; stroke: #4c72b0"/>
     <use xlink:href="#mdf3e93990d" x="582.116904" y="472.619046" style="fill: #4c72b0; stroke: #4c72b0"/>
     <use xlink:href="#mdf3e93990d" x="584.352147" y="472.548056" style="fill: #4c72b0; stroke: #4c72b0"/>
     <use xlink:href="#mdf3e93990d" x="586.58739" y="472.556102" style="fill: #4c72b0; stroke: #4c72b0"/>
     <use xlink:href="#mdf3e93990d" x="588.822634" y="472.93849" style="fill: #4c72b0; stroke: #4c72b0"/>
     <use xlink:href="#mdf3e93990d" x="591.057877" y="453.726501" style="fill: #4c72b0; stroke: #4c72b0"/>
     <use xlink:href="#mdf3e93990d" x="595.528364" y="479.980693" style="fill: #4c72b0; stroke: #4c72b0"/>
     <use xlink:href="#mdf3e93990d" x="597.763607" y="479.869824" style="fill: #4c72b0; stroke: #4c72b0"/>
     <use xlink:href="#mdf3e93990d" x="599.99885" y="480.123046" style="fill: #4c72b0; stroke: #4c72b0"/>
     <use xlink:href="#mdf3e93990d" x="602.234094" y="480.129976" style="fill: #4c72b0; stroke: #4c72b0"/>
     <use xlink:href="#mdf3e93990d" x="604.469337" y="480.238617" style="fill: #4c72b0; stroke: #4c72b0"/>
     <use xlink:href="#mdf3e93990d" x="606.704581" y="471.018977" style="fill: #4c72b0; stroke: #4c72b0"/>
     <use xlink:href="#mdf3e93990d" x="608.939824" y="470.739031" style="fill: #4c72b0; stroke: #4c72b0"/>
     <use xlink:href="#mdf3e93990d" x="611.175067" y="470.7491" style="fill: #4c72b0; stroke: #4c72b0"/>
     <use xlink:href="#mdf3e93990d" x="613.410311" y="470.756188" style="fill: #4c72b0; stroke: #4c72b0"/>
     <use xlink:href="#mdf3e93990d" x="615.645554" y="470.69298" style="fill: #4c72b0; stroke: #4c72b0"/>
     <use xlink:href="#mdf3e93990d" x="651.409448" y="470.836469" style="fill: #4c72b0; stroke: #4c72b0"/>
     <use xlink:href="#mdf3e93990d" x="653.644691" y="470.793948" style="fill: #4c72b0; stroke: #4c72b0"/>
     <use xlink:href="#mdf3e93990d" x="655.879935" y="470.852851" style="fill: #4c72b0; stroke: #4c72b0"/>
     <use xlink:href="#mdf3e93990d" x="658.115178" y="471.18139" style="fill: #4c72b0; stroke: #4c72b0"/>
     <use xlink:href="#mdf3e93990d" x="660.350421" y="471.415765" style="fill: #4c72b0; stroke: #4c72b0"/>
     <use xlink:href="#mdf3e93990d" x="662.585665" y="471.337909" style="fill: #4c72b0; stroke: #4c72b0"/>
     <use xlink:href="#mdf3e93990d" x="664.820908" y="471.31309" style="fill: #4c72b0; stroke: #4c72b0"/>
     <use xlink:href="#mdf3e93990d" x="667.056151" y="471.053587" style="fill: #4c72b0; stroke: #4c72b0"/>
     <use xlink:href="#mdf3e93990d" x="669.291395" y="471.311203" style="fill: #4c72b0; stroke: #4c72b0"/>
     <use xlink:href="#mdf3e93990d" x="673.761882" y="471.203173" style="fill: #4c72b0; stroke: #4c72b0"/>
     <use xlink:href="#mdf3e93990d" x="678.232368" y="470.854855" style="fill: #4c72b0; stroke: #4c72b0"/>
     <use xlink:href="#mdf3e93990d" x="680.467612" y="471.646513" style="fill: #4c72b0; stroke: #4c72b0"/>
     <use xlink:href="#mdf3e93990d" x="682.702855" y="471.975734" style="fill: #4c72b0; stroke: #4c72b0"/>
     <use xlink:href="#mdf3e93990d" x="684.938098" y="472.861702" style="fill: #4c72b0; stroke: #4c72b0"/>
     <use xlink:href="#mdf3e93990d" x="687.173342" y="473.857224" style="fill: #4c72b0; stroke: #4c72b0"/>
     <use xlink:href="#mdf3e93990d" x="693.879072" y="474.418968" style="fill: #4c72b0; stroke: #4c72b0"/>
     <use xlink:href="#mdf3e93990d" x="696.114315" y="475.516814" style="fill: #4c72b0; stroke: #4c72b0"/>
     <use xlink:href="#mdf3e93990d" x="698.349559" y="476.902822" style="fill: #4c72b0; stroke: #4c72b0"/>
     <use xlink:href="#mdf3e93990d" x="700.584802" y="477.663619" style="fill: #4c72b0; stroke: #4c72b0"/>
     <use xlink:href="#mdf3e93990d" x="702.820045" y="478.130356" style="fill: #4c72b0; stroke: #4c72b0"/>
     <use xlink:href="#mdf3e93990d" x="705.055289" y="478.612742" style="fill: #4c72b0; stroke: #4c72b0"/>
     <use xlink:href="#mdf3e93990d" x="707.290532" y="479.598121" style="fill: #4c72b0; stroke: #4c72b0"/>
     <use xlink:href="#mdf3e93990d" x="711.761019" y="479.381138" style="fill: #4c72b0; stroke: #4c72b0"/>
     <use xlink:href="#mdf3e93990d" x="716.231506" y="483.812499" style="fill: #4c72b0; stroke: #4c72b0"/>
     <use xlink:href="#mdf3e93990d" x="718.466749" y="483.957519" style="fill: #4c72b0; stroke: #4c72b0"/>
     <use xlink:href="#mdf3e93990d" x="720.701992" y="484.133687" style="fill: #4c72b0; stroke: #4c72b0"/>
     <use xlink:href="#mdf3e93990d" x="722.937236" y="482.731529" style="fill: #4c72b0; stroke: #4c72b0"/>
     <use xlink:href="#mdf3e93990d" x="725.172479" y="484.156879" style="fill: #4c72b0; stroke: #4c72b0"/>
     <use xlink:href="#mdf3e93990d" x="727.407722" y="484.67062" style="fill: #4c72b0; stroke: #4c72b0"/>
     <use xlink:href="#mdf3e93990d" x="729.642966" y="483.889812" style="fill: #4c72b0; stroke: #4c72b0"/>
     <use xlink:href="#mdf3e93990d" x="731.878209" y="484.068993" style="fill: #4c72b0; stroke: #4c72b0"/>
     <use xlink:href="#mdf3e93990d" x="734.113452" y="484.042554" style="fill: #4c72b0; stroke: #4c72b0"/>
     <use xlink:href="#mdf3e93990d" x="736.348696" y="484.477202" style="fill: #4c72b0; stroke: #4c72b0"/>
     <use xlink:href="#mdf3e93990d" x="738.583939" y="484.690582" style="fill: #4c72b0; stroke: #4c72b0"/>
     <use xlink:href="#mdf3e93990d" x="740.819183" y="484.90413" style="fill: #4c72b0; stroke: #4c72b0"/>
     <use xlink:href="#mdf3e93990d" x="743.054426" y="485.14669" style="fill: #4c72b0; stroke: #4c72b0"/>
     <use xlink:href="#mdf3e93990d" x="745.289669" y="484.793659" style="fill: #4c72b0; stroke: #4c72b0"/>
     <use xlink:href="#mdf3e93990d" x="747.524913" y="477.636866" style="fill: #4c72b0; stroke: #4c72b0"/>
     <use xlink:href="#mdf3e93990d" x="749.760156" y="462.987443" style="fill: #4c72b0; stroke: #4c72b0"/>
     <use xlink:href="#mdf3e93990d" x="751.995399" y="463.177963" style="fill: #4c72b0; stroke: #4c72b0"/>
     <use xlink:href="#mdf3e93990d" x="754.230643" y="463.060649" style="fill: #4c72b0; stroke: #4c72b0"/>
     <use xlink:href="#mdf3e93990d" x="756.465886" y="462.993674" style="fill: #4c72b0; stroke: #4c72b0"/>
     <use xlink:href="#mdf3e93990d" x="758.70113" y="463.291968" style="fill: #4c72b0; stroke: #4c72b0"/>
     <use xlink:href="#mdf3e93990d" x="760.936373" y="473.642921" style="fill: #4c72b0; stroke: #4c72b0"/>
     <use xlink:href="#mdf3e93990d" x="763.171616" y="473.811492" style="fill: #4c72b0; stroke: #4c72b0"/>
     <use xlink:href="#mdf3e93990d" x="765.40686" y="473.926848" style="fill: #4c72b0; stroke: #4c72b0"/>
     <use xlink:href="#mdf3e93990d" x="767.642103" y="473.953791" style="fill: #4c72b0; stroke: #4c72b0"/>
     <use xlink:href="#mdf3e93990d" x="769.877346" y="474.150317" style="fill: #4c72b0; stroke: #4c72b0"/>
     <use xlink:href="#mdf3e93990d" x="772.11259" y="473.959156" style="fill: #4c72b0; stroke: #4c72b0"/>
     <use xlink:href="#mdf3e93990d" x="774.347833" y="474.135124" style="fill: #4c72b0; stroke: #4c72b0"/>
     <use xlink:href="#mdf3e93990d" x="776.583076" y="474.224474" style="fill: #4c72b0; stroke: #4c72b0"/>
     <use xlink:href="#mdf3e93990d" x="778.81832" y="474.570114" style="fill: #4c72b0; stroke: #4c72b0"/>
     <use xlink:href="#mdf3e93990d" x="781.053563" y="474.362579" style="fill: #4c72b0; stroke: #4c72b0"/>
     <use xlink:href="#mdf3e93990d" x="783.288807" y="474.565009" style="fill: #4c72b0; stroke: #4c72b0"/>
     <use xlink:href="#mdf3e93990d" x="785.52405" y="474.699507" style="fill: #4c72b0; stroke: #4c72b0"/>
     <use xlink:href="#mdf3e93990d" x="787.759293" y="475.029311" style="fill: #4c72b0; stroke: #4c72b0"/>
     <use xlink:href="#mdf3e93990d" x="789.994537" y="474.882001" style="fill: #4c72b0; stroke: #4c72b0"/>
     <use xlink:href="#mdf3e93990d" x="792.22978" y="475.110588" style="fill: #4c72b0; stroke: #4c72b0"/>
     <use xlink:href="#mdf3e93990d" x="794.465023" y="475.337863" style="fill: #4c72b0; stroke: #4c72b0"/>
     <use xlink:href="#mdf3e93990d" x="796.700267" y="475.536273" style="fill: #4c72b0; stroke: #4c72b0"/>
     <use xlink:href="#mdf3e93990d" x="798.93551" y="475.715997" style="fill: #4c72b0; stroke: #4c72b0"/>
     <use xlink:href="#mdf3e93990d" x="801.170753" y="476.040279" style="fill: #4c72b0; stroke: #4c72b0"/>
     <use xlink:href="#mdf3e93990d" x="803.405997" y="475.583622" style="fill: #4c72b0; stroke: #4c72b0"/>
     <use xlink:href="#mdf3e93990d" x="805.64124" y="475.259684" style="fill: #4c72b0; stroke: #4c72b0"/>
     <use xlink:href="#mdf3e93990d" x="807.876484" y="475.349384" style="fill: #4c72b0; stroke: #4c72b0"/>
     <use xlink:href="#mdf3e93990d" x="810.111727" y="474.844827" style="fill: #4c72b0; stroke: #4c72b0"/>
     <use xlink:href="#mdf3e93990d" x="812.34697" y="474.157125" style="fill: #4c72b0; stroke: #4c72b0"/>
     <use xlink:href="#mdf3e93990d" x="814.582214" y="473.874402" style="fill: #4c72b0; stroke: #4c72b0"/>
     <use xlink:href="#mdf3e93990d" x="816.817457" y="472.820526" style="fill: #4c72b0; stroke: #4c72b0"/>
     <use xlink:href="#mdf3e93990d" x="819.0527" y="472.010866" style="fill: #4c72b0; stroke: #4c72b0"/>
     <use xlink:href="#mdf3e93990d" x="821.287944" y="472.563663" style="fill: #4c72b0; stroke: #4c72b0"/>
     <use xlink:href="#mdf3e93990d" x="823.523187" y="469.375853" style="fill: #4c72b0; stroke: #4c72b0"/>
     <use xlink:href="#mdf3e93990d" x="825.758431" y="469.403871" style="fill: #4c72b0; stroke: #4c72b0"/>
     <use xlink:href="#mdf3e93990d" x="827.993674" y="469.144104" style="fill: #4c72b0; stroke: #4c72b0"/>
    </g>
   </g>
   <g id="patch_18">
    <path d="M 128.3625 519.9 
L 128.3625 425.191667 
" style="fill: none; stroke: #262626; stroke-width: 1.25; stroke-linejoin: miter; stroke-linecap: square"/>
   </g>
   <g id="patch_19">
    <path d="M 827.993674 519.9 
L 827.993674 425.191667 
" style="fill: none; stroke: #262626; stroke-width: 1.25; stroke-linejoin: miter; stroke-linecap: square"/>
   </g>
   <g id="patch_20">
    <path d="M 128.3625 519.9 
L 827.993674 519.9 
" style="fill: none; stroke: #262626; stroke-width: 1.25; stroke-linejoin: miter; stroke-linecap: square"/>
   </g>
   <g id="patch_21">
    <path d="M 128.3625 425.191667 
L 827.993674 425.191667 
" style="fill: none; stroke: #262626; stroke-width: 1.25; stroke-linejoin: miter; stroke-linecap: square"/>
   </g>
  </g>
 </g>
 <defs>
  <clipPath id="pc1f6d5417b">
   <rect x="128.3625" y="46.266667" width="699.631174" height="94.708333"/>
  </clipPath>
  <clipPath id="p6f1241efaf">
   <rect x="128.3625" y="172.575" width="699.631174" height="94.708333"/>
  </clipPath>
  <clipPath id="p1553ebca3d">
   <rect x="128.3625" y="298.883333" width="699.631174" height="94.708333"/>
  </clipPath>
  <clipPath id="p3d46c48a77">
   <rect x="128.3625" y="425.191667" width="699.631174" height="94.708333"/>
  </clipPath>
 </defs>
</svg>
