<?xml version="1.0" encoding="utf-8" standalone="no"?>
<!DOCTYPE svg PUBLIC "-//W3C//DTD SVG 1.1//EN"
  "http://www.w3.org/Graphics/SVG/1.1/DTD/svg11.dtd">
<svg xmlns:xlink="http://www.w3.org/1999/xlink" width="864pt" height="576pt" viewBox="0 0 864 576" xmlns="http://www.w3.org/2000/svg" version="1.1">
 <metadata>
  <rdf:RDF xmlns:dc="http://purl.org/dc/elements/1.1/" xmlns:cc="http://creativecommons.org/ns#" xmlns:rdf="http://www.w3.org/1999/02/22-rdf-syntax-ns#">
   <cc:Work>
    <dc:type rdf:resource="http://purl.org/dc/dcmitype/StillImage"/>
    <dc:date>2023-08-01T02:23:17.896396</dc:date>
    <dc:format>image/svg+xml</dc:format>
    <dc:creator>
     <cc:Agent>
      <dc:title>Matplotlib v3.7.1, https://matplotlib.org/</dc:title>
     </cc:Agent>
    </dc:creator>
   </cc:Work>
  </rdf:RDF>
 </metadata>
 <defs>
  <style type="text/css">*{stroke-linejoin: round; stroke-linecap: butt}</style>
 </defs>
 <g id="figure_1">
  <g id="patch_1">
   <path d="M 0 576 
L 864 576 
L 864 0 
L 0 0 
z
" style="fill: #ffffff"/>
  </g>
  <g id="axes_1">
   <g id="patch_2">
    <path d="M 116.3625 140.975 
L 832.773182 140.975 
L 832.773182 46.266667 
L 116.3625 46.266667 
z
" style="fill: #ffffff"/>
   </g>
   <g id="matplotlib.axis_1">
    <g id="xtick_1">
     <g id="line2d_1">
      <defs>
       <path id="m6e7eb85b42" d="M 0 0 
L 0 6 
" style="stroke: #262626; stroke-width: 1.25"/>
      </defs>
      <g>
       <use xlink:href="#m6e7eb85b42" x="221.640321" y="140.975" style="fill: #262626; stroke: #262626; stroke-width: 1.25"/>
      </g>
     </g>
    </g>
    <g id="xtick_2">
     <g id="line2d_2">
      <g>
       <use xlink:href="#m6e7eb85b42" x="340.607518" y="140.975" style="fill: #262626; stroke: #262626; stroke-width: 1.25"/>
      </g>
     </g>
    </g>
    <g id="xtick_3">
     <g id="line2d_3">
      <g>
       <use xlink:href="#m6e7eb85b42" x="459.574715" y="140.975" style="fill: #262626; stroke: #262626; stroke-width: 1.25"/>
      </g>
     </g>
    </g>
    <g id="xtick_4">
     <g id="line2d_4">
      <g>
       <use xlink:href="#m6e7eb85b42" x="578.541912" y="140.975" style="fill: #262626; stroke: #262626; stroke-width: 1.25"/>
      </g>
     </g>
    </g>
    <g id="xtick_5">
     <g id="line2d_5">
      <g>
       <use xlink:href="#m6e7eb85b42" x="697.835046" y="140.975" style="fill: #262626; stroke: #262626; stroke-width: 1.25"/>
      </g>
     </g>
    </g>
    <g id="xtick_6">
     <g id="line2d_6">
      <g>
       <use xlink:href="#m6e7eb85b42" x="816.802243" y="140.975" style="fill: #262626; stroke: #262626; stroke-width: 1.25"/>
      </g>
     </g>
    </g>
   </g>
   <g id="matplotlib.axis_2">
    <g id="ytick_1">
     <g id="line2d_7">
      <defs>
       <path id="mf61c1a16b7" d="M 0 0 
L -6 0 
" style="stroke: #262626; stroke-width: 1.25"/>
      </defs>
      <g>
       <use xlink:href="#mf61c1a16b7" x="116.3625" y="136.670076" style="fill: #262626; stroke: #262626; stroke-width: 1.25"/>
      </g>
     </g>
     <g id="text_1">
      <!-- 0 -->
      <g style="fill: #262626" transform="translate(100.745469 140.606873) scale(0.11 -0.11)">
       <defs>
        <path id="ArialMT-30" d="M 266 2259 
Q 266 3072 433 3567 
Q 600 4063 929 4331 
Q 1259 4600 1759 4600 
Q 2128 4600 2406 4451 
Q 2684 4303 2865 4023 
Q 3047 3744 3150 3342 
Q 3253 2941 3253 2259 
Q 3253 1453 3087 958 
Q 2922 463 2592 192 
Q 2263 -78 1759 -78 
Q 1097 -78 719 397 
Q 266 969 266 2259 
z
M 844 2259 
Q 844 1131 1108 757 
Q 1372 384 1759 384 
Q 2147 384 2411 759 
Q 2675 1134 2675 2259 
Q 2675 3391 2411 3762 
Q 2147 4134 1753 4134 
Q 1366 4134 1134 3806 
Q 844 3388 844 2259 
z
" transform="scale(0.015625)"/>
       </defs>
       <use xlink:href="#ArialMT-30"/>
      </g>
     </g>
    </g>
    <g id="ytick_2">
     <g id="line2d_8">
      <g>
       <use xlink:href="#mf61c1a16b7" x="116.3625" y="112.593318" style="fill: #262626; stroke: #262626; stroke-width: 1.25"/>
      </g>
     </g>
     <g id="text_2">
      <!-- 500 -->
      <g style="fill: #262626" transform="translate(88.511406 116.530115) scale(0.11 -0.11)">
       <defs>
        <path id="ArialMT-35" d="M 266 1200 
L 856 1250 
Q 922 819 1161 601 
Q 1400 384 1738 384 
Q 2144 384 2425 690 
Q 2706 997 2706 1503 
Q 2706 1984 2436 2262 
Q 2166 2541 1728 2541 
Q 1456 2541 1237 2417 
Q 1019 2294 894 2097 
L 366 2166 
L 809 4519 
L 3088 4519 
L 3088 3981 
L 1259 3981 
L 1013 2750 
Q 1425 3038 1878 3038 
Q 2478 3038 2890 2622 
Q 3303 2206 3303 1553 
Q 3303 931 2941 478 
Q 2500 -78 1738 -78 
Q 1113 -78 717 272 
Q 322 622 266 1200 
z
" transform="scale(0.015625)"/>
       </defs>
       <use xlink:href="#ArialMT-35"/>
       <use xlink:href="#ArialMT-30" x="55.615234"/>
       <use xlink:href="#ArialMT-30" x="111.230469"/>
      </g>
     </g>
    </g>
    <g id="ytick_3">
     <g id="line2d_9">
      <g>
       <use xlink:href="#mf61c1a16b7" x="116.3625" y="88.516561" style="fill: #262626; stroke: #262626; stroke-width: 1.25"/>
      </g>
     </g>
     <g id="text_3">
      <!-- 1000 -->
      <g style="fill: #262626" transform="translate(82.394375 92.453358) scale(0.11 -0.11)">
       <defs>
        <path id="ArialMT-31" d="M 2384 0 
L 1822 0 
L 1822 3584 
Q 1619 3391 1289 3197 
Q 959 3003 697 2906 
L 697 3450 
Q 1169 3672 1522 3987 
Q 1875 4303 2022 4600 
L 2384 4600 
L 2384 0 
z
" transform="scale(0.015625)"/>
       </defs>
       <use xlink:href="#ArialMT-31"/>
       <use xlink:href="#ArialMT-30" x="55.615234"/>
       <use xlink:href="#ArialMT-30" x="111.230469"/>
       <use xlink:href="#ArialMT-30" x="166.845703"/>
      </g>
     </g>
    </g>
    <g id="ytick_4">
     <g id="line2d_10">
      <g>
       <use xlink:href="#mf61c1a16b7" x="116.3625" y="64.439803" style="fill: #262626; stroke: #262626; stroke-width: 1.25"/>
      </g>
     </g>
     <g id="text_4">
      <!-- 1500 -->
      <g style="fill: #262626" transform="translate(82.394375 68.3766) scale(0.11 -0.11)">
       <use xlink:href="#ArialMT-31"/>
       <use xlink:href="#ArialMT-35" x="55.615234"/>
       <use xlink:href="#ArialMT-30" x="111.230469"/>
       <use xlink:href="#ArialMT-30" x="166.845703"/>
      </g>
     </g>
    </g>
   </g>
   <g id="line2d_11">
    <path d="M 116.3625 136.670076 
L 219.032821 136.670076 
L 228.159071 135.947773 
L 230.440634 135.562545 
L 232.722197 136.670076 
L 235.003759 136.381155 
L 237.285322 136.670076 
L 239.566885 136.670076 
L 241.848448 126.943066 
L 244.13001 136.670076 
L 246.411573 136.670076 
L 248.693136 136.284848 
L 250.974698 136.381155 
L 253.256261 122.850017 
L 255.537824 136.381155 
L 257.819386 135.89962 
L 260.100949 129.928584 
L 262.382512 136.621922 
L 264.664074 136.621922 
L 266.945637 132.191799 
L 269.2272 136.670076 
L 271.508762 136.573769 
L 273.790325 136.670076 
L 276.071888 136.140387 
L 278.35345 134.358707 
L 280.635013 135.995927 
L 282.916576 136.477462 
L 285.198138 130.795347 
L 287.479701 136.670076 
L 289.761264 135.658852 
L 292.042827 136.477462 
L 294.324389 136.670076 
L 296.605952 136.670076 
L 298.887515 135.947773 
L 301.169077 136.670076 
L 303.45064 131.469496 
L 305.732203 136.429308 
L 308.013765 136.670076 
L 310.295328 134.695782 
L 312.576891 136.670076 
L 319.421579 136.670076 
L 321.703141 136.429308 
L 323.984704 134.792089 
L 326.266267 136.670076 
L 330.829392 136.573769 
L 333.110955 136.525615 
L 335.392517 136.670076 
L 346.800331 136.670076 
L 349.081894 135.755159 
L 351.363456 136.381155 
L 353.645019 134.358707 
L 355.926582 136.670076 
L 360.489707 135.321777 
L 387.868459 83.364135 
L 390.150022 135.321777 
L 392.431585 130.795347 
L 394.713147 135.466238 
L 396.99471 136.429308 
L 401.557835 66.703018 
L 406.120961 126.894912 
L 410.684086 136.04408 
L 412.965649 134.310554 
L 415.247211 133.684558 
L 417.528774 128.339518 
L 419.810337 132.047338 
L 422.091899 135.273624 
L 424.373462 135.995927 
L 426.655025 135.514391 
L 428.936587 136.621922 
L 431.21815 132.769641 
L 433.499713 133.540097 
L 435.781276 133.491944 
L 438.062838 133.29933 
L 440.344401 135.418084 
L 442.625964 135.273624 
L 447.189089 134.695782 
L 449.470652 133.636404 
L 451.752214 136.381155 
L 454.033777 129.302588 
L 458.596902 136.092234 
L 463.160028 136.525615 
L 470.004716 135.89962 
L 472.286278 136.381155 
L 474.567841 136.621922 
L 476.849404 136.236694 
L 479.130966 136.236694 
L 481.412529 136.621922 
L 483.694092 136.284848 
L 485.975655 136.429308 
L 492.820343 136.477462 
L 495.101905 136.284848 
L 497.383468 136.381155 
L 499.665031 136.188541 
L 501.946593 136.381155 
L 513.354407 136.381155 
L 515.635969 136.188541 
L 517.917532 136.477462 
L 520.199095 136.188541 
L 522.480657 136.284848 
L 524.76222 136.04408 
L 527.043783 136.429308 
L 529.325345 135.995927 
L 531.606908 136.477462 
L 533.888471 136.525615 
L 536.170034 136.284848 
L 538.451596 136.381155 
L 545.296284 136.284848 
L 549.85941 136.429308 
L 552.140972 136.236694 
L 558.98566 136.573769 
L 561.267223 136.429308 
L 563.548786 136.525615 
L 568.111911 136.477462 
L 570.393474 136.573769 
L 572.675036 136.188541 
L 574.956599 136.236694 
L 577.238162 136.477462 
L 581.801287 134.310554 
L 584.08285 131.613957 
L 586.364413 131.373189 
L 588.645975 132.962255 
L 590.927538 135.851466 
L 593.209101 128.772899 
L 595.490663 131.999185 
L 597.772226 134.984703 
L 600.053789 131.999185 
L 636.558792 58.468767 
L 638.840354 135.89962 
L 641.121917 136.188541 
L 643.40348 135.851466 
L 645.685042 136.092234 
L 647.966605 55.820324 
L 650.248168 136.670076 
L 654.811293 136.284848 
L 659.374418 55.146175 
L 661.655981 136.140387 
L 663.937544 135.995927 
L 670.782232 136.188541 
L 673.063794 50.571591 
L 682.190045 136.284848 
L 684.471608 135.947773 
L 686.753171 135.995927 
L 691.316296 136.573769 
L 700.442547 136.429308 
L 702.724109 136.188541 
L 705.005672 136.381155 
L 707.287235 135.08101 
L 709.568797 136.429308 
L 711.85036 136.477462 
L 714.131923 135.851466 
L 716.413485 136.381155 
L 718.695048 135.321777 
L 720.976611 135.707005 
L 723.258173 134.2624 
L 725.539736 135.610698 
L 727.821299 135.707005 
L 730.102862 134.840242 
L 732.384424 135.562545 
L 734.665987 136.670076 
L 736.94755 134.984703 
L 739.229112 135.514391 
L 741.510675 136.525615 
L 743.792238 135.707005 
L 746.0738 135.08101 
L 748.355363 135.707005 
L 750.636926 132.336259 
L 752.918488 134.647628 
L 755.200051 131.758417 
L 757.481614 135.369931 
L 759.763176 134.406861 
L 762.044739 132.673334 
L 764.326302 135.755159 
L 766.607864 136.188541 
L 768.889427 136.140387 
L 771.17099 135.851466 
L 773.452552 134.214246 
L 778.015678 136.236694 
L 780.297241 135.562545 
L 782.578803 136.092234 
L 787.141929 136.092234 
L 789.423491 135.803312 
L 791.705054 135.273624 
L 793.986617 135.466238 
L 796.268179 136.525615 
L 798.549742 135.658852 
L 800.831305 135.89962 
L 803.112867 136.477462 
L 805.39443 135.995927 
L 807.675993 136.477462 
L 809.957555 135.851466 
L 812.239118 136.429308 
L 814.520681 135.610698 
L 819.083806 136.477462 
L 821.365369 135.610698 
L 823.646931 136.140387 
L 825.928494 133.829018 
L 828.210057 135.658852 
L 832.773182 135.658852 
L 832.773182 135.658852 
" clip-path="url(#p8c6d27b3de)" style="fill: none; stroke: #4c72b0; stroke-width: 1.5; stroke-linecap: round"/>
   </g>
   <g id="patch_3">
    <path d="M 116.3625 140.975 
L 116.3625 46.266667 
" style="fill: none; stroke: #262626; stroke-width: 1.25; stroke-linejoin: miter; stroke-linecap: square"/>
   </g>
   <g id="patch_4">
    <path d="M 832.773182 140.975 
L 832.773182 46.266667 
" style="fill: none; stroke: #262626; stroke-width: 1.25; stroke-linejoin: miter; stroke-linecap: square"/>
   </g>
   <g id="patch_5">
    <path d="M 116.3625 140.975 
L 832.773182 140.975 
" style="fill: none; stroke: #262626; stroke-width: 1.25; stroke-linejoin: miter; stroke-linecap: square"/>
   </g>
   <g id="patch_6">
    <path d="M 116.3625 46.266667 
L 832.773182 46.266667 
" style="fill: none; stroke: #262626; stroke-width: 1.25; stroke-linejoin: miter; stroke-linecap: square"/>
   </g>
   <g id="text_5">
    <!-- Rotavirus -->
    <g style="fill: #262626" transform="translate(449.227216 40.266667) scale(0.12 -0.12)">
     <defs>
      <path id="ArialMT-52" d="M 503 0 
L 503 4581 
L 2534 4581 
Q 3147 4581 3465 4457 
Q 3784 4334 3975 4021 
Q 4166 3709 4166 3331 
Q 4166 2844 3850 2509 
Q 3534 2175 2875 2084 
Q 3116 1969 3241 1856 
Q 3506 1613 3744 1247 
L 4541 0 
L 3778 0 
L 3172 953 
Q 2906 1366 2734 1584 
Q 2563 1803 2427 1890 
Q 2291 1978 2150 2013 
Q 2047 2034 1813 2034 
L 1109 2034 
L 1109 0 
L 503 0 
z
M 1109 2559 
L 2413 2559 
Q 2828 2559 3062 2645 
Q 3297 2731 3419 2920 
Q 3541 3109 3541 3331 
Q 3541 3656 3305 3865 
Q 3069 4075 2559 4075 
L 1109 4075 
L 1109 2559 
z
" transform="scale(0.015625)"/>
      <path id="ArialMT-6f" d="M 213 1659 
Q 213 2581 725 3025 
Q 1153 3394 1769 3394 
Q 2453 3394 2887 2945 
Q 3322 2497 3322 1706 
Q 3322 1066 3130 698 
Q 2938 331 2570 128 
Q 2203 -75 1769 -75 
Q 1072 -75 642 372 
Q 213 819 213 1659 
z
M 791 1659 
Q 791 1022 1069 705 
Q 1347 388 1769 388 
Q 2188 388 2466 706 
Q 2744 1025 2744 1678 
Q 2744 2294 2464 2611 
Q 2184 2928 1769 2928 
Q 1347 2928 1069 2612 
Q 791 2297 791 1659 
z
" transform="scale(0.015625)"/>
      <path id="ArialMT-74" d="M 1650 503 
L 1731 6 
Q 1494 -44 1306 -44 
Q 1000 -44 831 53 
Q 663 150 594 308 
Q 525 466 525 972 
L 525 2881 
L 113 2881 
L 113 3319 
L 525 3319 
L 525 4141 
L 1084 4478 
L 1084 3319 
L 1650 3319 
L 1650 2881 
L 1084 2881 
L 1084 941 
Q 1084 700 1114 631 
Q 1144 563 1211 522 
Q 1278 481 1403 481 
Q 1497 481 1650 503 
z
" transform="scale(0.015625)"/>
      <path id="ArialMT-61" d="M 2588 409 
Q 2275 144 1986 34 
Q 1697 -75 1366 -75 
Q 819 -75 525 192 
Q 231 459 231 875 
Q 231 1119 342 1320 
Q 453 1522 633 1644 
Q 813 1766 1038 1828 
Q 1203 1872 1538 1913 
Q 2219 1994 2541 2106 
Q 2544 2222 2544 2253 
Q 2544 2597 2384 2738 
Q 2169 2928 1744 2928 
Q 1347 2928 1158 2789 
Q 969 2650 878 2297 
L 328 2372 
Q 403 2725 575 2942 
Q 747 3159 1072 3276 
Q 1397 3394 1825 3394 
Q 2250 3394 2515 3294 
Q 2781 3194 2906 3042 
Q 3031 2891 3081 2659 
Q 3109 2516 3109 2141 
L 3109 1391 
Q 3109 606 3145 398 
Q 3181 191 3288 0 
L 2700 0 
Q 2613 175 2588 409 
z
M 2541 1666 
Q 2234 1541 1622 1453 
Q 1275 1403 1131 1340 
Q 988 1278 909 1158 
Q 831 1038 831 891 
Q 831 666 1001 516 
Q 1172 366 1500 366 
Q 1825 366 2078 508 
Q 2331 650 2450 897 
Q 2541 1088 2541 1459 
L 2541 1666 
z
" transform="scale(0.015625)"/>
      <path id="ArialMT-76" d="M 1344 0 
L 81 3319 
L 675 3319 
L 1388 1331 
Q 1503 1009 1600 663 
Q 1675 925 1809 1294 
L 2547 3319 
L 3125 3319 
L 1869 0 
L 1344 0 
z
" transform="scale(0.015625)"/>
      <path id="ArialMT-69" d="M 425 3934 
L 425 4581 
L 988 4581 
L 988 3934 
L 425 3934 
z
M 425 0 
L 425 3319 
L 988 3319 
L 988 0 
L 425 0 
z
" transform="scale(0.015625)"/>
      <path id="ArialMT-72" d="M 416 0 
L 416 3319 
L 922 3319 
L 922 2816 
Q 1116 3169 1280 3281 
Q 1444 3394 1641 3394 
Q 1925 3394 2219 3213 
L 2025 2691 
Q 1819 2813 1613 2813 
Q 1428 2813 1281 2702 
Q 1134 2591 1072 2394 
Q 978 2094 978 1738 
L 978 0 
L 416 0 
z
" transform="scale(0.015625)"/>
      <path id="ArialMT-75" d="M 2597 0 
L 2597 488 
Q 2209 -75 1544 -75 
Q 1250 -75 995 37 
Q 741 150 617 320 
Q 494 491 444 738 
Q 409 903 409 1263 
L 409 3319 
L 972 3319 
L 972 1478 
Q 972 1038 1006 884 
Q 1059 663 1231 536 
Q 1403 409 1656 409 
Q 1909 409 2131 539 
Q 2353 669 2445 892 
Q 2538 1116 2538 1541 
L 2538 3319 
L 3100 3319 
L 3100 0 
L 2597 0 
z
" transform="scale(0.015625)"/>
      <path id="ArialMT-73" d="M 197 991 
L 753 1078 
Q 800 744 1014 566 
Q 1228 388 1613 388 
Q 2000 388 2187 545 
Q 2375 703 2375 916 
Q 2375 1106 2209 1216 
Q 2094 1291 1634 1406 
Q 1016 1563 777 1677 
Q 538 1791 414 1992 
Q 291 2194 291 2438 
Q 291 2659 392 2848 
Q 494 3038 669 3163 
Q 800 3259 1026 3326 
Q 1253 3394 1513 3394 
Q 1903 3394 2198 3281 
Q 2494 3169 2634 2976 
Q 2775 2784 2828 2463 
L 2278 2388 
Q 2241 2644 2061 2787 
Q 1881 2931 1553 2931 
Q 1166 2931 1000 2803 
Q 834 2675 834 2503 
Q 834 2394 903 2306 
Q 972 2216 1119 2156 
Q 1203 2125 1616 2013 
Q 2213 1853 2448 1751 
Q 2684 1650 2818 1456 
Q 2953 1263 2953 975 
Q 2953 694 2789 445 
Q 2625 197 2315 61 
Q 2006 -75 1616 -75 
Q 969 -75 630 194 
Q 291 463 197 991 
z
" transform="scale(0.015625)"/>
     </defs>
     <use xlink:href="#ArialMT-52"/>
     <use xlink:href="#ArialMT-6f" x="72.216797"/>
     <use xlink:href="#ArialMT-74" x="127.832031"/>
     <use xlink:href="#ArialMT-61" x="155.615234"/>
     <use xlink:href="#ArialMT-76" x="211.230469"/>
     <use xlink:href="#ArialMT-69" x="261.230469"/>
     <use xlink:href="#ArialMT-72" x="283.447266"/>
     <use xlink:href="#ArialMT-75" x="316.748047"/>
     <use xlink:href="#ArialMT-73" x="372.363281"/>
    </g>
   </g>
  </g>
  <g id="axes_2">
   <g id="patch_7">
    <path d="M 116.3625 267.283333 
L 832.773182 267.283333 
L 832.773182 172.575 
L 116.3625 172.575 
z
" style="fill: #ffffff"/>
   </g>
   <g id="matplotlib.axis_3">
    <g id="xtick_7">
     <g id="line2d_12">
      <g>
       <use xlink:href="#m6e7eb85b42" x="221.640321" y="267.283333" style="fill: #262626; stroke: #262626; stroke-width: 1.25"/>
      </g>
     </g>
    </g>
    <g id="xtick_8">
     <g id="line2d_13">
      <g>
       <use xlink:href="#m6e7eb85b42" x="340.607518" y="267.283333" style="fill: #262626; stroke: #262626; stroke-width: 1.25"/>
      </g>
     </g>
    </g>
    <g id="xtick_9">
     <g id="line2d_14">
      <g>
       <use xlink:href="#m6e7eb85b42" x="459.574715" y="267.283333" style="fill: #262626; stroke: #262626; stroke-width: 1.25"/>
      </g>
     </g>
    </g>
    <g id="xtick_10">
     <g id="line2d_15">
      <g>
       <use xlink:href="#m6e7eb85b42" x="578.541912" y="267.283333" style="fill: #262626; stroke: #262626; stroke-width: 1.25"/>
      </g>
     </g>
    </g>
    <g id="xtick_11">
     <g id="line2d_16">
      <g>
       <use xlink:href="#m6e7eb85b42" x="697.835046" y="267.283333" style="fill: #262626; stroke: #262626; stroke-width: 1.25"/>
      </g>
     </g>
    </g>
    <g id="xtick_12">
     <g id="line2d_17">
      <g>
       <use xlink:href="#m6e7eb85b42" x="816.802243" y="267.283333" style="fill: #262626; stroke: #262626; stroke-width: 1.25"/>
      </g>
     </g>
    </g>
   </g>
   <g id="matplotlib.axis_4">
    <g id="ytick_5">
     <g id="line2d_18">
      <g>
       <use xlink:href="#mf61c1a16b7" x="116.3625" y="248.072688" style="fill: #262626; stroke: #262626; stroke-width: 1.25"/>
      </g>
     </g>
     <g id="text_6">
      <!-- 0 -->
      <g style="fill: #262626" transform="translate(100.745469 252.009485) scale(0.11 -0.11)">
       <use xlink:href="#ArialMT-30"/>
      </g>
     </g>
    </g>
    <g id="ytick_6">
     <g id="line2d_19">
      <g>
       <use xlink:href="#mf61c1a16b7" x="116.3625" y="202.095292" style="fill: #262626; stroke: #262626; stroke-width: 1.25"/>
      </g>
     </g>
     <g id="text_7">
      <!-- 100 -->
      <g style="fill: #262626" transform="translate(88.511406 206.032089) scale(0.11 -0.11)">
       <use xlink:href="#ArialMT-31"/>
       <use xlink:href="#ArialMT-30" x="55.615234"/>
       <use xlink:href="#ArialMT-30" x="111.230469"/>
      </g>
     </g>
    </g>
    <g id="text_8">
     <!-- Trend -->
     <g style="fill: #262626" transform="translate(82.126406 235.376354) rotate(-90) scale(0.12 -0.12)">
      <defs>
       <path id="ArialMT-54" d="M 1659 0 
L 1659 4041 
L 150 4041 
L 150 4581 
L 3781 4581 
L 3781 4041 
L 2266 4041 
L 2266 0 
L 1659 0 
z
" transform="scale(0.015625)"/>
       <path id="ArialMT-65" d="M 2694 1069 
L 3275 997 
Q 3138 488 2766 206 
Q 2394 -75 1816 -75 
Q 1088 -75 661 373 
Q 234 822 234 1631 
Q 234 2469 665 2931 
Q 1097 3394 1784 3394 
Q 2450 3394 2872 2941 
Q 3294 2488 3294 1666 
Q 3294 1616 3291 1516 
L 816 1516 
Q 847 969 1125 678 
Q 1403 388 1819 388 
Q 2128 388 2347 550 
Q 2566 713 2694 1069 
z
M 847 1978 
L 2700 1978 
Q 2663 2397 2488 2606 
Q 2219 2931 1791 2931 
Q 1403 2931 1139 2672 
Q 875 2413 847 1978 
z
" transform="scale(0.015625)"/>
       <path id="ArialMT-6e" d="M 422 0 
L 422 3319 
L 928 3319 
L 928 2847 
Q 1294 3394 1984 3394 
Q 2284 3394 2536 3286 
Q 2788 3178 2913 3003 
Q 3038 2828 3088 2588 
Q 3119 2431 3119 2041 
L 3119 0 
L 2556 0 
L 2556 2019 
Q 2556 2363 2490 2533 
Q 2425 2703 2258 2804 
Q 2091 2906 1866 2906 
Q 1506 2906 1245 2678 
Q 984 2450 984 1813 
L 984 0 
L 422 0 
z
" transform="scale(0.015625)"/>
       <path id="ArialMT-64" d="M 2575 0 
L 2575 419 
Q 2259 -75 1647 -75 
Q 1250 -75 917 144 
Q 584 363 401 755 
Q 219 1147 219 1656 
Q 219 2153 384 2558 
Q 550 2963 881 3178 
Q 1213 3394 1622 3394 
Q 1922 3394 2156 3267 
Q 2391 3141 2538 2938 
L 2538 4581 
L 3097 4581 
L 3097 0 
L 2575 0 
z
M 797 1656 
Q 797 1019 1065 703 
Q 1334 388 1700 388 
Q 2069 388 2326 689 
Q 2584 991 2584 1609 
Q 2584 2291 2321 2609 
Q 2059 2928 1675 2928 
Q 1300 2928 1048 2622 
Q 797 2316 797 1656 
z
" transform="scale(0.015625)"/>
      </defs>
      <use xlink:href="#ArialMT-54"/>
      <use xlink:href="#ArialMT-72" x="57.333984"/>
      <use xlink:href="#ArialMT-65" x="90.634766"/>
      <use xlink:href="#ArialMT-6e" x="146.25"/>
      <use xlink:href="#ArialMT-64" x="201.865234"/>
     </g>
    </g>
   </g>
   <g id="line2d_20">
    <path d="M 116.3625 260.162706 
L 125.488751 258.306183 
L 130.051876 257.845004 
L 155.149066 252.901132 
L 175.68313 249.082874 
L 219.032821 241.304712 
L 228.159071 240.854837 
L 232.722197 240.01592 
L 244.13001 238.192402 
L 253.256261 236.977748 
L 273.790325 234.640185 
L 278.35345 233.869632 
L 282.916576 232.915803 
L 287.479701 231.771462 
L 292.042827 230.450251 
L 298.887515 228.200423 
L 305.732203 225.715282 
L 321.703141 219.549193 
L 330.829392 216.140048 
L 337.67408 213.817454 
L 344.518768 213.111142 
L 349.081894 211.8154 
L 353.645019 210.689956 
L 358.208144 209.757118 
L 360.489707 209.361395 
L 387.868459 209.011619 
L 392.431585 208.459478 
L 396.99471 208.105153 
L 406.120961 207.964936 
L 410.684086 208.066767 
L 415.247211 208.453121 
L 419.810337 209.164065 
L 424.373462 210.203128 
L 428.936587 211.548201 
L 433.499713 213.157114 
L 438.062838 214.97807 
L 444.907526 218.00045 
L 454.033777 222.341592 
L 458.596902 224.551098 
L 463.160028 225.649052 
L 470.004716 226.736711 
L 476.849404 229.891202 
L 481.412529 231.846824 
L 485.975655 233.617187 
L 490.53878 235.141291 
L 495.101905 236.371296 
L 499.665031 237.253314 
L 504.228156 237.718264 
L 508.791281 237.760098 
L 511.072844 237.612382 
L 513.354407 237.346034 
L 517.917532 236.471602 
L 520.199095 235.862868 
L 522.480657 235.131436 
L 524.76222 234.273756 
L 527.043783 233.287809 
L 529.325345 232.166578 
L 531.606908 230.906438 
L 533.888471 229.507889 
L 538.451596 226.314281 
L 543.014722 222.652273 
L 547.577847 218.625459 
L 554.422535 212.166652 
L 565.830348 201.288983 
L 570.393474 197.229335 
L 574.956599 193.467385 
L 577.238162 191.714763 
L 581.801287 190.054161 
L 586.364413 187.02343 
L 590.927538 184.396411 
L 595.490663 182.181767 
L 600.053789 180.369923 
L 636.558792 179.60955 
L 641.121917 178.374018 
L 645.685042 177.510026 
L 650.248168 177.01824 
L 654.811293 176.879924 
L 659.374418 176.941924 
L 670.782232 177.66018 
L 673.063794 178.078058 
L 682.190045 178.595257 
L 686.753171 179.954545 
L 689.034733 180.81086 
L 691.316296 181.793292 
L 693.597859 182.904674 
L 695.879421 184.145341 
L 700.442547 185.51331 
L 705.005672 188.612587 
L 709.568797 192.147789 
L 714.131923 196.043227 
L 718.695048 200.208112 
L 725.539736 206.730489 
L 727.821299 208.537164 
L 732.384424 211.741168 
L 736.94755 214.62243 
L 746.0738 220.015796 
L 759.763176 227.786984 
L 775.734115 236.594327 
L 789.423491 243.87929 
L 800.831305 249.667521 
L 809.957555 254.048006 
L 814.520681 256.144389 
L 819.083806 257.168434 
L 828.210057 261.104138 
L 832.773182 262.978409 
L 832.773182 262.978409 
" clip-path="url(#peb796b7da1)" style="fill: none; stroke: #4c72b0; stroke-width: 1.5; stroke-linecap: round"/>
   </g>
   <g id="patch_8">
    <path d="M 116.3625 267.283333 
L 116.3625 172.575 
" style="fill: none; stroke: #262626; stroke-width: 1.25; stroke-linejoin: miter; stroke-linecap: square"/>
   </g>
   <g id="patch_9">
    <path d="M 832.773182 267.283333 
L 832.773182 172.575 
" style="fill: none; stroke: #262626; stroke-width: 1.25; stroke-linejoin: miter; stroke-linecap: square"/>
   </g>
   <g id="patch_10">
    <path d="M 116.3625 267.283333 
L 832.773182 267.283333 
" style="fill: none; stroke: #262626; stroke-width: 1.25; stroke-linejoin: miter; stroke-linecap: square"/>
   </g>
   <g id="patch_11">
    <path d="M 116.3625 172.575 
L 832.773182 172.575 
" style="fill: none; stroke: #262626; stroke-width: 1.25; stroke-linejoin: miter; stroke-linecap: square"/>
   </g>
  </g>
  <g id="axes_3">
   <g id="patch_12">
    <path d="M 116.3625 393.591667 
L 832.773182 393.591667 
L 832.773182 298.883333 
L 116.3625 298.883333 
z
" style="fill: #ffffff"/>
   </g>
   <g id="matplotlib.axis_5">
    <g id="xtick_13">
     <g id="line2d_21">
      <g>
       <use xlink:href="#m6e7eb85b42" x="221.640321" y="393.591667" style="fill: #262626; stroke: #262626; stroke-width: 1.25"/>
      </g>
     </g>
    </g>
    <g id="xtick_14">
     <g id="line2d_22">
      <g>
       <use xlink:href="#m6e7eb85b42" x="340.607518" y="393.591667" style="fill: #262626; stroke: #262626; stroke-width: 1.25"/>
      </g>
     </g>
    </g>
    <g id="xtick_15">
     <g id="line2d_23">
      <g>
       <use xlink:href="#m6e7eb85b42" x="459.574715" y="393.591667" style="fill: #262626; stroke: #262626; stroke-width: 1.25"/>
      </g>
     </g>
    </g>
    <g id="xtick_16">
     <g id="line2d_24">
      <g>
       <use xlink:href="#m6e7eb85b42" x="578.541912" y="393.591667" style="fill: #262626; stroke: #262626; stroke-width: 1.25"/>
      </g>
     </g>
    </g>
    <g id="xtick_17">
     <g id="line2d_25">
      <g>
       <use xlink:href="#m6e7eb85b42" x="697.835046" y="393.591667" style="fill: #262626; stroke: #262626; stroke-width: 1.25"/>
      </g>
     </g>
    </g>
    <g id="xtick_18">
     <g id="line2d_26">
      <g>
       <use xlink:href="#m6e7eb85b42" x="816.802243" y="393.591667" style="fill: #262626; stroke: #262626; stroke-width: 1.25"/>
      </g>
     </g>
    </g>
   </g>
   <g id="matplotlib.axis_6">
    <g id="ytick_7">
     <g id="line2d_27">
      <g>
       <use xlink:href="#mf61c1a16b7" x="116.3625" y="373.235091" style="fill: #262626; stroke: #262626; stroke-width: 1.25"/>
      </g>
     </g>
     <g id="text_9">
      <!-- 0 -->
      <g style="fill: #262626" transform="translate(100.745469 377.171888) scale(0.11 -0.11)">
       <use xlink:href="#ArialMT-30"/>
      </g>
     </g>
    </g>
    <g id="ytick_8">
     <g id="line2d_28">
      <g>
       <use xlink:href="#mf61c1a16b7" x="116.3625" y="328.097634" style="fill: #262626; stroke: #262626; stroke-width: 1.25"/>
      </g>
     </g>
     <g id="text_10">
      <!-- 500 -->
      <g style="fill: #262626" transform="translate(88.511406 332.03443) scale(0.11 -0.11)">
       <use xlink:href="#ArialMT-35"/>
       <use xlink:href="#ArialMT-30" x="55.615234"/>
       <use xlink:href="#ArialMT-30" x="111.230469"/>
      </g>
     </g>
    </g>
    <g id="text_11">
     <!-- Season -->
     <g style="fill: #262626" transform="translate(82.126406 366.585937) rotate(-90) scale(0.12 -0.12)">
      <defs>
       <path id="ArialMT-53" d="M 288 1472 
L 859 1522 
Q 900 1178 1048 958 
Q 1197 738 1509 602 
Q 1822 466 2213 466 
Q 2559 466 2825 569 
Q 3091 672 3220 851 
Q 3350 1031 3350 1244 
Q 3350 1459 3225 1620 
Q 3100 1781 2813 1891 
Q 2628 1963 1997 2114 
Q 1366 2266 1113 2400 
Q 784 2572 623 2826 
Q 463 3081 463 3397 
Q 463 3744 659 4045 
Q 856 4347 1234 4503 
Q 1613 4659 2075 4659 
Q 2584 4659 2973 4495 
Q 3363 4331 3572 4012 
Q 3781 3694 3797 3291 
L 3216 3247 
Q 3169 3681 2898 3903 
Q 2628 4125 2100 4125 
Q 1550 4125 1298 3923 
Q 1047 3722 1047 3438 
Q 1047 3191 1225 3031 
Q 1400 2872 2139 2705 
Q 2878 2538 3153 2413 
Q 3553 2228 3743 1945 
Q 3934 1663 3934 1294 
Q 3934 928 3725 604 
Q 3516 281 3123 101 
Q 2731 -78 2241 -78 
Q 1619 -78 1198 103 
Q 778 284 539 648 
Q 300 1013 288 1472 
z
" transform="scale(0.015625)"/>
      </defs>
      <use xlink:href="#ArialMT-53"/>
      <use xlink:href="#ArialMT-65" x="66.699219"/>
      <use xlink:href="#ArialMT-61" x="122.314453"/>
      <use xlink:href="#ArialMT-73" x="177.929688"/>
      <use xlink:href="#ArialMT-6f" x="227.929688"/>
      <use xlink:href="#ArialMT-6e" x="283.544922"/>
     </g>
    </g>
   </g>
   <g id="line2d_29">
    <path d="M 116.3625 371.529145 
L 118.644063 371.952681 
L 120.925625 371.774899 
L 123.207188 374.063713 
L 125.488751 372.106789 
L 130.051876 372.120428 
L 132.333439 364.493879 
L 134.615001 381.153673 
L 136.896564 361.776255 
L 139.178127 372.369757 
L 141.45969 372.160604 
L 143.741252 367.488186 
L 146.022815 371.486217 
L 148.304378 372.301682 
L 150.58594 369.734866 
L 152.867503 372.846946 
L 155.149066 372.62397 
L 157.430628 371.987502 
L 159.712191 372.252045 
L 161.993754 371.478703 
L 164.275316 372.869497 
L 166.556879 373.204431 
L 168.838442 369.466221 
L 171.120004 373.067372 
L 173.401567 372.505066 
L 175.68313 373.271344 
L 177.964692 373.373699 
L 180.246255 373.856139 
L 182.527818 373.332252 
L 184.80938 374.083725 
L 187.090943 370.195259 
L 189.372506 373.711832 
L 191.654069 374.458056 
L 193.935631 371.997458 
L 196.217194 373.935639 
L 198.498757 374.696443 
L 200.780319 374.740698 
L 203.061882 375.034998 
L 205.343445 375.619427 
L 207.625007 374.676549 
L 209.90657 375.705224 
L 212.188133 375.632105 
L 214.469695 376.79361 
L 216.751258 376.524407 
L 219.032821 375.787623 
L 228.159071 375.617265 
L 230.440634 389.286742 
L 232.722197 375.883533 
L 235.003759 373.999529 
L 237.285322 374.501272 
L 239.566885 373.758673 
L 241.848448 368.227475 
L 244.13001 374.580523 
L 246.411573 374.387141 
L 248.693136 353.937228 
L 250.974698 373.518906 
L 253.256261 364.695248 
L 255.537824 374.510516 
L 257.819386 374.71494 
L 260.100949 343.109521 
L 262.382512 371.512493 
L 264.664074 373.340016 
L 266.945637 372.625497 
L 269.2272 374.578399 
L 271.508762 374.417257 
L 273.790325 372.455373 
L 276.071888 373.618282 
L 278.35345 373.910118 
L 280.635013 375.210657 
L 282.916576 375.366885 
L 285.198138 372.513175 
L 287.479701 374.559897 
L 289.761264 374.344036 
L 292.042827 374.840852 
L 294.324389 374.977687 
L 296.605952 375.880931 
L 298.887515 375.490151 
L 301.169077 375.836315 
L 303.45064 372.765491 
L 305.732203 375.332596 
L 308.013765 376.608395 
L 310.295328 372.774535 
L 312.576891 375.254375 
L 314.858453 376.667504 
L 317.140016 376.946835 
L 319.421579 376.443278 
L 321.703141 376.12914 
L 323.984704 375.281211 
L 326.266267 376.550864 
L 328.547829 377.026631 
L 330.829392 376.109853 
L 333.110955 376.481551 
L 335.392517 377.183189 
L 337.67408 376.243617 
L 344.518768 364.654338 
L 346.800331 377.522138 
L 349.081894 376.556242 
L 351.363456 377.061694 
L 353.645019 375.972321 
L 355.926582 357.623673 
L 358.208144 377.148595 
L 360.489707 376.805996 
L 387.868459 348.679084 
L 390.150022 361.475233 
L 392.431585 367.799202 
L 394.713147 376.746626 
L 396.99471 377.258212 
L 401.557835 320.708342 
L 406.120961 372.500597 
L 408.402523 374.862364 
L 410.684086 375.417132 
L 412.965649 376.528172 
L 415.247211 376.495964 
L 417.528774 373.737317 
L 419.810337 375.413522 
L 422.091899 376.392354 
L 424.373462 377.562509 
L 426.655025 377.611672 
L 428.936587 375.297689 
L 431.21815 376.412524 
L 433.499713 376.439201 
L 438.062838 376.885684 
L 440.344401 377.938438 
L 442.625964 377.695687 
L 444.907526 377.609191 
L 447.189089 375.31376 
L 449.470652 377.188571 
L 451.752214 378.685722 
L 454.033777 374.174165 
L 456.31534 376.998223 
L 458.596902 378.63294 
L 463.160028 379.139624 
L 470.004716 378.005606 
L 472.286278 376.750432 
L 474.567841 375.907084 
L 476.849404 377.526772 
L 479.130966 378.322445 
L 481.412529 375.550091 
L 483.694092 376.385958 
L 485.975655 378.673788 
L 488.257217 376.947673 
L 490.53878 341.281356 
L 492.820343 379.276344 
L 495.101905 378.913747 
L 497.383468 379.162039 
L 499.665031 378.15816 
L 501.946593 338.666655 
L 504.228156 379.21536 
L 506.509719 379.025821 
L 508.791281 353.767593 
L 511.072844 339.810005 
L 513.354407 374.063157 
L 515.635969 378.664865 
L 517.917532 379.230973 
L 520.199095 303.188258 
L 522.480657 374.659016 
L 524.76222 376.784081 
L 527.043783 378.191149 
L 529.325345 378.118317 
L 531.606908 378.319893 
L 533.888471 375.670226 
L 536.170034 377.277427 
L 538.451596 378.389754 
L 540.733159 378.992888 
L 543.014722 378.744454 
L 545.296284 377.72559 
L 547.577847 377.487496 
L 549.85941 377.788072 
L 552.140972 377.049123 
L 556.704098 378.15872 
L 558.98566 378.151586 
L 561.267223 378.37978 
L 563.548786 378.438708 
L 568.111911 379.242782 
L 570.393474 376.730935 
L 572.675036 378.894357 
L 574.956599 379.021134 
L 577.238162 379.693131 
L 581.801287 378.884484 
L 584.08285 376.818385 
L 586.364413 376.022556 
L 588.645975 377.51331 
L 590.927538 376.702091 
L 593.209101 374.31497 
L 595.490663 373.906281 
L 597.772226 378.322226 
L 600.053789 375.793631 
L 636.558792 331.260913 
L 638.840354 378.965642 
L 641.121917 379.161595 
L 643.40348 378.99253 
L 645.685042 378.459329 
L 647.966605 330.321748 
L 650.248168 378.48001 
L 652.52973 378.985503 
L 654.811293 370.238769 
L 659.374418 330.847036 
L 661.655981 377.602595 
L 663.937544 378.185711 
L 670.782232 378.261302 
L 673.063794 316.476606 
L 682.190045 376.35711 
L 684.471608 377.46837 
L 686.753171 377.580968 
L 689.034733 377.416113 
L 691.316296 378.034473 
L 693.597859 376.751392 
L 695.879421 377.452589 
L 700.442547 377.385886 
L 702.724109 377.673865 
L 705.005672 376.994847 
L 707.287235 376.869412 
L 709.568797 376.418563 
L 711.85036 376.848291 
L 714.131923 374.600062 
L 716.413485 376.15918 
L 718.695048 375.781392 
L 720.976611 375.893265 
L 723.258173 379.267381 
L 725.539736 381.871848 
L 727.821299 380.757948 
L 730.102862 379.870955 
L 732.384424 380.149096 
L 734.665987 381.335723 
L 736.94755 379.57833 
L 739.229112 380.419262 
L 741.510675 379.992121 
L 743.792238 376.989033 
L 746.0738 376.238065 
L 748.355363 377.689696 
L 750.636926 375.259941 
L 752.918488 373.114114 
L 755.200051 371.506507 
L 757.481614 378.251009 
L 759.763176 374.775689 
L 762.044739 319.220058 
L 764.326302 379.000452 
L 766.607864 379.803097 
L 768.889427 379.205682 
L 771.17099 379.19764 
L 773.452552 319.486981 
L 775.734115 378.126013 
L 778.015678 379.364343 
L 780.297241 387.981182 
L 782.578803 319.970098 
L 784.860366 380.826393 
L 787.141929 378.065236 
L 789.423491 377.558011 
L 791.705054 328.49782 
L 793.986617 378.503317 
L 796.268179 378.547102 
L 798.549742 376.948589 
L 800.831305 377.004856 
L 803.112867 377.998707 
L 805.39443 378.130266 
L 807.675993 377.838033 
L 809.957555 376.371746 
L 812.239118 376.406562 
L 814.520681 375.280595 
L 819.083806 375.667303 
L 821.365369 375.363349 
L 823.646931 375.829129 
L 825.928494 372.006229 
L 828.210057 374.577093 
L 830.49162 373.183174 
L 832.773182 373.340812 
L 832.773182 373.340812 
" clip-path="url(#p26bbfa4b52)" style="fill: none; stroke: #4c72b0; stroke-width: 1.5; stroke-linecap: round"/>
   </g>
   <g id="patch_13">
    <path d="M 116.3625 393.591667 
L 116.3625 298.883333 
" style="fill: none; stroke: #262626; stroke-width: 1.25; stroke-linejoin: miter; stroke-linecap: square"/>
   </g>
   <g id="patch_14">
    <path d="M 832.773182 393.591667 
L 832.773182 298.883333 
" style="fill: none; stroke: #262626; stroke-width: 1.25; stroke-linejoin: miter; stroke-linecap: square"/>
   </g>
   <g id="patch_15">
    <path d="M 116.3625 393.591667 
L 832.773182 393.591667 
" style="fill: none; stroke: #262626; stroke-width: 1.25; stroke-linejoin: miter; stroke-linecap: square"/>
   </g>
   <g id="patch_16">
    <path d="M 116.3625 298.883333 
L 832.773182 298.883333 
" style="fill: none; stroke: #262626; stroke-width: 1.25; stroke-linejoin: miter; stroke-linecap: square"/>
   </g>
  </g>
  <g id="axes_4">
   <g id="patch_17">
    <path d="M 116.3625 519.9 
L 832.773182 519.9 
L 832.773182 425.191667 
L 116.3625 425.191667 
z
" style="fill: #ffffff"/>
   </g>
   <g id="line2d_30">
    <path d="M 116.3625 478.935655 
L 832.773182 478.935655 
" clip-path="url(#p4b9543fe5b)" style="fill: none; stroke: #000000; stroke-width: 1.5; stroke-linecap: round"/>
   </g>
   <g id="matplotlib.axis_7">
    <g id="xtick_19">
     <g id="line2d_31">
      <g>
       <use xlink:href="#m6e7eb85b42" x="221.640321" y="519.9" style="fill: #262626; stroke: #262626; stroke-width: 1.25"/>
      </g>
     </g>
     <g id="text_12">
      <!-- 2017 -->
      <g style="fill: #262626" transform="translate(209.406258 537.273594) scale(0.11 -0.11)">
       <defs>
        <path id="ArialMT-32" d="M 3222 541 
L 3222 0 
L 194 0 
Q 188 203 259 391 
Q 375 700 629 1000 
Q 884 1300 1366 1694 
Q 2113 2306 2375 2664 
Q 2638 3022 2638 3341 
Q 2638 3675 2398 3904 
Q 2159 4134 1775 4134 
Q 1369 4134 1125 3890 
Q 881 3647 878 3216 
L 300 3275 
Q 359 3922 746 4261 
Q 1134 4600 1788 4600 
Q 2447 4600 2831 4234 
Q 3216 3869 3216 3328 
Q 3216 3053 3103 2787 
Q 2991 2522 2730 2228 
Q 2469 1934 1863 1422 
Q 1356 997 1212 845 
Q 1069 694 975 541 
L 3222 541 
z
" transform="scale(0.015625)"/>
        <path id="ArialMT-37" d="M 303 3981 
L 303 4522 
L 3269 4522 
L 3269 4084 
Q 2831 3619 2401 2847 
Q 1972 2075 1738 1259 
Q 1569 684 1522 0 
L 944 0 
Q 953 541 1156 1306 
Q 1359 2072 1739 2783 
Q 2119 3494 2547 3981 
L 303 3981 
z
" transform="scale(0.015625)"/>
       </defs>
       <use xlink:href="#ArialMT-32"/>
       <use xlink:href="#ArialMT-30" x="55.615234"/>
       <use xlink:href="#ArialMT-31" x="111.230469"/>
       <use xlink:href="#ArialMT-37" x="166.845703"/>
      </g>
     </g>
    </g>
    <g id="xtick_20">
     <g id="line2d_32">
      <g>
       <use xlink:href="#m6e7eb85b42" x="340.607518" y="519.9" style="fill: #262626; stroke: #262626; stroke-width: 1.25"/>
      </g>
     </g>
     <g id="text_13">
      <!-- 2018 -->
      <g style="fill: #262626" transform="translate(328.373455 537.273594) scale(0.11 -0.11)">
       <defs>
        <path id="ArialMT-38" d="M 1131 2484 
Q 781 2613 612 2850 
Q 444 3088 444 3419 
Q 444 3919 803 4259 
Q 1163 4600 1759 4600 
Q 2359 4600 2725 4251 
Q 3091 3903 3091 3403 
Q 3091 3084 2923 2848 
Q 2756 2613 2416 2484 
Q 2838 2347 3058 2040 
Q 3278 1734 3278 1309 
Q 3278 722 2862 322 
Q 2447 -78 1769 -78 
Q 1091 -78 675 323 
Q 259 725 259 1325 
Q 259 1772 486 2073 
Q 713 2375 1131 2484 
z
M 1019 3438 
Q 1019 3113 1228 2906 
Q 1438 2700 1772 2700 
Q 2097 2700 2305 2904 
Q 2513 3109 2513 3406 
Q 2513 3716 2298 3927 
Q 2084 4138 1766 4138 
Q 1444 4138 1231 3931 
Q 1019 3725 1019 3438 
z
M 838 1322 
Q 838 1081 952 856 
Q 1066 631 1291 507 
Q 1516 384 1775 384 
Q 2178 384 2440 643 
Q 2703 903 2703 1303 
Q 2703 1709 2433 1975 
Q 2163 2241 1756 2241 
Q 1359 2241 1098 1978 
Q 838 1716 838 1322 
z
" transform="scale(0.015625)"/>
       </defs>
       <use xlink:href="#ArialMT-32"/>
       <use xlink:href="#ArialMT-30" x="55.615234"/>
       <use xlink:href="#ArialMT-31" x="111.230469"/>
       <use xlink:href="#ArialMT-38" x="166.845703"/>
      </g>
     </g>
    </g>
    <g id="xtick_21">
     <g id="line2d_33">
      <g>
       <use xlink:href="#m6e7eb85b42" x="459.574715" y="519.9" style="fill: #262626; stroke: #262626; stroke-width: 1.25"/>
      </g>
     </g>
     <g id="text_14">
      <!-- 2019 -->
      <g style="fill: #262626" transform="translate(447.340652 537.273594) scale(0.11 -0.11)">
       <defs>
        <path id="ArialMT-39" d="M 350 1059 
L 891 1109 
Q 959 728 1153 556 
Q 1347 384 1650 384 
Q 1909 384 2104 503 
Q 2300 622 2425 820 
Q 2550 1019 2634 1356 
Q 2719 1694 2719 2044 
Q 2719 2081 2716 2156 
Q 2547 1888 2255 1720 
Q 1963 1553 1622 1553 
Q 1053 1553 659 1965 
Q 266 2378 266 3053 
Q 266 3750 677 4175 
Q 1088 4600 1706 4600 
Q 2153 4600 2523 4359 
Q 2894 4119 3086 3673 
Q 3278 3228 3278 2384 
Q 3278 1506 3087 986 
Q 2897 466 2520 194 
Q 2144 -78 1638 -78 
Q 1100 -78 759 220 
Q 419 519 350 1059 
z
M 2653 3081 
Q 2653 3566 2395 3850 
Q 2138 4134 1775 4134 
Q 1400 4134 1122 3828 
Q 844 3522 844 3034 
Q 844 2597 1108 2323 
Q 1372 2050 1759 2050 
Q 2150 2050 2401 2323 
Q 2653 2597 2653 3081 
z
" transform="scale(0.015625)"/>
       </defs>
       <use xlink:href="#ArialMT-32"/>
       <use xlink:href="#ArialMT-30" x="55.615234"/>
       <use xlink:href="#ArialMT-31" x="111.230469"/>
       <use xlink:href="#ArialMT-39" x="166.845703"/>
      </g>
     </g>
    </g>
    <g id="xtick_22">
     <g id="line2d_34">
      <g>
       <use xlink:href="#m6e7eb85b42" x="578.541912" y="519.9" style="fill: #262626; stroke: #262626; stroke-width: 1.25"/>
      </g>
     </g>
     <g id="text_15">
      <!-- 2020 -->
      <g style="fill: #262626" transform="translate(566.307849 537.273594) scale(0.11 -0.11)">
       <use xlink:href="#ArialMT-32"/>
       <use xlink:href="#ArialMT-30" x="55.615234"/>
       <use xlink:href="#ArialMT-32" x="111.230469"/>
       <use xlink:href="#ArialMT-30" x="166.845703"/>
      </g>
     </g>
    </g>
    <g id="xtick_23">
     <g id="line2d_35">
      <g>
       <use xlink:href="#m6e7eb85b42" x="697.835046" y="519.9" style="fill: #262626; stroke: #262626; stroke-width: 1.25"/>
      </g>
     </g>
     <g id="text_16">
      <!-- 2021 -->
      <g style="fill: #262626" transform="translate(685.600984 537.273594) scale(0.11 -0.11)">
       <use xlink:href="#ArialMT-32"/>
       <use xlink:href="#ArialMT-30" x="55.615234"/>
       <use xlink:href="#ArialMT-32" x="111.230469"/>
       <use xlink:href="#ArialMT-31" x="166.845703"/>
      </g>
     </g>
    </g>
    <g id="xtick_24">
     <g id="line2d_36">
      <g>
       <use xlink:href="#m6e7eb85b42" x="816.802243" y="519.9" style="fill: #262626; stroke: #262626; stroke-width: 1.25"/>
      </g>
     </g>
     <g id="text_17">
      <!-- 2022 -->
      <g style="fill: #262626" transform="translate(804.568181 537.273594) scale(0.11 -0.11)">
       <use xlink:href="#ArialMT-32"/>
       <use xlink:href="#ArialMT-30" x="55.615234"/>
       <use xlink:href="#ArialMT-32" x="111.230469"/>
       <use xlink:href="#ArialMT-32" x="166.845703"/>
      </g>
     </g>
    </g>
   </g>
   <g id="matplotlib.axis_8">
    <g id="ytick_9">
     <g id="line2d_37">
      <g>
       <use xlink:href="#mf61c1a16b7" x="116.3625" y="478.935655" style="fill: #262626; stroke: #262626; stroke-width: 1.25"/>
      </g>
     </g>
     <g id="text_18">
      <!-- 0 -->
      <g style="fill: #262626" transform="translate(100.745469 482.872452) scale(0.11 -0.11)">
       <use xlink:href="#ArialMT-30"/>
      </g>
     </g>
    </g>
    <g id="ytick_10">
     <g id="line2d_38">
      <g>
       <use xlink:href="#mf61c1a16b7" x="116.3625" y="432.676785" style="fill: #262626; stroke: #262626; stroke-width: 1.25"/>
      </g>
     </g>
     <g id="text_19">
      <!-- 1000 -->
      <g style="fill: #262626" transform="translate(82.394375 436.613582) scale(0.11 -0.11)">
       <use xlink:href="#ArialMT-31"/>
       <use xlink:href="#ArialMT-30" x="55.615234"/>
       <use xlink:href="#ArialMT-30" x="111.230469"/>
       <use xlink:href="#ArialMT-30" x="166.845703"/>
      </g>
     </g>
    </g>
    <g id="text_20">
     <!-- Resid -->
     <g style="fill: #262626" transform="translate(76.009375 487.885208) rotate(-90) scale(0.12 -0.12)">
      <use xlink:href="#ArialMT-52"/>
      <use xlink:href="#ArialMT-65" x="72.216797"/>
      <use xlink:href="#ArialMT-73" x="127.832031"/>
      <use xlink:href="#ArialMT-69" x="177.832031"/>
      <use xlink:href="#ArialMT-64" x="200.048828"/>
     </g>
    </g>
   </g>
   <g id="line2d_39">
    <defs>
     <path id="m3c27efeab5" d="M 0 3 
C 0.795609 3 1.55874 2.683901 2.12132 2.12132 
C 2.683901 1.55874 3 0.795609 3 0 
C 3 -0.795609 2.683901 -1.55874 2.12132 -2.12132 
C 1.55874 -2.683901 0.795609 -3 0 -3 
C -0.795609 -3 -1.55874 -2.683901 -2.12132 -2.12132 
C -2.683901 -1.55874 -3 -0.795609 -3 0 
C -3 0.795609 -2.683901 1.55874 -2.12132 2.12132 
C -1.55874 2.683901 -0.795609 3 0 3 
z
" style="stroke: #4c72b0"/>
    </defs>
    <g clip-path="url(#p4b9543fe5b)">
     <use xlink:href="#m3c27efeab5" x="116.3625" y="478.593417" style="fill: #4c72b0; stroke: #4c72b0"/>
     <use xlink:href="#m3c27efeab5" x="118.644063" y="478.42324" style="fill: #4c72b0; stroke: #4c72b0"/>
     <use xlink:href="#m3c27efeab5" x="120.925625" y="478.561094" style="fill: #4c72b0; stroke: #4c72b0"/>
     <use xlink:href="#m3c27efeab5" x="123.207188" y="477.434904" style="fill: #4c72b0; stroke: #4c72b0"/>
     <use xlink:href="#m3c27efeab5" x="125.488751" y="478.484208" style="fill: #4c72b0; stroke: #4c72b0"/>
     <use xlink:href="#m3c27efeab5" x="130.051876" y="478.52362" style="fill: #4c72b0; stroke: #4c72b0"/>
     <use xlink:href="#m3c27efeab5" x="132.333439" y="482.477884" style="fill: #4c72b0; stroke: #4c72b0"/>
     <use xlink:href="#m3c27efeab5" x="134.615001" y="473.98712" style="fill: #4c72b0; stroke: #4c72b0"/>
     <use xlink:href="#m3c27efeab5" x="136.896564" y="483.962445" style="fill: #4c72b0; stroke: #4c72b0"/>
     <use xlink:href="#m3c27efeab5" x="139.178127" y="478.579806" style="fill: #4c72b0; stroke: #4c72b0"/>
     <use xlink:href="#m3c27efeab5" x="141.45969" y="478.732477" style="fill: #4c72b0; stroke: #4c72b0"/>
     <use xlink:href="#m3c27efeab5" x="143.741252" y="481.172" style="fill: #4c72b0; stroke: #4c72b0"/>
     <use xlink:href="#m3c27efeab5" x="146.022815" y="479.168358" style="fill: #4c72b0; stroke: #4c72b0"/>
     <use xlink:href="#m3c27efeab5" x="148.304378" y="478.795291" style="fill: #4c72b0; stroke: #4c72b0"/>
     <use xlink:href="#m3c27efeab5" x="150.58594" y="480.155129" style="fill: #4c72b0; stroke: #4c72b0"/>
     <use xlink:href="#m3c27efeab5" x="152.867503" y="478.60472" style="fill: #4c72b0; stroke: #4c72b0"/>
     <use xlink:href="#m3c27efeab5" x="155.149066" y="478.763007" style="fill: #4c72b0; stroke: #4c72b0"/>
     <use xlink:href="#m3c27efeab5" x="157.430628" y="479.132912" style="fill: #4c72b0; stroke: #4c72b0"/>
     <use xlink:href="#m3c27efeab5" x="159.712191" y="479.040852" style="fill: #4c72b0; stroke: #4c72b0"/>
     <use xlink:href="#m3c27efeab5" x="161.993754" y="479.480356" style="fill: #4c72b0; stroke: #4c72b0"/>
     <use xlink:href="#m3c27efeab5" x="164.275316" y="478.810636" style="fill: #4c72b0; stroke: #4c72b0"/>
     <use xlink:href="#m3c27efeab5" x="166.556879" y="478.681689" style="fill: #4c72b0; stroke: #4c72b0"/>
     <use xlink:href="#m3c27efeab5" x="168.838442" y="480.63964" style="fill: #4c72b0; stroke: #4c72b0"/>
     <use xlink:href="#m3c27efeab5" x="171.120004" y="478.836469" style="fill: #4c72b0; stroke: #4c72b0"/>
     <use xlink:href="#m3c27efeab5" x="173.401567" y="479.166481" style="fill: #4c72b0; stroke: #4c72b0"/>
     <use xlink:href="#m3c27efeab5" x="175.68313" y="478.815442" style="fill: #4c72b0; stroke: #4c72b0"/>
     <use xlink:href="#m3c27efeab5" x="177.964692" y="478.804365" style="fill: #4c72b0; stroke: #4c72b0"/>
     <use xlink:href="#m3c27efeab5" x="180.246255" y="478.598292" style="fill: #4c72b0; stroke: #4c72b0"/>
     <use xlink:href="#m3c27efeab5" x="182.527818" y="478.907665" style="fill: #4c72b0; stroke: #4c72b0"/>
     <use xlink:href="#m3c27efeab5" x="184.80938" y="478.563315" style="fill: #4c72b0; stroke: #4c72b0"/>
     <use xlink:href="#m3c27efeab5" x="187.090943" y="480.596392" style="fill: #4c72b0; stroke: #4c72b0"/>
     <use xlink:href="#m3c27efeab5" x="189.372506" y="478.834808" style="fill: #4c72b0; stroke: #4c72b0"/>
     <use xlink:href="#m3c27efeab5" x="191.654069" y="478.49269" style="fill: #4c72b0; stroke: #4c72b0"/>
     <use xlink:href="#m3c27efeab5" x="193.935631" y="479.793734" style="fill: #4c72b0; stroke: #4c72b0"/>
     <use xlink:href="#m3c27efeab5" x="196.217194" y="478.840708" style="fill: #4c72b0; stroke: #4c72b0"/>
     <use xlink:href="#m3c27efeab5" x="198.498757" y="478.491013" style="fill: #4c72b0; stroke: #4c72b0"/>
     <use xlink:href="#m3c27efeab5" x="200.780319" y="478.508576" style="fill: #4c72b0; stroke: #4c72b0"/>
     <use xlink:href="#m3c27efeab5" x="203.061882" y="478.398172" style="fill: #4c72b0; stroke: #4c72b0"/>
     <use xlink:href="#m3c27efeab5" x="205.343445" y="478.13935" style="fill: #4c72b0; stroke: #4c72b0"/>
     <use xlink:href="#m3c27efeab5" x="207.625007" y="478.663509" style="fill: #4c72b0; stroke: #4c72b0"/>
     <use xlink:href="#m3c27efeab5" x="209.90657" y="478.17787" style="fill: #4c72b0; stroke: #4c72b0"/>
     <use xlink:href="#m3c27efeab5" x="212.188133" y="478.25741" style="fill: #4c72b0; stroke: #4c72b0"/>
     <use xlink:href="#m3c27efeab5" x="214.469695" y="477.705025" style="fill: #4c72b0; stroke: #4c72b0"/>
     <use xlink:href="#m3c27efeab5" x="216.751258" y="477.886592" style="fill: #4c72b0; stroke: #4c72b0"/>
     <use xlink:href="#m3c27efeab5" x="219.032821" y="478.308623" style="fill: #4c72b0; stroke: #4c72b0"/>
     <use xlink:href="#m3c27efeab5" x="228.159071" y="477.747297" style="fill: #4c72b0; stroke: #4c72b0"/>
     <use xlink:href="#m3c27efeab5" x="230.440634" y="470.418445" style="fill: #4c72b0; stroke: #4c72b0"/>
     <use xlink:href="#m3c27efeab5" x="232.722197" y="478.389144" style="fill: #4c72b0; stroke: #4c72b0"/>
     <use xlink:href="#m3c27efeab5" x="235.003759" y="479.115331" style="fill: #4c72b0; stroke: #4c72b0"/>
     <use xlink:href="#m3c27efeab5" x="237.285322" y="479.173579" style="fill: #4c72b0; stroke: #4c72b0"/>
     <use xlink:href="#m3c27efeab5" x="239.566885" y="479.591048" style="fill: #4c72b0; stroke: #4c72b0"/>
     <use xlink:href="#m3c27efeab5" x="241.848448" y="473.116901" style="fill: #4c72b0; stroke: #4c72b0"/>
     <use xlink:href="#m3c27efeab5" x="244.13001" y="479.240304" style="fill: #4c72b0; stroke: #4c72b0"/>
     <use xlink:href="#m3c27efeab5" x="246.411573" y="479.372532" style="fill: #4c72b0; stroke: #4c72b0"/>
     <use xlink:href="#m3c27efeab5" x="248.693136" y="489.513001" style="fill: #4c72b0; stroke: #4c72b0"/>
     <use xlink:href="#m3c27efeab5" x="250.974698" y="479.601181" style="fill: #4c72b0; stroke: #4c72b0"/>
     <use xlink:href="#m3c27efeab5" x="253.256261" y="471.151651" style="fill: #4c72b0; stroke: #4c72b0"/>
     <use xlink:href="#m3c27efeab5" x="255.537824" y="479.146728" style="fill: #4c72b0; stroke: #4c72b0"/>
     <use xlink:href="#m3c27efeab5" x="257.819386" y="478.604124" style="fill: #4c72b0; stroke: #4c72b0"/>
     <use xlink:href="#m3c27efeab5" x="260.100949" y="489.087472" style="fill: #4c72b0; stroke: #4c72b0"/>
     <use xlink:href="#m3c27efeab5" x="262.382512" y="480.987065" style="fill: #4c72b0; stroke: #4c72b0"/>
     <use xlink:href="#m3c27efeab5" x="264.664074" y="480.07467" style="fill: #4c72b0; stroke: #4c72b0"/>
     <use xlink:href="#m3c27efeab5" x="266.945637" y="476.209645" style="fill: #4c72b0; stroke: #4c72b0"/>
     <use xlink:href="#m3c27efeab5" x="269.2272" y="479.537302" style="fill: #4c72b0; stroke: #4c72b0"/>
     <use xlink:href="#m3c27efeab5" x="271.508762" y="479.556343" style="fill: #4c72b0; stroke: #4c72b0"/>
     <use xlink:href="#m3c27efeab5" x="273.790325" y="480.686674" style="fill: #4c72b0; stroke: #4c72b0"/>
     <use xlink:href="#m3c27efeab5" x="276.071888" y="479.618488" style="fill: #4c72b0; stroke: #4c72b0"/>
     <use xlink:href="#m3c27efeab5" x="278.35345" y="477.798332" style="fill: #4c72b0; stroke: #4c72b0"/>
     <use xlink:href="#m3c27efeab5" x="280.635013" y="478.750297" style="fill: #4c72b0; stroke: #4c72b0"/>
     <use xlink:href="#m3c27efeab5" x="282.916576" y="479.183209" style="fill: #4c72b0; stroke: #4c72b0"/>
     <use xlink:href="#m3c27efeab5" x="285.198138" y="475.242174" style="fill: #4c72b0; stroke: #4c72b0"/>
     <use xlink:href="#m3c27efeab5" x="287.479701" y="479.896898" style="fill: #4c72b0; stroke: #4c72b0"/>
     <use xlink:href="#m3c27efeab5" x="289.761264" y="479.100472" style="fill: #4c72b0; stroke: #4c72b0"/>
     <use xlink:href="#m3c27efeab5" x="292.042827" y="479.700825" style="fill: #4c72b0; stroke: #4c72b0"/>
     <use xlink:href="#m3c27efeab5" x="294.324389" y="479.887992" style="fill: #4c72b0; stroke: #4c72b0"/>
     <use xlink:href="#m3c27efeab5" x="296.605952" y="479.500724" style="fill: #4c72b0; stroke: #4c72b0"/>
     <use xlink:href="#m3c27efeab5" x="298.887515" y="479.085622" style="fill: #4c72b0; stroke: #4c72b0"/>
     <use xlink:href="#m3c27efeab5" x="301.169077" y="479.683293" style="fill: #4c72b0; stroke: #4c72b0"/>
     <use xlink:href="#m3c27efeab5" x="303.45064" y="476.344356" style="fill: #4c72b0; stroke: #4c72b0"/>
     <use xlink:href="#m3c27efeab5" x="305.732203" y="479.878981" style="fill: #4c72b0; stroke: #4c72b0"/>
     <use xlink:href="#m3c27efeab5" x="308.013765" y="479.543501" style="fill: #4c72b0; stroke: #4c72b0"/>
     <use xlink:href="#m3c27efeab5" x="310.295328" y="479.699595" style="fill: #4c72b0; stroke: #4c72b0"/>
     <use xlink:href="#m3c27efeab5" x="312.576891" y="480.414409" style="fill: #4c72b0; stroke: #4c72b0"/>
     <use xlink:href="#m3c27efeab5" x="314.858453" y="479.779606" style="fill: #4c72b0; stroke: #4c72b0"/>
     <use xlink:href="#m3c27efeab5" x="317.140016" y="479.725813" style="fill: #4c72b0; stroke: #4c72b0"/>
     <use xlink:href="#m3c27efeab5" x="319.421579" y="480.072935" style="fill: #4c72b0; stroke: #4c72b0"/>
     <use xlink:href="#m3c27efeab5" x="321.703141" y="480.091198" style="fill: #4c72b0; stroke: #4c72b0"/>
     <use xlink:href="#m3c27efeab5" x="323.984704" y="479.040696" style="fill: #4c72b0; stroke: #4c72b0"/>
     <use xlink:href="#m3c27efeab5" x="326.266267" y="480.280885" style="fill: #4c72b0; stroke: #4c72b0"/>
     <use xlink:href="#m3c27efeab5" x="328.547829" y="480.122298" style="fill: #4c72b0; stroke: #4c72b0"/>
     <use xlink:href="#m3c27efeab5" x="330.829392" y="480.582859" style="fill: #4c72b0; stroke: #4c72b0"/>
     <use xlink:href="#m3c27efeab5" x="333.110955" y="480.427057" style="fill: #4c72b0; stroke: #4c72b0"/>
     <use xlink:href="#m3c27efeab5" x="335.392517" y="480.284347" style="fill: #4c72b0; stroke: #4c72b0"/>
     <use xlink:href="#m3c27efeab5" x="337.67408" y="480.840514" style="fill: #4c72b0; stroke: #4c72b0"/>
     <use xlink:href="#m3c27efeab5" x="344.518768" y="486.850182" style="fill: #4c72b0; stroke: #4c72b0"/>
     <use xlink:href="#m3c27efeab5" x="346.800331" y="480.323628" style="fill: #4c72b0; stroke: #4c72b0"/>
     <use xlink:href="#m3c27efeab5" x="349.081894" y="480.002831" style="fill: #4c72b0; stroke: #4c72b0"/>
     <use xlink:href="#m3c27efeab5" x="351.363456" y="480.404147" style="fill: #4c72b0; stroke: #4c72b0"/>
     <use xlink:href="#m3c27efeab5" x="353.645019" y="479.073771" style="fill: #4c72b0; stroke: #4c72b0"/>
     <use xlink:href="#m3c27efeab5" x="355.926582" y="490.745821" style="fill: #4c72b0; stroke: #4c72b0"/>
     <use xlink:href="#m3c27efeab5" x="358.208144" y="480.137679" style="fill: #4c72b0; stroke: #4c72b0"/>
     <use xlink:href="#m3c27efeab5" x="360.489707" y="479.705425" style="fill: #4c72b0; stroke: #4c72b0"/>
     <use xlink:href="#m3c27efeab5" x="387.868459" y="444.240149" style="fill: #4c72b0; stroke: #4c72b0"/>
     <use xlink:href="#m3c27efeab5" x="390.150022" y="487.626732" style="fill: #4c72b0; stroke: #4c72b0"/>
     <use xlink:href="#m3c27efeab5" x="392.431585" y="480.063116" style="fill: #4c72b0; stroke: #4c72b0"/>
     <use xlink:href="#m3c27efeab5" x="394.713147" y="479.985682" style="fill: #4c72b0; stroke: #4c72b0"/>
     <use xlink:href="#m3c27efeab5" x="396.99471" y="480.664046" style="fill: #4c72b0; stroke: #4c72b0"/>
     <use xlink:href="#m3c27efeab5" x="401.557835" y="442.668552" style="fill: #4c72b0; stroke: #4c72b0"/>
     <use xlink:href="#m3c27efeab5" x="406.120961" y="473.956805" style="fill: #4c72b0; stroke: #4c72b0"/>
     <use xlink:href="#m3c27efeab5" x="408.402523" y="477.185509" style="fill: #4c72b0; stroke: #4c72b0"/>
     <use xlink:href="#m3c27efeab5" x="410.684086" y="481.241248" style="fill: #4c72b0; stroke: #4c72b0"/>
     <use xlink:href="#m3c27efeab5" x="412.965649" y="478.991094" style="fill: #4c72b0; stroke: #4c72b0"/>
     <use xlink:href="#m3c27efeab5" x="415.247211" y="478.382874" style="fill: #4c72b0; stroke: #4c72b0"/>
     <use xlink:href="#m3c27efeab5" x="417.528774" y="474.630148" style="fill: #4c72b0; stroke: #4c72b0"/>
     <use xlink:href="#m3c27efeab5" x="419.810337" y="477.29321" style="fill: #4c72b0; stroke: #4c72b0"/>
     <use xlink:href="#m3c27efeab5" x="422.091899" y="479.842742" style="fill: #4c72b0; stroke: #4c72b0"/>
     <use xlink:href="#m3c27efeab5" x="424.373462" y="479.880706" style="fill: #4c72b0; stroke: #4c72b0"/>
     <use xlink:href="#m3c27efeab5" x="426.655025" y="479.328881" style="fill: #4c72b0; stroke: #4c72b0"/>
     <use xlink:href="#m3c27efeab5" x="428.936587" y="481.507285" style="fill: #4c72b0; stroke: #4c72b0"/>
     <use xlink:href="#m3c27efeab5" x="431.21815" y="477.157369" style="fill: #4c72b0; stroke: #4c72b0"/>
     <use xlink:href="#m3c27efeab5" x="433.499713" y="477.799905" style="fill: #4c72b0; stroke: #4c72b0"/>
     <use xlink:href="#m3c27efeab5" x="435.781276" y="477.549929" style="fill: #4c72b0; stroke: #4c72b0"/>
     <use xlink:href="#m3c27efeab5" x="438.062838" y="477.156612" style="fill: #4c72b0; stroke: #4c72b0"/>
     <use xlink:href="#m3c27efeab5" x="440.344401" y="478.554521" style="fill: #4c72b0; stroke: #4c72b0"/>
     <use xlink:href="#m3c27efeab5" x="442.625964" y="478.438595" style="fill: #4c72b0; stroke: #4c72b0"/>
     <use xlink:href="#m3c27efeab5" x="444.907526" y="478.100843" style="fill: #4c72b0; stroke: #4c72b0"/>
     <use xlink:href="#m3c27efeab5" x="447.189089" y="478.892583" style="fill: #4c72b0; stroke: #4c72b0"/>
     <use xlink:href="#m3c27efeab5" x="449.470652" y="476.805397" style="fill: #4c72b0; stroke: #4c72b0"/>
     <use xlink:href="#m3c27efeab5" x="451.752214" y="478.56486" style="fill: #4c72b0; stroke: #4c72b0"/>
     <use xlink:href="#m3c27efeab5" x="454.033777" y="473.965708" style="fill: #4c72b0; stroke: #4c72b0"/>
     <use xlink:href="#m3c27efeab5" x="456.31534" y="475.59923" style="fill: #4c72b0; stroke: #4c72b0"/>
     <use xlink:href="#m3c27efeab5" x="458.596902" y="477.98113" style="fill: #4c72b0; stroke: #4c72b0"/>
     <use xlink:href="#m3c27efeab5" x="463.160028" y="478.027357" style="fill: #4c72b0; stroke: #4c72b0"/>
     <use xlink:href="#m3c27efeab5" x="470.004716" y="477.897655" style="fill: #4c72b0; stroke: #4c72b0"/>
     <use xlink:href="#m3c27efeab5" x="472.286278" y="478.895473" style="fill: #4c72b0; stroke: #4c72b0"/>
     <use xlink:href="#m3c27efeab5" x="474.567841" y="479.452944" style="fill: #4c72b0; stroke: #4c72b0"/>
     <use xlink:href="#m3c27efeab5" x="476.849404" y="478.149453" style="fill: #4c72b0; stroke: #4c72b0"/>
     <use xlink:href="#m3c27efeab5" x="479.130966" y="477.641421" style="fill: #4c72b0; stroke: #4c72b0"/>
     <use xlink:href="#m3c27efeab5" x="481.412529" y="479.335659" style="fill: #4c72b0; stroke: #4c72b0"/>
     <use xlink:href="#m3c27efeab5" x="483.694092" y="478.491735" style="fill: #4c72b0; stroke: #4c72b0"/>
     <use xlink:href="#m3c27efeab5" x="485.975655" y="477.371852" style="fill: #4c72b0; stroke: #4c72b0"/>
     <use xlink:href="#m3c27efeab5" x="488.257217" y="478.176252" style="fill: #4c72b0; stroke: #4c72b0"/>
     <use xlink:href="#m3c27efeab5" x="490.53878" y="496.471738" style="fill: #4c72b0; stroke: #4c72b0"/>
     <use xlink:href="#m3c27efeab5" x="492.820343" y="476.890165" style="fill: #4c72b0; stroke: #4c72b0"/>
     <use xlink:href="#m3c27efeab5" x="495.101905" y="476.833018" style="fill: #4c72b0; stroke: #4c72b0"/>
     <use xlink:href="#m3c27efeab5" x="497.383468" y="476.748986" style="fill: #4c72b0; stroke: #4c72b0"/>
     <use xlink:href="#m3c27efeab5" x="499.665031" y="477.038938" style="fill: #4c72b0; stroke: #4c72b0"/>
     <use xlink:href="#m3c27efeab5" x="501.946593" y="497.431531" style="fill: #4c72b0; stroke: #4c72b0"/>
     <use xlink:href="#m3c27efeab5" x="504.228156" y="476.635461" style="fill: #4c72b0; stroke: #4c72b0"/>
     <use xlink:href="#m3c27efeab5" x="506.509719" y="476.725093" style="fill: #4c72b0; stroke: #4c72b0"/>
     <use xlink:href="#m3c27efeab5" x="508.791281" y="489.717512" style="fill: #4c72b0; stroke: #4c72b0"/>
     <use xlink:href="#m3c27efeab5" x="511.072844" y="496.792034" style="fill: #4c72b0; stroke: #4c72b0"/>
     <use xlink:href="#m3c27efeab5" x="513.354407" y="479.313015" style="fill: #4c72b0; stroke: #4c72b0"/>
     <use xlink:href="#m3c27efeab5" x="515.635969" y="476.808411" style="fill: #4c72b0; stroke: #4c72b0"/>
     <use xlink:href="#m3c27efeab5" x="517.917532" y="476.845408" style="fill: #4c72b0; stroke: #4c72b0"/>
     <use xlink:href="#m3c27efeab5" x="520.199095" y="515.595076" style="fill: #4c72b0; stroke: #4c72b0"/>
     <use xlink:href="#m3c27efeab5" x="522.480657" y="479.137982" style="fill: #4c72b0; stroke: #4c72b0"/>
     <use xlink:href="#m3c27efeab5" x="524.76222" y="477.90405" style="fill: #4c72b0; stroke: #4c72b0"/>
     <use xlink:href="#m3c27efeab5" x="527.043783" y="477.652306" style="fill: #4c72b0; stroke: #4c72b0"/>
     <use xlink:href="#m3c27efeab5" x="529.325345" y="477.386107" style="fill: #4c72b0; stroke: #4c72b0"/>
     <use xlink:href="#m3c27efeab5" x="531.606908" y="477.872189" style="fill: #4c72b0; stroke: #4c72b0"/>
     <use xlink:href="#m3c27efeab5" x="533.888471" y="479.416907" style="fill: #4c72b0; stroke: #4c72b0"/>
     <use xlink:href="#m3c27efeab5" x="536.170034" y="478.516293" style="fill: #4c72b0; stroke: #4c72b0"/>
     <use xlink:href="#m3c27efeab5" x="538.451596" y="478.2059" style="fill: #4c72b0; stroke: #4c72b0"/>
     <use xlink:href="#m3c27efeab5" x="540.733159" y="478.029491" style="fill: #4c72b0; stroke: #4c72b0"/>
     <use xlink:href="#m3c27efeab5" x="543.014722" y="478.300068" style="fill: #4c72b0; stroke: #4c72b0"/>
     <use xlink:href="#m3c27efeab5" x="545.296284" y="479.020889" style="fill: #4c72b0; stroke: #4c72b0"/>
     <use xlink:href="#m3c27efeab5" x="547.577847" y="479.441826" style="fill: #4c72b0; stroke: #4c72b0"/>
     <use xlink:href="#m3c27efeab5" x="549.85941" y="479.546607" style="fill: #4c72b0; stroke: #4c72b0"/>
     <use xlink:href="#m3c27efeab5" x="552.140972" y="479.957342" style="fill: #4c72b0; stroke: #4c72b0"/>
     <use xlink:href="#m3c27efeab5" x="554.422535" y="480.016432" style="fill: #4c72b0; stroke: #4c72b0"/>
     <use xlink:href="#m3c27efeab5" x="556.704098" y="480.061952" style="fill: #4c72b0; stroke: #4c72b0"/>
     <use xlink:href="#m3c27efeab5" x="558.98566" y="480.379899" style="fill: #4c72b0; stroke: #4c72b0"/>
     <use xlink:href="#m3c27efeab5" x="561.267223" y="480.344528" style="fill: #4c72b0; stroke: #4c72b0"/>
     <use xlink:href="#m3c27efeab5" x="563.548786" y="480.624289" style="fill: #4c72b0; stroke: #4c72b0"/>
     <use xlink:href="#m3c27efeab5" x="565.830348" y="480.607641" style="fill: #4c72b0; stroke: #4c72b0"/>
     <use xlink:href="#m3c27efeab5" x="568.111911" y="480.586718" style="fill: #4c72b0; stroke: #4c72b0"/>
     <use xlink:href="#m3c27efeab5" x="570.393474" y="482.167252" style="fill: #4c72b0; stroke: #4c72b0"/>
     <use xlink:href="#m3c27efeab5" x="572.675036" y="480.881958" style="fill: #4c72b0; stroke: #4c72b0"/>
     <use xlink:href="#m3c27efeab5" x="574.956599" y="481.048388" style="fill: #4c72b0; stroke: #4c72b0"/>
     <use xlink:href="#m3c27efeab5" x="577.238162" y="481.111672" style="fill: #4c72b0; stroke: #4c72b0"/>
     <use xlink:href="#m3c27efeab5" x="581.801287" y="479.611468" style="fill: #4c72b0; stroke: #4c72b0"/>
     <use xlink:href="#m3c27efeab5" x="584.08285" y="478.237125" style="fill: #4c72b0; stroke: #4c72b0"/>
     <use xlink:href="#m3c27efeab5" x="586.364413" y="478.561121" style="fill: #4c72b0; stroke: #4c72b0"/>
     <use xlink:href="#m3c27efeab5" x="588.645975" y="479.461083" style="fill: #4c72b0; stroke: #4c72b0"/>
     <use xlink:href="#m3c27efeab5" x="590.927538" y="482.779297" style="fill: #4c72b0; stroke: #4c72b0"/>
     <use xlink:href="#m3c27efeab5" x="593.209101" y="477.319051" style="fill: #4c72b0; stroke: #4c72b0"/>
     <use xlink:href="#m3c27efeab5" x="595.490663" y="480.734043" style="fill: #4c72b0; stroke: #4c72b0"/>
     <use xlink:href="#m3c27efeab5" x="597.772226" y="481.435327" style="fill: #4c72b0; stroke: #4c72b0"/>
     <use xlink:href="#m3c27efeab5" x="600.053789" y="479.949216" style="fill: #4c72b0; stroke: #4c72b0"/>
     <use xlink:href="#m3c27efeab5" x="636.558792" y="432.207977" style="fill: #4c72b0; stroke: #4c72b0"/>
     <use xlink:href="#m3c27efeab5" x="638.840354" y="482.214176" style="fill: #4c72b0; stroke: #4c72b0"/>
     <use xlink:href="#m3c27efeab5" x="641.121917" y="482.448732" style="fill: #4c72b0; stroke: #4c72b0"/>
     <use xlink:href="#m3c27efeab5" x="643.40348" y="482.25968" style="fill: #4c72b0; stroke: #4c72b0"/>
     <use xlink:href="#m3c27efeab5" x="645.685042" y="482.802999" style="fill: #4c72b0; stroke: #4c72b0"/>
     <use xlink:href="#m3c27efeab5" x="647.966605" y="430.385588" style="fill: #4c72b0; stroke: #4c72b0"/>
     <use xlink:href="#m3c27efeab5" x="650.248168" y="483.396987" style="fill: #4c72b0; stroke: #4c72b0"/>
     <use xlink:href="#m3c27efeab5" x="652.52973" y="483.010436" style="fill: #4c72b0; stroke: #4c72b0"/>
     <use xlink:href="#m3c27efeab5" x="654.811293" y="487.263827" style="fill: #4c72b0; stroke: #4c72b0"/>
     <use xlink:href="#m3c27efeab5" x="659.374418" y="429.496591" style="fill: #4c72b0; stroke: #4c72b0"/>
     <use xlink:href="#m3c27efeab5" x="661.655981" y="483.330141" style="fill: #4c72b0; stroke: #4c72b0"/>
     <use xlink:href="#m3c27efeab5" x="663.937544" y="482.86837" style="fill: #4c72b0; stroke: #4c72b0"/>
     <use xlink:href="#m3c27efeab5" x="670.782232" y="482.981882" style="fill: #4c72b0; stroke: #4c72b0"/>
     <use xlink:href="#m3c27efeab5" x="673.063794" y="432.351416" style="fill: #4c72b0; stroke: #4c72b0"/>
     <use xlink:href="#m3c27efeab5" x="682.190045" y="483.95607" style="fill: #4c72b0; stroke: #4c72b0"/>
     <use xlink:href="#m3c27efeab5" x="684.471608" y="483.000099" style="fill: #4c72b0; stroke: #4c72b0"/>
     <use xlink:href="#m3c27efeab5" x="686.753171" y="482.914624" style="fill: #4c72b0; stroke: #4c72b0"/>
     <use xlink:href="#m3c27efeab5" x="689.034733" y="483.144238" style="fill: #4c72b0; stroke: #4c72b0"/>
     <use xlink:href="#m3c27efeab5" x="691.316296" y="483.052344" style="fill: #4c72b0; stroke: #4c72b0"/>
     <use xlink:href="#m3c27efeab5" x="693.597859" y="483.551746" style="fill: #4c72b0; stroke: #4c72b0"/>
     <use xlink:href="#m3c27efeab5" x="695.879421" y="483.021352" style="fill: #4c72b0; stroke: #4c72b0"/>
     <use xlink:href="#m3c27efeab5" x="700.442547" y="482.871639" style="fill: #4c72b0; stroke: #4c72b0"/>
     <use xlink:href="#m3c27efeab5" x="702.724109" y="482.342751" style="fill: #4c72b0; stroke: #4c72b0"/>
     <use xlink:href="#m3c27efeab5" x="705.005672" y="482.713931" style="fill: #4c72b0; stroke: #4c72b0"/>
     <use xlink:href="#m3c27efeab5" x="707.287235" y="481.356421" style="fill: #4c72b0; stroke: #4c72b0"/>
     <use xlink:href="#m3c27efeab5" x="709.568797" y="482.699806" style="fill: #4c72b0; stroke: #4c72b0"/>
     <use xlink:href="#m3c27efeab5" x="711.85036" y="482.333891" style="fill: #4c72b0; stroke: #4c72b0"/>
     <use xlink:href="#m3c27efeab5" x="714.131923" y="482.684612" style="fill: #4c72b0; stroke: #4c72b0"/>
     <use xlink:href="#m3c27efeab5" x="716.413485" y="482.187778" style="fill: #4c72b0; stroke: #4c72b0"/>
     <use xlink:href="#m3c27efeab5" x="718.695048" y="481.151387" style="fill: #4c72b0; stroke: #4c72b0"/>
     <use xlink:href="#m3c27efeab5" x="720.976611" y="481.247668" style="fill: #4c72b0; stroke: #4c72b0"/>
     <use xlink:href="#m3c27efeab5" x="723.258173" y="477.911702" style="fill: #4c72b0; stroke: #4c72b0"/>
     <use xlink:href="#m3c27efeab5" x="725.539736" y="477.651824" style="fill: #4c72b0; stroke: #4c72b0"/>
     <use xlink:href="#m3c27efeab5" x="727.821299" y="478.133355" style="fill: #4c72b0; stroke: #4c72b0"/>
     <use xlink:href="#m3c27efeab5" x="730.102862" y="477.588368" style="fill: #4c72b0; stroke: #4c72b0"/>
     <use xlink:href="#m3c27efeab5" x="732.384424" y="477.984206" style="fill: #4c72b0; stroke: #4c72b0"/>
     <use xlink:href="#m3c27efeab5" x="734.665987" y="478.292495" style="fill: #4c72b0; stroke: #4c72b0"/>
     <use xlink:href="#m3c27efeab5" x="736.94755" y="477.431683" style="fill: #4c72b0; stroke: #4c72b0"/>
     <use xlink:href="#m3c27efeab5" x="739.229112" y="477.370918" style="fill: #4c72b0; stroke: #4c72b0"/>
     <use xlink:href="#m3c27efeab5" x="741.510675" y="478.424984" style="fill: #4c72b0; stroke: #4c72b0"/>
     <use xlink:href="#m3c27efeab5" x="743.792238" y="479.042932" style="fill: #4c72b0; stroke: #4c72b0"/>
     <use xlink:href="#m3c27efeab5" x="746.0738" y="478.693188" style="fill: #4c72b0; stroke: #4c72b0"/>
     <use xlink:href="#m3c27efeab5" x="748.355363" y="478.41855" style="fill: #4c72b0; stroke: #4c72b0"/>
     <use xlink:href="#m3c27efeab5" x="750.636926" y="476.294197" style="fill: #4c72b0; stroke: #4c72b0"/>
     <use xlink:href="#m3c27efeab5" x="752.918488" y="479.483646" style="fill: #4c72b0; stroke: #4c72b0"/>
     <use xlink:href="#m3c27efeab5" x="755.200051" y="477.402006" style="fill: #4c72b0; stroke: #4c72b0"/>
     <use xlink:href="#m3c27efeab5" x="757.481614" y="477.28611" style="fill: #4c72b0; stroke: #4c72b0"/>
     <use xlink:href="#m3c27efeab5" x="759.763176" y="478.013041" style="fill: #4c72b0; stroke: #4c72b0"/>
     <use xlink:href="#m3c27efeab5" x="762.044739" y="504.687456" style="fill: #4c72b0; stroke: #4c72b0"/>
     <use xlink:href="#m3c27efeab5" x="764.326302" y="476.887515" style="fill: #4c72b0; stroke: #4c72b0"/>
     <use xlink:href="#m3c27efeab5" x="766.607864" y="476.765365" style="fill: #4c72b0; stroke: #4c72b0"/>
     <use xlink:href="#m3c27efeab5" x="768.889427" y="476.898598" style="fill: #4c72b0; stroke: #4c72b0"/>
     <use xlink:href="#m3c27efeab5" x="771.17099" y="476.499103" style="fill: #4c72b0; stroke: #4c72b0"/>
     <use xlink:href="#m3c27efeab5" x="773.452552" y="505.397896" style="fill: #4c72b0; stroke: #4c72b0"/>
     <use xlink:href="#m3c27efeab5" x="775.734115" y="476.150277" style="fill: #4c72b0; stroke: #4c72b0"/>
     <use xlink:href="#m3c27efeab5" x="778.015678" y="476.409244" style="fill: #4c72b0; stroke: #4c72b0"/>
     <use xlink:href="#m3c27efeab5" x="780.297241" y="471.222718" style="fill: #4c72b0; stroke: #4c72b0"/>
     <use xlink:href="#m3c27efeab5" x="782.578803" y="506.459297" style="fill: #4c72b0; stroke: #4c72b0"/>
     <use xlink:href="#m3c27efeab5" x="784.860366" y="475.199613" style="fill: #4c72b0; stroke: #4c72b0"/>
     <use xlink:href="#m3c27efeab5" x="787.141929" y="476.447315" style="fill: #4c72b0; stroke: #4c72b0"/>
     <use xlink:href="#m3c27efeab5" x="789.423491" y="476.309743" style="fill: #4c72b0; stroke: #4c72b0"/>
     <use xlink:href="#m3c27efeab5" x="791.705054" y="500.821544" style="fill: #4c72b0; stroke: #4c72b0"/>
     <use xlink:href="#m3c27efeab5" x="793.986617" y="475.264887" style="fill: #4c72b0; stroke: #4c72b0"/>
     <use xlink:href="#m3c27efeab5" x="796.268179" y="476.143588" style="fill: #4c72b0; stroke: #4c72b0"/>
     <use xlink:href="#m3c27efeab5" x="798.549742" y="476.014776" style="fill: #4c72b0; stroke: #4c72b0"/>
     <use xlink:href="#m3c27efeab5" x="800.831305" y="476.103343" style="fill: #4c72b0; stroke: #4c72b0"/>
     <use xlink:href="#m3c27efeab5" x="803.112867" y="476.036717" style="fill: #4c72b0; stroke: #4c72b0"/>
     <use xlink:href="#m3c27efeab5" x="805.39443" y="475.395744" style="fill: #4c72b0; stroke: #4c72b0"/>
     <use xlink:href="#m3c27efeab5" x="807.675993" y="475.898645" style="fill: #4c72b0; stroke: #4c72b0"/>
     <use xlink:href="#m3c27efeab5" x="809.957555" y="475.940773" style="fill: #4c72b0; stroke: #4c72b0"/>
     <use xlink:href="#m3c27efeab5" x="812.239118" y="476.371771" style="fill: #4c72b0; stroke: #4c72b0"/>
     <use xlink:href="#m3c27efeab5" x="814.520681" y="476.057687" style="fill: #4c72b0; stroke: #4c72b0"/>
     <use xlink:href="#m3c27efeab5" x="819.083806" y="476.589158" style="fill: #4c72b0; stroke: #4c72b0"/>
     <use xlink:href="#m3c27efeab5" x="821.365369" y="475.810844" style="fill: #4c72b0; stroke: #4c72b0"/>
     <use xlink:href="#m3c27efeab5" x="823.646931" y="475.981227" style="fill: #4c72b0; stroke: #4c72b0"/>
     <use xlink:href="#m3c27efeab5" x="825.928494" y="475.621556" style="fill: #4c72b0; stroke: #4c72b0"/>
     <use xlink:href="#m3c27efeab5" x="828.210057" y="475.965425" style="fill: #4c72b0; stroke: #4c72b0"/>
     <use xlink:href="#m3c27efeab5" x="830.49162" y="476.584654" style="fill: #4c72b0; stroke: #4c72b0"/>
     <use xlink:href="#m3c27efeab5" x="832.773182" y="476.410348" style="fill: #4c72b0; stroke: #4c72b0"/>
    </g>
   </g>
   <g id="patch_18">
    <path d="M 116.3625 519.9 
L 116.3625 425.191667 
" style="fill: none; stroke: #262626; stroke-width: 1.25; stroke-linejoin: miter; stroke-linecap: square"/>
   </g>
   <g id="patch_19">
    <path d="M 832.773182 519.9 
L 832.773182 425.191667 
" style="fill: none; stroke: #262626; stroke-width: 1.25; stroke-linejoin: miter; stroke-linecap: square"/>
   </g>
   <g id="patch_20">
    <path d="M 116.3625 519.9 
L 832.773182 519.9 
" style="fill: none; stroke: #262626; stroke-width: 1.25; stroke-linejoin: miter; stroke-linecap: square"/>
   </g>
   <g id="patch_21">
    <path d="M 116.3625 425.191667 
L 832.773182 425.191667 
" style="fill: none; stroke: #262626; stroke-width: 1.25; stroke-linejoin: miter; stroke-linecap: square"/>
   </g>
  </g>
 </g>
 <defs>
  <clipPath id="p8c6d27b3de">
   <rect x="116.3625" y="46.266667" width="716.410682" height="94.708333"/>
  </clipPath>
  <clipPath id="peb796b7da1">
   <rect x="116.3625" y="172.575" width="716.410682" height="94.708333"/>
  </clipPath>
  <clipPath id="p26bbfa4b52">
   <rect x="116.3625" y="298.883333" width="716.410682" height="94.708333"/>
  </clipPath>
  <clipPath id="p4b9543fe5b">
   <rect x="116.3625" y="425.191667" width="716.410682" height="94.708333"/>
  </clipPath>
 </defs>
</svg>
