<?xml version="1.0" encoding="utf-8" standalone="no"?>
<!DOCTYPE svg PUBLIC "-//W3C//DTD SVG 1.1//EN"
  "http://www.w3.org/Graphics/SVG/1.1/DTD/svg11.dtd">
<svg xmlns:xlink="http://www.w3.org/1999/xlink" width="864pt" height="864pt" viewBox="0 0 864 864" xmlns="http://www.w3.org/2000/svg" version="1.1">
 <metadata>
  <rdf:RDF xmlns:dc="http://purl.org/dc/elements/1.1/" xmlns:cc="http://creativecommons.org/ns#" xmlns:rdf="http://www.w3.org/1999/02/22-rdf-syntax-ns#">
   <cc:Work>
    <dc:type rdf:resource="http://purl.org/dc/dcmitype/StillImage"/>
    <dc:date>2023-08-01T03:14:39.337369</dc:date>
    <dc:format>image/svg+xml</dc:format>
    <dc:creator>
     <cc:Agent>
      <dc:title>Matplotlib v3.7.1, https://matplotlib.org/</dc:title>
     </cc:Agent>
    </dc:creator>
   </cc:Work>
  </rdf:RDF>
 </metadata>
 <defs>
  <style type="text/css">*{stroke-linejoin: round; stroke-linecap: butt}</style>
 </defs>
 <g id="figure_1">
  <g id="patch_1">
   <path d="M 0 864 
L 864 864 
L 864 0 
L 0 0 
z
" style="fill: #ffffff"/>
  </g>
  <g id="axes_1">
   <g id="patch_2">
    <path d="M 108 406.08 
L 777.6 406.08 
L 777.6 103.68 
L 108 103.68 
z
" style="fill: #ffffff"/>
   </g>
   <g id="matplotlib.axis_1">
    <g id="xtick_1">
     <g id="line2d_1">
      <defs>
       <path id="m2d0fdd20b5" d="M 0 0 
L 0 6 
" style="stroke: #262626; stroke-width: 1.25"/>
      </defs>
      <g>
       <use xlink:href="#m2d0fdd20b5" x="128.238978" y="406.08" style="fill: #262626; stroke: #262626; stroke-width: 1.25"/>
      </g>
     </g>
     <g id="text_1">
      <!-- 2016 -->
      <g style="fill: #262626" transform="translate(116.004915 423.453594) scale(0.11 -0.11)">
       <defs>
        <path id="ArialMT-32" d="M 3222 541 
L 3222 0 
L 194 0 
Q 188 203 259 391 
Q 375 700 629 1000 
Q 884 1300 1366 1694 
Q 2113 2306 2375 2664 
Q 2638 3022 2638 3341 
Q 2638 3675 2398 3904 
Q 2159 4134 1775 4134 
Q 1369 4134 1125 3890 
Q 881 3647 878 3216 
L 300 3275 
Q 359 3922 746 4261 
Q 1134 4600 1788 4600 
Q 2447 4600 2831 4234 
Q 3216 3869 3216 3328 
Q 3216 3053 3103 2787 
Q 2991 2522 2730 2228 
Q 2469 1934 1863 1422 
Q 1356 997 1212 845 
Q 1069 694 975 541 
L 3222 541 
z
" transform="scale(0.015625)"/>
        <path id="ArialMT-30" d="M 266 2259 
Q 266 3072 433 3567 
Q 600 4063 929 4331 
Q 1259 4600 1759 4600 
Q 2128 4600 2406 4451 
Q 2684 4303 2865 4023 
Q 3047 3744 3150 3342 
Q 3253 2941 3253 2259 
Q 3253 1453 3087 958 
Q 2922 463 2592 192 
Q 2263 -78 1759 -78 
Q 1097 -78 719 397 
Q 266 969 266 2259 
z
M 844 2259 
Q 844 1131 1108 757 
Q 1372 384 1759 384 
Q 2147 384 2411 759 
Q 2675 1134 2675 2259 
Q 2675 3391 2411 3762 
Q 2147 4134 1753 4134 
Q 1366 4134 1134 3806 
Q 844 3388 844 2259 
z
" transform="scale(0.015625)"/>
        <path id="ArialMT-31" d="M 2384 0 
L 1822 0 
L 1822 3584 
Q 1619 3391 1289 3197 
Q 959 3003 697 2906 
L 697 3450 
Q 1169 3672 1522 3987 
Q 1875 4303 2022 4600 
L 2384 4600 
L 2384 0 
z
" transform="scale(0.015625)"/>
        <path id="ArialMT-36" d="M 3184 3459 
L 2625 3416 
Q 2550 3747 2413 3897 
Q 2184 4138 1850 4138 
Q 1581 4138 1378 3988 
Q 1113 3794 959 3422 
Q 806 3050 800 2363 
Q 1003 2672 1297 2822 
Q 1591 2972 1913 2972 
Q 2475 2972 2870 2558 
Q 3266 2144 3266 1488 
Q 3266 1056 3080 686 
Q 2894 316 2569 119 
Q 2244 -78 1831 -78 
Q 1128 -78 684 439 
Q 241 956 241 2144 
Q 241 3472 731 4075 
Q 1159 4600 1884 4600 
Q 2425 4600 2770 4297 
Q 3116 3994 3184 3459 
z
M 888 1484 
Q 888 1194 1011 928 
Q 1134 663 1356 523 
Q 1578 384 1822 384 
Q 2178 384 2434 671 
Q 2691 959 2691 1453 
Q 2691 1928 2437 2201 
Q 2184 2475 1800 2475 
Q 1419 2475 1153 2201 
Q 888 1928 888 1484 
z
" transform="scale(0.015625)"/>
       </defs>
       <use xlink:href="#ArialMT-32"/>
       <use xlink:href="#ArialMT-30" x="55.615234"/>
       <use xlink:href="#ArialMT-31" x="111.230469"/>
       <use xlink:href="#ArialMT-36" x="166.845703"/>
      </g>
     </g>
    </g>
    <g id="xtick_2">
     <g id="line2d_2">
      <g>
       <use xlink:href="#m2d0fdd20b5" x="231.912399" y="406.08" style="fill: #262626; stroke: #262626; stroke-width: 1.25"/>
      </g>
     </g>
     <g id="text_2">
      <!-- 2017 -->
      <g style="fill: #262626" transform="translate(219.678337 423.453594) scale(0.11 -0.11)">
       <defs>
        <path id="ArialMT-37" d="M 303 3981 
L 303 4522 
L 3269 4522 
L 3269 4084 
Q 2831 3619 2401 2847 
Q 1972 2075 1738 1259 
Q 1569 684 1522 0 
L 944 0 
Q 953 541 1156 1306 
Q 1359 2072 1739 2783 
Q 2119 3494 2547 3981 
L 303 3981 
z
" transform="scale(0.015625)"/>
       </defs>
       <use xlink:href="#ArialMT-32"/>
       <use xlink:href="#ArialMT-30" x="55.615234"/>
       <use xlink:href="#ArialMT-31" x="111.230469"/>
       <use xlink:href="#ArialMT-37" x="166.845703"/>
      </g>
     </g>
    </g>
    <g id="xtick_3">
     <g id="line2d_3">
      <g>
       <use xlink:href="#m2d0fdd20b5" x="335.302559" y="406.08" style="fill: #262626; stroke: #262626; stroke-width: 1.25"/>
      </g>
     </g>
     <g id="text_3">
      <!-- 2018 -->
      <g style="fill: #262626" transform="translate(323.068497 423.453594) scale(0.11 -0.11)">
       <defs>
        <path id="ArialMT-38" d="M 1131 2484 
Q 781 2613 612 2850 
Q 444 3088 444 3419 
Q 444 3919 803 4259 
Q 1163 4600 1759 4600 
Q 2359 4600 2725 4251 
Q 3091 3903 3091 3403 
Q 3091 3084 2923 2848 
Q 2756 2613 2416 2484 
Q 2838 2347 3058 2040 
Q 3278 1734 3278 1309 
Q 3278 722 2862 322 
Q 2447 -78 1769 -78 
Q 1091 -78 675 323 
Q 259 725 259 1325 
Q 259 1772 486 2073 
Q 713 2375 1131 2484 
z
M 1019 3438 
Q 1019 3113 1228 2906 
Q 1438 2700 1772 2700 
Q 2097 2700 2305 2904 
Q 2513 3109 2513 3406 
Q 2513 3716 2298 3927 
Q 2084 4138 1766 4138 
Q 1444 4138 1231 3931 
Q 1019 3725 1019 3438 
z
M 838 1322 
Q 838 1081 952 856 
Q 1066 631 1291 507 
Q 1516 384 1775 384 
Q 2178 384 2440 643 
Q 2703 903 2703 1303 
Q 2703 1709 2433 1975 
Q 2163 2241 1756 2241 
Q 1359 2241 1098 1978 
Q 838 1716 838 1322 
z
" transform="scale(0.015625)"/>
       </defs>
       <use xlink:href="#ArialMT-32"/>
       <use xlink:href="#ArialMT-30" x="55.615234"/>
       <use xlink:href="#ArialMT-31" x="111.230469"/>
       <use xlink:href="#ArialMT-38" x="166.845703"/>
      </g>
     </g>
    </g>
    <g id="xtick_4">
     <g id="line2d_4">
      <g>
       <use xlink:href="#m2d0fdd20b5" x="438.69272" y="406.08" style="fill: #262626; stroke: #262626; stroke-width: 1.25"/>
      </g>
     </g>
     <g id="text_4">
      <!-- 2019 -->
      <g style="fill: #262626" transform="translate(426.458657 423.453594) scale(0.11 -0.11)">
       <defs>
        <path id="ArialMT-39" d="M 350 1059 
L 891 1109 
Q 959 728 1153 556 
Q 1347 384 1650 384 
Q 1909 384 2104 503 
Q 2300 622 2425 820 
Q 2550 1019 2634 1356 
Q 2719 1694 2719 2044 
Q 2719 2081 2716 2156 
Q 2547 1888 2255 1720 
Q 1963 1553 1622 1553 
Q 1053 1553 659 1965 
Q 266 2378 266 3053 
Q 266 3750 677 4175 
Q 1088 4600 1706 4600 
Q 2153 4600 2523 4359 
Q 2894 4119 3086 3673 
Q 3278 3228 3278 2384 
Q 3278 1506 3087 986 
Q 2897 466 2520 194 
Q 2144 -78 1638 -78 
Q 1100 -78 759 220 
Q 419 519 350 1059 
z
M 2653 3081 
Q 2653 3566 2395 3850 
Q 2138 4134 1775 4134 
Q 1400 4134 1122 3828 
Q 844 3522 844 3034 
Q 844 2597 1108 2323 
Q 1372 2050 1759 2050 
Q 2150 2050 2401 2323 
Q 2653 2597 2653 3081 
z
" transform="scale(0.015625)"/>
       </defs>
       <use xlink:href="#ArialMT-32"/>
       <use xlink:href="#ArialMT-30" x="55.615234"/>
       <use xlink:href="#ArialMT-31" x="111.230469"/>
       <use xlink:href="#ArialMT-39" x="166.845703"/>
      </g>
     </g>
    </g>
    <g id="xtick_5">
     <g id="line2d_5">
      <g>
       <use xlink:href="#m2d0fdd20b5" x="542.08288" y="406.08" style="fill: #262626; stroke: #262626; stroke-width: 1.25"/>
      </g>
     </g>
     <g id="text_5">
      <!-- 2020 -->
      <g style="fill: #262626" transform="translate(529.848817 423.453594) scale(0.11 -0.11)">
       <use xlink:href="#ArialMT-32"/>
       <use xlink:href="#ArialMT-30" x="55.615234"/>
       <use xlink:href="#ArialMT-32" x="111.230469"/>
       <use xlink:href="#ArialMT-30" x="166.845703"/>
      </g>
     </g>
    </g>
    <g id="xtick_6">
     <g id="line2d_6">
      <g>
       <use xlink:href="#m2d0fdd20b5" x="645.756301" y="406.08" style="fill: #262626; stroke: #262626; stroke-width: 1.25"/>
      </g>
     </g>
     <g id="text_6">
      <!-- 2021 -->
      <g style="fill: #262626" transform="translate(633.522239 423.453594) scale(0.11 -0.11)">
       <use xlink:href="#ArialMT-32"/>
       <use xlink:href="#ArialMT-30" x="55.615234"/>
       <use xlink:href="#ArialMT-32" x="111.230469"/>
       <use xlink:href="#ArialMT-31" x="166.845703"/>
      </g>
     </g>
    </g>
    <g id="xtick_7">
     <g id="line2d_7">
      <g>
       <use xlink:href="#m2d0fdd20b5" x="749.146461" y="406.08" style="fill: #262626; stroke: #262626; stroke-width: 1.25"/>
      </g>
     </g>
     <g id="text_7">
      <!-- 2022 -->
      <g style="fill: #262626" transform="translate(736.912399 423.453594) scale(0.11 -0.11)">
       <use xlink:href="#ArialMT-32"/>
       <use xlink:href="#ArialMT-30" x="55.615234"/>
       <use xlink:href="#ArialMT-32" x="111.230469"/>
       <use xlink:href="#ArialMT-32" x="166.845703"/>
      </g>
     </g>
    </g>
   </g>
   <g id="matplotlib.axis_2">
    <g id="ytick_1">
     <g id="line2d_8">
      <defs>
       <path id="m07f391933c" d="M 0 0 
L -6 0 
" style="stroke: #262626; stroke-width: 1.25"/>
      </defs>
      <g>
       <use xlink:href="#m07f391933c" x="108" y="379.067528" style="fill: #262626; stroke: #262626; stroke-width: 1.25"/>
      </g>
     </g>
     <g id="text_8">
      <!-- −1.0 -->
      <g style="fill: #262626" transform="translate(76.785313 383.004325) scale(0.11 -0.11)">
       <defs>
        <path id="ArialMT-2212" d="M 3381 1997 
L 356 1997 
L 356 2522 
L 3381 2522 
L 3381 1997 
z
" transform="scale(0.015625)"/>
        <path id="ArialMT-2e" d="M 581 0 
L 581 641 
L 1222 641 
L 1222 0 
L 581 0 
z
" transform="scale(0.015625)"/>
       </defs>
       <use xlink:href="#ArialMT-2212"/>
       <use xlink:href="#ArialMT-31" x="58.398438"/>
       <use xlink:href="#ArialMT-2e" x="114.013672"/>
       <use xlink:href="#ArialMT-30" x="141.796875"/>
      </g>
     </g>
    </g>
    <g id="ytick_2">
     <g id="line2d_9">
      <g>
       <use xlink:href="#m07f391933c" x="108" y="343.495264" style="fill: #262626; stroke: #262626; stroke-width: 1.25"/>
      </g>
     </g>
     <g id="text_9">
      <!-- −0.5 -->
      <g style="fill: #262626" transform="translate(76.785313 347.432061) scale(0.11 -0.11)">
       <defs>
        <path id="ArialMT-35" d="M 266 1200 
L 856 1250 
Q 922 819 1161 601 
Q 1400 384 1738 384 
Q 2144 384 2425 690 
Q 2706 997 2706 1503 
Q 2706 1984 2436 2262 
Q 2166 2541 1728 2541 
Q 1456 2541 1237 2417 
Q 1019 2294 894 2097 
L 366 2166 
L 809 4519 
L 3088 4519 
L 3088 3981 
L 1259 3981 
L 1013 2750 
Q 1425 3038 1878 3038 
Q 2478 3038 2890 2622 
Q 3303 2206 3303 1553 
Q 3303 931 2941 478 
Q 2500 -78 1738 -78 
Q 1113 -78 717 272 
Q 322 622 266 1200 
z
" transform="scale(0.015625)"/>
       </defs>
       <use xlink:href="#ArialMT-2212"/>
       <use xlink:href="#ArialMT-30" x="58.398438"/>
       <use xlink:href="#ArialMT-2e" x="114.013672"/>
       <use xlink:href="#ArialMT-35" x="141.796875"/>
      </g>
     </g>
    </g>
    <g id="ytick_3">
     <g id="line2d_10">
      <g>
       <use xlink:href="#m07f391933c" x="108" y="307.923001" style="fill: #262626; stroke: #262626; stroke-width: 1.25"/>
      </g>
     </g>
     <g id="text_10">
      <!-- 0.0 -->
      <g style="fill: #262626" transform="translate(83.21 311.859798) scale(0.11 -0.11)">
       <use xlink:href="#ArialMT-30"/>
       <use xlink:href="#ArialMT-2e" x="55.615234"/>
       <use xlink:href="#ArialMT-30" x="83.398438"/>
      </g>
     </g>
    </g>
    <g id="ytick_4">
     <g id="line2d_11">
      <g>
       <use xlink:href="#m07f391933c" x="108" y="272.350737" style="fill: #262626; stroke: #262626; stroke-width: 1.25"/>
      </g>
     </g>
     <g id="text_11">
      <!-- 0.5 -->
      <g style="fill: #262626" transform="translate(83.21 276.287534) scale(0.11 -0.11)">
       <use xlink:href="#ArialMT-30"/>
       <use xlink:href="#ArialMT-2e" x="55.615234"/>
       <use xlink:href="#ArialMT-35" x="83.398438"/>
      </g>
     </g>
    </g>
    <g id="ytick_5">
     <g id="line2d_12">
      <g>
       <use xlink:href="#m07f391933c" x="108" y="236.778473" style="fill: #262626; stroke: #262626; stroke-width: 1.25"/>
      </g>
     </g>
     <g id="text_12">
      <!-- 1.0 -->
      <g style="fill: #262626" transform="translate(83.21 240.71527) scale(0.11 -0.11)">
       <use xlink:href="#ArialMT-31"/>
       <use xlink:href="#ArialMT-2e" x="55.615234"/>
       <use xlink:href="#ArialMT-30" x="83.398438"/>
      </g>
     </g>
    </g>
    <g id="ytick_6">
     <g id="line2d_13">
      <g>
       <use xlink:href="#m07f391933c" x="108" y="201.20621" style="fill: #262626; stroke: #262626; stroke-width: 1.25"/>
      </g>
     </g>
     <g id="text_13">
      <!-- 1.5 -->
      <g style="fill: #262626" transform="translate(83.21 205.143007) scale(0.11 -0.11)">
       <use xlink:href="#ArialMT-31"/>
       <use xlink:href="#ArialMT-2e" x="55.615234"/>
       <use xlink:href="#ArialMT-35" x="83.398438"/>
      </g>
     </g>
    </g>
    <g id="ytick_7">
     <g id="line2d_14">
      <g>
       <use xlink:href="#m07f391933c" x="108" y="165.633946" style="fill: #262626; stroke: #262626; stroke-width: 1.25"/>
      </g>
     </g>
     <g id="text_14">
      <!-- 2.0 -->
      <g style="fill: #262626" transform="translate(83.21 169.570743) scale(0.11 -0.11)">
       <use xlink:href="#ArialMT-32"/>
       <use xlink:href="#ArialMT-2e" x="55.615234"/>
       <use xlink:href="#ArialMT-30" x="83.398438"/>
      </g>
     </g>
    </g>
    <g id="ytick_8">
     <g id="line2d_15">
      <g>
       <use xlink:href="#m07f391933c" x="108" y="130.061683" style="fill: #262626; stroke: #262626; stroke-width: 1.25"/>
      </g>
     </g>
     <g id="text_15">
      <!-- 2.5 -->
      <g style="fill: #262626" transform="translate(83.21 133.99848) scale(0.11 -0.11)">
       <use xlink:href="#ArialMT-32"/>
       <use xlink:href="#ArialMT-2e" x="55.615234"/>
       <use xlink:href="#ArialMT-35" x="83.398438"/>
      </g>
     </g>
    </g>
   </g>
   <g id="PolyCollection_1">
    <defs>
     <path id="m903cc173a7" d="M 138.436364 -611.156432 
L 138.436364 -488.06048 
L 140.419189 -503.936047 
L 142.402014 -491.710456 
L 144.384839 -489.344915 
L 146.367664 -496.571859 
L 148.350489 -489.651702 
L 150.333314 -489.10119 
L 152.316139 -481.036905 
L 154.298964 -614.373771 
L 156.281789 -484.747423 
L 158.264614 -485.485465 
L 160.247439 -498.664533 
L 162.230264 -479.020288 
L 164.213089 -484.008593 
L 166.195914 -483.003279 
L 168.178739 -491.783169 
L 170.161564 -479.114284 
L 172.144389 -483.809135 
L 174.127214 -488.148777 
L 176.110038 -493.325739 
L 178.092863 -481.283051 
L 180.075688 -481.380304 
L 182.058513 -579.987359 
L 184.041338 -493.82888 
L 186.024163 -484.213785 
L 188.006988 -480.307345 
L 189.989813 -496.92932 
L 191.972638 -478.816607 
L 193.955463 -480.64133 
L 195.938288 -503.21013 
L 197.921113 -482.340643 
L 199.903938 -483.069236 
L 201.886763 -500.526947 
L 203.869588 -480.330693 
L 205.852413 -472.464907 
L 207.835238 -500.537217 
L 209.818063 -485.030989 
L 211.800888 -563.847 
L 213.783713 -480.057797 
L 215.766538 -498.708542 
L 217.749363 -488.87639 
L 219.732188 -487.929545 
L 221.715013 -477.505074 
L 223.697838 -492.522919 
L 225.680663 -501.105001 
L 227.663488 -478.9377 
L 229.646313 -485.139394 
L 231.629138 -502.127578 
L 233.611963 -488.506992 
L 235.594788 -504.489264 
L 237.577613 -492.046274 
L 239.560438 -489.612184 
L 241.543263 -497.028048 
L 243.526088 -490.095063 
L 245.508913 -489.586071 
L 247.491738 -481.388972 
L 249.474563 -616.041378 
L 251.457388 -485.059354 
L 253.440213 -485.811194 
L 255.423038 -498.963619 
L 257.405863 -479.349236 
L 259.388688 -484.364926 
L 261.371513 -483.377753 
L 263.354338 -492.11014 
L 265.337163 -479.466445 
L 267.319988 -484.216448 
L 269.302813 -488.393901 
L 271.285638 -493.743318 
L 273.268463 -481.612822 
L 275.251288 -481.782138 
L 277.234113 -580.898253 
L 279.216938 -494.069912 
L 281.199763 -484.528357 
L 283.182588 -480.626301 
L 285.165413 -497.119457 
L 287.148238 -479.098908 
L 289.131063 -480.974569 
L 291.113888 -503.483967 
L 293.096713 -482.674052 
L 295.079538 -483.42445 
L 297.062363 -500.775133 
L 299.045188 -480.645426 
L 301.028013 -472.766198 
L 303.010838 -500.854071 
L 304.993663 -485.386329 
L 306.976488 -564.772486 
L 308.959313 -480.40899 
L 310.942138 -499.048523 
L 312.924963 -489.226053 
L 314.907788 -488.242556 
L 316.890613 -477.767462 
L 318.873438 -492.878014 
L 320.856263 -501.499863 
L 322.839088 -479.21917 
L 324.821913 -485.480529 
L 326.804738 -502.316838 
L 328.787563 -488.795587 
L 330.770388 -504.951679 
L 332.753213 -492.238222 
L 334.736038 -489.700684 
L 336.718863 -497.331981 
L 338.701688 -490.301476 
L 340.684513 -489.734761 
L 342.667338 -481.535593 
L 344.650163 -618.074791 
L 346.632988 -485.213718 
L 348.615813 -485.985467 
L 350.598638 -499.041789 
L 352.581463 -479.432071 
L 354.564288 -484.475689 
L 356.547113 -483.532228 
L 358.529938 -492.235843 
L 360.512763 -479.613532 
L 362.495588 -484.322597 
L 364.478413 -488.466737 
L 366.461238 -493.822748 
L 368.444063 -481.703391 
L 370.426888 -481.962649 
L 372.409713 -581.756137 
L 374.392538 -494.239831 
L 376.375363 -484.60227 
L 378.358188 -480.756265 
L 380.341013 -497.078349 
L 382.323838 -479.138735 
L 384.306663 -481.171355 
L 386.289488 -503.517845 
L 388.272313 -482.778878 
L 390.255138 -483.537774 
L 392.237963 -500.850025 
L 394.220788 -480.749328 
L 396.203613 -472.809282 
L 398.186438 -500.945844 
L 400.169263 -485.542695 
L 402.152088 -565.696449 
L 404.134913 -480.568409 
L 406.117738 -499.15703 
L 408.100563 -489.344105 
L 410.083388 -488.464629 
L 412.066213 -477.904296 
L 414.049038 -493.14491 
L 416.031863 -501.486696 
L 418.014688 -479.360202 
L 419.997513 -485.637514 
L 421.980338 -502.348998 
L 423.963163 -488.855001 
L 425.945988 -505.033063 
L 427.928813 -492.291157 
L 429.911638 -489.707325 
L 431.894463 -497.51228 
L 433.877288 -490.381796 
L 435.860113 -489.764496 
L 437.842938 -481.536237 
L 439.825763 -620.200941 
L 441.808588 -485.267942 
L 443.791412 -486.05821 
L 445.774237 -498.926561 
L 447.757062 -479.378699 
L 449.739887 -484.485417 
L 451.722712 -483.586846 
L 453.705537 -492.292645 
L 455.688362 -479.649823 
L 457.671187 -484.329704 
L 459.654012 -488.453286 
L 461.636837 -493.820233 
L 463.619662 -481.63254 
L 465.602487 -481.884157 
L 467.585312 -580.751348 
L 469.568137 -493.951923 
L 471.550962 -484.39813 
L 473.533787 -480.588145 
L 475.516612 -496.758248 
L 477.499437 -478.898721 
L 479.482262 -481.028882 
L 481.465087 -503.087989 
L 483.447912 -482.606805 
L 485.430737 -483.353802 
L 487.413562 -500.553098 
L 489.396387 -480.720085 
L 491.379212 -472.695873 
L 493.362037 -500.736336 
L 495.344862 -485.370007 
L 497.327687 -566.543545 
L 499.310512 -480.618287 
L 501.293337 -498.98226 
L 503.276162 -489.268547 
L 505.258987 -488.483033 
L 507.241812 -477.918137 
L 509.224637 -493.142391 
L 511.207462 -501.227103 
L 513.190287 -479.376206 
L 515.173112 -485.523969 
L 517.155937 -502.362916 
L 519.138762 -488.740812 
L 521.121587 -504.972178 
L 523.104412 -492.192971 
L 525.087237 -489.507922 
L 527.070062 -497.475824 
L 529.052887 -490.291638 
L 531.035712 -489.601108 
L 533.018537 -481.386801 
L 535.001362 -621.874824 
L 536.984187 -485.27429 
L 538.967012 -485.93978 
L 540.949837 -498.645523 
L 542.932662 -479.144536 
L 544.915487 -484.316126 
L 546.898312 -483.426909 
L 548.881137 -492.074087 
L 550.863962 -479.524693 
L 552.846787 -484.162559 
L 554.829612 -488.268644 
L 556.812437 -493.601069 
L 558.795262 -481.390439 
L 560.778087 -481.60172 
L 562.760912 -579.626077 
L 564.743737 -493.381625 
L 566.726562 -483.937174 
L 568.709387 -480.1412 
L 570.692212 -496.205332 
L 572.675037 -478.385708 
L 574.657862 -480.61185 
L 576.640687 -502.440191 
L 578.623512 -482.131932 
L 580.606337 -482.854851 
L 582.589162 -499.986048 
L 584.571987 -480.348325 
L 586.554812 -472.240829 
L 588.537637 -500.277802 
L 590.520462 -484.890499 
L 592.503287 -567.115471 
L 594.486112 -480.409974 
L 596.468937 -498.554186 
L 598.451762 -488.889884 
L 600.434587 -488.261177 
L 602.417412 -477.641221 
L 604.400237 -492.84797 
L 606.383062 -500.743562 
L 608.365887 -479.102691 
L 610.348712 -485.110575 
L 612.331537 -502.091423 
L 614.314362 -488.349613 
L 616.297187 -504.699451 
L 618.280012 -491.861509 
L 620.262837 -489.111244 
L 622.245662 -497.13396 
L 624.228487 -489.921952 
L 626.211312 -489.24681 
L 628.194137 -481.068039 
L 630.176962 -622.09205 
L 632.159787 -485.105677 
L 634.142612 -485.705142 
L 636.125437 -498.326838 
L 638.108262 -478.881546 
L 640.091087 -484.100435 
L 642.073912 -483.16129 
L 644.056737 -491.719379 
L 646.039562 -479.205244 
L 648.022387 -483.849022 
L 650.005212 -487.922226 
L 651.988037 -493.244015 
L 653.970862 -480.904125 
L 655.953687 -481.115762 
L 657.936512 -578.80596 
L 659.919337 -492.836457 
L 661.902162 -483.456059 
L 663.884987 -479.652494 
L 665.867812 -495.670332 
L 667.850637 -477.816644 
L 669.833462 -480.142667 
L 671.816287 -501.822484 
L 673.799112 -481.605579 
L 675.781937 -482.301333 
L 677.764762 -499.42404 
L 679.747587 -479.899107 
L 681.730412 -471.665455 
L 683.713237 -499.770022 
L 685.696062 -484.217143 
L 687.678887 -566.388769 
L 689.661712 -479.891016 
L 691.644537 -497.961782 
L 693.627362 -488.32333 
L 695.610187 -487.778005 
L 697.593012 -477.143992 
L 699.575837 -492.285139 
L 701.558662 -500.202316 
L 703.541487 -478.616546 
L 705.524312 -484.572526 
L 707.507137 -501.506529 
L 709.489962 -487.825079 
L 711.472786 -504.07233 
L 713.455611 -491.235231 
L 715.438436 -488.498202 
L 717.421261 -496.475526 
L 719.404086 -489.29969 
L 721.386911 -488.685625 
L 723.369736 -480.378789 
L 725.352561 -621.661859 
L 727.335386 -484.527551 
L 729.318211 -485.174438 
L 731.301036 -497.751773 
L 733.283861 -478.396776 
L 735.266686 -483.625418 
L 737.249511 -482.681464 
L 739.232336 -491.160042 
L 741.215161 -478.710305 
L 743.197986 -483.32785 
L 745.180811 -487.349672 
L 747.163636 -492.70321 
L 747.163636 -612.713564 
L 747.163636 -612.713564 
L 745.180811 -607.362909 
L 743.197986 -603.335491 
L 741.215161 -598.716923 
L 739.232336 -611.170871 
L 737.249511 -602.687858 
L 735.266686 -603.631514 
L 733.283861 -598.401253 
L 731.301036 -617.766784 
L 729.318211 -605.181654 
L 727.335386 -604.600767 
L 725.352561 -745.81235 
L 723.369736 -600.413938 
L 721.386911 -608.685327 
L 719.404086 -609.298518 
L 717.421261 -616.474702 
L 715.438436 -608.505969 
L 713.455611 -611.234781 
L 711.472786 -624.110231 
L 709.489962 -611.131939 
L 707.507137 -629.169234 
L 705.524312 -612.261535 
L 703.541487 -606.301471 
L 701.558662 -627.913736 
L 699.575837 -619.968631 
L 697.593012 -604.827081 
L 695.610187 -615.462022 
L 693.627362 -616.009409 
L 691.644537 -625.656011 
L 689.661712 -607.594345 
L 687.678887 -694.489365 
L 685.696062 -611.920375 
L 683.713237 -627.464145 
L 681.730412 -599.362966 
L 679.747587 -607.578952 
L 677.764762 -627.151388 
L 675.781937 -609.999752 
L 673.799112 -609.299273 
L 671.816287 -629.590905 
L 669.833462 -607.823301 
L 667.850637 -605.529391 
L 665.867812 -623.405058 
L 663.884987 -607.336546 
L 661.902162 -611.142638 
L 659.919337 -620.545137 
L 657.936512 -706.693007 
L 655.953687 -608.795352 
L 653.970862 -608.531743 
L 651.988037 -612.152142 
L 650.005212 -606.831667 
L 648.022387 -602.755172 
L 646.039562 -598.110033 
L 644.056737 -610.627971 
L 642.073912 -602.064803 
L 640.091087 -603.00416 
L 638.108262 -597.787315 
L 636.125437 -617.238212 
L 634.142612 -604.610605 
L 632.159787 -604.098046 
L 630.176962 -746.574545 
L 628.194137 -600.022167 
L 626.211312 -608.146142 
L 624.228487 -608.82069 
L 622.245662 -616.039288 
L 620.262837 -608.013129 
L 618.280012 -610.761307 
L 616.297187 -623.648855 
L 614.314362 -610.606167 
L 612.331537 -628.763151 
L 610.348712 -611.809311 
L 608.365887 -605.800243 
L 606.383062 -627.461719 
L 604.400237 -619.545348 
L 602.417412 -604.337743 
L 600.434587 -614.958581 
L 598.451762 -615.586024 
L 596.468937 -625.253541 
L 594.486112 -607.134972 
L 592.503287 -694.521712 
L 590.520462 -611.597928 
L 588.537637 -626.984128 
L 586.554812 -598.944984 
L 584.571987 -607.045403 
L 582.589162 -626.717529 
L 580.606337 -609.561814 
L 578.623512 -608.837597 
L 576.640687 -629.197205 
L 574.657862 -607.310373 
L 572.675037 -605.10381 
L 570.692212 -622.949339 
L 568.709387 -606.843027 
L 566.726562 -610.642415 
L 564.743737 -620.100258 
L 562.760912 -706.434876 
L 560.778087 -608.300502 
L 558.795262 -608.037559 
L 556.812437 -611.825993 
L 554.829612 -606.495934 
L 552.846787 -602.387966 
L 550.863962 -597.748183 
L 548.881137 -610.300495 
L 546.898312 -601.651028 
L 544.915487 -602.544413 
L 542.932662 -597.376283 
L 540.949837 -616.88059 
L 538.967012 -604.159004 
L 536.984187 -603.523928 
L 535.001362 -741.140746 
L 533.018537 -599.635285 
L 531.035712 -607.819323 
L 529.052887 -608.510617 
L 527.070062 -615.701376 
L 525.087237 -607.726841 
L 523.104412 -610.412645 
L 521.121587 -623.234096 
L 519.138762 -610.376813 
L 517.155937 -628.490136 
L 515.173112 -611.676073 
L 513.190287 -605.53015 
L 511.207462 -627.383719 
L 509.224637 -619.297531 
L 507.241812 -604.07181 
L 505.258987 -614.636469 
L 503.276162 -615.421135 
L 501.293337 -625.134458 
L 499.310512 -606.789753 
L 497.327687 -692.802765 
L 495.344862 -611.53831 
L 493.362037 -626.888992 
L 491.379212 -598.84891 
L 489.396387 -606.872325 
L 487.413562 -626.709315 
L 485.430737 -609.505228 
L 483.447912 -608.758294 
L 481.465087 -629.247082 
L 479.482262 -607.180235 
L 477.499437 -605.051906 
L 475.516612 -622.919664 
L 473.533787 -606.738845 
L 471.550962 -610.549212 
L 469.568137 -620.114468 
L 467.585312 -706.939416 
L 465.602487 -608.047855 
L 463.619662 -607.742323 
L 461.636837 -611.741636 
L 459.654012 -606.378191 
L 457.671187 -602.253982 
L 455.688362 -597.574079 
L 453.705537 -610.216185 
L 451.722712 -601.510577 
L 449.739887 -602.412095 
L 447.757062 -597.30394 
L 445.774237 -616.851432 
L 443.791412 -603.979146 
L 441.808588 -603.2088 
L 439.825763 -738.179133 
L 437.842938 -599.477384 
L 435.860113 -607.683872 
L 433.877288 -608.300383 
L 431.894463 -615.432495 
L 429.911638 -607.626506 
L 427.928813 -610.212356 
L 425.945988 -622.988891 
L 423.963163 -610.266406 
L 421.980338 -628.346441 
L 419.997513 -611.659162 
L 418.014688 -605.383521 
L 416.031863 -627.512199 
L 414.049038 -619.167745 
L 412.066213 -603.928645 
L 410.083388 -614.488101 
L 408.100563 -615.366678 
L 406.117738 -625.181146 
L 404.134913 -606.60414 
L 402.152088 -691.760609 
L 400.169263 -611.587021 
L 398.186438 -626.97063 
L 396.203613 -598.833724 
L 394.220788 -606.772863 
L 392.237963 -626.878679 
L 390.255138 -609.564647 
L 388.272313 -608.805097 
L 386.289488 -629.552969 
L 384.306663 -607.197511 
L 382.323838 -605.164662 
L 380.341013 -623.104492 
L 378.358188 -606.781836 
L 376.375363 -610.62985 
L 374.392538 -620.305419 
L 372.409713 -708.242994 
L 370.426888 -608.007849 
L 368.444063 -607.687888 
L 366.461238 -611.808234 
L 364.478413 -606.454394 
L 362.495588 -602.310835 
L 360.512763 -597.603318 
L 358.529938 -610.225756 
L 356.547113 -601.522509 
L 354.564288 -602.466425 
L 352.581463 -597.419244 
L 350.598638 -617.028081 
L 348.615813 -603.974583 
L 346.632988 -603.223281 
L 344.650163 -736.926239 
L 342.667338 -599.540856 
L 340.684513 -607.720926 
L 338.701688 -608.287106 
L 336.718863 -615.319833 
L 334.736038 -607.686323 
L 332.753213 -610.226871 
L 330.770388 -622.972658 
L 328.787563 -610.365596 
L 326.804738 -628.58509 
L 324.821913 -611.775989 
L 322.839088 -605.516466 
L 320.856263 -627.810597 
L 318.873438 -619.177155 
L 316.890613 -604.067375 
L 314.907788 -614.544538 
L 312.924963 -615.524447 
L 310.942138 -625.348919 
L 308.959313 -606.720709 
L 306.976488 -691.307566 
L 304.993663 -611.702788 
L 303.010838 -627.156875 
L 301.028013 -599.071097 
L 299.045188 -606.945457 
L 297.062363 -627.085087 
L 295.079538 -609.729366 
L 293.096713 -608.980138 
L 291.113888 -629.808089 
L 289.131063 -607.276521 
L 287.148238 -605.409536 
L 285.165413 -623.436849 
L 283.182588 -606.930225 
L 281.199763 -610.838464 
L 279.216938 -620.400976 
L 277.234113 -707.274487 
L 275.251288 -608.099267 
L 273.268463 -607.878241 
L 271.285638 -612.165309 
L 269.302813 -606.815035 
L 267.319988 -602.63745 
L 265.337163 -597.888367 
L 263.354338 -610.532267 
L 261.371513 -601.799998 
L 259.388688 -602.786374 
L 257.405863 -597.773682 
L 255.423038 -617.389587 
L 253.440213 -604.233769 
L 251.457388 -603.500698 
L 249.474563 -736.592728 
L 247.491738 -599.828811 
L 245.508913 -608.008791 
L 243.526088 -608.515977 
L 241.543263 -615.456298 
L 239.560438 -608.035192 
L 237.577613 -610.471334 
L 235.594788 -622.948334 
L 233.611963 -610.627297 
L 231.629138 -629.096254 
L 229.646313 -612.131533 
L 227.663488 -605.930165 
L 225.680663 -628.108148 
L 223.697838 -619.517908 
L 221.715013 -604.500953 
L 219.732188 -614.925119 
L 217.749363 -615.87227 
L 215.766538 -625.705337 
L 213.783713 -607.068043 
L 211.800888 -691.316912 
L 209.818063 -612.043753 
L 207.835238 -627.539372 
L 205.852413 -599.471642 
L 203.869588 -607.32999 
L 201.886763 -627.546844 
L 199.903938 -610.072833 
L 197.921113 -609.348748 
L 195.938288 -630.246086 
L 193.955463 -607.645224 
L 191.972638 -605.835088 
L 189.989813 -623.972345 
L 188.006988 -607.312019 
L 186.024163 -611.227529 
L 184.041338 -620.872965 
L 182.058513 -707.025381 
L 180.075688 -608.394803 
L 178.092863 -608.251613 
L 176.110038 -612.576349 
L 174.127214 -607.410904 
L 172.144389 -603.059088 
L 170.161564 -598.364606 
L 168.178739 -611.036569 
L 166.195914 -602.254834 
L 164.213089 -603.258385 
L 162.230264 -598.279222 
L 160.247439 -617.932097 
L 158.264614 -604.734946 
L 156.281789 -604.01346 
L 154.298964 -736.791729 
L 152.316139 -600.305991 
L 150.333314 -608.355311 
L 148.350489 -608.903932 
L 146.367664 -615.833053 
L 144.384839 -608.611444 
L 142.402014 -610.968979 
L 140.419189 -623.237654 
L 138.436364 -611.156432 
z
" style="stroke: #ffffff; stroke-opacity: 0.4"/>
    </defs>
    <g clip-path="url(#p6c9d6218d8)">
     <use xlink:href="#m903cc173a7" x="0" y="864" style="fill: #4c72b0; fill-opacity: 0.4; stroke: #ffffff; stroke-opacity: 0.4"/>
    </g>
   </g>
   <g id="line2d_16">
    <path d="M 138.436364 314.391543 
L 140.419189 300.413149 
L 142.402014 312.660283 
L 144.384839 315.02182 
L 146.367664 307.797546 
L 148.350489 314.722185 
L 150.333314 315.271751 
L 152.316139 323.32855 
L 154.298964 188.417254 
L 156.281789 319.619556 
L 158.264614 318.889796 
L 160.247439 305.701683 
L 162.230264 325.350247 
L 164.213089 320.366513 
L 166.195914 321.370944 
L 168.178739 312.590132 
L 170.161564 325.260555 
L 172.144389 320.565891 
L 174.127214 316.22016 
L 176.110038 311.048954 
L 178.092863 319.232667 
L 180.075688 319.112448 
L 182.058513 220.49363 
L 184.041338 306.649078 
L 186.024163 316.279341 
L 188.006988 320.190321 
L 189.989813 303.549167 
L 191.972638 321.674151 
L 193.955463 319.856723 
L 195.938288 297.271894 
L 197.921113 318.155304 
L 199.903938 317.428965 
L 201.886763 299.963104 
L 203.869588 320.169659 
L 205.852413 328.031723 
L 207.835238 299.961703 
L 209.818063 315.462631 
L 211.800888 236.418044 
L 213.783713 320.437078 
L 215.766538 301.793062 
L 217.749363 311.62567 
L 219.732188 312.572666 
L 221.715013 322.996987 
L 223.697838 307.979588 
L 225.680663 299.393426 
L 227.663488 321.56607 
L 229.646313 315.364538 
L 231.629138 298.388085 
L 233.611963 314.432856 
L 235.594788 300.281199 
L 237.577613 312.741197 
L 239.560438 315.176314 
L 241.543263 307.757827 
L 243.526088 314.694478 
L 245.508913 315.202569 
L 247.491738 323.391107 
L 249.474563 187.682945 
L 251.457388 319.719973 
L 253.440213 318.977518 
L 255.423038 305.823399 
L 257.405863 325.438543 
L 259.388688 320.42435 
L 261.371513 321.411122 
L 263.354338 312.678795 
L 265.337163 325.322592 
L 267.319988 320.573049 
L 269.302813 316.395531 
L 271.285638 311.045688 
L 273.268463 319.254469 
L 275.251288 319.059295 
L 277.234113 219.913625 
L 279.216938 306.764556 
L 281.199763 316.316588 
L 283.182588 320.221736 
L 285.165413 303.721847 
L 287.148238 321.745776 
L 289.131063 319.874457 
L 291.113888 297.35397 
L 293.096713 318.172907 
L 295.079538 317.42309 
L 297.062363 300.069889 
L 299.045188 320.204557 
L 301.028013 328.081352 
L 303.010838 299.994525 
L 304.993663 315.455439 
L 306.976488 235.959972 
L 308.959313 320.435151 
L 310.942138 301.801281 
L 312.924963 311.624751 
L 314.907788 312.606452 
L 316.890613 323.082583 
L 318.873438 307.972415 
L 320.856263 299.344768 
L 322.839088 321.632181 
L 324.821913 315.371741 
L 326.804738 298.549036 
L 328.787563 314.41941 
L 330.770388 300.037831 
L 332.753213 312.767454 
L 334.736038 315.306494 
L 336.718863 307.674093 
L 338.701688 314.705708 
L 340.684513 315.272159 
L 342.667338 323.461773 
L 344.650163 186.499485 
L 346.632988 319.7815 
L 348.615813 319.019975 
L 350.598638 305.965065 
L 352.581463 325.574344 
L 354.564288 320.528945 
L 356.547113 321.472629 
L 358.529938 312.769203 
L 360.512763 325.391573 
L 362.495588 320.683282 
L 364.478413 316.539434 
L 366.461238 311.184509 
L 368.444063 319.304362 
L 370.426888 319.014748 
L 372.409713 219.000433 
L 374.392538 306.727375 
L 376.375363 316.383938 
L 378.358188 320.230947 
L 380.341013 303.908577 
L 382.323838 321.8483 
L 384.306663 319.815568 
L 386.289488 297.464593 
L 388.272313 318.208011 
L 390.255138 317.448792 
L 392.237963 300.135648 
L 394.220788 320.238902 
L 396.203613 328.178499 
L 398.186438 300.041765 
L 400.169263 315.435142 
L 402.152088 235.271469 
L 404.134913 320.413726 
L 406.117738 301.830911 
L 408.100563 311.644609 
L 410.083388 312.523635 
L 412.066213 323.083528 
L 414.049038 307.843674 
L 416.031863 299.500554 
L 418.014688 321.628141 
L 419.997513 315.351663 
L 421.980338 298.652278 
L 423.963163 314.439296 
L 425.945988 299.989024 
L 427.928813 312.748244 
L 429.911638 315.333084 
L 431.894463 307.52761 
L 433.877288 314.658909 
L 435.860113 315.275815 
L 437.842938 323.493188 
L 439.825763 184.809959 
L 441.808588 319.761631 
L 443.791412 318.981324 
L 445.774237 306.111004 
L 447.757062 325.658678 
L 449.739887 320.551244 
L 451.722712 321.451288 
L 453.705537 312.745584 
L 455.688362 325.388047 
L 457.671187 320.708159 
L 459.654012 316.584264 
L 461.636837 311.219065 
L 463.619662 319.312567 
L 465.602487 319.033994 
L 467.585312 220.154616 
L 469.568137 306.966803 
L 471.550962 316.52633 
L 473.533787 320.336506 
L 475.516612 304.161046 
L 477.499437 322.024686 
L 479.482262 319.89544 
L 481.465087 297.832467 
L 483.447912 318.317451 
L 485.430737 317.570483 
L 487.413562 300.368794 
L 489.396387 320.203793 
L 491.379212 328.227609 
L 493.362037 300.187337 
L 495.344862 315.545843 
L 497.327687 234.326845 
L 499.310512 320.295981 
L 501.293337 301.941639 
L 503.276162 311.65516 
L 505.258987 312.440248 
L 507.241812 323.005025 
L 509.224637 307.780038 
L 511.207462 299.69459 
L 513.190287 321.54682 
L 515.173112 315.39998 
L 517.155937 298.573472 
L 519.138762 314.441186 
L 521.121587 299.896862 
L 523.104412 312.697193 
L 525.087237 315.382617 
L 527.070062 307.4114 
L 529.052887 314.598871 
L 531.035712 315.289782 
L 533.018537 323.488957 
L 535.001362 182.492213 
L 536.984187 319.600892 
L 538.967012 318.950606 
L 540.949837 306.236944 
L 542.932662 325.739588 
L 544.915487 320.56973 
L 546.898312 321.461034 
L 548.881137 312.812707 
L 550.863962 325.36356 
L 552.846787 320.724738 
L 554.829612 316.617711 
L 556.812437 311.28647 
L 558.795262 319.285999 
L 560.778087 319.04889 
L 562.760912 220.969521 
L 564.743737 307.259058 
L 566.726562 316.710205 
L 568.709387 320.507889 
L 570.692212 304.422664 
L 572.675037 322.25524 
L 574.657862 320.038891 
L 576.640687 298.181301 
L 578.623512 318.515236 
L 580.606337 317.791667 
L 582.589162 300.64821 
L 584.571987 320.303134 
L 586.554812 328.407096 
L 588.537637 300.369036 
L 590.520462 315.755785 
L 592.503287 233.181406 
L 594.486112 320.227528 
L 596.468937 302.096137 
L 598.451762 311.762046 
L 600.434587 312.390122 
L 602.417412 323.010516 
L 604.400237 307.80334 
L 606.383062 299.897357 
L 608.365887 321.548535 
L 610.348712 315.540057 
L 612.331537 298.572715 
L 614.314362 314.522108 
L 616.297187 299.825845 
L 618.280012 312.688591 
L 620.262837 315.437812 
L 622.245662 307.413378 
L 624.228487 314.628679 
L 626.211312 315.303525 
L 628.194137 323.454895 
L 630.176962 179.666705 
L 632.159787 319.398137 
L 634.142612 318.842126 
L 636.125437 306.217474 
L 638.108262 325.665569 
L 640.091087 320.447703 
L 642.073912 321.386953 
L 644.056737 312.826323 
L 646.039562 325.342359 
L 648.022387 320.697901 
L 650.005212 316.623052 
L 651.988037 311.301923 
L 653.970862 319.282066 
L 655.953687 319.044443 
L 657.936512 221.250516 
L 659.919337 307.309204 
L 661.902162 316.700654 
L 663.884987 320.505479 
L 665.867812 304.462306 
L 667.850637 322.326984 
L 669.833462 320.017017 
L 671.816287 298.293306 
L 673.799112 318.547576 
L 675.781937 317.84946 
L 677.764762 300.712285 
L 679.747587 320.260972 
L 681.730412 328.48579 
L 683.713237 300.382918 
L 685.696062 315.93124 
L 687.678887 233.560935 
L 689.661712 320.257317 
L 691.644537 302.191105 
L 693.627362 311.833632 
L 695.610187 312.379985 
L 697.593012 323.014463 
L 699.575837 307.873116 
L 701.558662 299.941974 
L 703.541487 321.540992 
L 705.524312 315.582971 
L 707.507137 298.662118 
L 709.489962 314.52149 
L 711.472786 299.908718 
L 713.455611 312.764995 
L 715.438436 315.497912 
L 717.421261 307.524884 
L 719.404086 314.700895 
L 721.386911 315.314522 
L 723.369736 323.603638 
L 725.352561 180.262891 
L 727.335386 319.435843 
L 729.318211 318.821955 
L 731.301036 306.240723 
L 733.283861 325.600984 
L 735.266686 320.371534 
L 737.249511 321.31534 
L 739.232336 312.834544 
L 741.215161 325.286387 
L 743.197986 320.668327 
L 745.180811 316.643709 
L 747.163636 311.291612 
L 747.163636 311.291612 
" clip-path="url(#p6c9d6218d8)" style="fill: none; stroke: #4c72b0; stroke-width: 1.5; stroke-linecap: round"/>
   </g>
   <g id="patch_3">
    <path d="M 108 406.08 
L 108 103.68 
" style="fill: none; stroke: #262626; stroke-width: 1.25; stroke-linejoin: miter; stroke-linecap: square"/>
   </g>
   <g id="patch_4">
    <path d="M 777.6 406.08 
L 777.6 103.68 
" style="fill: none; stroke: #262626; stroke-width: 1.25; stroke-linejoin: miter; stroke-linecap: square"/>
   </g>
   <g id="patch_5">
    <path d="M 108 406.08 
L 777.6 406.08 
" style="fill: none; stroke: #262626; stroke-width: 1.25; stroke-linejoin: miter; stroke-linecap: square"/>
   </g>
   <g id="patch_6">
    <path d="M 108 103.68 
L 777.6 103.68 
" style="fill: none; stroke: #262626; stroke-width: 1.25; stroke-linejoin: miter; stroke-linecap: square"/>
   </g>
   <g id="text_16">
    <!-- sts_week_of_year/ -->
    <g style="fill: #262626" transform="translate(392.775937 97.68) scale(0.12 -0.12)">
     <defs>
      <path id="ArialMT-73" d="M 197 991 
L 753 1078 
Q 800 744 1014 566 
Q 1228 388 1613 388 
Q 2000 388 2187 545 
Q 2375 703 2375 916 
Q 2375 1106 2209 1216 
Q 2094 1291 1634 1406 
Q 1016 1563 777 1677 
Q 538 1791 414 1992 
Q 291 2194 291 2438 
Q 291 2659 392 2848 
Q 494 3038 669 3163 
Q 800 3259 1026 3326 
Q 1253 3394 1513 3394 
Q 1903 3394 2198 3281 
Q 2494 3169 2634 2976 
Q 2775 2784 2828 2463 
L 2278 2388 
Q 2241 2644 2061 2787 
Q 1881 2931 1553 2931 
Q 1166 2931 1000 2803 
Q 834 2675 834 2503 
Q 834 2394 903 2306 
Q 972 2216 1119 2156 
Q 1203 2125 1616 2013 
Q 2213 1853 2448 1751 
Q 2684 1650 2818 1456 
Q 2953 1263 2953 975 
Q 2953 694 2789 445 
Q 2625 197 2315 61 
Q 2006 -75 1616 -75 
Q 969 -75 630 194 
Q 291 463 197 991 
z
" transform="scale(0.015625)"/>
      <path id="ArialMT-74" d="M 1650 503 
L 1731 6 
Q 1494 -44 1306 -44 
Q 1000 -44 831 53 
Q 663 150 594 308 
Q 525 466 525 972 
L 525 2881 
L 113 2881 
L 113 3319 
L 525 3319 
L 525 4141 
L 1084 4478 
L 1084 3319 
L 1650 3319 
L 1650 2881 
L 1084 2881 
L 1084 941 
Q 1084 700 1114 631 
Q 1144 563 1211 522 
Q 1278 481 1403 481 
Q 1497 481 1650 503 
z
" transform="scale(0.015625)"/>
      <path id="ArialMT-5f" d="M -97 -1272 
L -97 -866 
L 3631 -866 
L 3631 -1272 
L -97 -1272 
z
" transform="scale(0.015625)"/>
      <path id="ArialMT-77" d="M 1034 0 
L 19 3319 
L 600 3319 
L 1128 1403 
L 1325 691 
Q 1338 744 1497 1375 
L 2025 3319 
L 2603 3319 
L 3100 1394 
L 3266 759 
L 3456 1400 
L 4025 3319 
L 4572 3319 
L 3534 0 
L 2950 0 
L 2422 1988 
L 2294 2553 
L 1622 0 
L 1034 0 
z
" transform="scale(0.015625)"/>
      <path id="ArialMT-65" d="M 2694 1069 
L 3275 997 
Q 3138 488 2766 206 
Q 2394 -75 1816 -75 
Q 1088 -75 661 373 
Q 234 822 234 1631 
Q 234 2469 665 2931 
Q 1097 3394 1784 3394 
Q 2450 3394 2872 2941 
Q 3294 2488 3294 1666 
Q 3294 1616 3291 1516 
L 816 1516 
Q 847 969 1125 678 
Q 1403 388 1819 388 
Q 2128 388 2347 550 
Q 2566 713 2694 1069 
z
M 847 1978 
L 2700 1978 
Q 2663 2397 2488 2606 
Q 2219 2931 1791 2931 
Q 1403 2931 1139 2672 
Q 875 2413 847 1978 
z
" transform="scale(0.015625)"/>
      <path id="ArialMT-6b" d="M 425 0 
L 425 4581 
L 988 4581 
L 988 1969 
L 2319 3319 
L 3047 3319 
L 1778 2088 
L 3175 0 
L 2481 0 
L 1384 1697 
L 988 1316 
L 988 0 
L 425 0 
z
" transform="scale(0.015625)"/>
      <path id="ArialMT-6f" d="M 213 1659 
Q 213 2581 725 3025 
Q 1153 3394 1769 3394 
Q 2453 3394 2887 2945 
Q 3322 2497 3322 1706 
Q 3322 1066 3130 698 
Q 2938 331 2570 128 
Q 2203 -75 1769 -75 
Q 1072 -75 642 372 
Q 213 819 213 1659 
z
M 791 1659 
Q 791 1022 1069 705 
Q 1347 388 1769 388 
Q 2188 388 2466 706 
Q 2744 1025 2744 1678 
Q 2744 2294 2464 2611 
Q 2184 2928 1769 2928 
Q 1347 2928 1069 2612 
Q 791 2297 791 1659 
z
" transform="scale(0.015625)"/>
      <path id="ArialMT-66" d="M 556 0 
L 556 2881 
L 59 2881 
L 59 3319 
L 556 3319 
L 556 3672 
Q 556 4006 616 4169 
Q 697 4388 901 4523 
Q 1106 4659 1475 4659 
Q 1713 4659 2000 4603 
L 1916 4113 
Q 1741 4144 1584 4144 
Q 1328 4144 1222 4034 
Q 1116 3925 1116 3625 
L 1116 3319 
L 1763 3319 
L 1763 2881 
L 1116 2881 
L 1116 0 
L 556 0 
z
" transform="scale(0.015625)"/>
      <path id="ArialMT-79" d="M 397 -1278 
L 334 -750 
Q 519 -800 656 -800 
Q 844 -800 956 -737 
Q 1069 -675 1141 -563 
Q 1194 -478 1313 -144 
Q 1328 -97 1363 -6 
L 103 3319 
L 709 3319 
L 1400 1397 
Q 1534 1031 1641 628 
Q 1738 1016 1872 1384 
L 2581 3319 
L 3144 3319 
L 1881 -56 
Q 1678 -603 1566 -809 
Q 1416 -1088 1222 -1217 
Q 1028 -1347 759 -1347 
Q 597 -1347 397 -1278 
z
" transform="scale(0.015625)"/>
      <path id="ArialMT-61" d="M 2588 409 
Q 2275 144 1986 34 
Q 1697 -75 1366 -75 
Q 819 -75 525 192 
Q 231 459 231 875 
Q 231 1119 342 1320 
Q 453 1522 633 1644 
Q 813 1766 1038 1828 
Q 1203 1872 1538 1913 
Q 2219 1994 2541 2106 
Q 2544 2222 2544 2253 
Q 2544 2597 2384 2738 
Q 2169 2928 1744 2928 
Q 1347 2928 1158 2789 
Q 969 2650 878 2297 
L 328 2372 
Q 403 2725 575 2942 
Q 747 3159 1072 3276 
Q 1397 3394 1825 3394 
Q 2250 3394 2515 3294 
Q 2781 3194 2906 3042 
Q 3031 2891 3081 2659 
Q 3109 2516 3109 2141 
L 3109 1391 
Q 3109 606 3145 398 
Q 3181 191 3288 0 
L 2700 0 
Q 2613 175 2588 409 
z
M 2541 1666 
Q 2234 1541 1622 1453 
Q 1275 1403 1131 1340 
Q 988 1278 909 1158 
Q 831 1038 831 891 
Q 831 666 1001 516 
Q 1172 366 1500 366 
Q 1825 366 2078 508 
Q 2331 650 2450 897 
Q 2541 1088 2541 1459 
L 2541 1666 
z
" transform="scale(0.015625)"/>
      <path id="ArialMT-72" d="M 416 0 
L 416 3319 
L 922 3319 
L 922 2816 
Q 1116 3169 1280 3281 
Q 1444 3394 1641 3394 
Q 1925 3394 2219 3213 
L 2025 2691 
Q 1819 2813 1613 2813 
Q 1428 2813 1281 2702 
Q 1134 2591 1072 2394 
Q 978 2094 978 1738 
L 978 0 
L 416 0 
z
" transform="scale(0.015625)"/>
      <path id="ArialMT-2f" d="M 0 -78 
L 1328 4659 
L 1778 4659 
L 453 -78 
L 0 -78 
z
" transform="scale(0.015625)"/>
     </defs>
     <use xlink:href="#ArialMT-73"/>
     <use xlink:href="#ArialMT-74" x="50"/>
     <use xlink:href="#ArialMT-73" x="77.783203"/>
     <use xlink:href="#ArialMT-5f" x="127.783203"/>
     <use xlink:href="#ArialMT-77" x="183.398438"/>
     <use xlink:href="#ArialMT-65" x="255.615234"/>
     <use xlink:href="#ArialMT-65" x="311.230469"/>
     <use xlink:href="#ArialMT-6b" x="366.845703"/>
     <use xlink:href="#ArialMT-5f" x="416.845703"/>
     <use xlink:href="#ArialMT-6f" x="472.460938"/>
     <use xlink:href="#ArialMT-66" x="528.076172"/>
     <use xlink:href="#ArialMT-5f" x="555.859375"/>
     <use xlink:href="#ArialMT-79" x="611.474609"/>
     <use xlink:href="#ArialMT-65" x="661.474609"/>
     <use xlink:href="#ArialMT-61" x="717.089844"/>
     <use xlink:href="#ArialMT-72" x="772.705078"/>
     <use xlink:href="#ArialMT-2f" x="806.005859"/>
    </g>
   </g>
  </g>
  <g id="axes_2">
   <g id="patch_7">
    <path d="M 108 768.96 
L 777.6 768.96 
L 777.6 466.56 
L 108 466.56 
z
" style="fill: #ffffff"/>
   </g>
   <g id="matplotlib.axis_3">
    <g id="xtick_8">
     <g id="line2d_17">
      <g>
       <use xlink:href="#m2d0fdd20b5" x="128.238978" y="768.96" style="fill: #262626; stroke: #262626; stroke-width: 1.25"/>
      </g>
     </g>
     <g id="text_17">
      <!-- 2016 -->
      <g style="fill: #262626" transform="translate(116.004915 786.333594) scale(0.11 -0.11)">
       <use xlink:href="#ArialMT-32"/>
       <use xlink:href="#ArialMT-30" x="55.615234"/>
       <use xlink:href="#ArialMT-31" x="111.230469"/>
       <use xlink:href="#ArialMT-36" x="166.845703"/>
      </g>
     </g>
    </g>
    <g id="xtick_9">
     <g id="line2d_18">
      <g>
       <use xlink:href="#m2d0fdd20b5" x="231.912399" y="768.96" style="fill: #262626; stroke: #262626; stroke-width: 1.25"/>
      </g>
     </g>
     <g id="text_18">
      <!-- 2017 -->
      <g style="fill: #262626" transform="translate(219.678337 786.333594) scale(0.11 -0.11)">
       <use xlink:href="#ArialMT-32"/>
       <use xlink:href="#ArialMT-30" x="55.615234"/>
       <use xlink:href="#ArialMT-31" x="111.230469"/>
       <use xlink:href="#ArialMT-37" x="166.845703"/>
      </g>
     </g>
    </g>
    <g id="xtick_10">
     <g id="line2d_19">
      <g>
       <use xlink:href="#m2d0fdd20b5" x="335.302559" y="768.96" style="fill: #262626; stroke: #262626; stroke-width: 1.25"/>
      </g>
     </g>
     <g id="text_19">
      <!-- 2018 -->
      <g style="fill: #262626" transform="translate(323.068497 786.333594) scale(0.11 -0.11)">
       <use xlink:href="#ArialMT-32"/>
       <use xlink:href="#ArialMT-30" x="55.615234"/>
       <use xlink:href="#ArialMT-31" x="111.230469"/>
       <use xlink:href="#ArialMT-38" x="166.845703"/>
      </g>
     </g>
    </g>
    <g id="xtick_11">
     <g id="line2d_20">
      <g>
       <use xlink:href="#m2d0fdd20b5" x="438.69272" y="768.96" style="fill: #262626; stroke: #262626; stroke-width: 1.25"/>
      </g>
     </g>
     <g id="text_20">
      <!-- 2019 -->
      <g style="fill: #262626" transform="translate(426.458657 786.333594) scale(0.11 -0.11)">
       <use xlink:href="#ArialMT-32"/>
       <use xlink:href="#ArialMT-30" x="55.615234"/>
       <use xlink:href="#ArialMT-31" x="111.230469"/>
       <use xlink:href="#ArialMT-39" x="166.845703"/>
      </g>
     </g>
    </g>
    <g id="xtick_12">
     <g id="line2d_21">
      <g>
       <use xlink:href="#m2d0fdd20b5" x="542.08288" y="768.96" style="fill: #262626; stroke: #262626; stroke-width: 1.25"/>
      </g>
     </g>
     <g id="text_21">
      <!-- 2020 -->
      <g style="fill: #262626" transform="translate(529.848817 786.333594) scale(0.11 -0.11)">
       <use xlink:href="#ArialMT-32"/>
       <use xlink:href="#ArialMT-30" x="55.615234"/>
       <use xlink:href="#ArialMT-32" x="111.230469"/>
       <use xlink:href="#ArialMT-30" x="166.845703"/>
      </g>
     </g>
    </g>
    <g id="xtick_13">
     <g id="line2d_22">
      <g>
       <use xlink:href="#m2d0fdd20b5" x="645.756301" y="768.96" style="fill: #262626; stroke: #262626; stroke-width: 1.25"/>
      </g>
     </g>
     <g id="text_22">
      <!-- 2021 -->
      <g style="fill: #262626" transform="translate(633.522239 786.333594) scale(0.11 -0.11)">
       <use xlink:href="#ArialMT-32"/>
       <use xlink:href="#ArialMT-30" x="55.615234"/>
       <use xlink:href="#ArialMT-32" x="111.230469"/>
       <use xlink:href="#ArialMT-31" x="166.845703"/>
      </g>
     </g>
    </g>
    <g id="xtick_14">
     <g id="line2d_23">
      <g>
       <use xlink:href="#m2d0fdd20b5" x="749.146461" y="768.96" style="fill: #262626; stroke: #262626; stroke-width: 1.25"/>
      </g>
     </g>
     <g id="text_23">
      <!-- 2022 -->
      <g style="fill: #262626" transform="translate(736.912399 786.333594) scale(0.11 -0.11)">
       <use xlink:href="#ArialMT-32"/>
       <use xlink:href="#ArialMT-30" x="55.615234"/>
       <use xlink:href="#ArialMT-32" x="111.230469"/>
       <use xlink:href="#ArialMT-32" x="166.845703"/>
      </g>
     </g>
    </g>
   </g>
   <g id="matplotlib.axis_4">
    <g id="ytick_9">
     <g id="line2d_24">
      <g>
       <use xlink:href="#m07f391933c" x="108" y="739.911224" style="fill: #262626; stroke: #262626; stroke-width: 1.25"/>
      </g>
     </g>
     <g id="text_24">
      <!-- −2 -->
      <g style="fill: #262626" transform="translate(85.958281 743.848021) scale(0.11 -0.11)">
       <use xlink:href="#ArialMT-2212"/>
       <use xlink:href="#ArialMT-32" x="58.398438"/>
      </g>
     </g>
    </g>
    <g id="ytick_10">
     <g id="line2d_25">
      <g>
       <use xlink:href="#m07f391933c" x="108" y="699.4365" style="fill: #262626; stroke: #262626; stroke-width: 1.25"/>
      </g>
     </g>
     <g id="text_25">
      <!-- 0 -->
      <g style="fill: #262626" transform="translate(92.382969 703.373297) scale(0.11 -0.11)">
       <use xlink:href="#ArialMT-30"/>
      </g>
     </g>
    </g>
    <g id="ytick_11">
     <g id="line2d_26">
      <g>
       <use xlink:href="#m07f391933c" x="108" y="658.961776" style="fill: #262626; stroke: #262626; stroke-width: 1.25"/>
      </g>
     </g>
     <g id="text_26">
      <!-- 2 -->
      <g style="fill: #262626" transform="translate(92.382969 662.898573) scale(0.11 -0.11)">
       <use xlink:href="#ArialMT-32"/>
      </g>
     </g>
    </g>
    <g id="ytick_12">
     <g id="line2d_27">
      <g>
       <use xlink:href="#m07f391933c" x="108" y="618.487052" style="fill: #262626; stroke: #262626; stroke-width: 1.25"/>
      </g>
     </g>
     <g id="text_27">
      <!-- 4 -->
      <g style="fill: #262626" transform="translate(92.382969 622.423849) scale(0.11 -0.11)">
       <defs>
        <path id="ArialMT-34" d="M 2069 0 
L 2069 1097 
L 81 1097 
L 81 1613 
L 2172 4581 
L 2631 4581 
L 2631 1613 
L 3250 1613 
L 3250 1097 
L 2631 1097 
L 2631 0 
L 2069 0 
z
M 2069 1613 
L 2069 3678 
L 634 1613 
L 2069 1613 
z
" transform="scale(0.015625)"/>
       </defs>
       <use xlink:href="#ArialMT-34"/>
      </g>
     </g>
    </g>
    <g id="ytick_13">
     <g id="line2d_28">
      <g>
       <use xlink:href="#m07f391933c" x="108" y="578.012328" style="fill: #262626; stroke: #262626; stroke-width: 1.25"/>
      </g>
     </g>
     <g id="text_28">
      <!-- 6 -->
      <g style="fill: #262626" transform="translate(92.382969 581.949125) scale(0.11 -0.11)">
       <use xlink:href="#ArialMT-36"/>
      </g>
     </g>
    </g>
    <g id="ytick_14">
     <g id="line2d_29">
      <g>
       <use xlink:href="#m07f391933c" x="108" y="537.537604" style="fill: #262626; stroke: #262626; stroke-width: 1.25"/>
      </g>
     </g>
     <g id="text_29">
      <!-- 8 -->
      <g style="fill: #262626" transform="translate(92.382969 541.474401) scale(0.11 -0.11)">
       <use xlink:href="#ArialMT-38"/>
      </g>
     </g>
    </g>
    <g id="ytick_15">
     <g id="line2d_30">
      <g>
       <use xlink:href="#m07f391933c" x="108" y="497.06288" style="fill: #262626; stroke: #262626; stroke-width: 1.25"/>
      </g>
     </g>
     <g id="text_30">
      <!-- 10 -->
      <g style="fill: #262626" transform="translate(86.265938 500.999676) scale(0.11 -0.11)">
       <use xlink:href="#ArialMT-31"/>
       <use xlink:href="#ArialMT-30" x="55.615234"/>
      </g>
     </g>
    </g>
   </g>
   <g id="PolyCollection_2">
    <defs>
     <path id="m36d08fcdca" d="M 138.436364 -199.807607 
L 138.436364 -145.405717 
L 140.419189 -131.669958 
L 142.402014 -142.761588 
L 144.384839 -146.928748 
L 146.367664 -136.512192 
L 148.350489 -137.087178 
L 150.333314 -134.861232 
L 152.316139 -142.820759 
L 154.298964 -109.387856 
L 156.281789 -143.527638 
L 158.264614 -141.255394 
L 160.247439 -145.028894 
L 162.230264 -140.432011 
L 164.213089 -139.547325 
L 166.195914 -138.350298 
L 168.178739 -142.565229 
L 170.161564 -139.248942 
L 172.144389 -136.4591 
L 174.127214 -147.389063 
L 176.110038 -137.667551 
L 178.092863 -138.615179 
L 180.075688 -135.307589 
L 182.058513 -117.186111 
L 184.041338 -145.667938 
L 186.024163 -138.252303 
L 188.006988 -136.797275 
L 189.989813 -147.583412 
L 191.972638 -139.184025 
L 193.955463 -136.334853 
L 195.938288 -143.754826 
L 197.921113 -137.014374 
L 199.903938 -135.658311 
L 201.886763 -144.900284 
L 203.869588 -137.617914 
L 205.852413 -137.840951 
L 207.835238 -141.163654 
L 209.818063 -137.695512 
L 211.800888 -120.372994 
L 213.783713 -136.625072 
L 215.766538 -139.067475 
L 217.749363 -136.737033 
L 219.732188 -138.317338 
L 221.715013 -139.936656 
L 223.697838 -136.492439 
L 225.680663 -135.444452 
L 227.663488 -139.052964 
L 229.646313 -135.841363 
L 231.629138 -147.488259 
L 233.611963 -135.351171 
L 235.594788 -132.907098 
L 237.577613 -136.549745 
L 239.560438 -137.924659 
L 241.543263 -136.083426 
L 243.526088 -140.558006 
L 245.508913 -146.659815 
L 247.491738 -140.250679 
L 249.474563 -112.305945 
L 251.457388 -138.151504 
L 253.440213 -136.413939 
L 255.423038 -139.590029 
L 257.405863 -140.746736 
L 259.388688 -140.520996 
L 261.371513 -139.032772 
L 263.354338 -137.863823 
L 265.337163 -137.821798 
L 267.319988 -143.55278 
L 269.302813 -135.012567 
L 271.285638 -145.507691 
L 273.268463 -138.51192 
L 275.251288 -138.974103 
L 277.234113 -120.047483 
L 279.216938 -132.82331 
L 281.199763 -142.639897 
L 283.182588 -138.773751 
L 285.165413 -140.698586 
L 287.148238 -141.772492 
L 289.131063 -135.321717 
L 291.113888 -141.698984 
L 293.096713 -140.910959 
L 295.079538 -141.968719 
L 297.062363 -137.640155 
L 299.045188 -140.038533 
L 301.028013 -142.731955 
L 303.010838 -140.840268 
L 304.993663 -140.155859 
L 306.976488 -127.169572 
L 308.959313 -139.874651 
L 310.942138 -141.627794 
L 312.924963 -141.840336 
L 314.907788 -133.906241 
L 316.890613 -136.061379 
L 318.873438 -132.907604 
L 320.856263 -152.258449 
L 322.839088 -135.650116 
L 324.821913 -138.795893 
L 326.804738 -136.549303 
L 328.787563 -141.367921 
L 330.770388 -151.192948 
L 332.753213 -137.459861 
L 334.736038 -134.886725 
L 336.718863 -137.618556 
L 338.701688 -137.955015 
L 340.684513 -137.593461 
L 342.667338 -140.435138 
L 344.650163 -112.144946 
L 346.632988 -137.800209 
L 348.615813 -136.345914 
L 350.598638 -141.066031 
L 352.581463 -137.640162 
L 354.564288 -135.984548 
L 356.547113 -136.191817 
L 358.529938 -134.419668 
L 360.512763 -136.989289 
L 362.495588 -136.024562 
L 364.478413 -135.170698 
L 366.461238 -134.019167 
L 368.444063 -135.023413 
L 370.426888 -133.607521 
L 372.409713 -249.278388 
L 374.392538 -144.93445 
L 376.375363 -139.652949 
L 378.358188 -143.249336 
L 380.341013 -141.990549 
L 382.323838 -142.326854 
L 384.306663 -145.750707 
L 386.289488 -152.779881 
L 388.272313 -142.032734 
L 390.255138 -143.831671 
L 392.237963 -148.866394 
L 394.220788 -135.354758 
L 396.203613 -136.99911 
L 398.186438 -145.507128 
L 400.169263 -148.182253 
L 402.152088 -125.90094 
L 404.134913 -135.5174 
L 406.117738 -145.432373 
L 408.100563 -139.701854 
L 410.083388 -140.703987 
L 412.066213 -135.965922 
L 414.049038 -144.711453 
L 416.031863 -143.013902 
L 418.014688 -136.308472 
L 419.997513 -145.792181 
L 421.980338 -131.028785 
L 423.963163 -141.374869 
L 425.945988 -139.573493 
L 427.928813 -139.94833 
L 429.911638 -143.045689 
L 431.894463 -143.546564 
L 433.877288 -141.313486 
L 435.860113 -143.597387 
L 437.842938 -142.904115 
L 439.825763 -108.785455 
L 441.808588 -137.077144 
L 443.791412 -144.176547 
L 445.774237 -141.584635 
L 447.757062 -142.332752 
L 449.739887 -142.063372 
L 451.722712 -143.908433 
L 453.705537 -147.628284 
L 455.688362 -141.317385 
L 457.671187 -142.592051 
L 459.654012 -142.54417 
L 461.636837 -145.559492 
L 463.619662 -141.614127 
L 465.602487 -144.851709 
L 467.585312 -122.659877 
L 469.568137 -144.794917 
L 471.550962 -142.652141 
L 473.533787 -143.714093 
L 475.516612 -140.023132 
L 477.499437 -142.561436 
L 479.482262 -143.037962 
L 481.465087 -137.543306 
L 483.447912 -143.601346 
L 485.430737 -143.82975 
L 487.413562 -140.115392 
L 489.396387 -145.242192 
L 491.379212 -145.086857 
L 493.362037 -139.722522 
L 495.344862 -144.329501 
L 497.327687 -127.245151 
L 499.310512 -143.687493 
L 501.293337 -142.268556 
L 503.276162 -145.117641 
L 505.258987 -141.160458 
L 507.241812 -144.308435 
L 509.224637 -144.516416 
L 511.207462 -139.773664 
L 513.190287 -144.114693 
L 515.173112 -144.345314 
L 517.155937 -143.626902 
L 519.138762 -144.310949 
L 521.121587 -141.334106 
L 523.104412 -142.864203 
L 525.087237 -140.384167 
L 527.070062 -147.044066 
L 529.052887 -145.629375 
L 531.035712 -141.157367 
L 533.018537 -141.365634 
L 535.001362 -115.310575 
L 536.984187 -145.851482 
L 538.967012 -142.440033 
L 540.949837 -138.256486 
L 542.932662 -137.727528 
L 544.915487 -138.261149 
L 546.898312 -141.105188 
L 548.881137 -142.098484 
L 550.863962 -145.127182 
L 552.846787 -142.080595 
L 554.829612 -142.96117 
L 556.812437 -141.377651 
L 558.795262 -145.705428 
L 560.778087 -144.78669 
L 562.760912 -115.254244 
L 564.743737 -132.951832 
L 566.726562 -134.8282 
L 568.709387 -135.583345 
L 570.692212 -132.296289 
L 572.675037 -135.926741 
L 574.657862 -135.480419 
L 576.640687 -131.029852 
L 578.623512 -135.175006 
L 580.606337 -135.023749 
L 582.589162 -131.520787 
L 584.571987 -135.50322 
L 586.554812 -137.109426 
L 588.537637 -131.233615 
L 590.520462 -133.544391 
L 592.503287 -224.299978 
L 594.486112 -140.083164 
L 596.468937 -135.509104 
L 598.451762 -138.143683 
L 600.434587 -142.797044 
L 602.417412 -140.162342 
L 604.400237 -143.51923 
L 606.383062 -131.263501 
L 608.365887 -140.468155 
L 610.348712 -134.434015 
L 612.331537 -145.333613 
L 614.314362 -134.375556 
L 616.297187 -148.49682 
L 618.280012 -143.802291 
L 620.262837 -138.863353 
L 622.245662 -145.021268 
L 624.228487 -140.002797 
L 626.211312 -134.105713 
L 628.194137 -132.873135 
L 630.176962 -320.922007 
L 632.159787 -135.579589 
L 634.142612 -138.840828 
L 636.125437 -139.702899 
L 638.108262 -138.975425 
L 640.091087 -141.85614 
L 642.073912 -139.665708 
L 644.056737 -139.548143 
L 646.039562 -137.898809 
L 648.022387 -139.852024 
L 650.005212 -140.922355 
L 651.988037 -138.650261 
L 653.970862 -139.147377 
L 655.953687 -140.055522 
L 657.936512 -123.625516 
L 659.919337 -137.866622 
L 661.902162 -140.806805 
L 663.884987 -140.358484 
L 665.867812 -138.101146 
L 667.850637 -136.526889 
L 669.833462 -142.566404 
L 671.816287 -134.639918 
L 673.799112 -139.971152 
L 675.781937 -138.512149 
L 677.764762 -138.100104 
L 679.747587 -144.766975 
L 681.730412 -137.744931 
L 683.713237 -142.693481 
L 685.696062 -134.583073 
L 687.678887 -122.383648 
L 689.661712 -142.013723 
L 691.644537 -136.969504 
L 693.627362 -138.092666 
L 695.610187 -142.6672 
L 697.593012 -141.724539 
L 699.575837 -137.951488 
L 701.558662 -139.437806 
L 703.541487 -142.722675 
L 705.524312 -139.922719 
L 707.507137 -137.284929 
L 709.489962 -143.150152 
L 711.472786 -138.54617 
L 713.455611 -138.986481 
L 715.438436 -140.052885 
L 717.421261 -137.22859 
L 719.404086 -139.591843 
L 721.386911 -143.850534 
L 723.369736 -137.666796 
L 725.352561 -110.566209 
L 727.335386 -140.708877 
L 729.318211 -141.858924 
L 731.301036 -138.135063 
L 733.283861 -142.935443 
L 735.266686 -143.241966 
L 737.249511 -143.048157 
L 739.232336 -138.336004 
L 741.215161 -142.385714 
L 743.197986 -140.858198 
L 745.180811 -137.951242 
L 747.163636 -139.848244 
L 747.163636 -188.293045 
L 747.163636 -188.293045 
L 745.180811 -186.362268 
L 743.197986 -189.263395 
L 741.215161 -190.792262 
L 739.232336 -186.743242 
L 737.249511 -191.455936 
L 735.266686 -191.651207 
L 733.283861 -191.343116 
L 731.301036 -186.541723 
L 729.318211 -190.274963 
L 727.335386 -189.180167 
L 725.352561 -160.111649 
L 723.369736 -186.137391 
L 721.386911 -192.285004 
L 719.404086 -187.998719 
L 717.421261 -185.638767 
L 715.438436 -188.462464 
L 713.455611 -187.391814 
L 711.472786 -186.958223 
L 709.489962 -191.902105 
L 707.507137 -186.487563 
L 705.524312 -189.126979 
L 703.541487 -191.930785 
L 701.558662 -188.644218 
L 699.575837 -187.157683 
L 697.593012 -190.930039 
L 695.610187 -191.874904 
L 693.627362 -187.298885 
L 691.644537 -186.18407 
L 689.661712 -191.260896 
L 687.678887 -171.84297 
L 685.696062 -183.824359 
L 683.713237 -191.926469 
L 681.730412 -186.951401 
L 679.747587 -193.986197 
L 677.764762 -187.308045 
L 675.781937 -187.71954 
L 673.799112 -189.184165 
L 671.816287 -183.861742 
L 669.833462 -191.7877 
L 667.850637 -185.738367 
L 665.867812 -187.316079 
L 663.884987 -189.566951 
L 661.902162 -190.02208 
L 659.919337 -187.102572 
L 657.936512 -172.974784 
L 655.953687 -189.287708 
L 653.970862 -188.347979 
L 651.988037 -186.941531 
L 650.005212 -189.213853 
L 648.022387 -188.141654 
L 646.039562 -186.189438 
L 644.056737 -187.838135 
L 642.073912 -187.952318 
L 640.091087 -190.144197 
L 638.108262 -187.268529 
L 636.125437 -188.034279 
L 634.142612 -187.622097 
L 632.159787 -188.451294 
L 630.176962 -383.694545 
L 628.194137 -185.575083 
L 626.211312 -182.878738 
L 624.228487 -188.344715 
L 622.245662 -193.325329 
L 620.262837 -187.167029 
L 618.280012 -192.103955 
L 616.297187 -196.819493 
L 614.314362 -183.037871 
L 612.331537 -194.445157 
L 610.348712 -183.541428 
L 608.365887 -189.578743 
L 606.383062 -180.392293 
L 604.400237 -192.625837 
L 602.417412 -189.257099 
L 600.434587 -191.894402 
L 598.451762 -187.247067 
L 596.468937 -184.702676 
L 594.486112 -190.057555 
L 592.503287 -276.696125 
L 590.520462 -183.417974 
L 588.537637 -180.388842 
L 586.554812 -186.221259 
L 584.571987 -184.63934 
L 582.589162 -180.689563 
L 580.606337 -184.188117 
L 578.623512 -184.342814 
L 576.640687 -180.214116 
L 574.657862 -184.642422 
L 572.675037 -185.089433 
L 570.692212 -181.46843 
L 568.709387 -184.750252 
L 566.726562 -184.009754 
L 564.743737 -182.183851 
L 562.760912 -164.659647 
L 560.778087 -193.929986 
L 558.795262 -194.806125 
L 556.812437 -189.598525 
L 554.829612 -191.182083 
L 552.846787 -190.302984 
L 550.863962 -193.354916 
L 548.881137 -190.315609 
L 546.898312 -189.319664 
L 544.915487 -186.479085 
L 542.932662 -185.948788 
L 540.949837 -186.476062 
L 538.967012 -190.659933 
L 536.984187 -194.121682 
L 535.001362 -164.083368 
L 533.018537 -189.609808 
L 531.035712 -189.371617 
L 529.052887 -193.861757 
L 527.070062 -195.284877 
L 525.087237 -188.614571 
L 523.104412 -191.087388 
L 521.121587 -189.573122 
L 519.138762 -192.89109 
L 517.155937 -192.6771 
L 515.173112 -193.402697 
L 513.190287 -193.166822 
L 511.207462 -188.823043 
L 509.224637 -193.566833 
L 507.241812 -193.361229 
L 505.258987 -190.211091 
L 503.276162 -194.168511 
L 501.293337 -191.309279 
L 499.310512 -192.727758 
L 497.327687 -176.405112 
L 495.344862 -193.374252 
L 493.362037 -188.761324 
L 491.379212 -194.138784 
L 489.396387 -194.295308 
L 487.413562 -189.161388 
L 485.430737 -192.874497 
L 483.447912 -192.642696 
L 481.465087 -186.584882 
L 479.482262 -192.076093 
L 477.499437 -191.599944 
L 475.516612 -189.060641 
L 473.533787 -192.755906 
L 471.550962 -191.691117 
L 469.568137 -193.846051 
L 467.585312 -171.874377 
L 465.602487 -193.90225 
L 463.619662 -190.645518 
L 461.636837 -193.758736 
L 459.654012 -190.737808 
L 457.671187 -190.782948 
L 455.688362 -189.51605 
L 453.705537 -195.841502 
L 451.722712 -192.108995 
L 449.739887 -190.253212 
L 447.757062 -190.519143 
L 445.774237 -189.767913 
L 443.791412 -192.381258 
L 441.808588 -185.334775 
L 439.825763 -157.485588 
L 437.842938 -191.165765 
L 435.860113 -191.788689 
L 433.877288 -189.498149 
L 431.894463 -191.734474 
L 429.911638 -191.232349 
L 427.928813 -188.131671 
L 425.945988 -187.76177 
L 423.963163 -189.921651 
L 421.980338 -180.082477 
L 419.997513 -194.838973 
L 418.014688 -185.337962 
L 416.031863 -192.035986 
L 414.049038 -193.740317 
L 412.066213 -184.994751 
L 410.083388 -189.723436 
L 408.100563 -188.721086 
L 406.117738 -194.470855 
L 404.134913 -184.546554 
L 402.152088 -175.021289 
L 400.169263 -197.235795 
L 398.186438 -194.539119 
L 396.203613 -186.025223 
L 394.220788 -184.393058 
L 392.237963 -197.922026 
L 390.255138 -192.887833 
L 388.272313 -191.117416 
L 386.289488 -201.897754 
L 384.306663 -194.835125 
L 382.323838 -191.382196 
L 380.341013 -191.037375 
L 378.358188 -192.327848 
L 376.375363 -188.982064 
L 374.392538 -195.710354 
L 372.409713 -303.964423 
L 370.426888 -184.183396 
L 368.444063 -184.123092 
L 366.461238 -182.231266 
L 364.478413 -183.394298 
L 362.495588 -184.252918 
L 360.512763 -185.221623 
L 358.529938 -182.656571 
L 356.547113 -184.423948 
L 354.564288 -184.206706 
L 352.581463 -185.848289 
L 350.598638 -189.283585 
L 348.615813 -184.570862 
L 346.632988 -186.119667 
L 344.650163 -160.787346 
L 342.667338 -188.74622 
L 340.684513 -185.815252 
L 338.701688 -186.166047 
L 336.718863 -185.829158 
L 334.736038 -183.094398 
L 332.753213 -185.654868 
L 330.770388 -199.444263 
L 328.787563 -189.926929 
L 326.804738 -185.598768 
L 324.821913 -187.846685 
L 322.839088 -184.712864 
L 320.856263 -201.394228 
L 318.873438 -181.981484 
L 316.890613 -185.13136 
L 314.907788 -182.976633 
L 312.924963 -190.897622 
L 310.942138 -190.680511 
L 308.959313 -188.933341 
L 306.976488 -176.311449 
L 304.993663 -189.212557 
L 303.010838 -189.889907 
L 301.028013 -191.784542 
L 299.045188 -189.087371 
L 297.062363 -186.694657 
L 295.079538 -191.019424 
L 293.096713 -189.961095 
L 291.113888 -190.751281 
L 289.131063 -184.382936 
L 287.148238 -190.824693 
L 285.165413 -189.749484 
L 283.182588 -187.824403 
L 281.199763 -191.715717 
L 279.216938 -181.931813 
L 277.234113 -169.344814 
L 275.251288 -188.070611 
L 273.268463 -187.557491 
L 271.285638 -193.764903 
L 269.302813 -183.265426 
L 267.319988 -191.801369 
L 265.337163 -186.060988 
L 263.354338 -186.10614 
L 261.371513 -187.271798 
L 259.388688 -188.758748 
L 257.405863 -188.984807 
L 255.423038 -187.836224 
L 253.440213 -184.679068 
L 251.457388 -186.502634 
L 249.474563 -161.057954 
L 247.491738 -188.539345 
L 245.508913 -194.928621 
L 243.526088 -188.794928 
L 241.543263 -184.332048 
L 239.560438 -186.179486 
L 237.577613 -184.814092 
L 235.594788 -181.184197 
L 233.611963 -183.980724 
L 231.629138 -196.650662 
L 229.646313 -184.976601 
L 227.663488 -188.188816 
L 225.680663 -184.589972 
L 223.697838 -185.632656 
L 221.715013 -189.073116 
L 219.732188 -187.453523 
L 217.749363 -185.876228 
L 215.766538 -188.22089 
L 213.783713 -185.811648 
L 211.800888 -169.730233 
L 209.818063 -186.866354 
L 207.835238 -190.308779 
L 205.852413 -186.972488 
L 203.869588 -186.747541 
L 201.886763 -194.044874 
L 199.903938 -184.795845 
L 197.921113 -186.146756 
L 195.938288 -192.893625 
L 193.955463 -185.469758 
L 191.972638 -188.315201 
L 189.989813 -196.738178 
L 188.006988 -185.932687 
L 186.024163 -187.383083 
L 184.041338 -194.866408 
L 182.058513 -166.583832 
L 180.075688 -184.497929 
L 178.092863 -187.754784 
L 176.110038 -185.995617 
L 174.127214 -195.741374 
L 172.144389 -184.791165 
L 170.161564 -187.572593 
L 168.178739 -190.892754 
L 166.195914 -186.674938 
L 164.213089 -187.870518 
L 162.230264 -188.756753 
L 160.247439 -193.361485 
L 158.264614 -189.579416 
L 156.281789 -191.93684 
L 154.298964 -158.345654 
L 152.316139 -191.283272 
L 150.333314 -183.219791 
L 148.350489 -185.430828 
L 146.367664 -184.842458 
L 144.384839 -195.27315 
L 142.402014 -191.088042 
L 140.419189 -180.055605 
L 138.436364 -199.807607 
z
" style="stroke: #ffffff; stroke-opacity: 0.4"/>
    </defs>
    <g clip-path="url(#p24a8548e0b)">
     <use xlink:href="#m36d08fcdca" x="0" y="864" style="fill: #4c72b0; fill-opacity: 0.4; stroke: #ffffff; stroke-opacity: 0.4"/>
    </g>
   </g>
   <g id="line2d_31">
    <path d="M 138.436364 691.393339 
L 140.419189 708.137218 
L 142.402014 697.075186 
L 144.384839 692.89905 
L 146.367664 703.322676 
L 148.350489 702.740997 
L 150.333314 704.959489 
L 152.316139 696.947984 
L 154.298964 730.133246 
L 156.281789 696.267761 
L 158.264614 698.582595 
L 160.247439 694.80481 
L 162.230264 699.405619 
L 164.213089 700.291078 
L 166.195914 701.487382 
L 168.178739 697.271008 
L 170.161564 700.589231 
L 172.144389 703.374868 
L 174.127214 692.434782 
L 176.110038 702.168416 
L 178.092863 700.815019 
L 180.075688 704.097241 
L 182.058513 722.115028 
L 184.041338 693.732827 
L 186.024163 701.182306 
L 188.006988 702.635019 
L 189.989813 691.839205 
L 191.972638 700.250386 
L 193.955463 703.097693 
L 195.938288 695.675775 
L 197.921113 702.419434 
L 199.903938 703.772922 
L 201.886763 694.527421 
L 203.869588 701.817272 
L 205.852413 701.59328 
L 207.835238 698.263784 
L 209.818063 701.719066 
L 211.800888 718.948387 
L 213.783713 702.781641 
L 215.766538 700.355818 
L 217.749363 702.693369 
L 221.715013 699.495113 
L 223.697838 702.937453 
L 225.680663 703.982788 
L 227.663488 700.37911 
L 229.646313 703.591018 
L 231.629138 691.930539 
L 233.611963 704.334052 
L 235.594788 706.954352 
L 237.577613 703.318082 
L 239.560438 701.947928 
L 241.543263 703.792263 
L 243.526088 699.323533 
L 245.508913 693.205782 
L 247.491738 699.604989 
L 249.474563 727.318051 
L 251.457388 701.67293 
L 253.440213 703.453497 
L 255.423038 700.286875 
L 257.405863 699.134229 
L 259.388688 699.360129 
L 261.371513 700.847716 
L 263.354338 702.015018 
L 265.337163 702.058607 
L 267.319988 696.322924 
L 269.302813 704.861004 
L 271.285638 694.363704 
L 273.268463 700.965296 
L 275.251288 700.477643 
L 277.234113 719.303853 
L 279.216938 706.622438 
L 281.199763 696.822193 
L 283.182588 700.700924 
L 285.165413 698.775966 
L 287.148238 697.701408 
L 289.131063 704.147674 
L 291.113888 697.774867 
L 293.096713 698.563974 
L 295.079538 697.505929 
L 297.062363 701.832593 
L 299.045188 699.437047 
L 301.028013 696.741752 
L 303.010838 698.634911 
L 304.993663 699.315792 
L 306.976488 712.25949 
L 308.959313 699.596005 
L 310.942138 697.845848 
L 312.924963 697.631022 
L 314.907788 705.558564 
L 316.890613 703.40363 
L 318.873438 706.555456 
L 320.856263 687.173661 
L 322.839088 703.81851 
L 324.821913 700.678711 
L 326.804738 702.925963 
L 328.787563 698.352574 
L 330.770388 688.681395 
L 332.753213 702.442635 
L 334.736038 705.009439 
L 336.718863 702.276144 
L 338.701688 701.939469 
L 340.684513 702.295643 
L 342.667338 699.409321 
L 344.650163 727.533853 
L 346.632988 702.040062 
L 348.615813 703.541611 
L 350.598638 698.825193 
L 352.581463 702.255774 
L 354.564288 703.904373 
L 356.547113 703.692117 
L 358.529938 705.46188 
L 360.512763 702.894544 
L 366.461238 705.874783 
L 368.444063 704.426748 
L 370.426888 705.104542 
L 372.409713 587.378594 
L 374.392538 693.677597 
L 376.375363 699.682493 
L 378.358188 696.211408 
L 380.341013 697.486037 
L 382.323838 697.145475 
L 384.306663 693.707085 
L 386.289488 686.661182 
L 388.272313 697.424925 
L 390.255138 695.640249 
L 392.237963 690.605791 
L 394.220788 704.126092 
L 396.203613 702.487834 
L 398.186438 693.976877 
L 400.169263 691.290976 
L 402.152088 713.538886 
L 406.117738 694.048386 
L 408.100563 699.78853 
L 410.083388 698.786289 
L 412.066213 703.519663 
L 414.049038 694.774116 
L 416.031863 696.475056 
L 418.014688 703.176783 
L 419.997513 693.684423 
L 421.980338 708.444369 
L 423.963163 698.351739 
L 425.945988 700.332368 
L 427.928813 699.959998 
L 429.911638 696.860981 
L 431.894463 696.35948 
L 433.877288 698.594181 
L 435.860113 696.306962 
L 437.842938 696.96506 
L 439.825763 730.864479 
L 441.808588 702.79404 
L 443.791412 695.721097 
L 445.774237 698.323725 
L 447.757062 697.574052 
L 449.739887 697.841708 
L 451.722712 695.991286 
L 453.705537 692.265108 
L 455.688362 698.583283 
L 457.671187 697.312502 
L 459.654012 697.359012 
L 461.636837 694.340886 
L 463.619662 697.870178 
L 465.602487 694.623021 
L 467.585312 716.732872 
L 469.568137 694.679516 
L 471.550962 696.828372 
L 473.533787 695.765 
L 475.516612 699.458114 
L 477.499437 696.91931 
L 479.482262 696.442973 
L 481.465087 701.935905 
L 483.447912 695.877978 
L 485.430737 695.647877 
L 487.413562 699.36161 
L 489.396387 694.231249 
L 491.379212 694.38718 
L 493.362037 699.758076 
L 495.344862 695.148124 
L 497.327687 712.174869 
L 499.310512 695.792374 
L 501.293337 697.211084 
L 503.276162 694.356924 
L 505.258987 698.314225 
L 507.241812 695.165167 
L 509.224637 694.958376 
L 511.207462 699.701647 
L 513.190287 695.359243 
L 515.173112 695.125994 
L 517.155937 695.847999 
L 519.138762 695.39898 
L 521.121587 698.546386 
L 523.104412 697.024204 
L 525.087237 699.500632 
L 527.070062 692.835529 
L 529.052887 694.254435 
L 531.035712 698.735509 
L 533.018537 698.512279 
L 535.001362 724.303028 
L 536.984187 694.013418 
L 538.967012 697.450017 
L 540.949837 701.633726 
L 542.932662 702.161842 
L 544.915487 701.629883 
L 546.898312 698.787574 
L 548.881137 697.792953 
L 550.863962 694.758951 
L 552.846787 697.80821 
L 554.829612 696.928373 
L 556.812437 698.511912 
L 558.795262 693.744224 
L 560.778087 694.641662 
L 562.760912 724.043055 
L 564.743737 706.432158 
L 566.726562 704.581023 
L 568.709387 703.833201 
L 570.692212 707.11764 
L 572.675037 703.491912 
L 574.657862 703.93858 
L 576.640687 708.378017 
L 578.623512 704.241091 
L 580.606337 704.394067 
L 582.589162 707.894826 
L 584.571987 703.928721 
L 586.554812 702.334658 
L 588.537637 708.188772 
L 590.520462 705.518817 
L 592.503287 613.501948 
L 594.486112 698.929641 
L 596.468937 703.894111 
L 598.451762 701.304625 
L 600.434587 696.654277 
L 602.417412 699.290279 
L 604.400237 695.927467 
L 606.383062 708.172103 
L 608.365887 698.976551 
L 610.348712 705.012279 
L 612.331537 694.110616 
L 614.314362 705.293287 
L 616.297187 691.341844 
L 620.262837 700.98481 
L 622.245662 694.826702 
L 624.228487 699.826244 
L 626.211312 705.507774 
L 628.194137 704.775891 
L 630.176962 511.691724 
L 632.159787 701.984558 
L 634.142612 700.768538 
L 636.125437 700.13141 
L 638.108262 700.878023 
L 640.091087 697.999832 
L 642.073912 700.190986 
L 644.056737 700.306861 
L 646.039562 701.955877 
L 648.022387 700.003161 
L 650.005212 698.931897 
L 651.988037 701.204104 
L 655.953687 699.328386 
L 657.936512 715.69985 
L 659.919337 701.515404 
L 661.902162 698.585557 
L 663.884987 699.037283 
L 665.867812 701.291388 
L 667.850637 702.867373 
L 669.833462 696.822949 
L 671.816287 704.749169 
L 673.799112 699.422341 
L 675.781937 700.884156 
L 677.764762 701.295925 
L 679.747587 694.623414 
L 681.730412 701.651833 
L 683.713237 696.690025 
L 685.696062 704.796284 
L 687.678887 716.886691 
L 689.661712 697.362691 
L 691.644537 702.423214 
L 693.627362 701.304225 
L 695.610187 696.728948 
L 697.593012 697.672712 
L 699.575837 701.445416 
L 701.558662 699.958988 
L 703.541487 696.673271 
L 707.507137 702.113753 
L 709.489962 696.473872 
L 711.472786 701.247803 
L 713.455611 700.810853 
L 715.438436 699.742325 
L 717.421261 702.566321 
L 719.404086 700.204718 
L 721.386911 695.932231 
L 723.369736 702.097907 
L 725.352561 728.66107 
L 727.335386 699.055477 
L 729.318211 697.933056 
L 731.301036 701.661607 
L 733.283861 696.860719 
L 735.266686 696.553414 
L 737.249511 696.747953 
L 739.232336 701.460378 
L 741.215161 697.411011 
L 743.197986 698.939203 
L 745.180811 701.843245 
L 747.163636 699.929356 
L 747.163636 699.929356 
" clip-path="url(#p24a8548e0b)" style="fill: none; stroke: #4c72b0; stroke-width: 1.5; stroke-linecap: round"/>
   </g>
   <g id="patch_8">
    <path d="M 108 768.96 
L 108 466.56 
" style="fill: none; stroke: #262626; stroke-width: 1.25; stroke-linejoin: miter; stroke-linecap: square"/>
   </g>
   <g id="patch_9">
    <path d="M 777.6 768.96 
L 777.6 466.56 
" style="fill: none; stroke: #262626; stroke-width: 1.25; stroke-linejoin: miter; stroke-linecap: square"/>
   </g>
   <g id="patch_10">
    <path d="M 108 768.96 
L 777.6 768.96 
" style="fill: none; stroke: #262626; stroke-width: 1.25; stroke-linejoin: miter; stroke-linecap: square"/>
   </g>
   <g id="patch_11">
    <path d="M 108 466.56 
L 777.6 466.56 
" style="fill: none; stroke: #262626; stroke-width: 1.25; stroke-linejoin: miter; stroke-linecap: square"/>
   </g>
   <g id="text_31">
    <!-- sts_residuals/ -->
    <g style="fill: #262626" transform="translate(406.119375 460.56) scale(0.12 -0.12)">
     <defs>
      <path id="ArialMT-69" d="M 425 3934 
L 425 4581 
L 988 4581 
L 988 3934 
L 425 3934 
z
M 425 0 
L 425 3319 
L 988 3319 
L 988 0 
L 425 0 
z
" transform="scale(0.015625)"/>
      <path id="ArialMT-64" d="M 2575 0 
L 2575 419 
Q 2259 -75 1647 -75 
Q 1250 -75 917 144 
Q 584 363 401 755 
Q 219 1147 219 1656 
Q 219 2153 384 2558 
Q 550 2963 881 3178 
Q 1213 3394 1622 3394 
Q 1922 3394 2156 3267 
Q 2391 3141 2538 2938 
L 2538 4581 
L 3097 4581 
L 3097 0 
L 2575 0 
z
M 797 1656 
Q 797 1019 1065 703 
Q 1334 388 1700 388 
Q 2069 388 2326 689 
Q 2584 991 2584 1609 
Q 2584 2291 2321 2609 
Q 2059 2928 1675 2928 
Q 1300 2928 1048 2622 
Q 797 2316 797 1656 
z
" transform="scale(0.015625)"/>
      <path id="ArialMT-75" d="M 2597 0 
L 2597 488 
Q 2209 -75 1544 -75 
Q 1250 -75 995 37 
Q 741 150 617 320 
Q 494 491 444 738 
Q 409 903 409 1263 
L 409 3319 
L 972 3319 
L 972 1478 
Q 972 1038 1006 884 
Q 1059 663 1231 536 
Q 1403 409 1656 409 
Q 1909 409 2131 539 
Q 2353 669 2445 892 
Q 2538 1116 2538 1541 
L 2538 3319 
L 3100 3319 
L 3100 0 
L 2597 0 
z
" transform="scale(0.015625)"/>
      <path id="ArialMT-6c" d="M 409 0 
L 409 4581 
L 972 4581 
L 972 0 
L 409 0 
z
" transform="scale(0.015625)"/>
     </defs>
     <use xlink:href="#ArialMT-73"/>
     <use xlink:href="#ArialMT-74" x="50"/>
     <use xlink:href="#ArialMT-73" x="77.783203"/>
     <use xlink:href="#ArialMT-5f" x="127.783203"/>
     <use xlink:href="#ArialMT-72" x="183.398438"/>
     <use xlink:href="#ArialMT-65" x="216.699219"/>
     <use xlink:href="#ArialMT-73" x="272.314453"/>
     <use xlink:href="#ArialMT-69" x="322.314453"/>
     <use xlink:href="#ArialMT-64" x="344.53125"/>
     <use xlink:href="#ArialMT-75" x="400.146484"/>
     <use xlink:href="#ArialMT-61" x="455.761719"/>
     <use xlink:href="#ArialMT-6c" x="511.376953"/>
     <use xlink:href="#ArialMT-73" x="533.59375"/>
     <use xlink:href="#ArialMT-2f" x="583.59375"/>
    </g>
   </g>
  </g>
 </g>
 <defs>
  <clipPath id="p6c9d6218d8">
   <rect x="108" y="103.68" width="669.6" height="302.4"/>
  </clipPath>
  <clipPath id="p24a8548e0b">
   <rect x="108" y="466.56" width="669.6" height="302.4"/>
  </clipPath>
 </defs>
</svg>
