<?xml version="1.0" encoding="utf-8" standalone="no"?>
<!DOCTYPE svg PUBLIC "-//W3C//DTD SVG 1.1//EN"
  "http://www.w3.org/Graphics/SVG/1.1/DTD/svg11.dtd">
<svg xmlns:xlink="http://www.w3.org/1999/xlink" width="864pt" height="864pt" viewBox="0 0 864 864" xmlns="http://www.w3.org/2000/svg" version="1.1">
 <metadata>
  <rdf:RDF xmlns:dc="http://purl.org/dc/elements/1.1/" xmlns:cc="http://creativecommons.org/ns#" xmlns:rdf="http://www.w3.org/1999/02/22-rdf-syntax-ns#">
   <cc:Work>
    <dc:type rdf:resource="http://purl.org/dc/dcmitype/StillImage"/>
    <dc:date>2023-08-01T02:46:49.442850</dc:date>
    <dc:format>image/svg+xml</dc:format>
    <dc:creator>
     <cc:Agent>
      <dc:title>Matplotlib v3.7.1, https://matplotlib.org/</dc:title>
     </cc:Agent>
    </dc:creator>
   </cc:Work>
  </rdf:RDF>
 </metadata>
 <defs>
  <style type="text/css">*{stroke-linejoin: round; stroke-linecap: butt}</style>
 </defs>
 <g id="figure_1">
  <g id="patch_1">
   <path d="M 0 864 
L 864 864 
L 864 0 
L 0 0 
z
" style="fill: #ffffff"/>
  </g>
  <g id="axes_1">
   <g id="patch_2">
    <path d="M 108 299.350588 
L 777.6 299.350588 
L 777.6 103.68 
L 108 103.68 
z
" style="fill: #ffffff"/>
   </g>
   <g id="matplotlib.axis_1">
    <g id="xtick_1">
     <g id="line2d_1">
      <defs>
       <path id="mf3b8710753" d="M 0 0 
L 0 6 
" style="stroke: #262626; stroke-width: 1.25"/>
      </defs>
      <g>
       <use xlink:href="#mf3b8710753" x="128.434455" y="299.350588" style="fill: #262626; stroke: #262626; stroke-width: 1.25"/>
      </g>
     </g>
     <g id="text_1">
      <!-- 2016 -->
      <g style="fill: #262626" transform="translate(116.200393 316.724182) scale(0.11 -0.11)">
       <defs>
        <path id="ArialMT-32" d="M 3222 541 
L 3222 0 
L 194 0 
Q 188 203 259 391 
Q 375 700 629 1000 
Q 884 1300 1366 1694 
Q 2113 2306 2375 2664 
Q 2638 3022 2638 3341 
Q 2638 3675 2398 3904 
Q 2159 4134 1775 4134 
Q 1369 4134 1125 3890 
Q 881 3647 878 3216 
L 300 3275 
Q 359 3922 746 4261 
Q 1134 4600 1788 4600 
Q 2447 4600 2831 4234 
Q 3216 3869 3216 3328 
Q 3216 3053 3103 2787 
Q 2991 2522 2730 2228 
Q 2469 1934 1863 1422 
Q 1356 997 1212 845 
Q 1069 694 975 541 
L 3222 541 
z
" transform="scale(0.015625)"/>
        <path id="ArialMT-30" d="M 266 2259 
Q 266 3072 433 3567 
Q 600 4063 929 4331 
Q 1259 4600 1759 4600 
Q 2128 4600 2406 4451 
Q 2684 4303 2865 4023 
Q 3047 3744 3150 3342 
Q 3253 2941 3253 2259 
Q 3253 1453 3087 958 
Q 2922 463 2592 192 
Q 2263 -78 1759 -78 
Q 1097 -78 719 397 
Q 266 969 266 2259 
z
M 844 2259 
Q 844 1131 1108 757 
Q 1372 384 1759 384 
Q 2147 384 2411 759 
Q 2675 1134 2675 2259 
Q 2675 3391 2411 3762 
Q 2147 4134 1753 4134 
Q 1366 4134 1134 3806 
Q 844 3388 844 2259 
z
" transform="scale(0.015625)"/>
        <path id="ArialMT-31" d="M 2384 0 
L 1822 0 
L 1822 3584 
Q 1619 3391 1289 3197 
Q 959 3003 697 2906 
L 697 3450 
Q 1169 3672 1522 3987 
Q 1875 4303 2022 4600 
L 2384 4600 
L 2384 0 
z
" transform="scale(0.015625)"/>
        <path id="ArialMT-36" d="M 3184 3459 
L 2625 3416 
Q 2550 3747 2413 3897 
Q 2184 4138 1850 4138 
Q 1581 4138 1378 3988 
Q 1113 3794 959 3422 
Q 806 3050 800 2363 
Q 1003 2672 1297 2822 
Q 1591 2972 1913 2972 
Q 2475 2972 2870 2558 
Q 3266 2144 3266 1488 
Q 3266 1056 3080 686 
Q 2894 316 2569 119 
Q 2244 -78 1831 -78 
Q 1128 -78 684 439 
Q 241 956 241 2144 
Q 241 3472 731 4075 
Q 1159 4600 1884 4600 
Q 2425 4600 2770 4297 
Q 3116 3994 3184 3459 
z
M 888 1484 
Q 888 1194 1011 928 
Q 1134 663 1356 523 
Q 1578 384 1822 384 
Q 2178 384 2434 671 
Q 2691 959 2691 1453 
Q 2691 1928 2437 2201 
Q 2184 2475 1800 2475 
Q 1419 2475 1153 2201 
Q 888 1928 888 1484 
z
" transform="scale(0.015625)"/>
       </defs>
       <use xlink:href="#ArialMT-32"/>
       <use xlink:href="#ArialMT-30" x="55.615234"/>
       <use xlink:href="#ArialMT-31" x="111.230469"/>
       <use xlink:href="#ArialMT-36" x="166.845703"/>
      </g>
     </g>
    </g>
    <g id="xtick_2">
     <g id="line2d_2">
      <g>
       <use xlink:href="#mf3b8710753" x="230.120526" y="299.350588" style="fill: #262626; stroke: #262626; stroke-width: 1.25"/>
      </g>
     </g>
     <g id="text_2">
      <!-- 2017 -->
      <g style="fill: #262626" transform="translate(217.886464 316.724182) scale(0.11 -0.11)">
       <defs>
        <path id="ArialMT-37" d="M 303 3981 
L 303 4522 
L 3269 4522 
L 3269 4084 
Q 2831 3619 2401 2847 
Q 1972 2075 1738 1259 
Q 1569 684 1522 0 
L 944 0 
Q 953 541 1156 1306 
Q 1359 2072 1739 2783 
Q 2119 3494 2547 3981 
L 303 3981 
z
" transform="scale(0.015625)"/>
       </defs>
       <use xlink:href="#ArialMT-32"/>
       <use xlink:href="#ArialMT-30" x="55.615234"/>
       <use xlink:href="#ArialMT-31" x="111.230469"/>
       <use xlink:href="#ArialMT-37" x="166.845703"/>
      </g>
     </g>
    </g>
    <g id="xtick_3">
     <g id="line2d_3">
      <g>
       <use xlink:href="#mf3b8710753" x="331.528766" y="299.350588" style="fill: #262626; stroke: #262626; stroke-width: 1.25"/>
      </g>
     </g>
     <g id="text_3">
      <!-- 2018 -->
      <g style="fill: #262626" transform="translate(319.294704 316.724182) scale(0.11 -0.11)">
       <defs>
        <path id="ArialMT-38" d="M 1131 2484 
Q 781 2613 612 2850 
Q 444 3088 444 3419 
Q 444 3919 803 4259 
Q 1163 4600 1759 4600 
Q 2359 4600 2725 4251 
Q 3091 3903 3091 3403 
Q 3091 3084 2923 2848 
Q 2756 2613 2416 2484 
Q 2838 2347 3058 2040 
Q 3278 1734 3278 1309 
Q 3278 722 2862 322 
Q 2447 -78 1769 -78 
Q 1091 -78 675 323 
Q 259 725 259 1325 
Q 259 1772 486 2073 
Q 713 2375 1131 2484 
z
M 1019 3438 
Q 1019 3113 1228 2906 
Q 1438 2700 1772 2700 
Q 2097 2700 2305 2904 
Q 2513 3109 2513 3406 
Q 2513 3716 2298 3927 
Q 2084 4138 1766 4138 
Q 1444 4138 1231 3931 
Q 1019 3725 1019 3438 
z
M 838 1322 
Q 838 1081 952 856 
Q 1066 631 1291 507 
Q 1516 384 1775 384 
Q 2178 384 2440 643 
Q 2703 903 2703 1303 
Q 2703 1709 2433 1975 
Q 2163 2241 1756 2241 
Q 1359 2241 1098 1978 
Q 838 1716 838 1322 
z
" transform="scale(0.015625)"/>
       </defs>
       <use xlink:href="#ArialMT-32"/>
       <use xlink:href="#ArialMT-30" x="55.615234"/>
       <use xlink:href="#ArialMT-31" x="111.230469"/>
       <use xlink:href="#ArialMT-38" x="166.845703"/>
      </g>
     </g>
    </g>
    <g id="xtick_4">
     <g id="line2d_4">
      <g>
       <use xlink:href="#mf3b8710753" x="432.937007" y="299.350588" style="fill: #262626; stroke: #262626; stroke-width: 1.25"/>
      </g>
     </g>
     <g id="text_4">
      <!-- 2019 -->
      <g style="fill: #262626" transform="translate(420.702944 316.724182) scale(0.11 -0.11)">
       <defs>
        <path id="ArialMT-39" d="M 350 1059 
L 891 1109 
Q 959 728 1153 556 
Q 1347 384 1650 384 
Q 1909 384 2104 503 
Q 2300 622 2425 820 
Q 2550 1019 2634 1356 
Q 2719 1694 2719 2044 
Q 2719 2081 2716 2156 
Q 2547 1888 2255 1720 
Q 1963 1553 1622 1553 
Q 1053 1553 659 1965 
Q 266 2378 266 3053 
Q 266 3750 677 4175 
Q 1088 4600 1706 4600 
Q 2153 4600 2523 4359 
Q 2894 4119 3086 3673 
Q 3278 3228 3278 2384 
Q 3278 1506 3087 986 
Q 2897 466 2520 194 
Q 2144 -78 1638 -78 
Q 1100 -78 759 220 
Q 419 519 350 1059 
z
M 2653 3081 
Q 2653 3566 2395 3850 
Q 2138 4134 1775 4134 
Q 1400 4134 1122 3828 
Q 844 3522 844 3034 
Q 844 2597 1108 2323 
Q 1372 2050 1759 2050 
Q 2150 2050 2401 2323 
Q 2653 2597 2653 3081 
z
" transform="scale(0.015625)"/>
       </defs>
       <use xlink:href="#ArialMT-32"/>
       <use xlink:href="#ArialMT-30" x="55.615234"/>
       <use xlink:href="#ArialMT-31" x="111.230469"/>
       <use xlink:href="#ArialMT-39" x="166.845703"/>
      </g>
     </g>
    </g>
    <g id="xtick_5">
     <g id="line2d_5">
      <g>
       <use xlink:href="#mf3b8710753" x="534.345247" y="299.350588" style="fill: #262626; stroke: #262626; stroke-width: 1.25"/>
      </g>
     </g>
     <g id="text_5">
      <!-- 2020 -->
      <g style="fill: #262626" transform="translate(522.111185 316.724182) scale(0.11 -0.11)">
       <use xlink:href="#ArialMT-32"/>
       <use xlink:href="#ArialMT-30" x="55.615234"/>
       <use xlink:href="#ArialMT-32" x="111.230469"/>
       <use xlink:href="#ArialMT-30" x="166.845703"/>
      </g>
     </g>
    </g>
    <g id="xtick_6">
     <g id="line2d_6">
      <g>
       <use xlink:href="#mf3b8710753" x="636.031318" y="299.350588" style="fill: #262626; stroke: #262626; stroke-width: 1.25"/>
      </g>
     </g>
     <g id="text_6">
      <!-- 2021 -->
      <g style="fill: #262626" transform="translate(623.797256 316.724182) scale(0.11 -0.11)">
       <use xlink:href="#ArialMT-32"/>
       <use xlink:href="#ArialMT-30" x="55.615234"/>
       <use xlink:href="#ArialMT-32" x="111.230469"/>
       <use xlink:href="#ArialMT-31" x="166.845703"/>
      </g>
     </g>
    </g>
    <g id="xtick_7">
     <g id="line2d_7">
      <g>
       <use xlink:href="#mf3b8710753" x="737.439559" y="299.350588" style="fill: #262626; stroke: #262626; stroke-width: 1.25"/>
      </g>
     </g>
     <g id="text_7">
      <!-- 2022 -->
      <g style="fill: #262626" transform="translate(725.205496 316.724182) scale(0.11 -0.11)">
       <use xlink:href="#ArialMT-32"/>
       <use xlink:href="#ArialMT-30" x="55.615234"/>
       <use xlink:href="#ArialMT-32" x="111.230469"/>
       <use xlink:href="#ArialMT-32" x="166.845703"/>
      </g>
     </g>
    </g>
   </g>
   <g id="matplotlib.axis_2">
    <g id="ytick_1">
     <g id="line2d_8">
      <defs>
       <path id="me2118546d9" d="M 0 0 
L -6 0 
" style="stroke: #262626; stroke-width: 1.25"/>
      </defs>
      <g>
       <use xlink:href="#me2118546d9" x="108" y="274.932043" style="fill: #262626; stroke: #262626; stroke-width: 1.25"/>
      </g>
     </g>
     <g id="text_8">
      <!-- −6 -->
      <g style="fill: #262626" transform="translate(85.958281 278.86884) scale(0.11 -0.11)">
       <defs>
        <path id="ArialMT-2212" d="M 3381 1997 
L 356 1997 
L 356 2522 
L 3381 2522 
L 3381 1997 
z
" transform="scale(0.015625)"/>
       </defs>
       <use xlink:href="#ArialMT-2212"/>
       <use xlink:href="#ArialMT-36" x="58.398438"/>
      </g>
     </g>
    </g>
    <g id="ytick_2">
     <g id="line2d_9">
      <g>
       <use xlink:href="#me2118546d9" x="108" y="250.414644" style="fill: #262626; stroke: #262626; stroke-width: 1.25"/>
      </g>
     </g>
     <g id="text_9">
      <!-- −4 -->
      <g style="fill: #262626" transform="translate(85.958281 254.35144) scale(0.11 -0.11)">
       <defs>
        <path id="ArialMT-34" d="M 2069 0 
L 2069 1097 
L 81 1097 
L 81 1613 
L 2172 4581 
L 2631 4581 
L 2631 1613 
L 3250 1613 
L 3250 1097 
L 2631 1097 
L 2631 0 
L 2069 0 
z
M 2069 1613 
L 2069 3678 
L 634 1613 
L 2069 1613 
z
" transform="scale(0.015625)"/>
       </defs>
       <use xlink:href="#ArialMT-2212"/>
       <use xlink:href="#ArialMT-34" x="58.398438"/>
      </g>
     </g>
    </g>
    <g id="ytick_3">
     <g id="line2d_10">
      <g>
       <use xlink:href="#me2118546d9" x="108" y="225.897244" style="fill: #262626; stroke: #262626; stroke-width: 1.25"/>
      </g>
     </g>
     <g id="text_10">
      <!-- −2 -->
      <g style="fill: #262626" transform="translate(85.958281 229.834041) scale(0.11 -0.11)">
       <use xlink:href="#ArialMT-2212"/>
       <use xlink:href="#ArialMT-32" x="58.398438"/>
      </g>
     </g>
    </g>
    <g id="ytick_4">
     <g id="line2d_11">
      <g>
       <use xlink:href="#me2118546d9" x="108" y="201.379844" style="fill: #262626; stroke: #262626; stroke-width: 1.25"/>
      </g>
     </g>
     <g id="text_11">
      <!-- 0 -->
      <g style="fill: #262626" transform="translate(92.382969 205.316641) scale(0.11 -0.11)">
       <use xlink:href="#ArialMT-30"/>
      </g>
     </g>
    </g>
    <g id="ytick_5">
     <g id="line2d_12">
      <g>
       <use xlink:href="#me2118546d9" x="108" y="176.862445" style="fill: #262626; stroke: #262626; stroke-width: 1.25"/>
      </g>
     </g>
     <g id="text_12">
      <!-- 2 -->
      <g style="fill: #262626" transform="translate(92.382969 180.799242) scale(0.11 -0.11)">
       <use xlink:href="#ArialMT-32"/>
      </g>
     </g>
    </g>
    <g id="ytick_6">
     <g id="line2d_13">
      <g>
       <use xlink:href="#me2118546d9" x="108" y="152.345045" style="fill: #262626; stroke: #262626; stroke-width: 1.25"/>
      </g>
     </g>
     <g id="text_13">
      <!-- 4 -->
      <g style="fill: #262626" transform="translate(92.382969 156.281842) scale(0.11 -0.11)">
       <use xlink:href="#ArialMT-34"/>
      </g>
     </g>
    </g>
    <g id="ytick_7">
     <g id="line2d_14">
      <g>
       <use xlink:href="#me2118546d9" x="108" y="127.827646" style="fill: #262626; stroke: #262626; stroke-width: 1.25"/>
      </g>
     </g>
     <g id="text_14">
      <!-- 6 -->
      <g style="fill: #262626" transform="translate(92.382969 131.764443) scale(0.11 -0.11)">
       <use xlink:href="#ArialMT-36"/>
      </g>
     </g>
    </g>
   </g>
   <g id="PolyCollection_1">
    <defs>
     <path id="mba53b4089a" d="M 138.436364 -698.839109 
L 138.436364 -626.178001 
L 140.381179 -626.178001 
L 142.325995 -626.178001 
L 144.27081 -626.178001 
L 146.215626 -626.434649 
L 148.160441 -626.434649 
L 150.105257 -626.434649 
L 152.050073 -626.434649 
L 153.994888 -625.835957 
L 155.939704 -625.835957 
L 157.884519 -625.835957 
L 159.829335 -625.835957 
L 161.77415 -625.39133 
L 163.718966 -625.39133 
L 165.663782 -625.39133 
L 167.608597 -625.39133 
L 169.553413 -624.891372 
L 171.498228 -624.891372 
L 173.443044 -624.891372 
L 175.387859 -624.891372 
L 177.332675 -624.5664 
L 179.277491 -624.5664 
L 181.222306 -624.5664 
L 183.167122 -624.5664 
L 185.111937 -624.594332 
L 187.056753 -624.594332 
L 189.001568 -624.594332 
L 190.946384 -624.594332 
L 192.8912 -624.532584 
L 194.836015 -624.532584 
L 196.780831 -624.532584 
L 198.725646 -624.532584 
L 200.670462 -624.093147 
L 202.615277 -624.093147 
L 204.560093 -624.093147 
L 206.504909 -624.093147 
L 208.449724 -624.008871 
L 210.39454 -624.008871 
L 212.339355 -624.008871 
L 214.284171 -624.008871 
L 216.228986 -623.611188 
L 218.173802 -623.611188 
L 220.118617 -623.611188 
L 222.063433 -623.611188 
L 224.008249 -622.982851 
L 225.953064 -622.982851 
L 227.89788 -622.982851 
L 229.842695 -622.982851 
L 231.787511 -610.806756 
L 233.732326 -610.806756 
L 235.677142 -610.806756 
L 237.621958 -610.806761 
L 239.566773 -613.281658 
L 241.511589 -613.281658 
L 243.456404 -613.281658 
L 245.40122 -613.281658 
L 247.346035 -612.178344 
L 249.290851 -612.178344 
L 251.235667 -612.178344 
L 253.180482 -612.178344 
L 255.125298 -611.003301 
L 257.070113 -611.003301 
L 259.014929 -611.003301 
L 260.959744 -611.003301 
L 262.90456 -609.651938 
L 264.849376 -609.651932 
L 266.794191 -609.651932 
L 268.739007 -609.651932 
L 270.683822 -609.410669 
L 272.628638 -609.410669 
L 274.573453 -609.410669 
L 276.518269 -609.410669 
L 278.463085 -610.622251 
L 280.4079 -610.622257 
L 282.352716 -610.622257 
L 284.297531 -610.622257 
L 286.242347 -610.787039 
L 288.187162 -610.787039 
L 290.131978 -610.787039 
L 292.076793 -610.787039 
L 294.021609 -610.366597 
L 295.966425 -610.366602 
L 297.91124 -610.366597 
L 299.856056 -610.366597 
L 301.800871 -611.018365 
L 303.745687 -611.018365 
L 305.690502 -611.018371 
L 307.635318 -611.018371 
L 309.580134 -610.65505 
L 311.524949 -610.65505 
L 313.469765 -610.65505 
L 315.41458 -610.65505 
L 317.359396 -610.847422 
L 319.304211 -610.847422 
L 321.249027 -610.847422 
L 323.193843 -610.847422 
L 325.138658 -605.031415 
L 327.083474 -605.031415 
L 329.028289 -605.031421 
L 330.973105 -605.031415 
L 332.91792 -607.020284 
L 334.862736 -607.02029 
L 336.807552 -607.020284 
L 338.752367 -607.020296 
L 340.697183 -604.494275 
L 342.641998 -604.494275 
L 344.586814 -604.494275 
L 346.531629 -604.494275 
L 348.476445 -601.52951 
L 350.421261 -601.52951 
L 352.366076 -601.52951 
L 354.310892 -601.52951 
L 356.255707 -598.263531 
L 358.200523 -598.263531 
L 360.145338 -598.263525 
L 362.090154 -598.263525 
L 364.03497 -598.167912 
L 365.979785 -598.167912 
L 367.924601 -598.167912 
L 369.869416 -598.167912 
L 371.814232 -602.200124 
L 373.759047 -602.200124 
L 375.703863 -602.200124 
L 377.648678 -602.200118 
L 379.593494 -601.324897 
L 381.53831 -601.324897 
L 383.483125 -601.324897 
L 385.427941 -601.324897 
L 387.372756 -601.553347 
L 389.317572 -601.553347 
L 391.262387 -601.553347 
L 393.207203 -601.553347 
L 395.152019 -603.16475 
L 397.096834 -603.16475 
L 399.04165 -603.164755 
L 400.986465 -603.16475 
L 402.931281 -603.413588 
L 404.876096 -603.413588 
L 406.820912 -603.413588 
L 408.765728 -603.413588 
L 410.710543 -604.191664 
L 412.655359 -604.191664 
L 414.600174 -604.19167 
L 416.54499 -604.191664 
L 418.489805 -601.051934 
L 420.434621 -601.051934 
L 422.379437 -601.051934 
L 424.324252 -601.051934 
L 426.269068 -602.165636 
L 428.213883 -602.165642 
L 430.158699 -602.165642 
L 432.103514 -602.165642 
L 434.04833 -598.14287 
L 435.993146 -598.142876 
L 437.937961 -598.142876 
L 439.882777 -598.142876 
L 441.827592 -595.917174 
L 443.772408 -595.917174 
L 445.717223 -595.91718 
L 447.662039 -595.917174 
L 449.606854 -593.343267 
L 451.55167 -593.343267 
L 453.496486 -593.343267 
L 455.441301 -593.343267 
L 457.386117 -593.824999 
L 459.330932 -593.824999 
L 461.275748 -593.824999 
L 463.220563 -593.824993 
L 465.165379 -597.414597 
L 467.110195 -597.414597 
L 469.05501 -597.414597 
L 470.999826 -597.414597 
L 472.944641 -594.98378 
L 474.889457 -594.98378 
L 476.834272 -594.98378 
L 478.779088 -594.98378 
L 480.723904 -595.069655 
L 482.668719 -595.069655 
L 484.613535 -595.069655 
L 486.55835 -595.069655 
L 488.503166 -595.682715 
L 490.447981 -595.682715 
L 492.392797 -595.682715 
L 494.337613 -595.682715 
L 496.282428 -597.049657 
L 498.227244 -597.049662 
L 500.172059 -597.049662 
L 502.116875 -597.049662 
L 504.06169 -598.499282 
L 506.006506 -598.499282 
L 507.951322 -598.499282 
L 509.896137 -598.499282 
L 511.840953 -596.132302 
L 513.785768 -596.132308 
L 515.730584 -596.132308 
L 517.675399 -596.132308 
L 519.620215 -596.540382 
L 521.56503 -596.540376 
L 523.509846 -596.540376 
L 525.454662 -596.540376 
L 527.399477 -594.170579 
L 529.344293 -594.170579 
L 531.289108 -594.170579 
L 533.233924 -594.170585 
L 535.178739 -591.68654 
L 537.123555 -591.68654 
L 539.068371 -591.68654 
L 541.013186 -591.68654 
L 542.958002 -589.449352 
L 544.902817 -589.449358 
L 546.847633 -589.449352 
L 548.792448 -589.449358 
L 550.737264 -590.777883 
L 552.68208 -590.777883 
L 554.626895 -590.777883 
L 556.571711 -590.777883 
L 558.516526 -590.779772 
L 560.461342 -590.779772 
L 562.406157 -590.779772 
L 564.350973 -590.779772 
L 566.295789 -585.589772 
L 568.240604 -585.589772 
L 570.18542 -585.589772 
L 572.130235 -585.589772 
L 574.075051 -585.427854 
L 576.019866 -585.427854 
L 577.964682 -585.427854 
L 579.909498 -585.427854 
L 581.854313 -585.770763 
L 583.799129 -585.770763 
L 585.743944 -585.770763 
L 587.68876 -585.770763 
L 589.633575 -589.13543 
L 591.578391 -589.13543 
L 593.523207 -589.13543 
L 595.468022 -589.135436 
L 597.412838 -592.30534 
L 599.357653 -592.30534 
L 601.302469 -592.30534 
L 603.247284 -592.30534 
L 605.1921 -588.745659 
L 607.136915 -588.745659 
L 609.081731 -588.745653 
L 611.026547 -588.745653 
L 612.971362 -589.355071 
L 614.916178 -589.355065 
L 616.860993 -589.355071 
L 618.805809 -589.355071 
L 620.750624 -587.142832 
L 622.69544 -587.142832 
L 624.640256 -587.142826 
L 626.585071 -587.142826 
L 628.529887 -585.656614 
L 630.474702 -585.656614 
L 632.419518 -585.656614 
L 634.364333 -585.656614 
L 636.309149 -585.144095 
L 638.253965 -585.144095 
L 640.19878 -585.144095 
L 642.143596 -585.144095 
L 644.088411 -583.85799 
L 646.033227 -583.85799 
L 647.978042 -583.85799 
L 649.922858 -583.85799 
L 651.867674 -584.949186 
L 653.812489 -584.949186 
L 655.757305 -584.949186 
L 657.70212 -584.949186 
L 659.646936 -579.631418 
L 661.591751 -579.631418 
L 663.536567 -579.631418 
L 665.481383 -579.631418 
L 667.426198 -579.294495 
L 669.371014 -579.294495 
L 671.315829 -579.294495 
L 673.260645 -579.294495 
L 675.20546 -579.498476 
L 677.150276 -579.498476 
L 679.095091 -579.498476 
L 681.039907 -579.498476 
L 682.984723 -581.759028 
L 684.929538 -581.759028 
L 686.874354 -581.759028 
L 688.819169 -581.759028 
L 690.763985 -583.540058 
L 692.7088 -583.540058 
L 694.653616 -583.540058 
L 696.598432 -583.540052 
L 698.543247 -581.355122 
L 700.488063 -581.355122 
L 702.432878 -581.355122 
L 704.377694 -581.355122 
L 706.322509 -581.75102 
L 708.267325 -581.75102 
L 710.212141 -581.75102 
L 712.156956 -581.75102 
L 714.101772 -580.085746 
L 716.046587 -580.08574 
L 717.991403 -580.085746 
L 719.936218 -580.08574 
L 721.881034 -579.217078 
L 723.82585 -579.217078 
L 725.770665 -579.217084 
L 727.715481 -579.217084 
L 729.660296 -578.46533 
L 731.605112 -578.46533 
L 733.549927 -578.46533 
L 735.494743 -578.465324 
L 737.439559 -577.202518 
L 739.384374 -577.202524 
L 741.32919 -577.202524 
L 743.274005 -577.202518 
L 745.218821 -573.543529 
L 747.163636 -573.543535 
L 747.163636 -751.425877 
L 747.163636 -751.425877 
L 745.218821 -751.425882 
L 743.274005 -747.492066 
L 741.32919 -747.49206 
L 739.384374 -747.49206 
L 737.439559 -747.492066 
L 735.494743 -746.27593 
L 733.549927 -746.275924 
L 731.605112 -746.275924 
L 729.660296 -746.275924 
L 727.715481 -746.314515 
L 725.770665 -746.314515 
L 723.82585 -746.314521 
L 721.881034 -746.314521 
L 719.936218 -745.687333 
L 717.991403 -745.687327 
L 716.046587 -745.687333 
L 714.101772 -745.687327 
L 712.156956 -744.638591 
L 710.212141 -744.638591 
L 708.267325 -744.638591 
L 706.322509 -744.638591 
L 704.377694 -743.923921 
L 702.432878 -743.923921 
L 700.488063 -743.923921 
L 698.543247 -743.923921 
L 696.598432 -741.259223 
L 694.653616 -741.259217 
L 692.7088 -741.259217 
L 690.763985 -741.259217 
L 688.819169 -742.698256 
L 686.874354 -742.698256 
L 684.929538 -742.698256 
L 682.984723 -742.698256 
L 681.039907 -745.587984 
L 679.095091 -745.587984 
L 677.150276 -745.587984 
L 675.20546 -745.587984 
L 673.260645 -746.238741 
L 671.315829 -746.238741 
L 669.371014 -746.238741 
L 667.426198 -746.238741 
L 665.481383 -745.986787 
L 663.536567 -745.986787 
L 661.591751 -745.986787 
L 659.646936 -745.986787 
L 657.70212 -740.025907 
L 655.757305 -740.025907 
L 653.812489 -740.025907 
L 651.867674 -740.025907 
L 649.922858 -740.813166 
L 647.978042 -740.813166 
L 646.033227 -740.813166 
L 644.088411 -740.813166 
L 642.143596 -739.558778 
L 640.19878 -739.558778 
L 638.253965 -739.558778 
L 636.309149 -739.558778 
L 634.364333 -739.944978 
L 632.419518 -739.944978 
L 630.474702 -739.944978 
L 628.529887 -739.944978 
L 626.585071 -738.624647 
L 624.640256 -738.624647 
L 622.69544 -738.624641 
L 620.750624 -738.624641 
L 618.805809 -737.175063 
L 616.860993 -737.175063 
L 614.916178 -737.175069 
L 612.971362 -737.175063 
L 611.026547 -736.401705 
L 609.081731 -736.401705 
L 607.136915 -736.401699 
L 605.1921 -736.401699 
L 603.247284 -732.418132 
L 601.302469 -732.418132 
L 599.357653 -732.418132 
L 597.412838 -732.418132 
L 595.468022 -735.23557 
L 593.523207 -735.235576 
L 591.578391 -735.235576 
L 589.633575 -735.235576 
L 587.68876 -739.278695 
L 585.743944 -739.278695 
L 583.799129 -739.278695 
L 581.854313 -739.278695 
L 579.909498 -740.05725 
L 577.964682 -740.05725 
L 576.019866 -740.05725 
L 574.075051 -740.05725 
L 572.130235 -740.013422 
L 570.18542 -740.013422 
L 568.240604 -740.013422 
L 566.295789 -740.013422 
L 564.350973 -734.035322 
L 562.406157 -734.035322 
L 560.461342 -734.035322 
L 558.516526 -734.035322 
L 556.571711 -733.835496 
L 554.626895 -733.835496 
L 552.68208 -733.835496 
L 550.737264 -733.835496 
L 548.792448 -735.090966 
L 546.847633 -735.090972 
L 544.902817 -735.090966 
L 542.958002 -735.090972 
L 541.013186 -734.179346 
L 539.068371 -734.179346 
L 537.123555 -734.179346 
L 535.178739 -734.179346 
L 533.233924 -731.765189 
L 531.289108 -731.765195 
L 529.344293 -731.765195 
L 527.399477 -731.765195 
L 525.454662 -730.495012 
L 523.509846 -730.495012 
L 521.56503 -730.495012 
L 519.620215 -730.495006 
L 517.675399 -729.055394 
L 515.730584 -729.055394 
L 513.785768 -729.055394 
L 511.840953 -729.0554 
L 509.896137 -726.278202 
L 507.951322 -726.278202 
L 506.006506 -726.278202 
L 504.06169 -726.278202 
L 502.116875 -727.23482 
L 500.172059 -727.23482 
L 498.227244 -727.23482 
L 496.282428 -727.234826 
L 494.337613 -729.300691 
L 492.392797 -729.300691 
L 490.447981 -729.300691 
L 488.503166 -729.300691 
L 486.55835 -730.303312 
L 484.613535 -730.303312 
L 482.668719 -730.303312 
L 480.723904 -730.303312 
L 478.779088 -730.538759 
L 476.834272 -730.538759 
L 474.889457 -730.538759 
L 472.944641 -730.538759 
L 470.999826 -727.195895 
L 469.05501 -727.195895 
L 467.110195 -727.195895 
L 465.165379 -727.195895 
L 463.220563 -730.756588 
L 461.275748 -730.756582 
L 459.330932 -730.756582 
L 457.386117 -730.756582 
L 455.441301 -731.229276 
L 453.496486 -731.229276 
L 451.55167 -731.229276 
L 449.606854 -731.229276 
L 447.662039 -728.928888 
L 445.717223 -728.928882 
L 443.772408 -728.928888 
L 441.827592 -728.928888 
L 439.882777 -727.715844 
L 437.937961 -727.715844 
L 435.993146 -727.715844 
L 434.04833 -727.71585 
L 432.103514 -725.858672 
L 430.158699 -725.858672 
L 428.213883 -725.858672 
L 426.269068 -725.858678 
L 424.324252 -724.041049 
L 422.379437 -724.041049 
L 420.434621 -724.041049 
L 418.489805 -724.041049 
L 416.54499 -721.077219 
L 414.600174 -721.077213 
L 412.655359 -721.077219 
L 410.710543 -721.077219 
L 408.765728 -720.967893 
L 406.820912 -720.967893 
L 404.876096 -720.967893 
L 402.931281 -720.967893 
L 400.986465 -722.224865 
L 399.04165 -722.224859 
L 397.096834 -722.224865 
L 395.152019 -722.224865 
L 393.207203 -723.836291 
L 391.262387 -723.836291 
L 389.317572 -723.836291 
L 387.372756 -723.836291 
L 385.427941 -724.50767 
L 383.483125 -724.50767 
L 381.53831 -724.50767 
L 379.593494 -724.50767 
L 377.648678 -722.339236 
L 375.703863 -722.33923 
L 373.759047 -722.33923 
L 371.814232 -722.33923 
L 369.869416 -726.474041 
L 367.924601 -726.474041 
L 365.979785 -726.474041 
L 364.03497 -726.474041 
L 362.090154 -726.424665 
L 360.145338 -726.424665 
L 358.200523 -726.424659 
L 356.255707 -726.424659 
L 354.310892 -723.100576 
L 352.366076 -723.100576 
L 350.421261 -723.100576 
L 348.476445 -723.100576 
L 346.531629 -720.503277 
L 344.586814 -720.503277 
L 342.641998 -720.503277 
L 340.697183 -720.503277 
L 338.752367 -721.165537 
L 336.807552 -721.165537 
L 334.862736 -721.165543 
L 332.91792 -721.165549 
L 330.973105 -719.284574 
L 329.028289 -719.284568 
L 327.083474 -719.284574 
L 325.138658 -719.284574 
L 323.193843 -714.34705 
L 321.249027 -714.34705 
L 319.304211 -714.34705 
L 317.359396 -714.34705 
L 315.41458 -713.891938 
L 313.469765 -713.891938 
L 311.524949 -713.891938 
L 309.580134 -713.891938 
L 307.635318 -714.685691 
L 305.690502 -714.685691 
L 303.745687 -714.685697 
L 301.800871 -714.685697 
L 299.856056 -715.125862 
L 297.91124 -715.125862 
L 295.966425 -715.125856 
L 294.021609 -715.125862 
L 292.076793 -715.354376 
L 290.131978 -715.354376 
L 288.187162 -715.354376 
L 286.242347 -715.354376 
L 284.297531 -714.224834 
L 282.352716 -714.224834 
L 280.4079 -714.224834 
L 278.463085 -714.22484 
L 276.518269 -715.497811 
L 274.573453 -715.497811 
L 272.628638 -715.497811 
L 270.683822 -715.497811 
L 268.739007 -715.357217 
L 266.794191 -715.357217 
L 264.849376 -715.357217 
L 262.90456 -715.357211 
L 260.959744 -713.919663 
L 259.014929 -713.919663 
L 257.070113 -713.919663 
L 255.125298 -713.919663 
L 253.180482 -713.000286 
L 251.235667 -713.000286 
L 249.290851 -713.000286 
L 247.346035 -713.000286 
L 245.40122 -713.432957 
L 243.456404 -713.432957 
L 241.511589 -713.432957 
L 239.566773 -713.432957 
L 237.621958 -713.766589 
L 235.677142 -713.766595 
L 233.732326 -713.766595 
L 231.787511 -713.766595 
L 229.842695 -701.98234 
L 227.89788 -701.98234 
L 225.953064 -701.98234 
L 224.008249 -701.98234 
L 222.063433 -701.083297 
L 220.118617 -701.083297 
L 218.173802 -701.083297 
L 216.228986 -701.083297 
L 214.284171 -701.193801 
L 212.339355 -701.193801 
L 210.39454 -701.193801 
L 208.449724 -701.193801 
L 206.504909 -701.105468 
L 204.560093 -701.105468 
L 202.615277 -701.105468 
L 200.670462 -701.105468 
L 198.725646 -701.000488 
L 196.780831 -701.000488 
L 194.836015 -701.000488 
L 192.8912 -701.000488 
L 190.946384 -700.470406 
L 189.001568 -700.470406 
L 187.056753 -700.470406 
L 185.111937 -700.470406 
L 183.167122 -700.498286 
L 181.222306 -700.498286 
L 179.277491 -700.498286 
L 177.332675 -700.498286 
L 175.387859 -700.197163 
L 173.443044 -700.197163 
L 171.498228 -700.197163 
L 169.553413 -700.197163 
L 167.608597 -699.643083 
L 165.663782 -699.643083 
L 163.718966 -699.643083 
L 161.77415 -699.643083 
L 159.829335 -699.290667 
L 157.884519 -699.290667 
L 155.939704 -699.290667 
L 153.994888 -699.290667 
L 152.050073 -699.214285 
L 150.105257 -699.214285 
L 148.160441 -699.214285 
L 146.215626 -699.214285 
L 144.27081 -698.839109 
L 142.325995 -698.839109 
L 140.381179 -698.839109 
L 138.436364 -698.839109 
z
" style="stroke: #ffffff; stroke-opacity: 0.4"/>
    </defs>
    <g clip-path="url(#p237b8d1820)">
     <use xlink:href="#mba53b4089a" x="0" y="864" style="fill: #4c72b0; fill-opacity: 0.4; stroke: #ffffff; stroke-opacity: 0.4"/>
    </g>
   </g>
   <g id="line2d_15">
    <path d="M 138.436364 201.491444 
L 144.27081 201.491444 
L 146.215626 201.175533 
L 152.050073 201.175533 
L 153.994888 201.436687 
L 190.946384 201.467629 
L 192.8912 201.233465 
L 198.725646 201.233465 
L 200.670462 201.400691 
L 214.284171 201.398664 
L 216.228986 201.652757 
L 222.063433 201.652757 
L 224.008249 201.517405 
L 229.842695 201.517405 
L 231.787511 201.713327 
L 237.621958 201.713327 
L 239.566773 200.642692 
L 245.40122 200.642692 
L 247.346035 201.410687 
L 253.180482 201.410687 
L 255.125298 201.538518 
L 284.297531 201.576457 
L 286.242347 200.92929 
L 292.076793 200.929291 
L 294.021609 201.253773 
L 307.635318 201.14797 
L 309.580134 201.726507 
L 315.41458 201.726507 
L 317.359396 201.402767 
L 323.193843 201.402767 
L 325.138658 201.842008 
L 330.973105 201.842008 
L 332.91792 199.907086 
L 338.752367 199.907086 
L 340.697183 201.501224 
L 346.531629 201.501224 
L 348.476445 201.684956 
L 377.648678 201.730322 
L 379.593494 201.083716 
L 385.427941 201.083716 
L 387.372756 201.305182 
L 400.986465 201.305193 
L 402.931281 201.809258 
L 408.765728 201.809258 
L 410.710543 201.365559 
L 424.324252 201.453507 
L 426.269068 199.987843 
L 432.103514 199.987843 
L 434.04833 201.070642 
L 439.882777 201.070641 
L 441.827592 201.576967 
L 447.662039 201.576967 
L 449.606854 201.713729 
L 470.999826 201.694756 
L 472.944641 201.238732 
L 486.55835 201.313519 
L 488.503166 201.508299 
L 494.337613 201.508299 
L 496.282428 201.857761 
L 502.116875 201.857761 
L 504.06169 201.611259 
L 509.896137 201.611258 
L 511.840953 201.406147 
L 517.675399 201.406147 
L 519.620215 200.482305 
L 525.454662 200.482305 
L 527.399477 201.032113 
L 541.013186 201.067055 
L 542.958002 201.729837 
L 556.571711 201.693309 
L 560.461342 201.592451 
L 564.350973 201.592451 
L 566.295789 201.198406 
L 579.909498 201.257445 
L 581.854313 201.47527 
L 587.68876 201.47527 
L 589.633575 201.814498 
L 595.468022 201.814498 
L 597.412838 201.638262 
L 603.247284 201.638262 
L 605.1921 201.426323 
L 611.026547 201.426323 
L 612.971362 200.734933 
L 618.805809 200.734934 
L 620.750624 201.116266 
L 634.364333 201.199202 
L 636.309149 201.648564 
L 649.922858 201.664424 
L 651.867674 201.512454 
L 657.70212 201.512454 
L 659.646936 201.190897 
L 673.260645 201.233383 
L 675.20546 201.456773 
L 681.039907 201.456773 
L 682.984723 201.771359 
L 688.819169 201.771359 
L 690.763985 201.600361 
L 696.598432 201.600361 
L 698.543247 201.360478 
L 704.377694 201.360478 
L 706.322509 200.805193 
L 712.156956 200.805193 
L 714.101772 201.113462 
L 719.936218 201.113462 
L 721.881034 201.234199 
L 727.715481 201.234199 
L 729.660296 201.629376 
L 743.274005 201.65271 
L 745.218821 201.515296 
L 747.163636 201.515296 
L 747.163636 201.515296 
" clip-path="url(#p237b8d1820)" style="fill: none; stroke: #4c72b0; stroke-width: 1.5; stroke-linecap: round"/>
   </g>
   <g id="patch_3">
    <path d="M 108 299.350588 
L 108 103.68 
" style="fill: none; stroke: #262626; stroke-width: 1.25; stroke-linejoin: miter; stroke-linecap: square"/>
   </g>
   <g id="patch_4">
    <path d="M 777.6 299.350588 
L 777.6 103.68 
" style="fill: none; stroke: #262626; stroke-width: 1.25; stroke-linejoin: miter; stroke-linecap: square"/>
   </g>
   <g id="patch_5">
    <path d="M 108 299.350588 
L 777.6 299.350588 
" style="fill: none; stroke: #262626; stroke-width: 1.25; stroke-linejoin: miter; stroke-linecap: square"/>
   </g>
   <g id="patch_6">
    <path d="M 108 103.68 
L 777.6 103.68 
" style="fill: none; stroke: #262626; stroke-width: 1.25; stroke-linejoin: miter; stroke-linecap: square"/>
   </g>
   <g id="text_15">
    <!-- sts_month_of_year/ -->
    <g style="fill: #262626" transform="translate(390.107813 97.68) scale(0.12 -0.12)">
     <defs>
      <path id="ArialMT-73" d="M 197 991 
L 753 1078 
Q 800 744 1014 566 
Q 1228 388 1613 388 
Q 2000 388 2187 545 
Q 2375 703 2375 916 
Q 2375 1106 2209 1216 
Q 2094 1291 1634 1406 
Q 1016 1563 777 1677 
Q 538 1791 414 1992 
Q 291 2194 291 2438 
Q 291 2659 392 2848 
Q 494 3038 669 3163 
Q 800 3259 1026 3326 
Q 1253 3394 1513 3394 
Q 1903 3394 2198 3281 
Q 2494 3169 2634 2976 
Q 2775 2784 2828 2463 
L 2278 2388 
Q 2241 2644 2061 2787 
Q 1881 2931 1553 2931 
Q 1166 2931 1000 2803 
Q 834 2675 834 2503 
Q 834 2394 903 2306 
Q 972 2216 1119 2156 
Q 1203 2125 1616 2013 
Q 2213 1853 2448 1751 
Q 2684 1650 2818 1456 
Q 2953 1263 2953 975 
Q 2953 694 2789 445 
Q 2625 197 2315 61 
Q 2006 -75 1616 -75 
Q 969 -75 630 194 
Q 291 463 197 991 
z
" transform="scale(0.015625)"/>
      <path id="ArialMT-74" d="M 1650 503 
L 1731 6 
Q 1494 -44 1306 -44 
Q 1000 -44 831 53 
Q 663 150 594 308 
Q 525 466 525 972 
L 525 2881 
L 113 2881 
L 113 3319 
L 525 3319 
L 525 4141 
L 1084 4478 
L 1084 3319 
L 1650 3319 
L 1650 2881 
L 1084 2881 
L 1084 941 
Q 1084 700 1114 631 
Q 1144 563 1211 522 
Q 1278 481 1403 481 
Q 1497 481 1650 503 
z
" transform="scale(0.015625)"/>
      <path id="ArialMT-5f" d="M -97 -1272 
L -97 -866 
L 3631 -866 
L 3631 -1272 
L -97 -1272 
z
" transform="scale(0.015625)"/>
      <path id="ArialMT-6d" d="M 422 0 
L 422 3319 
L 925 3319 
L 925 2853 
Q 1081 3097 1340 3245 
Q 1600 3394 1931 3394 
Q 2300 3394 2536 3241 
Q 2772 3088 2869 2813 
Q 3263 3394 3894 3394 
Q 4388 3394 4653 3120 
Q 4919 2847 4919 2278 
L 4919 0 
L 4359 0 
L 4359 2091 
Q 4359 2428 4304 2576 
Q 4250 2725 4106 2815 
Q 3963 2906 3769 2906 
Q 3419 2906 3187 2673 
Q 2956 2441 2956 1928 
L 2956 0 
L 2394 0 
L 2394 2156 
Q 2394 2531 2256 2718 
Q 2119 2906 1806 2906 
Q 1569 2906 1367 2781 
Q 1166 2656 1075 2415 
Q 984 2175 984 1722 
L 984 0 
L 422 0 
z
" transform="scale(0.015625)"/>
      <path id="ArialMT-6f" d="M 213 1659 
Q 213 2581 725 3025 
Q 1153 3394 1769 3394 
Q 2453 3394 2887 2945 
Q 3322 2497 3322 1706 
Q 3322 1066 3130 698 
Q 2938 331 2570 128 
Q 2203 -75 1769 -75 
Q 1072 -75 642 372 
Q 213 819 213 1659 
z
M 791 1659 
Q 791 1022 1069 705 
Q 1347 388 1769 388 
Q 2188 388 2466 706 
Q 2744 1025 2744 1678 
Q 2744 2294 2464 2611 
Q 2184 2928 1769 2928 
Q 1347 2928 1069 2612 
Q 791 2297 791 1659 
z
" transform="scale(0.015625)"/>
      <path id="ArialMT-6e" d="M 422 0 
L 422 3319 
L 928 3319 
L 928 2847 
Q 1294 3394 1984 3394 
Q 2284 3394 2536 3286 
Q 2788 3178 2913 3003 
Q 3038 2828 3088 2588 
Q 3119 2431 3119 2041 
L 3119 0 
L 2556 0 
L 2556 2019 
Q 2556 2363 2490 2533 
Q 2425 2703 2258 2804 
Q 2091 2906 1866 2906 
Q 1506 2906 1245 2678 
Q 984 2450 984 1813 
L 984 0 
L 422 0 
z
" transform="scale(0.015625)"/>
      <path id="ArialMT-68" d="M 422 0 
L 422 4581 
L 984 4581 
L 984 2938 
Q 1378 3394 1978 3394 
Q 2347 3394 2619 3248 
Q 2891 3103 3008 2847 
Q 3125 2591 3125 2103 
L 3125 0 
L 2563 0 
L 2563 2103 
Q 2563 2525 2380 2717 
Q 2197 2909 1863 2909 
Q 1613 2909 1392 2779 
Q 1172 2650 1078 2428 
Q 984 2206 984 1816 
L 984 0 
L 422 0 
z
" transform="scale(0.015625)"/>
      <path id="ArialMT-66" d="M 556 0 
L 556 2881 
L 59 2881 
L 59 3319 
L 556 3319 
L 556 3672 
Q 556 4006 616 4169 
Q 697 4388 901 4523 
Q 1106 4659 1475 4659 
Q 1713 4659 2000 4603 
L 1916 4113 
Q 1741 4144 1584 4144 
Q 1328 4144 1222 4034 
Q 1116 3925 1116 3625 
L 1116 3319 
L 1763 3319 
L 1763 2881 
L 1116 2881 
L 1116 0 
L 556 0 
z
" transform="scale(0.015625)"/>
      <path id="ArialMT-79" d="M 397 -1278 
L 334 -750 
Q 519 -800 656 -800 
Q 844 -800 956 -737 
Q 1069 -675 1141 -563 
Q 1194 -478 1313 -144 
Q 1328 -97 1363 -6 
L 103 3319 
L 709 3319 
L 1400 1397 
Q 1534 1031 1641 628 
Q 1738 1016 1872 1384 
L 2581 3319 
L 3144 3319 
L 1881 -56 
Q 1678 -603 1566 -809 
Q 1416 -1088 1222 -1217 
Q 1028 -1347 759 -1347 
Q 597 -1347 397 -1278 
z
" transform="scale(0.015625)"/>
      <path id="ArialMT-65" d="M 2694 1069 
L 3275 997 
Q 3138 488 2766 206 
Q 2394 -75 1816 -75 
Q 1088 -75 661 373 
Q 234 822 234 1631 
Q 234 2469 665 2931 
Q 1097 3394 1784 3394 
Q 2450 3394 2872 2941 
Q 3294 2488 3294 1666 
Q 3294 1616 3291 1516 
L 816 1516 
Q 847 969 1125 678 
Q 1403 388 1819 388 
Q 2128 388 2347 550 
Q 2566 713 2694 1069 
z
M 847 1978 
L 2700 1978 
Q 2663 2397 2488 2606 
Q 2219 2931 1791 2931 
Q 1403 2931 1139 2672 
Q 875 2413 847 1978 
z
" transform="scale(0.015625)"/>
      <path id="ArialMT-61" d="M 2588 409 
Q 2275 144 1986 34 
Q 1697 -75 1366 -75 
Q 819 -75 525 192 
Q 231 459 231 875 
Q 231 1119 342 1320 
Q 453 1522 633 1644 
Q 813 1766 1038 1828 
Q 1203 1872 1538 1913 
Q 2219 1994 2541 2106 
Q 2544 2222 2544 2253 
Q 2544 2597 2384 2738 
Q 2169 2928 1744 2928 
Q 1347 2928 1158 2789 
Q 969 2650 878 2297 
L 328 2372 
Q 403 2725 575 2942 
Q 747 3159 1072 3276 
Q 1397 3394 1825 3394 
Q 2250 3394 2515 3294 
Q 2781 3194 2906 3042 
Q 3031 2891 3081 2659 
Q 3109 2516 3109 2141 
L 3109 1391 
Q 3109 606 3145 398 
Q 3181 191 3288 0 
L 2700 0 
Q 2613 175 2588 409 
z
M 2541 1666 
Q 2234 1541 1622 1453 
Q 1275 1403 1131 1340 
Q 988 1278 909 1158 
Q 831 1038 831 891 
Q 831 666 1001 516 
Q 1172 366 1500 366 
Q 1825 366 2078 508 
Q 2331 650 2450 897 
Q 2541 1088 2541 1459 
L 2541 1666 
z
" transform="scale(0.015625)"/>
      <path id="ArialMT-72" d="M 416 0 
L 416 3319 
L 922 3319 
L 922 2816 
Q 1116 3169 1280 3281 
Q 1444 3394 1641 3394 
Q 1925 3394 2219 3213 
L 2025 2691 
Q 1819 2813 1613 2813 
Q 1428 2813 1281 2702 
Q 1134 2591 1072 2394 
Q 978 2094 978 1738 
L 978 0 
L 416 0 
z
" transform="scale(0.015625)"/>
      <path id="ArialMT-2f" d="M 0 -78 
L 1328 4659 
L 1778 4659 
L 453 -78 
L 0 -78 
z
" transform="scale(0.015625)"/>
     </defs>
     <use xlink:href="#ArialMT-73"/>
     <use xlink:href="#ArialMT-74" x="50"/>
     <use xlink:href="#ArialMT-73" x="77.783203"/>
     <use xlink:href="#ArialMT-5f" x="127.783203"/>
     <use xlink:href="#ArialMT-6d" x="183.398438"/>
     <use xlink:href="#ArialMT-6f" x="266.699219"/>
     <use xlink:href="#ArialMT-6e" x="322.314453"/>
     <use xlink:href="#ArialMT-74" x="377.929688"/>
     <use xlink:href="#ArialMT-68" x="405.712891"/>
     <use xlink:href="#ArialMT-5f" x="461.328125"/>
     <use xlink:href="#ArialMT-6f" x="516.943359"/>
     <use xlink:href="#ArialMT-66" x="572.558594"/>
     <use xlink:href="#ArialMT-5f" x="600.341797"/>
     <use xlink:href="#ArialMT-79" x="655.957031"/>
     <use xlink:href="#ArialMT-65" x="705.957031"/>
     <use xlink:href="#ArialMT-61" x="761.572266"/>
     <use xlink:href="#ArialMT-72" x="817.1875"/>
     <use xlink:href="#ArialMT-2f" x="850.488281"/>
    </g>
   </g>
  </g>
  <g id="axes_2">
   <g id="patch_7">
    <path d="M 108 534.155294 
L 777.6 534.155294 
L 777.6 338.484706 
L 108 338.484706 
z
" style="fill: #ffffff"/>
   </g>
   <g id="matplotlib.axis_3">
    <g id="xtick_8">
     <g id="line2d_16">
      <g>
       <use xlink:href="#mf3b8710753" x="128.434455" y="534.155294" style="fill: #262626; stroke: #262626; stroke-width: 1.25"/>
      </g>
     </g>
     <g id="text_16">
      <!-- 2016 -->
      <g style="fill: #262626" transform="translate(116.200393 551.528888) scale(0.11 -0.11)">
       <use xlink:href="#ArialMT-32"/>
       <use xlink:href="#ArialMT-30" x="55.615234"/>
       <use xlink:href="#ArialMT-31" x="111.230469"/>
       <use xlink:href="#ArialMT-36" x="166.845703"/>
      </g>
     </g>
    </g>
    <g id="xtick_9">
     <g id="line2d_17">
      <g>
       <use xlink:href="#mf3b8710753" x="230.120526" y="534.155294" style="fill: #262626; stroke: #262626; stroke-width: 1.25"/>
      </g>
     </g>
     <g id="text_17">
      <!-- 2017 -->
      <g style="fill: #262626" transform="translate(217.886464 551.528888) scale(0.11 -0.11)">
       <use xlink:href="#ArialMT-32"/>
       <use xlink:href="#ArialMT-30" x="55.615234"/>
       <use xlink:href="#ArialMT-31" x="111.230469"/>
       <use xlink:href="#ArialMT-37" x="166.845703"/>
      </g>
     </g>
    </g>
    <g id="xtick_10">
     <g id="line2d_18">
      <g>
       <use xlink:href="#mf3b8710753" x="331.528766" y="534.155294" style="fill: #262626; stroke: #262626; stroke-width: 1.25"/>
      </g>
     </g>
     <g id="text_18">
      <!-- 2018 -->
      <g style="fill: #262626" transform="translate(319.294704 551.528888) scale(0.11 -0.11)">
       <use xlink:href="#ArialMT-32"/>
       <use xlink:href="#ArialMT-30" x="55.615234"/>
       <use xlink:href="#ArialMT-31" x="111.230469"/>
       <use xlink:href="#ArialMT-38" x="166.845703"/>
      </g>
     </g>
    </g>
    <g id="xtick_11">
     <g id="line2d_19">
      <g>
       <use xlink:href="#mf3b8710753" x="432.937007" y="534.155294" style="fill: #262626; stroke: #262626; stroke-width: 1.25"/>
      </g>
     </g>
     <g id="text_19">
      <!-- 2019 -->
      <g style="fill: #262626" transform="translate(420.702944 551.528888) scale(0.11 -0.11)">
       <use xlink:href="#ArialMT-32"/>
       <use xlink:href="#ArialMT-30" x="55.615234"/>
       <use xlink:href="#ArialMT-31" x="111.230469"/>
       <use xlink:href="#ArialMT-39" x="166.845703"/>
      </g>
     </g>
    </g>
    <g id="xtick_12">
     <g id="line2d_20">
      <g>
       <use xlink:href="#mf3b8710753" x="534.345247" y="534.155294" style="fill: #262626; stroke: #262626; stroke-width: 1.25"/>
      </g>
     </g>
     <g id="text_20">
      <!-- 2020 -->
      <g style="fill: #262626" transform="translate(522.111185 551.528888) scale(0.11 -0.11)">
       <use xlink:href="#ArialMT-32"/>
       <use xlink:href="#ArialMT-30" x="55.615234"/>
       <use xlink:href="#ArialMT-32" x="111.230469"/>
       <use xlink:href="#ArialMT-30" x="166.845703"/>
      </g>
     </g>
    </g>
    <g id="xtick_13">
     <g id="line2d_21">
      <g>
       <use xlink:href="#mf3b8710753" x="636.031318" y="534.155294" style="fill: #262626; stroke: #262626; stroke-width: 1.25"/>
      </g>
     </g>
     <g id="text_21">
      <!-- 2021 -->
      <g style="fill: #262626" transform="translate(623.797256 551.528888) scale(0.11 -0.11)">
       <use xlink:href="#ArialMT-32"/>
       <use xlink:href="#ArialMT-30" x="55.615234"/>
       <use xlink:href="#ArialMT-32" x="111.230469"/>
       <use xlink:href="#ArialMT-31" x="166.845703"/>
      </g>
     </g>
    </g>
    <g id="xtick_14">
     <g id="line2d_22">
      <g>
       <use xlink:href="#mf3b8710753" x="737.439559" y="534.155294" style="fill: #262626; stroke: #262626; stroke-width: 1.25"/>
      </g>
     </g>
     <g id="text_22">
      <!-- 2022 -->
      <g style="fill: #262626" transform="translate(725.205496 551.528888) scale(0.11 -0.11)">
       <use xlink:href="#ArialMT-32"/>
       <use xlink:href="#ArialMT-30" x="55.615234"/>
       <use xlink:href="#ArialMT-32" x="111.230469"/>
       <use xlink:href="#ArialMT-32" x="166.845703"/>
      </g>
     </g>
    </g>
   </g>
   <g id="matplotlib.axis_4">
    <g id="ytick_8">
     <g id="line2d_23">
      <g>
       <use xlink:href="#me2118546d9" x="108" y="520.44305" style="fill: #262626; stroke: #262626; stroke-width: 1.25"/>
      </g>
     </g>
     <g id="text_23">
      <!-- −40 -->
      <g style="fill: #262626" transform="translate(79.84125 524.379847) scale(0.11 -0.11)">
       <use xlink:href="#ArialMT-2212"/>
       <use xlink:href="#ArialMT-34" x="58.398438"/>
       <use xlink:href="#ArialMT-30" x="114.013672"/>
      </g>
     </g>
    </g>
    <g id="ytick_9">
     <g id="line2d_24">
      <g>
       <use xlink:href="#me2118546d9" x="108" y="477.607922" style="fill: #262626; stroke: #262626; stroke-width: 1.25"/>
      </g>
     </g>
     <g id="text_24">
      <!-- −20 -->
      <g style="fill: #262626" transform="translate(79.84125 481.544719) scale(0.11 -0.11)">
       <use xlink:href="#ArialMT-2212"/>
       <use xlink:href="#ArialMT-32" x="58.398438"/>
       <use xlink:href="#ArialMT-30" x="114.013672"/>
      </g>
     </g>
    </g>
    <g id="ytick_10">
     <g id="line2d_25">
      <g>
       <use xlink:href="#me2118546d9" x="108" y="434.772794" style="fill: #262626; stroke: #262626; stroke-width: 1.25"/>
      </g>
     </g>
     <g id="text_25">
      <!-- 0 -->
      <g style="fill: #262626" transform="translate(92.382969 438.709591) scale(0.11 -0.11)">
       <use xlink:href="#ArialMT-30"/>
      </g>
     </g>
    </g>
    <g id="ytick_11">
     <g id="line2d_26">
      <g>
       <use xlink:href="#me2118546d9" x="108" y="391.937666" style="fill: #262626; stroke: #262626; stroke-width: 1.25"/>
      </g>
     </g>
     <g id="text_26">
      <!-- 20 -->
      <g style="fill: #262626" transform="translate(86.265938 395.874463) scale(0.11 -0.11)">
       <use xlink:href="#ArialMT-32"/>
       <use xlink:href="#ArialMT-30" x="55.615234"/>
      </g>
     </g>
    </g>
    <g id="ytick_12">
     <g id="line2d_27">
      <g>
       <use xlink:href="#me2118546d9" x="108" y="349.102538" style="fill: #262626; stroke: #262626; stroke-width: 1.25"/>
      </g>
     </g>
     <g id="text_27">
      <!-- 40 -->
      <g style="fill: #262626" transform="translate(86.265938 353.039335) scale(0.11 -0.11)">
       <use xlink:href="#ArialMT-34"/>
       <use xlink:href="#ArialMT-30" x="55.615234"/>
      </g>
     </g>
    </g>
   </g>
   <g id="PolyCollection_2">
    <defs>
     <path id="m3516e6be07" d="M 138.436364 -439.268444 
L 138.436364 -419.214278 
L 140.381179 -419.550375 
L 142.325995 -419.901625 
L 144.27081 -420.282205 
L 146.215626 -420.136608 
L 148.160441 -419.772719 
L 150.105257 -409.502888 
L 152.050073 -420.024252 
L 153.994888 -420.068249 
L 155.939704 -419.763225 
L 157.884519 -419.747841 
L 159.829335 -420.019001 
L 161.77415 -419.956736 
L 163.718966 -419.654836 
L 165.663782 -419.646147 
L 167.608597 -419.92981 
L 169.553413 -419.849653 
L 171.498228 -419.547609 
L 173.443044 -419.544405 
L 175.387859 -419.840424 
L 177.332675 -419.798668 
L 179.277491 -419.498291 
L 181.222306 -419.497987 
L 183.167122 -419.789751 
L 185.111937 -419.793207 
L 187.056753 -419.512666 
L 189.001568 -419.514048 
L 190.946384 -419.799155 
L 192.8912 -419.721646 
L 194.836015 -419.428275 
L 196.780831 -419.428273 
L 198.725646 -419.720186 
L 200.670462 -419.710753 
L 202.615277 -419.419425 
L 204.560093 -419.420314 
L 206.504909 -419.707116 
L 208.449724 -419.695457 
L 210.39454 -419.407862 
L 212.339355 -419.407581 
L 214.284171 -419.695429 
L 216.228986 -419.718043 
L 218.173802 -419.433535 
L 220.118617 -419.431886 
L 222.063433 -419.713 
L 224.008249 -419.576683 
L 225.953064 -419.260585 
L 227.89788 -419.349815 
L 229.842695 -398.257748 
L 231.787511 -387.998972 
L 233.732326 -397.726514 
L 235.677142 -417.480345 
L 237.621958 -418.084367 
L 239.566773 -418.240802 
L 241.511589 -417.889303 
L 243.456404 -418.027779 
L 245.40122 -418.538495 
L 247.346035 -418.699102 
L 249.290851 -418.360562 
L 251.235667 -418.39517 
L 253.180482 -418.848354 
L 255.125298 -418.72908 
L 257.070113 -418.31767 
L 259.014929 -418.394622 
L 260.959744 -418.862052 
L 262.90456 -418.697009 
L 264.849376 -418.25949 
L 266.794191 -418.277845 
L 268.739007 -418.743609 
L 270.683822 -418.755224 
L 272.628638 -418.378018 
L 274.573453 -418.417845 
L 276.518269 -418.864921 
L 278.463085 -419.100517 
L 280.4079 -418.709642 
L 282.352716 -418.755993 
L 284.297531 -419.298745 
L 286.242347 -419.465473 
L 288.187162 -419.139399 
L 290.131978 -420.263963 
L 292.076793 -420.763876 
L 294.021609 -420.861354 
L 295.966425 -421.428682 
L 297.91124 -421.626462 
L 299.856056 -422.548846 
L 301.800871 -422.650711 
L 303.745687 -422.500316 
L 305.690502 -422.609041 
L 307.635318 -423.887229 
L 309.580134 -424.10892 
L 311.524949 -423.87669 
L 313.469765 -423.964887 
L 315.41458 -424.360815 
L 317.359396 -424.283612 
L 319.304211 -423.905847 
L 321.249027 -424.397337 
L 323.193843 -425.045147 
L 325.138658 -424.383913 
L 327.083474 -423.950034 
L 329.028289 -424.276472 
L 330.973105 -424.924358 
L 332.91792 -424.350312 
L 334.862736 -410.446275 
L 336.807552 -416.214408 
L 338.752367 -416.693881 
L 340.697183 -416.886137 
L 342.641998 -416.61811 
L 344.586814 -416.657071 
L 346.531629 -417.512891 
L 348.476445 -417.207632 
L 350.421261 -416.797816 
L 352.366076 -416.993403 
L 354.310892 -391.952055 
L 356.255707 -362.741742 
L 358.200523 -345.733618 
L 360.145338 -342.609776 
L 362.090154 -343.579165 
L 364.03497 -342.363438 
L 365.979785 -345.607528 
L 367.924601 -362.798795 
L 369.869416 -391.989609 
L 371.814232 -417.476835 
L 373.759047 -417.440882 
L 375.703863 -417.46298 
L 377.648678 -417.901354 
L 379.593494 -417.829748 
L 381.53831 -417.346717 
L 383.483125 -417.820289 
L 385.427941 -411.105588 
L 387.372756 -418.173222 
L 389.317572 -417.994096 
L 391.262387 -418.146708 
L 393.207203 -419.203428 
L 395.152019 -419.914571 
L 397.096834 -419.788788 
L 399.04165 -420.4655 
L 400.986465 -421.474307 
L 402.931281 -422.011884 
L 404.876096 -421.889022 
L 406.820912 -422.673848 
L 408.765728 -423.19895 
L 410.710543 -423.537332 
L 412.655359 -423.143459 
L 414.600174 -423.168522 
L 416.54499 -423.676031 
L 418.489805 -423.441437 
L 420.434621 -423.189658 
L 422.379437 -423.277116 
L 424.324252 -423.773935 
L 426.269068 -423.517471 
L 428.213883 -423.199011 
L 430.158699 -423.231122 
L 432.103514 -423.702274 
L 434.04833 -423.462686 
L 435.993146 -423.016094 
L 437.937961 -407.710232 
L 439.882777 -404.768942 
L 441.827592 -415.224563 
L 443.772408 -415.046578 
L 445.717223 -415.053931 
L 447.662039 -415.554369 
L 449.606854 -415.199711 
L 451.55167 -414.74047 
L 453.496486 -414.970019 
L 455.441301 -397.207728 
L 457.386117 -387.161882 
L 459.330932 -396.754127 
L 461.275748 -414.881996 
L 463.220563 -415.338233 
L 465.165379 -415.953746 
L 467.110195 -415.506634 
L 469.05501 -415.508847 
L 470.999826 -416.003646 
L 472.944641 -415.503998 
L 474.889457 -415.115587 
L 476.834272 -415.122546 
L 478.779088 -415.662974 
L 480.723904 -415.696583 
L 482.668719 -415.159997 
L 484.613535 -415.174177 
L 486.55835 -415.691585 
L 488.503166 -415.863661 
L 490.447981 -415.624122 
L 492.392797 -415.759021 
L 494.337613 -416.602575 
L 496.282428 -417.096527 
L 498.227244 -416.690882 
L 500.172059 -417.033553 
L 502.116875 -417.807699 
L 504.06169 -418.056786 
L 506.006506 -417.647234 
L 507.951322 -417.705575 
L 509.896137 -418.249242 
L 511.840953 -417.989404 
L 513.785768 -417.593541 
L 515.730584 -417.651561 
L 517.675399 -418.215379 
L 519.620215 -418.03724 
L 521.56503 -417.820269 
L 523.509846 -417.894976 
L 525.454662 -418.385483 
L 527.399477 -418.202747 
L 529.344293 -417.728845 
L 531.289108 -417.757064 
L 533.233924 -418.290598 
L 535.178739 -417.915378 
L 537.123555 -417.385108 
L 539.068371 -417.449027 
L 541.013186 -417.635924 
L 542.958002 -409.934025 
L 544.902817 -414.242953 
L 546.847633 -413.869357 
L 548.792448 -414.514235 
L 550.737264 -414.768366 
L 552.68208 -414.214023 
L 554.626895 -414.382945 
L 556.571711 -414.927867 
L 558.516526 -414.893121 
L 560.461342 -414.375633 
L 562.406157 -414.568206 
L 564.350973 -390.458126 
L 566.295789 -360.726133 
L 568.240604 -343.421996 
L 570.18542 -339.959469 
L 572.130235 -340.133975 
L 574.075051 -339.094781 
L 576.019866 -338.738824 
L 577.964682 -339.09492 
L 579.909498 -339.015726 
L 581.854313 -339.055932 
L 583.799129 -340.109554 
L 585.743944 -340.314903 
L 587.68876 -343.859025 
L 589.633575 -361.048025 
L 591.578391 -390.358344 
L 593.523207 -414.246137 
L 595.468022 -414.702197 
L 597.412838 -415.202367 
L 599.357653 -414.717988 
L 601.302469 -414.736577 
L 603.247284 -415.222477 
L 605.1921 -414.572759 
L 607.136915 -414.021331 
L 609.081731 -414.308104 
L 611.026547 -408.389511 
L 612.971362 -414.165666 
L 614.916178 -405.272248 
L 616.860993 -413.937472 
L 618.805809 -414.554091 
L 620.750624 -414.290626 
L 622.69544 -413.756061 
L 624.640256 -413.985678 
L 626.585071 -402.708073 
L 628.529887 -402.674248 
L 630.474702 -413.773985 
L 632.419518 -413.531534 
L 634.364333 -414.10436 
L 636.309149 -414.193768 
L 638.253965 -413.675563 
L 640.19878 -413.682973 
L 642.143596 -413.956494 
L 644.088411 -408.497404 
L 646.033227 -413.602593 
L 647.978042 -403.602512 
L 649.922858 -413.353358 
L 651.867674 -413.679948 
L 653.812489 -413.173408 
L 655.757305 -413.166049 
L 657.70212 -413.779867 
L 659.646936 -412.84242 
L 661.591751 -412.158401 
L 663.536567 -412.162142 
L 665.481383 -412.836563 
L 667.426198 -412.799177 
L 669.371014 -412.12408 
L 671.315829 -412.126491 
L 673.260645 -412.796532 
L 675.20546 -412.902981 
L 677.150276 -412.245441 
L 679.095091 -412.24092 
L 681.039907 -412.919199 
L 682.984723 -413.374854 
L 684.929538 -412.736442 
L 686.874354 -412.758003 
L 688.819169 -413.367745 
L 690.763985 -413.641966 
L 692.7088 -413.083417 
L 694.653616 -413.095485 
L 696.598432 -413.67922 
L 698.543247 -413.28298 
L 700.488063 -412.670554 
L 702.432878 -412.67702 
L 704.377694 -413.340254 
L 706.322509 -413.222981 
L 708.267325 -412.571755 
L 710.212141 -412.588101 
L 712.156956 -413.178941 
L 714.101772 -413.018486 
L 716.046587 -412.419367 
L 717.991403 -412.40675 
L 719.936218 -413.076927 
L 721.881034 -412.990276 
L 723.82585 -412.316005 
L 725.770665 -412.329145 
L 727.715481 -412.954092 
L 729.660296 -412.96294 
L 731.605112 -412.338282 
L 733.549927 -412.326331 
L 735.494743 -413.009775 
L 737.439559 -412.837339 
L 739.384374 -412.149089 
L 741.32919 -412.142493 
L 743.274005 -412.751373 
L 745.218821 -412.033593 
L 747.163636 -411.526821 
L 747.163636 -444.390724 
L 747.163636 -444.390724 
L 745.218821 -443.869575 
L 743.274005 -443.188062 
L 741.32919 -443.799935 
L 739.384374 -443.793768 
L 737.439559 -443.104245 
L 735.494743 -442.910863 
L 733.549927 -443.569825 
L 731.605112 -443.552253 
L 729.660296 -442.920215 
L 727.715481 -442.801752 
L 725.770665 -443.419893 
L 723.82585 -443.435251 
L 721.881034 -442.758054 
L 719.936218 -442.608045 
L 717.991403 -443.268689 
L 716.046587 -443.251505 
L 714.101772 -442.640995 
L 712.156956 -442.374853 
L 710.212141 -442.95832 
L 708.267325 -442.973987 
L 706.322509 -442.334432 
L 704.377694 -442.394198 
L 702.432878 -443.023915 
L 700.488063 -443.00136 
L 698.543247 -442.389197 
L 696.598432 -442.029184 
L 694.653616 -442.603358 
L 692.7088 -442.593995 
L 690.763985 -441.98357 
L 688.819169 -442.209295 
L 686.874354 -442.816357 
L 684.929538 -442.810164 
L 682.984723 -442.164142 
L 681.039907 -442.518235 
L 679.095091 -443.191281 
L 677.150276 -443.189049 
L 675.20546 -442.527695 
L 673.260645 -442.55529 
L 671.315829 -443.214372 
L 669.371014 -443.217647 
L 667.426198 -442.542784 
L 665.481383 -442.486195 
L 663.536567 -443.158311 
L 661.591751 -443.159059 
L 659.646936 -442.463197 
L 657.70212 -441.63021 
L 655.757305 -442.245429 
L 653.812489 -442.231015 
L 651.867674 -441.679286 
L 649.922858 -442.073492 
L 647.978042 -452.312866 
L 646.033227 -442.78108 
L 644.088411 -447.90599 
L 642.143596 -442.28623 
L 640.19878 -442.549828 
L 638.253965 -442.563298 
L 636.309149 -442.040424 
L 634.364333 -441.985206 
L 632.419518 -442.548551 
L 630.474702 -442.31354 
L 628.529887 -453.504238 
L 626.585071 -453.454996 
L 624.640256 -442.067572 
L 622.69544 -442.291537 
L 620.750624 -441.746431 
L 618.805809 -441.361308 
L 616.860993 -441.954777 
L 614.916178 -450.546788 
L 612.971362 -441.605672 
L 611.026547 -447.511905 
L 609.081731 -441.685473 
L 607.136915 -441.972248 
L 605.1921 -441.380753 
L 603.247284 -440.796587 
L 601.302469 -441.287344 
L 599.357653 -441.304458 
L 597.412838 -440.81004 
L 595.468022 -441.364523 
L 593.523207 -441.827842 
L 591.578391 -465.793336 
L 589.633575 -495.135861 
L 587.68876 -512.266093 
L 585.743944 -515.673905 
L 583.799129 -515.706438 
L 581.854313 -516.578814 
L 579.909498 -516.452446 
L 577.964682 -516.266665 
L 576.019866 -516.621176 
L 574.075051 -516.35014 
L 572.130235 -515.391552 
L 570.18542 -515.570536 
L 568.240604 -512.0776 
L 566.295789 -494.82522 
L 564.350973 -465.270438 
L 562.406157 -441.353899 
L 560.461342 -441.549406 
L 558.516526 -441.019073 
L 556.571711 -441.009336 
L 554.626895 -441.443147 
L 552.68208 -441.28682 
L 550.737264 -440.702495 
L 548.792448 -440.924421 
L 546.847633 -441.516953 
L 544.902817 -441.270893 
L 542.958002 -448.616187 
L 541.013186 -444.022085 
L 539.068371 -444.340195 
L 537.123555 -444.332511 
L 535.178739 -443.779545 
L 533.233924 -443.399259 
L 531.289108 -443.933505 
L 529.344293 -443.875686 
L 527.399477 -443.383857 
L 525.454662 -443.012464 
L 523.509846 -443.440371 
L 521.56503 -443.390542 
L 519.620215 -442.593962 
L 517.675399 -442.608655 
L 515.730584 -443.051749 
L 513.785768 -442.984466 
L 511.840953 -442.409489 
L 509.896137 -441.888154 
L 507.951322 -442.247413 
L 506.006506 -442.19136 
L 504.06169 -441.686989 
L 502.116875 -441.801816 
L 500.172059 -441.976121 
L 498.227244 -441.643154 
L 496.282428 -441.053799 
L 494.337613 -441.085588 
L 492.392797 -441.282027 
L 490.447981 -441.141495 
L 488.503166 -440.368382 
L 486.55835 -440.441693 
L 484.613535 -440.959639 
L 482.668719 -440.95738 
L 480.723904 -440.41773 
L 478.779088 -440.429398 
L 476.834272 -440.971918 
L 474.889457 -440.960522 
L 472.944641 -440.285808 
L 470.999826 -439.903439 
L 469.05501 -440.393625 
L 467.110195 -440.384244 
L 465.165379 -439.902987 
L 463.220563 -440.504627 
L 461.275748 -440.953511 
L 459.330932 -459.447668 
L 457.386117 -469.296243 
L 455.441301 -459.070291 
L 453.496486 -440.871364 
L 451.55167 -441.044964 
L 449.606854 -440.403259 
L 447.662039 -439.991741 
L 445.717223 -440.414572 
L 443.772408 -440.326386 
L 441.827592 -440.232707 
L 439.882777 -455.096308 
L 437.937961 -458.479354 
L 435.993146 -447.862335 
L 434.04833 -447.490765 
L 432.103514 -446.711393 
L 430.158699 -447.10229 
L 428.213883 -447.088926 
L 426.269068 -446.475997 
L 424.324252 -446.622147 
L 422.379437 -447.059818 
L 420.434621 -446.971276 
L 418.489805 -446.284264 
L 416.54499 -445.601621 
L 414.600174 -445.958056 
L 412.655359 -445.934831 
L 410.710543 -445.455251 
L 408.765728 -445.215557 
L 406.820912 -445.575298 
L 404.876096 -444.795163 
L 402.931281 -444.016227 
L 400.986465 -443.702897 
L 399.04165 -443.614403 
L 397.096834 -442.935996 
L 395.152019 -442.167396 
L 393.207203 -441.93731 
L 391.262387 -441.772123 
L 389.317572 -441.597976 
L 387.372756 -441.33964 
L 385.427941 -448.272624 
L 383.483125 -441.228126 
L 381.53831 -441.286808 
L 379.593494 -440.756731 
L 377.648678 -440.332313 
L 375.703863 -440.725255 
L 373.759047 -440.620021 
L 371.814232 -440.518864 
L 369.869416 -465.843815 
L 367.924601 -495.103275 
L 365.979785 -512.677109 
L 364.03497 -516.260636 
L 362.090154 -514.845002 
L 360.145338 -515.028111 
L 358.200523 -511.087892 
L 356.255707 -493.839818 
L 354.310892 -464.969539 
L 352.366076 -440.289397 
L 350.421261 -440.469455 
L 348.476445 -439.821859 
L 346.531629 -439.268969 
L 344.586814 -439.334878 
L 342.641998 -439.272504 
L 340.697183 -438.644991 
L 338.752367 -438.148677 
L 336.807552 -438.837759 
L 334.862736 -452.143452 
L 332.91792 -446.072445 
L 330.973105 -446.434646 
L 329.028289 -446.678707 
L 327.083474 -446.33907 
L 325.138658 -445.834705 
L 323.193843 -444.911694 
L 321.249027 -445.071115 
L 319.304211 -444.578918 
L 317.359396 -444.150694 
L 315.41458 -444.188806 
L 313.469765 -444.59621 
L 311.524949 -444.509764 
L 309.580134 -443.932678 
L 307.635318 -443.774013 
L 305.690502 -443.31016 
L 303.745687 -443.199564 
L 301.800871 -442.542374 
L 299.856056 -442.599233 
L 297.91124 -442.500186 
L 295.966425 -442.310749 
L 294.021609 -440.88931 
L 292.076793 -440.761527 
L 290.131978 -441.11565 
L 288.187162 -439.985348 
L 286.242347 -439.48042 
L 284.297531 -439.172667 
L 282.352716 -439.448513 
L 280.4079 -439.407101 
L 278.463085 -438.964665 
L 276.518269 -439.086479 
L 274.573453 -439.508839 
L 272.628638 -439.478368 
L 270.683822 -438.957972 
L 268.739007 -438.889877 
L 266.794191 -439.319856 
L 264.849376 -439.29678 
L 262.90456 -438.849675 
L 260.959744 -438.607294 
L 259.014929 -438.990501 
L 257.070113 -438.913926 
L 255.125298 -438.474028 
L 253.180482 -438.287878 
L 251.235667 -438.660535 
L 249.290851 -438.623687 
L 247.346035 -438.147482 
L 245.40122 -437.886931 
L 243.456404 -438.185634 
L 241.511589 -438.054834 
L 239.566773 -437.59269 
L 237.621958 -437.956898 
L 235.677142 -438.140181 
L 233.732326 -458.33359 
L 231.787511 -468.361758 
L 229.842695 -457.869756 
L 227.89788 -436.204813 
L 225.953064 -436.26153 
L 224.008249 -435.950052 
L 222.063433 -435.861359 
L 220.118617 -436.144986 
L 218.173802 -436.141979 
L 216.228986 -435.851654 
L 214.284171 -435.792463 
L 212.339355 -436.075913 
L 210.39454 -436.076282 
L 208.449724 -435.788527 
L 206.504909 -435.776933 
L 204.560093 -436.063672 
L 202.615277 -436.065001 
L 200.670462 -435.770473 
L 198.725646 -435.706742 
L 196.780831 -435.994677 
L 194.836015 -435.994112 
L 192.8912 -435.70532 
L 190.946384 -435.703613 
L 189.001568 -435.993587 
L 187.056753 -435.993375 
L 185.111937 -435.689512 
L 183.167122 -435.693025 
L 181.222306 -435.986943 
L 179.277491 -435.989054 
L 177.332675 -435.691282 
L 175.387859 -435.648989 
L 173.443044 -435.943722 
L 171.498228 -435.946714 
L 169.553413 -435.653892 
L 167.608597 -435.593822 
L 165.663782 -435.892936 
L 163.718966 -435.903529 
L 161.77415 -435.620777 
L 159.829335 -435.577961 
L 157.884519 -435.894376 
L 155.939704 -435.939789 
L 153.994888 -435.709241 
L 152.050073 -435.779252 
L 150.105257 -446.497227 
L 148.160441 -436.338758 
L 146.215626 -436.21816 
L 144.27081 -436.472454 
L 142.325995 -437.288298 
L 140.381179 -438.218427 
L 138.436364 -439.268444 
z
" style="stroke: #ffffff; stroke-opacity: 0.4"/>
    </defs>
    <g clip-path="url(#p5c5a59dec1)">
     <use xlink:href="#m3516e6be07" x="0" y="864" style="fill: #4c72b0; fill-opacity: 0.4; stroke: #ffffff; stroke-opacity: 0.4"/>
    </g>
   </g>
   <g id="line2d_28">
    <path d="M 138.436364 434.758638 
L 142.325995 435.405039 
L 146.215626 435.822616 
L 152.050073 436.098248 
L 196.780831 436.288526 
L 227.89788 436.222686 
L 229.842695 435.936249 
L 231.787511 435.819635 
L 235.677142 436.189737 
L 237.621958 435.979368 
L 239.566773 436.083254 
L 243.456404 435.893293 
L 253.180482 435.431884 
L 282.352716 434.897747 
L 288.187162 434.437627 
L 290.131978 433.310193 
L 294.021609 433.124668 
L 295.966425 432.130284 
L 297.91124 431.936676 
L 299.856056 431.425961 
L 301.800871 431.403458 
L 303.745687 431.15006 
L 305.690502 431.0404 
L 307.635318 430.169379 
L 311.524949 429.806773 
L 315.41458 429.725189 
L 319.304211 429.757617 
L 321.249027 429.265774 
L 323.193843 429.021579 
L 329.028289 428.522411 
L 330.973105 428.320499 
L 332.91792 428.788622 
L 336.807552 436.473917 
L 338.752367 436.578721 
L 340.697183 436.234436 
L 342.641998 436.054692 
L 344.586814 436.004025 
L 346.531629 435.60907 
L 350.421261 435.366365 
L 352.366076 435.3586 
L 356.255707 435.709218 
L 358.200523 435.589242 
L 362.090154 434.787919 
L 364.03497 434.687965 
L 367.924601 435.048967 
L 369.869416 435.083288 
L 375.703863 434.905882 
L 377.648678 434.883167 
L 379.593494 434.70676 
L 381.53831 434.683238 
L 385.427941 434.310895 
L 391.262387 434.040585 
L 393.207203 433.42963 
L 395.152019 432.959017 
L 397.096834 432.637608 
L 399.04165 431.960048 
L 400.986465 431.411398 
L 404.876096 430.657908 
L 406.820912 429.875427 
L 408.765728 429.792746 
L 410.710543 429.503708 
L 416.54499 429.361174 
L 420.434621 428.919533 
L 424.324252 428.801959 
L 426.269068 429.003266 
L 428.213883 428.856031 
L 432.103514 428.793167 
L 434.04833 428.523274 
L 435.993146 428.560786 
L 437.937961 430.905207 
L 439.882777 434.067375 
L 441.827592 436.271365 
L 445.717223 436.265748 
L 453.496486 436.079308 
L 455.441301 435.860991 
L 457.386117 435.770935 
L 463.220563 436.07857 
L 488.503166 435.883979 
L 490.447981 435.617191 
L 492.392797 435.479476 
L 496.282428 434.924837 
L 498.227244 434.832982 
L 502.116875 434.195243 
L 519.620215 433.684399 
L 521.56503 433.394594 
L 531.289108 433.154716 
L 541.013186 433.170996 
L 544.902817 436.243077 
L 548.792448 436.280672 
L 552.68208 436.249579 
L 556.571711 436.031399 
L 564.350973 436.135718 
L 568.240604 436.250205 
L 574.075051 436.277543 
L 577.964682 436.319204 
L 585.743944 436.005596 
L 589.633575 435.908055 
L 618.805809 436.042301 
L 622.69544 435.976201 
L 642.143596 435.878638 
L 646.033227 435.808164 
L 649.922858 436.286575 
L 655.757305 436.294261 
L 688.819169 436.21148 
L 702.432878 436.149533 
L 706.322509 436.221294 
L 719.936218 436.157514 
L 731.605112 436.054732 
L 747.163636 436.041227 
L 747.163636 436.041227 
" clip-path="url(#p5c5a59dec1)" style="fill: none; stroke: #4c72b0; stroke-width: 1.5; stroke-linecap: round"/>
   </g>
   <g id="patch_8">
    <path d="M 108 534.155294 
L 108 338.484706 
" style="fill: none; stroke: #262626; stroke-width: 1.25; stroke-linejoin: miter; stroke-linecap: square"/>
   </g>
   <g id="patch_9">
    <path d="M 777.6 534.155294 
L 777.6 338.484706 
" style="fill: none; stroke: #262626; stroke-width: 1.25; stroke-linejoin: miter; stroke-linecap: square"/>
   </g>
   <g id="patch_10">
    <path d="M 108 534.155294 
L 777.6 534.155294 
" style="fill: none; stroke: #262626; stroke-width: 1.25; stroke-linejoin: miter; stroke-linecap: square"/>
   </g>
   <g id="patch_11">
    <path d="M 108 338.484706 
L 777.6 338.484706 
" style="fill: none; stroke: #262626; stroke-width: 1.25; stroke-linejoin: miter; stroke-linecap: square"/>
   </g>
   <g id="text_28">
    <!-- sts_yearly_trend/ -->
    <g style="fill: #262626" transform="translate(397.114688 332.484706) scale(0.12 -0.12)">
     <defs>
      <path id="ArialMT-6c" d="M 409 0 
L 409 4581 
L 972 4581 
L 972 0 
L 409 0 
z
" transform="scale(0.015625)"/>
      <path id="ArialMT-64" d="M 2575 0 
L 2575 419 
Q 2259 -75 1647 -75 
Q 1250 -75 917 144 
Q 584 363 401 755 
Q 219 1147 219 1656 
Q 219 2153 384 2558 
Q 550 2963 881 3178 
Q 1213 3394 1622 3394 
Q 1922 3394 2156 3267 
Q 2391 3141 2538 2938 
L 2538 4581 
L 3097 4581 
L 3097 0 
L 2575 0 
z
M 797 1656 
Q 797 1019 1065 703 
Q 1334 388 1700 388 
Q 2069 388 2326 689 
Q 2584 991 2584 1609 
Q 2584 2291 2321 2609 
Q 2059 2928 1675 2928 
Q 1300 2928 1048 2622 
Q 797 2316 797 1656 
z
" transform="scale(0.015625)"/>
     </defs>
     <use xlink:href="#ArialMT-73"/>
     <use xlink:href="#ArialMT-74" x="50"/>
     <use xlink:href="#ArialMT-73" x="77.783203"/>
     <use xlink:href="#ArialMT-5f" x="127.783203"/>
     <use xlink:href="#ArialMT-79" x="183.398438"/>
     <use xlink:href="#ArialMT-65" x="233.398438"/>
     <use xlink:href="#ArialMT-61" x="289.013672"/>
     <use xlink:href="#ArialMT-72" x="344.628906"/>
     <use xlink:href="#ArialMT-6c" x="377.929688"/>
     <use xlink:href="#ArialMT-79" x="400.146484"/>
     <use xlink:href="#ArialMT-5f" x="450.146484"/>
     <use xlink:href="#ArialMT-74" x="505.761719"/>
     <use xlink:href="#ArialMT-72" x="533.544922"/>
     <use xlink:href="#ArialMT-65" x="566.845703"/>
     <use xlink:href="#ArialMT-6e" x="622.460938"/>
     <use xlink:href="#ArialMT-64" x="678.076172"/>
     <use xlink:href="#ArialMT-2f" x="733.691406"/>
    </g>
   </g>
  </g>
  <g id="axes_3">
   <g id="patch_12">
    <path d="M 108 768.96 
L 777.6 768.96 
L 777.6 573.289412 
L 108 573.289412 
z
" style="fill: #ffffff"/>
   </g>
   <g id="matplotlib.axis_5">
    <g id="xtick_15">
     <g id="line2d_29">
      <g>
       <use xlink:href="#mf3b8710753" x="128.434455" y="768.96" style="fill: #262626; stroke: #262626; stroke-width: 1.25"/>
      </g>
     </g>
     <g id="text_29">
      <!-- 2016 -->
      <g style="fill: #262626" transform="translate(116.200393 786.333594) scale(0.11 -0.11)">
       <use xlink:href="#ArialMT-32"/>
       <use xlink:href="#ArialMT-30" x="55.615234"/>
       <use xlink:href="#ArialMT-31" x="111.230469"/>
       <use xlink:href="#ArialMT-36" x="166.845703"/>
      </g>
     </g>
    </g>
    <g id="xtick_16">
     <g id="line2d_30">
      <g>
       <use xlink:href="#mf3b8710753" x="230.120526" y="768.96" style="fill: #262626; stroke: #262626; stroke-width: 1.25"/>
      </g>
     </g>
     <g id="text_30">
      <!-- 2017 -->
      <g style="fill: #262626" transform="translate(217.886464 786.333594) scale(0.11 -0.11)">
       <use xlink:href="#ArialMT-32"/>
       <use xlink:href="#ArialMT-30" x="55.615234"/>
       <use xlink:href="#ArialMT-31" x="111.230469"/>
       <use xlink:href="#ArialMT-37" x="166.845703"/>
      </g>
     </g>
    </g>
    <g id="xtick_17">
     <g id="line2d_31">
      <g>
       <use xlink:href="#mf3b8710753" x="331.528766" y="768.96" style="fill: #262626; stroke: #262626; stroke-width: 1.25"/>
      </g>
     </g>
     <g id="text_31">
      <!-- 2018 -->
      <g style="fill: #262626" transform="translate(319.294704 786.333594) scale(0.11 -0.11)">
       <use xlink:href="#ArialMT-32"/>
       <use xlink:href="#ArialMT-30" x="55.615234"/>
       <use xlink:href="#ArialMT-31" x="111.230469"/>
       <use xlink:href="#ArialMT-38" x="166.845703"/>
      </g>
     </g>
    </g>
    <g id="xtick_18">
     <g id="line2d_32">
      <g>
       <use xlink:href="#mf3b8710753" x="432.937007" y="768.96" style="fill: #262626; stroke: #262626; stroke-width: 1.25"/>
      </g>
     </g>
     <g id="text_32">
      <!-- 2019 -->
      <g style="fill: #262626" transform="translate(420.702944 786.333594) scale(0.11 -0.11)">
       <use xlink:href="#ArialMT-32"/>
       <use xlink:href="#ArialMT-30" x="55.615234"/>
       <use xlink:href="#ArialMT-31" x="111.230469"/>
       <use xlink:href="#ArialMT-39" x="166.845703"/>
      </g>
     </g>
    </g>
    <g id="xtick_19">
     <g id="line2d_33">
      <g>
       <use xlink:href="#mf3b8710753" x="534.345247" y="768.96" style="fill: #262626; stroke: #262626; stroke-width: 1.25"/>
      </g>
     </g>
     <g id="text_33">
      <!-- 2020 -->
      <g style="fill: #262626" transform="translate(522.111185 786.333594) scale(0.11 -0.11)">
       <use xlink:href="#ArialMT-32"/>
       <use xlink:href="#ArialMT-30" x="55.615234"/>
       <use xlink:href="#ArialMT-32" x="111.230469"/>
       <use xlink:href="#ArialMT-30" x="166.845703"/>
      </g>
     </g>
    </g>
    <g id="xtick_20">
     <g id="line2d_34">
      <g>
       <use xlink:href="#mf3b8710753" x="636.031318" y="768.96" style="fill: #262626; stroke: #262626; stroke-width: 1.25"/>
      </g>
     </g>
     <g id="text_34">
      <!-- 2021 -->
      <g style="fill: #262626" transform="translate(623.797256 786.333594) scale(0.11 -0.11)">
       <use xlink:href="#ArialMT-32"/>
       <use xlink:href="#ArialMT-30" x="55.615234"/>
       <use xlink:href="#ArialMT-32" x="111.230469"/>
       <use xlink:href="#ArialMT-31" x="166.845703"/>
      </g>
     </g>
    </g>
    <g id="xtick_21">
     <g id="line2d_35">
      <g>
       <use xlink:href="#mf3b8710753" x="737.439559" y="768.96" style="fill: #262626; stroke: #262626; stroke-width: 1.25"/>
      </g>
     </g>
     <g id="text_35">
      <!-- 2022 -->
      <g style="fill: #262626" transform="translate(725.205496 786.333594) scale(0.11 -0.11)">
       <use xlink:href="#ArialMT-32"/>
       <use xlink:href="#ArialMT-30" x="55.615234"/>
       <use xlink:href="#ArialMT-32" x="111.230469"/>
       <use xlink:href="#ArialMT-32" x="166.845703"/>
      </g>
     </g>
    </g>
   </g>
   <g id="matplotlib.axis_6">
    <g id="ytick_13">
     <g id="line2d_36">
      <g>
       <use xlink:href="#me2118546d9" x="108" y="756.665609" style="fill: #262626; stroke: #262626; stroke-width: 1.25"/>
      </g>
     </g>
     <g id="text_36">
      <!-- −4 -->
      <g style="fill: #262626" transform="translate(85.958281 760.602405) scale(0.11 -0.11)">
       <use xlink:href="#ArialMT-2212"/>
       <use xlink:href="#ArialMT-34" x="58.398438"/>
      </g>
     </g>
    </g>
    <g id="ytick_14">
     <g id="line2d_37">
      <g>
       <use xlink:href="#me2118546d9" x="108" y="730.606696" style="fill: #262626; stroke: #262626; stroke-width: 1.25"/>
      </g>
     </g>
     <g id="text_37">
      <!-- −3 -->
      <g style="fill: #262626" transform="translate(85.958281 734.543493) scale(0.11 -0.11)">
       <defs>
        <path id="ArialMT-33" d="M 269 1209 
L 831 1284 
Q 928 806 1161 595 
Q 1394 384 1728 384 
Q 2125 384 2398 659 
Q 2672 934 2672 1341 
Q 2672 1728 2419 1979 
Q 2166 2231 1775 2231 
Q 1616 2231 1378 2169 
L 1441 2663 
Q 1497 2656 1531 2656 
Q 1891 2656 2178 2843 
Q 2466 3031 2466 3422 
Q 2466 3731 2256 3934 
Q 2047 4138 1716 4138 
Q 1388 4138 1169 3931 
Q 950 3725 888 3313 
L 325 3413 
Q 428 3978 793 4289 
Q 1159 4600 1703 4600 
Q 2078 4600 2393 4439 
Q 2709 4278 2876 4000 
Q 3044 3722 3044 3409 
Q 3044 3113 2884 2869 
Q 2725 2625 2413 2481 
Q 2819 2388 3044 2092 
Q 3269 1797 3269 1353 
Q 3269 753 2831 336 
Q 2394 -81 1725 -81 
Q 1122 -81 723 278 
Q 325 638 269 1209 
z
" transform="scale(0.015625)"/>
       </defs>
       <use xlink:href="#ArialMT-2212"/>
       <use xlink:href="#ArialMT-33" x="58.398438"/>
      </g>
     </g>
    </g>
    <g id="ytick_15">
     <g id="line2d_38">
      <g>
       <use xlink:href="#me2118546d9" x="108" y="704.547784" style="fill: #262626; stroke: #262626; stroke-width: 1.25"/>
      </g>
     </g>
     <g id="text_38">
      <!-- −2 -->
      <g style="fill: #262626" transform="translate(85.958281 708.484581) scale(0.11 -0.11)">
       <use xlink:href="#ArialMT-2212"/>
       <use xlink:href="#ArialMT-32" x="58.398438"/>
      </g>
     </g>
    </g>
    <g id="ytick_16">
     <g id="line2d_39">
      <g>
       <use xlink:href="#me2118546d9" x="108" y="678.488872" style="fill: #262626; stroke: #262626; stroke-width: 1.25"/>
      </g>
     </g>
     <g id="text_39">
      <!-- −1 -->
      <g style="fill: #262626" transform="translate(85.958281 682.425669) scale(0.11 -0.11)">
       <use xlink:href="#ArialMT-2212"/>
       <use xlink:href="#ArialMT-31" x="58.398438"/>
      </g>
     </g>
    </g>
    <g id="ytick_17">
     <g id="line2d_40">
      <g>
       <use xlink:href="#me2118546d9" x="108" y="652.42996" style="fill: #262626; stroke: #262626; stroke-width: 1.25"/>
      </g>
     </g>
     <g id="text_40">
      <!-- 0 -->
      <g style="fill: #262626" transform="translate(92.382969 656.366756) scale(0.11 -0.11)">
       <use xlink:href="#ArialMT-30"/>
      </g>
     </g>
    </g>
    <g id="ytick_18">
     <g id="line2d_41">
      <g>
       <use xlink:href="#me2118546d9" x="108" y="626.371047" style="fill: #262626; stroke: #262626; stroke-width: 1.25"/>
      </g>
     </g>
     <g id="text_41">
      <!-- 1 -->
      <g style="fill: #262626" transform="translate(92.382969 630.307844) scale(0.11 -0.11)">
       <use xlink:href="#ArialMT-31"/>
      </g>
     </g>
    </g>
    <g id="ytick_19">
     <g id="line2d_42">
      <g>
       <use xlink:href="#me2118546d9" x="108" y="600.312135" style="fill: #262626; stroke: #262626; stroke-width: 1.25"/>
      </g>
     </g>
     <g id="text_42">
      <!-- 2 -->
      <g style="fill: #262626" transform="translate(92.382969 604.248932) scale(0.11 -0.11)">
       <use xlink:href="#ArialMT-32"/>
      </g>
     </g>
    </g>
    <g id="ytick_20">
     <g id="line2d_43">
      <g>
       <use xlink:href="#me2118546d9" x="108" y="574.253223" style="fill: #262626; stroke: #262626; stroke-width: 1.25"/>
      </g>
     </g>
     <g id="text_43">
      <!-- 3 -->
      <g style="fill: #262626" transform="translate(92.382969 578.19002) scale(0.11 -0.11)">
       <use xlink:href="#ArialMT-33"/>
      </g>
     </g>
    </g>
   </g>
   <g id="PolyCollection_3">
    <defs>
     <path id="m9d2d850fbe" d="M 138.436364 -281.816471 
L 138.436364 -103.934118 
L 140.381179 -130.17226 
L 142.325995 -149.909294 
L 144.27081 -164.717664 
L 146.215626 -175.78664 
L 148.160441 -184.005801 
L 150.105257 -190.049876 
L 152.050073 -194.42563 
L 153.994888 -197.526961 
L 155.939704 -199.6678 
L 157.884519 -201.107259 
L 159.829335 -202.054161 
L 161.77415 -202.66898 
L 163.718966 -203.06683 
L 165.663782 -203.325749 
L 167.608597 -203.496288 
L 169.553413 -203.610375 
L 171.498228 -203.688017 
L 173.443044 -203.741706 
L 175.387859 -203.779415 
L 177.332675 -203.806281 
L 179.277491 -203.825654 
L 181.222306 -203.839758 
L 183.167122 -203.85009 
L 185.111937 -203.857688 
L 187.056753 -203.863351 
L 189.001568 -203.867487 
L 190.946384 -203.870596 
L 192.8912 -203.872721 
L 194.836015 -203.874411 
L 196.780831 -203.875539 
L 198.725646 -203.876243 
L 200.670462 -203.876839 
L 202.615277 -203.877144 
L 204.560093 -203.87735 
L 206.504909 -203.87745 
L 208.449724 -203.877476 
L 210.39454 -203.877472 
L 212.339355 -203.877422 
L 214.284171 -203.877288 
L 216.228986 -203.877331 
L 218.173802 -203.877153 
L 220.118617 -203.877053 
L 222.063433 -203.8771 
L 224.008249 -203.877161 
L 225.953064 -203.877228 
L 227.89788 -203.876646 
L 229.842695 -203.877201 
L 231.787511 -203.87747 
L 233.732326 -203.877466 
L 235.677142 -203.877198 
L 237.621958 -203.879077 
L 239.566773 -203.878861 
L 241.511589 -203.879808 
L 243.456404 -203.880867 
L 245.40122 -203.881261 
L 247.346035 -203.882086 
L 249.290851 -203.882156 
L 251.235667 -203.88229 
L 253.180482 -203.88252 
L 255.125298 -203.882688 
L 257.070113 -203.8826 
L 259.014929 -203.882734 
L 260.959744 -203.882628 
L 262.90456 -203.882685 
L 264.849376 -203.882649 
L 266.794191 -203.882665 
L 268.739007 -203.88251 
L 270.683822 -203.882408 
L 272.628638 -203.882572 
L 274.573453 -203.882656 
L 276.518269 -203.882608 
L 278.463085 -203.882772 
L 280.4079 -203.882743 
L 282.352716 -203.882857 
L 284.297531 -203.883333 
L 286.242347 -203.883967 
L 288.187162 -203.881936 
L 290.131978 -203.885842 
L 292.076793 -203.884273 
L 294.021609 -203.883294 
L 295.966425 -203.88665 
L 297.91124 -203.884668 
L 299.856056 -203.886067 
L 301.800871 -203.885352 
L 303.745687 -203.886441 
L 305.690502 -203.885041 
L 307.635318 -203.887332 
L 309.580134 -203.885796 
L 311.524949 -203.885721 
L 313.469765 -203.886058 
L 315.41458 -203.886462 
L 317.359396 -203.886338 
L 319.304211 -203.885177 
L 321.249027 -203.88575 
L 323.193843 -203.885506 
L 325.138658 -203.886128 
L 327.083474 -203.885337 
L 329.028289 -203.883728 
L 330.973105 -203.881892 
L 332.91792 -203.886146 
L 334.862736 -203.881074 
L 336.807552 -203.876182 
L 338.752367 -203.881056 
L 340.697183 -203.879617 
L 342.641998 -203.877888 
L 344.586814 -203.877742 
L 346.531629 -203.880155 
L 348.476445 -203.880186 
L 350.421261 -203.880151 
L 352.366076 -203.880401 
L 354.310892 -203.880615 
L 356.255707 -203.880799 
L 358.200523 -203.880955 
L 360.145338 -203.881084 
L 362.090154 -203.881191 
L 364.03497 -203.881286 
L 365.979785 -203.881376 
L 367.924601 -203.881472 
L 369.869416 -203.881592 
L 371.814232 -203.881762 
L 373.759047 -203.881546 
L 375.703863 -203.881824 
L 377.648678 -203.881641 
L 379.593494 -203.882182 
L 381.53831 -203.881438 
L 383.483125 -203.881598 
L 385.427941 -203.881589 
L 387.372756 -203.881809 
L 389.317572 -203.881819 
L 391.262387 -203.881352 
L 393.207203 -203.882453 
L 395.152019 -203.882584 
L 397.096834 -203.881927 
L 399.04165 -203.883124 
L 400.986465 -203.883455 
L 402.931281 -203.883579 
L 404.876096 -203.882866 
L 406.820912 -203.88509 
L 408.765728 -203.883681 
L 410.710543 -203.884725 
L 412.655359 -203.884698 
L 414.600174 -203.884769 
L 416.54499 -203.884744 
L 418.489805 -203.885162 
L 420.434621 -203.885502 
L 422.379437 -203.885473 
L 424.324252 -203.885897 
L 426.269068 -203.885415 
L 428.213883 -203.887307 
L 430.158699 -203.887796 
L 432.103514 -203.886544 
L 434.04833 -203.885531 
L 435.993146 -203.887539 
L 437.937961 -203.885065 
L 439.882777 -203.882961 
L 441.827592 -203.881061 
L 443.772408 -203.883087 
L 445.717223 -203.881119 
L 447.662039 -203.88016 
L 449.606854 -203.880514 
L 451.55167 -203.881262 
L 453.496486 -203.880608 
L 455.441301 -203.880642 
L 457.386117 -203.880656 
L 459.330932 -203.880645 
L 461.275748 -203.880617 
L 463.220563 -203.881004 
L 465.165379 -203.880785 
L 467.110195 -203.880698 
L 469.05501 -203.880779 
L 470.999826 -203.880973 
L 472.944641 -203.880487 
L 474.889457 -203.880972 
L 476.834272 -203.880645 
L 478.779088 -203.880538 
L 480.723904 -203.880574 
L 482.668719 -203.880507 
L 484.613535 -203.880459 
L 486.55835 -203.880257 
L 488.503166 -203.879898 
L 490.447981 -203.880375 
L 492.392797 -203.879617 
L 494.337613 -203.88001 
L 496.282428 -203.880141 
L 498.227244 -203.879486 
L 500.172059 -203.879937 
L 502.116875 -203.880197 
L 504.06169 -203.879857 
L 506.006506 -203.88002 
L 507.951322 -203.880163 
L 509.896137 -203.880176 
L 511.840953 -203.880288 
L 513.785768 -203.880321 
L 515.730584 -203.880487 
L 517.675399 -203.880934 
L 519.620215 -203.880138 
L 521.56503 -203.881405 
L 523.509846 -203.881293 
L 525.454662 -203.881376 
L 527.399477 -203.881953 
L 529.344293 -203.882137 
L 531.289108 -203.882929 
L 533.233924 -203.883757 
L 535.178739 -203.884346 
L 537.123555 -203.883952 
L 539.068371 -203.883431 
L 541.013186 -203.885718 
L 542.958002 -203.883434 
L 544.902817 -203.881526 
L 546.847633 -203.883723 
L 548.792448 -203.882878 
L 550.737264 -203.882018 
L 552.68208 -203.881758 
L 554.626895 -203.88245 
L 556.571711 -203.882391 
L 558.516526 -203.882044 
L 560.461342 -203.881924 
L 562.406157 -203.882085 
L 564.350973 -203.881876 
L 566.295789 -203.881739 
L 568.240604 -203.881646 
L 570.18542 -203.881581 
L 572.130235 -203.881531 
L 574.075051 -203.881491 
L 576.019866 -203.881459 
L 577.964682 -203.881426 
L 579.909498 -203.881393 
L 581.854313 -203.881355 
L 583.799129 -203.881313 
L 585.743944 -203.881265 
L 587.68876 -203.881206 
L 589.633575 -203.88114 
L 591.578391 -203.881069 
L 593.523207 -203.881005 
L 595.468022 -203.881018 
L 597.412838 -203.88084 
L 599.357653 -203.880812 
L 601.302469 -203.880729 
L 603.247284 -203.880688 
L 605.1921 -203.880458 
L 607.136915 -203.880505 
L 609.081731 -203.880432 
L 611.026547 -203.88025 
L 612.971362 -203.880153 
L 614.916178 -203.880183 
L 616.860993 -203.880291 
L 618.805809 -203.880132 
L 620.750624 -203.880333 
L 622.69544 -203.880307 
L 624.640256 -203.88017 
L 626.585071 -203.880284 
L 628.529887 -203.880387 
L 630.474702 -203.880489 
L 632.419518 -203.880801 
L 634.364333 -203.880877 
L 636.309149 -203.881378 
L 638.253965 -203.881637 
L 640.19878 -203.881893 
L 642.143596 -203.881782 
L 644.088411 -203.88188 
L 646.033227 -203.882193 
L 647.978042 -203.881852 
L 649.922858 -203.881717 
L 651.867674 -203.882013 
L 653.812489 -203.881988 
L 655.757305 -203.881814 
L 657.70212 -203.881858 
L 659.646936 -203.881741 
L 661.591751 -203.881904 
L 663.536567 -203.881851 
L 665.481383 -203.881746 
L 667.426198 -203.881779 
L 669.371014 -203.88183 
L 671.315829 -203.881815 
L 673.260645 -203.881683 
L 675.20546 -203.881756 
L 677.150276 -203.881711 
L 679.095091 -203.881693 
L 681.039907 -203.881572 
L 682.984723 -203.881705 
L 684.929538 -203.881628 
L 686.874354 -203.881685 
L 688.819169 -203.88162 
L 690.763985 -203.881655 
L 692.7088 -203.881681 
L 694.653616 -203.881651 
L 696.598432 -203.881677 
L 698.543247 -203.88163 
L 700.488063 -203.88164 
L 702.432878 -203.881627 
L 704.377694 -203.881766 
L 706.322509 -203.881472 
L 708.267325 -203.881681 
L 710.212141 -203.88168 
L 712.156956 -203.88151 
L 714.101772 -203.88164 
L 716.046587 -203.881598 
L 717.991403 -203.881595 
L 719.936218 -203.881517 
L 721.881034 -203.88161 
L 723.82585 -203.881609 
L 725.770665 -203.881609 
L 727.715481 -203.881484 
L 729.660296 -203.881686 
L 731.605112 -203.881607 
L 733.549927 -203.881601 
L 735.494743 -203.881616 
L 737.439559 -203.881637 
L 739.384374 -203.881678 
L 741.32919 -203.881722 
L 743.274005 -203.881754 
L 745.218821 -203.881643 
L 747.163636 -203.881717 
L 747.163636 -219.258593 
L 747.163636 -219.258593 
L 745.218821 -219.258479 
L 743.274005 -219.258496 
L 741.32919 -219.258379 
L 739.384374 -219.258326 
L 737.439559 -219.258362 
L 735.494743 -219.258326 
L 733.549927 -219.258241 
L 731.605112 -219.258246 
L 729.660296 -219.258387 
L 727.715481 -219.258187 
L 725.770665 -219.258247 
L 723.82585 -219.258247 
L 721.881034 -219.258319 
L 719.936218 -219.258225 
L 717.991403 -219.25823 
L 716.046587 -219.258233 
L 714.101772 -219.258338 
L 712.156956 -219.258204 
L 710.212141 -219.258315 
L 708.267325 -219.258316 
L 706.322509 -219.258168 
L 704.377694 -219.258472 
L 702.432878 -219.25826 
L 700.488063 -219.258272 
L 698.543247 -219.258323 
L 696.598432 -219.25837 
L 694.653616 -219.258284 
L 692.7088 -219.258315 
L 690.763985 -219.258348 
L 688.819169 -219.258326 
L 686.874354 -219.258335 
L 684.929538 -219.258296 
L 682.984723 -219.258474 
L 681.039907 -219.258358 
L 679.095091 -219.258427 
L 677.150276 -219.258451 
L 675.20546 -219.258567 
L 673.260645 -219.258496 
L 671.315829 -219.258556 
L 669.371014 -219.258569 
L 667.426198 -219.258586 
L 665.481383 -219.258548 
L 663.536567 -219.258572 
L 661.591751 -219.258595 
L 659.646936 -219.258441 
L 657.70212 -219.258495 
L 655.757305 -219.258304 
L 653.812489 -219.258444 
L 651.867674 -219.258495 
L 649.922858 -219.258253 
L 647.978042 -219.25859 
L 646.033227 -219.258749 
L 644.088411 -219.258614 
L 642.143596 -219.258299 
L 640.19878 -219.258295 
L 638.253965 -219.258048 
L 636.309149 -219.257846 
L 634.364333 -219.257348 
L 632.419518 -219.257227 
L 630.474702 -219.257032 
L 628.529887 -219.257133 
L 626.585071 -219.257029 
L 624.640256 -219.256714 
L 622.69544 -219.256733 
L 620.750624 -219.256806 
L 618.805809 -219.256591 
L 616.860993 -219.2568 
L 614.916178 -219.256914 
L 612.971362 -219.256711 
L 611.026547 -219.256982 
L 609.081731 -219.256939 
L 607.136915 -219.256911 
L 605.1921 -219.256912 
L 603.247284 -219.257147 
L 601.302469 -219.257138 
L 599.357653 -219.25722 
L 597.412838 -219.257335 
L 595.468022 -219.257623 
L 593.523207 -219.257631 
L 591.578391 -219.257926 
L 589.633575 -219.258128 
L 587.68876 -219.25827 
L 585.743944 -219.258371 
L 583.799129 -219.258444 
L 581.854313 -219.2585 
L 579.909498 -219.258543 
L 577.964682 -219.258579 
L 576.019866 -219.258608 
L 574.075051 -219.258636 
L 572.130235 -219.258662 
L 570.18542 -219.258687 
L 568.240604 -219.25871 
L 566.295789 -219.258727 
L 564.350973 -219.258732 
L 562.406157 -219.258708 
L 560.461342 -219.258503 
L 558.516526 -219.258524 
L 556.571711 -219.258847 
L 554.626895 -219.258864 
L 552.68208 -219.258173 
L 550.737264 -219.258496 
L 548.792448 -219.259338 
L 546.847633 -219.260134 
L 544.902817 -219.258016 
L 542.958002 -219.260163 
L 541.013186 -219.262214 
L 539.068371 -219.259834 
L 537.123555 -219.26036 
L 535.178739 -219.260801 
L 533.233924 -219.260218 
L 531.289108 -219.25933 
L 529.344293 -219.258536 
L 527.399477 -219.258397 
L 525.454662 -219.257815 
L 523.509846 -219.257692 
L 521.56503 -219.257804 
L 519.620215 -219.256579 
L 517.675399 -219.257382 
L 515.730584 -219.256885 
L 513.785768 -219.256717 
L 511.840953 -219.256727 
L 509.896137 -219.256614 
L 507.951322 -219.256561 
L 506.006506 -219.256421 
L 504.06169 -219.256299 
L 502.116875 -219.256648 
L 500.172059 -219.256352 
L 498.227244 -219.255921 
L 496.282428 -219.256652 
L 494.337613 -219.25654 
L 492.392797 -219.256119 
L 490.447981 -219.256882 
L 488.503166 -219.256452 
L 486.55835 -219.256813 
L 484.613535 -219.256969 
L 482.668719 -219.257016 
L 480.723904 -219.257129 
L 478.779088 -219.257095 
L 476.834272 -219.257144 
L 474.889457 -219.257455 
L 472.944641 -219.256998 
L 470.999826 -219.257456 
L 469.05501 -219.257203 
L 467.110195 -219.257116 
L 465.165379 -219.257279 
L 463.220563 -219.257541 
L 461.275748 -219.257249 
L 459.330932 -219.25746 
L 457.386117 -219.25753 
L 455.441301 -219.257473 
L 453.496486 -219.257278 
L 451.55167 -219.257809 
L 449.606854 -219.25705 
L 447.662039 -219.256648 
L 445.717223 -219.25756 
L 443.772408 -219.259516 
L 441.827592 -219.257613 
L 439.882777 -219.259709 
L 437.937961 -219.261809 
L 435.993146 -219.264079 
L 434.04833 -219.261981 
L 432.103514 -219.263007 
L 430.158699 -219.264194 
L 428.213883 -219.263708 
L 426.269068 -219.261851 
L 424.324252 -219.262337 
L 422.379437 -219.261871 
L 420.434621 -219.261898 
L 418.489805 -219.261597 
L 416.54499 -219.261179 
L 414.600174 -219.261166 
L 412.655359 -219.261094 
L 410.710543 -219.261157 
L 408.765728 -219.260113 
L 406.820912 -219.261488 
L 404.876096 -219.259264 
L 402.931281 -219.260014 
L 400.986465 -219.25989 
L 399.04165 -219.259522 
L 397.096834 -219.258325 
L 395.152019 -219.259021 
L 393.207203 -219.258892 
L 391.262387 -219.257756 
L 389.317572 -219.258217 
L 387.372756 -219.258301 
L 385.427941 -219.258315 
L 383.483125 -219.258086 
L 381.53831 -219.257843 
L 379.593494 -219.258628 
L 377.648678 -219.258087 
L 375.703863 -219.258261 
L 373.759047 -219.258114 
L 371.814232 -219.258385 
L 369.869416 -219.258447 
L 367.924601 -219.258457 
L 365.979785 -219.25843 
L 364.03497 -219.258376 
L 362.090154 -219.258292 
L 360.145338 -219.258173 
L 358.200523 -219.258009 
L 356.255707 -219.257783 
L 354.310892 -219.257467 
L 352.366076 -219.257019 
L 350.421261 -219.256724 
L 348.476445 -219.256655 
L 346.531629 -219.256605 
L 344.586814 -219.254147 
L 342.641998 -219.254293 
L 340.697183 -219.256061 
L 338.752367 -219.257491 
L 336.807552 -219.252675 
L 334.862736 -219.257801 
L 332.91792 -219.262651 
L 330.973105 -219.258327 
L 329.028289 -219.26014 
L 327.083474 -219.261743 
L 325.138658 -219.262569 
L 323.193843 -219.261943 
L 321.249027 -219.262151 
L 319.304211 -219.261575 
L 317.359396 -219.262765 
L 315.41458 -219.262888 
L 313.469765 -219.262454 
L 311.524949 -219.262115 
L 309.580134 -219.262222 
L 307.635318 -219.263758 
L 305.690502 -219.261437 
L 303.745687 -219.262836 
L 301.800871 -219.261779 
L 299.856056 -219.262493 
L 297.91124 -219.261064 
L 295.966425 -219.263046 
L 294.021609 -219.25972 
L 292.076793 -219.260704 
L 290.131978 -219.262238 
L 288.187162 -219.258332 
L 286.242347 -219.260396 
L 284.297531 -219.259762 
L 282.352716 -219.259257 
L 280.4079 -219.259149 
L 278.463085 -219.259216 
L 276.518269 -219.259082 
L 274.573453 -219.259115 
L 272.628638 -219.259054 
L 270.683822 -219.258939 
L 268.739007 -219.259045 
L 266.794191 -219.259157 
L 264.849376 -219.259128 
L 262.90456 -219.259174 
L 260.959744 -219.259092 
L 259.014929 -219.259147 
L 257.070113 -219.259003 
L 255.125298 -219.259118 
L 253.180482 -219.258948 
L 251.235667 -219.258687 
L 249.290851 -219.258551 
L 247.346035 -219.258513 
L 245.40122 -219.257686 
L 243.456404 -219.257265 
L 241.511589 -219.256205 
L 239.566773 -219.255324 
L 237.621958 -219.255569 
L 235.677142 -219.253744 
L 233.732326 -219.254213 
L 231.787511 -219.254276 
L 229.842695 -219.253946 
L 227.89788 -219.253187 
L 225.953064 -219.25369 
L 224.008249 -219.253591 
L 222.063433 -219.253497 
L 220.118617 -219.253424 
L 218.173802 -219.253518 
L 216.228986 -219.25371 
L 214.284171 -219.25366 
L 212.339355 -219.253768 
L 210.39454 -219.253809 
L 208.449724 -219.253827 
L 206.504909 -219.253793 
L 204.560093 -219.253668 
L 202.615277 -219.253458 
L 200.670462 -219.25317 
L 198.725646 -219.252575 
L 196.780831 -219.251861 
L 194.836015 -219.250759 
L 192.8912 -219.249142 
L 190.946384 -219.247118 
L 189.001568 -219.244172 
L 187.056753 -219.240367 
L 185.111937 -219.235314 
L 183.167122 -219.228761 
L 181.222306 -219.220247 
L 179.277491 -219.209383 
L 177.332675 -219.195716 
L 175.387859 -219.178821 
L 173.443044 -219.158567 
L 171.498228 -219.135514 
L 169.553413 -219.111503 
L 167.608597 -219.091019 
L 165.663782 -219.083282 
L 163.718966 -219.106085 
L 161.77415 -219.191124 
L 159.829335 -219.391455 
L 157.884519 -219.789278 
L 155.939704 -220.501232 
L 153.994888 -221.67816 
L 152.050073 -223.501633 
L 150.105257 -226.184901 
L 148.160441 -229.985022 
L 146.215626 -235.230736 
L 144.27081 -242.358958 
L 142.325995 -251.943249 
L 140.381179 -264.755818 
L 138.436364 -281.816471 
z
" style="stroke: #ffffff; stroke-opacity: 0.4"/>
    </defs>
    <g clip-path="url(#p06ac6330a1)">
     <use xlink:href="#m9d2d850fbe" x="0" y="864" style="fill: #4c72b0; fill-opacity: 0.4; stroke: #ffffff; stroke-opacity: 0.4"/>
    </g>
   </g>
   <g id="line2d_44">
    <path d="M 138.436364 671.124706 
L 140.381179 666.535958 
L 142.325995 663.073729 
L 144.27081 660.461688 
L 146.215626 658.491313 
L 148.160441 657.004588 
L 150.105257 655.882611 
L 152.050073 655.036369 
L 153.994888 654.39744 
L 155.939704 653.915484 
L 159.829335 653.277192 
L 163.718966 652.913543 
L 169.553413 652.639061 
L 179.277491 652.482481 
L 202.615277 652.434699 
L 747.163636 652.429845 
L 747.163636 652.429845 
" clip-path="url(#p06ac6330a1)" style="fill: none; stroke: #4c72b0; stroke-width: 1.5; stroke-linecap: round"/>
   </g>
   <g id="patch_13">
    <path d="M 108 768.96 
L 108 573.289412 
" style="fill: none; stroke: #262626; stroke-width: 1.25; stroke-linejoin: miter; stroke-linecap: square"/>
   </g>
   <g id="patch_14">
    <path d="M 777.6 768.96 
L 777.6 573.289412 
" style="fill: none; stroke: #262626; stroke-width: 1.25; stroke-linejoin: miter; stroke-linecap: square"/>
   </g>
   <g id="patch_15">
    <path d="M 108 768.96 
L 777.6 768.96 
" style="fill: none; stroke: #262626; stroke-width: 1.25; stroke-linejoin: miter; stroke-linecap: square"/>
   </g>
   <g id="patch_16">
    <path d="M 108 573.289412 
L 777.6 573.289412 
" style="fill: none; stroke: #262626; stroke-width: 1.25; stroke-linejoin: miter; stroke-linecap: square"/>
   </g>
   <g id="text_44">
    <!-- sts_AR/ -->
    <g style="fill: #262626" transform="translate(421.794375 567.289412) scale(0.12 -0.12)">
     <defs>
      <path id="ArialMT-41" d="M -9 0 
L 1750 4581 
L 2403 4581 
L 4278 0 
L 3588 0 
L 3053 1388 
L 1138 1388 
L 634 0 
L -9 0 
z
M 1313 1881 
L 2866 1881 
L 2388 3150 
Q 2169 3728 2063 4100 
Q 1975 3659 1816 3225 
L 1313 1881 
z
" transform="scale(0.015625)"/>
      <path id="ArialMT-52" d="M 503 0 
L 503 4581 
L 2534 4581 
Q 3147 4581 3465 4457 
Q 3784 4334 3975 4021 
Q 4166 3709 4166 3331 
Q 4166 2844 3850 2509 
Q 3534 2175 2875 2084 
Q 3116 1969 3241 1856 
Q 3506 1613 3744 1247 
L 4541 0 
L 3778 0 
L 3172 953 
Q 2906 1366 2734 1584 
Q 2563 1803 2427 1890 
Q 2291 1978 2150 2013 
Q 2047 2034 1813 2034 
L 1109 2034 
L 1109 0 
L 503 0 
z
M 1109 2559 
L 2413 2559 
Q 2828 2559 3062 2645 
Q 3297 2731 3419 2920 
Q 3541 3109 3541 3331 
Q 3541 3656 3305 3865 
Q 3069 4075 2559 4075 
L 1109 4075 
L 1109 2559 
z
" transform="scale(0.015625)"/>
     </defs>
     <use xlink:href="#ArialMT-73"/>
     <use xlink:href="#ArialMT-74" x="50"/>
     <use xlink:href="#ArialMT-73" x="77.783203"/>
     <use xlink:href="#ArialMT-5f" x="127.783203"/>
     <use xlink:href="#ArialMT-41" x="183.398438"/>
     <use xlink:href="#ArialMT-52" x="250.097656"/>
     <use xlink:href="#ArialMT-2f" x="322.314453"/>
    </g>
   </g>
  </g>
 </g>
 <defs>
  <clipPath id="p237b8d1820">
   <rect x="108" y="103.68" width="669.6" height="195.670588"/>
  </clipPath>
  <clipPath id="p5c5a59dec1">
   <rect x="108" y="338.484706" width="669.6" height="195.670588"/>
  </clipPath>
  <clipPath id="p06ac6330a1">
   <rect x="108" y="573.289412" width="669.6" height="195.670588"/>
  </clipPath>
 </defs>
</svg>
