<?xml version="1.0" encoding="utf-8" standalone="no"?>
<!DOCTYPE svg PUBLIC "-//W3C//DTD SVG 1.1//EN"
  "http://www.w3.org/Graphics/SVG/1.1/DTD/svg11.dtd">
<svg xmlns:xlink="http://www.w3.org/1999/xlink" width="460.8pt" height="345.6pt" viewBox="0 0 460.8 345.6" xmlns="http://www.w3.org/2000/svg" version="1.1">
 <metadata>
  <rdf:RDF xmlns:dc="http://purl.org/dc/elements/1.1/" xmlns:cc="http://creativecommons.org/ns#" xmlns:rdf="http://www.w3.org/1999/02/22-rdf-syntax-ns#">
   <cc:Work>
    <dc:type rdf:resource="http://purl.org/dc/dcmitype/StillImage"/>
    <dc:date>2023-07-11T01:57:08.365095</dc:date>
    <dc:format>image/svg+xml</dc:format>
    <dc:creator>
     <cc:Agent>
      <dc:title>Matplotlib v3.7.1, https://matplotlib.org/</dc:title>
     </cc:Agent>
    </dc:creator>
   </cc:Work>
  </rdf:RDF>
 </metadata>
 <defs>
  <style type="text/css">*{stroke-linejoin: round; stroke-linecap: butt}</style>
 </defs>
 <g id="figure_1">
  <g id="patch_1">
   <path d="M 0 345.6 
L 460.8 345.6 
L 460.8 0 
L 0 0 
z
" style="fill: #ffffff"/>
  </g>
  <g id="axes_1">
   <g id="patch_2">
    <path d="M 68.46 84.585 
L 447.84 84.585 
L 447.84 27.76 
L 68.46 27.76 
z
" style="fill: #ffffff"/>
   </g>
   <g id="matplotlib.axis_1">
    <g id="xtick_1">
     <g id="line2d_1">
      <defs>
       <path id="m5fe890dc79" d="M 0 0 
L 0 6 
" style="stroke: #262626; stroke-width: 1.25"/>
      </defs>
      <g>
       <use xlink:href="#m5fe890dc79" x="114.914694" y="84.585" style="fill: #262626; stroke: #262626; stroke-width: 1.25"/>
      </g>
     </g>
    </g>
    <g id="xtick_2">
     <g id="line2d_2">
      <g>
       <use xlink:href="#m5fe890dc79" x="166.296401" y="84.585" style="fill: #262626; stroke: #262626; stroke-width: 1.25"/>
      </g>
     </g>
    </g>
    <g id="xtick_3">
     <g id="line2d_3">
      <g>
       <use xlink:href="#m5fe890dc79" x="217.678108" y="84.585" style="fill: #262626; stroke: #262626; stroke-width: 1.25"/>
      </g>
     </g>
    </g>
    <g id="xtick_4">
     <g id="line2d_4">
      <g>
       <use xlink:href="#m5fe890dc79" x="269.059814" y="84.585" style="fill: #262626; stroke: #262626; stroke-width: 1.25"/>
      </g>
     </g>
    </g>
    <g id="xtick_5">
     <g id="line2d_5">
      <g>
       <use xlink:href="#m5fe890dc79" x="320.582293" y="84.585" style="fill: #262626; stroke: #262626; stroke-width: 1.25"/>
      </g>
     </g>
    </g>
    <g id="xtick_6">
     <g id="line2d_6">
      <g>
       <use xlink:href="#m5fe890dc79" x="371.964" y="84.585" style="fill: #262626; stroke: #262626; stroke-width: 1.25"/>
      </g>
     </g>
    </g>
    <g id="xtick_7">
     <g id="line2d_7">
      <g>
       <use xlink:href="#m5fe890dc79" x="423.345707" y="84.585" style="fill: #262626; stroke: #262626; stroke-width: 1.25"/>
      </g>
     </g>
    </g>
   </g>
   <g id="matplotlib.axis_2">
    <g id="ytick_1">
     <g id="line2d_8">
      <defs>
       <path id="mcac99f570c" d="M 0 0 
L -6 0 
" style="stroke: #262626; stroke-width: 1.25"/>
      </defs>
      <g>
       <use xlink:href="#mcac99f570c" x="68.46" y="82.002045" style="fill: #262626; stroke: #262626; stroke-width: 1.25"/>
      </g>
     </g>
     <g id="text_1">
      <!-- 0 -->
      <g style="fill: #262626" transform="translate(52.842969 85.938842) scale(0.11 -0.11)">
       <defs>
        <path id="ArialMT-30" d="M 266 2259 
Q 266 3072 433 3567 
Q 600 4063 929 4331 
Q 1259 4600 1759 4600 
Q 2128 4600 2406 4451 
Q 2684 4303 2865 4023 
Q 3047 3744 3150 3342 
Q 3253 2941 3253 2259 
Q 3253 1453 3087 958 
Q 2922 463 2592 192 
Q 2263 -78 1759 -78 
Q 1097 -78 719 397 
Q 266 969 266 2259 
z
M 844 2259 
Q 844 1131 1108 757 
Q 1372 384 1759 384 
Q 2147 384 2411 759 
Q 2675 1134 2675 2259 
Q 2675 3391 2411 3762 
Q 2147 4134 1753 4134 
Q 1366 4134 1134 3806 
Q 844 3388 844 2259 
z
" transform="scale(0.015625)"/>
       </defs>
       <use xlink:href="#ArialMT-30"/>
      </g>
     </g>
    </g>
    <g id="ytick_2">
     <g id="line2d_9">
      <g>
       <use xlink:href="#mcac99f570c" x="68.46" y="39.571581" style="fill: #262626; stroke: #262626; stroke-width: 1.25"/>
      </g>
     </g>
     <g id="text_2">
      <!-- 2000 -->
      <g style="fill: #262626" transform="translate(34.491875 43.508378) scale(0.11 -0.11)">
       <defs>
        <path id="ArialMT-32" d="M 3222 541 
L 3222 0 
L 194 0 
Q 188 203 259 391 
Q 375 700 629 1000 
Q 884 1300 1366 1694 
Q 2113 2306 2375 2664 
Q 2638 3022 2638 3341 
Q 2638 3675 2398 3904 
Q 2159 4134 1775 4134 
Q 1369 4134 1125 3890 
Q 881 3647 878 3216 
L 300 3275 
Q 359 3922 746 4261 
Q 1134 4600 1788 4600 
Q 2447 4600 2831 4234 
Q 3216 3869 3216 3328 
Q 3216 3053 3103 2787 
Q 2991 2522 2730 2228 
Q 2469 1934 1863 1422 
Q 1356 997 1212 845 
Q 1069 694 975 541 
L 3222 541 
z
" transform="scale(0.015625)"/>
       </defs>
       <use xlink:href="#ArialMT-32"/>
       <use xlink:href="#ArialMT-30" x="55.615234"/>
       <use xlink:href="#ArialMT-30" x="111.230469"/>
       <use xlink:href="#ArialMT-30" x="166.845703"/>
      </g>
     </g>
    </g>
   </g>
   <g id="line2d_10">
    <path d="M 68.46 81.853539 
L 73.387013 81.768678 
L 81.270234 81.705032 
L 111.817714 81.598956 
L 113.788519 81.577741 
L 117.73013 81.641387 
L 118.715532 80.007814 
L 120.686338 79.22285 
L 121.67174 78.28938 
L 123.642545 77.080112 
L 124.627948 76.677022 
L 127.584156 76.082996 
L 128.569558 76.01935 
L 129.554961 75.488969 
L 131.525766 74.916158 
L 132.511169 74.894943 
L 135.467377 74.449423 
L 136.452779 73.961472 
L 137.438182 73.728105 
L 138.423584 73.664459 
L 139.408987 73.3038 
L 140.39439 73.155294 
L 141.379792 72.879496 
L 142.365195 71.988456 
L 143.350597 69.527489 
L 144.336 69.442628 
L 145.321403 61.38084 
L 147.292208 61.105042 
L 148.27761 54.019154 
L 149.263013 53.255406 
L 150.248416 49.58517 
L 151.233818 49.54274 
L 152.219221 47.633369 
L 153.204623 47.27271 
L 154.190026 41.120293 
L 155.175429 40.844495 
L 156.160831 39.656442 
L 157.146234 39.062415 
L 160.102442 39.0412 
L 161.087844 35.667978 
L 162.073247 34.161696 
L 163.058649 33.673746 
L 164.044052 33.482809 
L 165.029455 31.34007 
L 166.014857 30.385385 
L 167.00026 30.342955 
L 168.971065 81.874754 
L 169.956468 81.620171 
L 170.94187 81.53531 
L 171.927273 80.474549 
L 172.912675 80.198751 
L 173.898078 77.313479 
L 174.883481 76.846744 
L 175.868883 76.082996 
L 176.854286 76.01935 
L 187.693714 73.537168 
L 188.679117 73.070433 
L 189.664519 72.985572 
L 190.649922 70.970125 
L 191.635325 70.948909 
L 192.620727 69.527489 
L 194.591532 68.254575 
L 195.576935 67.978777 
L 196.562338 67.024091 
L 197.54774 62.865906 
L 198.533143 59.789697 
L 199.518545 57.837896 
L 200.503948 53.23419 
L 201.489351 49.670031 
L 202.474753 47.421217 
L 203.460156 45.49063 
L 204.445558 39.97467 
L 205.430961 39.783733 
L 206.416364 37.174259 
L 208.387169 36.792385 
L 209.372571 36.32565 
L 211.343377 33.482809 
L 212.328779 32.952428 
L 214.299584 32.506908 
L 215.284987 31.318855 
L 217.255792 31.000627 
L 218.241195 30.639968 
L 219.226597 30.449031 
L 222.182805 82.002045 
L 226.124416 81.577741 
L 227.109818 80.877638 
L 228.095221 80.813992 
L 234.007636 80.707916 
L 236.963844 80.495764 
L 237.949247 80.453333 
L 238.934649 79.413787 
L 245.832468 79.307711 
L 246.81787 77.44077 
L 247.803273 76.677022 
L 248.788675 74.470638 
L 249.774078 73.325015 
L 250.759481 72.837065 
L 251.744883 70.54582 
L 252.730286 68.551588 
L 253.715688 67.893916 
L 255.686494 67.172598 
L 256.671896 66.578571 
L 257.657299 65.475379 
L 258.642701 64.902568 
L 261.598909 63.778161 
L 262.584312 61.677853 
L 263.569714 61.359624 
L 264.555117 61.168687 
L 266.525922 61.126257 
L 267.511325 60.808028 
L 272.438338 60.680737 
L 274.409143 82.002045 
L 278.350753 81.917185 
L 279.336156 80.750347 
L 280.321558 80.410903 
L 283.277766 80.347257 
L 308.898234 79.901737 
L 310.869039 79.477433 
L 314.810649 79.413787 
L 323.679273 79.392572 
L 325.650078 78.904622 
L 327.620883 82.002045 
L 332.547896 81.9384 
L 334.518701 81.874754 
L 345.35813 81.811108 
L 347.328935 81.705032 
L 348.314338 81.344373 
L 350.285143 81.111006 
L 354.226753 80.835208 
L 355.212156 80.686701 
L 363.095377 80.60184 
L 365.066182 80.516979 
L 370.978597 80.410903 
L 373.934805 80.368473 
L 377.876416 80.262396 
L 379.847221 82.002045 
L 385.759636 81.832324 
L 396.599065 81.726247 
L 399.555273 81.49288 
L 400.540675 81.217082 
L 408.423896 80.623055 
L 412.365506 80.60184 
L 414.336312 80.474549 
L 421.23413 80.368473 
L 427.146545 80.071459 
L 430.102753 80.029029 
L 433.058961 81.959615 
L 442.912987 81.853539 
L 444.883792 81.853539 
L 446.854597 81.386804 
L 447.84 80.941284 
L 447.84 80.941284 
" clip-path="url(#p56c3b266ad)" style="fill: none; stroke: #4c72b0; stroke-width: 1.5; stroke-linecap: round"/>
   </g>
   <g id="patch_3">
    <path d="M 68.46 84.585 
L 68.46 27.76 
" style="fill: none; stroke: #262626; stroke-width: 1.25; stroke-linejoin: miter; stroke-linecap: square"/>
   </g>
   <g id="patch_4">
    <path d="M 447.84 84.585 
L 447.84 27.76 
" style="fill: none; stroke: #262626; stroke-width: 1.25; stroke-linejoin: miter; stroke-linecap: square"/>
   </g>
   <g id="patch_5">
    <path d="M 68.46 84.585 
L 447.84 84.585 
" style="fill: none; stroke: #262626; stroke-width: 1.25; stroke-linejoin: miter; stroke-linecap: square"/>
   </g>
   <g id="patch_6">
    <path d="M 68.46 27.76 
L 447.84 27.76 
" style="fill: none; stroke: #262626; stroke-width: 1.25; stroke-linejoin: miter; stroke-linecap: square"/>
   </g>
   <g id="text_3">
    <!-- Chikungunya -->
    <g style="fill: #262626" transform="translate(223.127813 21.76) scale(0.12 -0.12)">
     <defs>
      <path id="ArialMT-43" d="M 3763 1606 
L 4369 1453 
Q 4178 706 3683 314 
Q 3188 -78 2472 -78 
Q 1731 -78 1267 223 
Q 803 525 561 1097 
Q 319 1669 319 2325 
Q 319 3041 592 3573 
Q 866 4106 1370 4382 
Q 1875 4659 2481 4659 
Q 3169 4659 3637 4309 
Q 4106 3959 4291 3325 
L 3694 3184 
Q 3534 3684 3231 3912 
Q 2928 4141 2469 4141 
Q 1941 4141 1586 3887 
Q 1231 3634 1087 3207 
Q 944 2781 944 2328 
Q 944 1744 1114 1308 
Q 1284 872 1643 656 
Q 2003 441 2422 441 
Q 2931 441 3284 734 
Q 3638 1028 3763 1606 
z
" transform="scale(0.015625)"/>
      <path id="ArialMT-68" d="M 422 0 
L 422 4581 
L 984 4581 
L 984 2938 
Q 1378 3394 1978 3394 
Q 2347 3394 2619 3248 
Q 2891 3103 3008 2847 
Q 3125 2591 3125 2103 
L 3125 0 
L 2563 0 
L 2563 2103 
Q 2563 2525 2380 2717 
Q 2197 2909 1863 2909 
Q 1613 2909 1392 2779 
Q 1172 2650 1078 2428 
Q 984 2206 984 1816 
L 984 0 
L 422 0 
z
" transform="scale(0.015625)"/>
      <path id="ArialMT-69" d="M 425 3934 
L 425 4581 
L 988 4581 
L 988 3934 
L 425 3934 
z
M 425 0 
L 425 3319 
L 988 3319 
L 988 0 
L 425 0 
z
" transform="scale(0.015625)"/>
      <path id="ArialMT-6b" d="M 425 0 
L 425 4581 
L 988 4581 
L 988 1969 
L 2319 3319 
L 3047 3319 
L 1778 2088 
L 3175 0 
L 2481 0 
L 1384 1697 
L 988 1316 
L 988 0 
L 425 0 
z
" transform="scale(0.015625)"/>
      <path id="ArialMT-75" d="M 2597 0 
L 2597 488 
Q 2209 -75 1544 -75 
Q 1250 -75 995 37 
Q 741 150 617 320 
Q 494 491 444 738 
Q 409 903 409 1263 
L 409 3319 
L 972 3319 
L 972 1478 
Q 972 1038 1006 884 
Q 1059 663 1231 536 
Q 1403 409 1656 409 
Q 1909 409 2131 539 
Q 2353 669 2445 892 
Q 2538 1116 2538 1541 
L 2538 3319 
L 3100 3319 
L 3100 0 
L 2597 0 
z
" transform="scale(0.015625)"/>
      <path id="ArialMT-6e" d="M 422 0 
L 422 3319 
L 928 3319 
L 928 2847 
Q 1294 3394 1984 3394 
Q 2284 3394 2536 3286 
Q 2788 3178 2913 3003 
Q 3038 2828 3088 2588 
Q 3119 2431 3119 2041 
L 3119 0 
L 2556 0 
L 2556 2019 
Q 2556 2363 2490 2533 
Q 2425 2703 2258 2804 
Q 2091 2906 1866 2906 
Q 1506 2906 1245 2678 
Q 984 2450 984 1813 
L 984 0 
L 422 0 
z
" transform="scale(0.015625)"/>
      <path id="ArialMT-67" d="M 319 -275 
L 866 -356 
Q 900 -609 1056 -725 
Q 1266 -881 1628 -881 
Q 2019 -881 2231 -725 
Q 2444 -569 2519 -288 
Q 2563 -116 2559 434 
Q 2191 0 1641 0 
Q 956 0 581 494 
Q 206 988 206 1678 
Q 206 2153 378 2554 
Q 550 2956 876 3175 
Q 1203 3394 1644 3394 
Q 2231 3394 2613 2919 
L 2613 3319 
L 3131 3319 
L 3131 450 
Q 3131 -325 2973 -648 
Q 2816 -972 2473 -1159 
Q 2131 -1347 1631 -1347 
Q 1038 -1347 672 -1080 
Q 306 -813 319 -275 
z
M 784 1719 
Q 784 1066 1043 766 
Q 1303 466 1694 466 
Q 2081 466 2343 764 
Q 2606 1063 2606 1700 
Q 2606 2309 2336 2618 
Q 2066 2928 1684 2928 
Q 1309 2928 1046 2623 
Q 784 2319 784 1719 
z
" transform="scale(0.015625)"/>
      <path id="ArialMT-79" d="M 397 -1278 
L 334 -750 
Q 519 -800 656 -800 
Q 844 -800 956 -737 
Q 1069 -675 1141 -563 
Q 1194 -478 1313 -144 
Q 1328 -97 1363 -6 
L 103 3319 
L 709 3319 
L 1400 1397 
Q 1534 1031 1641 628 
Q 1738 1016 1872 1384 
L 2581 3319 
L 3144 3319 
L 1881 -56 
Q 1678 -603 1566 -809 
Q 1416 -1088 1222 -1217 
Q 1028 -1347 759 -1347 
Q 597 -1347 397 -1278 
z
" transform="scale(0.015625)"/>
      <path id="ArialMT-61" d="M 2588 409 
Q 2275 144 1986 34 
Q 1697 -75 1366 -75 
Q 819 -75 525 192 
Q 231 459 231 875 
Q 231 1119 342 1320 
Q 453 1522 633 1644 
Q 813 1766 1038 1828 
Q 1203 1872 1538 1913 
Q 2219 1994 2541 2106 
Q 2544 2222 2544 2253 
Q 2544 2597 2384 2738 
Q 2169 2928 1744 2928 
Q 1347 2928 1158 2789 
Q 969 2650 878 2297 
L 328 2372 
Q 403 2725 575 2942 
Q 747 3159 1072 3276 
Q 1397 3394 1825 3394 
Q 2250 3394 2515 3294 
Q 2781 3194 2906 3042 
Q 3031 2891 3081 2659 
Q 3109 2516 3109 2141 
L 3109 1391 
Q 3109 606 3145 398 
Q 3181 191 3288 0 
L 2700 0 
Q 2613 175 2588 409 
z
M 2541 1666 
Q 2234 1541 1622 1453 
Q 1275 1403 1131 1340 
Q 988 1278 909 1158 
Q 831 1038 831 891 
Q 831 666 1001 516 
Q 1172 366 1500 366 
Q 1825 366 2078 508 
Q 2331 650 2450 897 
Q 2541 1088 2541 1459 
L 2541 1666 
z
" transform="scale(0.015625)"/>
     </defs>
     <use xlink:href="#ArialMT-43"/>
     <use xlink:href="#ArialMT-68" x="72.216797"/>
     <use xlink:href="#ArialMT-69" x="127.832031"/>
     <use xlink:href="#ArialMT-6b" x="150.048828"/>
     <use xlink:href="#ArialMT-75" x="200.048828"/>
     <use xlink:href="#ArialMT-6e" x="255.664062"/>
     <use xlink:href="#ArialMT-67" x="311.279297"/>
     <use xlink:href="#ArialMT-75" x="366.894531"/>
     <use xlink:href="#ArialMT-6e" x="422.509766"/>
     <use xlink:href="#ArialMT-79" x="478.125"/>
     <use xlink:href="#ArialMT-61" x="528.125"/>
    </g>
   </g>
  </g>
  <g id="axes_2">
   <g id="patch_7">
    <path d="M 68.46 160.37 
L 447.84 160.37 
L 447.84 103.545 
L 68.46 103.545 
z
" style="fill: #ffffff"/>
   </g>
   <g id="matplotlib.axis_3">
    <g id="xtick_8">
     <g id="line2d_11">
      <g>
       <use xlink:href="#m5fe890dc79" x="114.914694" y="160.37" style="fill: #262626; stroke: #262626; stroke-width: 1.25"/>
      </g>
     </g>
    </g>
    <g id="xtick_9">
     <g id="line2d_12">
      <g>
       <use xlink:href="#m5fe890dc79" x="166.296401" y="160.37" style="fill: #262626; stroke: #262626; stroke-width: 1.25"/>
      </g>
     </g>
    </g>
    <g id="xtick_10">
     <g id="line2d_13">
      <g>
       <use xlink:href="#m5fe890dc79" x="217.678108" y="160.37" style="fill: #262626; stroke: #262626; stroke-width: 1.25"/>
      </g>
     </g>
    </g>
    <g id="xtick_11">
     <g id="line2d_14">
      <g>
       <use xlink:href="#m5fe890dc79" x="269.059814" y="160.37" style="fill: #262626; stroke: #262626; stroke-width: 1.25"/>
      </g>
     </g>
    </g>
    <g id="xtick_12">
     <g id="line2d_15">
      <g>
       <use xlink:href="#m5fe890dc79" x="320.582293" y="160.37" style="fill: #262626; stroke: #262626; stroke-width: 1.25"/>
      </g>
     </g>
    </g>
    <g id="xtick_13">
     <g id="line2d_16">
      <g>
       <use xlink:href="#m5fe890dc79" x="371.964" y="160.37" style="fill: #262626; stroke: #262626; stroke-width: 1.25"/>
      </g>
     </g>
    </g>
    <g id="xtick_14">
     <g id="line2d_17">
      <g>
       <use xlink:href="#m5fe890dc79" x="423.345707" y="160.37" style="fill: #262626; stroke: #262626; stroke-width: 1.25"/>
      </g>
     </g>
    </g>
   </g>
   <g id="matplotlib.axis_4">
    <g id="ytick_3">
     <g id="line2d_18">
      <g>
       <use xlink:href="#mcac99f570c" x="68.46" y="158.948068" style="fill: #262626; stroke: #262626; stroke-width: 1.25"/>
      </g>
     </g>
     <g id="text_4">
      <!-- 0 -->
      <g style="fill: #262626" transform="translate(52.842969 162.884865) scale(0.11 -0.11)">
       <use xlink:href="#ArialMT-30"/>
      </g>
     </g>
    </g>
    <g id="ytick_4">
     <g id="line2d_19">
      <g>
       <use xlink:href="#mcac99f570c" x="68.46" y="116.797705" style="fill: #262626; stroke: #262626; stroke-width: 1.25"/>
      </g>
     </g>
     <g id="text_5">
      <!-- 1000 -->
      <g style="fill: #262626" transform="translate(34.491875 120.734502) scale(0.11 -0.11)">
       <defs>
        <path id="ArialMT-31" d="M 2384 0 
L 1822 0 
L 1822 3584 
Q 1619 3391 1289 3197 
Q 959 3003 697 2906 
L 697 3450 
Q 1169 3672 1522 3987 
Q 1875 4303 2022 4600 
L 2384 4600 
L 2384 0 
z
" transform="scale(0.015625)"/>
       </defs>
       <use xlink:href="#ArialMT-31"/>
       <use xlink:href="#ArialMT-30" x="55.615234"/>
       <use xlink:href="#ArialMT-30" x="111.230469"/>
       <use xlink:href="#ArialMT-30" x="166.845703"/>
      </g>
     </g>
    </g>
    <g id="text_6">
     <!-- Trend -->
     <g style="fill: #262626" transform="translate(28.106875 147.404687) rotate(-90) scale(0.12 -0.12)">
      <defs>
       <path id="ArialMT-54" d="M 1659 0 
L 1659 4041 
L 150 4041 
L 150 4581 
L 3781 4581 
L 3781 4041 
L 2266 4041 
L 2266 0 
L 1659 0 
z
" transform="scale(0.015625)"/>
       <path id="ArialMT-72" d="M 416 0 
L 416 3319 
L 922 3319 
L 922 2816 
Q 1116 3169 1280 3281 
Q 1444 3394 1641 3394 
Q 1925 3394 2219 3213 
L 2025 2691 
Q 1819 2813 1613 2813 
Q 1428 2813 1281 2702 
Q 1134 2591 1072 2394 
Q 978 2094 978 1738 
L 978 0 
L 416 0 
z
" transform="scale(0.015625)"/>
       <path id="ArialMT-65" d="M 2694 1069 
L 3275 997 
Q 3138 488 2766 206 
Q 2394 -75 1816 -75 
Q 1088 -75 661 373 
Q 234 822 234 1631 
Q 234 2469 665 2931 
Q 1097 3394 1784 3394 
Q 2450 3394 2872 2941 
Q 3294 2488 3294 1666 
Q 3294 1616 3291 1516 
L 816 1516 
Q 847 969 1125 678 
Q 1403 388 1819 388 
Q 2128 388 2347 550 
Q 2566 713 2694 1069 
z
M 847 1978 
L 2700 1978 
Q 2663 2397 2488 2606 
Q 2219 2931 1791 2931 
Q 1403 2931 1139 2672 
Q 875 2413 847 1978 
z
" transform="scale(0.015625)"/>
       <path id="ArialMT-64" d="M 2575 0 
L 2575 419 
Q 2259 -75 1647 -75 
Q 1250 -75 917 144 
Q 584 363 401 755 
Q 219 1147 219 1656 
Q 219 2153 384 2558 
Q 550 2963 881 3178 
Q 1213 3394 1622 3394 
Q 1922 3394 2156 3267 
Q 2391 3141 2538 2938 
L 2538 4581 
L 3097 4581 
L 3097 0 
L 2575 0 
z
M 797 1656 
Q 797 1019 1065 703 
Q 1334 388 1700 388 
Q 2069 388 2326 689 
Q 2584 991 2584 1609 
Q 2584 2291 2321 2609 
Q 2059 2928 1675 2928 
Q 1300 2928 1048 2622 
Q 797 2316 797 1656 
z
" transform="scale(0.015625)"/>
      </defs>
      <use xlink:href="#ArialMT-54"/>
      <use xlink:href="#ArialMT-72" x="57.333984"/>
      <use xlink:href="#ArialMT-65" x="90.634766"/>
      <use xlink:href="#ArialMT-6e" x="146.25"/>
      <use xlink:href="#ArialMT-64" x="201.865234"/>
     </g>
    </g>
   </g>
   <g id="line2d_20">
    <path d="M 68.46 157.705988 
L 76.343221 157.261909 
L 81.270234 156.726361 
L 86.197247 155.988352 
L 91.12426 155.046379 
L 97.036675 153.678948 
L 113.788519 149.521212 
L 117.73013 149.259956 
L 120.686338 147.310643 
L 122.657143 145.771193 
L 124.627948 144.011712 
L 127.584156 140.973691 
L 130.540364 137.568549 
L 139.408987 127.021239 
L 142.365195 123.986319 
L 144.336 122.20242 
L 146.306805 120.622813 
L 148.27761 119.241159 
L 151.233818 117.492602 
L 154.190026 116.029458 
L 165.029455 111.027332 
L 167.00026 109.989202 
L 168.971065 109.469935 
L 171.927273 108.014979 
L 173.898078 107.215175 
L 175.868883 106.613481 
L 176.854286 106.398409 
L 190.649922 106.267281 
L 194.591532 106.929535 
L 196.562338 107.634286 
L 199.518545 108.987843 
L 204.445558 111.640365 
L 209.372571 114.216353 
L 213.314182 115.980292 
L 219.226597 118.307061 
L 222.182805 118.717614 
L 225.139013 120.114306 
L 228.095221 121.813903 
L 232.036831 122.444939 
L 234.993039 124.50593 
L 238.934649 127.540404 
L 245.832468 132.89624 
L 248.788675 134.887537 
L 251.744883 136.555703 
L 254.701091 137.865974 
L 257.657299 138.842011 
L 260.613506 139.561102 
L 269.48213 141.469787 
L 272.438338 142.404943 
L 274.409143 142.756901 
L 278.350753 144.333318 
L 283.277766 146.573406 
L 299.044208 147.035445 
L 304.956623 149.69819 
L 306.927429 150.498462 
L 310.869039 151.239674 
L 314.810649 152.541865 
L 317.766857 152.832327 
L 322.69387 154.11127 
L 323.679273 154.337896 
L 328.606286 154.973732 
L 335.504104 156.271001 
L 341.416519 157.17183 
L 345.35813 157.586195 
L 349.29974 157.777591 
L 353.241351 157.722615 
L 357.182961 157.446203 
L 368.02239 156.486604 
L 371.964 156.447801 
L 375.90561 156.654534 
L 389.701247 157.728052 
L 393.642857 157.71328 
L 397.584468 157.482498 
L 401.526078 157.052241 
L 405.467688 156.562423 
L 412.365506 156.012668 
L 437.985974 154.140728 
L 447.84 153.245309 
L 447.84 153.245309 
" clip-path="url(#p98210bfd63)" style="fill: none; stroke: #4c72b0; stroke-width: 1.5; stroke-linecap: round"/>
   </g>
   <g id="patch_8">
    <path d="M 68.46 160.37 
L 68.46 103.545 
" style="fill: none; stroke: #262626; stroke-width: 1.25; stroke-linejoin: miter; stroke-linecap: square"/>
   </g>
   <g id="patch_9">
    <path d="M 447.84 160.37 
L 447.84 103.545 
" style="fill: none; stroke: #262626; stroke-width: 1.25; stroke-linejoin: miter; stroke-linecap: square"/>
   </g>
   <g id="patch_10">
    <path d="M 68.46 160.37 
L 447.84 160.37 
" style="fill: none; stroke: #262626; stroke-width: 1.25; stroke-linejoin: miter; stroke-linecap: square"/>
   </g>
   <g id="patch_11">
    <path d="M 68.46 103.545 
L 447.84 103.545 
" style="fill: none; stroke: #262626; stroke-width: 1.25; stroke-linejoin: miter; stroke-linecap: square"/>
   </g>
  </g>
  <g id="axes_3">
   <g id="patch_12">
    <path d="M 68.46 236.155 
L 447.84 236.155 
L 447.84 179.33 
L 68.46 179.33 
z
" style="fill: #ffffff"/>
   </g>
   <g id="matplotlib.axis_5">
    <g id="xtick_15">
     <g id="line2d_21">
      <g>
       <use xlink:href="#m5fe890dc79" x="114.914694" y="236.155" style="fill: #262626; stroke: #262626; stroke-width: 1.25"/>
      </g>
     </g>
    </g>
    <g id="xtick_16">
     <g id="line2d_22">
      <g>
       <use xlink:href="#m5fe890dc79" x="166.296401" y="236.155" style="fill: #262626; stroke: #262626; stroke-width: 1.25"/>
      </g>
     </g>
    </g>
    <g id="xtick_17">
     <g id="line2d_23">
      <g>
       <use xlink:href="#m5fe890dc79" x="217.678108" y="236.155" style="fill: #262626; stroke: #262626; stroke-width: 1.25"/>
      </g>
     </g>
    </g>
    <g id="xtick_18">
     <g id="line2d_24">
      <g>
       <use xlink:href="#m5fe890dc79" x="269.059814" y="236.155" style="fill: #262626; stroke: #262626; stroke-width: 1.25"/>
      </g>
     </g>
    </g>
    <g id="xtick_19">
     <g id="line2d_25">
      <g>
       <use xlink:href="#m5fe890dc79" x="320.582293" y="236.155" style="fill: #262626; stroke: #262626; stroke-width: 1.25"/>
      </g>
     </g>
    </g>
    <g id="xtick_20">
     <g id="line2d_26">
      <g>
       <use xlink:href="#m5fe890dc79" x="371.964" y="236.155" style="fill: #262626; stroke: #262626; stroke-width: 1.25"/>
      </g>
     </g>
    </g>
    <g id="xtick_21">
     <g id="line2d_27">
      <g>
       <use xlink:href="#m5fe890dc79" x="423.345707" y="236.155" style="fill: #262626; stroke: #262626; stroke-width: 1.25"/>
      </g>
     </g>
    </g>
   </g>
   <g id="matplotlib.axis_6">
    <g id="ytick_5">
     <g id="line2d_28">
      <g>
       <use xlink:href="#mcac99f570c" x="68.46" y="229.068518" style="fill: #262626; stroke: #262626; stroke-width: 1.25"/>
      </g>
     </g>
     <g id="text_7">
      <!-- −500 -->
      <g style="fill: #262626" transform="translate(34.184219 233.005315) scale(0.11 -0.11)">
       <defs>
        <path id="ArialMT-2212" d="M 3381 1997 
L 356 1997 
L 356 2522 
L 3381 2522 
L 3381 1997 
z
" transform="scale(0.015625)"/>
        <path id="ArialMT-35" d="M 266 1200 
L 856 1250 
Q 922 819 1161 601 
Q 1400 384 1738 384 
Q 2144 384 2425 690 
Q 2706 997 2706 1503 
Q 2706 1984 2436 2262 
Q 2166 2541 1728 2541 
Q 1456 2541 1237 2417 
Q 1019 2294 894 2097 
L 366 2166 
L 809 4519 
L 3088 4519 
L 3088 3981 
L 1259 3981 
L 1013 2750 
Q 1425 3038 1878 3038 
Q 2478 3038 2890 2622 
Q 3303 2206 3303 1553 
Q 3303 931 2941 478 
Q 2500 -78 1738 -78 
Q 1113 -78 717 272 
Q 322 622 266 1200 
z
" transform="scale(0.015625)"/>
       </defs>
       <use xlink:href="#ArialMT-2212"/>
       <use xlink:href="#ArialMT-35" x="58.398438"/>
       <use xlink:href="#ArialMT-30" x="114.013672"/>
       <use xlink:href="#ArialMT-30" x="169.628906"/>
      </g>
     </g>
    </g>
    <g id="ytick_6">
     <g id="line2d_29">
      <g>
       <use xlink:href="#mcac99f570c" x="68.46" y="209.064765" style="fill: #262626; stroke: #262626; stroke-width: 1.25"/>
      </g>
     </g>
     <g id="text_8">
      <!-- 0 -->
      <g style="fill: #262626" transform="translate(52.842969 213.001562) scale(0.11 -0.11)">
       <use xlink:href="#ArialMT-30"/>
      </g>
     </g>
    </g>
    <g id="ytick_7">
     <g id="line2d_30">
      <g>
       <use xlink:href="#mcac99f570c" x="68.46" y="189.061012" style="fill: #262626; stroke: #262626; stroke-width: 1.25"/>
      </g>
     </g>
     <g id="text_9">
      <!-- 500 -->
      <g style="fill: #262626" transform="translate(40.608906 192.997808) scale(0.11 -0.11)">
       <use xlink:href="#ArialMT-35"/>
       <use xlink:href="#ArialMT-30" x="55.615234"/>
       <use xlink:href="#ArialMT-30" x="111.230469"/>
      </g>
     </g>
    </g>
    <g id="text_10">
     <!-- Season -->
     <g style="fill: #262626" transform="translate(27.799219 228.090937) rotate(-90) scale(0.12 -0.12)">
      <defs>
       <path id="ArialMT-53" d="M 288 1472 
L 859 1522 
Q 900 1178 1048 958 
Q 1197 738 1509 602 
Q 1822 466 2213 466 
Q 2559 466 2825 569 
Q 3091 672 3220 851 
Q 3350 1031 3350 1244 
Q 3350 1459 3225 1620 
Q 3100 1781 2813 1891 
Q 2628 1963 1997 2114 
Q 1366 2266 1113 2400 
Q 784 2572 623 2826 
Q 463 3081 463 3397 
Q 463 3744 659 4045 
Q 856 4347 1234 4503 
Q 1613 4659 2075 4659 
Q 2584 4659 2973 4495 
Q 3363 4331 3572 4012 
Q 3781 3694 3797 3291 
L 3216 3247 
Q 3169 3681 2898 3903 
Q 2628 4125 2100 4125 
Q 1550 4125 1298 3923 
Q 1047 3722 1047 3438 
Q 1047 3191 1225 3031 
Q 1400 2872 2139 2705 
Q 2878 2538 3153 2413 
Q 3553 2228 3743 1945 
Q 3934 1663 3934 1294 
Q 3934 928 3725 604 
Q 3516 281 3123 101 
Q 2731 -78 2241 -78 
Q 1619 -78 1198 103 
Q 778 284 539 648 
Q 300 1013 288 1472 
z
" transform="scale(0.015625)"/>
       <path id="ArialMT-73" d="M 197 991 
L 753 1078 
Q 800 744 1014 566 
Q 1228 388 1613 388 
Q 2000 388 2187 545 
Q 2375 703 2375 916 
Q 2375 1106 2209 1216 
Q 2094 1291 1634 1406 
Q 1016 1563 777 1677 
Q 538 1791 414 1992 
Q 291 2194 291 2438 
Q 291 2659 392 2848 
Q 494 3038 669 3163 
Q 800 3259 1026 3326 
Q 1253 3394 1513 3394 
Q 1903 3394 2198 3281 
Q 2494 3169 2634 2976 
Q 2775 2784 2828 2463 
L 2278 2388 
Q 2241 2644 2061 2787 
Q 1881 2931 1553 2931 
Q 1166 2931 1000 2803 
Q 834 2675 834 2503 
Q 834 2394 903 2306 
Q 972 2216 1119 2156 
Q 1203 2125 1616 2013 
Q 2213 1853 2448 1751 
Q 2684 1650 2818 1456 
Q 2953 1263 2953 975 
Q 2953 694 2789 445 
Q 2625 197 2315 61 
Q 2006 -75 1616 -75 
Q 969 -75 630 194 
Q 291 463 197 991 
z
" transform="scale(0.015625)"/>
       <path id="ArialMT-6f" d="M 213 1659 
Q 213 2581 725 3025 
Q 1153 3394 1769 3394 
Q 2453 3394 2887 2945 
Q 3322 2497 3322 1706 
Q 3322 1066 3130 698 
Q 2938 331 2570 128 
Q 2203 -75 1769 -75 
Q 1072 -75 642 372 
Q 213 819 213 1659 
z
M 791 1659 
Q 791 1022 1069 705 
Q 1347 388 1769 388 
Q 2188 388 2466 706 
Q 2744 1025 2744 1678 
Q 2744 2294 2464 2611 
Q 2184 2928 1769 2928 
Q 1347 2928 1069 2612 
Q 791 2297 791 1659 
z
" transform="scale(0.015625)"/>
      </defs>
      <use xlink:href="#ArialMT-53"/>
      <use xlink:href="#ArialMT-65" x="66.699219"/>
      <use xlink:href="#ArialMT-61" x="122.314453"/>
      <use xlink:href="#ArialMT-73" x="177.929688"/>
      <use xlink:href="#ArialMT-6f" x="227.929688"/>
      <use xlink:href="#ArialMT-6e" x="283.544922"/>
     </g>
    </g>
   </g>
   <g id="line2d_31">
    <path d="M 68.46 202.504091 
L 69.445403 217.732439 
L 70.430805 217.499242 
L 71.416208 217.486622 
L 72.40161 217.15599 
L 73.387013 217.299855 
L 75.357818 216.822681 
L 77.328623 217.313623 
L 78.314026 217.908676 
L 79.299429 217.421919 
L 80.284831 217.764361 
L 81.270234 217.950203 
L 82.255636 218.518776 
L 83.241039 218.408825 
L 84.226442 218.903672 
L 85.211844 218.995853 
L 86.197247 218.957286 
L 88.168052 219.635517 
L 89.153455 218.752419 
L 90.138857 218.279824 
L 91.12426 218.144004 
L 92.109662 216.744795 
L 93.095065 214.267037 
L 94.080468 213.99865 
L 95.06587 207.875245 
L 96.051273 206.606863 
L 97.036675 206.972979 
L 98.022078 200.761004 
L 99.007481 200.494823 
L 99.992883 198.085093 
L 100.978286 198.245585 
L 101.963688 196.748546 
L 102.949091 196.380264 
L 103.934494 191.964139 
L 104.919896 191.965866 
L 105.905299 191.311068 
L 106.890701 190.824498 
L 109.846909 191.413824 
L 110.832312 189.11833 
L 111.817714 203.162317 
L 112.803117 201.495404 
L 113.788519 201.614391 
L 117.73013 200.311554 
L 118.715532 198.130934 
L 119.700935 204.814922 
L 120.686338 224.798405 
L 121.67174 224.419959 
L 122.657143 224.277868 
L 123.642545 223.750069 
L 124.627948 223.681983 
L 125.613351 222.684633 
L 127.584156 222.59525 
L 128.569558 222.66127 
L 129.554961 221.770027 
L 130.540364 221.869062 
L 131.525766 221.797486 
L 132.511169 222.053963 
L 133.496571 221.472891 
L 134.481974 221.694016 
L 135.467377 221.298972 
L 136.452779 220.460874 
L 137.438182 220.330483 
L 138.423584 219.778771 
L 139.408987 217.990617 
L 141.379792 215.740076 
L 142.365195 213.28583 
L 143.350597 210.495133 
L 144.336 209.696463 
L 145.321403 204.398953 
L 146.306805 202.23999 
L 147.292208 202.027595 
L 148.27761 197.027003 
L 149.263013 196.571391 
L 150.248416 194.433356 
L 151.233818 194.314194 
L 152.219221 192.386875 
L 153.204623 191.681834 
L 154.190026 188.005983 
L 155.175429 187.846456 
L 157.146234 186.452128 
L 160.102442 186.467142 
L 161.087844 184.527716 
L 162.073247 203.770562 
L 163.058649 207.35028 
L 164.044052 207.321981 
L 165.029455 206.137646 
L 166.014857 204.562941 
L 167.00026 207.865467 
L 168.971065 229.518471 
L 169.956468 228.982095 
L 170.94187 228.714772 
L 171.927273 228.052065 
L 172.912675 227.801937 
L 173.898078 226.463874 
L 175.868883 225.914005 
L 176.854286 225.527483 
L 187.693714 224.283498 
L 188.679117 224.010894 
L 189.664519 223.994773 
L 190.649922 223.101505 
L 191.635325 223.087706 
L 194.591532 220.875427 
L 195.576935 220.383958 
L 196.562338 219.124603 
L 197.54774 216.768372 
L 198.533143 215.207563 
L 199.518545 213.383186 
L 201.489351 207.383973 
L 202.474753 206.241071 
L 203.460156 201.749038 
L 204.445558 199.089846 
L 205.430961 198.382623 
L 206.416364 194.720167 
L 207.401766 194.120612 
L 208.387169 192.228327 
L 209.372571 191.895827 
L 210.357974 189.74969 
L 211.343377 188.825287 
L 212.328779 185.808019 
L 213.314182 185.52205 
L 214.299584 184.900978 
L 215.284987 183.97461 
L 218.241195 183.534177 
L 219.226597 181.912955 
L 223.168208 211.130411 
L 224.15361 210.987337 
L 226.124416 208.938043 
L 227.109818 209.422696 
L 228.095221 233.572045 
L 232.036831 232.947513 
L 233.022234 232.608525 
L 234.007636 231.836304 
L 234.993039 231.436102 
L 235.978442 229.720251 
L 237.949247 228.712467 
L 238.934649 227.910334 
L 239.920052 226.536391 
L 240.905455 226.243013 
L 241.890857 225.787079 
L 242.87626 225.493711 
L 243.861662 224.270677 
L 244.847065 224.029039 
L 245.832468 222.882929 
L 246.81787 220.946378 
L 247.803273 220.143764 
L 248.788675 218.268468 
L 249.774078 215.372656 
L 250.759481 213.386452 
L 251.744883 210.955123 
L 252.730286 207.288456 
L 253.715688 204.550584 
L 254.701091 203.060541 
L 256.671896 197.016121 
L 257.657299 195.887431 
L 258.642701 194.305338 
L 259.628104 193.669613 
L 260.613506 192.435344 
L 261.598909 191.911679 
L 262.584312 189.898263 
L 263.569714 188.797361 
L 264.555117 187.091837 
L 266.525922 186.247625 
L 267.511325 185.216762 
L 269.48213 184.708696 
L 270.467532 184.337182 
L 271.452935 183.386112 
L 272.438338 207.838921 
L 274.409143 219.054623 
L 275.394545 218.808987 
L 276.379948 218.084502 
L 277.365351 217.636414 
L 278.350753 216.980771 
L 279.336156 225.806128 
L 280.321558 225.157266 
L 281.306961 224.764284 
L 282.292364 224.243395 
L 283.277766 223.364554 
L 299.044208 222.215856 
L 301.015013 221.462192 
L 302.985818 219.944868 
L 304.956623 219.359787 
L 305.942026 219.085192 
L 306.927429 218.361128 
L 308.898234 218.143045 
L 310.869039 217.381824 
L 311.854442 216.110736 
L 312.839844 215.518351 
L 313.825247 214.210545 
L 314.810649 212.525488 
L 317.766857 211.376005 
L 318.75226 209.821182 
L 319.737662 207.678523 
L 320.723065 206.18169 
L 321.708468 205.28321 
L 322.69387 203.937316 
L 323.679273 202.145356 
L 325.650078 201.283178 
L 327.620883 201.115738 
L 328.606286 200.661303 
L 329.591688 199.985376 
L 330.577091 199.621543 
L 333.533299 197.499001 
L 334.518701 197.231446 
L 335.504104 197.588238 
L 336.489506 196.977394 
L 339.445714 196.381882 
L 340.431117 195.933687 
L 341.416519 208.58149 
L 342.401922 216.531015 
L 343.387325 216.382573 
L 346.343532 215.436989 
L 347.328935 218.272797 
L 348.314338 217.759069 
L 350.285143 217.014696 
L 351.270545 213.894328 
L 352.255948 213.33849 
L 354.226753 212.941225 
L 355.212156 212.437332 
L 357.182961 212.078718 
L 362.109974 211.082742 
L 363.095377 210.608928 
L 364.080779 210.330321 
L 365.066182 209.742932 
L 366.051584 209.363589 
L 367.036987 209.129132 
L 369.007792 208.096909 
L 370.978597 207.605382 
L 371.964 207.533514 
L 372.949403 207.205422 
L 373.934805 206.698766 
L 374.920208 207.794832 
L 376.891013 207.371836 
L 377.876416 207.226688 
L 379.847221 207.753094 
L 380.832623 207.569408 
L 382.803429 207.413824 
L 383.788831 208.770577 
L 385.759636 208.54306 
L 388.715844 208.355459 
L 389.701247 209.29974 
L 390.686649 213.060483 
L 394.62826 212.915817 
L 395.613662 211.840018 
L 398.56987 210.824206 
L 399.555273 204.227847 
L 402.511481 204.260268 
L 403.496883 204.0511 
L 404.482286 204.396396 
L 407.438494 204.329888 
L 408.423896 204.723997 
L 409.409299 204.730929 
L 410.394701 204.877811 
L 411.380104 205.287823 
L 412.365506 205.383237 
L 413.350909 205.629768 
L 414.336312 206.528992 
L 416.307117 207.772134 
L 417.292519 208.878128 
L 418.277922 209.740686 
L 419.263325 210.163956 
L 421.23413 212.172137 
L 422.219532 212.107385 
L 423.204935 214.067032 
L 424.190338 214.045233 
L 425.17574 214.285204 
L 426.161143 214.366996 
L 427.146545 216.166358 
L 428.131948 216.440903 
L 429.117351 216.99258 
L 430.102753 217.008836 
L 433.058961 219.396229 
L 434.044364 219.656688 
L 437.000571 219.860781 
L 437.985974 220.133713 
L 438.971377 210.652072 
L 439.956779 209.210352 
L 440.942182 209.301841 
L 442.912987 209.74071 
L 443.89839 209.953943 
L 444.883792 206.427006 
L 446.854597 205.99921 
L 447.84 205.665406 
L 447.84 205.665406 
" clip-path="url(#pdd4872e2aa)" style="fill: none; stroke: #4c72b0; stroke-width: 1.5; stroke-linecap: round"/>
   </g>
   <g id="patch_13">
    <path d="M 68.46 236.155 
L 68.46 179.33 
" style="fill: none; stroke: #262626; stroke-width: 1.25; stroke-linejoin: miter; stroke-linecap: square"/>
   </g>
   <g id="patch_14">
    <path d="M 447.84 236.155 
L 447.84 179.33 
" style="fill: none; stroke: #262626; stroke-width: 1.25; stroke-linejoin: miter; stroke-linecap: square"/>
   </g>
   <g id="patch_15">
    <path d="M 68.46 236.155 
L 447.84 236.155 
" style="fill: none; stroke: #262626; stroke-width: 1.25; stroke-linejoin: miter; stroke-linecap: square"/>
   </g>
   <g id="patch_16">
    <path d="M 68.46 179.33 
L 447.84 179.33 
" style="fill: none; stroke: #262626; stroke-width: 1.25; stroke-linejoin: miter; stroke-linecap: square"/>
   </g>
  </g>
  <g id="axes_4">
   <g id="patch_17">
    <path d="M 68.46 311.94 
L 447.84 311.94 
L 447.84 255.115 
L 68.46 255.115 
z
" style="fill: #ffffff"/>
   </g>
   <g id="line2d_32">
    <path d="M 68.46 285.122512 
L 447.84 285.122512 
" clip-path="url(#p40c83c12b1)" style="fill: none; stroke: #000000; stroke-width: 1.5; stroke-linecap: round"/>
   </g>
   <g id="matplotlib.axis_7">
    <g id="xtick_22">
     <g id="line2d_33">
      <g>
       <use xlink:href="#m5fe890dc79" x="114.914694" y="311.94" style="fill: #262626; stroke: #262626; stroke-width: 1.25"/>
      </g>
     </g>
     <g id="text_11">
      <!-- 2017 -->
      <g style="fill: #262626" transform="translate(102.680631 329.313594) scale(0.11 -0.11)">
       <defs>
        <path id="ArialMT-37" d="M 303 3981 
L 303 4522 
L 3269 4522 
L 3269 4084 
Q 2831 3619 2401 2847 
Q 1972 2075 1738 1259 
Q 1569 684 1522 0 
L 944 0 
Q 953 541 1156 1306 
Q 1359 2072 1739 2783 
Q 2119 3494 2547 3981 
L 303 3981 
z
" transform="scale(0.015625)"/>
       </defs>
       <use xlink:href="#ArialMT-32"/>
       <use xlink:href="#ArialMT-30" x="55.615234"/>
       <use xlink:href="#ArialMT-31" x="111.230469"/>
       <use xlink:href="#ArialMT-37" x="166.845703"/>
      </g>
     </g>
    </g>
    <g id="xtick_23">
     <g id="line2d_34">
      <g>
       <use xlink:href="#m5fe890dc79" x="166.296401" y="311.94" style="fill: #262626; stroke: #262626; stroke-width: 1.25"/>
      </g>
     </g>
     <g id="text_12">
      <!-- 2018 -->
      <g style="fill: #262626" transform="translate(154.062338 329.313594) scale(0.11 -0.11)">
       <defs>
        <path id="ArialMT-38" d="M 1131 2484 
Q 781 2613 612 2850 
Q 444 3088 444 3419 
Q 444 3919 803 4259 
Q 1163 4600 1759 4600 
Q 2359 4600 2725 4251 
Q 3091 3903 3091 3403 
Q 3091 3084 2923 2848 
Q 2756 2613 2416 2484 
Q 2838 2347 3058 2040 
Q 3278 1734 3278 1309 
Q 3278 722 2862 322 
Q 2447 -78 1769 -78 
Q 1091 -78 675 323 
Q 259 725 259 1325 
Q 259 1772 486 2073 
Q 713 2375 1131 2484 
z
M 1019 3438 
Q 1019 3113 1228 2906 
Q 1438 2700 1772 2700 
Q 2097 2700 2305 2904 
Q 2513 3109 2513 3406 
Q 2513 3716 2298 3927 
Q 2084 4138 1766 4138 
Q 1444 4138 1231 3931 
Q 1019 3725 1019 3438 
z
M 838 1322 
Q 838 1081 952 856 
Q 1066 631 1291 507 
Q 1516 384 1775 384 
Q 2178 384 2440 643 
Q 2703 903 2703 1303 
Q 2703 1709 2433 1975 
Q 2163 2241 1756 2241 
Q 1359 2241 1098 1978 
Q 838 1716 838 1322 
z
" transform="scale(0.015625)"/>
       </defs>
       <use xlink:href="#ArialMT-32"/>
       <use xlink:href="#ArialMT-30" x="55.615234"/>
       <use xlink:href="#ArialMT-31" x="111.230469"/>
       <use xlink:href="#ArialMT-38" x="166.845703"/>
      </g>
     </g>
    </g>
    <g id="xtick_24">
     <g id="line2d_35">
      <g>
       <use xlink:href="#m5fe890dc79" x="217.678108" y="311.94" style="fill: #262626; stroke: #262626; stroke-width: 1.25"/>
      </g>
     </g>
     <g id="text_13">
      <!-- 2019 -->
      <g style="fill: #262626" transform="translate(205.444045 329.313594) scale(0.11 -0.11)">
       <defs>
        <path id="ArialMT-39" d="M 350 1059 
L 891 1109 
Q 959 728 1153 556 
Q 1347 384 1650 384 
Q 1909 384 2104 503 
Q 2300 622 2425 820 
Q 2550 1019 2634 1356 
Q 2719 1694 2719 2044 
Q 2719 2081 2716 2156 
Q 2547 1888 2255 1720 
Q 1963 1553 1622 1553 
Q 1053 1553 659 1965 
Q 266 2378 266 3053 
Q 266 3750 677 4175 
Q 1088 4600 1706 4600 
Q 2153 4600 2523 4359 
Q 2894 4119 3086 3673 
Q 3278 3228 3278 2384 
Q 3278 1506 3087 986 
Q 2897 466 2520 194 
Q 2144 -78 1638 -78 
Q 1100 -78 759 220 
Q 419 519 350 1059 
z
M 2653 3081 
Q 2653 3566 2395 3850 
Q 2138 4134 1775 4134 
Q 1400 4134 1122 3828 
Q 844 3522 844 3034 
Q 844 2597 1108 2323 
Q 1372 2050 1759 2050 
Q 2150 2050 2401 2323 
Q 2653 2597 2653 3081 
z
" transform="scale(0.015625)"/>
       </defs>
       <use xlink:href="#ArialMT-32"/>
       <use xlink:href="#ArialMT-30" x="55.615234"/>
       <use xlink:href="#ArialMT-31" x="111.230469"/>
       <use xlink:href="#ArialMT-39" x="166.845703"/>
      </g>
     </g>
    </g>
    <g id="xtick_25">
     <g id="line2d_36">
      <g>
       <use xlink:href="#m5fe890dc79" x="269.059814" y="311.94" style="fill: #262626; stroke: #262626; stroke-width: 1.25"/>
      </g>
     </g>
     <g id="text_14">
      <!-- 2020 -->
      <g style="fill: #262626" transform="translate(256.825752 329.313594) scale(0.11 -0.11)">
       <use xlink:href="#ArialMT-32"/>
       <use xlink:href="#ArialMT-30" x="55.615234"/>
       <use xlink:href="#ArialMT-32" x="111.230469"/>
       <use xlink:href="#ArialMT-30" x="166.845703"/>
      </g>
     </g>
    </g>
    <g id="xtick_26">
     <g id="line2d_37">
      <g>
       <use xlink:href="#m5fe890dc79" x="320.582293" y="311.94" style="fill: #262626; stroke: #262626; stroke-width: 1.25"/>
      </g>
     </g>
     <g id="text_15">
      <!-- 2021 -->
      <g style="fill: #262626" transform="translate(308.348231 329.313594) scale(0.11 -0.11)">
       <use xlink:href="#ArialMT-32"/>
       <use xlink:href="#ArialMT-30" x="55.615234"/>
       <use xlink:href="#ArialMT-32" x="111.230469"/>
       <use xlink:href="#ArialMT-31" x="166.845703"/>
      </g>
     </g>
    </g>
    <g id="xtick_27">
     <g id="line2d_38">
      <g>
       <use xlink:href="#m5fe890dc79" x="371.964" y="311.94" style="fill: #262626; stroke: #262626; stroke-width: 1.25"/>
      </g>
     </g>
     <g id="text_16">
      <!-- 2022 -->
      <g style="fill: #262626" transform="translate(359.729938 329.313594) scale(0.11 -0.11)">
       <use xlink:href="#ArialMT-32"/>
       <use xlink:href="#ArialMT-30" x="55.615234"/>
       <use xlink:href="#ArialMT-32" x="111.230469"/>
       <use xlink:href="#ArialMT-32" x="166.845703"/>
      </g>
     </g>
    </g>
    <g id="xtick_28">
     <g id="line2d_39">
      <g>
       <use xlink:href="#m5fe890dc79" x="423.345707" y="311.94" style="fill: #262626; stroke: #262626; stroke-width: 1.25"/>
      </g>
     </g>
     <g id="text_17">
      <!-- 2023 -->
      <g style="fill: #262626" transform="translate(411.111644 329.313594) scale(0.11 -0.11)">
       <defs>
        <path id="ArialMT-33" d="M 269 1209 
L 831 1284 
Q 928 806 1161 595 
Q 1394 384 1728 384 
Q 2125 384 2398 659 
Q 2672 934 2672 1341 
Q 2672 1728 2419 1979 
Q 2166 2231 1775 2231 
Q 1616 2231 1378 2169 
L 1441 2663 
Q 1497 2656 1531 2656 
Q 1891 2656 2178 2843 
Q 2466 3031 2466 3422 
Q 2466 3731 2256 3934 
Q 2047 4138 1716 4138 
Q 1388 4138 1169 3931 
Q 950 3725 888 3313 
L 325 3413 
Q 428 3978 793 4289 
Q 1159 4600 1703 4600 
Q 2078 4600 2393 4439 
Q 2709 4278 2876 4000 
Q 3044 3722 3044 3409 
Q 3044 3113 2884 2869 
Q 2725 2625 2413 2481 
Q 2819 2388 3044 2092 
Q 3269 1797 3269 1353 
Q 3269 753 2831 336 
Q 2394 -81 1725 -81 
Q 1122 -81 723 278 
Q 325 638 269 1209 
z
" transform="scale(0.015625)"/>
       </defs>
       <use xlink:href="#ArialMT-32"/>
       <use xlink:href="#ArialMT-30" x="55.615234"/>
       <use xlink:href="#ArialMT-32" x="111.230469"/>
       <use xlink:href="#ArialMT-33" x="166.845703"/>
      </g>
     </g>
    </g>
   </g>
   <g id="matplotlib.axis_8">
    <g id="ytick_8">
     <g id="line2d_40">
      <g>
       <use xlink:href="#mcac99f570c" x="68.46" y="307.176943" style="fill: #262626; stroke: #262626; stroke-width: 1.25"/>
      </g>
     </g>
     <g id="text_18">
      <!-- −1000 -->
      <g style="fill: #262626" transform="translate(28.067187 311.113739) scale(0.11 -0.11)">
       <use xlink:href="#ArialMT-2212"/>
       <use xlink:href="#ArialMT-31" x="58.398438"/>
       <use xlink:href="#ArialMT-30" x="114.013672"/>
       <use xlink:href="#ArialMT-30" x="169.628906"/>
       <use xlink:href="#ArialMT-30" x="225.244141"/>
      </g>
     </g>
    </g>
    <g id="ytick_9">
     <g id="line2d_41">
      <g>
       <use xlink:href="#mcac99f570c" x="68.46" y="285.122512" style="fill: #262626; stroke: #262626; stroke-width: 1.25"/>
      </g>
     </g>
     <g id="text_19">
      <!-- 0 -->
      <g style="fill: #262626" transform="translate(52.842969 289.059309) scale(0.11 -0.11)">
       <use xlink:href="#ArialMT-30"/>
      </g>
     </g>
    </g>
    <g id="ytick_10">
     <g id="line2d_42">
      <g>
       <use xlink:href="#mcac99f570c" x="68.46" y="263.068081" style="fill: #262626; stroke: #262626; stroke-width: 1.25"/>
      </g>
     </g>
     <g id="text_20">
      <!-- 1000 -->
      <g style="fill: #262626" transform="translate(34.491875 267.004878) scale(0.11 -0.11)">
       <use xlink:href="#ArialMT-31"/>
       <use xlink:href="#ArialMT-30" x="55.615234"/>
       <use xlink:href="#ArialMT-30" x="111.230469"/>
       <use xlink:href="#ArialMT-30" x="166.845703"/>
      </g>
     </g>
    </g>
    <g id="text_21">
     <!-- Resid -->
     <g style="fill: #262626" transform="translate(21.682187 298.866875) rotate(-90) scale(0.12 -0.12)">
      <defs>
       <path id="ArialMT-52" d="M 503 0 
L 503 4581 
L 2534 4581 
Q 3147 4581 3465 4457 
Q 3784 4334 3975 4021 
Q 4166 3709 4166 3331 
Q 4166 2844 3850 2509 
Q 3534 2175 2875 2084 
Q 3116 1969 3241 1856 
Q 3506 1613 3744 1247 
L 4541 0 
L 3778 0 
L 3172 953 
Q 2906 1366 2734 1584 
Q 2563 1803 2427 1890 
Q 2291 1978 2150 2013 
Q 2047 2034 1813 2034 
L 1109 2034 
L 1109 0 
L 503 0 
z
M 1109 2559 
L 2413 2559 
Q 2828 2559 3062 2645 
Q 3297 2731 3419 2920 
Q 3541 3109 3541 3331 
Q 3541 3656 3305 3865 
Q 3069 4075 2559 4075 
L 1109 4075 
L 1109 2559 
z
" transform="scale(0.015625)"/>
      </defs>
      <use xlink:href="#ArialMT-52"/>
      <use xlink:href="#ArialMT-65" x="72.216797"/>
      <use xlink:href="#ArialMT-73" x="127.832031"/>
      <use xlink:href="#ArialMT-69" x="177.832031"/>
      <use xlink:href="#ArialMT-64" x="200.048828"/>
     </g>
    </g>
   </g>
   <g id="line2d_43">
    <defs>
     <path id="me3eddb67d9" d="M 0 3 
C 0.795609 3 1.55874 2.683901 2.12132 2.12132 
C 2.683901 1.55874 3 0.795609 3 0 
C 3 -0.795609 2.683901 -1.55874 2.12132 -2.12132 
C 1.55874 -2.683901 0.795609 -3 0 -3 
C -0.795609 -3 -1.55874 -2.683901 -2.12132 -2.12132 
C -2.683901 -1.55874 -3 -0.795609 -3 0 
C -3 0.795609 -2.683901 1.55874 -2.12132 2.12132 
C -1.55874 2.683901 -0.795609 3 0 3 
z
" style="stroke: #4c72b0"/>
    </defs>
    <g clip-path="url(#p40c83c12b1)">
     <use xlink:href="#me3eddb67d9" x="68.46" y="289.234647" style="fill: #4c72b0; stroke: #4c72b0"/>
     <use xlink:href="#me3eddb67d9" x="69.445403" y="280.86291" style="fill: #4c72b0; stroke: #4c72b0"/>
     <use xlink:href="#me3eddb67d9" x="70.430805" y="281.017643" style="fill: #4c72b0; stroke: #4c72b0"/>
     <use xlink:href="#me3eddb67d9" x="71.416208" y="281.054099" style="fill: #4c72b0; stroke: #4c72b0"/>
     <use xlink:href="#me3eddb67d9" x="72.40161" y="281.181091" style="fill: #4c72b0; stroke: #4c72b0"/>
     <use xlink:href="#me3eddb67d9" x="73.387013" y="281.138302" style="fill: #4c72b0; stroke: #4c72b0"/>
     <use xlink:href="#me3eddb67d9" x="75.357818" y="281.397446" style="fill: #4c72b0; stroke: #4c72b0"/>
     <use xlink:href="#me3eddb67d9" x="76.343221" y="281.326633" style="fill: #4c72b0; stroke: #4c72b0"/>
     <use xlink:href="#me3eddb67d9" x="77.328623" y="281.218716" style="fill: #4c72b0; stroke: #4c72b0"/>
     <use xlink:href="#me3eddb67d9" x="78.314026" y="280.942583" style="fill: #4c72b0; stroke: #4c72b0"/>
     <use xlink:href="#me3eddb67d9" x="79.299429" y="281.266881" style="fill: #4c72b0; stroke: #4c72b0"/>
     <use xlink:href="#me3eddb67d9" x="80.284831" y="281.138227" style="fill: #4c72b0; stroke: #4c72b0"/>
     <use xlink:href="#me3eddb67d9" x="81.270234" y="281.078056" style="fill: #4c72b0; stroke: #4c72b0"/>
     <use xlink:href="#me3eddb67d9" x="82.255636" y="280.833219" style="fill: #4c72b0; stroke: #4c72b0"/>
     <use xlink:href="#me3eddb67d9" x="83.241039" y="280.966725" style="fill: #4c72b0; stroke: #4c72b0"/>
     <use xlink:href="#me3eddb67d9" x="84.226442" y="280.771158" style="fill: #4c72b0; stroke: #4c72b0"/>
     <use xlink:href="#me3eddb67d9" x="85.211844" y="280.801898" style="fill: #4c72b0; stroke: #4c72b0"/>
     <use xlink:href="#me3eddb67d9" x="86.197247" y="280.909045" style="fill: #4c72b0; stroke: #4c72b0"/>
     <use xlink:href="#me3eddb67d9" x="87.182649" y="280.801408" style="fill: #4c72b0; stroke: #4c72b0"/>
     <use xlink:href="#me3eddb67d9" x="88.168052" y="280.697759" style="fill: #4c72b0; stroke: #4c72b0"/>
     <use xlink:href="#me3eddb67d9" x="89.153455" y="281.283232" style="fill: #4c72b0; stroke: #4c72b0"/>
     <use xlink:href="#me3eddb67d9" x="90.138857" y="281.64653" style="fill: #4c72b0; stroke: #4c72b0"/>
     <use xlink:href="#me3eddb67d9" x="91.12426" y="281.828189" style="fill: #4c72b0; stroke: #4c72b0"/>
     <use xlink:href="#me3eddb67d9" x="92.109662" y="282.710176" style="fill: #4c72b0; stroke: #4c72b0"/>
     <use xlink:href="#me3eddb67d9" x="93.095065" y="284.102221" style="fill: #4c72b0; stroke: #4c72b0"/>
     <use xlink:href="#me3eddb67d9" x="94.080468" y="284.36808" style="fill: #4c72b0; stroke: #4c72b0"/>
     <use xlink:href="#me3eddb67d9" x="95.06587" y="287.864867" style="fill: #4c72b0; stroke: #4c72b0"/>
     <use xlink:href="#me3eddb67d9" x="96.051273" y="288.688344" style="fill: #4c72b0; stroke: #4c72b0"/>
     <use xlink:href="#me3eddb67d9" x="97.036675" y="288.613564" style="fill: #4c72b0; stroke: #4c72b0"/>
     <use xlink:href="#me3eddb67d9" x="98.022078" y="292.167458" style="fill: #4c72b0; stroke: #4c72b0"/>
     <use xlink:href="#me3eddb67d9" x="99.007481" y="292.445788" style="fill: #4c72b0; stroke: #4c72b0"/>
     <use xlink:href="#me3eddb67d9" x="99.992883" y="293.907467" style="fill: #4c72b0; stroke: #4c72b0"/>
     <use xlink:href="#me3eddb67d9" x="100.978286" y="293.953561" style="fill: #4c72b0; stroke: #4c72b0"/>
     <use xlink:href="#me3eddb67d9" x="101.963688" y="294.914166" style="fill: #4c72b0; stroke: #4c72b0"/>
     <use xlink:href="#me3eddb67d9" x="102.949091" y="295.252792" style="fill: #4c72b0; stroke: #4c72b0"/>
     <use xlink:href="#me3eddb67d9" x="103.934494" y="297.822494" style="fill: #4c72b0; stroke: #4c72b0"/>
     <use xlink:href="#me3eddb67d9" x="104.919896" y="297.955862" style="fill: #4c72b0; stroke: #4c72b0"/>
     <use xlink:href="#me3eddb67d9" x="105.905299" y="298.449514" style="fill: #4c72b0; stroke: #4c72b0"/>
     <use xlink:href="#me3eddb67d9" x="106.890701" y="298.848109" style="fill: #4c72b0; stroke: #4c72b0"/>
     <use xlink:href="#me3eddb67d9" x="107.876104" y="298.854615" style="fill: #4c72b0; stroke: #4c72b0"/>
     <use xlink:href="#me3eddb67d9" x="108.861506" y="298.864681" style="fill: #4c72b0; stroke: #4c72b0"/>
     <use xlink:href="#me3eddb67d9" x="109.846909" y="298.894758" style="fill: #4c72b0; stroke: #4c72b0"/>
     <use xlink:href="#me3eddb67d9" x="110.832312" y="300.277066" style="fill: #4c72b0; stroke: #4c72b0"/>
     <use xlink:href="#me3eddb67d9" x="111.817714" y="292.650281" style="fill: #4c72b0; stroke: #4c72b0"/>
     <use xlink:href="#me3eddb67d9" x="112.803117" y="293.663507" style="fill: #4c72b0; stroke: #4c72b0"/>
     <use xlink:href="#me3eddb67d9" x="113.788519" y="293.720932" style="fill: #4c72b0; stroke: #4c72b0"/>
     <use xlink:href="#me3eddb67d9" x="117.73013" y="294.641991" style="fill: #4c72b0; stroke: #4c72b0"/>
     <use xlink:href="#me3eddb67d9" x="118.715532" y="294.463254" style="fill: #4c72b0; stroke: #4c72b0"/>
     <use xlink:href="#me3eddb67d9" x="119.700935" y="290.743096" style="fill: #4c72b0; stroke: #4c72b0"/>
     <use xlink:href="#me3eddb67d9" x="120.686338" y="279.649174" style="fill: #4c72b0; stroke: #4c72b0"/>
     <use xlink:href="#me3eddb67d9" x="121.67174" y="279.276357" style="fill: #4c72b0; stroke: #4c72b0"/>
     <use xlink:href="#me3eddb67d9" x="122.657143" y="279.109586" style="fill: #4c72b0; stroke: #4c72b0"/>
     <use xlink:href="#me3eddb67d9" x="123.642545" y="279.250664" style="fill: #4c72b0; stroke: #4c72b0"/>
     <use xlink:href="#me3eddb67d9" x="124.627948" y="279.344185" style="fill: #4c72b0; stroke: #4c72b0"/>
     <use xlink:href="#me3eddb67d9" x="125.613351" y="280.155069" style="fill: #4c72b0; stroke: #4c72b0"/>
     <use xlink:href="#me3eddb67d9" x="126.598753" y="280.424944" style="fill: #4c72b0; stroke: #4c72b0"/>
     <use xlink:href="#me3eddb67d9" x="127.584156" y="280.915321" style="fill: #4c72b0; stroke: #4c72b0"/>
     <use xlink:href="#me3eddb67d9" x="128.569558" y="281.389609" style="fill: #4c72b0; stroke: #4c72b0"/>
     <use xlink:href="#me3eddb67d9" x="129.554961" y="281.924653" style="fill: #4c72b0; stroke: #4c72b0"/>
     <use xlink:href="#me3eddb67d9" x="130.540364" y="282.215141" style="fill: #4c72b0; stroke: #4c72b0"/>
     <use xlink:href="#me3eddb67d9" x="131.525766" y="282.544351" style="fill: #4c72b0; stroke: #4c72b0"/>
     <use xlink:href="#me3eddb67d9" x="132.511169" y="283.008419" style="fill: #4c72b0; stroke: #4c72b0"/>
     <use xlink:href="#me3eddb67d9" x="133.496571" y="283.804896" style="fill: #4c72b0; stroke: #4c72b0"/>
     <use xlink:href="#me3eddb67d9" x="134.481974" y="284.202435" style="fill: #4c72b0; stroke: #4c72b0"/>
     <use xlink:href="#me3eddb67d9" x="135.467377" y="284.846831" style="fill: #4c72b0; stroke: #4c72b0"/>
     <use xlink:href="#me3eddb67d9" x="136.452779" y="285.418478" style="fill: #4c72b0; stroke: #4c72b0"/>
     <use xlink:href="#me3eddb67d9" x="137.438182" y="285.853001" style="fill: #4c72b0; stroke: #4c72b0"/>
     <use xlink:href="#me3eddb67d9" x="138.423584" y="286.681391" style="fill: #4c72b0; stroke: #4c72b0"/>
     <use xlink:href="#me3eddb67d9" x="139.408987" y="287.864902" style="fill: #4c72b0; stroke: #4c72b0"/>
     <use xlink:href="#me3eddb67d9" x="140.39439" y="288.891186" style="fill: #4c72b0; stroke: #4c72b0"/>
     <use xlink:href="#me3eddb67d9" x="141.379792" y="289.746792" style="fill: #4c72b0; stroke: #4c72b0"/>
     <use xlink:href="#me3eddb67d9" x="142.365195" y="290.679043" style="fill: #4c72b0; stroke: #4c72b0"/>
     <use xlink:href="#me3eddb67d9" x="143.350597" y="290.13907" style="fill: #4c72b0; stroke: #4c72b0"/>
     <use xlink:href="#me3eddb67d9" x="144.336" y="290.94457" style="fill: #4c72b0; stroke: #4c72b0"/>
     <use xlink:href="#me3eddb67d9" x="145.321403" y="285.910771" style="fill: #4c72b0; stroke: #4c72b0"/>
     <use xlink:href="#me3eddb67d9" x="146.306805" y="287.368496" style="fill: #4c72b0; stroke: #4c72b0"/>
     <use xlink:href="#me3eddb67d9" x="147.292208" y="287.705102" style="fill: #4c72b0; stroke: #4c72b0"/>
     <use xlink:href="#me3eddb67d9" x="148.27761" y="283.444559" style="fill: #4c72b0; stroke: #4c72b0"/>
     <use xlink:href="#me3eddb67d9" x="149.263013" y="283.227429" style="fill: #4c72b0; stroke: #4c72b0"/>
     <use xlink:href="#me3eddb67d9" x="150.248416" y="280.894842" style="fill: #4c72b0; stroke: #4c72b0"/>
     <use xlink:href="#me3eddb67d9" x="151.233818" y="281.201431" style="fill: #4c72b0; stroke: #4c72b0"/>
     <use xlink:href="#me3eddb67d9" x="152.219221" y="280.547274" style="fill: #4c72b0; stroke: #4c72b0"/>
     <use xlink:href="#me3eddb67d9" x="153.204623" y="280.815274" style="fill: #4c72b0; stroke: #4c72b0"/>
     <use xlink:href="#me3eddb67d9" x="154.190026" y="276.688834" style="fill: #4c72b0; stroke: #4c72b0"/>
     <use xlink:href="#me3eddb67d9" x="155.175429" y="276.724593" style="fill: #4c72b0; stroke: #4c72b0"/>
     <use xlink:href="#me3eddb67d9" x="156.160831" y="276.071395" style="fill: #4c72b0; stroke: #4c72b0"/>
     <use xlink:href="#me3eddb67d9" x="157.146234" y="276.095108" style="fill: #4c72b0; stroke: #4c72b0"/>
     <use xlink:href="#me3eddb67d9" x="158.131636" y="276.301044" style="fill: #4c72b0; stroke: #4c72b0"/>
     <use xlink:href="#me3eddb67d9" x="159.117039" y="276.490606" style="fill: #4c72b0; stroke: #4c72b0"/>
     <use xlink:href="#me3eddb67d9" x="160.102442" y="276.746476" style="fill: #4c72b0; stroke: #4c72b0"/>
     <use xlink:href="#me3eddb67d9" x="161.087844" y="274.544088" style="fill: #4c72b0; stroke: #4c72b0"/>
     <use xlink:href="#me3eddb67d9" x="162.073247" y="262.611969" style="fill: #4c72b0; stroke: #4c72b0"/>
     <use xlink:href="#me3eddb67d9" x="163.058649" y="260.380221" style="fill: #4c72b0; stroke: #4c72b0"/>
     <use xlink:href="#me3eddb67d9" x="164.044052" y="260.45406" style="fill: #4c72b0; stroke: #4c72b0"/>
     <use xlink:href="#me3eddb67d9" x="165.029455" y="259.143804" style="fill: #4c72b0; stroke: #4c72b0"/>
     <use xlink:href="#me3eddb67d9" x="166.014857" y="259.289646" style="fill: #4c72b0; stroke: #4c72b0"/>
     <use xlink:href="#me3eddb67d9" x="167.00026" y="257.697955" style="fill: #4c72b0; stroke: #4c72b0"/>
     <use xlink:href="#me3eddb67d9" x="168.971065" y="299.603487" style="fill: #4c72b0; stroke: #4c72b0"/>
     <use xlink:href="#me3eddb67d9" x="169.956468" y="299.90039" style="fill: #4c72b0; stroke: #4c72b0"/>
     <use xlink:href="#me3eddb67d9" x="170.94187" y="300.214841" style="fill: #4c72b0; stroke: #4c72b0"/>
     <use xlink:href="#me3eddb67d9" x="171.927273" y="299.717541" style="fill: #4c72b0; stroke: #4c72b0"/>
     <use xlink:href="#me3eddb67d9" x="172.912675" y="299.789451" style="fill: #4c72b0; stroke: #4c72b0"/>
     <use xlink:href="#me3eddb67d9" x="173.898078" y="297.725416" style="fill: #4c72b0; stroke: #4c72b0"/>
     <use xlink:href="#me3eddb67d9" x="174.883481" y="297.551455" style="fill: #4c72b0; stroke: #4c72b0"/>
     <use xlink:href="#me3eddb67d9" x="175.868883" y="297.064204" style="fill: #4c72b0; stroke: #4c72b0"/>
     <use xlink:href="#me3eddb67d9" x="176.854286" y="297.323647" style="fill: #4c72b0; stroke: #4c72b0"/>
     <use xlink:href="#me3eddb67d9" x="186.708312" y="295.627735" style="fill: #4c72b0; stroke: #4c72b0"/>
     <use xlink:href="#me3eddb67d9" x="187.693714" y="295.556811" style="fill: #4c72b0; stroke: #4c72b0"/>
     <use xlink:href="#me3eddb67d9" x="188.679117" y="295.235622" style="fill: #4c72b0; stroke: #4c72b0"/>
     <use xlink:href="#me3eddb67d9" x="189.664519" y="295.136413" style="fill: #4c72b0; stroke: #4c72b0"/>
     <use xlink:href="#me3eddb67d9" x="190.649922" y="293.480641" style="fill: #4c72b0; stroke: #4c72b0"/>
     <use xlink:href="#me3eddb67d9" x="191.635325" y="293.380957" style="fill: #4c72b0; stroke: #4c72b0"/>
     <use xlink:href="#me3eddb67d9" x="192.620727" y="292.211098" style="fill: #4c72b0; stroke: #4c72b0"/>
     <use xlink:href="#me3eddb67d9" x="194.591532" y="291.538303" style="fill: #4c72b0; stroke: #4c72b0"/>
     <use xlink:href="#me3eddb67d9" x="195.576935" y="291.350388" style="fill: #4c72b0; stroke: #4c72b0"/>
     <use xlink:href="#me3eddb67d9" x="196.562338" y="290.855552" style="fill: #4c72b0; stroke: #4c72b0"/>
     <use xlink:href="#me3eddb67d9" x="197.54774" y="287.613421" style="fill: #4c72b0; stroke: #4c72b0"/>
     <use xlink:href="#me3eddb67d9" x="198.533143" y="285.038818" style="fill: #4c72b0; stroke: #4c72b0"/>
     <use xlink:href="#me3eddb67d9" x="199.518545" y="283.762757" style="fill: #4c72b0; stroke: #4c72b0"/>
     <use xlink:href="#me3eddb67d9" x="200.503948" y="280.431371" style="fill: #4c72b0; stroke: #4c72b0"/>
     <use xlink:href="#me3eddb67d9" x="201.489351" y="278.039313" style="fill: #4c72b0; stroke: #4c72b0"/>
     <use xlink:href="#me3eddb67d9" x="202.474753" y="276.051019" style="fill: #4c72b0; stroke: #4c72b0"/>
     <use xlink:href="#me3eddb67d9" x="203.460156" y="276.23663" style="fill: #4c72b0; stroke: #4c72b0"/>
     <use xlink:href="#me3eddb67d9" x="204.445558" y="271.68435" style="fill: #4c72b0; stroke: #4c72b0"/>
     <use xlink:href="#me3eddb67d9" x="205.430961" y="271.593907" style="fill: #4c72b0; stroke: #4c72b0"/>
     <use xlink:href="#me3eddb67d9" x="206.416364" y="270.622797" style="fill: #4c72b0; stroke: #4c72b0"/>
     <use xlink:href="#me3eddb67d9" x="207.401766" y="270.461711" style="fill: #4c72b0; stroke: #4c72b0"/>
     <use xlink:href="#me3eddb67d9" x="208.387169" y="271.065168" style="fill: #4c72b0; stroke: #4c72b0"/>
     <use xlink:href="#me3eddb67d9" x="209.372571" y="270.508903" style="fill: #4c72b0; stroke: #4c72b0"/>
     <use xlink:href="#me3eddb67d9" x="210.357974" y="269.991535" style="fill: #4c72b0; stroke: #4c72b0"/>
     <use xlink:href="#me3eddb67d9" x="211.343377" y="268.766236" style="fill: #4c72b0; stroke: #4c72b0"/>
     <use xlink:href="#me3eddb67d9" x="212.328779" y="269.652371" style="fill: #4c72b0; stroke: #4c72b0"/>
     <use xlink:href="#me3eddb67d9" x="213.314182" y="269.306182" style="fill: #4c72b0; stroke: #4c72b0"/>
     <use xlink:href="#me3eddb67d9" x="214.299584" y="269.262531" style="fill: #4c72b0; stroke: #4c72b0"/>
     <use xlink:href="#me3eddb67d9" x="215.284987" y="268.334518" style="fill: #4c72b0; stroke: #4c72b0"/>
     <use xlink:href="#me3eddb67d9" x="216.27039" y="268.021289" style="fill: #4c72b0; stroke: #4c72b0"/>
     <use xlink:href="#me3eddb67d9" x="217.255792" y="267.733098" style="fill: #4c72b0; stroke: #4c72b0"/>
     <use xlink:href="#me3eddb67d9" x="218.241195" y="267.273063" style="fill: #4c72b0; stroke: #4c72b0"/>
     <use xlink:href="#me3eddb67d9" x="219.226597" y="267.762566" style="fill: #4c72b0; stroke: #4c72b0"/>
     <use xlink:href="#me3eddb67d9" x="222.182805" y="309.357045" style="fill: #4c72b0; stroke: #4c72b0"/>
     <use xlink:href="#me3eddb67d9" x="223.168208" y="304.718061" style="fill: #4c72b0; stroke: #4c72b0"/>
     <use xlink:href="#me3eddb67d9" x="224.15361" y="304.531958" style="fill: #4c72b0; stroke: #4c72b0"/>
     <use xlink:href="#me3eddb67d9" x="225.139013" y="304.614155" style="fill: #4c72b0; stroke: #4c72b0"/>
     <use xlink:href="#me3eddb67d9" x="226.124416" y="304.791599" style="fill: #4c72b0; stroke: #4c72b0"/>
     <use xlink:href="#me3eddb67d9" x="227.109818" y="303.499964" style="fill: #4c72b0; stroke: #4c72b0"/>
     <use xlink:href="#me3eddb67d9" x="228.095221" y="289.80744" style="fill: #4c72b0; stroke: #4c72b0"/>
     <use xlink:href="#me3eddb67d9" x="232.036831" y="289.82154" style="fill: #4c72b0; stroke: #4c72b0"/>
     <use xlink:href="#me3eddb67d9" x="233.022234" y="289.574633" style="fill: #4c72b0; stroke: #4c72b0"/>
     <use xlink:href="#me3eddb67d9" x="234.007636" y="289.618384" style="fill: #4c72b0; stroke: #4c72b0"/>
     <use xlink:href="#me3eddb67d9" x="234.993039" y="289.355795" style="fill: #4c72b0; stroke: #4c72b0"/>
     <use xlink:href="#me3eddb67d9" x="235.978442" y="289.873136" style="fill: #4c72b0; stroke: #4c72b0"/>
     <use xlink:href="#me3eddb67d9" x="236.963844" y="289.657439" style="fill: #4c72b0; stroke: #4c72b0"/>
     <use xlink:href="#me3eddb67d9" x="237.949247" y="289.522458" style="fill: #4c72b0; stroke: #4c72b0"/>
     <use xlink:href="#me3eddb67d9" x="238.934649" y="288.476618" style="fill: #4c72b0; stroke: #4c72b0"/>
     <use xlink:href="#me3eddb67d9" x="239.920052" y="288.82345" style="fill: #4c72b0; stroke: #4c72b0"/>
     <use xlink:href="#me3eddb67d9" x="240.905455" y="288.573839" style="fill: #4c72b0; stroke: #4c72b0"/>
     <use xlink:href="#me3eddb67d9" x="241.890857" y="288.415571" style="fill: #4c72b0; stroke: #4c72b0"/>
     <use xlink:href="#me3eddb67d9" x="242.87626" y="288.171951" style="fill: #4c72b0; stroke: #4c72b0"/>
     <use xlink:href="#me3eddb67d9" x="243.861662" y="288.38144" style="fill: #4c72b0; stroke: #4c72b0"/>
     <use xlink:href="#me3eddb67d9" x="244.847065" y="288.125351" style="fill: #4c72b0; stroke: #4c72b0"/>
     <use xlink:href="#me3eddb67d9" x="245.832468" y="288.335393" style="fill: #4c72b0; stroke: #4c72b0"/>
     <use xlink:href="#me3eddb67d9" x="246.81787" y="287.09837" style="fill: #4c72b0; stroke: #4c72b0"/>
     <use xlink:href="#me3eddb67d9" x="247.803273" y="286.398981" style="fill: #4c72b0; stroke: #4c72b0"/>
     <use xlink:href="#me3eddb67d9" x="248.788675" y="284.808827" style="fill: #4c72b0; stroke: #4c72b0"/>
     <use xlink:href="#me3eddb67d9" x="249.774078" y="284.902978" style="fill: #4c72b0; stroke: #4c72b0"/>
     <use xlink:href="#me3eddb67d9" x="250.759481" y="285.199462" style="fill: #4c72b0; stroke: #4c72b0"/>
     <use xlink:href="#me3eddb67d9" x="251.744883" y="283.887454" style="fill: #4c72b0; stroke: #4c72b0"/>
     <use xlink:href="#me3eddb67d9" x="252.730286" y="283.586258" style="fill: #4c72b0; stroke: #4c72b0"/>
     <use xlink:href="#me3eddb67d9" x="253.715688" y="284.183469" style="fill: #4c72b0; stroke: #4c72b0"/>
     <use xlink:href="#me3eddb67d9" x="254.701091" y="284.44415" style="fill: #4c72b0; stroke: #4c72b0"/>
     <use xlink:href="#me3eddb67d9" x="255.686494" y="285.431489" style="fill: #4c72b0; stroke: #4c72b0"/>
     <use xlink:href="#me3eddb67d9" x="256.671896" y="286.403772" style="fill: #4c72b0; stroke: #4c72b0"/>
     <use xlink:href="#me3eddb67d9" x="257.657299" y="285.72635" style="fill: #4c72b0; stroke: #4c72b0"/>
     <use xlink:href="#me3eddb67d9" x="258.642701" y="285.865351" style="fill: #4c72b0; stroke: #4c72b0"/>
     <use xlink:href="#me3eddb67d9" x="259.628104" y="285.672132" style="fill: #4c72b0; stroke: #4c72b0"/>
     <use xlink:href="#me3eddb67d9" x="260.613506" y="285.731331" style="fill: #4c72b0; stroke: #4c72b0"/>
     <use xlink:href="#me3eddb67d9" x="261.598909" y="285.671564" style="fill: #4c72b0; stroke: #4c72b0"/>
     <use xlink:href="#me3eddb67d9" x="262.584312" y="284.497552" style="fill: #4c72b0; stroke: #4c72b0"/>
     <use xlink:href="#me3eddb67d9" x="263.569714" y="284.675469" style="fill: #4c72b0; stroke: #4c72b0"/>
     <use xlink:href="#me3eddb67d9" x="264.555117" y="285.318427" style="fill: #4c72b0; stroke: #4c72b0"/>
     <use xlink:href="#me3eddb67d9" x="265.540519" y="285.378549" style="fill: #4c72b0; stroke: #4c72b0"/>
     <use xlink:href="#me3eddb67d9" x="266.525922" y="285.528935" style="fill: #4c72b0; stroke: #4c72b0"/>
     <use xlink:href="#me3eddb67d9" x="267.511325" y="285.64919" style="fill: #4c72b0; stroke: #4c72b0"/>
     <use xlink:href="#me3eddb67d9" x="268.496727" y="285.639823" style="fill: #4c72b0; stroke: #4c72b0"/>
     <use xlink:href="#me3eddb67d9" x="269.48213" y="285.617689" style="fill: #4c72b0; stroke: #4c72b0"/>
     <use xlink:href="#me3eddb67d9" x="270.467532" y="285.648623" style="fill: #4c72b0; stroke: #4c72b0"/>
     <use xlink:href="#me3eddb67d9" x="271.452935" y="285.943385" style="fill: #4c72b0; stroke: #4c72b0"/>
     <use xlink:href="#me3eddb67d9" x="272.438338" y="272.289462" style="fill: #4c72b0; stroke: #4c72b0"/>
     <use xlink:href="#me3eddb67d9" x="274.409143" y="288.087271" style="fill: #4c72b0; stroke: #4c72b0"/>
     <use xlink:href="#me3eddb67d9" x="275.394545" y="288.029149" style="fill: #4c72b0; stroke: #4c72b0"/>
     <use xlink:href="#me3eddb67d9" x="276.379948" y="288.226177" style="fill: #4c72b0; stroke: #4c72b0"/>
     <use xlink:href="#me3eddb67d9" x="277.365351" y="288.240506" style="fill: #4c72b0; stroke: #4c72b0"/>
     <use xlink:href="#me3eddb67d9" x="278.350753" y="288.317448" style="fill: #4c72b0; stroke: #4c72b0"/>
     <use xlink:href="#me3eddb67d9" x="279.336156" y="282.014211" style="fill: #4c72b0; stroke: #4c72b0"/>
     <use xlink:href="#me3eddb67d9" x="280.321558" y="281.787997" style="fill: #4c72b0; stroke: #4c72b0"/>
     <use xlink:href="#me3eddb67d9" x="281.306961" y="281.768945" style="fill: #4c72b0; stroke: #4c72b0"/>
     <use xlink:href="#me3eddb67d9" x="282.292364" y="281.772913" style="fill: #4c72b0; stroke: #4c72b0"/>
     <use xlink:href="#me3eddb67d9" x="283.277766" y="281.994226" style="fill: #4c72b0; stroke: #4c72b0"/>
     <use xlink:href="#me3eddb67d9" x="299.044208" y="282.165156" style="fill: #4c72b0; stroke: #4c72b0"/>
     <use xlink:href="#me3eddb67d9" x="300.02961" y="282.106998" style="fill: #4c72b0; stroke: #4c72b0"/>
     <use xlink:href="#me3eddb67d9" x="301.015013" y="282.100566" style="fill: #4c72b0; stroke: #4c72b0"/>
     <use xlink:href="#me3eddb67d9" x="302.000416" y="282.209979" style="fill: #4c72b0; stroke: #4c72b0"/>
     <use xlink:href="#me3eddb67d9" x="302.985818" y="282.42572" style="fill: #4c72b0; stroke: #4c72b0"/>
     <use xlink:href="#me3eddb67d9" x="303.971221" y="282.332553" style="fill: #4c72b0; stroke: #4c72b0"/>
     <use xlink:href="#me3eddb67d9" x="304.956623" y="282.302242" style="fill: #4c72b0; stroke: #4c72b0"/>
     <use xlink:href="#me3eddb67d9" x="305.942026" y="282.08617" style="fill: #4c72b0; stroke: #4c72b0"/>
     <use xlink:href="#me3eddb67d9" x="306.927429" y="282.279651" style="fill: #4c72b0; stroke: #4c72b0"/>
     <use xlink:href="#me3eddb67d9" x="308.898234" y="282.157867" style="fill: #4c72b0; stroke: #4c72b0"/>
     <use xlink:href="#me3eddb67d9" x="310.869039" y="281.946476" style="fill: #4c72b0; stroke: #4c72b0"/>
     <use xlink:href="#me3eddb67d9" x="311.854442" y="282.421127" style="fill: #4c72b0; stroke: #4c72b0"/>
     <use xlink:href="#me3eddb67d9" x="312.839844" y="282.573633" style="fill: #4c72b0; stroke: #4c72b0"/>
     <use xlink:href="#me3eddb67d9" x="313.825247" y="283.106144" style="fill: #4c72b0; stroke: #4c72b0"/>
     <use xlink:href="#me3eddb67d9" x="314.810649" y="283.876055" style="fill: #4c72b0; stroke: #4c72b0"/>
     <use xlink:href="#me3eddb67d9" x="317.766857" y="284.335682" style="fill: #4c72b0; stroke: #4c72b0"/>
     <use xlink:href="#me3eddb67d9" x="318.75226" y="285.047411" style="fill: #4c72b0; stroke: #4c72b0"/>
     <use xlink:href="#me3eddb67d9" x="319.737662" y="286.089371" style="fill: #4c72b0; stroke: #4c72b0"/>
     <use xlink:href="#me3eddb67d9" x="320.723065" y="286.781081" style="fill: #4c72b0; stroke: #4c72b0"/>
     <use xlink:href="#me3eddb67d9" x="321.708468" y="287.148307" style="fill: #4c72b0; stroke: #4c72b0"/>
     <use xlink:href="#me3eddb67d9" x="322.69387" y="287.76713" style="fill: #4c72b0; stroke: #4c72b0"/>
     <use xlink:href="#me3eddb67d9" x="323.679273" y="288.636382" style="fill: #4c72b0; stroke: #4c72b0"/>
     <use xlink:href="#me3eddb67d9" x="325.650078" y="288.489945" style="fill: #4c72b0; stroke: #4c72b0"/>
     <use xlink:href="#me3eddb67d9" x="327.620883" y="291.691426" style="fill: #4c72b0; stroke: #4c72b0"/>
     <use xlink:href="#me3eddb67d9" x="328.606286" y="291.834483" style="fill: #4c72b0; stroke: #4c72b0"/>
     <use xlink:href="#me3eddb67d9" x="329.591688" y="292.0585" style="fill: #4c72b0; stroke: #4c72b0"/>
     <use xlink:href="#me3eddb67d9" x="330.577091" y="292.157259" style="fill: #4c72b0; stroke: #4c72b0"/>
     <use xlink:href="#me3eddb67d9" x="331.562494" y="292.41223" style="fill: #4c72b0; stroke: #4c72b0"/>
     <use xlink:href="#me3eddb67d9" x="332.547896" y="292.681889" style="fill: #4c72b0; stroke: #4c72b0"/>
     <use xlink:href="#me3eddb67d9" x="333.533299" y="292.948275" style="fill: #4c72b0; stroke: #4c72b0"/>
     <use xlink:href="#me3eddb67d9" x="334.518701" y="293.003657" style="fill: #4c72b0; stroke: #4c72b0"/>
     <use xlink:href="#me3eddb67d9" x="335.504104" y="292.717433" style="fill: #4c72b0; stroke: #4c72b0"/>
     <use xlink:href="#me3eddb67d9" x="336.489506" y="292.945299" style="fill: #4c72b0; stroke: #4c72b0"/>
     <use xlink:href="#me3eddb67d9" x="337.474909" y="292.959318" style="fill: #4c72b0; stroke: #4c72b0"/>
     <use xlink:href="#me3eddb67d9" x="338.460312" y="292.974384" style="fill: #4c72b0; stroke: #4c72b0"/>
     <use xlink:href="#me3eddb67d9" x="339.445714" y="293.009569" style="fill: #4c72b0; stroke: #4c72b0"/>
     <use xlink:href="#me3eddb67d9" x="340.431117" y="293.161055" style="fill: #4c72b0; stroke: #4c72b0"/>
     <use xlink:href="#me3eddb67d9" x="341.416519" y="286.119817" style="fill: #4c72b0; stroke: #4c72b0"/>
     <use xlink:href="#me3eddb67d9" x="342.401922" y="281.673809" style="fill: #4c72b0; stroke: #4c72b0"/>
     <use xlink:href="#me3eddb67d9" x="343.387325" y="281.697868" style="fill: #4c72b0; stroke: #4c72b0"/>
     <use xlink:href="#me3eddb67d9" x="344.372727" y="281.833905" style="fill: #4c72b0; stroke: #4c72b0"/>
     <use xlink:href="#me3eddb67d9" x="345.35813" y="281.914" style="fill: #4c72b0; stroke: #4c72b0"/>
     <use xlink:href="#me3eddb67d9" x="346.343532" y="281.976862" style="fill: #4c72b0; stroke: #4c72b0"/>
     <use xlink:href="#me3eddb67d9" x="347.328935" y="280.384516" style="fill: #4c72b0; stroke: #4c72b0"/>
     <use xlink:href="#me3eddb67d9" x="348.314338" y="280.271587" style="fill: #4c72b0; stroke: #4c72b0"/>
     <use xlink:href="#me3eddb67d9" x="349.29974" y="280.26705" style="fill: #4c72b0; stroke: #4c72b0"/>
     <use xlink:href="#me3eddb67d9" x="350.285143" y="280.421253" style="fill: #4c72b0; stroke: #4c72b0"/>
     <use xlink:href="#me3eddb67d9" x="351.270545" y="282.100511" style="fill: #4c72b0; stroke: #4c72b0"/>
     <use xlink:href="#me3eddb67d9" x="352.255948" y="282.263856" style="fill: #4c72b0; stroke: #4c72b0"/>
     <use xlink:href="#me3eddb67d9" x="353.241351" y="282.381044" style="fill: #4c72b0; stroke: #4c72b0"/>
     <use xlink:href="#me3eddb67d9" x="354.226753" y="282.440408" style="fill: #4c72b0; stroke: #4c72b0"/>
     <use xlink:href="#me3eddb67d9" x="355.212156" y="282.597315" style="fill: #4c72b0; stroke: #4c72b0"/>
     <use xlink:href="#me3eddb67d9" x="356.197558" y="282.758585" style="fill: #4c72b0; stroke: #4c72b0"/>
     <use xlink:href="#me3eddb67d9" x="357.182961" y="282.879498" style="fill: #4c72b0; stroke: #4c72b0"/>
     <use xlink:href="#me3eddb67d9" x="358.168364" y="283.032597" style="fill: #4c72b0; stroke: #4c72b0"/>
     <use xlink:href="#me3eddb67d9" x="359.153766" y="283.192382" style="fill: #4c72b0; stroke: #4c72b0"/>
     <use xlink:href="#me3eddb67d9" x="360.139169" y="283.313602" style="fill: #4c72b0; stroke: #4c72b0"/>
     <use xlink:href="#me3eddb67d9" x="361.124571" y="283.416235" style="fill: #4c72b0; stroke: #4c72b0"/>
     <use xlink:href="#me3eddb67d9" x="362.109974" y="283.624901" style="fill: #4c72b0; stroke: #4c72b0"/>
     <use xlink:href="#me3eddb67d9" x="363.095377" y="283.915509" style="fill: #4c72b0; stroke: #4c72b0"/>
     <use xlink:href="#me3eddb67d9" x="364.080779" y="284.029122" style="fill: #4c72b0; stroke: #4c72b0"/>
     <use xlink:href="#me3eddb67d9" x="365.066182" y="284.396824" style="fill: #4c72b0; stroke: #4c72b0"/>
     <use xlink:href="#me3eddb67d9" x="366.051584" y="284.644466" style="fill: #4c72b0; stroke: #4c72b0"/>
     <use xlink:href="#me3eddb67d9" x="367.036987" y="284.805953" style="fill: #4c72b0; stroke: #4c72b0"/>
     <use xlink:href="#me3eddb67d9" x="368.02239" y="285.119833" style="fill: #4c72b0; stroke: #4c72b0"/>
     <use xlink:href="#me3eddb67d9" x="369.007792" y="285.417656" style="fill: #4c72b0; stroke: #4c72b0"/>
     <use xlink:href="#me3eddb67d9" x="369.993195" y="285.551317" style="fill: #4c72b0; stroke: #4c72b0"/>
     <use xlink:href="#me3eddb67d9" x="370.978597" y="285.588655" style="fill: #4c72b0; stroke: #4c72b0"/>
     <use xlink:href="#me3eddb67d9" x="371.964" y="285.576655" style="fill: #4c72b0; stroke: #4c72b0"/>
     <use xlink:href="#me3eddb67d9" x="372.949403" y="285.74171" style="fill: #4c72b0; stroke: #4c72b0"/>
     <use xlink:href="#me3eddb67d9" x="373.934805" y="285.997298" style="fill: #4c72b0; stroke: #4c72b0"/>
     <use xlink:href="#me3eddb67d9" x="374.920208" y="285.362049" style="fill: #4c72b0; stroke: #4c72b0"/>
     <use xlink:href="#me3eddb67d9" x="375.90561" y="285.434281" style="fill: #4c72b0; stroke: #4c72b0"/>
     <use xlink:href="#me3eddb67d9" x="376.891013" y="285.426094" style="fill: #4c72b0; stroke: #4c72b0"/>
     <use xlink:href="#me3eddb67d9" x="377.876416" y="285.436112" style="fill: #4c72b0; stroke: #4c72b0"/>
     <use xlink:href="#me3eddb67d9" x="379.847221" y="286.902982" style="fill: #4c72b0; stroke: #4c72b0"/>
     <use xlink:href="#me3eddb67d9" x="380.832623" y="286.906533" style="fill: #4c72b0; stroke: #4c72b0"/>
     <use xlink:href="#me3eddb67d9" x="381.818026" y="286.870064" style="fill: #4c72b0; stroke: #4c72b0"/>
     <use xlink:href="#me3eddb67d9" x="382.803429" y="286.817796" style="fill: #4c72b0; stroke: #4c72b0"/>
     <use xlink:href="#me3eddb67d9" x="383.788831" y="285.973811" style="fill: #4c72b0; stroke: #4c72b0"/>
     <use xlink:href="#me3eddb67d9" x="384.774234" y="285.993749" style="fill: #4c72b0; stroke: #4c72b0"/>
     <use xlink:href="#me3eddb67d9" x="385.759636" y="285.984462" style="fill: #4c72b0; stroke: #4c72b0"/>
     <use xlink:href="#me3eddb67d9" x="386.745039" y="285.978956" style="fill: #4c72b0; stroke: #4c72b0"/>
     <use xlink:href="#me3eddb67d9" x="387.730442" y="285.969922" style="fill: #4c72b0; stroke: #4c72b0"/>
     <use xlink:href="#me3eddb67d9" x="388.715844" y="285.970783" style="fill: #4c72b0; stroke: #4c72b0"/>
     <use xlink:href="#me3eddb67d9" x="389.701247" y="285.410788" style="fill: #4c72b0; stroke: #4c72b0"/>
     <use xlink:href="#me3eddb67d9" x="390.686649" y="283.305838" style="fill: #4c72b0; stroke: #4c72b0"/>
     <use xlink:href="#me3eddb67d9" x="391.672052" y="283.321204" style="fill: #4c72b0; stroke: #4c72b0"/>
     <use xlink:href="#me3eddb67d9" x="392.657455" y="283.335081" style="fill: #4c72b0; stroke: #4c72b0"/>
     <use xlink:href="#me3eddb67d9" x="393.642857" y="283.356464" style="fill: #4c72b0; stroke: #4c72b0"/>
     <use xlink:href="#me3eddb67d9" x="394.62826" y="283.423885" style="fill: #4c72b0; stroke: #4c72b0"/>
     <use xlink:href="#me3eddb67d9" x="395.613662" y="284.022383" style="fill: #4c72b0; stroke: #4c72b0"/>
     <use xlink:href="#me3eddb67d9" x="396.599065" y="284.240787" style="fill: #4c72b0; stroke: #4c72b0"/>
     <use xlink:href="#me3eddb67d9" x="397.584468" y="284.391861" style="fill: #4c72b0; stroke: #4c72b0"/>
     <use xlink:href="#me3eddb67d9" x="398.56987" y="284.610042" style="fill: #4c72b0; stroke: #4c72b0"/>
     <use xlink:href="#me3eddb67d9" x="399.555273" y="288.11715" style="fill: #4c72b0; stroke: #4c72b0"/>
     <use xlink:href="#me3eddb67d9" x="400.540675" y="287.874509" style="fill: #4c72b0; stroke: #4c72b0"/>
     <use xlink:href="#me3eddb67d9" x="401.526078" y="287.865255" style="fill: #4c72b0; stroke: #4c72b0"/>
     <use xlink:href="#me3eddb67d9" x="402.511481" y="287.868262" style="fill: #4c72b0; stroke: #4c72b0"/>
     <use xlink:href="#me3eddb67d9" x="403.496883" y="287.896376" style="fill: #4c72b0; stroke: #4c72b0"/>
     <use xlink:href="#me3eddb67d9" x="404.482286" y="287.655519" style="fill: #4c72b0; stroke: #4c72b0"/>
     <use xlink:href="#me3eddb67d9" x="405.467688" y="287.663063" style="fill: #4c72b0; stroke: #4c72b0"/>
     <use xlink:href="#me3eddb67d9" x="406.453091" y="287.605669" style="fill: #4c72b0; stroke: #4c72b0"/>
     <use xlink:href="#me3eddb67d9" x="407.438494" y="287.641233" style="fill: #4c72b0; stroke: #4c72b0"/>
     <use xlink:href="#me3eddb67d9" x="408.423896" y="287.466132" style="fill: #4c72b0; stroke: #4c72b0"/>
     <use xlink:href="#me3eddb67d9" x="409.409299" y="287.502259" style="fill: #4c72b0; stroke: #4c72b0"/>
     <use xlink:href="#me3eddb67d9" x="410.394701" y="287.437536" style="fill: #4c72b0; stroke: #4c72b0"/>
     <use xlink:href="#me3eddb67d9" x="411.380104" y="287.248615" style="fill: #4c72b0; stroke: #4c72b0"/>
     <use xlink:href="#me3eddb67d9" x="412.365506" y="287.232285" style="fill: #4c72b0; stroke: #4c72b0"/>
     <use xlink:href="#me3eddb67d9" x="413.350909" y="287.021848" style="fill: #4c72b0; stroke: #4c72b0"/>
     <use xlink:href="#me3eddb67d9" x="414.336312" y="286.53955" style="fill: #4c72b0; stroke: #4c72b0"/>
     <use xlink:href="#me3eddb67d9" x="415.321714" y="286.213949" style="fill: #4c72b0; stroke: #4c72b0"/>
     <use xlink:href="#me3eddb67d9" x="416.307117" y="285.925165" style="fill: #4c72b0; stroke: #4c72b0"/>
     <use xlink:href="#me3eddb67d9" x="417.292519" y="285.351255" style="fill: #4c72b0; stroke: #4c72b0"/>
     <use xlink:href="#me3eddb67d9" x="418.277922" y="284.867825" style="fill: #4c72b0; stroke: #4c72b0"/>
     <use xlink:href="#me3eddb67d9" x="419.263325" y="284.671163" style="fill: #4c72b0; stroke: #4c72b0"/>
     <use xlink:href="#me3eddb67d9" x="420.248727" y="284.172754" style="fill: #4c72b0; stroke: #4c72b0"/>
     <use xlink:href="#me3eddb67d9" x="421.23413" y="283.573136" style="fill: #4c72b0; stroke: #4c72b0"/>
     <use xlink:href="#me3eddb67d9" x="422.219532" y="283.581283" style="fill: #4c72b0; stroke: #4c72b0"/>
     <use xlink:href="#me3eddb67d9" x="423.204935" y="282.540374" style="fill: #4c72b0; stroke: #4c72b0"/>
     <use xlink:href="#me3eddb67d9" x="424.190338" y="282.460197" style="fill: #4c72b0; stroke: #4c72b0"/>
     <use xlink:href="#me3eddb67d9" x="425.17574" y="282.32472" style="fill: #4c72b0; stroke: #4c72b0"/>
     <use xlink:href="#me3eddb67d9" x="426.161143" y="282.299279" style="fill: #4c72b0; stroke: #4c72b0"/>
     <use xlink:href="#me3eddb67d9" x="427.146545" y="281.305734" style="fill: #4c72b0; stroke: #4c72b0"/>
     <use xlink:href="#me3eddb67d9" x="428.131948" y="281.175562" style="fill: #4c72b0; stroke: #4c72b0"/>
     <use xlink:href="#me3eddb67d9" x="429.117351" y="280.915396" style="fill: #4c72b0; stroke: #4c72b0"/>
     <use xlink:href="#me3eddb67d9" x="430.102753" y="280.929009" style="fill: #4c72b0; stroke: #4c72b0"/>
     <use xlink:href="#me3eddb67d9" x="433.058961" y="281.665151" style="fill: #4c72b0; stroke: #4c72b0"/>
     <use xlink:href="#me3eddb67d9" x="434.044364" y="281.545339" style="fill: #4c72b0; stroke: #4c72b0"/>
     <use xlink:href="#me3eddb67d9" x="435.029766" y="281.559688" style="fill: #4c72b0; stroke: #4c72b0"/>
     <use xlink:href="#me3eddb67d9" x="436.015169" y="281.572542" style="fill: #4c72b0; stroke: #4c72b0"/>
     <use xlink:href="#me3eddb67d9" x="437.000571" y="281.572982" style="fill: #4c72b0; stroke: #4c72b0"/>
     <use xlink:href="#me3eddb67d9" x="437.985974" y="281.425756" style="fill: #4c72b0; stroke: #4c72b0"/>
     <use xlink:href="#me3eddb67d9" x="438.971377" y="286.70008" style="fill: #4c72b0; stroke: #4c72b0"/>
     <use xlink:href="#me3eddb67d9" x="439.956779" y="287.520346" style="fill: #4c72b0; stroke: #4c72b0"/>
     <use xlink:href="#me3eddb67d9" x="440.942182" y="287.517445" style="fill: #4c72b0; stroke: #4c72b0"/>
     <use xlink:href="#me3eddb67d9" x="441.927584" y="287.400836" style="fill: #4c72b0; stroke: #4c72b0"/>
     <use xlink:href="#me3eddb67d9" x="442.912987" y="287.34811" style="fill: #4c72b0; stroke: #4c72b0"/>
     <use xlink:href="#me3eddb67d9" x="443.89839" y="287.277537" style="fill: #4c72b0; stroke: #4c72b0"/>
     <use xlink:href="#me3eddb67d9" x="444.883792" y="289.268445" style="fill: #4c72b0; stroke: #4c72b0"/>
     <use xlink:href="#me3eddb67d9" x="445.869195" y="289.206077" style="fill: #4c72b0; stroke: #4c72b0"/>
     <use xlink:href="#me3eddb67d9" x="446.854597" y="289.111253" style="fill: #4c72b0; stroke: #4c72b0"/>
     <use xlink:href="#me3eddb67d9" x="447.84" y="288.87758" style="fill: #4c72b0; stroke: #4c72b0"/>
    </g>
   </g>
   <g id="patch_18">
    <path d="M 68.46 311.94 
L 68.46 255.115 
" style="fill: none; stroke: #262626; stroke-width: 1.25; stroke-linejoin: miter; stroke-linecap: square"/>
   </g>
   <g id="patch_19">
    <path d="M 447.84 311.94 
L 447.84 255.115 
" style="fill: none; stroke: #262626; stroke-width: 1.25; stroke-linejoin: miter; stroke-linecap: square"/>
   </g>
   <g id="patch_20">
    <path d="M 68.46 311.94 
L 447.84 311.94 
" style="fill: none; stroke: #262626; stroke-width: 1.25; stroke-linejoin: miter; stroke-linecap: square"/>
   </g>
   <g id="patch_21">
    <path d="M 68.46 255.115 
L 447.84 255.115 
" style="fill: none; stroke: #262626; stroke-width: 1.25; stroke-linejoin: miter; stroke-linecap: square"/>
   </g>
  </g>
 </g>
 <defs>
  <clipPath id="p56c3b266ad">
   <rect x="68.46" y="27.76" width="379.38" height="56.825"/>
  </clipPath>
  <clipPath id="p98210bfd63">
   <rect x="68.46" y="103.545" width="379.38" height="56.825"/>
  </clipPath>
  <clipPath id="pdd4872e2aa">
   <rect x="68.46" y="179.33" width="379.38" height="56.825"/>
  </clipPath>
  <clipPath id="p40c83c12b1">
   <rect x="68.46" y="255.115" width="379.38" height="56.825"/>
  </clipPath>
 </defs>
</svg>
