<?xml version="1.0" encoding="utf-8" standalone="no"?>
<!DOCTYPE svg PUBLIC "-//W3C//DTD SVG 1.1//EN"
  "http://www.w3.org/Graphics/SVG/1.1/DTD/svg11.dtd">
<svg xmlns:xlink="http://www.w3.org/1999/xlink" width="460.8pt" height="345.6pt" viewBox="0 0 460.8 345.6" xmlns="http://www.w3.org/2000/svg" version="1.1">
 <metadata>
  <rdf:RDF xmlns:dc="http://purl.org/dc/elements/1.1/" xmlns:cc="http://creativecommons.org/ns#" xmlns:rdf="http://www.w3.org/1999/02/22-rdf-syntax-ns#">
   <cc:Work>
    <dc:type rdf:resource="http://purl.org/dc/dcmitype/StillImage"/>
    <dc:date>2023-07-11T02:00:21.508466</dc:date>
    <dc:format>image/svg+xml</dc:format>
    <dc:creator>
     <cc:Agent>
      <dc:title>Matplotlib v3.7.1, https://matplotlib.org/</dc:title>
     </cc:Agent>
    </dc:creator>
   </cc:Work>
  </rdf:RDF>
 </metadata>
 <defs>
  <style type="text/css">*{stroke-linejoin: round; stroke-linecap: butt}</style>
 </defs>
 <g id="figure_1">
  <g id="patch_1">
   <path d="M 0 345.6 
L 460.8 345.6 
L 460.8 0 
L 0 0 
z
" style="fill: #ffffff"/>
  </g>
  <g id="axes_1">
   <g id="patch_2">
    <path d="M 74.56 84.362768 
L 447.84 84.362768 
L 447.84 27.76 
L 74.56 27.76 
z
" style="fill: #ffffff"/>
   </g>
   <g id="matplotlib.axis_1">
    <g id="xtick_1">
     <g id="line2d_1">
      <defs>
       <path id="mfd01a54379" d="M 0 0 
L 0 6 
" style="stroke: #262626; stroke-width: 1.25"/>
      </defs>
      <g>
       <use xlink:href="#mfd01a54379" x="120.267755" y="84.362768" style="fill: #262626; stroke: #262626; stroke-width: 1.25"/>
      </g>
     </g>
    </g>
    <g id="xtick_2">
     <g id="line2d_2">
      <g>
       <use xlink:href="#mfd01a54379" x="170.823302" y="84.362768" style="fill: #262626; stroke: #262626; stroke-width: 1.25"/>
      </g>
     </g>
    </g>
    <g id="xtick_3">
     <g id="line2d_3">
      <g>
       <use xlink:href="#mfd01a54379" x="221.37885" y="84.362768" style="fill: #262626; stroke: #262626; stroke-width: 1.25"/>
      </g>
     </g>
    </g>
    <g id="xtick_4">
     <g id="line2d_4">
      <g>
       <use xlink:href="#mfd01a54379" x="271.934397" y="84.362768" style="fill: #262626; stroke: #262626; stroke-width: 1.25"/>
      </g>
     </g>
    </g>
    <g id="xtick_5">
     <g id="line2d_5">
      <g>
       <use xlink:href="#mfd01a54379" x="322.628453" y="84.362768" style="fill: #262626; stroke: #262626; stroke-width: 1.25"/>
      </g>
     </g>
    </g>
    <g id="xtick_6">
     <g id="line2d_6">
      <g>
       <use xlink:href="#mfd01a54379" x="373.184" y="84.362768" style="fill: #262626; stroke: #262626; stroke-width: 1.25"/>
      </g>
     </g>
    </g>
    <g id="xtick_7">
     <g id="line2d_7">
      <g>
       <use xlink:href="#mfd01a54379" x="423.739547" y="84.362768" style="fill: #262626; stroke: #262626; stroke-width: 1.25"/>
      </g>
     </g>
    </g>
   </g>
   <g id="matplotlib.axis_2">
    <g id="ytick_1">
     <g id="line2d_8">
      <defs>
       <path id="m589793e773" d="M 0 0 
L -6 0 
" style="stroke: #262626; stroke-width: 1.25"/>
      </defs>
      <g>
       <use xlink:href="#m589793e773" x="74.56" y="81.800668" style="fill: #262626; stroke: #262626; stroke-width: 1.25"/>
      </g>
     </g>
     <g id="text_1">
      <!-- 0 -->
      <g style="fill: #262626" transform="translate(58.942969 85.737465) scale(0.11 -0.11)">
       <defs>
        <path id="ArialMT-30" d="M 266 2259 
Q 266 3072 433 3567 
Q 600 4063 929 4331 
Q 1259 4600 1759 4600 
Q 2128 4600 2406 4451 
Q 2684 4303 2865 4023 
Q 3047 3744 3150 3342 
Q 3253 2941 3253 2259 
Q 3253 1453 3087 958 
Q 2922 463 2592 192 
Q 2263 -78 1759 -78 
Q 1097 -78 719 397 
Q 266 969 266 2259 
z
M 844 2259 
Q 844 1131 1108 757 
Q 1372 384 1759 384 
Q 2147 384 2411 759 
Q 2675 1134 2675 2259 
Q 2675 3391 2411 3762 
Q 2147 4134 1753 4134 
Q 1366 4134 1134 3806 
Q 844 3388 844 2259 
z
" transform="scale(0.015625)"/>
       </defs>
       <use xlink:href="#ArialMT-30"/>
      </g>
     </g>
    </g>
    <g id="ytick_2">
     <g id="line2d_9">
      <g>
       <use xlink:href="#m589793e773" x="74.56" y="45.957075" style="fill: #262626; stroke: #262626; stroke-width: 1.25"/>
      </g>
     </g>
     <g id="text_2">
      <!-- 20000 -->
      <g style="fill: #262626" transform="translate(34.474844 49.893872) scale(0.11 -0.11)">
       <defs>
        <path id="ArialMT-32" d="M 3222 541 
L 3222 0 
L 194 0 
Q 188 203 259 391 
Q 375 700 629 1000 
Q 884 1300 1366 1694 
Q 2113 2306 2375 2664 
Q 2638 3022 2638 3341 
Q 2638 3675 2398 3904 
Q 2159 4134 1775 4134 
Q 1369 4134 1125 3890 
Q 881 3647 878 3216 
L 300 3275 
Q 359 3922 746 4261 
Q 1134 4600 1788 4600 
Q 2447 4600 2831 4234 
Q 3216 3869 3216 3328 
Q 3216 3053 3103 2787 
Q 2991 2522 2730 2228 
Q 2469 1934 1863 1422 
Q 1356 997 1212 845 
Q 1069 694 975 541 
L 3222 541 
z
" transform="scale(0.015625)"/>
       </defs>
       <use xlink:href="#ArialMT-32"/>
       <use xlink:href="#ArialMT-30" x="55.615234"/>
       <use xlink:href="#ArialMT-30" x="111.230469"/>
       <use xlink:href="#ArialMT-30" x="166.845703"/>
       <use xlink:href="#ArialMT-30" x="222.460938"/>
      </g>
     </g>
    </g>
   </g>
   <g id="line2d_10">
    <path d="M 74.56 81.766617 
L 101.707636 81.524673 
L 110.433662 81.386675 
L 111.403221 81.384883 
L 112.372779 36.54634 
L 113.342338 35.850974 
L 114.311896 34.390348 
L 116.251013 33.221847 
L 117.220571 32.049761 
L 118.19013 31.521068 
L 119.159688 30.332853 
L 123.037922 81.730773 
L 124.977039 81.012109 
L 125.946597 79.710987 
L 126.916156 79.657222 
L 127.885714 78.004832 
L 128.855273 77.718083 
L 129.824831 77.62489 
L 130.79439 76.01372 
L 131.763948 75.739517 
L 132.733506 75.657077 
L 135.642182 73.277062 
L 139.520416 70.588793 
L 140.489974 69.425668 
L 141.459532 69.140711 
L 142.429091 68.642485 
L 146.307325 65.49721 
L 147.276883 64.825143 
L 148.246442 63.961312 
L 149.216 62.635099 
L 150.185558 62.568789 
L 151.155117 61.187018 
L 152.124675 59.113466 
L 153.094234 59.054324 
L 155.033351 55.733415 
L 156.002909 55.711909 
L 156.972468 54.563122 
L 158.911584 52.573803 
L 159.881143 51.417847 
L 160.850701 48.159664 
L 161.82026 48.159664 
L 162.789818 47.725957 
L 163.759377 47.007293 
L 164.728935 46.491145 
L 165.698494 44.258089 
L 166.668052 43.86381 
L 167.63761 43.793915 
L 168.607169 42.994602 
L 169.576727 40.843987 
L 170.546286 40.429993 
L 171.515844 40.227477 
L 173.454961 81.745111 
L 174.424519 81.528257 
L 176.363636 80.574818 
L 177.333195 79.884828 
L 178.302753 78.62851 
L 179.272312 78.54607 
L 181.211429 77.275415 
L 191.876571 69.941816 
L 194.785247 68.294803 
L 195.754805 67.341363 
L 196.724364 66.059955 
L 198.663481 64.679976 
L 201.572156 61.871631 
L 204.480831 59.219205 
L 205.45039 58.67259 
L 206.419948 56.668933 
L 207.389506 55.726247 
L 208.359065 55.13662 
L 209.328623 54.052351 
L 211.26774 52.597101 
L 212.237299 51.550468 
L 215.145974 49.213466 
L 216.115532 48.285117 
L 217.085091 46.978618 
L 218.054649 46.329849 
L 220.963325 43.335117 
L 222.902442 41.953346 
L 225.811117 81.755864 
L 226.780675 81.492414 
L 227.750234 80.976266 
L 228.719792 80.284484 
L 229.689351 79.393771 
L 230.658909 79.357928 
L 232.598026 77.040639 
L 233.567584 76.92594 
L 234.537143 75.357783 
L 235.506701 74.305773 
L 238.415377 72.045835 
L 239.384935 70.565494 
L 240.354494 70.063684 
L 241.324052 69.393409 
L 243.263169 67.877225 
L 245.202286 66.545635 
L 246.171844 65.620871 
L 247.141403 64.982855 
L 248.110961 64.056298 
L 249.080519 63.450541 
L 250.050078 62.369857 
L 251.019636 61.455845 
L 252.958753 59.00952 
L 253.928312 58.032782 
L 254.89787 56.142032 
L 256.836987 53.647318 
L 257.806545 52.960913 
L 258.776104 51.534338 
L 259.745662 50.43394 
L 263.623896 45.326228 
L 266.532571 41.901373 
L 267.50213 41.451536 
L 268.471688 40.227477 
L 269.441247 40.227477 
L 270.410805 38.02668 
L 272.349922 36.36533 
L 273.319481 36.318733 
L 274.289039 35.318697 
L 275.258597 35.083921 
L 277.197714 81.605321 
L 278.167273 80.598116 
L 279.136831 80.456534 
L 281.075948 79.393771 
L 282.045506 79.357928 
L 283.015065 78.139245 
L 283.984623 77.504814 
L 284.954182 77.040639 
L 285.92374 76.035226 
L 303.375792 72.728655 
L 311.13226 70.938268 
L 315.980052 69.513485 
L 323.736519 67.663955 
L 324.706078 67.638865 
L 325.675636 67.425595 
L 327.614753 67.280429 
L 329.55387 81.771994 
L 334.401662 80.952967 
L 338.279896 80.148279 
L 339.249455 80.148279 
L 341.188571 79.515639 
L 345.066805 78.694821 
L 348.945039 78.090857 
L 350.884156 77.728836 
L 352.823273 77.361439 
L 357.671065 76.372156 
L 359.610182 75.682167 
L 361.549299 75.162435 
L 363.488416 74.585353 
L 366.397091 73.929415 
L 375.123117 72.171287 
L 376.092675 71.929343 
L 377.062234 71.830773 
L 379.001351 71.24473 
L 380.940468 81.789915 
L 382.879584 81.499582 
L 383.849143 80.884865 
L 386.757818 80.234303 
L 390.636052 79.377642 
L 392.575169 78.839988 
L 397.422961 78.001248 
L 404.20987 76.877551 
L 407.118545 76.183977 
L 411.966338 74.658833 
L 417.783688 73.45628 
L 419.722805 73.11935 
L 421.661922 72.692811 
L 425.540156 71.958018 
L 427.479273 71.481298 
L 430.387948 70.943644 
L 433.296623 81.510335 
L 435.23574 81.044369 
L 436.205299 81.044369 
L 437.174857 80.789879 
L 438.144416 80.314952 
L 442.992208 78.874039 
L 447.84 76.836331 
L 447.84 76.836331 
" clip-path="url(#pa5bb956761)" style="fill: none; stroke: #4c72b0; stroke-width: 1.5; stroke-linecap: round"/>
   </g>
   <g id="patch_3">
    <path d="M 74.56 84.362768 
L 74.56 27.76 
" style="fill: none; stroke: #262626; stroke-width: 1.25; stroke-linejoin: miter; stroke-linecap: square"/>
   </g>
   <g id="patch_4">
    <path d="M 447.84 84.362768 
L 447.84 27.76 
" style="fill: none; stroke: #262626; stroke-width: 1.25; stroke-linejoin: miter; stroke-linecap: square"/>
   </g>
   <g id="patch_5">
    <path d="M 74.56 84.362768 
L 447.84 84.362768 
" style="fill: none; stroke: #262626; stroke-width: 1.25; stroke-linejoin: miter; stroke-linecap: square"/>
   </g>
   <g id="patch_6">
    <path d="M 74.56 27.76 
L 447.84 27.76 
" style="fill: none; stroke: #262626; stroke-width: 1.25; stroke-linejoin: miter; stroke-linecap: square"/>
   </g>
   <g id="text_3">
    <!-- Typhoid Fever -->
    <g style="fill: #262626" transform="translate(223.183437 21.76) scale(0.12 -0.12)">
     <defs>
      <path id="ArialMT-54" d="M 1659 0 
L 1659 4041 
L 150 4041 
L 150 4581 
L 3781 4581 
L 3781 4041 
L 2266 4041 
L 2266 0 
L 1659 0 
z
" transform="scale(0.015625)"/>
      <path id="ArialMT-79" d="M 397 -1278 
L 334 -750 
Q 519 -800 656 -800 
Q 844 -800 956 -737 
Q 1069 -675 1141 -563 
Q 1194 -478 1313 -144 
Q 1328 -97 1363 -6 
L 103 3319 
L 709 3319 
L 1400 1397 
Q 1534 1031 1641 628 
Q 1738 1016 1872 1384 
L 2581 3319 
L 3144 3319 
L 1881 -56 
Q 1678 -603 1566 -809 
Q 1416 -1088 1222 -1217 
Q 1028 -1347 759 -1347 
Q 597 -1347 397 -1278 
z
" transform="scale(0.015625)"/>
      <path id="ArialMT-70" d="M 422 -1272 
L 422 3319 
L 934 3319 
L 934 2888 
Q 1116 3141 1344 3267 
Q 1572 3394 1897 3394 
Q 2322 3394 2647 3175 
Q 2972 2956 3137 2557 
Q 3303 2159 3303 1684 
Q 3303 1175 3120 767 
Q 2938 359 2589 142 
Q 2241 -75 1856 -75 
Q 1575 -75 1351 44 
Q 1128 163 984 344 
L 984 -1272 
L 422 -1272 
z
M 931 1641 
Q 931 1000 1190 694 
Q 1450 388 1819 388 
Q 2194 388 2461 705 
Q 2728 1022 2728 1688 
Q 2728 2322 2467 2637 
Q 2206 2953 1844 2953 
Q 1484 2953 1207 2617 
Q 931 2281 931 1641 
z
" transform="scale(0.015625)"/>
      <path id="ArialMT-68" d="M 422 0 
L 422 4581 
L 984 4581 
L 984 2938 
Q 1378 3394 1978 3394 
Q 2347 3394 2619 3248 
Q 2891 3103 3008 2847 
Q 3125 2591 3125 2103 
L 3125 0 
L 2563 0 
L 2563 2103 
Q 2563 2525 2380 2717 
Q 2197 2909 1863 2909 
Q 1613 2909 1392 2779 
Q 1172 2650 1078 2428 
Q 984 2206 984 1816 
L 984 0 
L 422 0 
z
" transform="scale(0.015625)"/>
      <path id="ArialMT-6f" d="M 213 1659 
Q 213 2581 725 3025 
Q 1153 3394 1769 3394 
Q 2453 3394 2887 2945 
Q 3322 2497 3322 1706 
Q 3322 1066 3130 698 
Q 2938 331 2570 128 
Q 2203 -75 1769 -75 
Q 1072 -75 642 372 
Q 213 819 213 1659 
z
M 791 1659 
Q 791 1022 1069 705 
Q 1347 388 1769 388 
Q 2188 388 2466 706 
Q 2744 1025 2744 1678 
Q 2744 2294 2464 2611 
Q 2184 2928 1769 2928 
Q 1347 2928 1069 2612 
Q 791 2297 791 1659 
z
" transform="scale(0.015625)"/>
      <path id="ArialMT-69" d="M 425 3934 
L 425 4581 
L 988 4581 
L 988 3934 
L 425 3934 
z
M 425 0 
L 425 3319 
L 988 3319 
L 988 0 
L 425 0 
z
" transform="scale(0.015625)"/>
      <path id="ArialMT-64" d="M 2575 0 
L 2575 419 
Q 2259 -75 1647 -75 
Q 1250 -75 917 144 
Q 584 363 401 755 
Q 219 1147 219 1656 
Q 219 2153 384 2558 
Q 550 2963 881 3178 
Q 1213 3394 1622 3394 
Q 1922 3394 2156 3267 
Q 2391 3141 2538 2938 
L 2538 4581 
L 3097 4581 
L 3097 0 
L 2575 0 
z
M 797 1656 
Q 797 1019 1065 703 
Q 1334 388 1700 388 
Q 2069 388 2326 689 
Q 2584 991 2584 1609 
Q 2584 2291 2321 2609 
Q 2059 2928 1675 2928 
Q 1300 2928 1048 2622 
Q 797 2316 797 1656 
z
" transform="scale(0.015625)"/>
      <path id="ArialMT-20" transform="scale(0.015625)"/>
      <path id="ArialMT-46" d="M 525 0 
L 525 4581 
L 3616 4581 
L 3616 4041 
L 1131 4041 
L 1131 2622 
L 3281 2622 
L 3281 2081 
L 1131 2081 
L 1131 0 
L 525 0 
z
" transform="scale(0.015625)"/>
      <path id="ArialMT-65" d="M 2694 1069 
L 3275 997 
Q 3138 488 2766 206 
Q 2394 -75 1816 -75 
Q 1088 -75 661 373 
Q 234 822 234 1631 
Q 234 2469 665 2931 
Q 1097 3394 1784 3394 
Q 2450 3394 2872 2941 
Q 3294 2488 3294 1666 
Q 3294 1616 3291 1516 
L 816 1516 
Q 847 969 1125 678 
Q 1403 388 1819 388 
Q 2128 388 2347 550 
Q 2566 713 2694 1069 
z
M 847 1978 
L 2700 1978 
Q 2663 2397 2488 2606 
Q 2219 2931 1791 2931 
Q 1403 2931 1139 2672 
Q 875 2413 847 1978 
z
" transform="scale(0.015625)"/>
      <path id="ArialMT-76" d="M 1344 0 
L 81 3319 
L 675 3319 
L 1388 1331 
Q 1503 1009 1600 663 
Q 1675 925 1809 1294 
L 2547 3319 
L 3125 3319 
L 1869 0 
L 1344 0 
z
" transform="scale(0.015625)"/>
      <path id="ArialMT-72" d="M 416 0 
L 416 3319 
L 922 3319 
L 922 2816 
Q 1116 3169 1280 3281 
Q 1444 3394 1641 3394 
Q 1925 3394 2219 3213 
L 2025 2691 
Q 1819 2813 1613 2813 
Q 1428 2813 1281 2702 
Q 1134 2591 1072 2394 
Q 978 2094 978 1738 
L 978 0 
L 416 0 
z
" transform="scale(0.015625)"/>
     </defs>
     <use xlink:href="#ArialMT-54"/>
     <use xlink:href="#ArialMT-79" x="55.583984"/>
     <use xlink:href="#ArialMT-70" x="105.583984"/>
     <use xlink:href="#ArialMT-68" x="161.199219"/>
     <use xlink:href="#ArialMT-6f" x="216.814453"/>
     <use xlink:href="#ArialMT-69" x="272.429688"/>
     <use xlink:href="#ArialMT-64" x="294.646484"/>
     <use xlink:href="#ArialMT-20" x="350.261719"/>
     <use xlink:href="#ArialMT-46" x="378.044922"/>
     <use xlink:href="#ArialMT-65" x="439.128906"/>
     <use xlink:href="#ArialMT-76" x="494.744141"/>
     <use xlink:href="#ArialMT-65" x="544.744141"/>
     <use xlink:href="#ArialMT-72" x="600.359375"/>
    </g>
   </g>
  </g>
  <g id="axes_2">
   <g id="patch_7">
    <path d="M 74.56 160.221846 
L 447.84 160.221846 
L 447.84 103.619077 
L 74.56 103.619077 
z
" style="fill: #ffffff"/>
   </g>
   <g id="matplotlib.axis_3">
    <g id="xtick_8">
     <g id="line2d_11">
      <g>
       <use xlink:href="#mfd01a54379" x="120.267755" y="160.221846" style="fill: #262626; stroke: #262626; stroke-width: 1.25"/>
      </g>
     </g>
    </g>
    <g id="xtick_9">
     <g id="line2d_12">
      <g>
       <use xlink:href="#mfd01a54379" x="170.823302" y="160.221846" style="fill: #262626; stroke: #262626; stroke-width: 1.25"/>
      </g>
     </g>
    </g>
    <g id="xtick_10">
     <g id="line2d_13">
      <g>
       <use xlink:href="#mfd01a54379" x="221.37885" y="160.221846" style="fill: #262626; stroke: #262626; stroke-width: 1.25"/>
      </g>
     </g>
    </g>
    <g id="xtick_11">
     <g id="line2d_14">
      <g>
       <use xlink:href="#mfd01a54379" x="271.934397" y="160.221846" style="fill: #262626; stroke: #262626; stroke-width: 1.25"/>
      </g>
     </g>
    </g>
    <g id="xtick_12">
     <g id="line2d_15">
      <g>
       <use xlink:href="#mfd01a54379" x="322.628453" y="160.221846" style="fill: #262626; stroke: #262626; stroke-width: 1.25"/>
      </g>
     </g>
    </g>
    <g id="xtick_13">
     <g id="line2d_16">
      <g>
       <use xlink:href="#mfd01a54379" x="373.184" y="160.221846" style="fill: #262626; stroke: #262626; stroke-width: 1.25"/>
      </g>
     </g>
    </g>
    <g id="xtick_14">
     <g id="line2d_17">
      <g>
       <use xlink:href="#mfd01a54379" x="423.739547" y="160.221846" style="fill: #262626; stroke: #262626; stroke-width: 1.25"/>
      </g>
     </g>
    </g>
   </g>
   <g id="matplotlib.axis_4">
    <g id="ytick_3">
     <g id="line2d_18">
      <g>
       <use xlink:href="#m589793e773" x="74.56" y="145.081001" style="fill: #262626; stroke: #262626; stroke-width: 1.25"/>
      </g>
     </g>
     <g id="text_4">
      <!-- 5000 -->
      <g style="fill: #262626" transform="translate(40.591875 149.017798) scale(0.11 -0.11)">
       <defs>
        <path id="ArialMT-35" d="M 266 1200 
L 856 1250 
Q 922 819 1161 601 
Q 1400 384 1738 384 
Q 2144 384 2425 690 
Q 2706 997 2706 1503 
Q 2706 1984 2436 2262 
Q 2166 2541 1728 2541 
Q 1456 2541 1237 2417 
Q 1019 2294 894 2097 
L 366 2166 
L 809 4519 
L 3088 4519 
L 3088 3981 
L 1259 3981 
L 1013 2750 
Q 1425 3038 1878 3038 
Q 2478 3038 2890 2622 
Q 3303 2206 3303 1553 
Q 3303 931 2941 478 
Q 2500 -78 1738 -78 
Q 1113 -78 717 272 
Q 322 622 266 1200 
z
" transform="scale(0.015625)"/>
       </defs>
       <use xlink:href="#ArialMT-35"/>
       <use xlink:href="#ArialMT-30" x="55.615234"/>
       <use xlink:href="#ArialMT-30" x="111.230469"/>
       <use xlink:href="#ArialMT-30" x="166.845703"/>
      </g>
     </g>
    </g>
    <g id="ytick_4">
     <g id="line2d_19">
      <g>
       <use xlink:href="#m589793e773" x="74.56" y="118.82132" style="fill: #262626; stroke: #262626; stroke-width: 1.25"/>
      </g>
     </g>
     <g id="text_5">
      <!-- 10000 -->
      <g style="fill: #262626" transform="translate(34.474844 122.758117) scale(0.11 -0.11)">
       <defs>
        <path id="ArialMT-31" d="M 2384 0 
L 1822 0 
L 1822 3584 
Q 1619 3391 1289 3197 
Q 959 3003 697 2906 
L 697 3450 
Q 1169 3672 1522 3987 
Q 1875 4303 2022 4600 
L 2384 4600 
L 2384 0 
z
" transform="scale(0.015625)"/>
       </defs>
       <use xlink:href="#ArialMT-31"/>
       <use xlink:href="#ArialMT-30" x="55.615234"/>
       <use xlink:href="#ArialMT-30" x="111.230469"/>
       <use xlink:href="#ArialMT-30" x="166.845703"/>
       <use xlink:href="#ArialMT-30" x="222.460938"/>
      </g>
     </g>
    </g>
    <g id="text_6">
     <!-- Trend -->
     <g style="fill: #262626" transform="translate(28.089844 147.367649) rotate(-90) scale(0.12 -0.12)">
      <defs>
       <path id="ArialMT-6e" d="M 422 0 
L 422 3319 
L 928 3319 
L 928 2847 
Q 1294 3394 1984 3394 
Q 2284 3394 2536 3286 
Q 2788 3178 2913 3003 
Q 3038 2828 3088 2588 
Q 3119 2431 3119 2041 
L 3119 0 
L 2556 0 
L 2556 2019 
Q 2556 2363 2490 2533 
Q 2425 2703 2258 2804 
Q 2091 2906 1866 2906 
Q 1506 2906 1245 2678 
Q 984 2450 984 1813 
L 984 0 
L 422 0 
z
" transform="scale(0.015625)"/>
      </defs>
      <use xlink:href="#ArialMT-54"/>
      <use xlink:href="#ArialMT-72" x="57.333984"/>
      <use xlink:href="#ArialMT-65" x="90.634766"/>
      <use xlink:href="#ArialMT-6e" x="146.25"/>
      <use xlink:href="#ArialMT-64" x="201.865234"/>
     </g>
    </g>
   </g>
   <g id="line2d_20">
    <path d="M 74.56 157.648993 
L 79.407792 155.383685 
L 81.346909 154.915725 
L 88.133818 151.50013 
L 95.890286 147.336886 
L 117.220571 135.464518 
L 119.159688 134.29168 
L 123.037922 133.649585 
L 130.79439 127.32772 
L 137.581299 121.772361 
L 140.489974 119.643377 
L 143.398649 117.784153 
L 146.307325 116.229798 
L 149.216 114.972782 
L 152.124675 113.964237 
L 156.972468 112.608326 
L 167.63761 109.935026 
L 171.515844 109.090819 
L 178.302753 108.502929 
L 180.24187 108.635196 
L 181.211429 108.764001 
L 190.907013 108.93087 
L 193.815688 109.620292 
L 196.724364 110.497875 
L 198.663481 110.81067 
L 204.480831 112.618222 
L 208.359065 113.558757 
L 212.237299 114.210281 
L 216.115532 114.594653 
L 219.024208 114.70559 
L 221.932883 114.631276 
L 222.902442 114.566778 
L 226.780675 114.393582 
L 231.628468 113.803858 
L 234.537143 113.239862 
L 237.445818 112.45386 
L 241.324052 111.157585 
L 250.050078 108.140696 
L 253.928312 107.083804 
L 256.836987 106.515331 
L 259.745662 106.216547 
L 261.684779 106.210651 
L 263.623896 106.391133 
L 265.563013 106.780857 
L 267.50213 107.398421 
L 269.441247 108.253843 
L 271.380364 109.337033 
L 273.319481 110.621472 
L 275.258597 112.094133 
L 277.197714 112.902462 
L 279.136831 114.670349 
L 282.045506 117.704359 
L 284.954182 121.149452 
L 285.92374 122.371219 
L 301.436675 123.621446 
L 307.254026 131.425101 
L 309.193143 134.017146 
L 313.071377 136.538164 
L 315.980052 140.106132 
L 316.94961 141.221739 
L 319.858286 142.294292 
L 322.766961 145.223747 
L 324.706078 146.91542 
L 325.675636 147.679957 
L 329.55387 149.049444 
L 331.492987 149.657665 
L 333.432104 150.732989 
L 336.340779 152.037138 
L 339.249455 153.06219 
L 344.097247 154.47784 
L 347.975481 155.393245 
L 350.884156 155.883373 
L 353.792831 156.160381 
L 356.701506 156.208818 
L 359.610182 156.048071 
L 363.488416 155.607234 
L 370.275325 154.806719 
L 373.184 154.689591 
L 376.092675 154.776993 
L 381.910026 155.262059 
L 384.818701 155.630112 
L 393.544727 156.068158 
L 396.453403 155.9027 
L 400.331636 155.456725 
L 402.270753 155.100844 
L 405.179429 154.578784 
L 410.027221 153.973397 
L 430.387948 151.915831 
L 434.266182 151.701921 
L 447.84 150.226957 
L 447.84 150.226957 
" clip-path="url(#pfeaa55b614)" style="fill: none; stroke: #4c72b0; stroke-width: 1.5; stroke-linecap: round"/>
   </g>
   <g id="patch_8">
    <path d="M 74.56 160.221846 
L 74.56 103.619077 
" style="fill: none; stroke: #262626; stroke-width: 1.25; stroke-linejoin: miter; stroke-linecap: square"/>
   </g>
   <g id="patch_9">
    <path d="M 447.84 160.221846 
L 447.84 103.619077 
" style="fill: none; stroke: #262626; stroke-width: 1.25; stroke-linejoin: miter; stroke-linecap: square"/>
   </g>
   <g id="patch_10">
    <path d="M 74.56 160.221846 
L 447.84 160.221846 
" style="fill: none; stroke: #262626; stroke-width: 1.25; stroke-linejoin: miter; stroke-linecap: square"/>
   </g>
   <g id="patch_11">
    <path d="M 74.56 103.619077 
L 447.84 103.619077 
" style="fill: none; stroke: #262626; stroke-width: 1.25; stroke-linejoin: miter; stroke-linecap: square"/>
   </g>
  </g>
  <g id="axes_3">
   <g id="patch_12">
    <path d="M 74.56 236.080923 
L 447.84 236.080923 
L 447.84 179.478154 
L 74.56 179.478154 
z
" style="fill: #ffffff"/>
   </g>
   <g id="matplotlib.axis_5">
    <g id="xtick_15">
     <g id="line2d_21">
      <g>
       <use xlink:href="#mfd01a54379" x="120.267755" y="236.080923" style="fill: #262626; stroke: #262626; stroke-width: 1.25"/>
      </g>
     </g>
    </g>
    <g id="xtick_16">
     <g id="line2d_22">
      <g>
       <use xlink:href="#mfd01a54379" x="170.823302" y="236.080923" style="fill: #262626; stroke: #262626; stroke-width: 1.25"/>
      </g>
     </g>
    </g>
    <g id="xtick_17">
     <g id="line2d_23">
      <g>
       <use xlink:href="#mfd01a54379" x="221.37885" y="236.080923" style="fill: #262626; stroke: #262626; stroke-width: 1.25"/>
      </g>
     </g>
    </g>
    <g id="xtick_18">
     <g id="line2d_24">
      <g>
       <use xlink:href="#mfd01a54379" x="271.934397" y="236.080923" style="fill: #262626; stroke: #262626; stroke-width: 1.25"/>
      </g>
     </g>
    </g>
    <g id="xtick_19">
     <g id="line2d_25">
      <g>
       <use xlink:href="#mfd01a54379" x="322.628453" y="236.080923" style="fill: #262626; stroke: #262626; stroke-width: 1.25"/>
      </g>
     </g>
    </g>
    <g id="xtick_20">
     <g id="line2d_26">
      <g>
       <use xlink:href="#mfd01a54379" x="373.184" y="236.080923" style="fill: #262626; stroke: #262626; stroke-width: 1.25"/>
      </g>
     </g>
    </g>
    <g id="xtick_21">
     <g id="line2d_27">
      <g>
       <use xlink:href="#mfd01a54379" x="423.739547" y="236.080923" style="fill: #262626; stroke: #262626; stroke-width: 1.25"/>
      </g>
     </g>
    </g>
   </g>
   <g id="matplotlib.axis_6">
    <g id="ytick_5">
     <g id="line2d_28">
      <g>
       <use xlink:href="#m589793e773" x="74.56" y="235.588095" style="fill: #262626; stroke: #262626; stroke-width: 1.25"/>
      </g>
     </g>
     <g id="text_7">
      <!-- −10000 -->
      <g style="fill: #262626" transform="translate(28.050156 239.524892) scale(0.11 -0.11)">
       <defs>
        <path id="ArialMT-2212" d="M 3381 1997 
L 356 1997 
L 356 2522 
L 3381 2522 
L 3381 1997 
z
" transform="scale(0.015625)"/>
       </defs>
       <use xlink:href="#ArialMT-2212"/>
       <use xlink:href="#ArialMT-31" x="58.398438"/>
       <use xlink:href="#ArialMT-30" x="114.013672"/>
       <use xlink:href="#ArialMT-30" x="169.628906"/>
       <use xlink:href="#ArialMT-30" x="225.244141"/>
       <use xlink:href="#ArialMT-30" x="280.859375"/>
      </g>
     </g>
    </g>
    <g id="ytick_6">
     <g id="line2d_29">
      <g>
       <use xlink:href="#m589793e773" x="74.56" y="216.34684" style="fill: #262626; stroke: #262626; stroke-width: 1.25"/>
      </g>
     </g>
     <g id="text_8">
      <!-- 0 -->
      <g style="fill: #262626" transform="translate(58.942969 220.283637) scale(0.11 -0.11)">
       <use xlink:href="#ArialMT-30"/>
      </g>
     </g>
    </g>
    <g id="ytick_7">
     <g id="line2d_30">
      <g>
       <use xlink:href="#m589793e773" x="74.56" y="197.105586" style="fill: #262626; stroke: #262626; stroke-width: 1.25"/>
      </g>
     </g>
     <g id="text_9">
      <!-- 10000 -->
      <g style="fill: #262626" transform="translate(34.474844 201.042383) scale(0.11 -0.11)">
       <use xlink:href="#ArialMT-31"/>
       <use xlink:href="#ArialMT-30" x="55.615234"/>
       <use xlink:href="#ArialMT-30" x="111.230469"/>
       <use xlink:href="#ArialMT-30" x="166.845703"/>
       <use xlink:href="#ArialMT-30" x="222.460938"/>
      </g>
     </g>
    </g>
    <g id="text_10">
     <!-- Season -->
     <g style="fill: #262626" transform="translate(21.665156 228.127976) rotate(-90) scale(0.12 -0.12)">
      <defs>
       <path id="ArialMT-53" d="M 288 1472 
L 859 1522 
Q 900 1178 1048 958 
Q 1197 738 1509 602 
Q 1822 466 2213 466 
Q 2559 466 2825 569 
Q 3091 672 3220 851 
Q 3350 1031 3350 1244 
Q 3350 1459 3225 1620 
Q 3100 1781 2813 1891 
Q 2628 1963 1997 2114 
Q 1366 2266 1113 2400 
Q 784 2572 623 2826 
Q 463 3081 463 3397 
Q 463 3744 659 4045 
Q 856 4347 1234 4503 
Q 1613 4659 2075 4659 
Q 2584 4659 2973 4495 
Q 3363 4331 3572 4012 
Q 3781 3694 3797 3291 
L 3216 3247 
Q 3169 3681 2898 3903 
Q 2628 4125 2100 4125 
Q 1550 4125 1298 3923 
Q 1047 3722 1047 3438 
Q 1047 3191 1225 3031 
Q 1400 2872 2139 2705 
Q 2878 2538 3153 2413 
Q 3553 2228 3743 1945 
Q 3934 1663 3934 1294 
Q 3934 928 3725 604 
Q 3516 281 3123 101 
Q 2731 -78 2241 -78 
Q 1619 -78 1198 103 
Q 778 284 539 648 
Q 300 1013 288 1472 
z
" transform="scale(0.015625)"/>
       <path id="ArialMT-61" d="M 2588 409 
Q 2275 144 1986 34 
Q 1697 -75 1366 -75 
Q 819 -75 525 192 
Q 231 459 231 875 
Q 231 1119 342 1320 
Q 453 1522 633 1644 
Q 813 1766 1038 1828 
Q 1203 1872 1538 1913 
Q 2219 1994 2541 2106 
Q 2544 2222 2544 2253 
Q 2544 2597 2384 2738 
Q 2169 2928 1744 2928 
Q 1347 2928 1158 2789 
Q 969 2650 878 2297 
L 328 2372 
Q 403 2725 575 2942 
Q 747 3159 1072 3276 
Q 1397 3394 1825 3394 
Q 2250 3394 2515 3294 
Q 2781 3194 2906 3042 
Q 3031 2891 3081 2659 
Q 3109 2516 3109 2141 
L 3109 1391 
Q 3109 606 3145 398 
Q 3181 191 3288 0 
L 2700 0 
Q 2613 175 2588 409 
z
M 2541 1666 
Q 2234 1541 1622 1453 
Q 1275 1403 1131 1340 
Q 988 1278 909 1158 
Q 831 1038 831 891 
Q 831 666 1001 516 
Q 1172 366 1500 366 
Q 1825 366 2078 508 
Q 2331 650 2450 897 
Q 2541 1088 2541 1459 
L 2541 1666 
z
" transform="scale(0.015625)"/>
       <path id="ArialMT-73" d="M 197 991 
L 753 1078 
Q 800 744 1014 566 
Q 1228 388 1613 388 
Q 2000 388 2187 545 
Q 2375 703 2375 916 
Q 2375 1106 2209 1216 
Q 2094 1291 1634 1406 
Q 1016 1563 777 1677 
Q 538 1791 414 1992 
Q 291 2194 291 2438 
Q 291 2659 392 2848 
Q 494 3038 669 3163 
Q 800 3259 1026 3326 
Q 1253 3394 1513 3394 
Q 1903 3394 2198 3281 
Q 2494 3169 2634 2976 
Q 2775 2784 2828 2463 
L 2278 2388 
Q 2241 2644 2061 2787 
Q 1881 2931 1553 2931 
Q 1166 2931 1000 2803 
Q 834 2675 834 2503 
Q 834 2394 903 2306 
Q 972 2216 1119 2156 
Q 1203 2125 1616 2013 
Q 2213 1853 2448 1751 
Q 2684 1650 2818 1456 
Q 2953 1263 2953 975 
Q 2953 694 2789 445 
Q 2625 197 2315 61 
Q 2006 -75 1616 -75 
Q 969 -75 630 194 
Q 291 463 197 991 
z
" transform="scale(0.015625)"/>
      </defs>
      <use xlink:href="#ArialMT-53"/>
      <use xlink:href="#ArialMT-65" x="66.699219"/>
      <use xlink:href="#ArialMT-61" x="122.314453"/>
      <use xlink:href="#ArialMT-73" x="177.929688"/>
      <use xlink:href="#ArialMT-6f" x="227.929688"/>
      <use xlink:href="#ArialMT-6e" x="283.544922"/>
     </g>
    </g>
   </g>
   <g id="line2d_31">
    <path d="M 74.56 219.171012 
L 75.529558 225.777945 
L 76.499117 226.095451 
L 77.468675 225.646794 
L 78.438234 225.765406 
L 79.407792 226.052887 
L 81.346909 225.512343 
L 84.255584 226.180993 
L 85.225143 225.067767 
L 87.16426 224.877288 
L 90.072935 224.603308 
L 91.042494 224.196987 
L 92.98161 224.090499 
L 98.798961 223.043865 
L 99.768519 222.465598 
L 100.738078 222.558561 
L 101.707636 222.145323 
L 102.677195 221.32514 
L 103.646753 221.417166 
L 105.58587 220.229224 
L 106.555429 218.765249 
L 107.524987 218.387476 
L 108.494545 218.132502 
L 109.464104 217.329536 
L 110.433662 216.868761 
L 111.403221 215.633799 
L 112.372779 185.501874 
L 113.342338 184.945563 
L 114.311896 183.694741 
L 115.281455 183.205005 
L 116.251013 182.051007 
L 117.220571 187.89702 
L 118.19013 187.688027 
L 119.159688 186.727003 
L 123.037922 220.581935 
L 124.007481 218.425068 
L 124.977039 220.239432 
L 125.946597 229.028205 
L 126.916156 229.009503 
L 127.885714 228.517061 
L 129.824831 228.161428 
L 130.79439 227.414937 
L 132.733506 227.274659 
L 133.703065 226.855679 
L 134.672623 225.234692 
L 136.61174 224.613072 
L 139.520416 223.69211 
L 140.489974 223.057792 
L 143.398649 221.936896 
L 148.246442 219.725541 
L 149.216 218.751076 
L 150.185558 218.488938 
L 151.155117 217.879301 
L 152.124675 216.971446 
L 153.094234 216.725566 
L 155.033351 215.18563 
L 156.002909 215.126682 
L 156.972468 214.49223 
L 157.942026 213.995062 
L 159.881143 212.603222 
L 160.850701 211.358361 
L 161.82026 192.335839 
L 162.789818 191.647835 
L 163.759377 190.649433 
L 164.728935 189.918956 
L 165.698494 188.802555 
L 166.668052 196.982578 
L 167.63761 196.758497 
L 168.607169 195.868377 
L 169.576727 216.684217 
L 170.546286 221.076254 
L 171.515844 222.000747 
L 173.454961 231.578642 
L 174.424519 231.247143 
L 177.333195 229.659068 
L 178.302753 228.73581 
L 179.272312 228.471009 
L 180.24187 228.013672 
L 181.211429 226.984708 
L 190.907013 225.08256 
L 193.815688 223.604179 
L 195.754805 222.580836 
L 196.724364 221.764921 
L 198.663481 221.197723 
L 202.541714 218.612128 
L 205.45039 216.573271 
L 206.419948 215.295605 
L 207.389506 214.739094 
L 208.359065 213.961032 
L 209.328623 212.986572 
L 210.298182 212.464636 
L 212.237299 210.641376 
L 213.206857 212.253817 
L 214.176416 211.405588 
L 215.145974 210.708319 
L 216.115532 210.344728 
L 217.085091 209.457227 
L 218.054649 208.209245 
L 219.024208 199.555078 
L 221.932883 197.131292 
L 222.902442 196.059359 
L 225.811117 205.224939 
L 226.780675 204.989017 
L 227.750234 204.186726 
L 228.719792 212.861347 
L 229.689351 222.577234 
L 230.658909 222.679307 
L 231.628468 233.50807 
L 234.537143 231.622842 
L 236.47626 229.694771 
L 237.445818 229.216122 
L 238.415377 228.425178 
L 239.384935 226.855451 
L 240.354494 224.664326 
L 245.202286 221.451889 
L 247.141403 219.753855 
L 252.958753 214.756989 
L 253.928312 213.95638 
L 254.89787 212.488952 
L 259.745662 208.318016 
L 260.715221 207.326181 
L 261.684779 210.662789 
L 263.623896 208.88527 
L 264.593455 209.176165 
L 266.532571 207.166651 
L 267.50213 206.5632 
L 268.471688 205.721833 
L 269.441247 205.183629 
L 271.380364 203.2576 
L 272.349922 213.743909 
L 273.319481 213.476773 
L 275.258597 212.09245 
L 277.197714 225.981967 
L 278.167273 225.487965 
L 279.136831 229.423317 
L 280.10639 228.739761 
L 281.075948 228.352095 
L 282.045506 227.670496 
L 283.015065 226.766558 
L 283.984623 225.572383 
L 284.954182 225.13072 
L 285.92374 224.470344 
L 301.436675 223.193125 
L 302.406234 221.934057 
L 307.254026 219.300664 
L 309.193143 218.020258 
L 313.071377 216.738584 
L 316.94961 214.288096 
L 319.858286 213.669702 
L 320.827844 212.688516 
L 325.675636 209.693756 
L 327.614753 209.005219 
L 329.55387 212.058129 
L 331.492987 211.335164 
L 332.462545 210.7269 
L 333.432104 212.777828 
L 335.371221 211.463936 
L 336.340779 212.909119 
L 337.310338 212.272782 
L 338.279896 211.847461 
L 340.219013 210.508766 
L 341.188571 215.710576 
L 342.15813 215.435805 
L 344.097247 214.414651 
L 345.066805 224.17978 
L 346.036364 223.744385 
L 347.005922 224.91074 
L 347.975481 224.386899 
L 348.945039 224.0359 
L 349.914597 223.547303 
L 350.884156 222.869175 
L 351.853714 221.27907 
L 352.823273 220.899614 
L 353.792831 220.39401 
L 354.76239 219.418633 
L 357.671065 218.347076 
L 362.518857 216.241422 
L 365.427532 214.973452 
L 369.305766 213.422043 
L 371.244883 212.559482 
L 373.184 211.869562 
L 376.092675 210.802751 
L 377.062234 213.730928 
L 379.001351 212.884751 
L 380.940468 216.074359 
L 382.879584 215.422706 
L 383.849143 219.515408 
L 384.818701 219.112381 
L 386.757818 218.802227 
L 388.696935 218.090751 
L 389.666494 218.069613 
L 391.60561 217.420983 
L 392.575169 217.113126 
L 393.544727 221.586311 
L 394.514286 221.231185 
L 395.483844 220.545769 
L 399.362078 219.108822 
L 400.331636 216.650187 
L 402.270753 216.07493 
L 403.240312 215.52703 
L 404.20987 216.047674 
L 407.118545 215.336649 
L 409.057662 214.741597 
L 410.996779 214.34633 
L 413.905455 213.775323 
L 415.844571 213.499445 
L 416.81413 213.425589 
L 417.783688 213.221691 
L 418.753247 213.282759 
L 421.661922 212.97208 
L 424.570597 212.736205 
L 425.540156 215.074926 
L 427.479273 214.745756 
L 428.448831 219.228916 
L 430.387948 219.227711 
L 433.296623 226.157543 
L 435.23574 225.793893 
L 436.205299 225.882286 
L 437.174857 225.753051 
L 438.144416 221.108404 
L 440.083532 220.658247 
L 441.053091 220.49295 
L 442.022649 218.412731 
L 442.992208 218.17133 
L 443.961766 216.269278 
L 447.84 215.462293 
L 447.84 215.462293 
" clip-path="url(#p262f6c8d37)" style="fill: none; stroke: #4c72b0; stroke-width: 1.5; stroke-linecap: round"/>
   </g>
   <g id="patch_13">
    <path d="M 74.56 236.080923 
L 74.56 179.478154 
" style="fill: none; stroke: #262626; stroke-width: 1.25; stroke-linejoin: miter; stroke-linecap: square"/>
   </g>
   <g id="patch_14">
    <path d="M 447.84 236.080923 
L 447.84 179.478154 
" style="fill: none; stroke: #262626; stroke-width: 1.25; stroke-linejoin: miter; stroke-linecap: square"/>
   </g>
   <g id="patch_15">
    <path d="M 74.56 236.080923 
L 447.84 236.080923 
" style="fill: none; stroke: #262626; stroke-width: 1.25; stroke-linejoin: miter; stroke-linecap: square"/>
   </g>
   <g id="patch_16">
    <path d="M 74.56 179.478154 
L 447.84 179.478154 
" style="fill: none; stroke: #262626; stroke-width: 1.25; stroke-linejoin: miter; stroke-linecap: square"/>
   </g>
  </g>
  <g id="axes_4">
   <g id="patch_17">
    <path d="M 74.56 311.94 
L 447.84 311.94 
L 447.84 255.337232 
L 74.56 255.337232 
z
" style="fill: #ffffff"/>
   </g>
   <g id="line2d_32">
    <path d="M 74.56 281.614296 
L 447.84 281.614296 
" clip-path="url(#pfd96437038)" style="fill: none; stroke: #000000; stroke-width: 1.5; stroke-linecap: round"/>
   </g>
   <g id="matplotlib.axis_7">
    <g id="xtick_22">
     <g id="line2d_33">
      <g>
       <use xlink:href="#mfd01a54379" x="120.267755" y="311.94" style="fill: #262626; stroke: #262626; stroke-width: 1.25"/>
      </g>
     </g>
     <g id="text_11">
      <!-- 2017 -->
      <g style="fill: #262626" transform="translate(108.033693 329.313594) scale(0.11 -0.11)">
       <defs>
        <path id="ArialMT-37" d="M 303 3981 
L 303 4522 
L 3269 4522 
L 3269 4084 
Q 2831 3619 2401 2847 
Q 1972 2075 1738 1259 
Q 1569 684 1522 0 
L 944 0 
Q 953 541 1156 1306 
Q 1359 2072 1739 2783 
Q 2119 3494 2547 3981 
L 303 3981 
z
" transform="scale(0.015625)"/>
       </defs>
       <use xlink:href="#ArialMT-32"/>
       <use xlink:href="#ArialMT-30" x="55.615234"/>
       <use xlink:href="#ArialMT-31" x="111.230469"/>
       <use xlink:href="#ArialMT-37" x="166.845703"/>
      </g>
     </g>
    </g>
    <g id="xtick_23">
     <g id="line2d_34">
      <g>
       <use xlink:href="#mfd01a54379" x="170.823302" y="311.94" style="fill: #262626; stroke: #262626; stroke-width: 1.25"/>
      </g>
     </g>
     <g id="text_12">
      <!-- 2018 -->
      <g style="fill: #262626" transform="translate(158.58924 329.313594) scale(0.11 -0.11)">
       <defs>
        <path id="ArialMT-38" d="M 1131 2484 
Q 781 2613 612 2850 
Q 444 3088 444 3419 
Q 444 3919 803 4259 
Q 1163 4600 1759 4600 
Q 2359 4600 2725 4251 
Q 3091 3903 3091 3403 
Q 3091 3084 2923 2848 
Q 2756 2613 2416 2484 
Q 2838 2347 3058 2040 
Q 3278 1734 3278 1309 
Q 3278 722 2862 322 
Q 2447 -78 1769 -78 
Q 1091 -78 675 323 
Q 259 725 259 1325 
Q 259 1772 486 2073 
Q 713 2375 1131 2484 
z
M 1019 3438 
Q 1019 3113 1228 2906 
Q 1438 2700 1772 2700 
Q 2097 2700 2305 2904 
Q 2513 3109 2513 3406 
Q 2513 3716 2298 3927 
Q 2084 4138 1766 4138 
Q 1444 4138 1231 3931 
Q 1019 3725 1019 3438 
z
M 838 1322 
Q 838 1081 952 856 
Q 1066 631 1291 507 
Q 1516 384 1775 384 
Q 2178 384 2440 643 
Q 2703 903 2703 1303 
Q 2703 1709 2433 1975 
Q 2163 2241 1756 2241 
Q 1359 2241 1098 1978 
Q 838 1716 838 1322 
z
" transform="scale(0.015625)"/>
       </defs>
       <use xlink:href="#ArialMT-32"/>
       <use xlink:href="#ArialMT-30" x="55.615234"/>
       <use xlink:href="#ArialMT-31" x="111.230469"/>
       <use xlink:href="#ArialMT-38" x="166.845703"/>
      </g>
     </g>
    </g>
    <g id="xtick_24">
     <g id="line2d_35">
      <g>
       <use xlink:href="#mfd01a54379" x="221.37885" y="311.94" style="fill: #262626; stroke: #262626; stroke-width: 1.25"/>
      </g>
     </g>
     <g id="text_13">
      <!-- 2019 -->
      <g style="fill: #262626" transform="translate(209.144787 329.313594) scale(0.11 -0.11)">
       <defs>
        <path id="ArialMT-39" d="M 350 1059 
L 891 1109 
Q 959 728 1153 556 
Q 1347 384 1650 384 
Q 1909 384 2104 503 
Q 2300 622 2425 820 
Q 2550 1019 2634 1356 
Q 2719 1694 2719 2044 
Q 2719 2081 2716 2156 
Q 2547 1888 2255 1720 
Q 1963 1553 1622 1553 
Q 1053 1553 659 1965 
Q 266 2378 266 3053 
Q 266 3750 677 4175 
Q 1088 4600 1706 4600 
Q 2153 4600 2523 4359 
Q 2894 4119 3086 3673 
Q 3278 3228 3278 2384 
Q 3278 1506 3087 986 
Q 2897 466 2520 194 
Q 2144 -78 1638 -78 
Q 1100 -78 759 220 
Q 419 519 350 1059 
z
M 2653 3081 
Q 2653 3566 2395 3850 
Q 2138 4134 1775 4134 
Q 1400 4134 1122 3828 
Q 844 3522 844 3034 
Q 844 2597 1108 2323 
Q 1372 2050 1759 2050 
Q 2150 2050 2401 2323 
Q 2653 2597 2653 3081 
z
" transform="scale(0.015625)"/>
       </defs>
       <use xlink:href="#ArialMT-32"/>
       <use xlink:href="#ArialMT-30" x="55.615234"/>
       <use xlink:href="#ArialMT-31" x="111.230469"/>
       <use xlink:href="#ArialMT-39" x="166.845703"/>
      </g>
     </g>
    </g>
    <g id="xtick_25">
     <g id="line2d_36">
      <g>
       <use xlink:href="#mfd01a54379" x="271.934397" y="311.94" style="fill: #262626; stroke: #262626; stroke-width: 1.25"/>
      </g>
     </g>
     <g id="text_14">
      <!-- 2020 -->
      <g style="fill: #262626" transform="translate(259.700335 329.313594) scale(0.11 -0.11)">
       <use xlink:href="#ArialMT-32"/>
       <use xlink:href="#ArialMT-30" x="55.615234"/>
       <use xlink:href="#ArialMT-32" x="111.230469"/>
       <use xlink:href="#ArialMT-30" x="166.845703"/>
      </g>
     </g>
    </g>
    <g id="xtick_26">
     <g id="line2d_37">
      <g>
       <use xlink:href="#mfd01a54379" x="322.628453" y="311.94" style="fill: #262626; stroke: #262626; stroke-width: 1.25"/>
      </g>
     </g>
     <g id="text_15">
      <!-- 2021 -->
      <g style="fill: #262626" transform="translate(310.39439 329.313594) scale(0.11 -0.11)">
       <use xlink:href="#ArialMT-32"/>
       <use xlink:href="#ArialMT-30" x="55.615234"/>
       <use xlink:href="#ArialMT-32" x="111.230469"/>
       <use xlink:href="#ArialMT-31" x="166.845703"/>
      </g>
     </g>
    </g>
    <g id="xtick_27">
     <g id="line2d_38">
      <g>
       <use xlink:href="#mfd01a54379" x="373.184" y="311.94" style="fill: #262626; stroke: #262626; stroke-width: 1.25"/>
      </g>
     </g>
     <g id="text_16">
      <!-- 2022 -->
      <g style="fill: #262626" transform="translate(360.949938 329.313594) scale(0.11 -0.11)">
       <use xlink:href="#ArialMT-32"/>
       <use xlink:href="#ArialMT-30" x="55.615234"/>
       <use xlink:href="#ArialMT-32" x="111.230469"/>
       <use xlink:href="#ArialMT-32" x="166.845703"/>
      </g>
     </g>
    </g>
    <g id="xtick_28">
     <g id="line2d_39">
      <g>
       <use xlink:href="#mfd01a54379" x="423.739547" y="311.94" style="fill: #262626; stroke: #262626; stroke-width: 1.25"/>
      </g>
     </g>
     <g id="text_17">
      <!-- 2023 -->
      <g style="fill: #262626" transform="translate(411.505485 329.313594) scale(0.11 -0.11)">
       <defs>
        <path id="ArialMT-33" d="M 269 1209 
L 831 1284 
Q 928 806 1161 595 
Q 1394 384 1728 384 
Q 2125 384 2398 659 
Q 2672 934 2672 1341 
Q 2672 1728 2419 1979 
Q 2166 2231 1775 2231 
Q 1616 2231 1378 2169 
L 1441 2663 
Q 1497 2656 1531 2656 
Q 1891 2656 2178 2843 
Q 2466 3031 2466 3422 
Q 2466 3731 2256 3934 
Q 2047 4138 1716 4138 
Q 1388 4138 1169 3931 
Q 950 3725 888 3313 
L 325 3413 
Q 428 3978 793 4289 
Q 1159 4600 1703 4600 
Q 2078 4600 2393 4439 
Q 2709 4278 2876 4000 
Q 3044 3722 3044 3409 
Q 3044 3113 2884 2869 
Q 2725 2625 2413 2481 
Q 2819 2388 3044 2092 
Q 3269 1797 3269 1353 
Q 3269 753 2831 336 
Q 2394 -81 1725 -81 
Q 1122 -81 723 278 
Q 325 638 269 1209 
z
" transform="scale(0.015625)"/>
       </defs>
       <use xlink:href="#ArialMT-32"/>
       <use xlink:href="#ArialMT-30" x="55.615234"/>
       <use xlink:href="#ArialMT-32" x="111.230469"/>
       <use xlink:href="#ArialMT-33" x="166.845703"/>
      </g>
     </g>
    </g>
   </g>
   <g id="matplotlib.axis_8">
    <g id="ytick_8">
     <g id="line2d_40">
      <g>
       <use xlink:href="#m589793e773" x="74.56" y="298.210765" style="fill: #262626; stroke: #262626; stroke-width: 1.25"/>
      </g>
     </g>
     <g id="text_18">
      <!-- −10000 -->
      <g style="fill: #262626" transform="translate(28.050156 302.147562) scale(0.11 -0.11)">
       <use xlink:href="#ArialMT-2212"/>
       <use xlink:href="#ArialMT-31" x="58.398438"/>
       <use xlink:href="#ArialMT-30" x="114.013672"/>
       <use xlink:href="#ArialMT-30" x="169.628906"/>
       <use xlink:href="#ArialMT-30" x="225.244141"/>
       <use xlink:href="#ArialMT-30" x="280.859375"/>
      </g>
     </g>
    </g>
    <g id="ytick_9">
     <g id="line2d_41">
      <g>
       <use xlink:href="#m589793e773" x="74.56" y="281.614296" style="fill: #262626; stroke: #262626; stroke-width: 1.25"/>
      </g>
     </g>
     <g id="text_19">
      <!-- 0 -->
      <g style="fill: #262626" transform="translate(58.942969 285.551093) scale(0.11 -0.11)">
       <use xlink:href="#ArialMT-30"/>
      </g>
     </g>
    </g>
    <g id="ytick_10">
     <g id="line2d_42">
      <g>
       <use xlink:href="#m589793e773" x="74.56" y="265.017827" style="fill: #262626; stroke: #262626; stroke-width: 1.25"/>
      </g>
     </g>
     <g id="text_20">
      <!-- 10000 -->
      <g style="fill: #262626" transform="translate(34.474844 268.954624) scale(0.11 -0.11)">
       <use xlink:href="#ArialMT-31"/>
       <use xlink:href="#ArialMT-30" x="55.615234"/>
       <use xlink:href="#ArialMT-30" x="111.230469"/>
       <use xlink:href="#ArialMT-30" x="166.845703"/>
       <use xlink:href="#ArialMT-30" x="222.460938"/>
      </g>
     </g>
    </g>
    <g id="text_21">
     <!-- Resid -->
     <g style="fill: #262626" transform="translate(21.665156 298.977991) rotate(-90) scale(0.12 -0.12)">
      <defs>
       <path id="ArialMT-52" d="M 503 0 
L 503 4581 
L 2534 4581 
Q 3147 4581 3465 4457 
Q 3784 4334 3975 4021 
Q 4166 3709 4166 3331 
Q 4166 2844 3850 2509 
Q 3534 2175 2875 2084 
Q 3116 1969 3241 1856 
Q 3506 1613 3744 1247 
L 4541 0 
L 3778 0 
L 3172 953 
Q 2906 1366 2734 1584 
Q 2563 1803 2427 1890 
Q 2291 1978 2150 2013 
Q 2047 2034 1813 2034 
L 1109 2034 
L 1109 0 
L 503 0 
z
M 1109 2559 
L 2413 2559 
Q 2828 2559 3062 2645 
Q 3297 2731 3419 2920 
Q 3541 3109 3541 3331 
Q 3541 3656 3305 3865 
Q 3069 4075 2559 4075 
L 1109 4075 
L 1109 2559 
z
" transform="scale(0.015625)"/>
      </defs>
      <use xlink:href="#ArialMT-52"/>
      <use xlink:href="#ArialMT-65" x="72.216797"/>
      <use xlink:href="#ArialMT-73" x="127.832031"/>
      <use xlink:href="#ArialMT-69" x="177.832031"/>
      <use xlink:href="#ArialMT-64" x="200.048828"/>
     </g>
    </g>
   </g>
   <g id="line2d_43">
    <defs>
     <path id="m034127a82a" d="M 0 3 
C 0.795609 3 1.55874 2.683901 2.12132 2.12132 
C 2.683901 1.55874 3 0.795609 3 0 
C 3 -0.795609 2.683901 -1.55874 2.12132 -2.12132 
C 1.55874 -2.683901 0.795609 -3 0 -3 
C -0.795609 -3 -1.55874 -2.683901 -2.12132 -2.12132 
C -2.683901 -1.55874 -3 -0.795609 -3 0 
C -3 0.795609 -2.683901 1.55874 -2.12132 2.12132 
C -1.55874 2.683901 -0.795609 3 0 3 
z
" style="stroke: #4c72b0"/>
    </defs>
    <g clip-path="url(#pfd96437038)">
     <use xlink:href="#m034127a82a" x="74.56" y="283.47345" style="fill: #4c72b0; stroke: #4c72b0"/>
     <use xlink:href="#m034127a82a" x="75.529558" y="277.909814" style="fill: #4c72b0; stroke: #4c72b0"/>
     <use xlink:href="#m034127a82a" x="76.499117" y="277.777561" style="fill: #4c72b0; stroke: #4c72b0"/>
     <use xlink:href="#m034127a82a" x="77.468675" y="278.306027" style="fill: #4c72b0; stroke: #4c72b0"/>
     <use xlink:href="#m034127a82a" x="78.438234" y="278.330158" style="fill: #4c72b0; stroke: #4c72b0"/>
     <use xlink:href="#m034127a82a" x="79.407792" y="278.228473" style="fill: #4c72b0; stroke: #4c72b0"/>
     <use xlink:href="#m034127a82a" x="81.346909" y="278.814382" style="fill: #4c72b0; stroke: #4c72b0"/>
     <use xlink:href="#m034127a82a" x="82.316468" y="278.77365" style="fill: #4c72b0; stroke: #4c72b0"/>
     <use xlink:href="#m034127a82a" x="83.286026" y="278.695205" style="fill: #4c72b0; stroke: #4c72b0"/>
     <use xlink:href="#m034127a82a" x="84.255584" y="278.677609" style="fill: #4c72b0; stroke: #4c72b0"/>
     <use xlink:href="#m034127a82a" x="85.225143" y="279.788748" style="fill: #4c72b0; stroke: #4c72b0"/>
     <use xlink:href="#m034127a82a" x="86.194701" y="280.060931" style="fill: #4c72b0; stroke: #4c72b0"/>
     <use xlink:href="#m034127a82a" x="87.16426" y="280.25286" style="fill: #4c72b0; stroke: #4c72b0"/>
     <use xlink:href="#m034127a82a" x="88.133818" y="280.48922" style="fill: #4c72b0; stroke: #4c72b0"/>
     <use xlink:href="#m034127a82a" x="89.103377" y="280.691127" style="fill: #4c72b0; stroke: #4c72b0"/>
     <use xlink:href="#m034127a82a" x="90.072935" y="280.954721" style="fill: #4c72b0; stroke: #4c72b0"/>
     <use xlink:href="#m034127a82a" x="91.042494" y="281.453088" style="fill: #4c72b0; stroke: #4c72b0"/>
     <use xlink:href="#m034127a82a" x="92.012052" y="281.659781" style="fill: #4c72b0; stroke: #4c72b0"/>
     <use xlink:href="#m034127a82a" x="92.98161" y="281.852644" style="fill: #4c72b0; stroke: #4c72b0"/>
     <use xlink:href="#m034127a82a" x="93.951169" y="282.167647" style="fill: #4c72b0; stroke: #4c72b0"/>
     <use xlink:href="#m034127a82a" x="94.920727" y="282.487578" style="fill: #4c72b0; stroke: #4c72b0"/>
     <use xlink:href="#m034127a82a" x="95.890286" y="282.801755" style="fill: #4c72b0; stroke: #4c72b0"/>
     <use xlink:href="#m034127a82a" x="96.859844" y="283.118054" style="fill: #4c72b0; stroke: #4c72b0"/>
     <use xlink:href="#m034127a82a" x="97.829403" y="283.396467" style="fill: #4c72b0; stroke: #4c72b0"/>
     <use xlink:href="#m034127a82a" x="98.798961" y="283.689948" style="fill: #4c72b0; stroke: #4c72b0"/>
     <use xlink:href="#m034127a82a" x="99.768519" y="284.349637" style="fill: #4c72b0; stroke: #4c72b0"/>
     <use xlink:href="#m034127a82a" x="100.738078" y="284.440724" style="fill: #4c72b0; stroke: #4c72b0"/>
     <use xlink:href="#m034127a82a" x="101.707636" y="284.965412" style="fill: #4c72b0; stroke: #4c72b0"/>
     <use xlink:href="#m034127a82a" x="102.677195" y="285.819719" style="fill: #4c72b0; stroke: #4c72b0"/>
     <use xlink:href="#m034127a82a" x="103.646753" y="285.903872" style="fill: #4c72b0; stroke: #4c72b0"/>
     <use xlink:href="#m034127a82a" x="104.616312" y="286.591241" style="fill: #4c72b0; stroke: #4c72b0"/>
     <use xlink:href="#m034127a82a" x="105.58587" y="287.252027" style="fill: #4c72b0; stroke: #4c72b0"/>
     <use xlink:href="#m034127a82a" x="106.555429" y="288.662902" style="fill: #4c72b0; stroke: #4c72b0"/>
     <use xlink:href="#m034127a82a" x="107.524987" y="289.123232" style="fill: #4c72b0; stroke: #4c72b0"/>
     <use xlink:href="#m034127a82a" x="108.494545" y="289.513699" style="fill: #4c72b0; stroke: #4c72b0"/>
     <use xlink:href="#m034127a82a" x="109.464104" y="290.37299" style="fill: #4c72b0; stroke: #4c72b0"/>
     <use xlink:href="#m034127a82a" x="110.433662" y="290.928272" style="fill: #4c72b0; stroke: #4c72b0"/>
     <use xlink:href="#m034127a82a" x="111.403221" y="292.160749" style="fill: #4c72b0; stroke: #4c72b0"/>
     <use xlink:href="#m034127a82a" x="112.372779" y="276.796717" style="fill: #4c72b0; stroke: #4c72b0"/>
     <use xlink:href="#m034127a82a" x="113.342338" y="276.800927" style="fill: #4c72b0; stroke: #4c72b0"/>
     <use xlink:href="#m034127a82a" x="114.311896" y="276.695719" style="fill: #4c72b0; stroke: #4c72b0"/>
     <use xlink:href="#m034127a82a" x="115.281455" y="276.693342" style="fill: #4c72b0; stroke: #4c72b0"/>
     <use xlink:href="#m034127a82a" x="116.251013" y="277.372015" style="fill: #4c72b0; stroke: #4c72b0"/>
     <use xlink:href="#m034127a82a" x="117.220571" y="271.418888" style="fill: #4c72b0; stroke: #4c72b0"/>
     <use xlink:href="#m034127a82a" x="118.19013" y="271.290241" style="fill: #4c72b0; stroke: #4c72b0"/>
     <use xlink:href="#m034127a82a" x="119.159688" y="271.208764" style="fill: #4c72b0; stroke: #4c72b0"/>
     <use xlink:href="#m034127a82a" x="123.037922" y="289.807243" style="fill: #4c72b0; stroke: #4c72b0"/>
     <use xlink:href="#m034127a82a" x="124.007481" y="291.624982" style="fill: #4c72b0; stroke: #4c72b0"/>
     <use xlink:href="#m034127a82a" x="124.977039" y="289.928254" style="fill: #4c72b0; stroke: #4c72b0"/>
     <use xlink:href="#m034127a82a" x="125.946597" y="281.390524" style="fill: #4c72b0; stroke: #4c72b0"/>
     <use xlink:href="#m034127a82a" x="126.916156" y="281.605664" style="fill: #4c72b0; stroke: #4c72b0"/>
     <use xlink:href="#m034127a82a" x="127.885714" y="280.750154" style="fill: #4c72b0; stroke: #4c72b0"/>
     <use xlink:href="#m034127a82a" x="128.855273" y="280.920741" style="fill: #4c72b0; stroke: #4c72b0"/>
     <use xlink:href="#m034127a82a" x="129.824831" y="281.21007" style="fill: #4c72b0; stroke: #4c72b0"/>
     <use xlink:href="#m034127a82a" x="130.79439" y="280.616943" style="fill: #4c72b0; stroke: #4c72b0"/>
     <use xlink:href="#m034127a82a" x="131.763948" y="280.64133" style="fill: #4c72b0; stroke: #4c72b0"/>
     <use xlink:href="#m034127a82a" x="132.733506" y="280.919833" style="fill: #4c72b0; stroke: #4c72b0"/>
     <use xlink:href="#m034127a82a" x="133.703065" y="280.796296" style="fill: #4c72b0; stroke: #4c72b0"/>
     <use xlink:href="#m034127a82a" x="134.672623" y="281.78219" style="fill: #4c72b0; stroke: #4c72b0"/>
     <use xlink:href="#m034127a82a" x="135.642182" y="281.531152" style="fill: #4c72b0; stroke: #4c72b0"/>
     <use xlink:href="#m034127a82a" x="136.61174" y="281.414607" style="fill: #4c72b0; stroke: #4c72b0"/>
     <use xlink:href="#m034127a82a" x="137.581299" y="281.201502" style="fill: #4c72b0; stroke: #4c72b0"/>
     <use xlink:href="#m034127a82a" x="138.550857" y="281.073708" style="fill: #4c72b0; stroke: #4c72b0"/>
     <use xlink:href="#m034127a82a" x="139.520416" y="281.016912" style="fill: #4c72b0; stroke: #4c72b0"/>
     <use xlink:href="#m034127a82a" x="140.489974" y="280.702623" style="fill: #4c72b0; stroke: #4c72b0"/>
     <use xlink:href="#m034127a82a" x="141.459532" y="280.934419" style="fill: #4c72b0; stroke: #4c72b0"/>
     <use xlink:href="#m034127a82a" x="142.429091" y="280.982321" style="fill: #4c72b0; stroke: #4c72b0"/>
     <use xlink:href="#m034127a82a" x="143.398649" y="280.779888" style="fill: #4c72b0; stroke: #4c72b0"/>
     <use xlink:href="#m034127a82a" x="144.368208" y="280.607085" style="fill: #4c72b0; stroke: #4c72b0"/>
     <use xlink:href="#m034127a82a" x="145.337766" y="280.430477" style="fill: #4c72b0; stroke: #4c72b0"/>
     <use xlink:href="#m034127a82a" x="146.307325" y="280.27447" style="fill: #4c72b0; stroke: #4c72b0"/>
     <use xlink:href="#m034127a82a" x="147.276883" y="280.190046" style="fill: #4c72b0; stroke: #4c72b0"/>
     <use xlink:href="#m034127a82a" x="148.246442" y="279.869844" style="fill: #4c72b0; stroke: #4c72b0"/>
     <use xlink:href="#m034127a82a" x="149.216" y="279.604901" style="fill: #4c72b0; stroke: #4c72b0"/>
     <use xlink:href="#m034127a82a" x="150.185558" y="279.883464" style="fill: #4c72b0; stroke: #4c72b0"/>
     <use xlink:href="#m034127a82a" x="151.155117" y="279.235629" style="fill: #4c72b0; stroke: #4c72b0"/>
     <use xlink:href="#m034127a82a" x="152.124675" y="278.197415" style="fill: #4c72b0; stroke: #4c72b0"/>
     <use xlink:href="#m034127a82a" x="153.094234" y="278.447743" style="fill: #4c72b0; stroke: #4c72b0"/>
     <use xlink:href="#m034127a82a" x="154.063792" y="277.549172" style="fill: #4c72b0; stroke: #4c72b0"/>
     <use xlink:href="#m034127a82a" x="155.033351" y="276.873523" style="fill: #4c72b0; stroke: #4c72b0"/>
     <use xlink:href="#m034127a82a" x="156.002909" y="276.986534" style="fill: #4c72b0; stroke: #4c72b0"/>
     <use xlink:href="#m034127a82a" x="156.972468" y="276.550486" style="fill: #4c72b0; stroke: #4c72b0"/>
     <use xlink:href="#m034127a82a" x="157.942026" y="276.207723" style="fill: #4c72b0; stroke: #4c72b0"/>
     <use xlink:href="#m034127a82a" x="158.911584" y="275.89113" style="fill: #4c72b0; stroke: #4c72b0"/>
     <use xlink:href="#m034127a82a" x="159.881143" y="275.506178" style="fill: #4c72b0; stroke: #4c72b0"/>
     <use xlink:href="#m034127a82a" x="160.850701" y="273.642118" style="fill: #4c72b0; stroke: #4c72b0"/>
     <use xlink:href="#m034127a82a" x="161.82026" y="290.128862" style="fill: #4c72b0; stroke: #4c72b0"/>
     <use xlink:href="#m034127a82a" x="162.789818" y="290.398773" style="fill: #4c72b0; stroke: #4c72b0"/>
     <use xlink:href="#m034127a82a" x="163.759377" y="290.671414" style="fill: #4c72b0; stroke: #4c72b0"/>
     <use xlink:href="#m034127a82a" x="164.728935" y="290.899133" style="fill: #4c72b0; stroke: #4c72b0"/>
     <use xlink:href="#m034127a82a" x="165.698494" y="289.868134" style="fill: #4c72b0; stroke: #4c72b0"/>
     <use xlink:href="#m034127a82a" x="166.668052" y="282.51954" style="fill: #4c72b0; stroke: #4c72b0"/>
     <use xlink:href="#m034127a82a" x="167.63761" y="282.718611" style="fill: #4c72b0; stroke: #4c72b0"/>
     <use xlink:href="#m034127a82a" x="168.607169" y="282.815441" style="fill: #4c72b0; stroke: #4c72b0"/>
     <use xlink:href="#m034127a82a" x="169.576727" y="262.937428" style="fill: #4c72b0; stroke: #4c72b0"/>
     <use xlink:href="#m034127a82a" x="170.546286" y="258.832102" style="fill: #4c72b0; stroke: #4c72b0"/>
     <use xlink:href="#m034127a82a" x="171.515844" y="257.910085" style="fill: #4c72b0; stroke: #4c72b0"/>
     <use xlink:href="#m034127a82a" x="173.454961" y="288.153345" style="fill: #4c72b0; stroke: #4c72b0"/>
     <use xlink:href="#m034127a82a" x="174.424519" y="288.28762" style="fill: #4c72b0; stroke: #4c72b0"/>
     <use xlink:href="#m034127a82a" x="175.394078" y="288.400242" style="fill: #4c72b0; stroke: #4c72b0"/>
     <use xlink:href="#m034127a82a" x="176.363636" y="288.373605" style="fill: #4c72b0; stroke: #4c72b0"/>
     <use xlink:href="#m034127a82a" x="177.333195" y="288.214999" style="fill: #4c72b0; stroke: #4c72b0"/>
     <use xlink:href="#m034127a82a" x="178.302753" y="287.847813" style="fill: #4c72b0; stroke: #4c72b0"/>
     <use xlink:href="#m034127a82a" x="179.272312" y="287.985798" style="fill: #4c72b0; stroke: #4c72b0"/>
     <use xlink:href="#m034127a82a" x="180.24187" y="287.718564" style="fill: #4c72b0; stroke: #4c72b0"/>
     <use xlink:href="#m034127a82a" x="181.211429" y="288.022685" style="fill: #4c72b0; stroke: #4c72b0"/>
     <use xlink:href="#m034127a82a" x="190.907013" y="283.396926" style="fill: #4c72b0; stroke: #4c72b0"/>
     <use xlink:href="#m034127a82a" x="191.876571" y="283.213979" style="fill: #4c72b0; stroke: #4c72b0"/>
     <use xlink:href="#m034127a82a" x="192.84613" y="283.045946" style="fill: #4c72b0; stroke: #4c72b0"/>
     <use xlink:href="#m034127a82a" x="193.815688" y="282.899147" style="fill: #4c72b0; stroke: #4c72b0"/>
     <use xlink:href="#m034127a82a" x="194.785247" y="282.676427" style="fill: #4c72b0; stroke: #4c72b0"/>
     <use xlink:href="#m034127a82a" x="195.754805" y="282.170489" style="fill: #4c72b0; stroke: #4c72b0"/>
     <use xlink:href="#m034127a82a" x="196.724364" y="281.591006" style="fill: #4c72b0; stroke: #4c72b0"/>
     <use xlink:href="#m034127a82a" x="198.663481" y="280.703467" style="fill: #4c72b0; stroke: #4c72b0"/>
     <use xlink:href="#m034127a82a" x="199.633039" y="280.237611" style="fill: #4c72b0; stroke: #4c72b0"/>
     <use xlink:href="#m034127a82a" x="200.602597" y="279.817112" style="fill: #4c72b0; stroke: #4c72b0"/>
     <use xlink:href="#m034127a82a" x="201.572156" y="279.492124" style="fill: #4c72b0; stroke: #4c72b0"/>
     <use xlink:href="#m034127a82a" x="202.541714" y="279.145959" style="fill: #4c72b0; stroke: #4c72b0"/>
     <use xlink:href="#m034127a82a" x="203.511273" y="278.845559" style="fill: #4c72b0; stroke: #4c72b0"/>
     <use xlink:href="#m034127a82a" x="204.480831" y="278.512057" style="fill: #4c72b0; stroke: #4c72b0"/>
     <use xlink:href="#m034127a82a" x="205.45039" y="278.475369" style="fill: #4c72b0; stroke: #4c72b0"/>
     <use xlink:href="#m034127a82a" x="206.419948" y="277.644693" style="fill: #4c72b0; stroke: #4c72b0"/>
     <use xlink:href="#m034127a82a" x="207.389506" y="277.180131" style="fill: #4c72b0; stroke: #4c72b0"/>
     <use xlink:href="#m034127a82a" x="208.359065" y="277.239413" style="fill: #4c72b0; stroke: #4c72b0"/>
     <use xlink:href="#m034127a82a" x="209.328623" y="277.01587" style="fill: #4c72b0; stroke: #4c72b0"/>
     <use xlink:href="#m034127a82a" x="210.298182" y="276.684932" style="fill: #4c72b0; stroke: #4c72b0"/>
     <use xlink:href="#m034127a82a" x="211.26774" y="276.767266" style="fill: #4c72b0; stroke: #4c72b0"/>
     <use xlink:href="#m034127a82a" x="212.237299" y="276.57593" style="fill: #4c72b0; stroke: #4c72b0"/>
     <use xlink:href="#m034127a82a" x="213.206857" y="274.436915" style="fill: #4c72b0; stroke: #4c72b0"/>
     <use xlink:href="#m034127a82a" x="214.176416" y="274.339108" style="fill: #4c72b0; stroke: #4c72b0"/>
     <use xlink:href="#m034127a82a" x="215.145974" y="274.25545" style="fill: #4c72b0; stroke: #4c72b0"/>
     <use xlink:href="#m034127a82a" x="216.115532" y="273.686462" style="fill: #4c72b0; stroke: #4c72b0"/>
     <use xlink:href="#m034127a82a" x="217.085091" y="273.224425" style="fill: #4c72b0; stroke: #4c72b0"/>
     <use xlink:href="#m034127a82a" x="218.054649" y="273.688217" style="fill: #4c72b0; stroke: #4c72b0"/>
     <use xlink:href="#m034127a82a" x="219.024208" y="280.246113" style="fill: #4c72b0; stroke: #4c72b0"/>
     <use xlink:href="#m034127a82a" x="219.993766" y="280.021105" style="fill: #4c72b0; stroke: #4c72b0"/>
     <use xlink:href="#m034127a82a" x="220.963325" y="279.694867" style="fill: #4c72b0; stroke: #4c72b0"/>
     <use xlink:href="#m034127a82a" x="221.932883" y="279.852497" style="fill: #4c72b0; stroke: #4c72b0"/>
     <use xlink:href="#m034127a82a" x="222.902442" y="280.153528" style="fill: #4c72b0; stroke: #4c72b0"/>
     <use xlink:href="#m034127a82a" x="225.811117" y="309.132315" style="fill: #4c72b0; stroke: #4c72b0"/>
     <use xlink:href="#m034127a82a" x="226.780675" y="309.121147" style="fill: #4c72b0; stroke: #4c72b0"/>
     <use xlink:href="#m034127a82a" x="227.750234" y="309.367147" style="fill: #4c72b0; stroke: #4c72b0"/>
     <use xlink:href="#m034127a82a" x="228.719792" y="301.278169" style="fill: #4c72b0; stroke: #4c72b0"/>
     <use xlink:href="#m034127a82a" x="229.689351" y="292.109043" style="fill: #4c72b0; stroke: #4c72b0"/>
     <use xlink:href="#m034127a82a" x="230.658909" y="292.027419" style="fill: #4c72b0; stroke: #4c72b0"/>
     <use xlink:href="#m034127a82a" x="231.628468" y="281.603306" style="fill: #4c72b0; stroke: #4c72b0"/>
     <use xlink:href="#m034127a82a" x="232.598026" y="281.177931" style="fill: #4c72b0; stroke: #4c72b0"/>
     <use xlink:href="#m034127a82a" x="233.567584" y="281.581189" style="fill: #4c72b0; stroke: #4c72b0"/>
     <use xlink:href="#m034127a82a" x="234.537143" y="280.831857" style="fill: #4c72b0; stroke: #4c72b0"/>
     <use xlink:href="#m034127a82a" x="235.506701" y="280.729221" style="fill: #4c72b0; stroke: #4c72b0"/>
     <use xlink:href="#m034127a82a" x="236.47626" y="280.948882" style="fill: #4c72b0; stroke: #4c72b0"/>
     <use xlink:href="#m034127a82a" x="237.445818" y="280.794468" style="fill: #4c72b0; stroke: #4c72b0"/>
     <use xlink:href="#m034127a82a" x="238.415377" y="280.867343" style="fill: #4c72b0; stroke: #4c72b0"/>
     <use xlink:href="#m034127a82a" x="239.384935" y="280.951436" style="fill: #4c72b0; stroke: #4c72b0"/>
     <use xlink:href="#m034127a82a" x="240.354494" y="282.481587" style="fill: #4c72b0; stroke: #4c72b0"/>
     <use xlink:href="#m034127a82a" x="241.324052" y="282.537979" style="fill: #4c72b0; stroke: #4c72b0"/>
     <use xlink:href="#m034127a82a" x="242.29361" y="282.429977" style="fill: #4c72b0; stroke: #4c72b0"/>
     <use xlink:href="#m034127a82a" x="243.263169" y="282.412292" style="fill: #4c72b0; stroke: #4c72b0"/>
     <use xlink:href="#m034127a82a" x="244.232727" y="282.436115" style="fill: #4c72b0; stroke: #4c72b0"/>
     <use xlink:href="#m034127a82a" x="245.202286" y="282.542282" style="fill: #4c72b0; stroke: #4c72b0"/>
     <use xlink:href="#m034127a82a" x="246.171844" y="282.586496" style="fill: #4c72b0; stroke: #4c72b0"/>
     <use xlink:href="#m034127a82a" x="247.141403" y="282.773866" style="fill: #4c72b0; stroke: #4c72b0"/>
     <use xlink:href="#m034127a82a" x="248.110961" y="282.754129" style="fill: #4c72b0; stroke: #4c72b0"/>
     <use xlink:href="#m034127a82a" x="249.080519" y="282.990235" style="fill: #4c72b0; stroke: #4c72b0"/>
     <use xlink:href="#m034127a82a" x="250.050078" y="282.809252" style="fill: #4c72b0; stroke: #4c72b0"/>
     <use xlink:href="#m034127a82a" x="251.019636" y="282.716289" style="fill: #4c72b0; stroke: #4c72b0"/>
     <use xlink:href="#m034127a82a" x="251.989195" y="282.415832" style="fill: #4c72b0; stroke: #4c72b0"/>
     <use xlink:href="#m034127a82a" x="252.958753" y="282.110718" style="fill: #4c72b0; stroke: #4c72b0"/>
     <use xlink:href="#m034127a82a" x="253.928312" y="281.971544" style="fill: #4c72b0; stroke: #4c72b0"/>
     <use xlink:href="#m034127a82a" x="254.89787" y="281.554182" style="fill: #4c72b0; stroke: #4c72b0"/>
     <use xlink:href="#m034127a82a" x="255.867429" y="281.113253" style="fill: #4c72b0; stroke: #4c72b0"/>
     <use xlink:href="#m034127a82a" x="256.836987" y="280.778043" style="fill: #4c72b0; stroke: #4c72b0"/>
     <use xlink:href="#m034127a82a" x="257.806545" y="280.963898" style="fill: #4c72b0; stroke: #4c72b0"/>
     <use xlink:href="#m034127a82a" x="258.776104" y="280.328616" style="fill: #4c72b0; stroke: #4c72b0"/>
     <use xlink:href="#m034127a82a" x="259.745662" y="280.072049" style="fill: #4c72b0; stroke: #4c72b0"/>
     <use xlink:href="#m034127a82a" x="260.715221" y="279.723789" style="fill: #4c72b0; stroke: #4c72b0"/>
     <use xlink:href="#m034127a82a" x="261.684779" y="275.754486" style="fill: #4c72b0; stroke: #4c72b0"/>
     <use xlink:href="#m034127a82a" x="262.654338" y="275.298174" style="fill: #4c72b0; stroke: #4c72b0"/>
     <use xlink:href="#m034127a82a" x="263.623896" y="274.797602" style="fill: #4c72b0; stroke: #4c72b0"/>
     <use xlink:href="#m034127a82a" x="264.593455" y="273.406714" style="fill: #4c72b0; stroke: #4c72b0"/>
     <use xlink:href="#m034127a82a" x="265.563013" y="273.14635" style="fill: #4c72b0; stroke: #4c72b0"/>
     <use xlink:href="#m034127a82a" x="266.532571" y="272.896971" style="fill: #4c72b0; stroke: #4c72b0"/>
     <use xlink:href="#m034127a82a" x="267.50213" y="272.894028" style="fill: #4c72b0; stroke: #4c72b0"/>
     <use xlink:href="#m034127a82a" x="268.471688" y="272.360438" style="fill: #4c72b0; stroke: #4c72b0"/>
     <use xlink:href="#m034127a82a" x="269.441247" y="272.680114" style="fill: #4c72b0; stroke: #4c72b0"/>
     <use xlink:href="#m034127a82a" x="270.410805" y="271.362186" style="fill: #4c72b0; stroke: #4c72b0"/>
     <use xlink:href="#m034127a82a" x="271.380364" y="271.156132" style="fill: #4c72b0; stroke: #4c72b0"/>
     <use xlink:href="#m034127a82a" x="272.349922" y="261.182213" style="fill: #4c72b0; stroke: #4c72b0"/>
     <use xlink:href="#m034127a82a" x="273.319481" y="261.159019" style="fill: #4c72b0; stroke: #4c72b0"/>
     <use xlink:href="#m034127a82a" x="274.289039" y="260.615786" style="fill: #4c72b0; stroke: #4c72b0"/>
     <use xlink:href="#m034127a82a" x="275.258597" y="260.744194" style="fill: #4c72b0; stroke: #4c72b0"/>
     <use xlink:href="#m034127a82a" x="277.197714" y="291.589521" style="fill: #4c72b0; stroke: #4c72b0"/>
     <use xlink:href="#m034127a82a" x="278.167273" y="290.811655" style="fill: #4c72b0; stroke: #4c72b0"/>
     <use xlink:href="#m034127a82a" x="279.136831" y="286.9987" style="fill: #4c72b0; stroke: #4c72b0"/>
     <use xlink:href="#m034127a82a" x="280.10639" y="286.743535" style="fill: #4c72b0; stroke: #4c72b0"/>
     <use xlink:href="#m034127a82a" x="281.075948" y="286.315008" style="fill: #4c72b0; stroke: #4c72b0"/>
     <use xlink:href="#m034127a82a" x="282.045506" y="286.534458" style="fill: #4c72b0; stroke: #4c72b0"/>
     <use xlink:href="#m034127a82a" x="283.015065" y="285.835717" style="fill: #4c72b0; stroke: #4c72b0"/>
     <use xlink:href="#m034127a82a" x="283.984623" y="285.914895" style="fill: #4c72b0; stroke: #4c72b0"/>
     <use xlink:href="#m034127a82a" x="284.954182" y="285.490536" style="fill: #4c72b0; stroke: #4c72b0"/>
     <use xlink:href="#m034127a82a" x="285.92374" y="284.742993" style="fill: #4c72b0; stroke: #4c72b0"/>
     <use xlink:href="#m034127a82a" x="301.436675" y="282.820693" style="fill: #4c72b0; stroke: #4c72b0"/>
     <use xlink:href="#m034127a82a" x="302.406234" y="283.404712" style="fill: #4c72b0; stroke: #4c72b0"/>
     <use xlink:href="#m034127a82a" x="303.375792" y="283.109349" style="fill: #4c72b0; stroke: #4c72b0"/>
     <use xlink:href="#m034127a82a" x="304.345351" y="282.936926" style="fill: #4c72b0; stroke: #4c72b0"/>
     <use xlink:href="#m034127a82a" x="305.314909" y="282.79614" style="fill: #4c72b0; stroke: #4c72b0"/>
     <use xlink:href="#m034127a82a" x="306.284468" y="282.58427" style="fill: #4c72b0; stroke: #4c72b0"/>
     <use xlink:href="#m034127a82a" x="307.254026" y="282.440822" style="fill: #4c72b0; stroke: #4c72b0"/>
     <use xlink:href="#m034127a82a" x="308.223584" y="282.445108" style="fill: #4c72b0; stroke: #4c72b0"/>
     <use xlink:href="#m034127a82a" x="309.193143" y="282.372624" style="fill: #4c72b0; stroke: #4c72b0"/>
     <use xlink:href="#m034127a82a" x="311.13226" y="282.07586" style="fill: #4c72b0; stroke: #4c72b0"/>
     <use xlink:href="#m034127a82a" x="313.071377" y="281.645848" style="fill: #4c72b0; stroke: #4c72b0"/>
     <use xlink:href="#m034127a82a" x="314.040935" y="281.502274" style="fill: #4c72b0; stroke: #4c72b0"/>
     <use xlink:href="#m034127a82a" x="315.010494" y="281.426192" style="fill: #4c72b0; stroke: #4c72b0"/>
     <use xlink:href="#m034127a82a" x="315.980052" y="281.358695" style="fill: #4c72b0; stroke: #4c72b0"/>
     <use xlink:href="#m034127a82a" x="316.94961" y="281.32351" style="fill: #4c72b0; stroke: #4c72b0"/>
     <use xlink:href="#m034127a82a" x="319.858286" y="280.986882" style="fill: #4c72b0; stroke: #4c72b0"/>
     <use xlink:href="#m034127a82a" x="320.827844" y="281.203509" style="fill: #4c72b0; stroke: #4c72b0"/>
     <use xlink:href="#m034127a82a" x="321.797403" y="281.260007" style="fill: #4c72b0; stroke: #4c72b0"/>
     <use xlink:href="#m034127a82a" x="322.766961" y="281.290102" style="fill: #4c72b0; stroke: #4c72b0"/>
     <use xlink:href="#m034127a82a" x="323.736519" y="281.229022" style="fill: #4c72b0; stroke: #4c72b0"/>
     <use xlink:href="#m034127a82a" x="324.706078" y="281.441094" style="fill: #4c72b0; stroke: #4c72b0"/>
     <use xlink:href="#m034127a82a" x="325.675636" y="281.517808" style="fill: #4c72b0; stroke: #4c72b0"/>
     <use xlink:href="#m034127a82a" x="327.614753" y="281.752622" style="fill: #4c72b0; stroke: #4c72b0"/>
     <use xlink:href="#m034127a82a" x="329.55387" y="292.331133" style="fill: #4c72b0; stroke: #4c72b0"/>
     <use xlink:href="#m034127a82a" x="331.492987" y="292.48536" style="fill: #4c72b0; stroke: #4c72b0"/>
     <use xlink:href="#m034127a82a" x="332.462545" y="292.721771" style="fill: #4c72b0; stroke: #4c72b0"/>
     <use xlink:href="#m034127a82a" x="333.432104" y="290.652239" style="fill: #4c72b0; stroke: #4c72b0"/>
     <use xlink:href="#m034127a82a" x="334.401662" y="290.835225" style="fill: #4c72b0; stroke: #4c72b0"/>
     <use xlink:href="#m034127a82a" x="335.371221" y="291.057667" style="fill: #4c72b0; stroke: #4c72b0"/>
     <use xlink:href="#m034127a82a" x="336.340779" y="289.489571" style="fill: #4c72b0; stroke: #4c72b0"/>
     <use xlink:href="#m034127a82a" x="337.310338" y="289.751725" style="fill: #4c72b0; stroke: #4c72b0"/>
     <use xlink:href="#m034127a82a" x="338.279896" y="289.841901" style="fill: #4c72b0; stroke: #4c72b0"/>
     <use xlink:href="#m034127a82a" x="339.249455" y="290.354661" style="fill: #4c72b0; stroke: #4c72b0"/>
     <use xlink:href="#m034127a82a" x="340.219013" y="290.469779" style="fill: #4c72b0; stroke: #4c72b0"/>
     <use xlink:href="#m034127a82a" x="341.188571" y="285.635237" style="fill: #4c72b0; stroke: #4c72b0"/>
     <use xlink:href="#m034127a82a" x="342.15813" y="285.567152" style="fill: #4c72b0; stroke: #4c72b0"/>
     <use xlink:href="#m034127a82a" x="343.127688" y="285.787395" style="fill: #4c72b0; stroke: #4c72b0"/>
     <use xlink:href="#m034127a82a" x="344.097247" y="285.889508" style="fill: #4c72b0; stroke: #4c72b0"/>
     <use xlink:href="#m034127a82a" x="345.066805" y="277.231065" style="fill: #4c72b0; stroke: #4c72b0"/>
     <use xlink:href="#m034127a82a" x="346.036364" y="277.413681" style="fill: #4c72b0; stroke: #4c72b0"/>
     <use xlink:href="#m034127a82a" x="347.005922" y="276.244626" style="fill: #4c72b0; stroke: #4c72b0"/>
     <use xlink:href="#m034127a82a" x="347.975481" y="276.426132" style="fill: #4c72b0; stroke: #4c72b0"/>
     <use xlink:href="#m034127a82a" x="348.945039" y="276.527718" style="fill: #4c72b0; stroke: #4c72b0"/>
     <use xlink:href="#m034127a82a" x="349.914597" y="276.686586" style="fill: #4c72b0; stroke: #4c72b0"/>
     <use xlink:href="#m034127a82a" x="350.884156" y="277.102377" style="fill: #4c72b0; stroke: #4c72b0"/>
     <use xlink:href="#m034127a82a" x="351.853714" y="278.300728" style="fill: #4c72b0; stroke: #4c72b0"/>
     <use xlink:href="#m034127a82a" x="352.823273" y="278.39465" style="fill: #4c72b0; stroke: #4c72b0"/>
     <use xlink:href="#m034127a82a" x="353.792831" y="278.617038" style="fill: #4c72b0; stroke: #4c72b0"/>
     <use xlink:href="#m034127a82a" x="354.76239" y="279.257729" style="fill: #4c72b0; stroke: #4c72b0"/>
     <use xlink:href="#m034127a82a" x="355.731948" y="279.394057" style="fill: #4c72b0; stroke: #4c72b0"/>
     <use xlink:href="#m034127a82a" x="356.701506" y="279.533665" style="fill: #4c72b0; stroke: #4c72b0"/>
     <use xlink:href="#m034127a82a" x="357.671065" y="279.653936" style="fill: #4c72b0; stroke: #4c72b0"/>
     <use xlink:href="#m034127a82a" x="358.640623" y="279.67481" style="fill: #4c72b0; stroke: #4c72b0"/>
     <use xlink:href="#m034127a82a" x="359.610182" y="279.782492" style="fill: #4c72b0; stroke: #4c72b0"/>
     <use xlink:href="#m034127a82a" x="360.57974" y="279.956126" style="fill: #4c72b0; stroke: #4c72b0"/>
     <use xlink:href="#m034127a82a" x="361.549299" y="280.085496" style="fill: #4c72b0; stroke: #4c72b0"/>
     <use xlink:href="#m034127a82a" x="362.518857" y="280.174708" style="fill: #4c72b0; stroke: #4c72b0"/>
     <use xlink:href="#m034127a82a" x="363.488416" y="280.390729" style="fill: #4c72b0; stroke: #4c72b0"/>
     <use xlink:href="#m034127a82a" x="364.457974" y="280.577833" style="fill: #4c72b0; stroke: #4c72b0"/>
     <use xlink:href="#m034127a82a" x="365.427532" y="280.821458" style="fill: #4c72b0; stroke: #4c72b0"/>
     <use xlink:href="#m034127a82a" x="366.397091" y="280.928015" style="fill: #4c72b0; stroke: #4c72b0"/>
     <use xlink:href="#m034127a82a" x="367.366649" y="281.135343" style="fill: #4c72b0; stroke: #4c72b0"/>
     <use xlink:href="#m034127a82a" x="368.336208" y="281.344908" style="fill: #4c72b0; stroke: #4c72b0"/>
     <use xlink:href="#m034127a82a" x="369.305766" y="281.537747" style="fill: #4c72b0; stroke: #4c72b0"/>
     <use xlink:href="#m034127a82a" x="370.275325" y="281.739027" style="fill: #4c72b0; stroke: #4c72b0"/>
     <use xlink:href="#m034127a82a" x="371.244883" y="281.881756" style="fill: #4c72b0; stroke: #4c72b0"/>
     <use xlink:href="#m034127a82a" x="372.214442" y="282.045992" style="fill: #4c72b0; stroke: #4c72b0"/>
     <use xlink:href="#m034127a82a" x="373.184" y="282.177553" style="fill: #4c72b0; stroke: #4c72b0"/>
     <use xlink:href="#m034127a82a" x="374.153558" y="282.29595" style="fill: #4c72b0; stroke: #4c72b0"/>
     <use xlink:href="#m034127a82a" x="375.123117" y="282.401929" style="fill: #4c72b0; stroke: #4c72b0"/>
     <use xlink:href="#m034127a82a" x="376.092675" y="282.48923" style="fill: #4c72b0; stroke: #4c72b0"/>
     <use xlink:href="#m034127a82a" x="377.062234" y="279.850258" style="fill: #4c72b0; stroke: #4c72b0"/>
     <use xlink:href="#m034127a82a" x="378.031792" y="279.937967" style="fill: #4c72b0; stroke: #4c72b0"/>
     <use xlink:href="#m034127a82a" x="379.001351" y="279.978687" style="fill: #4c72b0; stroke: #4c72b0"/>
     <use xlink:href="#m034127a82a" x="380.940468" y="286.957842" style="fill: #4c72b0; stroke: #4c72b0"/>
     <use xlink:href="#m034127a82a" x="381.910026" y="287.088432" style="fill: #4c72b0; stroke: #4c72b0"/>
     <use xlink:href="#m034127a82a" x="382.879584" y="287.174585" style="fill: #4c72b0; stroke: #4c72b0"/>
     <use xlink:href="#m034127a82a" x="383.849143" y="283.035979" style="fill: #4c72b0; stroke: #4c72b0"/>
     <use xlink:href="#m034127a82a" x="384.818701" y="283.114764" style="fill: #4c72b0; stroke: #4c72b0"/>
     <use xlink:href="#m034127a82a" x="386.757818" y="282.974769" style="fill: #4c72b0; stroke: #4c72b0"/>
     <use xlink:href="#m034127a82a" x="387.727377" y="283.043259" style="fill: #4c72b0; stroke: #4c72b0"/>
     <use xlink:href="#m034127a82a" x="388.696935" y="283.132344" style="fill: #4c72b0; stroke: #4c72b0"/>
     <use xlink:href="#m034127a82a" x="389.666494" y="282.924681" style="fill: #4c72b0; stroke: #4c72b0"/>
     <use xlink:href="#m034127a82a" x="390.636052" y="282.957077" style="fill: #4c72b0; stroke: #4c72b0"/>
     <use xlink:href="#m034127a82a" x="391.60561" y="283.001812" style="fill: #4c72b0; stroke: #4c72b0"/>
     <use xlink:href="#m034127a82a" x="392.575169" y="283.033032" style="fill: #4c72b0; stroke: #4c72b0"/>
     <use xlink:href="#m034127a82a" x="393.544727" y="279.003571" style="fill: #4c72b0; stroke: #4c72b0"/>
     <use xlink:href="#m034127a82a" x="394.514286" y="279.151939" style="fill: #4c72b0; stroke: #4c72b0"/>
     <use xlink:href="#m034127a82a" x="395.483844" y="279.60304" style="fill: #4c72b0; stroke: #4c72b0"/>
     <use xlink:href="#m034127a82a" x="396.453403" y="279.80783" style="fill: #4c72b0; stroke: #4c72b0"/>
     <use xlink:href="#m034127a82a" x="397.422961" y="279.966294" style="fill: #4c72b0; stroke: #4c72b0"/>
     <use xlink:href="#m034127a82a" x="398.392519" y="280.133818" style="fill: #4c72b0; stroke: #4c72b0"/>
     <use xlink:href="#m034127a82a" x="399.362078" y="280.364875" style="fill: #4c72b0; stroke: #4c72b0"/>
     <use xlink:href="#m034127a82a" x="400.331636" y="282.382291" style="fill: #4c72b0; stroke: #4c72b0"/>
     <use xlink:href="#m034127a82a" x="401.301195" y="282.539947" style="fill: #4c72b0; stroke: #4c72b0"/>
     <use xlink:href="#m034127a82a" x="402.270753" y="282.718755" style="fill: #4c72b0; stroke: #4c72b0"/>
     <use xlink:href="#m034127a82a" x="403.240312" y="283.110105" style="fill: #4c72b0; stroke: #4c72b0"/>
     <use xlink:href="#m034127a82a" x="404.20987" y="282.561342" style="fill: #4c72b0; stroke: #4c72b0"/>
     <use xlink:href="#m034127a82a" x="405.179429" y="282.589873" style="fill: #4c72b0; stroke: #4c72b0"/>
     <use xlink:href="#m034127a82a" x="406.148987" y="282.606807" style="fill: #4c72b0; stroke: #4c72b0"/>
     <use xlink:href="#m034127a82a" x="407.118545" y="282.665726" style="fill: #4c72b0; stroke: #4c72b0"/>
     <use xlink:href="#m034127a82a" x="408.088104" y="282.68692" style="fill: #4c72b0; stroke: #4c72b0"/>
     <use xlink:href="#m034127a82a" x="409.057662" y="282.618012" style="fill: #4c72b0; stroke: #4c72b0"/>
     <use xlink:href="#m034127a82a" x="410.027221" y="282.524535" style="fill: #4c72b0; stroke: #4c72b0"/>
     <use xlink:href="#m034127a82a" x="410.996779" y="282.480783" style="fill: #4c72b0; stroke: #4c72b0"/>
     <use xlink:href="#m034127a82a" x="411.966338" y="282.473796" style="fill: #4c72b0; stroke: #4c72b0"/>
     <use xlink:href="#m034127a82a" x="412.935896" y="282.50031" style="fill: #4c72b0; stroke: #4c72b0"/>
     <use xlink:href="#m034127a82a" x="413.905455" y="282.426837" style="fill: #4c72b0; stroke: #4c72b0"/>
     <use xlink:href="#m034127a82a" x="414.875013" y="282.409159" style="fill: #4c72b0; stroke: #4c72b0"/>
     <use xlink:href="#m034127a82a" x="415.844571" y="282.349261" style="fill: #4c72b0; stroke: #4c72b0"/>
     <use xlink:href="#m034127a82a" x="416.81413" y="282.274894" style="fill: #4c72b0; stroke: #4c72b0"/>
     <use xlink:href="#m034127a82a" x="417.783688" y="282.314344" style="fill: #4c72b0; stroke: #4c72b0"/>
     <use xlink:href="#m034127a82a" x="418.753247" y="282.158511" style="fill: #4c72b0; stroke: #4c72b0"/>
     <use xlink:href="#m034127a82a" x="419.722805" y="282.122357" style="fill: #4c72b0; stroke: #4c72b0"/>
     <use xlink:href="#m034127a82a" x="420.692364" y="282.045402" style="fill: #4c72b0; stroke: #4c72b0"/>
     <use xlink:href="#m034127a82a" x="421.661922" y="281.942141" style="fill: #4c72b0; stroke: #4c72b0"/>
     <use xlink:href="#m034127a82a" x="422.631481" y="281.885343" style="fill: #4c72b0; stroke: #4c72b0"/>
     <use xlink:href="#m034127a82a" x="423.601039" y="281.813682" style="fill: #4c72b0; stroke: #4c72b0"/>
     <use xlink:href="#m034127a82a" x="424.570597" y="281.706921" style="fill: #4c72b0; stroke: #4c72b0"/>
     <use xlink:href="#m034127a82a" x="425.540156" y="279.571802" style="fill: #4c72b0; stroke: #4c72b0"/>
     <use xlink:href="#m034127a82a" x="426.509714" y="279.522119" style="fill: #4c72b0; stroke: #4c72b0"/>
     <use xlink:href="#m034127a82a" x="427.479273" y="279.478409" style="fill: #4c72b0; stroke: #4c72b0"/>
     <use xlink:href="#m034127a82a" x="428.448831" y="275.476501" style="fill: #4c72b0; stroke: #4c72b0"/>
     <use xlink:href="#m034127a82a" x="429.41839" y="275.353453" style="fill: #4c72b0; stroke: #4c72b0"/>
     <use xlink:href="#m034127a82a" x="430.387948" y="275.213654" style="fill: #4c72b0; stroke: #4c72b0"/>
     <use xlink:href="#m034127a82a" x="433.296623" y="279.055304" style="fill: #4c72b0; stroke: #4c72b0"/>
     <use xlink:href="#m034127a82a" x="434.266182" y="278.985637" style="fill: #4c72b0; stroke: #4c72b0"/>
     <use xlink:href="#m034127a82a" x="435.23574" y="279.005509" style="fill: #4c72b0; stroke: #4c72b0"/>
     <use xlink:href="#m034127a82a" x="436.205299" y="278.963524" style="fill: #4c72b0; stroke: #4c72b0"/>
     <use xlink:href="#m034127a82a" x="437.174857" y="278.873652" style="fill: #4c72b0; stroke: #4c72b0"/>
     <use xlink:href="#m034127a82a" x="438.144416" y="282.474392" style="fill: #4c72b0; stroke: #4c72b0"/>
     <use xlink:href="#m034127a82a" x="439.113974" y="282.494439" style="fill: #4c72b0; stroke: #4c72b0"/>
     <use xlink:href="#m034127a82a" x="440.083532" y="282.461342" style="fill: #4c72b0; stroke: #4c72b0"/>
     <use xlink:href="#m034127a82a" x="441.053091" y="282.362305" style="fill: #4c72b0; stroke: #4c72b0"/>
     <use xlink:href="#m034127a82a" x="442.022649" y="283.894786" style="fill: #4c72b0; stroke: #4c72b0"/>
     <use xlink:href="#m034127a82a" x="442.992208" y="283.842528" style="fill: #4c72b0; stroke: #4c72b0"/>
     <use xlink:href="#m034127a82a" x="443.961766" y="285.154228" style="fill: #4c72b0; stroke: #4c72b0"/>
     <use xlink:href="#m034127a82a" x="444.931325" y="284.981503" style="fill: #4c72b0; stroke: #4c72b0"/>
     <use xlink:href="#m034127a82a" x="445.900883" y="284.895142" style="fill: #4c72b0; stroke: #4c72b0"/>
     <use xlink:href="#m034127a82a" x="446.870442" y="284.679417" style="fill: #4c72b0; stroke: #4c72b0"/>
     <use xlink:href="#m034127a82a" x="447.84" y="284.452115" style="fill: #4c72b0; stroke: #4c72b0"/>
    </g>
   </g>
   <g id="patch_18">
    <path d="M 74.56 311.94 
L 74.56 255.337232 
" style="fill: none; stroke: #262626; stroke-width: 1.25; stroke-linejoin: miter; stroke-linecap: square"/>
   </g>
   <g id="patch_19">
    <path d="M 447.84 311.94 
L 447.84 255.337232 
" style="fill: none; stroke: #262626; stroke-width: 1.25; stroke-linejoin: miter; stroke-linecap: square"/>
   </g>
   <g id="patch_20">
    <path d="M 74.56 311.94 
L 447.84 311.94 
" style="fill: none; stroke: #262626; stroke-width: 1.25; stroke-linejoin: miter; stroke-linecap: square"/>
   </g>
   <g id="patch_21">
    <path d="M 74.56 255.337232 
L 447.84 255.337232 
" style="fill: none; stroke: #262626; stroke-width: 1.25; stroke-linejoin: miter; stroke-linecap: square"/>
   </g>
  </g>
 </g>
 <defs>
  <clipPath id="pa5bb956761">
   <rect x="74.56" y="27.76" width="373.28" height="56.602768"/>
  </clipPath>
  <clipPath id="pfeaa55b614">
   <rect x="74.56" y="103.619077" width="373.28" height="56.602768"/>
  </clipPath>
  <clipPath id="p262f6c8d37">
   <rect x="74.56" y="179.478154" width="373.28" height="56.602768"/>
  </clipPath>
  <clipPath id="pfd96437038">
   <rect x="74.56" y="255.337232" width="373.28" height="56.602768"/>
  </clipPath>
 </defs>
</svg>
