<?xml version="1.0" encoding="utf-8" standalone="no"?>
<!DOCTYPE svg PUBLIC "-//W3C//DTD SVG 1.1//EN"
  "http://www.w3.org/Graphics/SVG/1.1/DTD/svg11.dtd">
<svg xmlns:xlink="http://www.w3.org/1999/xlink" width="460.8pt" height="345.6pt" viewBox="0 0 460.8 345.6" xmlns="http://www.w3.org/2000/svg" version="1.1">
 <metadata>
  <rdf:RDF xmlns:dc="http://purl.org/dc/elements/1.1/" xmlns:cc="http://creativecommons.org/ns#" xmlns:rdf="http://www.w3.org/1999/02/22-rdf-syntax-ns#">
   <cc:Work>
    <dc:type rdf:resource="http://purl.org/dc/dcmitype/StillImage"/>
    <dc:date>2023-07-11T02:12:55.677132</dc:date>
    <dc:format>image/svg+xml</dc:format>
    <dc:creator>
     <cc:Agent>
      <dc:title>Matplotlib v3.7.1, https://matplotlib.org/</dc:title>
     </cc:Agent>
    </dc:creator>
   </cc:Work>
  </rdf:RDF>
 </metadata>
 <defs>
  <style type="text/css">*{stroke-linejoin: round; stroke-linecap: butt}</style>
 </defs>
 <g id="figure_1">
  <g id="patch_1">
   <path d="M 0 345.6 
L 460.8 345.6 
L 460.8 0 
L 0 0 
z
" style="fill: #ffffff"/>
  </g>
  <g id="axes_1">
   <g id="patch_2">
    <path d="M 74.56 84.585 
L 447.84 84.585 
L 447.84 27.76 
L 74.56 27.76 
z
" style="fill: #ffffff"/>
   </g>
   <g id="matplotlib.axis_1">
    <g id="xtick_1">
     <g id="line2d_1">
      <defs>
       <path id="m05f9f0e30e" d="M 0 0 
L 0 6 
" style="stroke: #262626; stroke-width: 1.25"/>
      </defs>
      <g>
       <use xlink:href="#m05f9f0e30e" x="120.267755" y="84.585" style="fill: #262626; stroke: #262626; stroke-width: 1.25"/>
      </g>
     </g>
    </g>
    <g id="xtick_2">
     <g id="line2d_2">
      <g>
       <use xlink:href="#m05f9f0e30e" x="170.823302" y="84.585" style="fill: #262626; stroke: #262626; stroke-width: 1.25"/>
      </g>
     </g>
    </g>
    <g id="xtick_3">
     <g id="line2d_3">
      <g>
       <use xlink:href="#m05f9f0e30e" x="221.37885" y="84.585" style="fill: #262626; stroke: #262626; stroke-width: 1.25"/>
      </g>
     </g>
    </g>
    <g id="xtick_4">
     <g id="line2d_4">
      <g>
       <use xlink:href="#m05f9f0e30e" x="271.934397" y="84.585" style="fill: #262626; stroke: #262626; stroke-width: 1.25"/>
      </g>
     </g>
    </g>
    <g id="xtick_5">
     <g id="line2d_5">
      <g>
       <use xlink:href="#m05f9f0e30e" x="322.628453" y="84.585" style="fill: #262626; stroke: #262626; stroke-width: 1.25"/>
      </g>
     </g>
    </g>
    <g id="xtick_6">
     <g id="line2d_6">
      <g>
       <use xlink:href="#m05f9f0e30e" x="373.184" y="84.585" style="fill: #262626; stroke: #262626; stroke-width: 1.25"/>
      </g>
     </g>
    </g>
    <g id="xtick_7">
     <g id="line2d_7">
      <g>
       <use xlink:href="#m05f9f0e30e" x="423.739547" y="84.585" style="fill: #262626; stroke: #262626; stroke-width: 1.25"/>
      </g>
     </g>
    </g>
   </g>
   <g id="matplotlib.axis_2">
    <g id="ytick_1">
     <g id="line2d_8">
      <defs>
       <path id="me0fa5081e5" d="M 0 0 
L -6 0 
" style="stroke: #262626; stroke-width: 1.25"/>
      </defs>
      <g>
       <use xlink:href="#me0fa5081e5" x="74.56" y="82.002794" style="fill: #262626; stroke: #262626; stroke-width: 1.25"/>
      </g>
     </g>
     <g id="text_1">
      <!-- 0 -->
      <g style="fill: #262626" transform="translate(58.942969 85.939591) scale(0.11 -0.11)">
       <defs>
        <path id="ArialMT-30" d="M 266 2259 
Q 266 3072 433 3567 
Q 600 4063 929 4331 
Q 1259 4600 1759 4600 
Q 2128 4600 2406 4451 
Q 2684 4303 2865 4023 
Q 3047 3744 3150 3342 
Q 3253 2941 3253 2259 
Q 3253 1453 3087 958 
Q 2922 463 2592 192 
Q 2263 -78 1759 -78 
Q 1097 -78 719 397 
Q 266 969 266 2259 
z
M 844 2259 
Q 844 1131 1108 757 
Q 1372 384 1759 384 
Q 2147 384 2411 759 
Q 2675 1134 2675 2259 
Q 2675 3391 2411 3762 
Q 2147 4134 1753 4134 
Q 1366 4134 1134 3806 
Q 844 3388 844 2259 
z
" transform="scale(0.015625)"/>
       </defs>
       <use xlink:href="#ArialMT-30"/>
      </g>
     </g>
    </g>
    <g id="ytick_2">
     <g id="line2d_9">
      <g>
       <use xlink:href="#me0fa5081e5" x="74.56" y="44.58792" style="fill: #262626; stroke: #262626; stroke-width: 1.25"/>
      </g>
     </g>
     <g id="text_2">
      <!-- 100000 -->
      <g style="fill: #262626" transform="translate(28.357812 48.524716) scale(0.11 -0.11)">
       <defs>
        <path id="ArialMT-31" d="M 2384 0 
L 1822 0 
L 1822 3584 
Q 1619 3391 1289 3197 
Q 959 3003 697 2906 
L 697 3450 
Q 1169 3672 1522 3987 
Q 1875 4303 2022 4600 
L 2384 4600 
L 2384 0 
z
" transform="scale(0.015625)"/>
       </defs>
       <use xlink:href="#ArialMT-31"/>
       <use xlink:href="#ArialMT-30" x="55.615234"/>
       <use xlink:href="#ArialMT-30" x="111.230469"/>
       <use xlink:href="#ArialMT-30" x="166.845703"/>
       <use xlink:href="#ArialMT-30" x="222.460938"/>
       <use xlink:href="#ArialMT-30" x="278.076172"/>
      </g>
     </g>
    </g>
   </g>
   <g id="line2d_10">
    <path d="M 74.56 81.999052 
L 119.159688 81.958644 
L 123.037922 81.45504 
L 124.007481 80.906912 
L 124.977039 80.495348 
L 129.824831 79.542017 
L 130.79439 78.858448 
L 132.733506 77.947021 
L 133.703065 77.826171 
L 134.672623 76.778181 
L 135.642182 76.570902 
L 136.61174 76.536481 
L 138.550857 76.292536 
L 139.520416 75.647503 
L 140.489974 74.214139 
L 141.459532 74.10414 
L 142.429091 73.502883 
L 143.398649 73.385774 
L 144.368208 71.706595 
L 145.337766 71.350031 
L 146.307325 71.193262 
L 147.276883 70.418026 
L 148.246442 70.27136 
L 150.185558 68.61201 
L 151.155117 63.212296 
L 152.124675 62.01689 
L 153.094234 60.406554 
L 154.063792 60.208255 
L 156.002909 58.163907 
L 156.972468 56.299898 
L 157.942026 56.133776 
L 158.911584 54.325141 
L 159.881143 54.200923 
L 160.850701 52.864838 
L 161.82026 46.652472 
L 162.789818 46.188902 
L 163.759377 46.013426 
L 164.728935 41.71109 
L 165.698494 40.828473 
L 166.668052 40.125073 
L 167.63761 39.584054 
L 168.607169 39.446368 
L 169.576727 35.750152 
L 170.546286 35.067331 
L 171.515844 34.611992 
L 173.454961 81.155347 
L 175.394078 79.325011 
L 176.363636 78.726747 
L 177.333195 78.581578 
L 178.302753 77.556036 
L 179.272312 74.670975 
L 180.24187 74.109378 
L 181.211429 73.935399 
L 190.907013 64.587292 
L 191.876571 64.228484 
L 192.84613 63.381037 
L 193.815688 62.891276 
L 194.785247 61.937197 
L 195.754805 61.473626 
L 196.724364 60.240058 
L 199.633039 58.096186 
L 200.602597 57.302616 
L 201.572156 55.896565 
L 202.541714 55.896565 
L 203.511273 54.135447 
L 204.480831 52.81545 
L 205.45039 52.172289 
L 206.419948 51.101849 
L 207.389506 50.494606 
L 208.359065 48.261686 
L 212.237299 43.964588 
L 213.206857 42.435442 
L 215.145974 40.435991 
L 217.085091 38.130486 
L 218.054649 37.415114 
L 219.024208 36.233926 
L 219.993766 35.437738 
L 222.902442 31.928223 
L 225.811117 81.944801 
L 226.780675 81.58674 
L 227.750234 80.751266 
L 228.719792 79.668854 
L 229.689351 79.595895 
L 231.628468 77.864335 
L 232.598026 75.250531 
L 233.567584 76.334066 
L 234.537143 72.815197 
L 236.47626 70.712855 
L 237.445818 69.824626 
L 238.415377 68.143202 
L 241.324052 66.142629 
L 242.29361 64.498993 
L 243.263169 63.96658 
L 247.141403 61.109954 
L 248.110961 60.552098 
L 249.080519 59.473053 
L 250.050078 58.963088 
L 251.019636 57.934553 
L 251.989195 57.150338 
L 252.958753 56.526632 
L 253.928312 55.6066 
L 255.867429 53.054157 
L 256.836987 53.054157 
L 257.806545 51.103346 
L 258.776104 50.208008 
L 259.745662 48.939644 
L 260.715221 47.970224 
L 263.623896 44.520573 
L 266.532571 40.082795 
L 267.50213 38.890008 
L 268.471688 37.432325 
L 269.441247 36.455797 
L 270.410805 34.720495 
L 272.349922 32.763697 
L 275.258597 30.342955 
L 277.197714 81.992318 
L 278.167273 81.65708 
L 281.075948 79.595895 
L 284.954182 76.334066 
L 285.92374 75.340701 
L 301.436675 69.206907 
L 304.345351 68.324664 
L 306.284468 67.713679 
L 308.223584 67.293136 
L 309.193143 66.8913 
L 311.13226 66.36188 
L 314.040935 65.215862 
L 316.94961 64.081443 
L 319.858286 63.0675 
L 320.827844 62.857603 
L 321.797403 62.482706 
L 322.766961 61.818592 
L 325.675636 61.001077 
L 327.614753 60.757132 
L 329.55387 81.937692 
L 331.492987 81.374224 
L 333.432104 80.74977 
L 335.371221 79.514705 
L 337.310338 78.656407 
L 339.249455 77.933926 
L 341.188571 77.129881 
L 342.15813 76.678657 
L 343.127688 76.0007 
L 344.097247 75.573796 
L 347.005922 73.788358 
L 347.975481 72.561899 
L 348.945039 71.953533 
L 349.914597 71.510166 
L 351.853714 70.292686 
L 352.823273 69.389117 
L 355.731948 67.413612 
L 356.701506 66.465519 
L 357.671065 65.801779 
L 358.640623 64.797564 
L 359.610182 64.191443 
L 362.518857 61.840292 
L 363.488416 60.793798 
L 365.427532 59.434516 
L 366.397091 58.48343 
L 370.275325 56.035 
L 372.214442 55.173336 
L 376.092675 53.599292 
L 377.062234 53.305959 
L 379.001351 52.368717 
L 380.940468 81.964631 
L 381.910026 81.703849 
L 382.879584 81.109701 
L 383.849143 79.830112 
L 388.696935 77.224914 
L 395.483844 73.597168 
L 397.422961 72.412239 
L 398.392519 71.6052 
L 401.301195 70.167347 
L 402.270753 69.338233 
L 404.20987 67.965107 
L 406.148987 67.965107 
L 407.118545 65.842935 
L 409.057662 64.350082 
L 412.935896 60.644139 
L 413.905455 59.462951 
L 415.844571 57.836901 
L 417.783688 56.580509 
L 420.692364 55.133676 
L 425.540156 53.06613 
L 426.509714 52.61341 
L 427.479273 53.325789 
L 428.448831 51.863616 
L 430.387948 51.276951 
L 433.296623 81.675039 
L 434.266182 80.80215 
L 436.205299 77.873314 
L 437.174857 77.799607 
L 438.144416 75.234817 
L 439.113974 73.357713 
L 441.053091 70.794794 
L 442.022649 69.011227 
L 443.961766 66.046472 
L 444.931325 64.970795 
L 446.870442 63.959097 
L 447.84 62.119781 
L 447.84 62.119781 
" clip-path="url(#pad0ce07c9c)" style="fill: none; stroke: #4c72b0; stroke-width: 1.5; stroke-linecap: round"/>
   </g>
   <g id="patch_3">
    <path d="M 74.56 84.585 
L 74.56 27.76 
" style="fill: none; stroke: #262626; stroke-width: 1.25; stroke-linejoin: miter; stroke-linecap: square"/>
   </g>
   <g id="patch_4">
    <path d="M 447.84 84.585 
L 447.84 27.76 
" style="fill: none; stroke: #262626; stroke-width: 1.25; stroke-linejoin: miter; stroke-linecap: square"/>
   </g>
   <g id="patch_5">
    <path d="M 74.56 84.585 
L 447.84 84.585 
" style="fill: none; stroke: #262626; stroke-width: 1.25; stroke-linejoin: miter; stroke-linecap: square"/>
   </g>
   <g id="patch_6">
    <path d="M 74.56 27.76 
L 447.84 27.76 
" style="fill: none; stroke: #262626; stroke-width: 1.25; stroke-linejoin: miter; stroke-linecap: square"/>
   </g>
   <g id="text_3">
    <!-- Influenza-like illness -->
    <g style="fill: #262626" transform="translate(207.510312 21.76) scale(0.12 -0.12)">
     <defs>
      <path id="ArialMT-49" d="M 597 0 
L 597 4581 
L 1203 4581 
L 1203 0 
L 597 0 
z
" transform="scale(0.015625)"/>
      <path id="ArialMT-6e" d="M 422 0 
L 422 3319 
L 928 3319 
L 928 2847 
Q 1294 3394 1984 3394 
Q 2284 3394 2536 3286 
Q 2788 3178 2913 3003 
Q 3038 2828 3088 2588 
Q 3119 2431 3119 2041 
L 3119 0 
L 2556 0 
L 2556 2019 
Q 2556 2363 2490 2533 
Q 2425 2703 2258 2804 
Q 2091 2906 1866 2906 
Q 1506 2906 1245 2678 
Q 984 2450 984 1813 
L 984 0 
L 422 0 
z
" transform="scale(0.015625)"/>
      <path id="ArialMT-66" d="M 556 0 
L 556 2881 
L 59 2881 
L 59 3319 
L 556 3319 
L 556 3672 
Q 556 4006 616 4169 
Q 697 4388 901 4523 
Q 1106 4659 1475 4659 
Q 1713 4659 2000 4603 
L 1916 4113 
Q 1741 4144 1584 4144 
Q 1328 4144 1222 4034 
Q 1116 3925 1116 3625 
L 1116 3319 
L 1763 3319 
L 1763 2881 
L 1116 2881 
L 1116 0 
L 556 0 
z
" transform="scale(0.015625)"/>
      <path id="ArialMT-6c" d="M 409 0 
L 409 4581 
L 972 4581 
L 972 0 
L 409 0 
z
" transform="scale(0.015625)"/>
      <path id="ArialMT-75" d="M 2597 0 
L 2597 488 
Q 2209 -75 1544 -75 
Q 1250 -75 995 37 
Q 741 150 617 320 
Q 494 491 444 738 
Q 409 903 409 1263 
L 409 3319 
L 972 3319 
L 972 1478 
Q 972 1038 1006 884 
Q 1059 663 1231 536 
Q 1403 409 1656 409 
Q 1909 409 2131 539 
Q 2353 669 2445 892 
Q 2538 1116 2538 1541 
L 2538 3319 
L 3100 3319 
L 3100 0 
L 2597 0 
z
" transform="scale(0.015625)"/>
      <path id="ArialMT-65" d="M 2694 1069 
L 3275 997 
Q 3138 488 2766 206 
Q 2394 -75 1816 -75 
Q 1088 -75 661 373 
Q 234 822 234 1631 
Q 234 2469 665 2931 
Q 1097 3394 1784 3394 
Q 2450 3394 2872 2941 
Q 3294 2488 3294 1666 
Q 3294 1616 3291 1516 
L 816 1516 
Q 847 969 1125 678 
Q 1403 388 1819 388 
Q 2128 388 2347 550 
Q 2566 713 2694 1069 
z
M 847 1978 
L 2700 1978 
Q 2663 2397 2488 2606 
Q 2219 2931 1791 2931 
Q 1403 2931 1139 2672 
Q 875 2413 847 1978 
z
" transform="scale(0.015625)"/>
      <path id="ArialMT-7a" d="M 125 0 
L 125 456 
L 2238 2881 
Q 1878 2863 1603 2863 
L 250 2863 
L 250 3319 
L 2963 3319 
L 2963 2947 
L 1166 841 
L 819 456 
Q 1197 484 1528 484 
L 3063 484 
L 3063 0 
L 125 0 
z
" transform="scale(0.015625)"/>
      <path id="ArialMT-61" d="M 2588 409 
Q 2275 144 1986 34 
Q 1697 -75 1366 -75 
Q 819 -75 525 192 
Q 231 459 231 875 
Q 231 1119 342 1320 
Q 453 1522 633 1644 
Q 813 1766 1038 1828 
Q 1203 1872 1538 1913 
Q 2219 1994 2541 2106 
Q 2544 2222 2544 2253 
Q 2544 2597 2384 2738 
Q 2169 2928 1744 2928 
Q 1347 2928 1158 2789 
Q 969 2650 878 2297 
L 328 2372 
Q 403 2725 575 2942 
Q 747 3159 1072 3276 
Q 1397 3394 1825 3394 
Q 2250 3394 2515 3294 
Q 2781 3194 2906 3042 
Q 3031 2891 3081 2659 
Q 3109 2516 3109 2141 
L 3109 1391 
Q 3109 606 3145 398 
Q 3181 191 3288 0 
L 2700 0 
Q 2613 175 2588 409 
z
M 2541 1666 
Q 2234 1541 1622 1453 
Q 1275 1403 1131 1340 
Q 988 1278 909 1158 
Q 831 1038 831 891 
Q 831 666 1001 516 
Q 1172 366 1500 366 
Q 1825 366 2078 508 
Q 2331 650 2450 897 
Q 2541 1088 2541 1459 
L 2541 1666 
z
" transform="scale(0.015625)"/>
      <path id="ArialMT-2d" d="M 203 1375 
L 203 1941 
L 1931 1941 
L 1931 1375 
L 203 1375 
z
" transform="scale(0.015625)"/>
      <path id="ArialMT-69" d="M 425 3934 
L 425 4581 
L 988 4581 
L 988 3934 
L 425 3934 
z
M 425 0 
L 425 3319 
L 988 3319 
L 988 0 
L 425 0 
z
" transform="scale(0.015625)"/>
      <path id="ArialMT-6b" d="M 425 0 
L 425 4581 
L 988 4581 
L 988 1969 
L 2319 3319 
L 3047 3319 
L 1778 2088 
L 3175 0 
L 2481 0 
L 1384 1697 
L 988 1316 
L 988 0 
L 425 0 
z
" transform="scale(0.015625)"/>
      <path id="ArialMT-20" transform="scale(0.015625)"/>
      <path id="ArialMT-73" d="M 197 991 
L 753 1078 
Q 800 744 1014 566 
Q 1228 388 1613 388 
Q 2000 388 2187 545 
Q 2375 703 2375 916 
Q 2375 1106 2209 1216 
Q 2094 1291 1634 1406 
Q 1016 1563 777 1677 
Q 538 1791 414 1992 
Q 291 2194 291 2438 
Q 291 2659 392 2848 
Q 494 3038 669 3163 
Q 800 3259 1026 3326 
Q 1253 3394 1513 3394 
Q 1903 3394 2198 3281 
Q 2494 3169 2634 2976 
Q 2775 2784 2828 2463 
L 2278 2388 
Q 2241 2644 2061 2787 
Q 1881 2931 1553 2931 
Q 1166 2931 1000 2803 
Q 834 2675 834 2503 
Q 834 2394 903 2306 
Q 972 2216 1119 2156 
Q 1203 2125 1616 2013 
Q 2213 1853 2448 1751 
Q 2684 1650 2818 1456 
Q 2953 1263 2953 975 
Q 2953 694 2789 445 
Q 2625 197 2315 61 
Q 2006 -75 1616 -75 
Q 969 -75 630 194 
Q 291 463 197 991 
z
" transform="scale(0.015625)"/>
     </defs>
     <use xlink:href="#ArialMT-49"/>
     <use xlink:href="#ArialMT-6e" x="27.783203"/>
     <use xlink:href="#ArialMT-66" x="83.398438"/>
     <use xlink:href="#ArialMT-6c" x="111.181641"/>
     <use xlink:href="#ArialMT-75" x="133.398438"/>
     <use xlink:href="#ArialMT-65" x="189.013672"/>
     <use xlink:href="#ArialMT-6e" x="244.628906"/>
     <use xlink:href="#ArialMT-7a" x="300.244141"/>
     <use xlink:href="#ArialMT-61" x="350.244141"/>
     <use xlink:href="#ArialMT-2d" x="405.859375"/>
     <use xlink:href="#ArialMT-6c" x="439.160156"/>
     <use xlink:href="#ArialMT-69" x="461.376953"/>
     <use xlink:href="#ArialMT-6b" x="483.59375"/>
     <use xlink:href="#ArialMT-65" x="533.59375"/>
     <use xlink:href="#ArialMT-20" x="589.208984"/>
     <use xlink:href="#ArialMT-69" x="616.992188"/>
     <use xlink:href="#ArialMT-6c" x="639.208984"/>
     <use xlink:href="#ArialMT-6c" x="661.425781"/>
     <use xlink:href="#ArialMT-6e" x="683.642578"/>
     <use xlink:href="#ArialMT-65" x="739.257812"/>
     <use xlink:href="#ArialMT-73" x="794.873047"/>
     <use xlink:href="#ArialMT-73" x="844.873047"/>
    </g>
   </g>
  </g>
  <g id="axes_2">
   <g id="patch_7">
    <path d="M 74.56 160.37 
L 447.84 160.37 
L 447.84 103.545 
L 74.56 103.545 
z
" style="fill: #ffffff"/>
   </g>
   <g id="matplotlib.axis_3">
    <g id="xtick_8">
     <g id="line2d_11">
      <g>
       <use xlink:href="#m05f9f0e30e" x="120.267755" y="160.37" style="fill: #262626; stroke: #262626; stroke-width: 1.25"/>
      </g>
     </g>
    </g>
    <g id="xtick_9">
     <g id="line2d_12">
      <g>
       <use xlink:href="#m05f9f0e30e" x="170.823302" y="160.37" style="fill: #262626; stroke: #262626; stroke-width: 1.25"/>
      </g>
     </g>
    </g>
    <g id="xtick_10">
     <g id="line2d_13">
      <g>
       <use xlink:href="#m05f9f0e30e" x="221.37885" y="160.37" style="fill: #262626; stroke: #262626; stroke-width: 1.25"/>
      </g>
     </g>
    </g>
    <g id="xtick_11">
     <g id="line2d_14">
      <g>
       <use xlink:href="#m05f9f0e30e" x="271.934397" y="160.37" style="fill: #262626; stroke: #262626; stroke-width: 1.25"/>
      </g>
     </g>
    </g>
    <g id="xtick_12">
     <g id="line2d_15">
      <g>
       <use xlink:href="#m05f9f0e30e" x="322.628453" y="160.37" style="fill: #262626; stroke: #262626; stroke-width: 1.25"/>
      </g>
     </g>
    </g>
    <g id="xtick_13">
     <g id="line2d_16">
      <g>
       <use xlink:href="#m05f9f0e30e" x="373.184" y="160.37" style="fill: #262626; stroke: #262626; stroke-width: 1.25"/>
      </g>
     </g>
    </g>
    <g id="xtick_14">
     <g id="line2d_17">
      <g>
       <use xlink:href="#m05f9f0e30e" x="423.739547" y="160.37" style="fill: #262626; stroke: #262626; stroke-width: 1.25"/>
      </g>
     </g>
    </g>
   </g>
   <g id="matplotlib.axis_4">
    <g id="ytick_3">
     <g id="line2d_18">
      <g>
       <use xlink:href="#me0fa5081e5" x="74.56" y="155.79617" style="fill: #262626; stroke: #262626; stroke-width: 1.25"/>
      </g>
     </g>
     <g id="text_4">
      <!-- 0 -->
      <g style="fill: #262626" transform="translate(58.942969 159.732967) scale(0.11 -0.11)">
       <use xlink:href="#ArialMT-30"/>
      </g>
     </g>
    </g>
    <g id="ytick_4">
     <g id="line2d_19">
      <g>
       <use xlink:href="#me0fa5081e5" x="74.56" y="119.850851" style="fill: #262626; stroke: #262626; stroke-width: 1.25"/>
      </g>
     </g>
     <g id="text_5">
      <!-- 50000 -->
      <g style="fill: #262626" transform="translate(34.474844 123.787648) scale(0.11 -0.11)">
       <defs>
        <path id="ArialMT-35" d="M 266 1200 
L 856 1250 
Q 922 819 1161 601 
Q 1400 384 1738 384 
Q 2144 384 2425 690 
Q 2706 997 2706 1503 
Q 2706 1984 2436 2262 
Q 2166 2541 1728 2541 
Q 1456 2541 1237 2417 
Q 1019 2294 894 2097 
L 366 2166 
L 809 4519 
L 3088 4519 
L 3088 3981 
L 1259 3981 
L 1013 2750 
Q 1425 3038 1878 3038 
Q 2478 3038 2890 2622 
Q 3303 2206 3303 1553 
Q 3303 931 2941 478 
Q 2500 -78 1738 -78 
Q 1113 -78 717 272 
Q 322 622 266 1200 
z
" transform="scale(0.015625)"/>
       </defs>
       <use xlink:href="#ArialMT-35"/>
       <use xlink:href="#ArialMT-30" x="55.615234"/>
       <use xlink:href="#ArialMT-30" x="111.230469"/>
       <use xlink:href="#ArialMT-30" x="166.845703"/>
       <use xlink:href="#ArialMT-30" x="222.460938"/>
      </g>
     </g>
    </g>
    <g id="text_6">
     <!-- Trend -->
     <g style="fill: #262626" transform="translate(28.089844 147.404687) rotate(-90) scale(0.12 -0.12)">
      <defs>
       <path id="ArialMT-54" d="M 1659 0 
L 1659 4041 
L 150 4041 
L 150 4581 
L 3781 4581 
L 3781 4041 
L 2266 4041 
L 2266 0 
L 1659 0 
z
" transform="scale(0.015625)"/>
       <path id="ArialMT-72" d="M 416 0 
L 416 3319 
L 922 3319 
L 922 2816 
Q 1116 3169 1280 3281 
Q 1444 3394 1641 3394 
Q 1925 3394 2219 3213 
L 2025 2691 
Q 1819 2813 1613 2813 
Q 1428 2813 1281 2702 
Q 1134 2591 1072 2394 
Q 978 2094 978 1738 
L 978 0 
L 416 0 
z
" transform="scale(0.015625)"/>
       <path id="ArialMT-64" d="M 2575 0 
L 2575 419 
Q 2259 -75 1647 -75 
Q 1250 -75 917 144 
Q 584 363 401 755 
Q 219 1147 219 1656 
Q 219 2153 384 2558 
Q 550 2963 881 3178 
Q 1213 3394 1622 3394 
Q 1922 3394 2156 3267 
Q 2391 3141 2538 2938 
L 2538 4581 
L 3097 4581 
L 3097 0 
L 2575 0 
z
M 797 1656 
Q 797 1019 1065 703 
Q 1334 388 1700 388 
Q 2069 388 2326 689 
Q 2584 991 2584 1609 
Q 2584 2291 2321 2609 
Q 2059 2928 1675 2928 
Q 1300 2928 1048 2622 
Q 797 2316 797 1656 
z
" transform="scale(0.015625)"/>
      </defs>
      <use xlink:href="#ArialMT-54"/>
      <use xlink:href="#ArialMT-72" x="57.333984"/>
      <use xlink:href="#ArialMT-65" x="90.634766"/>
      <use xlink:href="#ArialMT-6e" x="146.25"/>
      <use xlink:href="#ArialMT-64" x="201.865234"/>
     </g>
    </g>
   </g>
   <g id="line2d_20">
    <path d="M 74.56 157.787045 
L 85.225143 156.496823 
L 92.012052 155.298967 
L 98.798961 153.836078 
L 106.555429 151.888387 
L 118.19013 148.913836 
L 119.159688 148.674112 
L 123.037922 148.418832 
L 125.946597 146.817342 
L 128.855273 144.893737 
L 131.763948 142.591069 
L 134.672623 139.947063 
L 138.550857 136.082321 
L 146.307325 128.282182 
L 150.185558 124.785915 
L 153.094234 122.437789 
L 156.002909 120.326469 
L 159.881143 117.821349 
L 166.668052 113.8415 
L 171.515844 110.957514 
L 173.454961 110.386267 
L 176.363636 108.79759 
L 178.302753 107.906368 
L 180.24187 107.188807 
L 181.211429 106.900155 
L 190.907013 106.658966 
L 192.84613 106.316357 
L 194.785247 106.150116 
L 196.724364 106.142999 
L 199.633039 106.272565 
L 202.541714 106.664146 
L 207.389506 107.593811 
L 212.237299 108.496213 
L 216.115532 108.985388 
L 219.993766 109.212071 
L 226.780675 109.272387 
L 236.47626 109.280477 
L 242.29361 108.857808 
L 251.019636 108.225313 
L 256.836987 108.008016 
L 260.715221 108.028316 
L 263.623896 108.210552 
L 266.532571 108.615193 
L 268.471688 109.051175 
L 271.380364 109.992574 
L 274.289039 111.251494 
L 275.258597 111.735482 
L 277.197714 112.251266 
L 280.10639 113.991322 
L 283.015065 116.002938 
L 285.92374 118.222021 
L 301.436675 118.991533 
L 309.193143 125.148625 
L 313.071377 126.566219 
L 315.980052 128.50337 
L 316.94961 129.087561 
L 319.858286 129.636686 
L 322.766961 131.051242 
L 324.706078 131.783202 
L 325.675636 132.083109 
L 333.432104 133.00233 
L 336.340779 132.974639 
L 340.219013 132.608626 
L 346.036364 131.803943 
L 350.884156 130.923141 
L 355.731948 129.790885 
L 367.366649 126.847265 
L 370.275325 126.412372 
L 373.184 126.212968 
L 376.092675 126.238001 
L 381.910026 126.602721 
L 388.696935 127.179859 
L 391.60561 127.206095 
L 394.514286 127.041391 
L 398.392519 126.54728 
L 401.301195 126.006208 
L 405.179429 124.691211 
L 410.996779 123.007602 
L 425.540156 118.866306 
L 430.387948 117.372315 
L 433.296623 117.066021 
L 447.84 112.348839 
L 447.84 112.348839 
" clip-path="url(#p06fb2e72f8)" style="fill: none; stroke: #4c72b0; stroke-width: 1.5; stroke-linecap: round"/>
   </g>
   <g id="patch_8">
    <path d="M 74.56 160.37 
L 74.56 103.545 
" style="fill: none; stroke: #262626; stroke-width: 1.25; stroke-linejoin: miter; stroke-linecap: square"/>
   </g>
   <g id="patch_9">
    <path d="M 447.84 160.37 
L 447.84 103.545 
" style="fill: none; stroke: #262626; stroke-width: 1.25; stroke-linejoin: miter; stroke-linecap: square"/>
   </g>
   <g id="patch_10">
    <path d="M 74.56 160.37 
L 447.84 160.37 
" style="fill: none; stroke: #262626; stroke-width: 1.25; stroke-linejoin: miter; stroke-linecap: square"/>
   </g>
   <g id="patch_11">
    <path d="M 74.56 103.545 
L 447.84 103.545 
" style="fill: none; stroke: #262626; stroke-width: 1.25; stroke-linejoin: miter; stroke-linecap: square"/>
   </g>
  </g>
  <g id="axes_3">
   <g id="patch_12">
    <path d="M 74.56 236.155 
L 447.84 236.155 
L 447.84 179.33 
L 74.56 179.33 
z
" style="fill: #ffffff"/>
   </g>
   <g id="matplotlib.axis_5">
    <g id="xtick_15">
     <g id="line2d_21">
      <g>
       <use xlink:href="#m05f9f0e30e" x="120.267755" y="236.155" style="fill: #262626; stroke: #262626; stroke-width: 1.25"/>
      </g>
     </g>
    </g>
    <g id="xtick_16">
     <g id="line2d_22">
      <g>
       <use xlink:href="#m05f9f0e30e" x="170.823302" y="236.155" style="fill: #262626; stroke: #262626; stroke-width: 1.25"/>
      </g>
     </g>
    </g>
    <g id="xtick_17">
     <g id="line2d_23">
      <g>
       <use xlink:href="#m05f9f0e30e" x="221.37885" y="236.155" style="fill: #262626; stroke: #262626; stroke-width: 1.25"/>
      </g>
     </g>
    </g>
    <g id="xtick_18">
     <g id="line2d_24">
      <g>
       <use xlink:href="#m05f9f0e30e" x="271.934397" y="236.155" style="fill: #262626; stroke: #262626; stroke-width: 1.25"/>
      </g>
     </g>
    </g>
    <g id="xtick_19">
     <g id="line2d_25">
      <g>
       <use xlink:href="#m05f9f0e30e" x="322.628453" y="236.155" style="fill: #262626; stroke: #262626; stroke-width: 1.25"/>
      </g>
     </g>
    </g>
    <g id="xtick_20">
     <g id="line2d_26">
      <g>
       <use xlink:href="#m05f9f0e30e" x="373.184" y="236.155" style="fill: #262626; stroke: #262626; stroke-width: 1.25"/>
      </g>
     </g>
    </g>
    <g id="xtick_21">
     <g id="line2d_27">
      <g>
       <use xlink:href="#m05f9f0e30e" x="423.739547" y="236.155" style="fill: #262626; stroke: #262626; stroke-width: 1.25"/>
      </g>
     </g>
    </g>
   </g>
   <g id="matplotlib.axis_6">
    <g id="ytick_5">
     <g id="line2d_28">
      <g>
       <use xlink:href="#me0fa5081e5" x="74.56" y="229.018856" style="fill: #262626; stroke: #262626; stroke-width: 1.25"/>
      </g>
     </g>
     <g id="text_7">
      <!-- −50000 -->
      <g style="fill: #262626" transform="translate(28.050156 232.955653) scale(0.11 -0.11)">
       <defs>
        <path id="ArialMT-2212" d="M 3381 1997 
L 356 1997 
L 356 2522 
L 3381 2522 
L 3381 1997 
z
" transform="scale(0.015625)"/>
       </defs>
       <use xlink:href="#ArialMT-2212"/>
       <use xlink:href="#ArialMT-35" x="58.398438"/>
       <use xlink:href="#ArialMT-30" x="114.013672"/>
       <use xlink:href="#ArialMT-30" x="169.628906"/>
       <use xlink:href="#ArialMT-30" x="225.244141"/>
       <use xlink:href="#ArialMT-30" x="280.859375"/>
      </g>
     </g>
    </g>
    <g id="ytick_6">
     <g id="line2d_29">
      <g>
       <use xlink:href="#me0fa5081e5" x="74.56" y="201.698959" style="fill: #262626; stroke: #262626; stroke-width: 1.25"/>
      </g>
     </g>
     <g id="text_8">
      <!-- 0 -->
      <g style="fill: #262626" transform="translate(58.942969 205.635756) scale(0.11 -0.11)">
       <use xlink:href="#ArialMT-30"/>
      </g>
     </g>
    </g>
    <g id="text_9">
     <!-- Season -->
     <g style="fill: #262626" transform="translate(21.665156 228.090937) rotate(-90) scale(0.12 -0.12)">
      <defs>
       <path id="ArialMT-53" d="M 288 1472 
L 859 1522 
Q 900 1178 1048 958 
Q 1197 738 1509 602 
Q 1822 466 2213 466 
Q 2559 466 2825 569 
Q 3091 672 3220 851 
Q 3350 1031 3350 1244 
Q 3350 1459 3225 1620 
Q 3100 1781 2813 1891 
Q 2628 1963 1997 2114 
Q 1366 2266 1113 2400 
Q 784 2572 623 2826 
Q 463 3081 463 3397 
Q 463 3744 659 4045 
Q 856 4347 1234 4503 
Q 1613 4659 2075 4659 
Q 2584 4659 2973 4495 
Q 3363 4331 3572 4012 
Q 3781 3694 3797 3291 
L 3216 3247 
Q 3169 3681 2898 3903 
Q 2628 4125 2100 4125 
Q 1550 4125 1298 3923 
Q 1047 3722 1047 3438 
Q 1047 3191 1225 3031 
Q 1400 2872 2139 2705 
Q 2878 2538 3153 2413 
Q 3553 2228 3743 1945 
Q 3934 1663 3934 1294 
Q 3934 928 3725 604 
Q 3516 281 3123 101 
Q 2731 -78 2241 -78 
Q 1619 -78 1198 103 
Q 778 284 539 648 
Q 300 1013 288 1472 
z
" transform="scale(0.015625)"/>
       <path id="ArialMT-6f" d="M 213 1659 
Q 213 2581 725 3025 
Q 1153 3394 1769 3394 
Q 2453 3394 2887 2945 
Q 3322 2497 3322 1706 
Q 3322 1066 3130 698 
Q 2938 331 2570 128 
Q 2203 -75 1769 -75 
Q 1072 -75 642 372 
Q 213 819 213 1659 
z
M 791 1659 
Q 791 1022 1069 705 
Q 1347 388 1769 388 
Q 2188 388 2466 706 
Q 2744 1025 2744 1678 
Q 2744 2294 2464 2611 
Q 2184 2928 1769 2928 
Q 1347 2928 1069 2612 
Q 791 2297 791 1659 
z
" transform="scale(0.015625)"/>
      </defs>
      <use xlink:href="#ArialMT-53"/>
      <use xlink:href="#ArialMT-65" x="66.699219"/>
      <use xlink:href="#ArialMT-61" x="122.314453"/>
      <use xlink:href="#ArialMT-73" x="177.929688"/>
      <use xlink:href="#ArialMT-6f" x="227.929688"/>
      <use xlink:href="#ArialMT-6e" x="283.544922"/>
     </g>
    </g>
   </g>
   <g id="line2d_30">
    <path d="M 74.56 192.881335 
L 75.529558 203.702296 
L 76.499117 204.022293 
L 77.468675 204.187086 
L 79.407792 205.071469 
L 81.346909 205.032468 
L 82.316468 204.705867 
L 83.286026 205.026969 
L 84.255584 206.294466 
L 85.225143 204.129526 
L 89.103377 205.537884 
L 90.072935 205.586677 
L 91.042494 205.034245 
L 92.012052 205.235745 
L 92.98161 205.294176 
L 93.951169 205.706853 
L 94.920727 204.945873 
L 95.890286 205.304241 
L 96.859844 205.369417 
L 97.829403 205.142055 
L 98.798961 205.538249 
L 100.738078 205.239982 
L 101.707636 202.111106 
L 102.677195 201.714072 
L 103.646753 200.987222 
L 104.616312 201.126899 
L 105.58587 200.712308 
L 106.555429 197.135219 
L 107.524987 196.272187 
L 108.494545 196.395558 
L 109.464104 195.55776 
L 110.433662 193.993578 
L 111.403221 193.548426 
L 112.372779 190.185865 
L 114.311896 190.289934 
L 115.281455 187.959191 
L 116.251013 187.657853 
L 117.220571 198.865753 
L 118.19013 198.886839 
L 119.159688 199.035504 
L 123.037922 196.675575 
L 124.007481 193.420865 
L 124.977039 198.736037 
L 125.946597 212.761679 
L 126.916156 212.287321 
L 127.885714 212.358098 
L 128.855273 211.807672 
L 129.824831 211.813091 
L 130.79439 211.32732 
L 131.763948 210.395932 
L 132.733506 210.079409 
L 133.703065 210.086322 
L 134.672623 207.007185 
L 135.642182 206.999501 
L 136.61174 206.793304 
L 137.581299 206.790287 
L 139.520416 206.429339 
L 140.489974 205.595907 
L 143.398649 204.81227 
L 144.368208 203.828341 
L 145.337766 203.781022 
L 146.307325 203.325379 
L 147.276883 202.738751 
L 148.246442 202.582171 
L 150.185558 201.441549 
L 151.155117 198.572119 
L 153.094234 196.690993 
L 154.063792 196.351809 
L 155.033351 195.609997 
L 156.002909 195.046251 
L 156.972468 193.948886 
L 157.942026 193.612401 
L 158.911584 192.4274 
L 160.850701 190.80208 
L 161.82026 187.682615 
L 163.759377 186.811973 
L 164.728935 184.413367 
L 165.698494 183.751479 
L 166.668052 198.513615 
L 168.607169 197.962886 
L 169.576727 195.733682 
L 170.546286 202.496886 
L 171.515844 205.251211 
L 173.454961 220.338396 
L 174.424519 219.173374 
L 175.394078 219.100361 
L 176.363636 217.716735 
L 177.333195 217.254295 
L 178.302753 216.361829 
L 179.272312 214.951623 
L 180.24187 214.037189 
L 181.211429 212.678298 
L 191.876571 208.777164 
L 192.84613 208.014554 
L 193.815688 207.68828 
L 195.754805 206.681659 
L 196.724364 205.612709 
L 198.663481 204.906832 
L 200.602597 203.522784 
L 201.572156 202.361338 
L 202.541714 201.928596 
L 204.480831 200.162351 
L 205.45039 199.492592 
L 207.389506 197.64406 
L 208.359065 195.031161 
L 210.298182 192.545094 
L 211.26774 191.815182 
L 212.237299 190.818853 
L 213.206857 193.783574 
L 214.176416 192.509569 
L 215.145974 191.794538 
L 216.115532 190.336471 
L 217.085091 191.073796 
L 218.054649 189.887487 
L 219.024208 186.986159 
L 219.993766 186.053868 
L 220.963325 185.287646 
L 221.932883 182.869768 
L 222.902442 181.912955 
L 225.811117 197.953594 
L 227.750234 196.790313 
L 228.719792 194.696118 
L 229.689351 209.575342 
L 230.658909 210.589222 
L 231.628468 227.315215 
L 232.598026 225.523014 
L 233.567584 225.230305 
L 234.537143 223.124313 
L 235.506701 222.218138 
L 236.47626 220.967896 
L 237.445818 219.085718 
L 238.415377 217.620502 
L 239.384935 214.884137 
L 240.354494 210.774392 
L 241.324052 210.141392 
L 242.29361 208.832501 
L 243.263169 208.178851 
L 244.232727 207.23873 
L 245.202286 206.548889 
L 247.141403 204.214175 
L 248.110961 203.228844 
L 250.050078 200.739518 
L 251.019636 199.961045 
L 251.989195 198.638854 
L 255.867429 193.955429 
L 256.836987 191.9979 
L 257.806545 190.410011 
L 259.745662 188.106002 
L 260.715221 186.951831 
L 261.684779 193.581358 
L 262.654338 192.306082 
L 263.623896 191.243334 
L 264.593455 189.687484 
L 265.563013 192.882617 
L 266.532571 191.504529 
L 267.50213 189.3344 
L 268.471688 187.980336 
L 269.441247 186.871652 
L 270.410805 184.811979 
L 271.380364 183.638536 
L 272.349922 201.625056 
L 274.289039 199.907772 
L 275.258597 198.205774 
L 277.197714 219.454894 
L 278.167273 218.626261 
L 279.136831 224.451516 
L 280.10639 222.661399 
L 281.075948 222.042669 
L 282.045506 219.917052 
L 283.984623 217.513546 
L 284.954182 216.060528 
L 285.92374 213.903208 
L 301.436675 211.276826 
L 302.406234 208.713471 
L 303.375792 207.970734 
L 304.345351 206.684614 
L 305.314909 206.08918 
L 306.284468 205.242295 
L 309.193143 201.999907 
L 311.13226 200.911911 
L 313.071377 199.545979 
L 316.94961 195.104319 
L 319.858286 193.89792 
L 322.766961 190.594714 
L 323.736519 189.354853 
L 325.675636 187.529604 
L 327.614753 186.650625 
L 329.55387 192.699857 
L 331.492987 190.849223 
L 332.462545 189.676449 
L 333.432104 199.0888 
L 336.340779 195.103475 
L 337.310338 201.8883 
L 338.279896 200.406198 
L 339.249455 199.151765 
L 340.219013 207.859669 
L 341.188571 207.195702 
L 342.15813 205.851814 
L 343.127688 204.286684 
L 344.097247 218.892672 
L 345.066805 217.968916 
L 346.036364 219.164278 
L 347.005922 217.619909 
L 347.975481 216.608943 
L 348.945039 214.989553 
L 350.884156 212.936961 
L 351.853714 211.55902 
L 352.823273 209.561359 
L 353.792831 207.025701 
L 354.76239 205.996635 
L 355.731948 205.187843 
L 356.701506 204.02557 
L 357.671065 203.577028 
L 358.640623 202.948086 
L 359.610182 201.349692 
L 361.549299 199.476432 
L 362.518857 198.3241 
L 363.488416 196.930737 
L 365.427532 194.86517 
L 366.397091 193.543566 
L 367.366649 192.593641 
L 368.336208 191.40962 
L 370.275325 189.714373 
L 371.244883 189.118585 
L 372.214442 188.30178 
L 375.123117 186.493688 
L 376.092675 192.277622 
L 378.031792 191.012146 
L 379.001351 190.26574 
L 380.940468 203.652877 
L 381.910026 202.34913 
L 382.879584 201.680041 
L 383.849143 200.626158 
L 384.818701 217.552552 
L 385.78826 216.593326 
L 386.757818 215.241038 
L 388.696935 214.331563 
L 389.666494 212.461281 
L 390.636052 210.897814 
L 391.60561 217.080207 
L 392.575169 216.022193 
L 393.544727 213.961166 
L 396.453403 210.062719 
L 398.392519 208.470435 
L 399.362078 207.037551 
L 401.301195 202.684833 
L 402.270753 203.026733 
L 404.20987 201.213308 
L 405.179429 200.957329 
L 406.148987 200.583113 
L 407.118545 198.474807 
L 409.057662 196.873598 
L 413.905455 190.913366 
L 414.875013 190.054033 
L 415.844571 188.949873 
L 417.783688 187.701362 
L 418.753247 187.592542 
L 421.661922 186.588823 
L 422.631481 186.348261 
L 423.601039 190.880595 
L 424.570597 190.640323 
L 426.509714 189.90113 
L 427.479273 207.873221 
L 428.448831 206.603928 
L 429.41839 206.55549 
L 430.387948 205.759833 
L 433.296623 233.572045 
L 434.266182 233.078806 
L 435.23574 231.611225 
L 436.205299 222.937587 
L 437.174857 222.771268 
L 438.144416 220.345575 
L 439.113974 218.708638 
L 440.083532 214.555664 
L 441.053091 213.354958 
L 442.022649 209.011245 
L 442.992208 207.818947 
L 443.961766 206.013215 
L 444.931325 205.361805 
L 445.900883 204.898434 
L 446.870442 204.261823 
L 447.84 202.718987 
L 447.84 202.718987 
" clip-path="url(#p9ccceae03a)" style="fill: none; stroke: #4c72b0; stroke-width: 1.5; stroke-linecap: round"/>
   </g>
   <g id="patch_13">
    <path d="M 74.56 236.155 
L 74.56 179.33 
" style="fill: none; stroke: #262626; stroke-width: 1.25; stroke-linejoin: miter; stroke-linecap: square"/>
   </g>
   <g id="patch_14">
    <path d="M 447.84 236.155 
L 447.84 179.33 
" style="fill: none; stroke: #262626; stroke-width: 1.25; stroke-linejoin: miter; stroke-linecap: square"/>
   </g>
   <g id="patch_15">
    <path d="M 74.56 236.155 
L 447.84 236.155 
" style="fill: none; stroke: #262626; stroke-width: 1.25; stroke-linejoin: miter; stroke-linecap: square"/>
   </g>
   <g id="patch_16">
    <path d="M 74.56 179.33 
L 447.84 179.33 
" style="fill: none; stroke: #262626; stroke-width: 1.25; stroke-linejoin: miter; stroke-linecap: square"/>
   </g>
  </g>
  <g id="axes_4">
   <g id="patch_17">
    <path d="M 74.56 311.94 
L 447.84 311.94 
L 447.84 255.115 
L 74.56 255.115 
z
" style="fill: #ffffff"/>
   </g>
   <g id="line2d_31">
    <path d="M 74.56 283.394511 
L 447.84 283.394511 
" clip-path="url(#pa796c3cb4a)" style="fill: none; stroke: #000000; stroke-width: 1.5; stroke-linecap: round"/>
   </g>
   <g id="matplotlib.axis_7">
    <g id="xtick_22">
     <g id="line2d_32">
      <g>
       <use xlink:href="#m05f9f0e30e" x="120.267755" y="311.94" style="fill: #262626; stroke: #262626; stroke-width: 1.25"/>
      </g>
     </g>
     <g id="text_10">
      <!-- 2017 -->
      <g style="fill: #262626" transform="translate(108.033693 329.313594) scale(0.11 -0.11)">
       <defs>
        <path id="ArialMT-32" d="M 3222 541 
L 3222 0 
L 194 0 
Q 188 203 259 391 
Q 375 700 629 1000 
Q 884 1300 1366 1694 
Q 2113 2306 2375 2664 
Q 2638 3022 2638 3341 
Q 2638 3675 2398 3904 
Q 2159 4134 1775 4134 
Q 1369 4134 1125 3890 
Q 881 3647 878 3216 
L 300 3275 
Q 359 3922 746 4261 
Q 1134 4600 1788 4600 
Q 2447 4600 2831 4234 
Q 3216 3869 3216 3328 
Q 3216 3053 3103 2787 
Q 2991 2522 2730 2228 
Q 2469 1934 1863 1422 
Q 1356 997 1212 845 
Q 1069 694 975 541 
L 3222 541 
z
" transform="scale(0.015625)"/>
        <path id="ArialMT-37" d="M 303 3981 
L 303 4522 
L 3269 4522 
L 3269 4084 
Q 2831 3619 2401 2847 
Q 1972 2075 1738 1259 
Q 1569 684 1522 0 
L 944 0 
Q 953 541 1156 1306 
Q 1359 2072 1739 2783 
Q 2119 3494 2547 3981 
L 303 3981 
z
" transform="scale(0.015625)"/>
       </defs>
       <use xlink:href="#ArialMT-32"/>
       <use xlink:href="#ArialMT-30" x="55.615234"/>
       <use xlink:href="#ArialMT-31" x="111.230469"/>
       <use xlink:href="#ArialMT-37" x="166.845703"/>
      </g>
     </g>
    </g>
    <g id="xtick_23">
     <g id="line2d_33">
      <g>
       <use xlink:href="#m05f9f0e30e" x="170.823302" y="311.94" style="fill: #262626; stroke: #262626; stroke-width: 1.25"/>
      </g>
     </g>
     <g id="text_11">
      <!-- 2018 -->
      <g style="fill: #262626" transform="translate(158.58924 329.313594) scale(0.11 -0.11)">
       <defs>
        <path id="ArialMT-38" d="M 1131 2484 
Q 781 2613 612 2850 
Q 444 3088 444 3419 
Q 444 3919 803 4259 
Q 1163 4600 1759 4600 
Q 2359 4600 2725 4251 
Q 3091 3903 3091 3403 
Q 3091 3084 2923 2848 
Q 2756 2613 2416 2484 
Q 2838 2347 3058 2040 
Q 3278 1734 3278 1309 
Q 3278 722 2862 322 
Q 2447 -78 1769 -78 
Q 1091 -78 675 323 
Q 259 725 259 1325 
Q 259 1772 486 2073 
Q 713 2375 1131 2484 
z
M 1019 3438 
Q 1019 3113 1228 2906 
Q 1438 2700 1772 2700 
Q 2097 2700 2305 2904 
Q 2513 3109 2513 3406 
Q 2513 3716 2298 3927 
Q 2084 4138 1766 4138 
Q 1444 4138 1231 3931 
Q 1019 3725 1019 3438 
z
M 838 1322 
Q 838 1081 952 856 
Q 1066 631 1291 507 
Q 1516 384 1775 384 
Q 2178 384 2440 643 
Q 2703 903 2703 1303 
Q 2703 1709 2433 1975 
Q 2163 2241 1756 2241 
Q 1359 2241 1098 1978 
Q 838 1716 838 1322 
z
" transform="scale(0.015625)"/>
       </defs>
       <use xlink:href="#ArialMT-32"/>
       <use xlink:href="#ArialMT-30" x="55.615234"/>
       <use xlink:href="#ArialMT-31" x="111.230469"/>
       <use xlink:href="#ArialMT-38" x="166.845703"/>
      </g>
     </g>
    </g>
    <g id="xtick_24">
     <g id="line2d_34">
      <g>
       <use xlink:href="#m05f9f0e30e" x="221.37885" y="311.94" style="fill: #262626; stroke: #262626; stroke-width: 1.25"/>
      </g>
     </g>
     <g id="text_12">
      <!-- 2019 -->
      <g style="fill: #262626" transform="translate(209.144787 329.313594) scale(0.11 -0.11)">
       <defs>
        <path id="ArialMT-39" d="M 350 1059 
L 891 1109 
Q 959 728 1153 556 
Q 1347 384 1650 384 
Q 1909 384 2104 503 
Q 2300 622 2425 820 
Q 2550 1019 2634 1356 
Q 2719 1694 2719 2044 
Q 2719 2081 2716 2156 
Q 2547 1888 2255 1720 
Q 1963 1553 1622 1553 
Q 1053 1553 659 1965 
Q 266 2378 266 3053 
Q 266 3750 677 4175 
Q 1088 4600 1706 4600 
Q 2153 4600 2523 4359 
Q 2894 4119 3086 3673 
Q 3278 3228 3278 2384 
Q 3278 1506 3087 986 
Q 2897 466 2520 194 
Q 2144 -78 1638 -78 
Q 1100 -78 759 220 
Q 419 519 350 1059 
z
M 2653 3081 
Q 2653 3566 2395 3850 
Q 2138 4134 1775 4134 
Q 1400 4134 1122 3828 
Q 844 3522 844 3034 
Q 844 2597 1108 2323 
Q 1372 2050 1759 2050 
Q 2150 2050 2401 2323 
Q 2653 2597 2653 3081 
z
" transform="scale(0.015625)"/>
       </defs>
       <use xlink:href="#ArialMT-32"/>
       <use xlink:href="#ArialMT-30" x="55.615234"/>
       <use xlink:href="#ArialMT-31" x="111.230469"/>
       <use xlink:href="#ArialMT-39" x="166.845703"/>
      </g>
     </g>
    </g>
    <g id="xtick_25">
     <g id="line2d_35">
      <g>
       <use xlink:href="#m05f9f0e30e" x="271.934397" y="311.94" style="fill: #262626; stroke: #262626; stroke-width: 1.25"/>
      </g>
     </g>
     <g id="text_13">
      <!-- 2020 -->
      <g style="fill: #262626" transform="translate(259.700335 329.313594) scale(0.11 -0.11)">
       <use xlink:href="#ArialMT-32"/>
       <use xlink:href="#ArialMT-30" x="55.615234"/>
       <use xlink:href="#ArialMT-32" x="111.230469"/>
       <use xlink:href="#ArialMT-30" x="166.845703"/>
      </g>
     </g>
    </g>
    <g id="xtick_26">
     <g id="line2d_36">
      <g>
       <use xlink:href="#m05f9f0e30e" x="322.628453" y="311.94" style="fill: #262626; stroke: #262626; stroke-width: 1.25"/>
      </g>
     </g>
     <g id="text_14">
      <!-- 2021 -->
      <g style="fill: #262626" transform="translate(310.39439 329.313594) scale(0.11 -0.11)">
       <use xlink:href="#ArialMT-32"/>
       <use xlink:href="#ArialMT-30" x="55.615234"/>
       <use xlink:href="#ArialMT-32" x="111.230469"/>
       <use xlink:href="#ArialMT-31" x="166.845703"/>
      </g>
     </g>
    </g>
    <g id="xtick_27">
     <g id="line2d_37">
      <g>
       <use xlink:href="#m05f9f0e30e" x="373.184" y="311.94" style="fill: #262626; stroke: #262626; stroke-width: 1.25"/>
      </g>
     </g>
     <g id="text_15">
      <!-- 2022 -->
      <g style="fill: #262626" transform="translate(360.949938 329.313594) scale(0.11 -0.11)">
       <use xlink:href="#ArialMT-32"/>
       <use xlink:href="#ArialMT-30" x="55.615234"/>
       <use xlink:href="#ArialMT-32" x="111.230469"/>
       <use xlink:href="#ArialMT-32" x="166.845703"/>
      </g>
     </g>
    </g>
    <g id="xtick_28">
     <g id="line2d_38">
      <g>
       <use xlink:href="#m05f9f0e30e" x="423.739547" y="311.94" style="fill: #262626; stroke: #262626; stroke-width: 1.25"/>
      </g>
     </g>
     <g id="text_16">
      <!-- 2023 -->
      <g style="fill: #262626" transform="translate(411.505485 329.313594) scale(0.11 -0.11)">
       <defs>
        <path id="ArialMT-33" d="M 269 1209 
L 831 1284 
Q 928 806 1161 595 
Q 1394 384 1728 384 
Q 2125 384 2398 659 
Q 2672 934 2672 1341 
Q 2672 1728 2419 1979 
Q 2166 2231 1775 2231 
Q 1616 2231 1378 2169 
L 1441 2663 
Q 1497 2656 1531 2656 
Q 1891 2656 2178 2843 
Q 2466 3031 2466 3422 
Q 2466 3731 2256 3934 
Q 2047 4138 1716 4138 
Q 1388 4138 1169 3931 
Q 950 3725 888 3313 
L 325 3413 
Q 428 3978 793 4289 
Q 1159 4600 1703 4600 
Q 2078 4600 2393 4439 
Q 2709 4278 2876 4000 
Q 3044 3722 3044 3409 
Q 3044 3113 2884 2869 
Q 2725 2625 2413 2481 
Q 2819 2388 3044 2092 
Q 3269 1797 3269 1353 
Q 3269 753 2831 336 
Q 2394 -81 1725 -81 
Q 1122 -81 723 278 
Q 325 638 269 1209 
z
" transform="scale(0.015625)"/>
       </defs>
       <use xlink:href="#ArialMT-32"/>
       <use xlink:href="#ArialMT-30" x="55.615234"/>
       <use xlink:href="#ArialMT-32" x="111.230469"/>
       <use xlink:href="#ArialMT-33" x="166.845703"/>
      </g>
     </g>
    </g>
   </g>
   <g id="matplotlib.axis_8">
    <g id="ytick_7">
     <g id="line2d_39">
      <g>
       <use xlink:href="#me0fa5081e5" x="74.56" y="301.543444" style="fill: #262626; stroke: #262626; stroke-width: 1.25"/>
      </g>
     </g>
     <g id="text_17">
      <!-- −50000 -->
      <g style="fill: #262626" transform="translate(28.050156 305.480241) scale(0.11 -0.11)">
       <use xlink:href="#ArialMT-2212"/>
       <use xlink:href="#ArialMT-35" x="58.398438"/>
       <use xlink:href="#ArialMT-30" x="114.013672"/>
       <use xlink:href="#ArialMT-30" x="169.628906"/>
       <use xlink:href="#ArialMT-30" x="225.244141"/>
       <use xlink:href="#ArialMT-30" x="280.859375"/>
      </g>
     </g>
    </g>
    <g id="ytick_8">
     <g id="line2d_40">
      <g>
       <use xlink:href="#me0fa5081e5" x="74.56" y="283.394511" style="fill: #262626; stroke: #262626; stroke-width: 1.25"/>
      </g>
     </g>
     <g id="text_18">
      <!-- 0 -->
      <g style="fill: #262626" transform="translate(58.942969 287.331308) scale(0.11 -0.11)">
       <use xlink:href="#ArialMT-30"/>
      </g>
     </g>
    </g>
    <g id="ytick_9">
     <g id="line2d_41">
      <g>
       <use xlink:href="#me0fa5081e5" x="74.56" y="265.245577" style="fill: #262626; stroke: #262626; stroke-width: 1.25"/>
      </g>
     </g>
     <g id="text_19">
      <!-- 50000 -->
      <g style="fill: #262626" transform="translate(34.474844 269.182374) scale(0.11 -0.11)">
       <use xlink:href="#ArialMT-35"/>
       <use xlink:href="#ArialMT-30" x="55.615234"/>
       <use xlink:href="#ArialMT-30" x="111.230469"/>
       <use xlink:href="#ArialMT-30" x="166.845703"/>
       <use xlink:href="#ArialMT-30" x="222.460938"/>
      </g>
     </g>
    </g>
    <g id="text_20">
     <!-- Resid -->
     <g style="fill: #262626" transform="translate(21.665156 298.866875) rotate(-90) scale(0.12 -0.12)">
      <defs>
       <path id="ArialMT-52" d="M 503 0 
L 503 4581 
L 2534 4581 
Q 3147 4581 3465 4457 
Q 3784 4334 3975 4021 
Q 4166 3709 4166 3331 
Q 4166 2844 3850 2509 
Q 3534 2175 2875 2084 
Q 3116 1969 3241 1856 
Q 3506 1613 3744 1247 
L 4541 0 
L 3778 0 
L 3172 953 
Q 2906 1366 2734 1584 
Q 2563 1803 2427 1890 
Q 2291 1978 2150 2013 
Q 2047 2034 1813 2034 
L 1109 2034 
L 1109 0 
L 503 0 
z
M 1109 2559 
L 2413 2559 
Q 2828 2559 3062 2645 
Q 3297 2731 3419 2920 
Q 3541 3109 3541 3331 
Q 3541 3656 3305 3865 
Q 3069 4075 2559 4075 
L 1109 4075 
L 1109 2559 
z
" transform="scale(0.015625)"/>
      </defs>
      <use xlink:href="#ArialMT-52"/>
      <use xlink:href="#ArialMT-65" x="72.216797"/>
      <use xlink:href="#ArialMT-73" x="127.832031"/>
      <use xlink:href="#ArialMT-69" x="177.832031"/>
      <use xlink:href="#ArialMT-64" x="200.048828"/>
     </g>
    </g>
   </g>
   <g id="line2d_42">
    <defs>
     <path id="m8d07a648cc" d="M 0 3 
C 0.795609 3 1.55874 2.683901 2.12132 2.12132 
C 2.683901 1.55874 3 0.795609 3 0 
C 3 -0.795609 2.683901 -1.55874 2.12132 -2.12132 
C 1.55874 -2.683901 0.795609 -3 0 -3 
C -0.795609 -3 -1.55874 -2.683901 -2.12132 -2.12132 
C -2.683901 -1.55874 -3 -0.795609 -3 0 
C -3 0.795609 -2.683901 1.55874 -2.12132 2.12132 
C -1.55874 2.683901 -0.795609 3 0 3 
z
" style="stroke: #4c72b0"/>
    </defs>
    <g clip-path="url(#pa796c3cb4a)">
     <use xlink:href="#m8d07a648cc" x="74.56" y="288.243334" style="fill: #4c72b0; stroke: #4c72b0"/>
     <use xlink:href="#m8d07a648cc" x="75.529558" y="281.110363" style="fill: #4c72b0; stroke: #4c72b0"/>
     <use xlink:href="#m8d07a648cc" x="76.499117" y="280.958118" style="fill: #4c72b0; stroke: #4c72b0"/>
     <use xlink:href="#m8d07a648cc" x="77.468675" y="280.905166" style="fill: #4c72b0; stroke: #4c72b0"/>
     <use xlink:href="#m8d07a648cc" x="78.438234" y="280.699196" style="fill: #4c72b0; stroke: #4c72b0"/>
     <use xlink:href="#m8d07a648cc" x="79.407792" y="280.440328" style="fill: #4c72b0; stroke: #4c72b0"/>
     <use xlink:href="#m8d07a648cc" x="81.346909" y="280.528924" style="fill: #4c72b0; stroke: #4c72b0"/>
     <use xlink:href="#m8d07a648cc" x="82.316468" y="280.814182" style="fill: #4c72b0; stroke: #4c72b0"/>
     <use xlink:href="#m8d07a648cc" x="83.286026" y="280.671574" style="fill: #4c72b0; stroke: #4c72b0"/>
     <use xlink:href="#m8d07a648cc" x="84.255584" y="279.902015" style="fill: #4c72b0; stroke: #4c72b0"/>
     <use xlink:href="#m8d07a648cc" x="85.225143" y="281.414478" style="fill: #4c72b0; stroke: #4c72b0"/>
     <use xlink:href="#m8d07a648cc" x="86.194701" y="281.271763" style="fill: #4c72b0; stroke: #4c72b0"/>
     <use xlink:href="#m8d07a648cc" x="87.16426" y="281.070636" style="fill: #4c72b0; stroke: #4c72b0"/>
     <use xlink:href="#m8d07a648cc" x="88.133818" y="280.925502" style="fill: #4c72b0; stroke: #4c72b0"/>
     <use xlink:href="#m8d07a648cc" x="89.103377" y="280.807041" style="fill: #4c72b0; stroke: #4c72b0"/>
     <use xlink:href="#m8d07a648cc" x="90.072935" y="280.863717" style="fill: #4c72b0; stroke: #4c72b0"/>
     <use xlink:href="#m8d07a648cc" x="91.042494" y="281.322192" style="fill: #4c72b0; stroke: #4c72b0"/>
     <use xlink:href="#m8d07a648cc" x="92.012052" y="281.282954" style="fill: #4c72b0; stroke: #4c72b0"/>
     <use xlink:href="#m8d07a648cc" x="92.98161" y="281.341531" style="fill: #4c72b0; stroke: #4c72b0"/>
     <use xlink:href="#m8d07a648cc" x="93.951169" y="281.167539" style="fill: #4c72b0; stroke: #4c72b0"/>
     <use xlink:href="#m8d07a648cc" x="94.920727" y="281.775962" style="fill: #4c72b0; stroke: #4c72b0"/>
     <use xlink:href="#m8d07a648cc" x="95.890286" y="281.643137" style="fill: #4c72b0; stroke: #4c72b0"/>
     <use xlink:href="#m8d07a648cc" x="96.859844" y="281.708112" style="fill: #4c72b0; stroke: #4c72b0"/>
     <use xlink:href="#m8d07a648cc" x="97.829403" y="281.970032" style="fill: #4c72b0; stroke: #4c72b0"/>
     <use xlink:href="#m8d07a648cc" x="98.798961" y="281.820253" style="fill: #4c72b0; stroke: #4c72b0"/>
     <use xlink:href="#m8d07a648cc" x="99.768519" y="282.06183" style="fill: #4c72b0; stroke: #4c72b0"/>
     <use xlink:href="#m8d07a648cc" x="100.738078" y="282.250285" style="fill: #4c72b0; stroke: #4c72b0"/>
     <use xlink:href="#m8d07a648cc" x="101.707636" y="284.449246" style="fill: #4c72b0; stroke: #4c72b0"/>
     <use xlink:href="#m8d07a648cc" x="102.677195" y="284.833653" style="fill: #4c72b0; stroke: #4c72b0"/>
     <use xlink:href="#m8d07a648cc" x="103.646753" y="285.435045" style="fill: #4c72b0; stroke: #4c72b0"/>
     <use xlink:href="#m8d07a648cc" x="104.616312" y="285.468274" style="fill: #4c72b0; stroke: #4c72b0"/>
     <use xlink:href="#m8d07a648cc" x="105.58587" y="285.87115" style="fill: #4c72b0; stroke: #4c72b0"/>
     <use xlink:href="#m8d07a648cc" x="106.555429" y="288.374994" style="fill: #4c72b0; stroke: #4c72b0"/>
     <use xlink:href="#m8d07a648cc" x="107.524987" y="289.077812" style="fill: #4c72b0; stroke: #4c72b0"/>
     <use xlink:href="#m8d07a648cc" x="108.494545" y="289.125873" style="fill: #4c72b0; stroke: #4c72b0"/>
     <use xlink:href="#m8d07a648cc" x="109.464104" y="289.812584" style="fill: #4c72b0; stroke: #4c72b0"/>
     <use xlink:href="#m8d07a648cc" x="110.433662" y="290.981546" style="fill: #4c72b0; stroke: #4c72b0"/>
     <use xlink:href="#m8d07a648cc" x="111.403221" y="291.406359" style="fill: #4c72b0; stroke: #4c72b0"/>
     <use xlink:href="#m8d07a648cc" x="112.372779" y="293.767978" style="fill: #4c72b0; stroke: #4c72b0"/>
     <use xlink:href="#m8d07a648cc" x="113.342338" y="293.849249" style="fill: #4c72b0; stroke: #4c72b0"/>
     <use xlink:href="#m8d07a648cc" x="114.311896" y="293.932814" style="fill: #4c72b0; stroke: #4c72b0"/>
     <use xlink:href="#m8d07a648cc" x="115.281455" y="295.600021" style="fill: #4c72b0; stroke: #4c72b0"/>
     <use xlink:href="#m8d07a648cc" x="116.251013" y="295.919238" style="fill: #4c72b0; stroke: #4c72b0"/>
     <use xlink:href="#m8d07a648cc" x="117.220571" y="288.591113" style="fill: #4c72b0; stroke: #4c72b0"/>
     <use xlink:href="#m8d07a648cc" x="118.19013" y="288.694723" style="fill: #4c72b0; stroke: #4c72b0"/>
     <use xlink:href="#m8d07a648cc" x="119.159688" y="288.717" style="fill: #4c72b0; stroke: #4c72b0"/>
     <use xlink:href="#m8d07a648cc" x="123.037922" y="289.925052" style="fill: #4c72b0; stroke: #4c72b0"/>
     <use xlink:href="#m8d07a648cc" x="124.007481" y="291.809424" style="fill: #4c72b0; stroke: #4c72b0"/>
     <use xlink:href="#m8d07a648cc" x="124.977039" y="288.148264" style="fill: #4c72b0; stroke: #4c72b0"/>
     <use xlink:href="#m8d07a648cc" x="125.946597" y="278.934929" style="fill: #4c72b0; stroke: #4c72b0"/>
     <use xlink:href="#m8d07a648cc" x="126.916156" y="279.412089" style="fill: #4c72b0; stroke: #4c72b0"/>
     <use xlink:href="#m8d07a648cc" x="127.885714" y="279.513368" style="fill: #4c72b0; stroke: #4c72b0"/>
     <use xlink:href="#m8d07a648cc" x="128.855273" y="279.925037" style="fill: #4c72b0; stroke: #4c72b0"/>
     <use xlink:href="#m8d07a648cc" x="129.824831" y="280.159123" style="fill: #4c72b0; stroke: #4c72b0"/>
     <use xlink:href="#m8d07a648cc" x="130.79439" y="280.206484" style="fill: #4c72b0; stroke: #4c72b0"/>
     <use xlink:href="#m8d07a648cc" x="131.763948" y="280.768504" style="fill: #4c72b0; stroke: #4c72b0"/>
     <use xlink:href="#m8d07a648cc" x="132.733506" y="280.987957" style="fill: #4c72b0; stroke: #4c72b0"/>
     <use xlink:href="#m8d07a648cc" x="133.703065" y="281.311821" style="fill: #4c72b0; stroke: #4c72b0"/>
     <use xlink:href="#m8d07a648cc" x="134.672623" y="282.801836" style="fill: #4c72b0; stroke: #4c72b0"/>
     <use xlink:href="#m8d07a648cc" x="135.642182" y="283.080224" style="fill: #4c72b0; stroke: #4c72b0"/>
     <use xlink:href="#m8d07a648cc" x="136.61174" y="283.668849" style="fill: #4c72b0; stroke: #4c72b0"/>
     <use xlink:href="#m8d07a648cc" x="137.581299" y="284.01118" style="fill: #4c72b0; stroke: #4c72b0"/>
     <use xlink:href="#m8d07a648cc" x="138.550857" y="284.515538" style="fill: #4c72b0; stroke: #4c72b0"/>
     <use xlink:href="#m8d07a648cc" x="139.520416" y="284.542159" style="fill: #4c72b0; stroke: #4c72b0"/>
     <use xlink:href="#m8d07a648cc" x="140.489974" y="284.208363" style="fill: #4c72b0; stroke: #4c72b0"/>
     <use xlink:href="#m8d07a648cc" x="141.459532" y="284.796813" style="fill: #4c72b0; stroke: #4c72b0"/>
     <use xlink:href="#m8d07a648cc" x="142.429091" y="284.921986" style="fill: #4c72b0; stroke: #4c72b0"/>
     <use xlink:href="#m8d07a648cc" x="143.398649" y="285.420756" style="fill: #4c72b0; stroke: #4c72b0"/>
     <use xlink:href="#m8d07a648cc" x="144.368208" y="284.933096" style="fill: #4c72b0; stroke: #4c72b0"/>
     <use xlink:href="#m8d07a648cc" x="145.337766" y="285.098307" style="fill: #4c72b0; stroke: #4c72b0"/>
     <use xlink:href="#m8d07a648cc" x="146.307325" y="285.719165" style="fill: #4c72b0; stroke: #4c72b0"/>
     <use xlink:href="#m8d07a648cc" x="147.276883" y="285.816382" style="fill: #4c72b0; stroke: #4c72b0"/>
     <use xlink:href="#m8d07a648cc" x="148.246442" y="286.226038" style="fill: #4c72b0; stroke: #4c72b0"/>
     <use xlink:href="#m8d07a648cc" x="149.216" y="286.294553" style="fill: #4c72b0; stroke: #4c72b0"/>
     <use xlink:href="#m8d07a648cc" x="150.185558" y="286.231705" style="fill: #4c72b0; stroke: #4c72b0"/>
     <use xlink:href="#m8d07a648cc" x="151.155117" y="283.308239" style="fill: #4c72b0; stroke: #4c72b0"/>
     <use xlink:href="#m8d07a648cc" x="152.124675" y="283.144785" style="fill: #4c72b0; stroke: #4c72b0"/>
     <use xlink:href="#m8d07a648cc" x="153.094234" y="282.61265" style="fill: #4c72b0; stroke: #4c72b0"/>
     <use xlink:href="#m8d07a648cc" x="154.063792" y="283.013722" style="fill: #4c72b0; stroke: #4c72b0"/>
     <use xlink:href="#m8d07a648cc" x="155.033351" y="282.865278" style="fill: #4c72b0; stroke: #4c72b0"/>
     <use xlink:href="#m8d07a648cc" x="156.002909" y="282.595591" style="fill: #4c72b0; stroke: #4c72b0"/>
     <use xlink:href="#m8d07a648cc" x="156.972468" y="281.847342" style="fill: #4c72b0; stroke: #4c72b0"/>
     <use xlink:href="#m8d07a648cc" x="157.942026" y="282.230126" style="fill: #4c72b0; stroke: #4c72b0"/>
     <use xlink:href="#m8d07a648cc" x="158.911584" y="281.573507" style="fill: #4c72b0; stroke: #4c72b0"/>
     <use xlink:href="#m8d07a648cc" x="159.881143" y="282.273022" style="fill: #4c72b0; stroke: #4c72b0"/>
     <use xlink:href="#m8d07a648cc" x="160.850701" y="281.834676" style="fill: #4c72b0; stroke: #4c72b0"/>
     <use xlink:href="#m8d07a648cc" x="161.82026" y="278.170423" style="fill: #4c72b0; stroke: #4c72b0"/>
     <use xlink:href="#m8d07a648cc" x="162.789818" y="278.317647" style="fill: #4c72b0; stroke: #4c72b0"/>
     <use xlink:href="#m8d07a648cc" x="163.759377" y="278.69982" style="fill: #4c72b0; stroke: #4c72b0"/>
     <use xlink:href="#m8d07a648cc" x="164.728935" y="276.402886" style="fill: #4c72b0; stroke: #4c72b0"/>
     <use xlink:href="#m8d07a648cc" x="165.698494" y="276.270143" style="fill: #4c72b0; stroke: #4c72b0"/>
     <use xlink:href="#m8d07a648cc" x="166.668052" y="266.066175" style="fill: #4c72b0; stroke: #4c72b0"/>
     <use xlink:href="#m8d07a648cc" x="167.63761" y="266.029153" style="fill: #4c72b0; stroke: #4c72b0"/>
     <use xlink:href="#m8d07a648cc" x="168.607169" y="266.350603" style="fill: #4c72b0; stroke: #4c72b0"/>
     <use xlink:href="#m8d07a648cc" x="169.576727" y="264.538107" style="fill: #4c72b0; stroke: #4c72b0"/>
     <use xlink:href="#m8d07a648cc" x="170.546286" y="259.676656" style="fill: #4c72b0; stroke: #4c72b0"/>
     <use xlink:href="#m8d07a648cc" x="171.515844" y="257.697955" style="fill: #4c72b0; stroke: #4c72b0"/>
     <use xlink:href="#m8d07a648cc" x="173.454961" y="293.117603" style="fill: #4c72b0; stroke: #4c72b0"/>
     <use xlink:href="#m8d07a648cc" x="174.424519" y="293.224859" style="fill: #4c72b0; stroke: #4c72b0"/>
     <use xlink:href="#m8d07a648cc" x="175.394078" y="292.713202" style="fill: #4c72b0; stroke: #4c72b0"/>
     <use xlink:href="#m8d07a648cc" x="176.363636" y="293.305238" style="fill: #4c72b0; stroke: #4c72b0"/>
     <use xlink:href="#m8d07a648cc" x="177.333195" y="293.70678" style="fill: #4c72b0; stroke: #4c72b0"/>
     <use xlink:href="#m8d07a648cc" x="178.302753" y="293.51954" style="fill: #4c72b0; stroke: #4c72b0"/>
     <use xlink:href="#m8d07a648cc" x="179.272312" y="291.850176" style="fill: #4c72b0; stroke: #4c72b0"/>
     <use xlink:href="#m8d07a648cc" x="180.24187" y="292.082366" style="fill: #4c72b0; stroke: #4c72b0"/>
     <use xlink:href="#m8d07a648cc" x="181.211429" y="292.96205" style="fill: #4c72b0; stroke: #4c72b0"/>
     <use xlink:href="#m8d07a648cc" x="190.907013" y="286.39102" style="fill: #4c72b0; stroke: #4c72b0"/>
     <use xlink:href="#m8d07a648cc" x="191.876571" y="286.356339" style="fill: #4c72b0; stroke: #4c72b0"/>
     <use xlink:href="#m8d07a648cc" x="192.84613" y="286.115727" style="fill: #4c72b0; stroke: #4c72b0"/>
     <use xlink:href="#m8d07a648cc" x="193.815688" y="285.909953" style="fill: #4c72b0; stroke: #4c72b0"/>
     <use xlink:href="#m8d07a648cc" x="194.785247" y="285.366424" style="fill: #4c72b0; stroke: #4c72b0"/>
     <use xlink:href="#m8d07a648cc" x="195.754805" y="285.245846" style="fill: #4c72b0; stroke: #4c72b0"/>
     <use xlink:href="#m8d07a648cc" x="196.724364" y="284.751625" style="fill: #4c72b0; stroke: #4c72b0"/>
     <use xlink:href="#m8d07a648cc" x="198.663481" y="283.890394" style="fill: #4c72b0; stroke: #4c72b0"/>
     <use xlink:href="#m8d07a648cc" x="199.633039" y="283.515342" style="fill: #4c72b0; stroke: #4c72b0"/>
     <use xlink:href="#m8d07a648cc" x="200.602597" y="283.17037" style="fill: #4c72b0; stroke: #4c72b0"/>
     <use xlink:href="#m8d07a648cc" x="201.572156" y="282.511321" style="fill: #4c72b0; stroke: #4c72b0"/>
     <use xlink:href="#m8d07a648cc" x="202.541714" y="282.722077" style="fill: #4c72b0; stroke: #4c72b0"/>
     <use xlink:href="#m8d07a648cc" x="203.511273" y="281.515489" style="fill: #4c72b0; stroke: #4c72b0"/>
     <use xlink:href="#m8d07a648cc" x="204.480831" y="280.730043" style="fill: #4c72b0; stroke: #4c72b0"/>
     <use xlink:href="#m8d07a648cc" x="205.45039" y="280.455324" style="fill: #4c72b0; stroke: #4c72b0"/>
     <use xlink:href="#m8d07a648cc" x="206.419948" y="279.949039" style="fill: #4c72b0; stroke: #4c72b0"/>
     <use xlink:href="#m8d07a648cc" x="207.389506" y="279.858267" style="fill: #4c72b0; stroke: #4c72b0"/>
     <use xlink:href="#m8d07a648cc" x="208.359065" y="279.32935" style="fill: #4c72b0; stroke: #4c72b0"/>
     <use xlink:href="#m8d07a648cc" x="209.328623" y="279.085884" style="fill: #4c72b0; stroke: #4c72b0"/>
     <use xlink:href="#m8d07a648cc" x="210.298182" y="278.670296" style="fill: #4c72b0; stroke: #4c72b0"/>
     <use xlink:href="#m8d07a648cc" x="211.26774" y="278.157082" style="fill: #4c72b0; stroke: #4c72b0"/>
     <use xlink:href="#m8d07a648cc" x="212.237299" y="277.601641" style="fill: #4c72b0; stroke: #4c72b0"/>
     <use xlink:href="#m8d07a648cc" x="213.206857" y="274.074616" style="fill: #4c72b0; stroke: #4c72b0"/>
     <use xlink:href="#m8d07a648cc" x="214.176416" y="273.895114" style="fill: #4c72b0; stroke: #4c72b0"/>
     <use xlink:href="#m8d07a648cc" x="215.145974" y="273.332349" style="fill: #4c72b0; stroke: #4c72b0"/>
     <use xlink:href="#m8d07a648cc" x="216.115532" y="273.106657" style="fill: #4c72b0; stroke: #4c72b0"/>
     <use xlink:href="#m8d07a648cc" x="217.085091" y="271.484872" style="fill: #4c72b0; stroke: #4c72b0"/>
     <use xlink:href="#m8d07a648cc" x="218.054649" y="271.546774" style="fill: #4c72b0; stroke: #4c72b0"/>
     <use xlink:href="#m8d07a648cc" x="219.024208" y="272.303863" style="fill: #4c72b0; stroke: #4c72b0"/>
     <use xlink:href="#m8d07a648cc" x="219.993766" y="272.133354" style="fill: #4c72b0; stroke: #4c72b0"/>
     <use xlink:href="#m8d07a648cc" x="220.963325" y="271.477958" style="fill: #4c72b0; stroke: #4c72b0"/>
     <use xlink:href="#m8d07a648cc" x="221.932883" y="271.773938" style="fill: #4c72b0; stroke: #4c72b0"/>
     <use xlink:href="#m8d07a648cc" x="222.902442" y="271.456342" style="fill: #4c72b0; stroke: #4c72b0"/>
     <use xlink:href="#m8d07a648cc" x="225.811117" y="309.320344" style="fill: #4c72b0; stroke: #4c72b0"/>
     <use xlink:href="#m8d07a648cc" x="226.780675" y="309.357045" style="fill: #4c72b0; stroke: #4c72b0"/>
     <use xlink:href="#m8d07a648cc" x="227.750234" y="308.925431" style="fill: #4c72b0; stroke: #4c72b0"/>
     <use xlink:href="#m8d07a648cc" x="228.719792" y="309.25821" style="fill: #4c72b0; stroke: #4c72b0"/>
     <use xlink:href="#m8d07a648cc" x="229.689351" y="299.292684" style="fill: #4c72b0; stroke: #4c72b0"/>
     <use xlink:href="#m8d07a648cc" x="230.658909" y="297.81151" style="fill: #4c72b0; stroke: #4c72b0"/>
     <use xlink:href="#m8d07a648cc" x="231.628468" y="285.808895" style="fill: #4c72b0; stroke: #4c72b0"/>
     <use xlink:href="#m8d07a648cc" x="232.598026" y="284.459313" style="fill: #4c72b0; stroke: #4c72b0"/>
     <use xlink:href="#m8d07a648cc" x="233.567584" y="285.706224" style="fill: #4c72b0; stroke: #4c72b0"/>
     <use xlink:href="#m8d07a648cc" x="234.537143" y="283.69912" style="fill: #4c72b0; stroke: #4c72b0"/>
     <use xlink:href="#m8d07a648cc" x="235.506701" y="283.255842" style="fill: #4c72b0; stroke: #4c72b0"/>
     <use xlink:href="#m8d07a648cc" x="236.47626" y="283.127002" style="fill: #4c72b0; stroke: #4c72b0"/>
     <use xlink:href="#m8d07a648cc" x="237.445818" y="283.542133" style="fill: #4c72b0; stroke: #4c72b0"/>
     <use xlink:href="#m8d07a648cc" x="238.415377" y="282.915787" style="fill: #4c72b0; stroke: #4c72b0"/>
     <use xlink:href="#m8d07a648cc" x="239.384935" y="284.142969" style="fill: #4c72b0; stroke: #4c72b0"/>
     <use xlink:href="#m8d07a648cc" x="240.354494" y="286.288687" style="fill: #4c72b0; stroke: #4c72b0"/>
     <use xlink:href="#m8d07a648cc" x="241.324052" y="286.057646" style="fill: #4c72b0; stroke: #4c72b0"/>
     <use xlink:href="#m8d07a648cc" x="242.29361" y="285.373747" style="fill: #4c72b0; stroke: #4c72b0"/>
     <use xlink:href="#m8d07a648cc" x="243.263169" y="285.332666" style="fill: #4c72b0; stroke: #4c72b0"/>
     <use xlink:href="#m8d07a648cc" x="244.232727" y="285.303798" style="fill: #4c72b0; stroke: #4c72b0"/>
     <use xlink:href="#m8d07a648cc" x="245.202286" y="285.220077" style="fill: #4c72b0; stroke: #4c72b0"/>
     <use xlink:href="#m8d07a648cc" x="246.171844" y="285.339266" style="fill: #4c72b0; stroke: #4c72b0"/>
     <use xlink:href="#m8d07a648cc" x="247.141403" y="285.349406" style="fill: #4c72b0; stroke: #4c72b0"/>
     <use xlink:href="#m8d07a648cc" x="248.110961" y="285.496983" style="fill: #4c72b0; stroke: #4c72b0"/>
     <use xlink:href="#m8d07a648cc" x="249.080519" y="285.322482" style="fill: #4c72b0; stroke: #4c72b0"/>
     <use xlink:href="#m8d07a648cc" x="250.050078" y="285.671107" style="fill: #4c72b0; stroke: #4c72b0"/>
     <use xlink:href="#m8d07a648cc" x="251.019636" y="285.218049" style="fill: #4c72b0; stroke: #4c72b0"/>
     <use xlink:href="#m8d07a648cc" x="251.989195" y="285.36084" style="fill: #4c72b0; stroke: #4c72b0"/>
     <use xlink:href="#m8d07a648cc" x="252.958753" y="285.52862" style="fill: #4c72b0; stroke: #4c72b0"/>
     <use xlink:href="#m8d07a648cc" x="253.928312" y="285.433213" style="fill: #4c72b0; stroke: #4c72b0"/>
     <use xlink:href="#m8d07a648cc" x="254.89787" y="285.103003" style="fill: #4c72b0; stroke: #4c72b0"/>
     <use xlink:href="#m8d07a648cc" x="255.867429" y="284.572333" style="fill: #4c72b0; stroke: #4c72b0"/>
     <use xlink:href="#m8d07a648cc" x="256.836987" y="285.883083" style="fill: #4c72b0; stroke: #4c72b0"/>
     <use xlink:href="#m8d07a648cc" x="257.806545" y="285.05141" style="fill: #4c72b0; stroke: #4c72b0"/>
     <use xlink:href="#m8d07a648cc" x="258.776104" y="284.998161" style="fill: #4c72b0; stroke: #4c72b0"/>
     <use xlink:href="#m8d07a648cc" x="259.745662" y="284.4788" style="fill: #4c72b0; stroke: #4c72b0"/>
     <use xlink:href="#m8d07a648cc" x="260.715221" y="284.292843" style="fill: #4c72b0; stroke: #4c72b0"/>
     <use xlink:href="#m8d07a648cc" x="261.684779" y="278.720813" style="fill: #4c72b0; stroke: #4c72b0"/>
     <use xlink:href="#m8d07a648cc" x="262.654338" y="278.399462" style="fill: #4c72b0; stroke: #4c72b0"/>
     <use xlink:href="#m8d07a648cc" x="263.623896" y="278.003271" style="fill: #4c72b0; stroke: #4c72b0"/>
     <use xlink:href="#m8d07a648cc" x="264.593455" y="277.506691" style="fill: #4c72b0; stroke: #4c72b0"/>
     <use xlink:href="#m8d07a648cc" x="265.563013" y="273.960155" style="fill: #4c72b0; stroke: #4c72b0"/>
     <use xlink:href="#m8d07a648cc" x="266.532571" y="273.320161" style="fill: #4c72b0; stroke: #4c72b0"/>
     <use xlink:href="#m8d07a648cc" x="267.50213" y="273.503982" style="fill: #4c72b0; stroke: #4c72b0"/>
     <use xlink:href="#m8d07a648cc" x="268.471688" y="272.869855" style="fill: #4c72b0; stroke: #4c72b0"/>
     <use xlink:href="#m8d07a648cc" x="269.441247" y="272.519871" style="fill: #4c72b0; stroke: #4c72b0"/>
     <use xlink:href="#m8d07a648cc" x="270.410805" y="272.045914" style="fill: #4c72b0; stroke: #4c72b0"/>
     <use xlink:href="#m8d07a648cc" x="271.380364" y="271.665758" style="fill: #4c72b0; stroke: #4c72b0"/>
     <use xlink:href="#m8d07a648cc" x="272.349922" y="258.605718" style="fill: #4c72b0; stroke: #4c72b0"/>
     <use xlink:href="#m8d07a648cc" x="273.319481" y="258.140549" style="fill: #4c72b0; stroke: #4c72b0"/>
     <use xlink:href="#m8d07a648cc" x="274.289039" y="257.832788" style="fill: #4c72b0; stroke: #4c72b0"/>
     <use xlink:href="#m8d07a648cc" x="275.258597" y="257.843937" style="fill: #4c72b0; stroke: #4c72b0"/>
     <use xlink:href="#m8d07a648cc" x="277.197714" y="293.574862" style="fill: #4c72b0; stroke: #4c72b0"/>
     <use xlink:href="#m8d07a648cc" x="278.167273" y="293.523447" style="fill: #4c72b0; stroke: #4c72b0"/>
     <use xlink:href="#m8d07a648cc" x="279.136831" y="288.699385" style="fill: #4c72b0; stroke: #4c72b0"/>
     <use xlink:href="#m8d07a648cc" x="280.10639" y="288.915717" style="fill: #4c72b0; stroke: #4c72b0"/>
     <use xlink:href="#m8d07a648cc" x="281.075948" y="288.32789" style="fill: #4c72b0; stroke: #4c72b0"/>
     <use xlink:href="#m8d07a648cc" x="282.045506" y="288.603887" style="fill: #4c72b0; stroke: #4c72b0"/>
     <use xlink:href="#m8d07a648cc" x="283.015065" y="288.125493" style="fill: #4c72b0; stroke: #4c72b0"/>
     <use xlink:href="#m8d07a648cc" x="283.984623" y="287.881727" style="fill: #4c72b0; stroke: #4c72b0"/>
     <use xlink:href="#m8d07a648cc" x="284.954182" y="287.708091" style="fill: #4c72b0; stroke: #4c72b0"/>
     <use xlink:href="#m8d07a648cc" x="285.92374" y="287.79522" style="fill: #4c72b0; stroke: #4c72b0"/>
     <use xlink:href="#m8d07a648cc" x="301.436675" y="283.200756" style="fill: #4c72b0; stroke: #4c72b0"/>
     <use xlink:href="#m8d07a648cc" x="302.406234" y="284.257835" style="fill: #4c72b0; stroke: #4c72b0"/>
     <use xlink:href="#m8d07a648cc" x="303.375792" y="284.15575" style="fill: #4c72b0; stroke: #4c72b0"/>
     <use xlink:href="#m8d07a648cc" x="304.345351" y="284.211985" style="fill: #4c72b0; stroke: #4c72b0"/>
     <use xlink:href="#m8d07a648cc" x="305.314909" y="283.906159" style="fill: #4c72b0; stroke: #4c72b0"/>
     <use xlink:href="#m8d07a648cc" x="306.284468" y="283.791804" style="fill: #4c72b0; stroke: #4c72b0"/>
     <use xlink:href="#m8d07a648cc" x="307.254026" y="283.974115" style="fill: #4c72b0; stroke: #4c72b0"/>
     <use xlink:href="#m8d07a648cc" x="308.223584" y="284.057238" style="fill: #4c72b0; stroke: #4c72b0"/>
     <use xlink:href="#m8d07a648cc" x="309.193143" y="284.008309" style="fill: #4c72b0; stroke: #4c72b0"/>
     <use xlink:href="#m8d07a648cc" x="311.13226" y="283.854181" style="fill: #4c72b0; stroke: #4c72b0"/>
     <use xlink:href="#m8d07a648cc" x="313.071377" y="283.595683" style="fill: #4c72b0; stroke: #4c72b0"/>
     <use xlink:href="#m8d07a648cc" x="314.040935" y="283.68128" style="fill: #4c72b0; stroke: #4c72b0"/>
     <use xlink:href="#m8d07a648cc" x="315.010494" y="283.596019" style="fill: #4c72b0; stroke: #4c72b0"/>
     <use xlink:href="#m8d07a648cc" x="315.980052" y="283.822787" style="fill: #4c72b0; stroke: #4c72b0"/>
     <use xlink:href="#m8d07a648cc" x="316.94961" y="283.874376" style="fill: #4c72b0; stroke: #4c72b0"/>
     <use xlink:href="#m8d07a648cc" x="319.858286" y="283.414874" style="fill: #4c72b0; stroke: #4c72b0"/>
     <use xlink:href="#m8d07a648cc" x="320.827844" y="283.655236" style="fill: #4c72b0; stroke: #4c72b0"/>
     <use xlink:href="#m8d07a648cc" x="321.797403" y="283.742442" style="fill: #4c72b0; stroke: #4c72b0"/>
     <use xlink:href="#m8d07a648cc" x="322.766961" y="283.683395" style="fill: #4c72b0; stroke: #4c72b0"/>
     <use xlink:href="#m8d07a648cc" x="323.736519" y="284.04333" style="fill: #4c72b0; stroke: #4c72b0"/>
     <use xlink:href="#m8d07a648cc" x="324.706078" y="284.214245" style="fill: #4c72b0; stroke: #4c72b0"/>
     <use xlink:href="#m8d07a648cc" x="325.675636" y="284.405482" style="fill: #4c72b0; stroke: #4c72b0"/>
     <use xlink:href="#m8d07a648cc" x="327.614753" y="284.623482" style="fill: #4c72b0; stroke: #4c72b0"/>
     <use xlink:href="#m8d07a648cc" x="329.55387" y="301.04565" style="fill: #4c72b0; stroke: #4c72b0"/>
     <use xlink:href="#m8d07a648cc" x="330.523429" y="301.359009" style="fill: #4c72b0; stroke: #4c72b0"/>
     <use xlink:href="#m8d07a648cc" x="331.492987" y="301.576051" style="fill: #4c72b0; stroke: #4c72b0"/>
     <use xlink:href="#m8d07a648cc" x="332.462545" y="301.95637" style="fill: #4c72b0; stroke: #4c72b0"/>
     <use xlink:href="#m8d07a648cc" x="333.432104" y="295.421555" style="fill: #4c72b0; stroke: #4c72b0"/>
     <use xlink:href="#m8d07a648cc" x="334.401662" y="295.680956" style="fill: #4c72b0; stroke: #4c72b0"/>
     <use xlink:href="#m8d07a648cc" x="335.371221" y="296.013297" style="fill: #4c72b0; stroke: #4c72b0"/>
     <use xlink:href="#m8d07a648cc" x="336.340779" y="296.411882" style="fill: #4c72b0; stroke: #4c72b0"/>
     <use xlink:href="#m8d07a648cc" x="337.310338" y="291.577866" style="fill: #4c72b0; stroke: #4c72b0"/>
     <use xlink:href="#m8d07a648cc" x="338.279896" y="292.300363" style="fill: #4c72b0; stroke: #4c72b0"/>
     <use xlink:href="#m8d07a648cc" x="339.249455" y="292.789871" style="fill: #4c72b0; stroke: #4c72b0"/>
     <use xlink:href="#m8d07a648cc" x="340.219013" y="286.700803" style="fill: #4c72b0; stroke: #4c72b0"/>
     <use xlink:href="#m8d07a648cc" x="341.188571" y="286.783469" style="fill: #4c72b0; stroke: #4c72b0"/>
     <use xlink:href="#m8d07a648cc" x="342.15813" y="287.301649" style="fill: #4c72b0; stroke: #4c72b0"/>
     <use xlink:href="#m8d07a648cc" x="343.127688" y="287.749559" style="fill: #4c72b0; stroke: #4c72b0"/>
     <use xlink:href="#m8d07a648cc" x="344.097247" y="277.701345" style="fill: #4c72b0; stroke: #4c72b0"/>
     <use xlink:href="#m8d07a648cc" x="345.066805" y="277.829985" style="fill: #4c72b0; stroke: #4c72b0"/>
     <use xlink:href="#m8d07a648cc" x="346.036364" y="276.56861" style="fill: #4c72b0; stroke: #4c72b0"/>
     <use xlink:href="#m8d07a648cc" x="347.005922" y="277.042247" style="fill: #4c72b0; stroke: #4c72b0"/>
     <use xlink:href="#m8d07a648cc" x="347.975481" y="276.607926" style="fill: #4c72b0; stroke: #4c72b0"/>
     <use xlink:href="#m8d07a648cc" x="348.945039" y="277.182113" style="fill: #4c72b0; stroke: #4c72b0"/>
     <use xlink:href="#m8d07a648cc" x="349.914597" y="277.4883" style="fill: #4c72b0; stroke: #4c72b0"/>
     <use xlink:href="#m8d07a648cc" x="350.884156" y="277.699737" style="fill: #4c72b0; stroke: #4c72b0"/>
     <use xlink:href="#m8d07a648cc" x="351.853714" y="278.146605" style="fill: #4c72b0; stroke: #4c72b0"/>
     <use xlink:href="#m8d07a648cc" x="352.823273" y="278.706625" style="fill: #4c72b0; stroke: #4c72b0"/>
     <use xlink:href="#m8d07a648cc" x="353.792831" y="279.852363" style="fill: #4c72b0; stroke: #4c72b0"/>
     <use xlink:href="#m8d07a648cc" x="354.76239" y="280.014395" style="fill: #4c72b0; stroke: #4c72b0"/>
     <use xlink:href="#m8d07a648cc" x="355.731948" y="280.053347" style="fill: #4c72b0; stroke: #4c72b0"/>
     <use xlink:href="#m8d07a648cc" x="356.701506" y="280.033279" style="fill: #4c72b0; stroke: #4c72b0"/>
     <use xlink:href="#m8d07a648cc" x="357.671065" y="279.817992" style="fill: #4c72b0; stroke: #4c72b0"/>
     <use xlink:href="#m8d07a648cc" x="358.640623" y="279.394416" style="fill: #4c72b0; stroke: #4c72b0"/>
     <use xlink:href="#m8d07a648cc" x="359.610182" y="280.002246" style="fill: #4c72b0; stroke: #4c72b0"/>
     <use xlink:href="#m8d07a648cc" x="360.57974" y="280.003155" style="fill: #4c72b0; stroke: #4c72b0"/>
     <use xlink:href="#m8d07a648cc" x="361.549299" y="280.146643" style="fill: #4c72b0; stroke: #4c72b0"/>
     <use xlink:href="#m8d07a648cc" x="362.518857" y="280.128505" style="fill: #4c72b0; stroke: #4c72b0"/>
     <use xlink:href="#m8d07a648cc" x="363.488416" y="280.165271" style="fill: #4c72b0; stroke: #4c72b0"/>
     <use xlink:href="#m8d07a648cc" x="364.457974" y="280.335779" style="fill: #4c72b0; stroke: #4c72b0"/>
     <use xlink:href="#m8d07a648cc" x="365.427532" y="280.453935" style="fill: #4c72b0; stroke: #4c72b0"/>
     <use xlink:href="#m8d07a648cc" x="366.397091" y="280.515133" style="fill: #4c72b0; stroke: #4c72b0"/>
     <use xlink:href="#m8d07a648cc" x="367.366649" y="280.64576" style="fill: #4c72b0; stroke: #4c72b0"/>
     <use xlink:href="#m8d07a648cc" x="368.336208" y="280.803063" style="fill: #4c72b0; stroke: #4c72b0"/>
     <use xlink:href="#m8d07a648cc" x="369.305766" y="280.866724" style="fill: #4c72b0; stroke: #4c72b0"/>
     <use xlink:href="#m8d07a648cc" x="370.275325" y="280.999476" style="fill: #4c72b0; stroke: #4c72b0"/>
     <use xlink:href="#m8d07a648cc" x="371.244883" y="281.079127" style="fill: #4c72b0; stroke: #4c72b0"/>
     <use xlink:href="#m8d07a648cc" x="372.214442" y="281.18265" style="fill: #4c72b0; stroke: #4c72b0"/>
     <use xlink:href="#m8d07a648cc" x="373.184" y="281.228846" style="fill: #4c72b0; stroke: #4c72b0"/>
     <use xlink:href="#m8d07a648cc" x="374.153558" y="281.310502" style="fill: #4c72b0; stroke: #4c72b0"/>
     <use xlink:href="#m8d07a648cc" x="375.123117" y="281.341925" style="fill: #4c72b0; stroke: #4c72b0"/>
     <use xlink:href="#m8d07a648cc" x="376.092675" y="277.021728" style="fill: #4c72b0; stroke: #4c72b0"/>
     <use xlink:href="#m8d07a648cc" x="377.062234" y="277.101971" style="fill: #4c72b0; stroke: #4c72b0"/>
     <use xlink:href="#m8d07a648cc" x="378.031792" y="277.068247" style="fill: #4c72b0; stroke: #4c72b0"/>
     <use xlink:href="#m8d07a648cc" x="379.001351" y="277.070389" style="fill: #4c72b0; stroke: #4c72b0"/>
     <use xlink:href="#m8d07a648cc" x="380.940468" y="296.846262" style="fill: #4c72b0; stroke: #4c72b0"/>
     <use xlink:href="#m8d07a648cc" x="381.910026" y="297.412463" style="fill: #4c72b0; stroke: #4c72b0"/>
     <use xlink:href="#m8d07a648cc" x="382.879584" y="297.231431" style="fill: #4c72b0; stroke: #4c72b0"/>
     <use xlink:href="#m8d07a648cc" x="383.849143" y="296.640372" style="fill: #4c72b0; stroke: #4c72b0"/>
     <use xlink:href="#m8d07a648cc" x="384.818701" y="284.817378" style="fill: #4c72b0; stroke: #4c72b0"/>
     <use xlink:href="#m8d07a648cc" x="385.78826" y="284.950297" style="fill: #4c72b0; stroke: #4c72b0"/>
     <use xlink:href="#m8d07a648cc" x="386.757818" y="285.253641" style="fill: #4c72b0; stroke: #4c72b0"/>
     <use xlink:href="#m8d07a648cc" x="387.727377" y="285.007102" style="fill: #4c72b0; stroke: #4c72b0"/>
     <use xlink:href="#m8d07a648cc" x="388.696935" y="284.815772" style="fill: #4c72b0; stroke: #4c72b0"/>
     <use xlink:href="#m8d07a648cc" x="389.666494" y="285.556156" style="fill: #4c72b0; stroke: #4c72b0"/>
     <use xlink:href="#m8d07a648cc" x="390.636052" y="286.027278" style="fill: #4c72b0; stroke: #4c72b0"/>
     <use xlink:href="#m8d07a648cc" x="391.60561" y="281.425923" style="fill: #4c72b0; stroke: #4c72b0"/>
     <use xlink:href="#m8d07a648cc" x="392.575169" y="281.825335" style="fill: #4c72b0; stroke: #4c72b0"/>
     <use xlink:href="#m8d07a648cc" x="393.544727" y="282.664041" style="fill: #4c72b0; stroke: #4c72b0"/>
     <use xlink:href="#m8d07a648cc" x="394.514286" y="283.075084" style="fill: #4c72b0; stroke: #4c72b0"/>
     <use xlink:href="#m8d07a648cc" x="395.483844" y="283.509731" style="fill: #4c72b0; stroke: #4c72b0"/>
     <use xlink:href="#m8d07a648cc" x="396.453403" y="283.766276" style="fill: #4c72b0; stroke: #4c72b0"/>
     <use xlink:href="#m8d07a648cc" x="397.422961" y="283.709985" style="fill: #4c72b0; stroke: #4c72b0"/>
     <use xlink:href="#m8d07a648cc" x="398.392519" y="283.576842" style="fill: #4c72b0; stroke: #4c72b0"/>
     <use xlink:href="#m8d07a648cc" x="399.362078" y="284.133755" style="fill: #4c72b0; stroke: #4c72b0"/>
     <use xlink:href="#m8d07a648cc" x="400.331636" y="285.264769" style="fill: #4c72b0; stroke: #4c72b0"/>
     <use xlink:href="#m8d07a648cc" x="401.301195" y="286.298549" style="fill: #4c72b0; stroke: #4c72b0"/>
     <use xlink:href="#m8d07a648cc" x="402.270753" y="285.444302" style="fill: #4c72b0; stroke: #4c72b0"/>
     <use xlink:href="#m8d07a648cc" x="403.240312" y="285.516288" style="fill: #4c72b0; stroke: #4c72b0"/>
     <use xlink:href="#m8d07a648cc" x="404.20987" y="285.648385" style="fill: #4c72b0; stroke: #4c72b0"/>
     <use xlink:href="#m8d07a648cc" x="405.179429" y="285.973604" style="fill: #4c72b0; stroke: #4c72b0"/>
     <use xlink:href="#m8d07a648cc" x="406.148987" y="286.371785" style="fill: #4c72b0; stroke: #4c72b0"/>
     <use xlink:href="#m8d07a648cc" x="407.118545" y="285.858733" style="fill: #4c72b0; stroke: #4c72b0"/>
     <use xlink:href="#m8d07a648cc" x="408.088104" y="285.812749" style="fill: #4c72b0; stroke: #4c72b0"/>
     <use xlink:href="#m8d07a648cc" x="409.057662" y="285.755373" style="fill: #4c72b0; stroke: #4c72b0"/>
     <use xlink:href="#m8d07a648cc" x="410.027221" y="285.829229" style="fill: #4c72b0; stroke: #4c72b0"/>
     <use xlink:href="#m8d07a648cc" x="410.996779" y="285.971313" style="fill: #4c72b0; stroke: #4c72b0"/>
     <use xlink:href="#m8d07a648cc" x="411.966338" y="285.756667" style="fill: #4c72b0; stroke: #4c72b0"/>
     <use xlink:href="#m8d07a648cc" x="412.935896" y="285.795109" style="fill: #4c72b0; stroke: #4c72b0"/>
     <use xlink:href="#m8d07a648cc" x="413.905455" y="285.654134" style="fill: #4c72b0; stroke: #4c72b0"/>
     <use xlink:href="#m8d07a648cc" x="414.875013" y="285.525011" style="fill: #4c72b0; stroke: #4c72b0"/>
     <use xlink:href="#m8d07a648cc" x="415.844571" y="285.652619" style="fill: #4c72b0; stroke: #4c72b0"/>
     <use xlink:href="#m8d07a648cc" x="416.81413" y="285.571672" style="fill: #4c72b0; stroke: #4c72b0"/>
     <use xlink:href="#m8d07a648cc" x="417.783688" y="285.537209" style="fill: #4c72b0; stroke: #4c72b0"/>
     <use xlink:href="#m8d07a648cc" x="418.753247" y="285.258522" style="fill: #4c72b0; stroke: #4c72b0"/>
     <use xlink:href="#m8d07a648cc" x="419.722805" y="285.176992" style="fill: #4c72b0; stroke: #4c72b0"/>
     <use xlink:href="#m8d07a648cc" x="420.692364" y="285.083797" style="fill: #4c72b0; stroke: #4c72b0"/>
     <use xlink:href="#m8d07a648cc" x="421.661922" y="285.049345" style="fill: #4c72b0; stroke: #4c72b0"/>
     <use xlink:href="#m8d07a648cc" x="422.631481" y="284.975565" style="fill: #4c72b0; stroke: #4c72b0"/>
     <use xlink:href="#m8d07a648cc" x="423.601039" y="281.718949" style="fill: #4c72b0; stroke: #4c72b0"/>
     <use xlink:href="#m8d07a648cc" x="424.570597" y="281.576808" style="fill: #4c72b0; stroke: #4c72b0"/>
     <use xlink:href="#m8d07a648cc" x="425.540156" y="281.594905" style="fill: #4c72b0; stroke: #4c72b0"/>
     <use xlink:href="#m8d07a648cc" x="426.509714" y="281.514172" style="fill: #4c72b0; stroke: #4c72b0"/>
     <use xlink:href="#m8d07a648cc" x="427.479273" y="270.415746" style="fill: #4c72b0; stroke: #4c72b0"/>
     <use xlink:href="#m8d07a648cc" x="428.448831" y="269.991335" style="fill: #4c72b0; stroke: #4c72b0"/>
     <use xlink:href="#m8d07a648cc" x="429.41839" y="269.90242" style="fill: #4c72b0; stroke: #4c72b0"/>
     <use xlink:href="#m8d07a648cc" x="430.387948" y="270.288645" style="fill: #4c72b0; stroke: #4c72b0"/>
     <use xlink:href="#m8d07a648cc" x="433.296623" y="281.457875" style="fill: #4c72b0; stroke: #4c72b0"/>
     <use xlink:href="#m8d07a648cc" x="434.266182" y="281.094401" style="fill: #4c72b0; stroke: #4c72b0"/>
     <use xlink:href="#m8d07a648cc" x="435.23574" y="280.723571" style="fill: #4c72b0; stroke: #4c72b0"/>
     <use xlink:href="#m8d07a648cc" x="436.205299" y="285.303942" style="fill: #4c72b0; stroke: #4c72b0"/>
     <use xlink:href="#m8d07a648cc" x="437.174857" y="285.500986" style="fill: #4c72b0; stroke: #4c72b0"/>
     <use xlink:href="#m8d07a648cc" x="438.144416" y="284.78279" style="fill: #4c72b0; stroke: #4c72b0"/>
     <use xlink:href="#m8d07a648cc" x="439.113974" y="284.208202" style="fill: #4c72b0; stroke: #4c72b0"/>
     <use xlink:href="#m8d07a648cc" x="440.083532" y="285.929336" style="fill: #4c72b0; stroke: #4c72b0"/>
     <use xlink:href="#m8d07a648cc" x="441.053091" y="285.597277" style="fill: #4c72b0; stroke: #4c72b0"/>
     <use xlink:href="#m8d07a648cc" x="442.022649" y="286.912275" style="fill: #4c72b0; stroke: #4c72b0"/>
     <use xlink:href="#m8d07a648cc" x="442.992208" y="286.385354" style="fill: #4c72b0; stroke: #4c72b0"/>
     <use xlink:href="#m8d07a648cc" x="443.961766" y="286.347243" style="fill: #4c72b0; stroke: #4c72b0"/>
     <use xlink:href="#m8d07a648cc" x="444.931325" y="285.896139" style="fill: #4c72b0; stroke: #4c72b0"/>
     <use xlink:href="#m8d07a648cc" x="445.900883" y="285.906212" style="fill: #4c72b0; stroke: #4c72b0"/>
     <use xlink:href="#m8d07a648cc" x="446.870442" y="285.964427" style="fill: #4c72b0; stroke: #4c72b0"/>
     <use xlink:href="#m8d07a648cc" x="447.84" y="285.364211" style="fill: #4c72b0; stroke: #4c72b0"/>
    </g>
   </g>
   <g id="patch_18">
    <path d="M 74.56 311.94 
L 74.56 255.115 
" style="fill: none; stroke: #262626; stroke-width: 1.25; stroke-linejoin: miter; stroke-linecap: square"/>
   </g>
   <g id="patch_19">
    <path d="M 447.84 311.94 
L 447.84 255.115 
" style="fill: none; stroke: #262626; stroke-width: 1.25; stroke-linejoin: miter; stroke-linecap: square"/>
   </g>
   <g id="patch_20">
    <path d="M 74.56 311.94 
L 447.84 311.94 
" style="fill: none; stroke: #262626; stroke-width: 1.25; stroke-linejoin: miter; stroke-linecap: square"/>
   </g>
   <g id="patch_21">
    <path d="M 74.56 255.115 
L 447.84 255.115 
" style="fill: none; stroke: #262626; stroke-width: 1.25; stroke-linejoin: miter; stroke-linecap: square"/>
   </g>
  </g>
 </g>
 <defs>
  <clipPath id="pad0ce07c9c">
   <rect x="74.56" y="27.76" width="373.28" height="56.825"/>
  </clipPath>
  <clipPath id="p06fb2e72f8">
   <rect x="74.56" y="103.545" width="373.28" height="56.825"/>
  </clipPath>
  <clipPath id="p9ccceae03a">
   <rect x="74.56" y="179.33" width="373.28" height="56.825"/>
  </clipPath>
  <clipPath id="pa796c3cb4a">
   <rect x="74.56" y="255.115" width="373.28" height="56.825"/>
  </clipPath>
 </defs>
</svg>
