<?xml version="1.0" encoding="utf-8" standalone="no"?>
<!DOCTYPE svg PUBLIC "-//W3C//DTD SVG 1.1//EN"
  "http://www.w3.org/Graphics/SVG/1.1/DTD/svg11.dtd">
<svg xmlns:xlink="http://www.w3.org/1999/xlink" width="460.8pt" height="345.6pt" viewBox="0 0 460.8 345.6" xmlns="http://www.w3.org/2000/svg" version="1.1">
 <metadata>
  <rdf:RDF xmlns:dc="http://purl.org/dc/elements/1.1/" xmlns:cc="http://creativecommons.org/ns#" xmlns:rdf="http://www.w3.org/1999/02/22-rdf-syntax-ns#">
   <cc:Work>
    <dc:type rdf:resource="http://purl.org/dc/dcmitype/StillImage"/>
    <dc:date>2023-07-11T01:52:48.160574</dc:date>
    <dc:format>image/svg+xml</dc:format>
    <dc:creator>
     <cc:Agent>
      <dc:title>Matplotlib v3.7.1, https://matplotlib.org/</dc:title>
     </cc:Agent>
    </dc:creator>
   </cc:Work>
  </rdf:RDF>
 </metadata>
 <defs>
  <style type="text/css">*{stroke-linejoin: round; stroke-linecap: butt}</style>
 </defs>
 <g id="figure_1">
  <g id="patch_1">
   <path d="M 0 345.6 
L 460.8 345.6 
L 460.8 0 
L 0 0 
z
" style="fill: #ffffff"/>
  </g>
  <g id="axes_1">
   <g id="patch_2">
    <path d="M 68.46 81.753544 
L 447.84 81.753544 
L 447.84 27.76 
L 68.46 27.76 
z
" style="fill: #ffffff"/>
   </g>
   <g id="matplotlib.axis_1">
    <g id="xtick_1">
     <g id="line2d_1">
      <defs>
       <path id="m874b8bca19" d="M 0 0 
L 0 6 
" style="stroke: #262626; stroke-width: 1.25"/>
      </defs>
      <g>
       <use xlink:href="#m874b8bca19" x="120.103351" y="81.753544" style="fill: #262626; stroke: #262626; stroke-width: 1.25"/>
      </g>
     </g>
    </g>
    <g id="xtick_2">
     <g id="line2d_2">
      <g>
       <use xlink:href="#m874b8bca19" x="171.888579" y="81.753544" style="fill: #262626; stroke: #262626; stroke-width: 1.25"/>
      </g>
     </g>
    </g>
    <g id="xtick_3">
     <g id="line2d_3">
      <g>
       <use xlink:href="#m874b8bca19" x="223.673807" y="81.753544" style="fill: #262626; stroke: #262626; stroke-width: 1.25"/>
      </g>
     </g>
    </g>
    <g id="xtick_4">
     <g id="line2d_4">
      <g>
       <use xlink:href="#m874b8bca19" x="275.459035" y="81.753544" style="fill: #262626; stroke: #262626; stroke-width: 1.25"/>
      </g>
     </g>
    </g>
    <g id="xtick_5">
     <g id="line2d_5">
      <g>
       <use xlink:href="#m874b8bca19" x="327.386141" y="81.753544" style="fill: #262626; stroke: #262626; stroke-width: 1.25"/>
      </g>
     </g>
    </g>
    <g id="xtick_6">
     <g id="line2d_6">
      <g>
       <use xlink:href="#m874b8bca19" x="379.171369" y="81.753544" style="fill: #262626; stroke: #262626; stroke-width: 1.25"/>
      </g>
     </g>
    </g>
    <g id="xtick_7">
     <g id="line2d_7">
      <g>
       <use xlink:href="#m874b8bca19" x="430.956597" y="81.753544" style="fill: #262626; stroke: #262626; stroke-width: 1.25"/>
      </g>
     </g>
    </g>
   </g>
   <g id="matplotlib.axis_2">
    <g id="ytick_1">
     <g id="line2d_8">
      <defs>
       <path id="ma59218795d" d="M 0 0 
L -6 0 
" style="stroke: #262626; stroke-width: 1.25"/>
      </defs>
      <g>
       <use xlink:href="#ma59218795d" x="68.46" y="79.299292" style="fill: #262626; stroke: #262626; stroke-width: 1.25"/>
      </g>
     </g>
     <g id="text_1">
      <!-- 0 -->
      <g style="fill: #262626" transform="translate(52.842969 83.236089) scale(0.11 -0.11)">
       <defs>
        <path id="ArialMT-30" d="M 266 2259 
Q 266 3072 433 3567 
Q 600 4063 929 4331 
Q 1259 4600 1759 4600 
Q 2128 4600 2406 4451 
Q 2684 4303 2865 4023 
Q 3047 3744 3150 3342 
Q 3253 2941 3253 2259 
Q 3253 1453 3087 958 
Q 2922 463 2592 192 
Q 2263 -78 1759 -78 
Q 1097 -78 719 397 
Q 266 969 266 2259 
z
M 844 2259 
Q 844 1131 1108 757 
Q 1372 384 1759 384 
Q 2147 384 2411 759 
Q 2675 1134 2675 2259 
Q 2675 3391 2411 3762 
Q 2147 4134 1753 4134 
Q 1366 4134 1134 3806 
Q 844 3388 844 2259 
z
" transform="scale(0.015625)"/>
       </defs>
       <use xlink:href="#ArialMT-30"/>
      </g>
     </g>
    </g>
    <g id="ytick_2">
     <g id="line2d_9">
      <g>
       <use xlink:href="#ma59218795d" x="68.46" y="34.974712" style="fill: #262626; stroke: #262626; stroke-width: 1.25"/>
      </g>
     </g>
     <g id="text_2">
      <!-- 20000 -->
      <g style="fill: #262626" transform="translate(28.374844 38.911509) scale(0.11 -0.11)">
       <defs>
        <path id="ArialMT-32" d="M 3222 541 
L 3222 0 
L 194 0 
Q 188 203 259 391 
Q 375 700 629 1000 
Q 884 1300 1366 1694 
Q 2113 2306 2375 2664 
Q 2638 3022 2638 3341 
Q 2638 3675 2398 3904 
Q 2159 4134 1775 4134 
Q 1369 4134 1125 3890 
Q 881 3647 878 3216 
L 300 3275 
Q 359 3922 746 4261 
Q 1134 4600 1788 4600 
Q 2447 4600 2831 4234 
Q 3216 3869 3216 3328 
Q 3216 3053 3103 2787 
Q 2991 2522 2730 2228 
Q 2469 1934 1863 1422 
Q 1356 997 1212 845 
Q 1069 694 975 541 
L 3222 541 
z
" transform="scale(0.015625)"/>
       </defs>
       <use xlink:href="#ArialMT-32"/>
       <use xlink:href="#ArialMT-30" x="55.615234"/>
       <use xlink:href="#ArialMT-30" x="111.230469"/>
       <use xlink:href="#ArialMT-30" x="166.845703"/>
       <use xlink:href="#ArialMT-30" x="222.460938"/>
      </g>
     </g>
    </g>
   </g>
   <g id="line2d_10">
    <path d="M 68.46 68.34071 
L 69.453141 70.97331 
L 70.446283 71.785161 
L 71.439424 71.866361 
L 72.432565 75.589075 
L 73.425707 76.161112 
L 74.418848 78.73637 
L 75.41199 72.497685 
L 76.405131 67.309493 
L 77.398272 78.907019 
L 79.384555 69.629885 
L 80.377696 75.002024 
L 81.370838 75.066294 
L 82.363979 79.299292 
L 83.35712 69.140098 
L 84.350262 75.471864 
L 85.343403 72.092115 
L 86.336545 78.93583 
L 87.329686 72.211791 
L 88.322827 79.059939 
L 90.30911 74.261803 
L 91.302251 69.383883 
L 92.295393 78.468206 
L 93.288534 73.627962 
L 94.281675 65.206292 
L 96.267958 67.336088 
L 97.261099 36.481748 
L 98.254241 64.665532 
L 99.247382 70.050968 
L 100.240524 77.951825 
L 101.233665 58.827985 
L 102.226806 45.838666 
L 103.219948 77.858743 
L 104.213089 45.515097 
L 105.20623 77.931879 
L 106.199372 61.166106 
L 107.192513 56.215051 
L 108.185654 78.21334 
L 109.178796 50.328746 
L 110.171937 75.560514 
L 112.15822 68.25139 
L 113.151361 56.044401 
L 114.144503 78.519179 
L 115.137644 59.6768 
L 116.130785 78.426098 
L 117.123927 61.955084 
L 118.117068 76.245328 
L 119.110209 58.734903 
L 120.103351 73.869531 
L 121.096492 74.22856 
L 122.089634 74.966564 
L 123.082775 74.933321 
L 124.075916 75.480729 
L 125.069058 75.728947 
L 126.062199 76.380518 
L 127.05534 76.653114 
L 128.048482 77.648201 
L 129.041623 78.949128 
L 130.034764 73.583637 
L 131.027906 79.011182 
L 132.021047 77.275875 
L 133.014188 75.795434 
L 134.00733 77.481984 
L 135.000471 76.916846 
L 135.993613 77.045387 
L 136.986754 76.478032 
L 137.979895 75.768839 
L 138.973037 79.10648 
L 139.966178 75.584892 
L 140.959319 79.051074 
L 141.952461 75.380999 
L 142.945602 77.415497 
L 143.938743 78.73637 
L 144.931885 76.274139 
L 145.925026 71.396219 
L 146.918168 78.893722 
L 147.911309 66.637976 
L 148.90445 76.205436 
L 149.897592 78.68318 
L 150.890733 64.341962 
L 151.883874 78.113609 
L 152.877016 67.220844 
L 153.870157 78.674315 
L 154.863298 62.467033 
L 155.85644 78.694261 
L 156.849581 63.812284 
L 157.842723 78.541342 
L 158.835864 57.028407 
L 159.829005 77.136252 
L 160.822147 78.802857 
L 161.815288 70.61389 
L 162.808429 78.785127 
L 163.801571 64.512612 
L 164.794712 75.959435 
L 166.780995 78.811721 
L 167.774136 63.35574 
L 168.767277 75.948354 
L 169.760419 77.630471 
L 171.746702 76.431492 
L 172.739843 76.37387 
L 173.732984 76.8969 
L 174.726126 78.652153 
L 175.719267 76.15003 
L 176.712408 75.906245 
L 177.70555 74.789266 
L 178.698691 76.466951 
L 179.691832 75.642514 
L 189.623246 73.613926 
L 190.616387 75.890732 
L 191.609529 76.134517 
L 192.60267 75.711217 
L 193.595812 74.565427 
L 194.588953 73.7698 
L 195.582094 73.271149 
L 197.568377 65.758133 
L 198.561518 68.080741 
L 199.55466 69.257558 
L 200.547801 64.991317 
L 201.540942 65.538726 
L 202.534084 66.467326 
L 203.527225 63.147415 
L 204.520366 67.546629 
L 205.513508 64.789641 
L 206.506649 65.645105 
L 207.499791 56.164077 
L 208.492932 67.533332 
L 209.486073 59.087283 
L 210.479215 63.364605 
L 211.472356 65.660619 
L 212.465497 63.362389 
L 213.458639 63.428876 
L 214.45178 69.151179 
L 215.444921 62.090274 
L 216.438063 61.024268 
L 217.431204 64.275475 
L 218.424346 65.709376 
L 219.417487 64.18461 
L 220.410628 65.441212 
L 221.40377 65.897755 
L 222.396911 69.06253 
L 223.390052 78.197826 
L 225.376335 70.095293 
L 226.369476 67.435818 
L 227.362618 63.025522 
L 228.355759 66.604732 
L 229.348901 71.17238 
L 230.342042 62.688655 
L 231.335183 78.426098 
L 232.328325 62.659845 
L 233.321466 70.283672 
L 234.314607 70.520809 
L 235.307749 71.806222 
L 236.30089 72.28936 
L 237.294031 66.985924 
L 238.287173 74.155424 
L 240.273455 73.550394 
L 241.266597 74.430237 
L 242.259738 73.166986 
L 243.25288 72.870012 
L 244.246021 71.256597 
L 245.239162 70.611674 
L 246.232304 68.712366 
L 247.225445 66.196946 
L 248.218586 60.569941 
L 249.211728 58.564253 
L 250.204869 47.214945 
L 251.19801 44.728336 
L 252.191152 31.550638 
L 254.177435 34.187951 
L 255.170576 33.15962 
L 256.163717 35.870068 
L 257.156859 30.214252 
L 258.15 33.653839 
L 259.143141 44.664065 
L 260.136283 46.080235 
L 261.129424 49.555282 
L 262.122565 50.978101 
L 263.115707 53.251952 
L 264.108848 54.763421 
L 265.10199 64.654451 
L 266.095131 59.510583 
L 267.088272 61.476378 
L 268.081414 62.90363 
L 269.074555 65.973107 
L 270.067696 66.389758 
L 271.060838 67.870199 
L 272.053979 77.606093 
L 273.04712 59.450745 
L 274.040262 77.364524 
L 275.033403 74.815861 
L 276.026545 69.264207 
L 277.019686 70.075347 
L 278.012827 67.987659 
L 279.005969 70.529674 
L 279.99911 66.604732 
L 280.992251 71.17238 
L 281.985393 70.345727 
L 282.978534 70.769026 
L 283.971675 72.37136 
L 299.861937 77.464697 
L 300.855079 77.386686 
L 301.84822 77.023225 
L 302.841361 77.816635 
L 303.834503 75.988246 
L 304.827644 76.803818 
L 305.820785 77.293605 
L 306.813927 77.105225 
L 307.807068 76.763926 
L 309.793351 72.460009 
L 311.779634 73.275581 
L 312.772775 76.637601 
L 314.759058 75.983813 
L 315.752199 76.852575 
L 318.731623 72.098764 
L 319.724764 76.201004 
L 320.717906 76.378302 
L 321.711047 76.045868 
L 322.704188 75.150511 
L 323.69733 76.258626 
L 324.690471 78.485936 
L 326.676754 78.17788 
L 327.669895 78.667667 
L 328.663037 76.345059 
L 329.656178 75.454135 
L 330.649319 76.127868 
L 331.642461 75.243593 
L 332.635602 79.299292 
L 333.628743 71.218921 
L 334.621885 75.123916 
L 335.615026 75.853056 
L 336.608168 76.141166 
L 337.601309 76.755061 
L 338.59445 76.289653 
L 339.587592 75.403161 
L 340.580733 76.730682 
L 341.573874 77.235983 
L 342.567016 77.005495 
L 345.54644 77.692526 
L 346.539581 76.735115 
L 347.532723 77.470903 
L 348.525864 77.21382 
L 349.519005 77.329064 
L 351.505288 76.265274 
L 352.498429 76.564465 
L 353.491571 76.318464 
L 354.484712 75.906245 
L 355.477853 74.436885 
L 356.470995 74.977645 
L 357.464136 72.333684 
L 358.457277 75.615919 
L 359.450419 74.1111 
L 361.436702 75.318945 
L 362.429843 75.22143 
L 363.422984 75.819812 
L 364.416126 76.910197 
L 365.409267 76.280788 
L 366.402408 75.952786 
L 367.39555 75.85084 
L 368.388691 75.556081 
L 369.381832 74.962132 
L 370.374974 75.957219 
L 371.368115 74.822509 
L 372.361257 75.380999 
L 373.354398 74.760455 
L 374.347539 74.753806 
L 375.340681 74.560994 
L 376.333822 74.917807 
L 377.326963 75.817596 
L 378.320105 75.611487 
L 379.313246 79.020047 
L 380.306387 77.94296 
L 381.299529 77.448741 
L 382.29267 77.353443 
L 383.285812 77.404416 
L 384.278953 76.62652 
L 385.272094 76.987765 
L 386.265236 76.110138 
L 387.258377 76.82598 
L 388.251518 76.145598 
L 389.24466 76.236463 
L 390.237801 75.489594 
L 391.230942 76.048084 
L 392.224084 74.744941 
L 393.217225 75.990462 
L 394.210366 73.962612 
L 395.203508 74.379263 
L 396.196649 72.670551 
L 397.189791 73.94045 
L 398.182932 63.231632 
L 399.176073 78.902587 
L 400.169215 69.126801 
L 401.162356 66.642408 
L 402.155497 65.545375 
L 403.148639 50.100475 
L 404.14178 78.428314 
L 405.134921 59.975991 
L 406.128063 60.044694 
L 407.121204 57.699924 
L 408.114346 56.525323 
L 409.107487 44.045737 
L 410.100628 78.725289 
L 411.09377 58.109926 
L 412.086911 41.63448 
L 413.080052 78.614477 
L 414.073194 46.179966 
L 415.066335 78.497017 
L 416.059476 52.640273 
L 417.052618 78.749667 
L 418.045759 60.250804 
L 419.038901 78.982371 
L 420.032042 66.912788 
L 421.025183 67.220844 
L 422.018325 71.059352 
L 423.011466 68.703501 
L 424.004607 70.057617 
L 425.99089 71.116974 
L 426.984031 71.210056 
L 427.977173 70.926379 
L 428.970314 70.939676 
L 429.963455 74.822509 
L 430.956597 78.07815 
L 431.949738 78.07815 
L 432.94288 74.902294 
L 433.936021 72.690497 
L 434.929162 74.230776 
L 435.922304 72.923201 
L 436.915445 72.147521 
L 437.908586 72.145305 
L 438.901728 74.272884 
L 439.894869 73.676719 
L 440.88801 71.970223 
L 441.881152 73.931585 
L 442.874293 74.456831 
L 443.867435 75.744461 
L 444.860576 76.329545 
L 445.853717 77.107441 
L 446.846859 70.740215 
L 447.84 74.208614 
L 447.84 74.208614 
" clip-path="url(#pb2dc56ebac)" style="fill: none; stroke: #4c72b0; stroke-width: 1.5; stroke-linecap: round"/>
   </g>
   <g id="patch_3">
    <path d="M 68.46 81.753544 
L 68.46 27.76 
" style="fill: none; stroke: #262626; stroke-width: 1.25; stroke-linejoin: miter; stroke-linecap: square"/>
   </g>
   <g id="patch_4">
    <path d="M 447.84 81.753544 
L 447.84 27.76 
" style="fill: none; stroke: #262626; stroke-width: 1.25; stroke-linejoin: miter; stroke-linecap: square"/>
   </g>
   <g id="patch_5">
    <path d="M 68.46 81.753544 
L 447.84 81.753544 
" style="fill: none; stroke: #262626; stroke-width: 1.25; stroke-linejoin: miter; stroke-linecap: square"/>
   </g>
   <g id="patch_6">
    <path d="M 68.46 27.76 
L 447.84 27.76 
" style="fill: none; stroke: #262626; stroke-width: 1.25; stroke-linejoin: miter; stroke-linecap: square"/>
   </g>
   <g id="text_3">
    <!-- Dengue -->
    <g style="fill: #262626" transform="translate(237.134062 21.76) scale(0.12 -0.12)">
     <defs>
      <path id="ArialMT-44" d="M 494 0 
L 494 4581 
L 2072 4581 
Q 2606 4581 2888 4516 
Q 3281 4425 3559 4188 
Q 3922 3881 4101 3404 
Q 4281 2928 4281 2316 
Q 4281 1794 4159 1391 
Q 4038 988 3847 723 
Q 3656 459 3429 307 
Q 3203 156 2883 78 
Q 2563 0 2147 0 
L 494 0 
z
M 1100 541 
L 2078 541 
Q 2531 541 2789 625 
Q 3047 709 3200 863 
Q 3416 1078 3536 1442 
Q 3656 1806 3656 2325 
Q 3656 3044 3420 3430 
Q 3184 3816 2847 3947 
Q 2603 4041 2063 4041 
L 1100 4041 
L 1100 541 
z
" transform="scale(0.015625)"/>
      <path id="ArialMT-65" d="M 2694 1069 
L 3275 997 
Q 3138 488 2766 206 
Q 2394 -75 1816 -75 
Q 1088 -75 661 373 
Q 234 822 234 1631 
Q 234 2469 665 2931 
Q 1097 3394 1784 3394 
Q 2450 3394 2872 2941 
Q 3294 2488 3294 1666 
Q 3294 1616 3291 1516 
L 816 1516 
Q 847 969 1125 678 
Q 1403 388 1819 388 
Q 2128 388 2347 550 
Q 2566 713 2694 1069 
z
M 847 1978 
L 2700 1978 
Q 2663 2397 2488 2606 
Q 2219 2931 1791 2931 
Q 1403 2931 1139 2672 
Q 875 2413 847 1978 
z
" transform="scale(0.015625)"/>
      <path id="ArialMT-6e" d="M 422 0 
L 422 3319 
L 928 3319 
L 928 2847 
Q 1294 3394 1984 3394 
Q 2284 3394 2536 3286 
Q 2788 3178 2913 3003 
Q 3038 2828 3088 2588 
Q 3119 2431 3119 2041 
L 3119 0 
L 2556 0 
L 2556 2019 
Q 2556 2363 2490 2533 
Q 2425 2703 2258 2804 
Q 2091 2906 1866 2906 
Q 1506 2906 1245 2678 
Q 984 2450 984 1813 
L 984 0 
L 422 0 
z
" transform="scale(0.015625)"/>
      <path id="ArialMT-67" d="M 319 -275 
L 866 -356 
Q 900 -609 1056 -725 
Q 1266 -881 1628 -881 
Q 2019 -881 2231 -725 
Q 2444 -569 2519 -288 
Q 2563 -116 2559 434 
Q 2191 0 1641 0 
Q 956 0 581 494 
Q 206 988 206 1678 
Q 206 2153 378 2554 
Q 550 2956 876 3175 
Q 1203 3394 1644 3394 
Q 2231 3394 2613 2919 
L 2613 3319 
L 3131 3319 
L 3131 450 
Q 3131 -325 2973 -648 
Q 2816 -972 2473 -1159 
Q 2131 -1347 1631 -1347 
Q 1038 -1347 672 -1080 
Q 306 -813 319 -275 
z
M 784 1719 
Q 784 1066 1043 766 
Q 1303 466 1694 466 
Q 2081 466 2343 764 
Q 2606 1063 2606 1700 
Q 2606 2309 2336 2618 
Q 2066 2928 1684 2928 
Q 1309 2928 1046 2623 
Q 784 2319 784 1719 
z
" transform="scale(0.015625)"/>
      <path id="ArialMT-75" d="M 2597 0 
L 2597 488 
Q 2209 -75 1544 -75 
Q 1250 -75 995 37 
Q 741 150 617 320 
Q 494 491 444 738 
Q 409 903 409 1263 
L 409 3319 
L 972 3319 
L 972 1478 
Q 972 1038 1006 884 
Q 1059 663 1231 536 
Q 1403 409 1656 409 
Q 1909 409 2131 539 
Q 2353 669 2445 892 
Q 2538 1116 2538 1541 
L 2538 3319 
L 3100 3319 
L 3100 0 
L 2597 0 
z
" transform="scale(0.015625)"/>
     </defs>
     <use xlink:href="#ArialMT-44"/>
     <use xlink:href="#ArialMT-65" x="72.216797"/>
     <use xlink:href="#ArialMT-6e" x="127.832031"/>
     <use xlink:href="#ArialMT-67" x="183.447266"/>
     <use xlink:href="#ArialMT-75" x="239.0625"/>
     <use xlink:href="#ArialMT-65" x="294.677734"/>
    </g>
   </g>
  </g>
  <g id="axes_2">
   <g id="patch_7">
    <path d="M 68.46 158.482363 
L 447.84 158.482363 
L 447.84 104.488819 
L 68.46 104.488819 
z
" style="fill: #ffffff"/>
   </g>
   <g id="matplotlib.axis_3">
    <g id="xtick_8">
     <g id="line2d_11">
      <g>
       <use xlink:href="#m874b8bca19" x="120.103351" y="158.482363" style="fill: #262626; stroke: #262626; stroke-width: 1.25"/>
      </g>
     </g>
    </g>
    <g id="xtick_9">
     <g id="line2d_12">
      <g>
       <use xlink:href="#m874b8bca19" x="171.888579" y="158.482363" style="fill: #262626; stroke: #262626; stroke-width: 1.25"/>
      </g>
     </g>
    </g>
    <g id="xtick_10">
     <g id="line2d_13">
      <g>
       <use xlink:href="#m874b8bca19" x="223.673807" y="158.482363" style="fill: #262626; stroke: #262626; stroke-width: 1.25"/>
      </g>
     </g>
    </g>
    <g id="xtick_11">
     <g id="line2d_14">
      <g>
       <use xlink:href="#m874b8bca19" x="275.459035" y="158.482363" style="fill: #262626; stroke: #262626; stroke-width: 1.25"/>
      </g>
     </g>
    </g>
    <g id="xtick_12">
     <g id="line2d_15">
      <g>
       <use xlink:href="#m874b8bca19" x="327.386141" y="158.482363" style="fill: #262626; stroke: #262626; stroke-width: 1.25"/>
      </g>
     </g>
    </g>
    <g id="xtick_13">
     <g id="line2d_16">
      <g>
       <use xlink:href="#m874b8bca19" x="379.171369" y="158.482363" style="fill: #262626; stroke: #262626; stroke-width: 1.25"/>
      </g>
     </g>
    </g>
    <g id="xtick_14">
     <g id="line2d_17">
      <g>
       <use xlink:href="#m874b8bca19" x="430.956597" y="158.482363" style="fill: #262626; stroke: #262626; stroke-width: 1.25"/>
      </g>
     </g>
    </g>
   </g>
   <g id="matplotlib.axis_4">
    <g id="ytick_3">
     <g id="line2d_18">
      <g>
       <use xlink:href="#ma59218795d" x="68.46" y="147.467088" style="fill: #262626; stroke: #262626; stroke-width: 1.25"/>
      </g>
     </g>
     <g id="text_4">
      <!-- 2500 -->
      <g style="fill: #262626" transform="translate(34.491875 151.403885) scale(0.11 -0.11)">
       <defs>
        <path id="ArialMT-35" d="M 266 1200 
L 856 1250 
Q 922 819 1161 601 
Q 1400 384 1738 384 
Q 2144 384 2425 690 
Q 2706 997 2706 1503 
Q 2706 1984 2436 2262 
Q 2166 2541 1728 2541 
Q 1456 2541 1237 2417 
Q 1019 2294 894 2097 
L 366 2166 
L 809 4519 
L 3088 4519 
L 3088 3981 
L 1259 3981 
L 1013 2750 
Q 1425 3038 1878 3038 
Q 2478 3038 2890 2622 
Q 3303 2206 3303 1553 
Q 3303 931 2941 478 
Q 2500 -78 1738 -78 
Q 1113 -78 717 272 
Q 322 622 266 1200 
z
" transform="scale(0.015625)"/>
       </defs>
       <use xlink:href="#ArialMT-32"/>
       <use xlink:href="#ArialMT-35" x="55.615234"/>
       <use xlink:href="#ArialMT-30" x="111.230469"/>
       <use xlink:href="#ArialMT-30" x="166.845703"/>
      </g>
     </g>
    </g>
    <g id="ytick_4">
     <g id="line2d_19">
      <g>
       <use xlink:href="#ma59218795d" x="68.46" y="129.963457" style="fill: #262626; stroke: #262626; stroke-width: 1.25"/>
      </g>
     </g>
     <g id="text_5">
      <!-- 5000 -->
      <g style="fill: #262626" transform="translate(34.491875 133.900254) scale(0.11 -0.11)">
       <use xlink:href="#ArialMT-35"/>
       <use xlink:href="#ArialMT-30" x="55.615234"/>
       <use xlink:href="#ArialMT-30" x="111.230469"/>
       <use xlink:href="#ArialMT-30" x="166.845703"/>
      </g>
     </g>
    </g>
    <g id="ytick_5">
     <g id="line2d_20">
      <g>
       <use xlink:href="#ma59218795d" x="68.46" y="112.459826" style="fill: #262626; stroke: #262626; stroke-width: 1.25"/>
      </g>
     </g>
     <g id="text_6">
      <!-- 7500 -->
      <g style="fill: #262626" transform="translate(34.491875 116.396623) scale(0.11 -0.11)">
       <defs>
        <path id="ArialMT-37" d="M 303 3981 
L 303 4522 
L 3269 4522 
L 3269 4084 
Q 2831 3619 2401 2847 
Q 1972 2075 1738 1259 
Q 1569 684 1522 0 
L 944 0 
Q 953 541 1156 1306 
Q 1359 2072 1739 2783 
Q 2119 3494 2547 3981 
L 303 3981 
z
" transform="scale(0.015625)"/>
       </defs>
       <use xlink:href="#ArialMT-37"/>
       <use xlink:href="#ArialMT-35" x="55.615234"/>
       <use xlink:href="#ArialMT-30" x="111.230469"/>
       <use xlink:href="#ArialMT-30" x="166.845703"/>
      </g>
     </g>
    </g>
    <g id="text_7">
     <!-- Trend -->
     <g style="fill: #262626" transform="translate(28.106875 146.932778) rotate(-90) scale(0.12 -0.12)">
      <defs>
       <path id="ArialMT-54" d="M 1659 0 
L 1659 4041 
L 150 4041 
L 150 4581 
L 3781 4581 
L 3781 4041 
L 2266 4041 
L 2266 0 
L 1659 0 
z
" transform="scale(0.015625)"/>
       <path id="ArialMT-72" d="M 416 0 
L 416 3319 
L 922 3319 
L 922 2816 
Q 1116 3169 1280 3281 
Q 1444 3394 1641 3394 
Q 1925 3394 2219 3213 
L 2025 2691 
Q 1819 2813 1613 2813 
Q 1428 2813 1281 2702 
Q 1134 2591 1072 2394 
Q 978 2094 978 1738 
L 978 0 
L 416 0 
z
" transform="scale(0.015625)"/>
       <path id="ArialMT-64" d="M 2575 0 
L 2575 419 
Q 2259 -75 1647 -75 
Q 1250 -75 917 144 
Q 584 363 401 755 
Q 219 1147 219 1656 
Q 219 2153 384 2558 
Q 550 2963 881 3178 
Q 1213 3394 1622 3394 
Q 1922 3394 2156 3267 
Q 2391 3141 2538 2938 
L 2538 4581 
L 3097 4581 
L 3097 0 
L 2575 0 
z
M 797 1656 
Q 797 1019 1065 703 
Q 1334 388 1700 388 
Q 2069 388 2326 689 
Q 2584 991 2584 1609 
Q 2584 2291 2321 2609 
Q 2059 2928 1675 2928 
Q 1300 2928 1048 2622 
Q 797 2316 797 1656 
z
" transform="scale(0.015625)"/>
      </defs>
      <use xlink:href="#ArialMT-54"/>
      <use xlink:href="#ArialMT-72" x="57.333984"/>
      <use xlink:href="#ArialMT-65" x="90.634766"/>
      <use xlink:href="#ArialMT-6e" x="146.25"/>
      <use xlink:href="#ArialMT-64" x="201.865234"/>
     </g>
    </g>
   </g>
   <g id="line2d_21">
    <path d="M 68.46 132.012411 
L 81.370838 133.171593 
L 89.315969 134.189379 
L 104.213089 136.422342 
L 110.171937 137.502378 
L 113.151361 137.878038 
L 117.123927 138.722244 
L 122.089634 140.875721 
L 131.027906 144.789485 
L 135.000471 146.261069 
L 137.979895 147.166389 
L 140.959319 147.865913 
L 143.938743 148.350603 
L 146.918168 148.620337 
L 149.897592 148.665367 
L 152.877016 148.500655 
L 155.85644 148.143857 
L 158.835864 147.608502 
L 162.808429 146.639184 
L 166.780995 145.3865 
L 169.760419 144.257854 
L 171.746702 143.848548 
L 175.719267 142.065505 
L 179.691832 140.083738 
L 189.623246 139.567872 
L 195.582094 136.477524 
L 197.568377 135.985108 
L 201.540942 134.143549 
L 205.513508 132.527899 
L 213.458639 129.463526 
L 216.438063 127.966897 
L 219.417487 126.114914 
L 222.396911 123.916208 
L 226.369476 120.615654 
L 233.321466 114.707781 
L 236.30089 112.461283 
L 239.280314 110.52657 
L 241.266597 109.439391 
L 243.25288 108.533961 
L 245.239162 107.827183 
L 247.225445 107.328399 
L 249.211728 107.03746 
L 251.19801 106.943071 
L 253.184293 107.029611 
L 255.170576 107.289035 
L 257.156859 107.718915 
L 259.143141 108.325229 
L 261.129424 109.120723 
L 263.115707 110.12303 
L 265.10199 111.349653 
L 267.088272 112.810668 
L 269.074555 114.505089 
L 271.060838 116.421268 
L 274.040262 119.676113 
L 277.019686 123.320746 
L 280.992251 128.583924 
L 283.971675 132.644488 
L 299.861937 133.986748 
L 303.834503 139.114302 
L 306.813927 142.513607 
L 307.807068 143.531474 
L 311.779634 145.375504 
L 313.765916 146.964649 
L 315.752199 148.323287 
L 318.731623 148.927855 
L 321.711047 150.506985 
L 324.690471 151.838143 
L 326.676754 152.243325 
L 330.649319 153.702499 
L 333.628743 154.611225 
L 336.608168 155.320985 
L 339.587592 155.797027 
L 342.567016 156.013798 
L 345.54644 155.976569 
L 348.525864 155.724594 
L 352.498429 155.141301 
L 357.464136 154.168425 
L 369.381832 151.532141 
L 373.354398 150.379577 
L 376.333822 149.292281 
L 379.313246 147.999169 
L 383.285812 145.99149 
L 388.251518 143.158167 
L 397.189791 137.922334 
L 401.162356 135.885576 
L 402.155497 135.428138 
L 405.134921 134.887875 
L 414.073194 133.715752 
L 423.011466 132.707545 
L 429.963455 132.152648 
L 435.922304 131.881928 
L 441.881152 131.812312 
L 447.84 131.937369 
L 447.84 131.937369 
" clip-path="url(#p656c12d697)" style="fill: none; stroke: #4c72b0; stroke-width: 1.5; stroke-linecap: round"/>
   </g>
   <g id="patch_8">
    <path d="M 68.46 158.482363 
L 68.46 104.488819 
" style="fill: none; stroke: #262626; stroke-width: 1.25; stroke-linejoin: miter; stroke-linecap: square"/>
   </g>
   <g id="patch_9">
    <path d="M 447.84 158.482363 
L 447.84 104.488819 
" style="fill: none; stroke: #262626; stroke-width: 1.25; stroke-linejoin: miter; stroke-linecap: square"/>
   </g>
   <g id="patch_10">
    <path d="M 68.46 158.482363 
L 447.84 158.482363 
" style="fill: none; stroke: #262626; stroke-width: 1.25; stroke-linejoin: miter; stroke-linecap: square"/>
   </g>
   <g id="patch_11">
    <path d="M 68.46 104.488819 
L 447.84 104.488819 
" style="fill: none; stroke: #262626; stroke-width: 1.25; stroke-linejoin: miter; stroke-linecap: square"/>
   </g>
  </g>
  <g id="axes_3">
   <g id="patch_12">
    <path d="M 68.46 235.211181 
L 447.84 235.211181 
L 447.84 181.217637 
L 68.46 181.217637 
z
" style="fill: #ffffff"/>
   </g>
   <g id="matplotlib.axis_5">
    <g id="xtick_15">
     <g id="line2d_22">
      <g>
       <use xlink:href="#m874b8bca19" x="120.103351" y="235.211181" style="fill: #262626; stroke: #262626; stroke-width: 1.25"/>
      </g>
     </g>
    </g>
    <g id="xtick_16">
     <g id="line2d_23">
      <g>
       <use xlink:href="#m874b8bca19" x="171.888579" y="235.211181" style="fill: #262626; stroke: #262626; stroke-width: 1.25"/>
      </g>
     </g>
    </g>
    <g id="xtick_17">
     <g id="line2d_24">
      <g>
       <use xlink:href="#m874b8bca19" x="223.673807" y="235.211181" style="fill: #262626; stroke: #262626; stroke-width: 1.25"/>
      </g>
     </g>
    </g>
    <g id="xtick_18">
     <g id="line2d_25">
      <g>
       <use xlink:href="#m874b8bca19" x="275.459035" y="235.211181" style="fill: #262626; stroke: #262626; stroke-width: 1.25"/>
      </g>
     </g>
    </g>
    <g id="xtick_19">
     <g id="line2d_26">
      <g>
       <use xlink:href="#m874b8bca19" x="327.386141" y="235.211181" style="fill: #262626; stroke: #262626; stroke-width: 1.25"/>
      </g>
     </g>
    </g>
    <g id="xtick_20">
     <g id="line2d_27">
      <g>
       <use xlink:href="#m874b8bca19" x="379.171369" y="235.211181" style="fill: #262626; stroke: #262626; stroke-width: 1.25"/>
      </g>
     </g>
    </g>
    <g id="xtick_21">
     <g id="line2d_28">
      <g>
       <use xlink:href="#m874b8bca19" x="430.956597" y="235.211181" style="fill: #262626; stroke: #262626; stroke-width: 1.25"/>
      </g>
     </g>
    </g>
   </g>
   <g id="matplotlib.axis_6">
    <g id="ytick_6">
     <g id="line2d_29">
      <g>
       <use xlink:href="#ma59218795d" x="68.46" y="219.053282" style="fill: #262626; stroke: #262626; stroke-width: 1.25"/>
      </g>
     </g>
     <g id="text_8">
      <!-- 0 -->
      <g style="fill: #262626" transform="translate(52.842969 222.990079) scale(0.11 -0.11)">
       <use xlink:href="#ArialMT-30"/>
      </g>
     </g>
    </g>
    <g id="ytick_7">
     <g id="line2d_30">
      <g>
       <use xlink:href="#ma59218795d" x="68.46" y="181.800712" style="fill: #262626; stroke: #262626; stroke-width: 1.25"/>
      </g>
     </g>
     <g id="text_9">
      <!-- 10000 -->
      <g style="fill: #262626" transform="translate(28.374844 185.737509) scale(0.11 -0.11)">
       <defs>
        <path id="ArialMT-31" d="M 2384 0 
L 1822 0 
L 1822 3584 
Q 1619 3391 1289 3197 
Q 959 3003 697 2906 
L 697 3450 
Q 1169 3672 1522 3987 
Q 1875 4303 2022 4600 
L 2384 4600 
L 2384 0 
z
" transform="scale(0.015625)"/>
       </defs>
       <use xlink:href="#ArialMT-31"/>
       <use xlink:href="#ArialMT-30" x="55.615234"/>
       <use xlink:href="#ArialMT-30" x="111.230469"/>
       <use xlink:href="#ArialMT-30" x="166.845703"/>
       <use xlink:href="#ArialMT-30" x="222.460938"/>
      </g>
     </g>
    </g>
    <g id="text_10">
     <!-- Season -->
     <g style="fill: #262626" transform="translate(21.989844 228.562847) rotate(-90) scale(0.12 -0.12)">
      <defs>
       <path id="ArialMT-53" d="M 288 1472 
L 859 1522 
Q 900 1178 1048 958 
Q 1197 738 1509 602 
Q 1822 466 2213 466 
Q 2559 466 2825 569 
Q 3091 672 3220 851 
Q 3350 1031 3350 1244 
Q 3350 1459 3225 1620 
Q 3100 1781 2813 1891 
Q 2628 1963 1997 2114 
Q 1366 2266 1113 2400 
Q 784 2572 623 2826 
Q 463 3081 463 3397 
Q 463 3744 659 4045 
Q 856 4347 1234 4503 
Q 1613 4659 2075 4659 
Q 2584 4659 2973 4495 
Q 3363 4331 3572 4012 
Q 3781 3694 3797 3291 
L 3216 3247 
Q 3169 3681 2898 3903 
Q 2628 4125 2100 4125 
Q 1550 4125 1298 3923 
Q 1047 3722 1047 3438 
Q 1047 3191 1225 3031 
Q 1400 2872 2139 2705 
Q 2878 2538 3153 2413 
Q 3553 2228 3743 1945 
Q 3934 1663 3934 1294 
Q 3934 928 3725 604 
Q 3516 281 3123 101 
Q 2731 -78 2241 -78 
Q 1619 -78 1198 103 
Q 778 284 539 648 
Q 300 1013 288 1472 
z
" transform="scale(0.015625)"/>
       <path id="ArialMT-61" d="M 2588 409 
Q 2275 144 1986 34 
Q 1697 -75 1366 -75 
Q 819 -75 525 192 
Q 231 459 231 875 
Q 231 1119 342 1320 
Q 453 1522 633 1644 
Q 813 1766 1038 1828 
Q 1203 1872 1538 1913 
Q 2219 1994 2541 2106 
Q 2544 2222 2544 2253 
Q 2544 2597 2384 2738 
Q 2169 2928 1744 2928 
Q 1347 2928 1158 2789 
Q 969 2650 878 2297 
L 328 2372 
Q 403 2725 575 2942 
Q 747 3159 1072 3276 
Q 1397 3394 1825 3394 
Q 2250 3394 2515 3294 
Q 2781 3194 2906 3042 
Q 3031 2891 3081 2659 
Q 3109 2516 3109 2141 
L 3109 1391 
Q 3109 606 3145 398 
Q 3181 191 3288 0 
L 2700 0 
Q 2613 175 2588 409 
z
M 2541 1666 
Q 2234 1541 1622 1453 
Q 1275 1403 1131 1340 
Q 988 1278 909 1158 
Q 831 1038 831 891 
Q 831 666 1001 516 
Q 1172 366 1500 366 
Q 1825 366 2078 508 
Q 2331 650 2450 897 
Q 2541 1088 2541 1459 
L 2541 1666 
z
" transform="scale(0.015625)"/>
       <path id="ArialMT-73" d="M 197 991 
L 753 1078 
Q 800 744 1014 566 
Q 1228 388 1613 388 
Q 2000 388 2187 545 
Q 2375 703 2375 916 
Q 2375 1106 2209 1216 
Q 2094 1291 1634 1406 
Q 1016 1563 777 1677 
Q 538 1791 414 1992 
Q 291 2194 291 2438 
Q 291 2659 392 2848 
Q 494 3038 669 3163 
Q 800 3259 1026 3326 
Q 1253 3394 1513 3394 
Q 1903 3394 2198 3281 
Q 2494 3169 2634 2976 
Q 2775 2784 2828 2463 
L 2278 2388 
Q 2241 2644 2061 2787 
Q 1881 2931 1553 2931 
Q 1166 2931 1000 2803 
Q 834 2675 834 2503 
Q 834 2394 903 2306 
Q 972 2216 1119 2156 
Q 1203 2125 1616 2013 
Q 2213 1853 2448 1751 
Q 2684 1650 2818 1456 
Q 2953 1263 2953 975 
Q 2953 694 2789 445 
Q 2625 197 2315 61 
Q 2006 -75 1616 -75 
Q 969 -75 630 194 
Q 291 463 197 991 
z
" transform="scale(0.015625)"/>
       <path id="ArialMT-6f" d="M 213 1659 
Q 213 2581 725 3025 
Q 1153 3394 1769 3394 
Q 2453 3394 2887 2945 
Q 3322 2497 3322 1706 
Q 3322 1066 3130 698 
Q 2938 331 2570 128 
Q 2203 -75 1769 -75 
Q 1072 -75 642 372 
Q 213 819 213 1659 
z
M 791 1659 
Q 791 1022 1069 705 
Q 1347 388 1769 388 
Q 2188 388 2466 706 
Q 2744 1025 2744 1678 
Q 2744 2294 2464 2611 
Q 2184 2928 1769 2928 
Q 1347 2928 1069 2612 
Q 791 2297 791 1659 
z
" transform="scale(0.015625)"/>
      </defs>
      <use xlink:href="#ArialMT-53"/>
      <use xlink:href="#ArialMT-65" x="66.699219"/>
      <use xlink:href="#ArialMT-61" x="122.314453"/>
      <use xlink:href="#ArialMT-73" x="177.929688"/>
      <use xlink:href="#ArialMT-6f" x="227.929688"/>
      <use xlink:href="#ArialMT-6e" x="283.544922"/>
     </g>
    </g>
   </g>
   <g id="line2d_31">
    <path d="M 68.46 212.040768 
L 69.453141 217.973544 
L 70.446283 222.990724 
L 71.439424 224.642585 
L 72.432565 227.759863 
L 74.418848 231.16472 
L 75.41199 227.037916 
L 76.405131 219.841135 
L 77.398272 232.756929 
L 79.384555 223.398702 
L 80.377696 225.653811 
L 81.370838 228.549286 
L 82.363979 230.894539 
L 83.35712 219.869784 
L 84.350262 227.690582 
L 85.343403 223.837389 
L 86.336545 230.944424 
L 87.329686 222.980114 
L 88.322827 229.821532 
L 89.315969 227.55463 
L 90.30911 224.129162 
L 91.302251 221.59955 
L 92.295393 227.397821 
L 93.288534 223.884427 
L 94.281675 216.912286 
L 96.267958 216.695665 
L 97.261099 183.671889 
L 98.254241 216.905778 
L 99.247382 214.607257 
L 100.240524 226.890718 
L 101.233665 211.338355 
L 102.226806 186.100037 
L 103.219948 229.564065 
L 104.213089 188.185849 
L 105.20623 229.237758 
L 106.199372 200.997909 
L 107.192513 208.029155 
L 108.185654 219.349783 
L 109.178796 199.290145 
L 110.171937 211.309677 
L 112.15822 219.046832 
L 113.151361 206.171857 
L 114.144503 224.629801 
L 115.137644 210.159144 
L 116.130785 221.216878 
L 117.123927 213.888433 
L 118.117068 228.304231 
L 119.110209 214.821337 
L 121.096492 223.176483 
L 122.089634 224.659014 
L 123.082775 227.409307 
L 124.075916 226.646403 
L 125.069058 231.213929 
L 126.062199 225.448615 
L 127.05534 222.600371 
L 128.048482 230.678117 
L 129.041623 225.06977 
L 130.034764 226.533489 
L 131.027906 228.312691 
L 132.021047 230.647591 
L 133.014188 223.932356 
L 134.00733 229.037897 
L 135.000471 226.474626 
L 135.993613 230.495598 
L 136.986754 225.412282 
L 137.979895 229.139481 
L 138.973037 226.521484 
L 139.966178 223.578974 
L 140.959319 222.16695 
L 141.952461 223.92456 
L 142.945602 221.626003 
L 143.938743 215.267655 
L 144.931885 213.86786 
L 145.925026 190.381126 
L 146.918168 212.108118 
L 147.911309 209.859959 
L 148.90445 216.508075 
L 149.897592 209.558767 
L 150.890733 189.809468 
L 151.883874 220.042635 
L 152.877016 195.697467 
L 153.870157 222.369082 
L 154.863298 203.53435 
L 155.85644 210.81132 
L 156.849581 215.579593 
L 157.842723 204.62672 
L 158.835864 212.976304 
L 159.829005 218.07876 
L 160.822147 210.782006 
L 161.815288 222.066947 
L 162.808429 214.565396 
L 163.801571 220.764541 
L 164.794712 219.248946 
L 165.787853 229.434848 
L 166.780995 216.646994 
L 167.774136 220.478883 
L 168.767277 223.565847 
L 169.760419 224.502371 
L 171.746702 226.846559 
L 172.739843 223.84847 
L 173.732984 230.745462 
L 174.726126 223.651586 
L 175.719267 224.889383 
L 176.712408 228.41726 
L 177.70555 226.300755 
L 178.698691 226.885621 
L 179.691832 228.020861 
L 189.623246 230.187871 
L 190.616387 227.317188 
L 191.609529 229.865306 
L 192.60267 228.414834 
L 193.595812 229.577879 
L 194.588953 227.298102 
L 195.582094 228.10988 
L 197.568377 225.553084 
L 198.561518 222.805735 
L 199.55466 222.490858 
L 200.547801 220.911383 
L 201.540942 219.795599 
L 202.534084 214.241607 
L 203.527225 211.94247 
L 204.520366 197.251297 
L 205.513508 208.561434 
L 206.506649 206.129696 
L 207.499791 208.113338 
L 208.492932 208.52952 
L 209.486073 194.331695 
L 210.479215 212.155552 
L 211.472356 203.138134 
L 212.465497 216.619338 
L 213.458639 206.196456 
L 214.45178 213.566659 
L 215.444921 212.354784 
L 216.438063 210.119181 
L 217.431204 214.508784 
L 218.424346 217.153076 
L 219.417487 215.226075 
L 220.410628 219.671792 
L 221.40377 218.640075 
L 222.396911 220.032636 
L 223.390052 223.554264 
L 224.383194 229.749107 
L 225.376335 219.361054 
L 227.362618 223.981912 
L 228.355759 224.196997 
L 229.348901 226.263647 
L 230.342042 221.368968 
L 231.335183 230.157593 
L 232.328325 221.837168 
L 233.321466 226.398445 
L 234.314607 226.22616 
L 235.307749 226.662138 
L 236.30089 227.304283 
L 237.294031 227.532619 
L 238.287173 229.736332 
L 240.273455 230.403336 
L 241.266597 229.838617 
L 242.259738 228.649362 
L 243.25288 228.817321 
L 244.246021 227.357441 
L 245.239162 224.319789 
L 246.232304 222.039556 
L 247.225445 222.239864 
L 248.218586 218.607323 
L 249.211728 218.237515 
L 250.204869 213.136972 
L 251.19801 210.400174 
L 252.191152 203.038138 
L 253.184293 205.44731 
L 254.177435 204.358725 
L 255.170576 201.393866 
L 256.163717 207.424468 
L 257.156859 199.195967 
L 258.15 205.85127 
L 259.143141 210.168066 
L 260.136283 211.944744 
L 261.129424 209.96227 
L 262.122565 215.589883 
L 263.115707 211.375739 
L 264.108848 214.294077 
L 265.10199 218.396975 
L 266.095131 216.328887 
L 267.088272 218.548527 
L 268.081414 218.70602 
L 269.074555 221.733881 
L 270.067696 221.206412 
L 271.060838 227.417688 
L 272.053979 230.233084 
L 273.04712 220.503803 
L 274.040262 225.619103 
L 275.033403 224.362692 
L 276.026545 223.67461 
L 277.019686 225.69668 
L 278.012827 221.310162 
L 279.005969 228.62858 
L 279.99911 220.59495 
L 280.992251 225.236448 
L 281.985393 225.129944 
L 282.978534 223.631871 
L 283.971675 227.268988 
L 299.861937 225.748987 
L 300.855079 226.024375 
L 301.84822 225.71804 
L 302.841361 221.02847 
L 303.834503 228.863695 
L 304.827644 222.120658 
L 305.820785 223.261845 
L 307.807068 219.266418 
L 309.793351 213.876759 
L 311.779634 223.751461 
L 312.772775 216.211415 
L 313.765916 211.2854 
L 314.759058 218.00424 
L 315.752199 207.098405 
L 318.731623 210.758953 
L 319.724764 205.011501 
L 320.717906 212.287016 
L 321.711047 205.301071 
L 322.704188 213.519139 
L 323.69733 206.002285 
L 324.690471 209.63583 
L 326.676754 214.229183 
L 327.669895 214.305966 
L 328.663037 214.176221 
L 329.656178 217.074041 
L 330.649319 215.700109 
L 331.642461 217.861871 
L 332.635602 221.723071 
L 333.628743 218.214776 
L 334.621885 221.219558 
L 336.608168 224.184005 
L 337.601309 223.643426 
L 338.59445 225.713057 
L 339.587592 228.549996 
L 340.580733 221.469275 
L 341.573874 226.069146 
L 342.567016 224.594643 
L 343.560157 224.516968 
L 344.553298 225.157986 
L 345.54644 222.633973 
L 346.539581 226.452491 
L 347.532723 222.299305 
L 348.525864 225.012574 
L 349.519005 225.468153 
L 350.512147 221.691721 
L 351.505288 226.46977 
L 352.498429 224.287719 
L 353.491571 221.340807 
L 354.484712 220.303227 
L 355.477853 209.555014 
L 356.470995 227.948298 
L 357.464136 214.462114 
L 358.457277 216.273549 
L 359.450419 213.598184 
L 360.44356 212.729288 
L 361.436702 203.069659 
L 362.429843 225.669793 
L 363.422984 212.633191 
L 364.416126 201.868848 
L 365.409267 223.951368 
L 366.402408 202.307349 
L 367.39555 219.91345 
L 368.388691 204.213112 
L 369.381832 221.558236 
L 370.374974 209.318552 
L 371.368115 221.347653 
L 372.361257 213.24413 
L 373.354398 214.330429 
L 374.347539 218.714657 
L 375.340681 217.270147 
L 376.333822 218.348763 
L 377.326963 218.995004 
L 378.320105 219.914585 
L 379.313246 221.454787 
L 380.306387 224.088166 
L 381.299529 219.980917 
L 382.29267 224.129499 
L 383.285812 226.946169 
L 384.278953 227.053555 
L 385.272094 225.717946 
L 386.265236 223.90434 
L 387.258377 226.473117 
L 388.251518 222.768582 
L 389.24466 225.553015 
L 390.237801 224.455982 
L 391.230942 225.39897 
L 393.217225 223.829977 
L 394.210366 224.440707 
L 395.203508 224.366626 
L 396.196649 225.168433 
L 397.189791 226.148262 
L 398.182932 221.09364 
L 399.176073 225.045008 
L 400.169215 223.158237 
L 401.162356 215.769165 
L 402.155497 214.029531 
L 403.148639 196.805288 
L 404.14178 226.591566 
L 405.134921 205.809004 
L 406.128063 208.333642 
L 407.121204 205.01296 
L 408.114346 205.165414 
L 409.107487 191.199947 
L 410.100628 227.655287 
L 411.09377 208.464524 
L 412.086911 191.617667 
L 413.080052 230.618637 
L 414.073194 197.287907 
L 415.066335 230.520446 
L 416.059476 204.020675 
L 417.052618 231.806635 
L 418.045759 213.925936 
L 419.038901 230.518516 
L 420.032042 221.172642 
L 421.025183 219.892263 
L 422.018325 223.53217 
L 423.011466 220.658138 
L 424.004607 222.597751 
L 424.997749 221.558865 
L 425.99089 224.153955 
L 426.984031 225.487234 
L 427.977173 225.810824 
L 428.970314 222.284795 
L 429.963455 227.425594 
L 430.956597 231.391131 
L 431.949738 230.237638 
L 432.94288 227.736624 
L 433.936021 222.438684 
L 434.929162 224.403371 
L 435.922304 224.702067 
L 436.915445 224.470334 
L 437.908586 224.093468 
L 438.901728 226.505799 
L 439.894869 224.437146 
L 440.88801 225.166379 
L 441.881152 222.9263 
L 442.874293 226.801391 
L 443.867435 225.657609 
L 444.860576 227.266335 
L 445.853717 220.774085 
L 446.846859 224.101104 
L 447.84 222.058227 
L 447.84 222.058227 
" clip-path="url(#pc581deaba5)" style="fill: none; stroke: #4c72b0; stroke-width: 1.5; stroke-linecap: round"/>
   </g>
   <g id="patch_13">
    <path d="M 68.46 235.211181 
L 68.46 181.217637 
" style="fill: none; stroke: #262626; stroke-width: 1.25; stroke-linejoin: miter; stroke-linecap: square"/>
   </g>
   <g id="patch_14">
    <path d="M 447.84 235.211181 
L 447.84 181.217637 
" style="fill: none; stroke: #262626; stroke-width: 1.25; stroke-linejoin: miter; stroke-linecap: square"/>
   </g>
   <g id="patch_15">
    <path d="M 68.46 235.211181 
L 447.84 235.211181 
" style="fill: none; stroke: #262626; stroke-width: 1.25; stroke-linejoin: miter; stroke-linecap: square"/>
   </g>
   <g id="patch_16">
    <path d="M 68.46 181.217637 
L 447.84 181.217637 
" style="fill: none; stroke: #262626; stroke-width: 1.25; stroke-linejoin: miter; stroke-linecap: square"/>
   </g>
  </g>
  <g id="axes_4">
   <g id="patch_17">
    <path d="M 68.46 311.94 
L 447.84 311.94 
L 447.84 257.946456 
L 68.46 257.946456 
z
" style="fill: #ffffff"/>
   </g>
   <g id="line2d_32">
    <path d="M 68.46 288.983037 
L 447.84 288.983037 
" clip-path="url(#pfaa69d720e)" style="fill: none; stroke: #000000; stroke-width: 1.5; stroke-linecap: round"/>
   </g>
   <g id="matplotlib.axis_7">
    <g id="xtick_22">
     <g id="line2d_33">
      <g>
       <use xlink:href="#m874b8bca19" x="120.103351" y="311.94" style="fill: #262626; stroke: #262626; stroke-width: 1.25"/>
      </g>
     </g>
     <g id="text_11">
      <!-- 2017 -->
      <g style="fill: #262626" transform="translate(107.869288 329.313594) scale(0.11 -0.11)">
       <use xlink:href="#ArialMT-32"/>
       <use xlink:href="#ArialMT-30" x="55.615234"/>
       <use xlink:href="#ArialMT-31" x="111.230469"/>
       <use xlink:href="#ArialMT-37" x="166.845703"/>
      </g>
     </g>
    </g>
    <g id="xtick_23">
     <g id="line2d_34">
      <g>
       <use xlink:href="#m874b8bca19" x="171.888579" y="311.94" style="fill: #262626; stroke: #262626; stroke-width: 1.25"/>
      </g>
     </g>
     <g id="text_12">
      <!-- 2018 -->
      <g style="fill: #262626" transform="translate(159.654516 329.313594) scale(0.11 -0.11)">
       <defs>
        <path id="ArialMT-38" d="M 1131 2484 
Q 781 2613 612 2850 
Q 444 3088 444 3419 
Q 444 3919 803 4259 
Q 1163 4600 1759 4600 
Q 2359 4600 2725 4251 
Q 3091 3903 3091 3403 
Q 3091 3084 2923 2848 
Q 2756 2613 2416 2484 
Q 2838 2347 3058 2040 
Q 3278 1734 3278 1309 
Q 3278 722 2862 322 
Q 2447 -78 1769 -78 
Q 1091 -78 675 323 
Q 259 725 259 1325 
Q 259 1772 486 2073 
Q 713 2375 1131 2484 
z
M 1019 3438 
Q 1019 3113 1228 2906 
Q 1438 2700 1772 2700 
Q 2097 2700 2305 2904 
Q 2513 3109 2513 3406 
Q 2513 3716 2298 3927 
Q 2084 4138 1766 4138 
Q 1444 4138 1231 3931 
Q 1019 3725 1019 3438 
z
M 838 1322 
Q 838 1081 952 856 
Q 1066 631 1291 507 
Q 1516 384 1775 384 
Q 2178 384 2440 643 
Q 2703 903 2703 1303 
Q 2703 1709 2433 1975 
Q 2163 2241 1756 2241 
Q 1359 2241 1098 1978 
Q 838 1716 838 1322 
z
" transform="scale(0.015625)"/>
       </defs>
       <use xlink:href="#ArialMT-32"/>
       <use xlink:href="#ArialMT-30" x="55.615234"/>
       <use xlink:href="#ArialMT-31" x="111.230469"/>
       <use xlink:href="#ArialMT-38" x="166.845703"/>
      </g>
     </g>
    </g>
    <g id="xtick_24">
     <g id="line2d_35">
      <g>
       <use xlink:href="#m874b8bca19" x="223.673807" y="311.94" style="fill: #262626; stroke: #262626; stroke-width: 1.25"/>
      </g>
     </g>
     <g id="text_13">
      <!-- 2019 -->
      <g style="fill: #262626" transform="translate(211.439745 329.313594) scale(0.11 -0.11)">
       <defs>
        <path id="ArialMT-39" d="M 350 1059 
L 891 1109 
Q 959 728 1153 556 
Q 1347 384 1650 384 
Q 1909 384 2104 503 
Q 2300 622 2425 820 
Q 2550 1019 2634 1356 
Q 2719 1694 2719 2044 
Q 2719 2081 2716 2156 
Q 2547 1888 2255 1720 
Q 1963 1553 1622 1553 
Q 1053 1553 659 1965 
Q 266 2378 266 3053 
Q 266 3750 677 4175 
Q 1088 4600 1706 4600 
Q 2153 4600 2523 4359 
Q 2894 4119 3086 3673 
Q 3278 3228 3278 2384 
Q 3278 1506 3087 986 
Q 2897 466 2520 194 
Q 2144 -78 1638 -78 
Q 1100 -78 759 220 
Q 419 519 350 1059 
z
M 2653 3081 
Q 2653 3566 2395 3850 
Q 2138 4134 1775 4134 
Q 1400 4134 1122 3828 
Q 844 3522 844 3034 
Q 844 2597 1108 2323 
Q 1372 2050 1759 2050 
Q 2150 2050 2401 2323 
Q 2653 2597 2653 3081 
z
" transform="scale(0.015625)"/>
       </defs>
       <use xlink:href="#ArialMT-32"/>
       <use xlink:href="#ArialMT-30" x="55.615234"/>
       <use xlink:href="#ArialMT-31" x="111.230469"/>
       <use xlink:href="#ArialMT-39" x="166.845703"/>
      </g>
     </g>
    </g>
    <g id="xtick_25">
     <g id="line2d_36">
      <g>
       <use xlink:href="#m874b8bca19" x="275.459035" y="311.94" style="fill: #262626; stroke: #262626; stroke-width: 1.25"/>
      </g>
     </g>
     <g id="text_14">
      <!-- 2020 -->
      <g style="fill: #262626" transform="translate(263.224973 329.313594) scale(0.11 -0.11)">
       <use xlink:href="#ArialMT-32"/>
       <use xlink:href="#ArialMT-30" x="55.615234"/>
       <use xlink:href="#ArialMT-32" x="111.230469"/>
       <use xlink:href="#ArialMT-30" x="166.845703"/>
      </g>
     </g>
    </g>
    <g id="xtick_26">
     <g id="line2d_37">
      <g>
       <use xlink:href="#m874b8bca19" x="327.386141" y="311.94" style="fill: #262626; stroke: #262626; stroke-width: 1.25"/>
      </g>
     </g>
     <g id="text_15">
      <!-- 2021 -->
      <g style="fill: #262626" transform="translate(315.152078 329.313594) scale(0.11 -0.11)">
       <use xlink:href="#ArialMT-32"/>
       <use xlink:href="#ArialMT-30" x="55.615234"/>
       <use xlink:href="#ArialMT-32" x="111.230469"/>
       <use xlink:href="#ArialMT-31" x="166.845703"/>
      </g>
     </g>
    </g>
    <g id="xtick_27">
     <g id="line2d_38">
      <g>
       <use xlink:href="#m874b8bca19" x="379.171369" y="311.94" style="fill: #262626; stroke: #262626; stroke-width: 1.25"/>
      </g>
     </g>
     <g id="text_16">
      <!-- 2022 -->
      <g style="fill: #262626" transform="translate(366.937306 329.313594) scale(0.11 -0.11)">
       <use xlink:href="#ArialMT-32"/>
       <use xlink:href="#ArialMT-30" x="55.615234"/>
       <use xlink:href="#ArialMT-32" x="111.230469"/>
       <use xlink:href="#ArialMT-32" x="166.845703"/>
      </g>
     </g>
    </g>
    <g id="xtick_28">
     <g id="line2d_39">
      <g>
       <use xlink:href="#m874b8bca19" x="430.956597" y="311.94" style="fill: #262626; stroke: #262626; stroke-width: 1.25"/>
      </g>
     </g>
     <g id="text_17">
      <!-- 2023 -->
      <g style="fill: #262626" transform="translate(418.722534 329.313594) scale(0.11 -0.11)">
       <defs>
        <path id="ArialMT-33" d="M 269 1209 
L 831 1284 
Q 928 806 1161 595 
Q 1394 384 1728 384 
Q 2125 384 2398 659 
Q 2672 934 2672 1341 
Q 2672 1728 2419 1979 
Q 2166 2231 1775 2231 
Q 1616 2231 1378 2169 
L 1441 2663 
Q 1497 2656 1531 2656 
Q 1891 2656 2178 2843 
Q 2466 3031 2466 3422 
Q 2466 3731 2256 3934 
Q 2047 4138 1716 4138 
Q 1388 4138 1169 3931 
Q 950 3725 888 3313 
L 325 3413 
Q 428 3978 793 4289 
Q 1159 4600 1703 4600 
Q 2078 4600 2393 4439 
Q 2709 4278 2876 4000 
Q 3044 3722 3044 3409 
Q 3044 3113 2884 2869 
Q 2725 2625 2413 2481 
Q 2819 2388 3044 2092 
Q 3269 1797 3269 1353 
Q 3269 753 2831 336 
Q 2394 -81 1725 -81 
Q 1122 -81 723 278 
Q 325 638 269 1209 
z
" transform="scale(0.015625)"/>
       </defs>
       <use xlink:href="#ArialMT-32"/>
       <use xlink:href="#ArialMT-30" x="55.615234"/>
       <use xlink:href="#ArialMT-32" x="111.230469"/>
       <use xlink:href="#ArialMT-33" x="166.845703"/>
      </g>
     </g>
    </g>
   </g>
   <g id="matplotlib.axis_8">
    <g id="ytick_8">
     <g id="line2d_40">
      <g>
       <use xlink:href="#ma59218795d" x="68.46" y="304.814512" style="fill: #262626; stroke: #262626; stroke-width: 1.25"/>
      </g>
     </g>
     <g id="text_18">
      <!-- −5000 -->
      <g style="fill: #262626" transform="translate(28.067187 308.751309) scale(0.11 -0.11)">
       <defs>
        <path id="ArialMT-2212" d="M 3381 1997 
L 356 1997 
L 356 2522 
L 3381 2522 
L 3381 1997 
z
" transform="scale(0.015625)"/>
       </defs>
       <use xlink:href="#ArialMT-2212"/>
       <use xlink:href="#ArialMT-35" x="58.398438"/>
       <use xlink:href="#ArialMT-30" x="114.013672"/>
       <use xlink:href="#ArialMT-30" x="169.628906"/>
       <use xlink:href="#ArialMT-30" x="225.244141"/>
      </g>
     </g>
    </g>
    <g id="ytick_9">
     <g id="line2d_41">
      <g>
       <use xlink:href="#ma59218795d" x="68.46" y="288.983037" style="fill: #262626; stroke: #262626; stroke-width: 1.25"/>
      </g>
     </g>
     <g id="text_19">
      <!-- 0 -->
      <g style="fill: #262626" transform="translate(52.842969 292.919833) scale(0.11 -0.11)">
       <use xlink:href="#ArialMT-30"/>
      </g>
     </g>
    </g>
    <g id="ytick_10">
     <g id="line2d_42">
      <g>
       <use xlink:href="#ma59218795d" x="68.46" y="273.151561" style="fill: #262626; stroke: #262626; stroke-width: 1.25"/>
      </g>
     </g>
     <g id="text_20">
      <!-- 5000 -->
      <g style="fill: #262626" transform="translate(34.491875 277.088358) scale(0.11 -0.11)">
       <use xlink:href="#ArialMT-35"/>
       <use xlink:href="#ArialMT-30" x="55.615234"/>
       <use xlink:href="#ArialMT-30" x="111.230469"/>
       <use xlink:href="#ArialMT-30" x="166.845703"/>
      </g>
     </g>
    </g>
    <g id="text_21">
     <!-- Resid -->
     <g style="fill: #262626" transform="translate(21.682187 300.282603) rotate(-90) scale(0.12 -0.12)">
      <defs>
       <path id="ArialMT-52" d="M 503 0 
L 503 4581 
L 2534 4581 
Q 3147 4581 3465 4457 
Q 3784 4334 3975 4021 
Q 4166 3709 4166 3331 
Q 4166 2844 3850 2509 
Q 3534 2175 2875 2084 
Q 3116 1969 3241 1856 
Q 3506 1613 3744 1247 
L 4541 0 
L 3778 0 
L 3172 953 
Q 2906 1366 2734 1584 
Q 2563 1803 2427 1890 
Q 2291 1978 2150 2013 
Q 2047 2034 1813 2034 
L 1109 2034 
L 1109 0 
L 503 0 
z
M 1109 2559 
L 2413 2559 
Q 2828 2559 3062 2645 
Q 3297 2731 3419 2920 
Q 3541 3109 3541 3331 
Q 3541 3656 3305 3865 
Q 3069 4075 2559 4075 
L 1109 4075 
L 1109 2559 
z
" transform="scale(0.015625)"/>
       <path id="ArialMT-69" d="M 425 3934 
L 425 4581 
L 988 4581 
L 988 3934 
L 425 3934 
z
M 425 0 
L 425 3319 
L 988 3319 
L 988 0 
L 425 0 
z
" transform="scale(0.015625)"/>
      </defs>
      <use xlink:href="#ArialMT-52"/>
      <use xlink:href="#ArialMT-65" x="72.216797"/>
      <use xlink:href="#ArialMT-73" x="127.832031"/>
      <use xlink:href="#ArialMT-69" x="177.832031"/>
      <use xlink:href="#ArialMT-64" x="200.048828"/>
     </g>
    </g>
   </g>
   <g id="line2d_43">
    <defs>
     <path id="m68968c5d4e" d="M 0 3 
C 0.795609 3 1.55874 2.683901 2.12132 2.12132 
C 2.683901 1.55874 3 0.795609 3 0 
C 3 -0.795609 2.683901 -1.55874 2.12132 -2.12132 
C 1.55874 -2.683901 0.795609 -3 0 -3 
C -0.795609 -3 -1.55874 -2.683901 -2.12132 -2.12132 
C -2.683901 -1.55874 -3 -0.795609 -3 0 
C -3 0.795609 -2.683901 1.55874 -2.12132 2.12132 
C -1.55874 2.683901 -0.795609 3 0 3 
z
" style="stroke: #4c72b0"/>
    </defs>
    <g clip-path="url(#pfaa69d720e)">
     <use xlink:href="#m68968c5d4e" x="68.46" y="294.191845" style="fill: #4c72b0; stroke: #4c72b0"/>
     <use xlink:href="#m68968c5d4e" x="69.453141" y="292.873716" style="fill: #4c72b0; stroke: #4c72b0"/>
     <use xlink:href="#m68968c5d4e" x="70.446283" y="289.731326" style="fill: #4c72b0; stroke: #4c72b0"/>
     <use xlink:href="#m68968c5d4e" x="71.439424" y="288.404208" style="fill: #4c72b0; stroke: #4c72b0"/>
     <use xlink:href="#m68968c5d4e" x="72.432565" y="291.032889" style="fill: #4c72b0; stroke: #4c72b0"/>
     <use xlink:href="#m68968c5d4e" x="73.425707" y="290.292466" style="fill: #4c72b0; stroke: #4c72b0"/>
     <use xlink:href="#m68968c5d4e" x="74.418848" y="292.550853" style="fill: #4c72b0; stroke: #4c72b0"/>
     <use xlink:href="#m68968c5d4e" x="75.41199" y="287.10109" style="fill: #4c72b0; stroke: #4c72b0"/>
     <use xlink:href="#m68968c5d4e" x="76.405131" y="285.760169" style="fill: #4c72b0; stroke: #4c72b0"/>
     <use xlink:href="#m68968c5d4e" x="77.398272" y="291.304678" style="fill: #4c72b0; stroke: #4c72b0"/>
     <use xlink:href="#m68968c5d4e" x="79.384555" y="285.956378" style="fill: #4c72b0; stroke: #4c72b0"/>
     <use xlink:href="#m68968c5d4e" x="80.377696" y="291.665117" style="fill: #4c72b0; stroke: #4c72b0"/>
     <use xlink:href="#m68968c5d4e" x="81.370838" y="289.244899" style="fill: #4c72b0; stroke: #4c72b0"/>
     <use xlink:href="#m68968c5d4e" x="82.363979" y="293.246723" style="fill: #4c72b0; stroke: #4c72b0"/>
     <use xlink:href="#m68968c5d4e" x="83.35712" y="288.049075" style="fill: #4c72b0; stroke: #4c72b0"/>
     <use xlink:href="#m68968c5d4e" x="84.350262" y="290.392536" style="fill: #4c72b0; stroke: #4c72b0"/>
     <use xlink:href="#m68968c5d4e" x="85.343403" y="288.782182" style="fill: #4c72b0; stroke: #4c72b0"/>
     <use xlink:href="#m68968c5d4e" x="86.336545" y="292.460798" style="fill: #4c72b0; stroke: #4c72b0"/>
     <use xlink:href="#m68968c5d4e" x="87.329686" y="289.563826" style="fill: #4c72b0; stroke: #4c72b0"/>
     <use xlink:href="#m68968c5d4e" x="88.322827" y="293.471595" style="fill: #4c72b0; stroke: #4c72b0"/>
     <use xlink:href="#m68968c5d4e" x="89.315969" y="291.83694" style="fill: #4c72b0; stroke: #4c72b0"/>
     <use xlink:href="#m68968c5d4e" x="90.30911" y="291.328049" style="fill: #4c72b0; stroke: #4c72b0"/>
     <use xlink:href="#m68968c5d4e" x="91.302251" y="286.443558" style="fill: #4c72b0; stroke: #4c72b0"/>
     <use xlink:href="#m68968c5d4e" x="92.295393" y="294.427025" style="fill: #4c72b0; stroke: #4c72b0"/>
     <use xlink:href="#m68968c5d4e" x="93.288534" y="290.429792" style="fill: #4c72b0; stroke: #4c72b0"/>
     <use xlink:href="#m68968c5d4e" x="94.281675" y="284.254301" style="fill: #4c72b0; stroke: #4c72b0"/>
     <use xlink:href="#m68968c5d4e" x="96.267958" y="287.410425" style="fill: #4c72b0; stroke: #4c72b0"/>
     <use xlink:href="#m68968c5d4e" x="97.261099" y="271.32596" style="fill: #4c72b0; stroke: #4c72b0"/>
     <use xlink:href="#m68968c5d4e" x="98.254241" y="283.271384" style="fill: #4c72b0; stroke: #4c72b0"/>
     <use xlink:href="#m68968c5d4e" x="99.247382" y="292.844954" style="fill: #4c72b0; stroke: #4c72b0"/>
     <use xlink:href="#m68968c5d4e" x="100.240524" y="293.617222" style="fill: #4c72b0; stroke: #4c72b0"/>
     <use xlink:href="#m68968c5d4e" x="101.233665" y="279.437846" style="fill: #4c72b0; stroke: #4c72b0"/>
     <use xlink:href="#m68968c5d4e" x="102.226806" y="282.254452" style="fill: #4c72b0; stroke: #4c72b0"/>
     <use xlink:href="#m68968c5d4e" x="103.219948" y="290.980666" style="fill: #4c72b0; stroke: #4c72b0"/>
     <use xlink:href="#m68968c5d4e" x="104.213089" y="279.862464" style="fill: #4c72b0; stroke: #4c72b0"/>
     <use xlink:href="#m68968c5d4e" x="105.20623" y="291.20402" style="fill: #4c72b0; stroke: #4c72b0"/>
     <use xlink:href="#m68968c5d4e" x="106.199372" y="291.173186" style="fill: #4c72b0; stroke: #4c72b0"/>
     <use xlink:href="#m68968c5d4e" x="107.192513" y="278.042384" style="fill: #4c72b0; stroke: #4c72b0"/>
     <use xlink:href="#m68968c5d4e" x="108.185654" y="299.767286" style="fill: #4c72b0; stroke: #4c72b0"/>
     <use xlink:href="#m68968c5d4e" x="109.178796" y="276.896294" style="fill: #4c72b0; stroke: #4c72b0"/>
     <use xlink:href="#m68968c5d4e" x="110.171937" y="302.64532" style="fill: #4c72b0; stroke: #4c72b0"/>
     <use xlink:href="#m68968c5d4e" x="112.15822" y="285.542444" style="fill: #4c72b0; stroke: #4c72b0"/>
     <use xlink:href="#m68968c5d4e" x="113.151361" y="278.959947" style="fill: #4c72b0; stroke: #4c72b0"/>
     <use xlink:href="#m68968c5d4e" x="114.144503" y="295.292983" style="fill: #4c72b0; stroke: #4c72b0"/>
     <use xlink:href="#m68968c5d4e" x="115.137644" y="280.58087" style="fill: #4c72b0; stroke: #4c72b0"/>
     <use xlink:href="#m68968c5d4e" x="116.130785" y="297.871892" style="fill: #4c72b0; stroke: #4c72b0"/>
     <use xlink:href="#m68968c5d4e" x="117.123927" y="280.463947" style="fill: #4c72b0; stroke: #4c72b0"/>
     <use xlink:href="#m68968c5d4e" x="118.117068" y="288.441123" style="fill: #4c72b0; stroke: #4c72b0"/>
     <use xlink:href="#m68968c5d4e" x="119.110209" y="274.69253" style="fill: #4c72b0; stroke: #4c72b0"/>
     <use xlink:href="#m68968c5d4e" x="120.103351" y="292.694737" style="fill: #4c72b0; stroke: #4c72b0"/>
     <use xlink:href="#m68968c5d4e" x="121.096492" y="289.331897" style="fill: #4c72b0; stroke: #4c72b0"/>
     <use xlink:href="#m68968c5d4e" x="122.089634" y="288.924897" style="fill: #4c72b0; stroke: #4c72b0"/>
     <use xlink:href="#m68968c5d4e" x="123.082775" y="286.337005" style="fill: #4c72b0; stroke: #4c72b0"/>
     <use xlink:href="#m68968c5d4e" x="124.075916" y="287.564274" style="fill: #4c72b0; stroke: #4c72b0"/>
     <use xlink:href="#m68968c5d4e" x="125.069058" y="283.83393" style="fill: #4c72b0; stroke: #4c72b0"/>
     <use xlink:href="#m68968c5d4e" x="126.062199" y="289.463565" style="fill: #4c72b0; stroke: #4c72b0"/>
     <use xlink:href="#m68968c5d4e" x="127.05534" y="292.074511" style="fill: #4c72b0; stroke: #4c72b0"/>
     <use xlink:href="#m68968c5d4e" x="128.048482" y="286.434" style="fill: #4c72b0; stroke: #4c72b0"/>
     <use xlink:href="#m68968c5d4e" x="129.041623" y="292.866764" style="fill: #4c72b0; stroke: #4c72b0"/>
     <use xlink:href="#m68968c5d4e" x="130.034764" y="283.768908" style="fill: #4c72b0; stroke: #4c72b0"/>
     <use xlink:href="#m68968c5d4e" x="131.027906" y="289.827992" style="fill: #4c72b0; stroke: #4c72b0"/>
     <use xlink:href="#m68968c5d4e" x="132.021047" y="285.187203" style="fill: #4c72b0; stroke: #4c72b0"/>
     <use xlink:href="#m68968c5d4e" x="133.014188" y="288.609358" style="fill: #4c72b0; stroke: #4c72b0"/>
     <use xlink:href="#m68968c5d4e" x="134.00733" y="286.516365" style="fill: #4c72b0; stroke: #4c72b0"/>
     <use xlink:href="#m68968c5d4e" x="135.000471" y="287.732613" style="fill: #4c72b0; stroke: #4c72b0"/>
     <use xlink:href="#m68968c5d4e" x="135.993613" y="284.352443" style="fill: #4c72b0; stroke: #4c72b0"/>
     <use xlink:href="#m68968c5d4e" x="136.986754" y="287.725803" style="fill: #4c72b0; stroke: #4c72b0"/>
     <use xlink:href="#m68968c5d4e" x="137.979895" y="283.418053" style="fill: #4c72b0; stroke: #4c72b0"/>
     <use xlink:href="#m68968c5d4e" x="138.973037" y="290.295504" style="fill: #4c72b0; stroke: #4c72b0"/>
     <use xlink:href="#m68968c5d4e" x="139.966178" y="287.659753" style="fill: #4c72b0; stroke: #4c72b0"/>
     <use xlink:href="#m68968c5d4e" x="140.959319" y="293.717314" style="fill: #4c72b0; stroke: #4c72b0"/>
     <use xlink:href="#m68968c5d4e" x="141.952461" y="286.896191" style="fill: #4c72b0; stroke: #4c72b0"/>
     <use xlink:href="#m68968c5d4e" x="142.945602" y="291.683474" style="fill: #4c72b0; stroke: #4c72b0"/>
     <use xlink:href="#m68968c5d4e" x="143.938743" y="298.912587" style="fill: #4c72b0; stroke: #4c72b0"/>
     <use xlink:href="#m68968c5d4e" x="144.931885" y="296.532926" style="fill: #4c72b0; stroke: #4c72b0"/>
     <use xlink:href="#m68968c5d4e" x="145.925026" y="309.485748" style="fill: #4c72b0; stroke: #4c72b0"/>
     <use xlink:href="#m68968c5d4e" x="146.918168" y="301.70087" style="fill: #4c72b0; stroke: #4c72b0"/>
     <use xlink:href="#m68968c5d4e" x="147.911309" y="286.084049" style="fill: #4c72b0; stroke: #4c72b0"/>
     <use xlink:href="#m68968c5d4e" x="148.90445" y="294.095709" style="fill: #4c72b0; stroke: #4c72b0"/>
     <use xlink:href="#m68968c5d4e" x="149.897592" y="303.546537" style="fill: #4c72b0; stroke: #4c72b0"/>
     <use xlink:href="#m68968c5d4e" x="150.890733" y="299.858256" style="fill: #4c72b0; stroke: #4c72b0"/>
     <use xlink:href="#m68968c5d4e" x="151.883874" y="293.8617" style="fill: #4c72b0; stroke: #4c72b0"/>
     <use xlink:href="#m68968c5d4e" x="152.877016" y="299.026407" style="fill: #4c72b0; stroke: #4c72b0"/>
     <use xlink:href="#m68968c5d4e" x="153.870157" y="292.764663" style="fill: #4c72b0; stroke: #4c72b0"/>
     <use xlink:href="#m68968c5d4e" x="154.863298" y="285.672024" style="fill: #4c72b0; stroke: #4c72b0"/>
     <use xlink:href="#m68968c5d4e" x="155.85644" y="302.733602" style="fill: #4c72b0; stroke: #4c72b0"/>
     <use xlink:href="#m68968c5d4e" x="156.849581" y="277.491073" style="fill: #4c72b0; stroke: #4c72b0"/>
     <use xlink:href="#m68968c5d4e" x="157.842723" y="307.924509" style="fill: #4c72b0; stroke: #4c72b0"/>
     <use xlink:href="#m68968c5d4e" x="158.835864" y="270.181872" style="fill: #4c72b0; stroke: #4c72b0"/>
     <use xlink:href="#m68968c5d4e" x="159.829005" y="294.670366" style="fill: #4c72b0; stroke: #4c72b0"/>
     <use xlink:href="#m68968c5d4e" x="160.822147" y="303.358933" style="fill: #4c72b0; stroke: #4c72b0"/>
     <use xlink:href="#m68968c5d4e" x="161.815288" y="282.18138" style="fill: #4c72b0; stroke: #4c72b0"/>
     <use xlink:href="#m68968c5d4e" x="162.808429" y="300.353094" style="fill: #4c72b0; stroke: #4c72b0"/>
     <use xlink:href="#m68968c5d4e" x="163.801571" y="274.82274" style="fill: #4c72b0; stroke: #4c72b0"/>
     <use xlink:href="#m68968c5d4e" x="164.794712" y="292.602379" style="fill: #4c72b0; stroke: #4c72b0"/>
     <use xlink:href="#m68968c5d4e" x="165.787853" y="286.126325" style="fill: #4c72b0; stroke: #4c72b0"/>
     <use xlink:href="#m68968c5d4e" x="166.780995" y="299.188335" style="fill: #4c72b0; stroke: #4c72b0"/>
     <use xlink:href="#m68968c5d4e" x="167.774136" y="274.011851" style="fill: #4c72b0; stroke: #4c72b0"/>
     <use xlink:href="#m68968c5d4e" x="168.767277" y="289.549246" style="fill: #4c72b0; stroke: #4c72b0"/>
     <use xlink:href="#m68968c5d4e" x="169.760419" y="291.334407" style="fill: #4c72b0; stroke: #4c72b0"/>
     <use xlink:href="#m68968c5d4e" x="171.746702" y="287.814093" style="fill: #4c72b0; stroke: #4c72b0"/>
     <use xlink:href="#m68968c5d4e" x="172.739843" y="290.471858" style="fill: #4c72b0; stroke: #4c72b0"/>
     <use xlink:href="#m68968c5d4e" x="173.732984" y="285.555437" style="fill: #4c72b0; stroke: #4c72b0"/>
     <use xlink:href="#m68968c5d4e" x="174.726126" y="294.29754" style="fill: #4c72b0; stroke: #4c72b0"/>
     <use xlink:href="#m68968c5d4e" x="175.719267" y="289.881835" style="fill: #4c72b0; stroke: #4c72b0"/>
     <use xlink:href="#m68968c5d4e" x="176.712408" y="286.751964" style="fill: #4c72b0; stroke: #4c72b0"/>
     <use xlink:href="#m68968c5d4e" x="177.70555" y="287.177227" style="fill: #4c72b0; stroke: #4c72b0"/>
     <use xlink:href="#m68968c5d4e" x="178.698691" y="289.303688" style="fill: #4c72b0; stroke: #4c72b0"/>
     <use xlink:href="#m68968c5d4e" x="179.691832" y="287.391365" style="fill: #4c72b0; stroke: #4c72b0"/>
     <use xlink:href="#m68968c5d4e" x="189.623246" y="282.884585" style="fill: #4c72b0; stroke: #4c72b0"/>
     <use xlink:href="#m68968c5d4e" x="190.616387" y="288.812445" style="fill: #4c72b0; stroke: #4c72b0"/>
     <use xlink:href="#m68968c5d4e" x="191.609529" y="287.230637" style="fill: #4c72b0; stroke: #4c72b0"/>
     <use xlink:href="#m68968c5d4e" x="192.60267" y="288.093883" style="fill: #4c72b0; stroke: #4c72b0"/>
     <use xlink:href="#m68968c5d4e" x="193.595812" y="285.701934" style="fill: #4c72b0; stroke: #4c72b0"/>
     <use xlink:href="#m68968c5d4e" x="194.588953" y="286.733798" style="fill: #4c72b0; stroke: #4c72b0"/>
     <use xlink:href="#m68968c5d4e" x="195.582094" y="285.55862" style="fill: #4c72b0; stroke: #4c72b0"/>
     <use xlink:href="#m68968c5d4e" x="197.568377" y="277.220725" style="fill: #4c72b0; stroke: #4c72b0"/>
     <use xlink:href="#m68968c5d4e" x="198.561518" y="283.091537" style="fill: #4c72b0; stroke: #4c72b0"/>
     <use xlink:href="#m68968c5d4e" x="199.55466" y="285.251964" style="fill: #4c72b0; stroke: #4c72b0"/>
     <use xlink:href="#m68968c5d4e" x="200.547801" y="280.704513" style="fill: #4c72b0; stroke: #4c72b0"/>
     <use xlink:href="#m68968c5d4e" x="201.540942" y="282.633672" style="fill: #4c72b0; stroke: #4c72b0"/>
     <use xlink:href="#m68968c5d4e" x="202.534084" y="288.873171" style="fill: #4c72b0; stroke: #4c72b0"/>
     <use xlink:href="#m68968c5d4e" x="203.527225" y="286.269963" style="fill: #4c72b0; stroke: #4c72b0"/>
     <use xlink:href="#m68968c5d4e" x="204.520366" y="305.221261" style="fill: #4c72b0; stroke: #4c72b0"/>
     <use xlink:href="#m68968c5d4e" x="205.513508" y="291.842633" style="fill: #4c72b0; stroke: #4c72b0"/>
     <use xlink:href="#m68968c5d4e" x="206.506649" y="295.300013" style="fill: #4c72b0; stroke: #4c72b0"/>
     <use xlink:href="#m68968c5d4e" x="207.499791" y="280.233598" style="fill: #4c72b0; stroke: #4c72b0"/>
     <use xlink:href="#m68968c5d4e" x="208.492932" y="296.286758" style="fill: #4c72b0; stroke: #4c72b0"/>
     <use xlink:href="#m68968c5d4e" x="209.486073" y="296.452508" style="fill: #4c72b0; stroke: #4c72b0"/>
     <use xlink:href="#m68968c5d4e" x="210.479215" y="287.58282" style="fill: #4c72b0; stroke: #4c72b0"/>
     <use xlink:href="#m68968c5d4e" x="211.472356" y="298.702665" style="fill: #4c72b0; stroke: #4c72b0"/>
     <use xlink:href="#m68968c5d4e" x="212.465497" y="284.144912" style="fill: #4c72b0; stroke: #4c72b0"/>
     <use xlink:href="#m68968c5d4e" x="213.458639" y="293.294463" style="fill: #4c72b0; stroke: #4c72b0"/>
     <use xlink:href="#m68968c5d4e" x="214.45178" y="295.414889" style="fill: #4c72b0; stroke: #4c72b0"/>
     <use xlink:href="#m68968c5d4e" x="215.444921" y="286.582274" style="fill: #4c72b0; stroke: #4c72b0"/>
     <use xlink:href="#m68968c5d4e" x="216.438063" y="287.201725" style="fill: #4c72b0; stroke: #4c72b0"/>
     <use xlink:href="#m68968c5d4e" x="217.431204" y="288.3762" style="fill: #4c72b0; stroke: #4c72b0"/>
     <use xlink:href="#m68968c5d4e" x="218.424346" y="288.456518" style="fill: #4c72b0; stroke: #4c72b0"/>
     <use xlink:href="#m68968c5d4e" x="219.417487" y="288.213769" style="fill: #4c72b0; stroke: #4c72b0"/>
     <use xlink:href="#m68968c5d4e" x="220.410628" y="286.546032" style="fill: #4c72b0; stroke: #4c72b0"/>
     <use xlink:href="#m68968c5d4e" x="221.40377" y="288.407195" style="fill: #4c72b0; stroke: #4c72b0"/>
     <use xlink:href="#m68968c5d4e" x="222.396911" y="292.091761" style="fill: #4c72b0; stroke: #4c72b0"/>
     <use xlink:href="#m68968c5d4e" x="223.390052" y="302.509521" style="fill: #4c72b0; stroke: #4c72b0"/>
     <use xlink:href="#m68968c5d4e" x="224.383194" y="291.50026" style="fill: #4c72b0; stroke: #4c72b0"/>
     <use xlink:href="#m68968c5d4e" x="225.376335" y="295.246216" style="fill: #4c72b0; stroke: #4c72b0"/>
     <use xlink:href="#m68968c5d4e" x="226.369476" y="289.788744" style="fill: #4c72b0; stroke: #4c72b0"/>
     <use xlink:href="#m68968c5d4e" x="227.362618" y="281.99101" style="fill: #4c72b0; stroke: #4c72b0"/>
     <use xlink:href="#m68968c5d4e" x="228.355759" y="287.311613" style="fill: #4c72b0; stroke: #4c72b0"/>
     <use xlink:href="#m68968c5d4e" x="229.348901" y="292.47" style="fill: #4c72b0; stroke: #4c72b0"/>
     <use xlink:href="#m68968c5d4e" x="230.342042" y="284.89592" style="fill: #4c72b0; stroke: #4c72b0"/>
     <use xlink:href="#m68968c5d4e" x="231.335183" y="300.290821" style="fill: #4c72b0; stroke: #4c72b0"/>
     <use xlink:href="#m68968c5d4e" x="232.328325" y="285.211174" style="fill: #4c72b0; stroke: #4c72b0"/>
     <use xlink:href="#m68968c5d4e" x="233.321466" y="292.590113" style="fill: #4c72b0; stroke: #4c72b0"/>
     <use xlink:href="#m68968c5d4e" x="234.314607" y="293.427585" style="fill: #4c72b0; stroke: #4c72b0"/>
     <use xlink:href="#m68968c5d4e" x="235.307749" y="295.232597" style="fill: #4c72b0; stroke: #4c72b0"/>
     <use xlink:href="#m68968c5d4e" x="236.30089" y="295.701633" style="fill: #4c72b0; stroke: #4c72b0"/>
     <use xlink:href="#m68968c5d4e" x="237.294031" y="288.239389" style="fill: #4c72b0; stroke: #4c72b0"/>
     <use xlink:href="#m68968c5d4e" x="238.287173" y="296.901257" style="fill: #4c72b0; stroke: #4c72b0"/>
     <use xlink:href="#m68968c5d4e" x="239.280314" y="296.431028" style="fill: #4c72b0; stroke: #4c72b0"/>
     <use xlink:href="#m68968c5d4e" x="240.273455" y="295.999752" style="fill: #4c72b0; stroke: #4c72b0"/>
     <use xlink:href="#m68968c5d4e" x="241.266597" y="297.97281" style="fill: #4c72b0; stroke: #4c72b0"/>
     <use xlink:href="#m68968c5d4e" x="242.259738" y="297.394346" style="fill: #4c72b0; stroke: #4c72b0"/>
     <use xlink:href="#m68968c5d4e" x="243.25288" y="297.021259" style="fill: #4c72b0; stroke: #4c72b0"/>
     <use xlink:href="#m68968c5d4e" x="244.246021" y="296.128431" style="fill: #4c72b0; stroke: #4c72b0"/>
     <use xlink:href="#m68968c5d4e" x="245.239162" y="297.937125" style="fill: #4c72b0; stroke: #4c72b0"/>
     <use xlink:href="#m68968c5d4e" x="246.232304" y="297.286357" style="fill: #4c72b0; stroke: #4c72b0"/>
     <use xlink:href="#m68968c5d4e" x="247.225445" y="293.623273" style="fill: #4c72b0; stroke: #4c72b0"/>
     <use xlink:href="#m68968c5d4e" x="248.218586" y="288.748872" style="fill: #4c72b0; stroke: #4c72b0"/>
     <use xlink:href="#m68968c5d4e" x="249.211728" y="286.251936" style="fill: #4c72b0; stroke: #4c72b0"/>
     <use xlink:href="#m68968c5d4e" x="250.204869" y="274.404503" style="fill: #4c72b0; stroke: #4c72b0"/>
     <use xlink:href="#m68968c5d4e" x="251.19801" y="273.188817" style="fill: #4c72b0; stroke: #4c72b0"/>
     <use xlink:href="#m68968c5d4e" x="252.191152" y="260.609774" style="fill: #4c72b0; stroke: #4c72b0"/>
     <use xlink:href="#m68968c5d4e" x="253.184293" y="260.400708" style="fill: #4c72b0; stroke: #4c72b0"/>
     <use xlink:href="#m68968c5d4e" x="254.177435" y="263.176707" style="fill: #4c72b0; stroke: #4c72b0"/>
     <use xlink:href="#m68968c5d4e" x="255.170576" y="264.159242" style="fill: #4c72b0; stroke: #4c72b0"/>
     <use xlink:href="#m68968c5d4e" x="256.163717" y="262.81841" style="fill: #4c72b0; stroke: #4c72b0"/>
     <use xlink:href="#m68968c5d4e" x="257.156859" y="261.624942" style="fill: #4c72b0; stroke: #4c72b0"/>
     <use xlink:href="#m68968c5d4e" x="258.15" y="260.755539" style="fill: #4c72b0; stroke: #4c72b0"/>
     <use xlink:href="#m68968c5d4e" x="259.143141" y="272.669217" style="fill: #4c72b0; stroke: #4c72b0"/>
     <use xlink:href="#m68968c5d4e" x="260.136283" y="273.01364" style="fill: #4c72b0; stroke: #4c72b0"/>
     <use xlink:href="#m68968c5d4e" x="261.129424" y="279.472397" style="fill: #4c72b0; stroke: #4c72b0"/>
     <use xlink:href="#m68968c5d4e" x="262.122565" y="276.507547" style="fill: #4c72b0; stroke: #4c72b0"/>
     <use xlink:href="#m68968c5d4e" x="263.115707" y="283.099117" style="fill: #4c72b0; stroke: #4c72b0"/>
     <use xlink:href="#m68968c5d4e" x="264.108848" y="282.513789" style="fill: #4c72b0; stroke: #4c72b0"/>
     <use xlink:href="#m68968c5d4e" x="265.10199" y="292.86726" style="fill: #4c72b0; stroke: #4c72b0"/>
     <use xlink:href="#m68968c5d4e" x="266.095131" y="286.959059" style="fill: #4c72b0; stroke: #4c72b0"/>
     <use xlink:href="#m68968c5d4e" x="267.088272" y="287.53726" style="fill: #4c72b0; stroke: #4c72b0"/>
     <use xlink:href="#m68968c5d4e" x="268.081414" y="289.072314" style="fill: #4c72b0; stroke: #4c72b0"/>
     <use xlink:href="#m68968c5d4e" x="269.074555" y="290.487996" style="fill: #4c72b0; stroke: #4c72b0"/>
     <use xlink:href="#m68968c5d4e" x="270.067696" y="291.110412" style="fill: #4c72b0; stroke: #4c72b0"/>
     <use xlink:href="#m68968c5d4e" x="271.060838" y="287.500811" style="fill: #4c72b0; stroke: #4c72b0"/>
     <use xlink:href="#m68968c5d4e" x="272.053979" y="298.548707" style="fill: #4c72b0; stroke: #4c72b0"/>
     <use xlink:href="#m68968c5d4e" x="273.04712" y="280.388837" style="fill: #4c72b0; stroke: #4c72b0"/>
     <use xlink:href="#m68968c5d4e" x="274.040262" y="301.121981" style="fill: #4c72b0; stroke: #4c72b0"/>
     <use xlink:href="#m68968c5d4e" x="275.033403" y="298.016576" style="fill: #4c72b0; stroke: #4c72b0"/>
     <use xlink:href="#m68968c5d4e" x="276.026545" y="290.119783" style="fill: #4c72b0; stroke: #4c72b0"/>
     <use xlink:href="#m68968c5d4e" x="277.019686" y="288.993872" style="fill: #4c72b0; stroke: #4c72b0"/>
     <use xlink:href="#m68968c5d4e" x="278.012827" y="289.159583" style="fill: #4c72b0; stroke: #4c72b0"/>
     <use xlink:href="#m68968c5d4e" x="279.005969" y="285.979358" style="fill: #4c72b0; stroke: #4c72b0"/>
     <use xlink:href="#m68968c5d4e" x="279.99911" y="286.59914" style="fill: #4c72b0; stroke: #4c72b0"/>
     <use xlink:href="#m68968c5d4e" x="280.992251" y="288.572176" style="fill: #4c72b0; stroke: #4c72b0"/>
     <use xlink:href="#m68968c5d4e" x="281.985393" y="286.869951" style="fill: #4c72b0; stroke: #4c72b0"/>
     <use xlink:href="#m68968c5d4e" x="282.978534" y="288.134958" style="fill: #4c72b0; stroke: #4c72b0"/>
     <use xlink:href="#m68968c5d4e" x="283.971675" y="286.721253" style="fill: #4c72b0; stroke: #4c72b0"/>
     <use xlink:href="#m68968c5d4e" x="299.861937" y="294.682946" style="fill: #4c72b0; stroke: #4c72b0"/>
     <use xlink:href="#m68968c5d4e" x="300.855079" y="293.738101" style="fill: #4c72b0; stroke: #4c72b0"/>
     <use xlink:href="#m68968c5d4e" x="301.84822" y="292.890766" style="fill: #4c72b0; stroke: #4c72b0"/>
     <use xlink:href="#m68968c5d4e" x="302.841361" y="297.435963" style="fill: #4c72b0; stroke: #4c72b0"/>
     <use xlink:href="#m68968c5d4e" x="303.834503" y="287.607349" style="fill: #4c72b0; stroke: #4c72b0"/>
     <use xlink:href="#m68968c5d4e" x="304.827644" y="293.967434" style="fill: #4c72b0; stroke: #4c72b0"/>
     <use xlink:href="#m68968c5d4e" x="305.820785" y="293.18404" style="fill: #4c72b0; stroke: #4c72b0"/>
     <use xlink:href="#m68968c5d4e" x="306.813927" y="294.177602" style="fill: #4c72b0; stroke: #4c72b0"/>
     <use xlink:href="#m68968c5d4e" x="307.807068" y="294.875195" style="fill: #4c72b0; stroke: #4c72b0"/>
     <use xlink:href="#m68968c5d4e" x="309.793351" y="292.875608" style="fill: #4c72b0; stroke: #4c72b0"/>
     <use xlink:href="#m68968c5d4e" x="311.779634" y="285.245436" style="fill: #4c72b0; stroke: #4c72b0"/>
     <use xlink:href="#m68968c5d4e" x="312.772775" y="296.084097" style="fill: #4c72b0; stroke: #4c72b0"/>
     <use xlink:href="#m68968c5d4e" x="313.765916" y="299.419005" style="fill: #4c72b0; stroke: #4c72b0"/>
     <use xlink:href="#m68968c5d4e" x="314.759058" y="292.961613" style="fill: #4c72b0; stroke: #4c72b0"/>
     <use xlink:href="#m68968c5d4e" x="315.752199" y="303.177071" style="fill: #4c72b0; stroke: #4c72b0"/>
     <use xlink:href="#m68968c5d4e" x="318.731623" y="293.000667" style="fill: #4c72b0; stroke: #4c72b0"/>
     <use xlink:href="#m68968c5d4e" x="319.724764" y="303.492431" style="fill: #4c72b0; stroke: #4c72b0"/>
     <use xlink:href="#m68968c5d4e" x="320.717906" y="297.324654" style="fill: #4c72b0; stroke: #4c72b0"/>
     <use xlink:href="#m68968c5d4e" x="321.711047" y="302.564648" style="fill: #4c72b0; stroke: #4c72b0"/>
     <use xlink:href="#m68968c5d4e" x="322.704188" y="294.089937" style="fill: #4c72b0; stroke: #4c72b0"/>
     <use xlink:href="#m68968c5d4e" x="323.69733" y="301.861843" style="fill: #4c72b0; stroke: #4c72b0"/>
     <use xlink:href="#m68968c5d4e" x="324.690471" y="301.7644" style="fill: #4c72b0; stroke: #4c72b0"/>
     <use xlink:href="#m68968c5d4e" x="326.676754" y="297.236912" style="fill: #4c72b0; stroke: #4c72b0"/>
     <use xlink:href="#m68968c5d4e" x="327.669895" y="297.695599" style="fill: #4c72b0; stroke: #4c72b0"/>
     <use xlink:href="#m68968c5d4e" x="328.663037" y="294.318943" style="fill: #4c72b0; stroke: #4c72b0"/>
     <use xlink:href="#m68968c5d4e" x="329.656178" y="290.421606" style="fill: #4c72b0; stroke: #4c72b0"/>
     <use xlink:href="#m68968c5d4e" x="330.649319" y="292.397981" style="fill: #4c72b0; stroke: #4c72b0"/>
     <use xlink:href="#m68968c5d4e" x="331.642461" y="289.151359" style="fill: #4c72b0; stroke: #4c72b0"/>
     <use xlink:href="#m68968c5d4e" x="332.635602" y="291.526638" style="fill: #4c72b0; stroke: #4c72b0"/>
     <use xlink:href="#m68968c5d4e" x="333.628743" y="282.836332" style="fill: #4c72b0; stroke: #4c72b0"/>
     <use xlink:href="#m68968c5d4e" x="334.621885" y="285.74356" style="fill: #4c72b0; stroke: #4c72b0"/>
     <use xlink:href="#m68968c5d4e" x="335.615026" y="285.387068" style="fill: #4c72b0; stroke: #4c72b0"/>
     <use xlink:href="#m68968c5d4e" x="336.608168" y="284.474128" style="fill: #4c72b0; stroke: #4c72b0"/>
     <use xlink:href="#m68968c5d4e" x="337.601309" y="285.726496" style="fill: #4c72b0; stroke: #4c72b0"/>
     <use xlink:href="#m68968c5d4e" x="338.59445" y="283.230587" style="fill: #4c72b0; stroke: #4c72b0"/>
     <use xlink:href="#m68968c5d4e" x="339.587592" y="279.493581" style="fill: #4c72b0; stroke: #4c72b0"/>
     <use xlink:href="#m68968c5d4e" x="340.580733" y="287.36244" style="fill: #4c72b0; stroke: #4c72b0"/>
     <use xlink:href="#m68968c5d4e" x="341.573874" y="284.14205" style="fill: #4c72b0; stroke: #4c72b0"/>
     <use xlink:href="#m68968c5d4e" x="342.567016" y="285.046647" style="fill: #4c72b0; stroke: #4c72b0"/>
     <use xlink:href="#m68968c5d4e" x="343.560157" y="285.410158" style="fill: #4c72b0; stroke: #4c72b0"/>
     <use xlink:href="#m68968c5d4e" x="344.553298" y="285.216302" style="fill: #4c72b0; stroke: #4c72b0"/>
     <use xlink:href="#m68968c5d4e" x="345.54644" y="287.711513" style="fill: #4c72b0; stroke: #4c72b0"/>
     <use xlink:href="#m68968c5d4e" x="346.539581" y="283.126389" style="fill: #4c72b0; stroke: #4c72b0"/>
     <use xlink:href="#m68968c5d4e" x="347.532723" y="287.745889" style="fill: #4c72b0; stroke: #4c72b0"/>
     <use xlink:href="#m68968c5d4e" x="348.525864" y="285.119845" style="fill: #4c72b0; stroke: #4c72b0"/>
     <use xlink:href="#m68968c5d4e" x="349.519005" y="284.952896" style="fill: #4c72b0; stroke: #4c72b0"/>
     <use xlink:href="#m68968c5d4e" x="350.512147" y="287.45312" style="fill: #4c72b0; stroke: #4c72b0"/>
     <use xlink:href="#m68968c5d4e" x="351.505288" y="282.714392" style="fill: #4c72b0; stroke: #4c72b0"/>
     <use xlink:href="#m68968c5d4e" x="352.498429" y="285.071998" style="fill: #4c72b0; stroke: #4c72b0"/>
     <use xlink:href="#m68968c5d4e" x="353.491571" y="287.305927" style="fill: #4c72b0; stroke: #4c72b0"/>
     <use xlink:href="#m68968c5d4e" x="354.484712" y="287.684028" style="fill: #4c72b0; stroke: #4c72b0"/>
     <use xlink:href="#m68968c5d4e" x="355.477853" y="294.809013" style="fill: #4c72b0; stroke: #4c72b0"/>
     <use xlink:href="#m68968c5d4e" x="356.470995" y="280.039776" style="fill: #4c72b0; stroke: #4c72b0"/>
     <use xlink:href="#m68968c5d4e" x="357.464136" y="287.818816" style="fill: #4c72b0; stroke: #4c72b0"/>
     <use xlink:href="#m68968c5d4e" x="358.457277" y="291.063795" style="fill: #4c72b0; stroke: #4c72b0"/>
     <use xlink:href="#m68968c5d4e" x="359.450419" y="291.284131" style="fill: #4c72b0; stroke: #4c72b0"/>
     <use xlink:href="#m68968c5d4e" x="360.44356" y="293.047033" style="fill: #4c72b0; stroke: #4c72b0"/>
     <use xlink:href="#m68968c5d4e" x="361.436702" y="302.151674" style="fill: #4c72b0; stroke: #4c72b0"/>
     <use xlink:href="#m68968c5d4e" x="362.429843" y="282.89956" style="fill: #4c72b0; stroke: #4c72b0"/>
     <use xlink:href="#m68968c5d4e" x="363.422984" y="294.931223" style="fill: #4c72b0; stroke: #4c72b0"/>
     <use xlink:href="#m68968c5d4e" x="364.416126" y="305.734908" style="fill: #4c72b0; stroke: #4c72b0"/>
     <use xlink:href="#m68968c5d4e" x="365.409267" y="286.16441" style="fill: #4c72b0; stroke: #4c72b0"/>
     <use xlink:href="#m68968c5d4e" x="366.402408" y="304.191915" style="fill: #4c72b0; stroke: #4c72b0"/>
     <use xlink:href="#m68968c5d4e" x="367.39555" y="289.184411" style="fill: #4c72b0; stroke: #4c72b0"/>
     <use xlink:href="#m68968c5d4e" x="368.388691" y="302.214357" style="fill: #4c72b0; stroke: #4c72b0"/>
     <use xlink:href="#m68968c5d4e" x="369.381832" y="286.734886" style="fill: #4c72b0; stroke: #4c72b0"/>
     <use xlink:href="#m68968c5d4e" x="370.374974" y="298.677724" style="fill: #4c72b0; stroke: #4c72b0"/>
     <use xlink:href="#m68968c5d4e" x="371.368115" y="286.957939" style="fill: #4c72b0; stroke: #4c72b0"/>
     <use xlink:href="#m68968c5d4e" x="372.361257" y="294.777609" style="fill: #4c72b0; stroke: #4c72b0"/>
     <use xlink:href="#m68968c5d4e" x="373.354398" y="293.111281" style="fill: #4c72b0; stroke: #4c72b0"/>
     <use xlink:href="#m68968c5d4e" x="374.347539" y="289.528944" style="fill: #4c72b0; stroke: #4c72b0"/>
     <use xlink:href="#m68968c5d4e" x="375.340681" y="290.645102" style="fill: #4c72b0; stroke: #4c72b0"/>
     <use xlink:href="#m68968c5d4e" x="376.333822" y="290.412403" style="fill: #4c72b0; stroke: #4c72b0"/>
     <use xlink:href="#m68968c5d4e" x="377.326963" y="291.333404" style="fill: #4c72b0; stroke: #4c72b0"/>
     <use xlink:href="#m68968c5d4e" x="378.320105" y="290.452382" style="fill: #4c72b0; stroke: #4c72b0"/>
     <use xlink:href="#m68968c5d4e" x="379.313246" y="294.218028" style="fill: #4c72b0; stroke: #4c72b0"/>
     <use xlink:href="#m68968c5d4e" x="380.306387" y="290.655355" style="fill: #4c72b0; stroke: #4c72b0"/>
     <use xlink:href="#m68968c5d4e" x="381.299529" y="293.663454" style="fill: #4c72b0; stroke: #4c72b0"/>
     <use xlink:href="#m68968c5d4e" x="382.29267" y="290.2326" style="fill: #4c72b0; stroke: #4c72b0"/>
     <use xlink:href="#m68968c5d4e" x="383.285812" y="288.150321" style="fill: #4c72b0; stroke: #4c72b0"/>
     <use xlink:href="#m68968c5d4e" x="384.278953" y="287.193486" style="fill: #4c72b0; stroke: #4c72b0"/>
     <use xlink:href="#m68968c5d4e" x="385.272094" y="289.096702" style="fill: #4c72b0; stroke: #4c72b0"/>
     <use xlink:href="#m68968c5d4e" x="386.265236" y="289.641478" style="fill: #4c72b0; stroke: #4c72b0"/>
     <use xlink:href="#m68968c5d4e" x="387.258377" y="288.742379" style="fill: #4c72b0; stroke: #4c72b0"/>
     <use xlink:href="#m68968c5d4e" x="388.251518" y="291.183945" style="fill: #4c72b0; stroke: #4c72b0"/>
     <use xlink:href="#m68968c5d4e" x="389.24466" y="289.214466" style="fill: #4c72b0; stroke: #4c72b0"/>
     <use xlink:href="#m68968c5d4e" x="390.237801" y="289.348566" style="fill: #4c72b0; stroke: #4c72b0"/>
     <use xlink:href="#m68968c5d4e" x="391.230942" y="289.613997" style="fill: #4c72b0; stroke: #4c72b0"/>
     <use xlink:href="#m68968c5d4e" x="392.224084" y="288.634983" style="fill: #4c72b0; stroke: #4c72b0"/>
     <use xlink:href="#m68968c5d4e" x="393.217225" y="291.399999" style="fill: #4c72b0; stroke: #4c72b0"/>
     <use xlink:href="#m68968c5d4e" x="394.210366" y="288.247436" style="fill: #4c72b0; stroke: #4c72b0"/>
     <use xlink:href="#m68968c5d4e" x="395.203508" y="289.165554" style="fill: #4c72b0; stroke: #4c72b0"/>
     <use xlink:href="#m68968c5d4e" x="396.196649" y="286.297925" style="fill: #4c72b0; stroke: #4c72b0"/>
     <use xlink:href="#m68968c5d4e" x="397.189791" y="287.528733" style="fill: #4c72b0; stroke: #4c72b0"/>
     <use xlink:href="#m68968c5d4e" x="398.182932" y="276.767981" style="fill: #4c72b0; stroke: #4c72b0"/>
     <use xlink:href="#m68968c5d4e" x="399.176073" y="296.033329" style="fill: #4c72b0; stroke: #4c72b0"/>
     <use xlink:href="#m68968c5d4e" x="400.169215" y="283.896912" style="fill: #4c72b0; stroke: #4c72b0"/>
     <use xlink:href="#m68968c5d4e" x="401.162356" y="286.844964" style="fill: #4c72b0; stroke: #4c72b0"/>
     <use xlink:href="#m68968c5d4e" x="402.155497" y="286.963125" style="fill: #4c72b0; stroke: #4c72b0"/>
     <use xlink:href="#m68968c5d4e" x="403.148639" y="279.63109" style="fill: #4c72b0; stroke: #4c72b0"/>
     <use xlink:href="#m68968c5d4e" x="404.14178" y="294.865783" style="fill: #4c72b0; stroke: #4c72b0"/>
     <use xlink:href="#m68968c5d4e" x="405.134921" y="286.237616" style="fill: #4c72b0; stroke: #4c72b0"/>
     <use xlink:href="#m68968c5d4e" x="406.128063" y="284.254114" style="fill: #4c72b0; stroke: #4c72b0"/>
     <use xlink:href="#m68968c5d4e" x="407.121204" y="283.787464" style="fill: #4c72b0; stroke: #4c72b0"/>
     <use xlink:href="#m68968c5d4e" x="408.114346" y="282.038971" style="fill: #4c72b0; stroke: #4c72b0"/>
     <use xlink:href="#m68968c5d4e" x="409.107487" y="276.138035" style="fill: #4c72b0; stroke: #4c72b0"/>
     <use xlink:href="#m68968c5d4e" x="410.100628" y="294.756999" style="fill: #4c72b0; stroke: #4c72b0"/>
     <use xlink:href="#m68968c5d4e" x="411.09377" y="281.673248" style="fill: #4c72b0; stroke: #4c72b0"/>
     <use xlink:href="#m68968c5d4e" x="412.086911" y="272.511638" style="fill: #4c72b0; stroke: #4c72b0"/>
     <use xlink:href="#m68968c5d4e" x="413.080052" y="292.252604" style="fill: #4c72b0; stroke: #4c72b0"/>
     <use xlink:href="#m68968c5d4e" x="414.073194" y="274.300039" style="fill: #4c72b0; stroke: #4c72b0"/>
     <use xlink:href="#m68968c5d4e" x="415.066335" y="292.280676" style="fill: #4c72b0; stroke: #4c72b0"/>
     <use xlink:href="#m68968c5d4e" x="416.059476" y="277.917976" style="fill: #4c72b0; stroke: #4c72b0"/>
     <use xlink:href="#m68968c5d4e" x="417.052618" y="291.657106" style="fill: #4c72b0; stroke: #4c72b0"/>
     <use xlink:href="#m68968c5d4e" x="418.045759" y="280.478312" style="fill: #4c72b0; stroke: #4c72b0"/>
     <use xlink:href="#m68968c5d4e" x="419.038901" y="293.188014" style="fill: #4c72b0; stroke: #4c72b0"/>
     <use xlink:href="#m68968c5d4e" x="420.032042" y="283.937481" style="fill: #4c72b0; stroke: #4c72b0"/>
     <use xlink:href="#m68968c5d4e" x="421.025183" y="285.513749" style="fill: #4c72b0; stroke: #4c72b0"/>
     <use xlink:href="#m68968c5d4e" x="422.018325" y="287.950148" style="fill: #4c72b0; stroke: #4c72b0"/>
     <use xlink:href="#m68968c5d4e" x="423.011466" y="287.071432" style="fill: #4c72b0; stroke: #4c72b0"/>
     <use xlink:href="#m68968c5d4e" x="424.004607" y="287.399767" style="fill: #4c72b0; stroke: #4c72b0"/>
     <use xlink:href="#m68968c5d4e" x="424.997749" y="289.158945" style="fill: #4c72b0; stroke: #4c72b0"/>
     <use xlink:href="#m68968c5d4e" x="425.99089" y="287.668986" style="fill: #4c72b0; stroke: #4c72b0"/>
     <use xlink:href="#m68968c5d4e" x="426.984031" y="286.704723" style="fill: #4c72b0; stroke: #4c72b0"/>
     <use xlink:href="#m68968c5d4e" x="427.977173" y="286.058133" style="fill: #4c72b0; stroke: #4c72b0"/>
     <use xlink:href="#m68968c5d4e" x="428.970314" y="289.10552" style="fill: #4c72b0; stroke: #4c72b0"/>
     <use xlink:href="#m68968c5d4e" x="429.963455" y="290.312494" style="fill: #4c72b0; stroke: #4c72b0"/>
     <use xlink:href="#m68968c5d4e" x="430.956597" y="291.619907" style="fill: #4c72b0; stroke: #4c72b0"/>
     <use xlink:href="#m68968c5d4e" x="431.949738" y="292.624509" style="fill: #4c72b0; stroke: #4c72b0"/>
     <use xlink:href="#m68968c5d4e" x="432.94288" y="290.234644" style="fill: #4c72b0; stroke: #4c72b0"/>
     <use xlink:href="#m68968c5d4e" x="433.936021" y="291.596856" style="fill: #4c72b0; stroke: #4c72b0"/>
     <use xlink:href="#m68968c5d4e" x="434.929162" y="292.144176" style="fill: #4c72b0; stroke: #4c72b0"/>
     <use xlink:href="#m68968c5d4e" x="435.922304" y="290.036279" style="fill: #4c72b0; stroke: #4c72b0"/>
     <use xlink:href="#m68968c5d4e" x="436.915445" y="289.136591" style="fill: #4c72b0; stroke: #4c72b0"/>
     <use xlink:href="#m68968c5d4e" x="437.908586" y="289.46276" style="fill: #4c72b0; stroke: #4c72b0"/>
     <use xlink:href="#m68968c5d4e" x="438.901728" y="290.458524" style="fill: #4c72b0; stroke: #4c72b0"/>
     <use xlink:href="#m68968c5d4e" x="439.894869" y="291.36902" style="fill: #4c72b0; stroke: #4c72b0"/>
     <use xlink:href="#m68968c5d4e" x="440.88801" y="288.312627" style="fill: #4c72b0; stroke: #4c72b0"/>
     <use xlink:href="#m68968c5d4e" x="441.881152" y="293.017745" style="fill: #4c72b0; stroke: #4c72b0"/>
     <use xlink:href="#m68968c5d4e" x="442.874293" y="290.471032" style="fill: #4c72b0; stroke: #4c72b0"/>
     <use xlink:href="#m68968c5d4e" x="443.867435" y="293.2769" style="fill: #4c72b0; stroke: #4c72b0"/>
     <use xlink:href="#m68968c5d4e" x="444.860576" y="292.737147" style="fill: #4c72b0; stroke: #4c72b0"/>
     <use xlink:href="#m68968c5d4e" x="445.853717" y="299.355956" style="fill: #4c72b0; stroke: #4c72b0"/>
     <use xlink:href="#m68968c5d4e" x="446.846859" y="287.418405" style="fill: #4c72b0; stroke: #4c72b0"/>
     <use xlink:href="#m68968c5d4e" x="447.84" y="294.094799" style="fill: #4c72b0; stroke: #4c72b0"/>
    </g>
   </g>
   <g id="patch_18">
    <path d="M 68.46 311.94 
L 68.46 257.946456 
" style="fill: none; stroke: #262626; stroke-width: 1.25; stroke-linejoin: miter; stroke-linecap: square"/>
   </g>
   <g id="patch_19">
    <path d="M 447.84 311.94 
L 447.84 257.946456 
" style="fill: none; stroke: #262626; stroke-width: 1.25; stroke-linejoin: miter; stroke-linecap: square"/>
   </g>
   <g id="patch_20">
    <path d="M 68.46 311.94 
L 447.84 311.94 
" style="fill: none; stroke: #262626; stroke-width: 1.25; stroke-linejoin: miter; stroke-linecap: square"/>
   </g>
   <g id="patch_21">
    <path d="M 68.46 257.946456 
L 447.84 257.946456 
" style="fill: none; stroke: #262626; stroke-width: 1.25; stroke-linejoin: miter; stroke-linecap: square"/>
   </g>
  </g>
 </g>
 <defs>
  <clipPath id="pb2dc56ebac">
   <rect x="68.46" y="27.76" width="379.38" height="53.993544"/>
  </clipPath>
  <clipPath id="p656c12d697">
   <rect x="68.46" y="104.488819" width="379.38" height="53.993544"/>
  </clipPath>
  <clipPath id="pc581deaba5">
   <rect x="68.46" y="181.217637" width="379.38" height="53.993544"/>
  </clipPath>
  <clipPath id="pfaa69d720e">
   <rect x="68.46" y="257.946456" width="379.38" height="53.993544"/>
  </clipPath>
 </defs>
</svg>
