<?xml version="1.0" encoding="utf-8" standalone="no"?>
<!DOCTYPE svg PUBLIC "-//W3C//DTD SVG 1.1//EN"
  "http://www.w3.org/Graphics/SVG/1.1/DTD/svg11.dtd">
<svg xmlns:xlink="http://www.w3.org/1999/xlink" width="460.8pt" height="345.6pt" viewBox="0 0 460.8 345.6" xmlns="http://www.w3.org/2000/svg" version="1.1">
 <metadata>
  <rdf:RDF xmlns:dc="http://purl.org/dc/elements/1.1/" xmlns:cc="http://creativecommons.org/ns#" xmlns:rdf="http://www.w3.org/1999/02/22-rdf-syntax-ns#">
   <cc:Work>
    <dc:type rdf:resource="http://purl.org/dc/dcmitype/StillImage"/>
    <dc:date>2023-07-11T01:53:38.465987</dc:date>
    <dc:format>image/svg+xml</dc:format>
    <dc:creator>
     <cc:Agent>
      <dc:title>Matplotlib v3.7.1, https://matplotlib.org/</dc:title>
     </cc:Agent>
    </dc:creator>
   </cc:Work>
  </rdf:RDF>
 </metadata>
 <defs>
  <style type="text/css">*{stroke-linejoin: round; stroke-linecap: butt}</style>
 </defs>
 <g id="figure_1">
  <g id="patch_1">
   <path d="M 0 345.6 
L 460.8 345.6 
L 460.8 0 
L 0 0 
z
" style="fill: #ffffff"/>
  </g>
  <g id="axes_1">
   <g id="patch_2">
    <path d="M 62.36 84.585 
L 447.84 84.585 
L 447.84 27.76 
L 62.36 27.76 
z
" style="fill: #ffffff"/>
   </g>
   <g id="matplotlib.axis_1">
    <g id="xtick_1">
     <g id="line2d_1">
      <defs>
       <path id="m29f688792c" d="M 0 0 
L 0 6 
" style="stroke: #262626; stroke-width: 1.25"/>
      </defs>
      <g>
       <use xlink:href="#m29f688792c" x="109.561633" y="84.585" style="fill: #262626; stroke: #262626; stroke-width: 1.25"/>
      </g>
     </g>
    </g>
    <g id="xtick_2">
     <g id="line2d_2">
      <g>
       <use xlink:href="#m29f688792c" x="161.769499" y="84.585" style="fill: #262626; stroke: #262626; stroke-width: 1.25"/>
      </g>
     </g>
    </g>
    <g id="xtick_3">
     <g id="line2d_3">
      <g>
       <use xlink:href="#m29f688792c" x="213.977365" y="84.585" style="fill: #262626; stroke: #262626; stroke-width: 1.25"/>
      </g>
     </g>
    </g>
    <g id="xtick_4">
     <g id="line2d_4">
      <g>
       <use xlink:href="#m29f688792c" x="266.185232" y="84.585" style="fill: #262626; stroke: #262626; stroke-width: 1.25"/>
      </g>
     </g>
    </g>
    <g id="xtick_5">
     <g id="line2d_5">
      <g>
       <use xlink:href="#m29f688792c" x="318.536134" y="84.585" style="fill: #262626; stroke: #262626; stroke-width: 1.25"/>
      </g>
     </g>
    </g>
    <g id="xtick_6">
     <g id="line2d_6">
      <g>
       <use xlink:href="#m29f688792c" x="370.744" y="84.585" style="fill: #262626; stroke: #262626; stroke-width: 1.25"/>
      </g>
     </g>
    </g>
    <g id="xtick_7">
     <g id="line2d_7">
      <g>
       <use xlink:href="#m29f688792c" x="422.951866" y="84.585" style="fill: #262626; stroke: #262626; stroke-width: 1.25"/>
      </g>
     </g>
    </g>
   </g>
   <g id="matplotlib.axis_2">
    <g id="ytick_1">
     <g id="line2d_8">
      <defs>
       <path id="m0abd1fa1b5" d="M 0 0 
L -6 0 
" style="stroke: #262626; stroke-width: 1.25"/>
      </defs>
      <g>
       <use xlink:href="#m0abd1fa1b5" x="62.36" y="82.002045" style="fill: #262626; stroke: #262626; stroke-width: 1.25"/>
      </g>
     </g>
     <g id="text_1">
      <!-- 0 -->
      <g style="fill: #262626" transform="translate(46.742969 85.938842) scale(0.11 -0.11)">
       <defs>
        <path id="ArialMT-30" d="M 266 2259 
Q 266 3072 433 3567 
Q 600 4063 929 4331 
Q 1259 4600 1759 4600 
Q 2128 4600 2406 4451 
Q 2684 4303 2865 4023 
Q 3047 3744 3150 3342 
Q 3253 2941 3253 2259 
Q 3253 1453 3087 958 
Q 2922 463 2592 192 
Q 2263 -78 1759 -78 
Q 1097 -78 719 397 
Q 266 969 266 2259 
z
M 844 2259 
Q 844 1131 1108 757 
Q 1372 384 1759 384 
Q 2147 384 2411 759 
Q 2675 1134 2675 2259 
Q 2675 3391 2411 3762 
Q 2147 4134 1753 4134 
Q 1366 4134 1134 3806 
Q 844 3388 844 2259 
z
" transform="scale(0.015625)"/>
       </defs>
       <use xlink:href="#ArialMT-30"/>
      </g>
     </g>
    </g>
    <g id="ytick_2">
     <g id="line2d_9">
      <g>
       <use xlink:href="#m0abd1fa1b5" x="62.36" y="40.206664" style="fill: #262626; stroke: #262626; stroke-width: 1.25"/>
      </g>
     </g>
     <g id="text_2">
      <!-- 500 -->
      <g style="fill: #262626" transform="translate(34.508906 44.143461) scale(0.11 -0.11)">
       <defs>
        <path id="ArialMT-35" d="M 266 1200 
L 856 1250 
Q 922 819 1161 601 
Q 1400 384 1738 384 
Q 2144 384 2425 690 
Q 2706 997 2706 1503 
Q 2706 1984 2436 2262 
Q 2166 2541 1728 2541 
Q 1456 2541 1237 2417 
Q 1019 2294 894 2097 
L 366 2166 
L 809 4519 
L 3088 4519 
L 3088 3981 
L 1259 3981 
L 1013 2750 
Q 1425 3038 1878 3038 
Q 2478 3038 2890 2622 
Q 3303 2206 3303 1553 
Q 3303 931 2941 478 
Q 2500 -78 1738 -78 
Q 1113 -78 717 272 
Q 322 622 266 1200 
z
" transform="scale(0.015625)"/>
       </defs>
       <use xlink:href="#ArialMT-35"/>
       <use xlink:href="#ArialMT-30" x="55.615234"/>
       <use xlink:href="#ArialMT-30" x="111.230469"/>
      </g>
     </g>
    </g>
   </g>
   <g id="line2d_10">
    <path d="M 62.36 79.995867 
L 63.361247 79.995867 
L 64.362494 78.491233 
L 65.36374 72.974243 
L 66.364987 71.051656 
L 67.366234 70.215748 
L 69.368727 69.129068 
L 70.369974 66.955708 
L 71.371221 65.200302 
L 72.372468 63.86285 
L 73.373714 63.361306 
L 74.374961 62.274626 
L 75.376208 60.853583 
L 76.377455 60.268447 
L 77.378701 59.181767 
L 78.379948 57.175589 
L 79.381195 55.921728 
L 80.382442 55.921728 
L 81.383688 53.748368 
L 82.384935 53.581186 
L 84.387429 52.82887 
L 85.388675 51.992962 
L 87.391169 50.65551 
L 88.392416 49.318058 
L 89.393662 49.234467 
L 90.394909 47.897015 
L 91.396156 46.810335 
L 92.397403 46.141609 
L 93.398649 44.804156 
L 94.399896 42.547206 
L 95.401143 42.547206 
L 96.40239 41.794889 
L 97.403636 41.209754 
L 98.404883 37.113806 
L 99.40613 36.612262 
L 101.408623 36.361489 
L 102.40987 35.859945 
L 103.411117 33.937357 
L 104.412364 33.10145 
L 105.41361 31.847588 
L 106.414857 31.847588 
L 107.416104 31.429634 
L 108.417351 30.342955 
L 112.422338 81.918455 
L 113.423584 81.751273 
L 115.426078 80.581003 
L 116.427325 80.413821 
L 117.428571 80.079458 
L 118.429818 78.324052 
L 119.431065 78.07328 
L 120.432312 75.89992 
L 121.433558 75.816329 
L 122.434805 74.896831 
L 123.436052 71.803972 
L 124.437299 71.803972 
L 125.438545 71.051656 
L 126.439792 70.717293 
L 127.441039 69.964976 
L 128.442286 69.630613 
L 129.443532 68.711114 
L 130.444779 68.29316 
L 131.446026 67.540844 
L 132.447273 66.955708 
L 133.448519 65.618256 
L 134.449766 64.94953 
L 135.451013 63.946441 
L 136.45226 62.525398 
L 137.453506 62.023853 
L 138.454753 60.352038 
L 140.457247 59.934084 
L 141.458494 58.429451 
L 142.45974 57.677134 
L 143.460987 56.1725 
L 144.462234 56.1725 
L 145.463481 55.169411 
L 146.464727 54.835048 
L 148.467221 53.748368 
L 149.468468 52.91246 
L 150.469714 52.578097 
L 151.470961 50.153965 
L 152.472208 49.986784 
L 153.473455 49.986784 
L 154.474701 49.819602 
L 155.475948 49.318058 
L 156.477195 47.980605 
L 157.478442 47.479061 
L 158.479688 47.39547 
L 159.480935 46.726744 
L 160.482182 45.22211 
L 162.484675 44.887747 
L 164.487169 82.002045 
L 165.488416 81.834864 
L 166.489662 81.41691 
L 168.492156 81.166138 
L 169.493403 80.413821 
L 171.495896 80.33023 
L 172.497143 79.912276 
L 183.510857 74.646058 
L 186.514597 72.890652 
L 187.515844 72.723471 
L 188.517091 72.723471 
L 191.520831 70.299339 
L 193.523325 69.37984 
L 194.524571 68.878296 
L 195.525818 67.540844 
L 196.527065 64.280804 
L 197.528312 62.692579 
L 198.529558 62.274626 
L 199.530805 61.271536 
L 200.532052 61.020764 
L 201.533299 59.850494 
L 202.534545 59.683312 
L 203.535792 59.683312 
L 204.537039 59.181767 
L 206.539532 58.596632 
L 207.540779 58.429451 
L 208.542026 57.844315 
L 209.543273 57.677134 
L 210.544519 57.008408 
L 211.545766 57.008408 
L 212.547013 56.757635 
L 213.54826 56.339682 
L 215.550753 56.005318 
L 218.554494 82.002045 
L 219.55574 82.002045 
L 221.558234 81.584092 
L 222.559481 80.915366 
L 223.560727 80.915366 
L 224.561974 80.33023 
L 225.563221 79.912276 
L 226.564468 79.912276 
L 227.565714 79.577913 
L 228.566961 79.076369 
L 229.568208 79.076369 
L 230.569455 78.909187 
L 233.573195 77.822507 
L 234.574442 77.320963 
L 235.575688 77.153781 
L 239.580675 75.816329 
L 240.581922 75.064012 
L 242.584416 74.478877 
L 243.585662 73.72656 
L 245.588156 72.63988 
L 246.589403 72.221926 
L 247.590649 72.221926 
L 250.59439 70.46652 
L 251.595636 69.714203 
L 253.59813 68.961887 
L 254.599377 68.711114 
L 255.600623 67.875207 
L 256.60187 67.457253 
L 258.604364 66.955708 
L 259.60561 66.370573 
L 260.606857 66.03621 
L 261.608104 65.869028 
L 264.611844 64.615167 
L 265.613091 64.030032 
L 267.615584 63.946441 
L 268.616831 63.528487 
L 269.618078 63.361306 
L 271.620571 82.002045 
L 272.621818 81.667682 
L 274.624312 81.41691 
L 275.625558 80.915366 
L 276.626805 80.915366 
L 277.628052 80.33023 
L 279.630545 79.912276 
L 280.631792 79.661504 
L 298.654234 77.906098 
L 299.655481 77.07019 
L 300.656727 77.822507 
L 308.666701 76.401464 
L 309.667948 76.150692 
L 310.669195 76.150692 
L 312.671688 75.89992 
L 315.675429 75.732738 
L 318.679169 75.314784 
L 321.682909 75.064012 
L 323.685403 75.147603 
L 325.687896 82.002045 
L 326.689143 81.918455 
L 328.691636 81.500501 
L 330.69413 81.500501 
L 331.695377 81.333319 
L 334.699117 81.249729 
L 335.700364 81.082547 
L 338.704104 80.998956 
L 342.709091 80.748184 
L 344.711584 79.912276 
L 346.714078 79.661504 
L 349.717818 79.494323 
L 353.722805 79.410732 
L 355.725299 79.15996 
L 356.726545 79.15996 
L 357.727792 78.909187 
L 358.729039 78.909187 
L 359.730286 78.658415 
L 365.737766 78.15687 
L 366.739013 77.906098 
L 372.746494 77.822507 
L 374.748987 77.738917 
L 375.750234 77.738917 
L 376.751481 77.571735 
L 378.753974 82.002045 
L 380.756468 81.918455 
L 381.757714 81.333319 
L 386.763948 80.915366 
L 388.766442 80.497412 
L 389.767688 80.497412 
L 392.771429 80.079458 
L 398.778909 79.661504 
L 402.783896 79.577913 
L 405.787636 79.327141 
L 406.788883 79.076369 
L 408.791377 78.909187 
L 409.792623 78.658415 
L 413.79761 78.407643 
L 415.800104 78.407643 
L 418.803844 77.989689 
L 419.805091 77.989689 
L 420.806338 77.655326 
L 429.817558 77.655326 
L 432.821299 81.918455 
L 436.826286 81.500501 
L 438.828779 81.249729 
L 439.830026 81.166138 
L 443.835013 80.246639 
L 444.83626 80.079458 
L 446.838753 79.410732 
L 447.84 79.410732 
L 447.84 79.410732 
" clip-path="url(#pc188e90e9f)" style="fill: none; stroke: #4c72b0; stroke-width: 1.5; stroke-linecap: round"/>
   </g>
   <g id="patch_3">
    <path d="M 62.36 84.585 
L 62.36 27.76 
" style="fill: none; stroke: #262626; stroke-width: 1.25; stroke-linejoin: miter; stroke-linecap: square"/>
   </g>
   <g id="patch_4">
    <path d="M 447.84 84.585 
L 447.84 27.76 
" style="fill: none; stroke: #262626; stroke-width: 1.25; stroke-linejoin: miter; stroke-linecap: square"/>
   </g>
   <g id="patch_5">
    <path d="M 62.36 84.585 
L 447.84 84.585 
" style="fill: none; stroke: #262626; stroke-width: 1.25; stroke-linejoin: miter; stroke-linecap: square"/>
   </g>
   <g id="patch_6">
    <path d="M 62.36 27.76 
L 447.84 27.76 
" style="fill: none; stroke: #262626; stroke-width: 1.25; stroke-linejoin: miter; stroke-linecap: square"/>
   </g>
   <g id="text_3">
    <!-- Hepatitis A -->
    <g style="fill: #262626" transform="translate(226.418125 21.76) scale(0.12 -0.12)">
     <defs>
      <path id="ArialMT-48" d="M 513 0 
L 513 4581 
L 1119 4581 
L 1119 2700 
L 3500 2700 
L 3500 4581 
L 4106 4581 
L 4106 0 
L 3500 0 
L 3500 2159 
L 1119 2159 
L 1119 0 
L 513 0 
z
" transform="scale(0.015625)"/>
      <path id="ArialMT-65" d="M 2694 1069 
L 3275 997 
Q 3138 488 2766 206 
Q 2394 -75 1816 -75 
Q 1088 -75 661 373 
Q 234 822 234 1631 
Q 234 2469 665 2931 
Q 1097 3394 1784 3394 
Q 2450 3394 2872 2941 
Q 3294 2488 3294 1666 
Q 3294 1616 3291 1516 
L 816 1516 
Q 847 969 1125 678 
Q 1403 388 1819 388 
Q 2128 388 2347 550 
Q 2566 713 2694 1069 
z
M 847 1978 
L 2700 1978 
Q 2663 2397 2488 2606 
Q 2219 2931 1791 2931 
Q 1403 2931 1139 2672 
Q 875 2413 847 1978 
z
" transform="scale(0.015625)"/>
      <path id="ArialMT-70" d="M 422 -1272 
L 422 3319 
L 934 3319 
L 934 2888 
Q 1116 3141 1344 3267 
Q 1572 3394 1897 3394 
Q 2322 3394 2647 3175 
Q 2972 2956 3137 2557 
Q 3303 2159 3303 1684 
Q 3303 1175 3120 767 
Q 2938 359 2589 142 
Q 2241 -75 1856 -75 
Q 1575 -75 1351 44 
Q 1128 163 984 344 
L 984 -1272 
L 422 -1272 
z
M 931 1641 
Q 931 1000 1190 694 
Q 1450 388 1819 388 
Q 2194 388 2461 705 
Q 2728 1022 2728 1688 
Q 2728 2322 2467 2637 
Q 2206 2953 1844 2953 
Q 1484 2953 1207 2617 
Q 931 2281 931 1641 
z
" transform="scale(0.015625)"/>
      <path id="ArialMT-61" d="M 2588 409 
Q 2275 144 1986 34 
Q 1697 -75 1366 -75 
Q 819 -75 525 192 
Q 231 459 231 875 
Q 231 1119 342 1320 
Q 453 1522 633 1644 
Q 813 1766 1038 1828 
Q 1203 1872 1538 1913 
Q 2219 1994 2541 2106 
Q 2544 2222 2544 2253 
Q 2544 2597 2384 2738 
Q 2169 2928 1744 2928 
Q 1347 2928 1158 2789 
Q 969 2650 878 2297 
L 328 2372 
Q 403 2725 575 2942 
Q 747 3159 1072 3276 
Q 1397 3394 1825 3394 
Q 2250 3394 2515 3294 
Q 2781 3194 2906 3042 
Q 3031 2891 3081 2659 
Q 3109 2516 3109 2141 
L 3109 1391 
Q 3109 606 3145 398 
Q 3181 191 3288 0 
L 2700 0 
Q 2613 175 2588 409 
z
M 2541 1666 
Q 2234 1541 1622 1453 
Q 1275 1403 1131 1340 
Q 988 1278 909 1158 
Q 831 1038 831 891 
Q 831 666 1001 516 
Q 1172 366 1500 366 
Q 1825 366 2078 508 
Q 2331 650 2450 897 
Q 2541 1088 2541 1459 
L 2541 1666 
z
" transform="scale(0.015625)"/>
      <path id="ArialMT-74" d="M 1650 503 
L 1731 6 
Q 1494 -44 1306 -44 
Q 1000 -44 831 53 
Q 663 150 594 308 
Q 525 466 525 972 
L 525 2881 
L 113 2881 
L 113 3319 
L 525 3319 
L 525 4141 
L 1084 4478 
L 1084 3319 
L 1650 3319 
L 1650 2881 
L 1084 2881 
L 1084 941 
Q 1084 700 1114 631 
Q 1144 563 1211 522 
Q 1278 481 1403 481 
Q 1497 481 1650 503 
z
" transform="scale(0.015625)"/>
      <path id="ArialMT-69" d="M 425 3934 
L 425 4581 
L 988 4581 
L 988 3934 
L 425 3934 
z
M 425 0 
L 425 3319 
L 988 3319 
L 988 0 
L 425 0 
z
" transform="scale(0.015625)"/>
      <path id="ArialMT-73" d="M 197 991 
L 753 1078 
Q 800 744 1014 566 
Q 1228 388 1613 388 
Q 2000 388 2187 545 
Q 2375 703 2375 916 
Q 2375 1106 2209 1216 
Q 2094 1291 1634 1406 
Q 1016 1563 777 1677 
Q 538 1791 414 1992 
Q 291 2194 291 2438 
Q 291 2659 392 2848 
Q 494 3038 669 3163 
Q 800 3259 1026 3326 
Q 1253 3394 1513 3394 
Q 1903 3394 2198 3281 
Q 2494 3169 2634 2976 
Q 2775 2784 2828 2463 
L 2278 2388 
Q 2241 2644 2061 2787 
Q 1881 2931 1553 2931 
Q 1166 2931 1000 2803 
Q 834 2675 834 2503 
Q 834 2394 903 2306 
Q 972 2216 1119 2156 
Q 1203 2125 1616 2013 
Q 2213 1853 2448 1751 
Q 2684 1650 2818 1456 
Q 2953 1263 2953 975 
Q 2953 694 2789 445 
Q 2625 197 2315 61 
Q 2006 -75 1616 -75 
Q 969 -75 630 194 
Q 291 463 197 991 
z
" transform="scale(0.015625)"/>
      <path id="ArialMT-20" transform="scale(0.015625)"/>
      <path id="ArialMT-41" d="M -9 0 
L 1750 4581 
L 2403 4581 
L 4278 0 
L 3588 0 
L 3053 1388 
L 1138 1388 
L 634 0 
L -9 0 
z
M 1313 1881 
L 2866 1881 
L 2388 3150 
Q 2169 3728 2063 4100 
Q 1975 3659 1816 3225 
L 1313 1881 
z
" transform="scale(0.015625)"/>
     </defs>
     <use xlink:href="#ArialMT-48"/>
     <use xlink:href="#ArialMT-65" x="72.216797"/>
     <use xlink:href="#ArialMT-70" x="127.832031"/>
     <use xlink:href="#ArialMT-61" x="183.447266"/>
     <use xlink:href="#ArialMT-74" x="239.0625"/>
     <use xlink:href="#ArialMT-69" x="266.845703"/>
     <use xlink:href="#ArialMT-74" x="289.0625"/>
     <use xlink:href="#ArialMT-69" x="316.845703"/>
     <use xlink:href="#ArialMT-73" x="339.0625"/>
     <use xlink:href="#ArialMT-20" x="389.0625"/>
     <use xlink:href="#ArialMT-41" x="411.345703"/>
    </g>
   </g>
  </g>
  <g id="axes_2">
   <g id="patch_7">
    <path d="M 62.36 160.37 
L 447.84 160.37 
L 447.84 103.545 
L 62.36 103.545 
z
" style="fill: #ffffff"/>
   </g>
   <g id="matplotlib.axis_3">
    <g id="xtick_8">
     <g id="line2d_11">
      <g>
       <use xlink:href="#m29f688792c" x="109.561633" y="160.37" style="fill: #262626; stroke: #262626; stroke-width: 1.25"/>
      </g>
     </g>
    </g>
    <g id="xtick_9">
     <g id="line2d_12">
      <g>
       <use xlink:href="#m29f688792c" x="161.769499" y="160.37" style="fill: #262626; stroke: #262626; stroke-width: 1.25"/>
      </g>
     </g>
    </g>
    <g id="xtick_10">
     <g id="line2d_13">
      <g>
       <use xlink:href="#m29f688792c" x="213.977365" y="160.37" style="fill: #262626; stroke: #262626; stroke-width: 1.25"/>
      </g>
     </g>
    </g>
    <g id="xtick_11">
     <g id="line2d_14">
      <g>
       <use xlink:href="#m29f688792c" x="266.185232" y="160.37" style="fill: #262626; stroke: #262626; stroke-width: 1.25"/>
      </g>
     </g>
    </g>
    <g id="xtick_12">
     <g id="line2d_15">
      <g>
       <use xlink:href="#m29f688792c" x="318.536134" y="160.37" style="fill: #262626; stroke: #262626; stroke-width: 1.25"/>
      </g>
     </g>
    </g>
    <g id="xtick_13">
     <g id="line2d_16">
      <g>
       <use xlink:href="#m29f688792c" x="370.744" y="160.37" style="fill: #262626; stroke: #262626; stroke-width: 1.25"/>
      </g>
     </g>
    </g>
    <g id="xtick_14">
     <g id="line2d_17">
      <g>
       <use xlink:href="#m29f688792c" x="422.951866" y="160.37" style="fill: #262626; stroke: #262626; stroke-width: 1.25"/>
      </g>
     </g>
    </g>
   </g>
   <g id="matplotlib.axis_4">
    <g id="ytick_3">
     <g id="line2d_18">
      <g>
       <use xlink:href="#m0abd1fa1b5" x="62.36" y="135.440127" style="fill: #262626; stroke: #262626; stroke-width: 1.25"/>
      </g>
     </g>
     <g id="text_4">
      <!-- 200 -->
      <g style="fill: #262626" transform="translate(34.508906 139.376924) scale(0.11 -0.11)">
       <defs>
        <path id="ArialMT-32" d="M 3222 541 
L 3222 0 
L 194 0 
Q 188 203 259 391 
Q 375 700 629 1000 
Q 884 1300 1366 1694 
Q 2113 2306 2375 2664 
Q 2638 3022 2638 3341 
Q 2638 3675 2398 3904 
Q 2159 4134 1775 4134 
Q 1369 4134 1125 3890 
Q 881 3647 878 3216 
L 300 3275 
Q 359 3922 746 4261 
Q 1134 4600 1788 4600 
Q 2447 4600 2831 4234 
Q 3216 3869 3216 3328 
Q 3216 3053 3103 2787 
Q 2991 2522 2730 2228 
Q 2469 1934 1863 1422 
Q 1356 997 1212 845 
Q 1069 694 975 541 
L 3222 541 
z
" transform="scale(0.015625)"/>
       </defs>
       <use xlink:href="#ArialMT-32"/>
       <use xlink:href="#ArialMT-30" x="55.615234"/>
       <use xlink:href="#ArialMT-30" x="111.230469"/>
      </g>
     </g>
    </g>
    <g id="ytick_4">
     <g id="line2d_19">
      <g>
       <use xlink:href="#m0abd1fa1b5" x="62.36" y="109.341503" style="fill: #262626; stroke: #262626; stroke-width: 1.25"/>
      </g>
     </g>
     <g id="text_5">
      <!-- 400 -->
      <g style="fill: #262626" transform="translate(34.508906 113.2783) scale(0.11 -0.11)">
       <defs>
        <path id="ArialMT-34" d="M 2069 0 
L 2069 1097 
L 81 1097 
L 81 1613 
L 2172 4581 
L 2631 4581 
L 2631 1613 
L 3250 1613 
L 3250 1097 
L 2631 1097 
L 2631 0 
L 2069 0 
z
M 2069 1613 
L 2069 3678 
L 634 1613 
L 2069 1613 
z
" transform="scale(0.015625)"/>
       </defs>
       <use xlink:href="#ArialMT-34"/>
       <use xlink:href="#ArialMT-30" x="55.615234"/>
       <use xlink:href="#ArialMT-30" x="111.230469"/>
      </g>
     </g>
    </g>
    <g id="text_6">
     <!-- Trend -->
     <g style="fill: #262626" transform="translate(28.123906 147.404687) rotate(-90) scale(0.12 -0.12)">
      <defs>
       <path id="ArialMT-54" d="M 1659 0 
L 1659 4041 
L 150 4041 
L 150 4581 
L 3781 4581 
L 3781 4041 
L 2266 4041 
L 2266 0 
L 1659 0 
z
" transform="scale(0.015625)"/>
       <path id="ArialMT-72" d="M 416 0 
L 416 3319 
L 922 3319 
L 922 2816 
Q 1116 3169 1280 3281 
Q 1444 3394 1641 3394 
Q 1925 3394 2219 3213 
L 2025 2691 
Q 1819 2813 1613 2813 
Q 1428 2813 1281 2702 
Q 1134 2591 1072 2394 
Q 978 2094 978 1738 
L 978 0 
L 416 0 
z
" transform="scale(0.015625)"/>
       <path id="ArialMT-6e" d="M 422 0 
L 422 3319 
L 928 3319 
L 928 2847 
Q 1294 3394 1984 3394 
Q 2284 3394 2536 3286 
Q 2788 3178 2913 3003 
Q 3038 2828 3088 2588 
Q 3119 2431 3119 2041 
L 3119 0 
L 2556 0 
L 2556 2019 
Q 2556 2363 2490 2533 
Q 2425 2703 2258 2804 
Q 2091 2906 1866 2906 
Q 1506 2906 1245 2678 
Q 984 2450 984 1813 
L 984 0 
L 422 0 
z
" transform="scale(0.015625)"/>
       <path id="ArialMT-64" d="M 2575 0 
L 2575 419 
Q 2259 -75 1647 -75 
Q 1250 -75 917 144 
Q 584 363 401 755 
Q 219 1147 219 1656 
Q 219 2153 384 2558 
Q 550 2963 881 3178 
Q 1213 3394 1622 3394 
Q 1922 3394 2156 3267 
Q 2391 3141 2538 2938 
L 2538 4581 
L 3097 4581 
L 3097 0 
L 2575 0 
z
M 797 1656 
Q 797 1019 1065 703 
Q 1334 388 1700 388 
Q 2069 388 2326 689 
Q 2584 991 2584 1609 
Q 2584 2291 2321 2609 
Q 2059 2928 1675 2928 
Q 1300 2928 1048 2622 
Q 797 2316 797 1656 
z
" transform="scale(0.015625)"/>
      </defs>
      <use xlink:href="#ArialMT-54"/>
      <use xlink:href="#ArialMT-72" x="57.333984"/>
      <use xlink:href="#ArialMT-65" x="90.634766"/>
      <use xlink:href="#ArialMT-6e" x="146.25"/>
      <use xlink:href="#ArialMT-64" x="201.865234"/>
     </g>
    </g>
   </g>
   <g id="line2d_20">
    <path d="M 62.36 106.127955 
L 67.366234 107.989723 
L 69.368727 108.362749 
L 101.408623 120.187559 
L 108.417351 122.828568 
L 112.422338 123.219816 
L 119.431065 125.643456 
L 123.436052 126.763863 
L 127.441039 127.638622 
L 132.447273 128.493409 
L 147.465974 130.671589 
L 161.483429 132.611106 
L 162.484675 132.730358 
L 165.488416 132.973246 
L 170.494649 133.720231 
L 172.497143 134.103709 
L 182.50961 134.314794 
L 187.515844 135.542001 
L 188.517091 135.816507 
L 190.519584 136.09883 
L 197.528312 138.225682 
L 206.539532 140.969443 
L 211.545766 142.260376 
L 215.550753 143.104368 
L 218.554494 143.293618 
L 228.566961 145.041405 
L 234.574442 145.831486 
L 240.581922 146.359154 
L 246.589403 146.637669 
L 258.604364 147.085311 
L 262.609351 147.468392 
L 267.615584 148.19459 
L 269.618078 148.540125 
L 272.621818 148.914642 
L 277.628052 149.987615 
L 280.631792 150.709771 
L 296.65174 150.958377 
L 304.661714 152.949424 
L 309.667948 153.650978 
L 312.671688 154.306414 
L 315.675429 154.512571 
L 321.682909 155.598077 
L 327.69039 156.172352 
L 333.69787 156.839427 
L 341.707844 157.483797 
L 347.715325 157.747128 
L 352.721558 157.755775 
L 359.730286 157.514984 
L 367.74026 157.266238 
L 373.74774 157.345923 
L 388.766442 157.787045 
L 394.773922 157.658905 
L 414.798857 156.972465 
L 447.84 156.246895 
L 447.84 156.246895 
" clip-path="url(#pb0aef43f51)" style="fill: none; stroke: #4c72b0; stroke-width: 1.5; stroke-linecap: round"/>
   </g>
   <g id="patch_8">
    <path d="M 62.36 160.37 
L 62.36 103.545 
" style="fill: none; stroke: #262626; stroke-width: 1.25; stroke-linejoin: miter; stroke-linecap: square"/>
   </g>
   <g id="patch_9">
    <path d="M 447.84 160.37 
L 447.84 103.545 
" style="fill: none; stroke: #262626; stroke-width: 1.25; stroke-linejoin: miter; stroke-linecap: square"/>
   </g>
   <g id="patch_10">
    <path d="M 62.36 160.37 
L 447.84 160.37 
" style="fill: none; stroke: #262626; stroke-width: 1.25; stroke-linejoin: miter; stroke-linecap: square"/>
   </g>
   <g id="patch_11">
    <path d="M 62.36 103.545 
L 447.84 103.545 
" style="fill: none; stroke: #262626; stroke-width: 1.25; stroke-linejoin: miter; stroke-linecap: square"/>
   </g>
  </g>
  <g id="axes_3">
   <g id="patch_12">
    <path d="M 62.36 236.155 
L 447.84 236.155 
L 447.84 179.33 
L 62.36 179.33 
z
" style="fill: #ffffff"/>
   </g>
   <g id="matplotlib.axis_5">
    <g id="xtick_15">
     <g id="line2d_21">
      <g>
       <use xlink:href="#m29f688792c" x="109.561633" y="236.155" style="fill: #262626; stroke: #262626; stroke-width: 1.25"/>
      </g>
     </g>
    </g>
    <g id="xtick_16">
     <g id="line2d_22">
      <g>
       <use xlink:href="#m29f688792c" x="161.769499" y="236.155" style="fill: #262626; stroke: #262626; stroke-width: 1.25"/>
      </g>
     </g>
    </g>
    <g id="xtick_17">
     <g id="line2d_23">
      <g>
       <use xlink:href="#m29f688792c" x="213.977365" y="236.155" style="fill: #262626; stroke: #262626; stroke-width: 1.25"/>
      </g>
     </g>
    </g>
    <g id="xtick_18">
     <g id="line2d_24">
      <g>
       <use xlink:href="#m29f688792c" x="266.185232" y="236.155" style="fill: #262626; stroke: #262626; stroke-width: 1.25"/>
      </g>
     </g>
    </g>
    <g id="xtick_19">
     <g id="line2d_25">
      <g>
       <use xlink:href="#m29f688792c" x="318.536134" y="236.155" style="fill: #262626; stroke: #262626; stroke-width: 1.25"/>
      </g>
     </g>
    </g>
    <g id="xtick_20">
     <g id="line2d_26">
      <g>
       <use xlink:href="#m29f688792c" x="370.744" y="236.155" style="fill: #262626; stroke: #262626; stroke-width: 1.25"/>
      </g>
     </g>
    </g>
    <g id="xtick_21">
     <g id="line2d_27">
      <g>
       <use xlink:href="#m29f688792c" x="422.951866" y="236.155" style="fill: #262626; stroke: #262626; stroke-width: 1.25"/>
      </g>
     </g>
    </g>
   </g>
   <g id="matplotlib.axis_6">
    <g id="ytick_5">
     <g id="line2d_28">
      <g>
       <use xlink:href="#m0abd1fa1b5" x="62.36" y="223.891027" style="fill: #262626; stroke: #262626; stroke-width: 1.25"/>
      </g>
     </g>
     <g id="text_7">
      <!-- −250 -->
      <g style="fill: #262626" transform="translate(28.084219 227.827824) scale(0.11 -0.11)">
       <defs>
        <path id="ArialMT-2212" d="M 3381 1997 
L 356 1997 
L 356 2522 
L 3381 2522 
L 3381 1997 
z
" transform="scale(0.015625)"/>
       </defs>
       <use xlink:href="#ArialMT-2212"/>
       <use xlink:href="#ArialMT-32" x="58.398438"/>
       <use xlink:href="#ArialMT-35" x="114.013672"/>
       <use xlink:href="#ArialMT-30" x="169.628906"/>
      </g>
     </g>
    </g>
    <g id="ytick_6">
     <g id="line2d_29">
      <g>
       <use xlink:href="#m0abd1fa1b5" x="62.36" y="204.196518" style="fill: #262626; stroke: #262626; stroke-width: 1.25"/>
      </g>
     </g>
     <g id="text_8">
      <!-- 0 -->
      <g style="fill: #262626" transform="translate(46.742969 208.133315) scale(0.11 -0.11)">
       <use xlink:href="#ArialMT-30"/>
      </g>
     </g>
    </g>
    <g id="ytick_7">
     <g id="line2d_30">
      <g>
       <use xlink:href="#m0abd1fa1b5" x="62.36" y="184.502009" style="fill: #262626; stroke: #262626; stroke-width: 1.25"/>
      </g>
     </g>
     <g id="text_9">
      <!-- 250 -->
      <g style="fill: #262626" transform="translate(34.508906 188.438806) scale(0.11 -0.11)">
       <use xlink:href="#ArialMT-32"/>
       <use xlink:href="#ArialMT-35" x="55.615234"/>
       <use xlink:href="#ArialMT-30" x="111.230469"/>
      </g>
     </g>
    </g>
    <g id="text_10">
     <!-- Season -->
     <g style="fill: #262626" transform="translate(21.699219 228.090937) rotate(-90) scale(0.12 -0.12)">
      <defs>
       <path id="ArialMT-53" d="M 288 1472 
L 859 1522 
Q 900 1178 1048 958 
Q 1197 738 1509 602 
Q 1822 466 2213 466 
Q 2559 466 2825 569 
Q 3091 672 3220 851 
Q 3350 1031 3350 1244 
Q 3350 1459 3225 1620 
Q 3100 1781 2813 1891 
Q 2628 1963 1997 2114 
Q 1366 2266 1113 2400 
Q 784 2572 623 2826 
Q 463 3081 463 3397 
Q 463 3744 659 4045 
Q 856 4347 1234 4503 
Q 1613 4659 2075 4659 
Q 2584 4659 2973 4495 
Q 3363 4331 3572 4012 
Q 3781 3694 3797 3291 
L 3216 3247 
Q 3169 3681 2898 3903 
Q 2628 4125 2100 4125 
Q 1550 4125 1298 3923 
Q 1047 3722 1047 3438 
Q 1047 3191 1225 3031 
Q 1400 2872 2139 2705 
Q 2878 2538 3153 2413 
Q 3553 2228 3743 1945 
Q 3934 1663 3934 1294 
Q 3934 928 3725 604 
Q 3516 281 3123 101 
Q 2731 -78 2241 -78 
Q 1619 -78 1198 103 
Q 778 284 539 648 
Q 300 1013 288 1472 
z
" transform="scale(0.015625)"/>
       <path id="ArialMT-6f" d="M 213 1659 
Q 213 2581 725 3025 
Q 1153 3394 1769 3394 
Q 2453 3394 2887 2945 
Q 3322 2497 3322 1706 
Q 3322 1066 3130 698 
Q 2938 331 2570 128 
Q 2203 -75 1769 -75 
Q 1072 -75 642 372 
Q 213 819 213 1659 
z
M 791 1659 
Q 791 1022 1069 705 
Q 1347 388 1769 388 
Q 2188 388 2466 706 
Q 2744 1025 2744 1678 
Q 2744 2294 2464 2611 
Q 2184 2928 1769 2928 
Q 1347 2928 1069 2612 
Q 791 2297 791 1659 
z
" transform="scale(0.015625)"/>
      </defs>
      <use xlink:href="#ArialMT-53"/>
      <use xlink:href="#ArialMT-65" x="66.699219"/>
      <use xlink:href="#ArialMT-61" x="122.314453"/>
      <use xlink:href="#ArialMT-73" x="177.929688"/>
      <use xlink:href="#ArialMT-6f" x="227.929688"/>
      <use xlink:href="#ArialMT-6e" x="283.544922"/>
     </g>
    </g>
   </g>
   <g id="line2d_31">
    <path d="M 62.36 228.608949 
L 63.361247 233.572045 
L 64.362494 232.416264 
L 65.36374 228.814545 
L 66.364987 226.80507 
L 67.366234 226.06901 
L 69.368727 224.319495 
L 71.371221 221.267488 
L 72.372468 219.220709 
L 75.376208 215.739801 
L 77.378701 213.770587 
L 78.379948 212.065466 
L 79.381195 211.011948 
L 80.382442 210.343715 
L 81.383688 208.584436 
L 84.387429 206.278934 
L 87.391169 202.281311 
L 88.392416 201.223866 
L 89.393662 200.786171 
L 90.394909 199.235935 
L 92.397403 196.84375 
L 93.398649 195.882723 
L 94.399896 193.917498 
L 96.40239 192.084515 
L 97.403636 191.372409 
L 98.404883 188.398109 
L 99.40613 187.627535 
L 100.407377 186.357828 
L 101.408623 186.085918 
L 102.40987 185.60474 
L 103.411117 184.176253 
L 104.412364 183.316566 
L 105.41361 181.912955 
L 106.414857 185.301939 
L 107.416104 184.850102 
L 108.417351 183.773715 
L 112.422338 213.518306 
L 113.423584 212.424739 
L 114.424831 220.438779 
L 115.426078 227.240731 
L 116.427325 226.391855 
L 117.428571 223.999718 
L 118.429818 222.546711 
L 119.431065 221.92512 
L 120.432312 220.577101 
L 122.434805 218.431385 
L 123.436052 216.744921 
L 124.437299 215.438759 
L 126.439792 213.591559 
L 128.442286 212.059272 
L 129.443532 210.821951 
L 131.446026 209.289946 
L 132.447273 207.993294 
L 135.451013 205.887606 
L 138.454753 202.300005 
L 139.456 201.470753 
L 140.457247 200.957215 
L 142.45974 198.714235 
L 143.460987 197.809325 
L 144.462234 197.131874 
L 145.463481 195.738578 
L 146.464727 195.415542 
L 148.467221 194.161403 
L 149.468468 192.121946 
L 150.469714 191.569597 
L 151.470961 190.499697 
L 152.472208 190.256107 
L 153.473455 189.841605 
L 154.474701 188.825916 
L 155.475948 188.148055 
L 156.477195 187.067413 
L 157.478442 191.813779 
L 158.479688 191.487907 
L 159.480935 190.678403 
L 160.482182 209.066286 
L 161.483429 210.355177 
L 162.484675 213.481826 
L 164.487169 221.022469 
L 165.488416 220.460133 
L 166.489662 219.186459 
L 167.490909 218.247122 
L 168.492156 217.727021 
L 169.493403 216.754452 
L 170.494649 216.182638 
L 171.495896 215.445455 
L 172.497143 214.06362 
L 182.50961 212.76409 
L 184.512104 211.357926 
L 186.514597 210.277827 
L 187.515844 209.478385 
L 188.517091 208.98068 
L 190.519584 208.169182 
L 191.520831 207.31718 
L 194.524571 205.43442 
L 197.528312 202.379176 
L 199.530805 201.228484 
L 202.534545 198.870465 
L 203.535792 198.464309 
L 204.537039 197.618652 
L 205.538286 198.053899 
L 207.540779 197.115242 
L 208.542026 195.958335 
L 209.543273 195.692452 
L 210.544519 194.819782 
L 211.545766 194.602833 
L 212.547013 194.25753 
L 215.550753 192.365771 
L 218.554494 197.694388 
L 219.55574 197.485078 
L 220.556987 196.929502 
L 221.558234 204.736952 
L 222.559481 207.983291 
L 223.560727 206.523448 
L 224.561974 215.131321 
L 226.564468 214.395677 
L 228.566961 213.538727 
L 229.568208 212.995089 
L 230.569455 212.772459 
L 231.570701 212.397572 
L 232.571948 211.4193 
L 233.573195 210.068764 
L 235.575688 209.03596 
L 236.576935 208.771703 
L 239.580675 207.691409 
L 240.581922 206.868986 
L 244.586909 204.8203 
L 245.588156 204.065617 
L 246.589403 203.0007 
L 247.590649 202.31552 
L 248.591896 201.881977 
L 249.593143 201.301261 
L 250.59439 200.850561 
L 251.595636 200.181777 
L 252.596883 199.775885 
L 253.59813 199.575848 
L 254.599377 199.216117 
L 255.600623 200.438431 
L 258.604364 199.371988 
L 259.60561 199.475597 
L 260.606857 198.911953 
L 261.608104 198.720538 
L 264.611844 197.783928 
L 265.613091 197.324297 
L 266.614338 203.458011 
L 267.615584 203.344923 
L 269.618078 202.668173 
L 271.620571 207.458849 
L 272.621818 207.220761 
L 273.623065 210.442647 
L 277.628052 209.161073 
L 279.630545 208.748053 
L 280.631792 208.914889 
L 296.65174 208.293392 
L 297.652987 207.572879 
L 299.655481 206.885947 
L 300.656727 206.763499 
L 303.660468 205.98728 
L 304.661714 205.501873 
L 308.666701 204.795272 
L 311.670442 203.69243 
L 312.671688 203.102637 
L 315.675429 202.740314 
L 321.682909 200.960894 
L 323.685403 200.762997 
L 325.687896 201.945638 
L 328.691636 201.276616 
L 329.692883 202.042378 
L 330.69413 201.761324 
L 331.695377 201.617498 
L 332.696623 201.327317 
L 333.69787 201.826125 
L 335.700364 201.26633 
L 336.70161 204.418688 
L 337.702857 204.318302 
L 339.705351 203.839019 
L 340.706597 207.2513 
L 341.707844 207.024485 
L 342.709091 208.050705 
L 347.715325 206.84069 
L 348.716571 206.697419 
L 349.717818 205.7141 
L 350.719065 205.379011 
L 352.721558 205.137865 
L 353.722805 204.911095 
L 354.724052 204.92501 
L 356.726545 204.649329 
L 358.729039 204.249218 
L 363.735273 203.35095 
L 372.746494 202.207241 
L 373.74774 203.416286 
L 376.751481 203.127808 
L 378.753974 204.332139 
L 380.756468 204.201765 
L 381.757714 203.972055 
L 382.758961 205.468156 
L 384.761455 205.130699 
L 385.762701 205.324515 
L 387.765195 205.054802 
L 388.766442 204.940607 
L 389.767688 206.561899 
L 390.768935 206.349114 
L 391.770182 205.9072 
L 395.775169 205.118509 
L 397.777662 204.868027 
L 398.778909 202.612093 
L 399.780156 202.575822 
L 400.781403 203.056859 
L 405.787636 203.127639 
L 406.788883 202.904846 
L 407.79013 203.060036 
L 410.79387 202.878217 
L 412.796364 203.045621 
L 413.79761 203.338782 
L 414.798857 203.50891 
L 417.802597 203.440894 
L 419.805091 203.689527 
L 420.806338 203.502563 
L 421.807584 203.585701 
L 422.808831 204.627721 
L 425.812571 204.715627 
L 426.813818 206.418332 
L 427.815065 206.589059 
L 428.816312 206.555228 
L 429.817558 206.386235 
L 432.821299 208.94461 
L 434.823792 208.828573 
L 435.825039 206.388484 
L 438.828779 206.176826 
L 439.830026 205.556203 
L 440.831273 205.36417 
L 441.832519 203.950799 
L 444.83626 203.557099 
L 447.84 203.245148 
L 447.84 203.245148 
" clip-path="url(#pf9ef68f728)" style="fill: none; stroke: #4c72b0; stroke-width: 1.5; stroke-linecap: round"/>
   </g>
   <g id="patch_13">
    <path d="M 62.36 236.155 
L 62.36 179.33 
" style="fill: none; stroke: #262626; stroke-width: 1.25; stroke-linejoin: miter; stroke-linecap: square"/>
   </g>
   <g id="patch_14">
    <path d="M 447.84 236.155 
L 447.84 179.33 
" style="fill: none; stroke: #262626; stroke-width: 1.25; stroke-linejoin: miter; stroke-linecap: square"/>
   </g>
   <g id="patch_15">
    <path d="M 62.36 236.155 
L 447.84 236.155 
" style="fill: none; stroke: #262626; stroke-width: 1.25; stroke-linejoin: miter; stroke-linecap: square"/>
   </g>
   <g id="patch_16">
    <path d="M 62.36 179.33 
L 447.84 179.33 
" style="fill: none; stroke: #262626; stroke-width: 1.25; stroke-linejoin: miter; stroke-linecap: square"/>
   </g>
  </g>
  <g id="axes_4">
   <g id="patch_17">
    <path d="M 62.36 311.94 
L 447.84 311.94 
L 447.84 255.115 
L 62.36 255.115 
z
" style="fill: #ffffff"/>
   </g>
   <g id="line2d_32">
    <path d="M 62.36 288.701165 
L 447.84 288.701165 
" clip-path="url(#pc77747d00a)" style="fill: none; stroke: #000000; stroke-width: 1.5; stroke-linecap: round"/>
   </g>
   <g id="matplotlib.axis_7">
    <g id="xtick_22">
     <g id="line2d_33">
      <g>
       <use xlink:href="#m29f688792c" x="109.561633" y="311.94" style="fill: #262626; stroke: #262626; stroke-width: 1.25"/>
      </g>
     </g>
     <g id="text_11">
      <!-- 2017 -->
      <g style="fill: #262626" transform="translate(97.32757 329.313594) scale(0.11 -0.11)">
       <defs>
        <path id="ArialMT-31" d="M 2384 0 
L 1822 0 
L 1822 3584 
Q 1619 3391 1289 3197 
Q 959 3003 697 2906 
L 697 3450 
Q 1169 3672 1522 3987 
Q 1875 4303 2022 4600 
L 2384 4600 
L 2384 0 
z
" transform="scale(0.015625)"/>
        <path id="ArialMT-37" d="M 303 3981 
L 303 4522 
L 3269 4522 
L 3269 4084 
Q 2831 3619 2401 2847 
Q 1972 2075 1738 1259 
Q 1569 684 1522 0 
L 944 0 
Q 953 541 1156 1306 
Q 1359 2072 1739 2783 
Q 2119 3494 2547 3981 
L 303 3981 
z
" transform="scale(0.015625)"/>
       </defs>
       <use xlink:href="#ArialMT-32"/>
       <use xlink:href="#ArialMT-30" x="55.615234"/>
       <use xlink:href="#ArialMT-31" x="111.230469"/>
       <use xlink:href="#ArialMT-37" x="166.845703"/>
      </g>
     </g>
    </g>
    <g id="xtick_23">
     <g id="line2d_34">
      <g>
       <use xlink:href="#m29f688792c" x="161.769499" y="311.94" style="fill: #262626; stroke: #262626; stroke-width: 1.25"/>
      </g>
     </g>
     <g id="text_12">
      <!-- 2018 -->
      <g style="fill: #262626" transform="translate(149.535437 329.313594) scale(0.11 -0.11)">
       <defs>
        <path id="ArialMT-38" d="M 1131 2484 
Q 781 2613 612 2850 
Q 444 3088 444 3419 
Q 444 3919 803 4259 
Q 1163 4600 1759 4600 
Q 2359 4600 2725 4251 
Q 3091 3903 3091 3403 
Q 3091 3084 2923 2848 
Q 2756 2613 2416 2484 
Q 2838 2347 3058 2040 
Q 3278 1734 3278 1309 
Q 3278 722 2862 322 
Q 2447 -78 1769 -78 
Q 1091 -78 675 323 
Q 259 725 259 1325 
Q 259 1772 486 2073 
Q 713 2375 1131 2484 
z
M 1019 3438 
Q 1019 3113 1228 2906 
Q 1438 2700 1772 2700 
Q 2097 2700 2305 2904 
Q 2513 3109 2513 3406 
Q 2513 3716 2298 3927 
Q 2084 4138 1766 4138 
Q 1444 4138 1231 3931 
Q 1019 3725 1019 3438 
z
M 838 1322 
Q 838 1081 952 856 
Q 1066 631 1291 507 
Q 1516 384 1775 384 
Q 2178 384 2440 643 
Q 2703 903 2703 1303 
Q 2703 1709 2433 1975 
Q 2163 2241 1756 2241 
Q 1359 2241 1098 1978 
Q 838 1716 838 1322 
z
" transform="scale(0.015625)"/>
       </defs>
       <use xlink:href="#ArialMT-32"/>
       <use xlink:href="#ArialMT-30" x="55.615234"/>
       <use xlink:href="#ArialMT-31" x="111.230469"/>
       <use xlink:href="#ArialMT-38" x="166.845703"/>
      </g>
     </g>
    </g>
    <g id="xtick_24">
     <g id="line2d_35">
      <g>
       <use xlink:href="#m29f688792c" x="213.977365" y="311.94" style="fill: #262626; stroke: #262626; stroke-width: 1.25"/>
      </g>
     </g>
     <g id="text_13">
      <!-- 2019 -->
      <g style="fill: #262626" transform="translate(201.743303 329.313594) scale(0.11 -0.11)">
       <defs>
        <path id="ArialMT-39" d="M 350 1059 
L 891 1109 
Q 959 728 1153 556 
Q 1347 384 1650 384 
Q 1909 384 2104 503 
Q 2300 622 2425 820 
Q 2550 1019 2634 1356 
Q 2719 1694 2719 2044 
Q 2719 2081 2716 2156 
Q 2547 1888 2255 1720 
Q 1963 1553 1622 1553 
Q 1053 1553 659 1965 
Q 266 2378 266 3053 
Q 266 3750 677 4175 
Q 1088 4600 1706 4600 
Q 2153 4600 2523 4359 
Q 2894 4119 3086 3673 
Q 3278 3228 3278 2384 
Q 3278 1506 3087 986 
Q 2897 466 2520 194 
Q 2144 -78 1638 -78 
Q 1100 -78 759 220 
Q 419 519 350 1059 
z
M 2653 3081 
Q 2653 3566 2395 3850 
Q 2138 4134 1775 4134 
Q 1400 4134 1122 3828 
Q 844 3522 844 3034 
Q 844 2597 1108 2323 
Q 1372 2050 1759 2050 
Q 2150 2050 2401 2323 
Q 2653 2597 2653 3081 
z
" transform="scale(0.015625)"/>
       </defs>
       <use xlink:href="#ArialMT-32"/>
       <use xlink:href="#ArialMT-30" x="55.615234"/>
       <use xlink:href="#ArialMT-31" x="111.230469"/>
       <use xlink:href="#ArialMT-39" x="166.845703"/>
      </g>
     </g>
    </g>
    <g id="xtick_25">
     <g id="line2d_36">
      <g>
       <use xlink:href="#m29f688792c" x="266.185232" y="311.94" style="fill: #262626; stroke: #262626; stroke-width: 1.25"/>
      </g>
     </g>
     <g id="text_14">
      <!-- 2020 -->
      <g style="fill: #262626" transform="translate(253.951169 329.313594) scale(0.11 -0.11)">
       <use xlink:href="#ArialMT-32"/>
       <use xlink:href="#ArialMT-30" x="55.615234"/>
       <use xlink:href="#ArialMT-32" x="111.230469"/>
       <use xlink:href="#ArialMT-30" x="166.845703"/>
      </g>
     </g>
    </g>
    <g id="xtick_26">
     <g id="line2d_37">
      <g>
       <use xlink:href="#m29f688792c" x="318.536134" y="311.94" style="fill: #262626; stroke: #262626; stroke-width: 1.25"/>
      </g>
     </g>
     <g id="text_15">
      <!-- 2021 -->
      <g style="fill: #262626" transform="translate(306.302071 329.313594) scale(0.11 -0.11)">
       <use xlink:href="#ArialMT-32"/>
       <use xlink:href="#ArialMT-30" x="55.615234"/>
       <use xlink:href="#ArialMT-32" x="111.230469"/>
       <use xlink:href="#ArialMT-31" x="166.845703"/>
      </g>
     </g>
    </g>
    <g id="xtick_27">
     <g id="line2d_38">
      <g>
       <use xlink:href="#m29f688792c" x="370.744" y="311.94" style="fill: #262626; stroke: #262626; stroke-width: 1.25"/>
      </g>
     </g>
     <g id="text_16">
      <!-- 2022 -->
      <g style="fill: #262626" transform="translate(358.509938 329.313594) scale(0.11 -0.11)">
       <use xlink:href="#ArialMT-32"/>
       <use xlink:href="#ArialMT-30" x="55.615234"/>
       <use xlink:href="#ArialMT-32" x="111.230469"/>
       <use xlink:href="#ArialMT-32" x="166.845703"/>
      </g>
     </g>
    </g>
    <g id="xtick_28">
     <g id="line2d_39">
      <g>
       <use xlink:href="#m29f688792c" x="422.951866" y="311.94" style="fill: #262626; stroke: #262626; stroke-width: 1.25"/>
      </g>
     </g>
     <g id="text_17">
      <!-- 2023 -->
      <g style="fill: #262626" transform="translate(410.717804 329.313594) scale(0.11 -0.11)">
       <defs>
        <path id="ArialMT-33" d="M 269 1209 
L 831 1284 
Q 928 806 1161 595 
Q 1394 384 1728 384 
Q 2125 384 2398 659 
Q 2672 934 2672 1341 
Q 2672 1728 2419 1979 
Q 2166 2231 1775 2231 
Q 1616 2231 1378 2169 
L 1441 2663 
Q 1497 2656 1531 2656 
Q 1891 2656 2178 2843 
Q 2466 3031 2466 3422 
Q 2466 3731 2256 3934 
Q 2047 4138 1716 4138 
Q 1388 4138 1169 3931 
Q 950 3725 888 3313 
L 325 3413 
Q 428 3978 793 4289 
Q 1159 4600 1703 4600 
Q 2078 4600 2393 4439 
Q 2709 4278 2876 4000 
Q 3044 3722 3044 3409 
Q 3044 3113 2884 2869 
Q 2725 2625 2413 2481 
Q 2819 2388 3044 2092 
Q 3269 1797 3269 1353 
Q 3269 753 2831 336 
Q 2394 -81 1725 -81 
Q 1122 -81 723 278 
Q 325 638 269 1209 
z
" transform="scale(0.015625)"/>
       </defs>
       <use xlink:href="#ArialMT-32"/>
       <use xlink:href="#ArialMT-30" x="55.615234"/>
       <use xlink:href="#ArialMT-32" x="111.230469"/>
       <use xlink:href="#ArialMT-33" x="166.845703"/>
      </g>
     </g>
    </g>
   </g>
   <g id="matplotlib.axis_8">
    <g id="ytick_8">
     <g id="line2d_40">
      <g>
       <use xlink:href="#m0abd1fa1b5" x="62.36" y="311.424054" style="fill: #262626; stroke: #262626; stroke-width: 1.25"/>
      </g>
     </g>
     <g id="text_18">
      <!-- −250 -->
      <g style="fill: #262626" transform="translate(28.084219 315.360851) scale(0.11 -0.11)">
       <use xlink:href="#ArialMT-2212"/>
       <use xlink:href="#ArialMT-32" x="58.398438"/>
       <use xlink:href="#ArialMT-35" x="114.013672"/>
       <use xlink:href="#ArialMT-30" x="169.628906"/>
      </g>
     </g>
    </g>
    <g id="ytick_9">
     <g id="line2d_41">
      <g>
       <use xlink:href="#m0abd1fa1b5" x="62.36" y="288.701165" style="fill: #262626; stroke: #262626; stroke-width: 1.25"/>
      </g>
     </g>
     <g id="text_19">
      <!-- 0 -->
      <g style="fill: #262626" transform="translate(46.742969 292.637962) scale(0.11 -0.11)">
       <use xlink:href="#ArialMT-30"/>
      </g>
     </g>
    </g>
    <g id="ytick_10">
     <g id="line2d_42">
      <g>
       <use xlink:href="#m0abd1fa1b5" x="62.36" y="265.978276" style="fill: #262626; stroke: #262626; stroke-width: 1.25"/>
      </g>
     </g>
     <g id="text_20">
      <!-- 250 -->
      <g style="fill: #262626" transform="translate(34.508906 269.915072) scale(0.11 -0.11)">
       <use xlink:href="#ArialMT-32"/>
       <use xlink:href="#ArialMT-35" x="55.615234"/>
       <use xlink:href="#ArialMT-30" x="111.230469"/>
      </g>
     </g>
    </g>
    <g id="text_21">
     <!-- Resid -->
     <g style="fill: #262626" transform="translate(21.699219 298.866875) rotate(-90) scale(0.12 -0.12)">
      <defs>
       <path id="ArialMT-52" d="M 503 0 
L 503 4581 
L 2534 4581 
Q 3147 4581 3465 4457 
Q 3784 4334 3975 4021 
Q 4166 3709 4166 3331 
Q 4166 2844 3850 2509 
Q 3534 2175 2875 2084 
Q 3116 1969 3241 1856 
Q 3506 1613 3744 1247 
L 4541 0 
L 3778 0 
L 3172 953 
Q 2906 1366 2734 1584 
Q 2563 1803 2427 1890 
Q 2291 1978 2150 2013 
Q 2047 2034 1813 2034 
L 1109 2034 
L 1109 0 
L 503 0 
z
M 1109 2559 
L 2413 2559 
Q 2828 2559 3062 2645 
Q 3297 2731 3419 2920 
Q 3541 3109 3541 3331 
Q 3541 3656 3305 3865 
Q 3069 4075 2559 4075 
L 1109 4075 
L 1109 2559 
z
" transform="scale(0.015625)"/>
      </defs>
      <use xlink:href="#ArialMT-52"/>
      <use xlink:href="#ArialMT-65" x="72.216797"/>
      <use xlink:href="#ArialMT-73" x="127.832031"/>
      <use xlink:href="#ArialMT-69" x="177.832031"/>
      <use xlink:href="#ArialMT-64" x="200.048828"/>
     </g>
    </g>
   </g>
   <g id="line2d_43">
    <defs>
     <path id="md642977903" d="M 0 3 
C 0.795609 3 1.55874 2.683901 2.12132 2.12132 
C 2.683901 1.55874 3 0.795609 3 0 
C 3 -0.795609 2.683901 -1.55874 2.12132 -2.12132 
C 1.55874 -2.683901 0.795609 -3 0 -3 
C -0.795609 -3 -1.55874 -2.683901 -2.12132 -2.12132 
C -2.683901 -1.55874 -3 -0.795609 -3 0 
C -3 0.795609 -2.683901 1.55874 -2.12132 2.12132 
C -1.55874 2.683901 -0.795609 3 0 3 
z
" style="stroke: #4c72b0"/>
    </defs>
    <g clip-path="url(#pc77747d00a)">
     <use xlink:href="#md642977903" x="62.36" y="296.948427" style="fill: #4c72b0; stroke: #4c72b0"/>
     <use xlink:href="#md642977903" x="63.361247" y="290.963245" style="fill: #4c72b0; stroke: #4c72b0"/>
     <use xlink:href="#md642977903" x="64.362494" y="290.401529" style="fill: #4c72b0; stroke: #4c72b0"/>
     <use xlink:href="#md642977903" x="65.36374" y="288.298846" style="fill: #4c72b0; stroke: #4c72b0"/>
     <use xlink:href="#md642977903" x="66.364987" y="288.267237" style="fill: #4c72b0; stroke: #4c72b0"/>
     <use xlink:href="#md642977903" x="67.366234" y="287.947849" style="fill: #4c72b0; stroke: #4c72b0"/>
     <use xlink:href="#md642977903" x="69.368727" y="288.524972" style="fill: #4c72b0; stroke: #4c72b0"/>
     <use xlink:href="#md642977903" x="70.369974" y="287.625727" style="fill: #4c72b0; stroke: #4c72b0"/>
     <use xlink:href="#md642977903" x="71.371221" y="287.254556" style="fill: #4c72b0; stroke: #4c72b0"/>
     <use xlink:href="#md642977903" x="72.372468" y="287.901875" style="fill: #4c72b0; stroke: #4c72b0"/>
     <use xlink:href="#md642977903" x="73.373714" y="288.449608" style="fill: #4c72b0; stroke: #4c72b0"/>
     <use xlink:href="#md642977903" x="74.374961" y="288.335814" style="fill: #4c72b0; stroke: #4c72b0"/>
     <use xlink:href="#md642977903" x="75.376208" y="287.866502" style="fill: #4c72b0; stroke: #4c72b0"/>
     <use xlink:href="#md642977903" x="76.377455" y="288.087616" style="fill: #4c72b0; stroke: #4c72b0"/>
     <use xlink:href="#md642977903" x="77.378701" y="287.801664" style="fill: #4c72b0; stroke: #4c72b0"/>
     <use xlink:href="#md642977903" x="78.379948" y="287.328342" style="fill: #4c72b0; stroke: #4c72b0"/>
     <use xlink:href="#md642977903" x="79.381195" y="286.921466" style="fill: #4c72b0; stroke: #4c72b0"/>
     <use xlink:href="#md642977903" x="80.382442" y="287.43368" style="fill: #4c72b0; stroke: #4c72b0"/>
     <use xlink:href="#md642977903" x="81.383688" y="286.841792" style="fill: #4c72b0; stroke: #4c72b0"/>
     <use xlink:href="#md642977903" x="82.384935" y="287.314432" style="fill: #4c72b0; stroke: #4c72b0"/>
     <use xlink:href="#md642977903" x="83.386182" y="287.413933" style="fill: #4c72b0; stroke: #4c72b0"/>
     <use xlink:href="#md642977903" x="84.387429" y="287.728229" style="fill: #4c72b0; stroke: #4c72b0"/>
     <use xlink:href="#md642977903" x="85.388675" y="288.133292" style="fill: #4c72b0; stroke: #4c72b0"/>
     <use xlink:href="#md642977903" x="86.389922" y="288.555848" style="fill: #4c72b0; stroke: #4c72b0"/>
     <use xlink:href="#md642977903" x="87.391169" y="289.206361" style="fill: #4c72b0; stroke: #4c72b0"/>
     <use xlink:href="#md642977903" x="88.392416" y="288.715734" style="fill: #4c72b0; stroke: #4c72b0"/>
     <use xlink:href="#md642977903" x="89.393662" y="288.873715" style="fill: #4c72b0; stroke: #4c72b0"/>
     <use xlink:href="#md642977903" x="90.394909" y="288.9522" style="fill: #4c72b0; stroke: #4c72b0"/>
     <use xlink:href="#md642977903" x="91.396156" y="288.953172" style="fill: #4c72b0; stroke: #4c72b0"/>
     <use xlink:href="#md642977903" x="92.397403" y="289.292476" style="fill: #4c72b0; stroke: #4c72b0"/>
     <use xlink:href="#md642977903" x="93.398649" y="288.691786" style="fill: #4c72b0; stroke: #4c72b0"/>
     <use xlink:href="#md642977903" x="94.399896" y="288.250039" style="fill: #4c72b0; stroke: #4c72b0"/>
     <use xlink:href="#md642977903" x="95.401143" y="289.112572" style="fill: #4c72b0; stroke: #4c72b0"/>
     <use xlink:href="#md642977903" x="96.40239" y="289.036872" style="fill: #4c72b0; stroke: #4c72b0"/>
     <use xlink:href="#md642977903" x="97.403636" y="288.967202" style="fill: #4c72b0; stroke: #4c72b0"/>
     <use xlink:href="#md642977903" x="98.404883" y="287.689983" style="fill: #4c72b0; stroke: #4c72b0"/>
     <use xlink:href="#md642977903" x="99.40613" y="287.778243" style="fill: #4c72b0; stroke: #4c72b0"/>
     <use xlink:href="#md642977903" x="100.407377" y="288.805537" style="fill: #4c72b0; stroke: #4c72b0"/>
     <use xlink:href="#md642977903" x="101.408623" y="288.771888" style="fill: #4c72b0; stroke: #4c72b0"/>
     <use xlink:href="#md642977903" x="102.40987" y="288.524381" style="fill: #4c72b0; stroke: #4c72b0"/>
     <use xlink:href="#md642977903" x="103.411117" y="287.823544" style="fill: #4c72b0; stroke: #4c72b0"/>
     <use xlink:href="#md642977903" x="104.412364" y="287.646518" style="fill: #4c72b0; stroke: #4c72b0"/>
     <use xlink:href="#md642977903" x="105.41361" y="287.640639" style="fill: #4c72b0; stroke: #4c72b0"/>
     <use xlink:href="#md642977903" x="106.414857" y="283.466156" style="fill: #4c72b0; stroke: #4c72b0"/>
     <use xlink:href="#md642977903" x="107.416104" y="283.265788" style="fill: #4c72b0; stroke: #4c72b0"/>
     <use xlink:href="#md642977903" x="108.417351" y="283.055916" style="fill: #4c72b0; stroke: #4c72b0"/>
     <use xlink:href="#md642977903" x="112.422338" y="304.545144" style="fill: #4c72b0; stroke: #4c72b0"/>
     <use xlink:href="#md642977903" x="113.423584" y="305.372515" style="fill: #4c72b0; stroke: #4c72b0"/>
     <use xlink:href="#md642977903" x="114.424831" y="295.239264" style="fill: #4c72b0; stroke: #4c72b0"/>
     <use xlink:href="#md642977903" x="115.426078" y="286.507027" style="fill: #4c72b0; stroke: #4c72b0"/>
     <use xlink:href="#md642977903" x="116.427325" y="287.060279" style="fill: #4c72b0; stroke: #4c72b0"/>
     <use xlink:href="#md642977903" x="117.428571" y="289.21781" style="fill: #4c72b0; stroke: #4c72b0"/>
     <use xlink:href="#md642977903" x="118.429818" y="288.754172" style="fill: #4c72b0; stroke: #4c72b0"/>
     <use xlink:href="#md642977903" x="119.431065" y="288.976497" style="fill: #4c72b0; stroke: #4c72b0"/>
     <use xlink:href="#md642977903" x="120.432312" y="287.95676" style="fill: #4c72b0; stroke: #4c72b0"/>
     <use xlink:href="#md642977903" x="121.433558" y="288.836145" style="fill: #4c72b0; stroke: #4c72b0"/>
     <use xlink:href="#md642977903" x="122.434805" y="288.951371" style="fill: #4c72b0; stroke: #4c72b0"/>
     <use xlink:href="#md642977903" x="123.436052" y="287.355988" style="fill: #4c72b0; stroke: #4c72b0"/>
     <use xlink:href="#md642977903" x="124.437299" y="288.695826" style="fill: #4c72b0; stroke: #4c72b0"/>
     <use xlink:href="#md642977903" x="125.438545" y="288.791053" style="fill: #4c72b0; stroke: #4c72b0"/>
     <use xlink:href="#md642977903" x="126.439792" y="289.341696" style="fill: #4c72b0; stroke: #4c72b0"/>
     <use xlink:href="#md642977903" x="127.441039" y="289.246075" style="fill: #4c72b0; stroke: #4c72b0"/>
     <use xlink:href="#md642977903" x="128.442286" y="289.659041" style="fill: #4c72b0; stroke: #4c72b0"/>
     <use xlink:href="#md642977903" x="129.443532" y="289.962907" style="fill: #4c72b0; stroke: #4c72b0"/>
     <use xlink:href="#md642977903" x="130.444779" y="290.271574" style="fill: #4c72b0; stroke: #4c72b0"/>
     <use xlink:href="#md642977903" x="131.446026" y="290.226513" style="fill: #4c72b0; stroke: #4c72b0"/>
     <use xlink:href="#md642977903" x="132.447273" y="290.976953" style="fill: #4c72b0; stroke: #4c72b0"/>
     <use xlink:href="#md642977903" x="133.448519" y="290.245197" style="fill: #4c72b0; stroke: #4c72b0"/>
     <use xlink:href="#md642977903" x="134.449766" y="290.186795" style="fill: #4c72b0; stroke: #4c72b0"/>
     <use xlink:href="#md642977903" x="135.451013" y="289.822652" style="fill: #4c72b0; stroke: #4c72b0"/>
     <use xlink:href="#md642977903" x="136.45226" y="289.535615" style="fill: #4c72b0; stroke: #4c72b0"/>
     <use xlink:href="#md642977903" x="137.453506" y="290.295057" style="fill: #4c72b0; stroke: #4c72b0"/>
     <use xlink:href="#md642977903" x="138.454753" y="289.754156" style="fill: #4c72b0; stroke: #4c72b0"/>
     <use xlink:href="#md642977903" x="139.456" y="290.429961" style="fill: #4c72b0; stroke: #4c72b0"/>
     <use xlink:href="#md642977903" x="140.457247" y="290.650381" style="fill: #4c72b0; stroke: #4c72b0"/>
     <use xlink:href="#md642977903" x="141.458494" y="290.271228" style="fill: #4c72b0; stroke: #4c72b0"/>
     <use xlink:href="#md642977903" x="142.45974" y="290.58402" style="fill: #4c72b0; stroke: #4c72b0"/>
     <use xlink:href="#md642977903" x="143.460987" y="289.891189" style="fill: #4c72b0; stroke: #4c72b0"/>
     <use xlink:href="#md642977903" x="144.462234" y="290.571532" style="fill: #4c72b0; stroke: #4c72b0"/>
     <use xlink:href="#md642977903" x="145.463481" y="290.986776" style="fill: #4c72b0; stroke: #4c72b0"/>
     <use xlink:href="#md642977903" x="146.464727" y="290.894144" style="fill: #4c72b0; stroke: #4c72b0"/>
     <use xlink:href="#md642977903" x="147.465974" y="290.946497" style="fill: #4c72b0; stroke: #4c72b0"/>
     <use xlink:href="#md642977903" x="148.467221" y="290.955976" style="fill: #4c72b0; stroke: #4c72b0"/>
     <use xlink:href="#md642977903" x="149.468468" y="292.298559" style="fill: #4c72b0; stroke: #4c72b0"/>
     <use xlink:href="#md642977903" x="150.469714" y="292.47103" style="fill: #4c72b0; stroke: #4c72b0"/>
     <use xlink:href="#md642977903" x="151.470961" y="290.968789" style="fill: #4c72b0; stroke: #4c72b0"/>
     <use xlink:href="#md642977903" x="152.472208" y="290.967809" style="fill: #4c72b0; stroke: #4c72b0"/>
     <use xlink:href="#md642977903" x="153.473455" y="291.346455" style="fill: #4c72b0; stroke: #4c72b0"/>
     <use xlink:href="#md642977903" x="154.474701" y="292.237685" style="fill: #4c72b0; stroke: #4c72b0"/>
     <use xlink:href="#md642977903" x="155.475948" y="292.37642" style="fill: #4c72b0; stroke: #4c72b0"/>
     <use xlink:href="#md642977903" x="156.477195" y="292.07197" style="fill: #4c72b0; stroke: #4c72b0"/>
     <use xlink:href="#md642977903" x="157.478442" y="285.954806" style="fill: #4c72b0; stroke: #4c72b0"/>
     <use xlink:href="#md642977903" x="158.479688" y="286.146308" style="fill: #4c72b0; stroke: #4c72b0"/>
     <use xlink:href="#md642977903" x="159.480935" y="286.262435" style="fill: #4c72b0; stroke: #4c72b0"/>
     <use xlink:href="#md642977903" x="160.482182" y="263.323646" style="fill: #4c72b0; stroke: #4c72b0"/>
     <use xlink:href="#md642977903" x="161.483429" y="261.570226" style="fill: #4c72b0; stroke: #4c72b0"/>
     <use xlink:href="#md642977903" x="162.484675" y="257.697955" style="fill: #4c72b0; stroke: #4c72b0"/>
     <use xlink:href="#md642977903" x="164.487169" y="289.27024" style="fill: #4c72b0; stroke: #4c72b0"/>
     <use xlink:href="#md642977903" x="165.488416" y="289.6515" style="fill: #4c72b0; stroke: #4c72b0"/>
     <use xlink:href="#md642977903" x="166.489662" y="290.576571" style="fill: #4c72b0; stroke: #4c72b0"/>
     <use xlink:href="#md642977903" x="167.490909" y="291.38265" style="fill: #4c72b0; stroke: #4c72b0"/>
     <use xlink:href="#md642977903" x="168.492156" y="291.788697" style="fill: #4c72b0; stroke: #4c72b0"/>
     <use xlink:href="#md642977903" x="169.493403" y="291.981525" style="fill: #4c72b0; stroke: #4c72b0"/>
     <use xlink:href="#md642977903" x="170.494649" y="292.521286" style="fill: #4c72b0; stroke: #4c72b0"/>
     <use xlink:href="#md642977903" x="171.495896" y="293.151924" style="fill: #4c72b0; stroke: #4c72b0"/>
     <use xlink:href="#md642977903" x="172.497143" y="294.153691" style="fill: #4c72b0; stroke: #4c72b0"/>
     <use xlink:href="#md642977903" x="182.50961" y="290.325201" style="fill: #4c72b0; stroke: #4c72b0"/>
     <use xlink:href="#md642977903" x="183.510857" y="290.440121" style="fill: #4c72b0; stroke: #4c72b0"/>
     <use xlink:href="#md642977903" x="184.512104" y="290.446533" style="fill: #4c72b0; stroke: #4c72b0"/>
     <use xlink:href="#md642977903" x="185.513351" y="290.133309" style="fill: #4c72b0; stroke: #4c72b0"/>
     <use xlink:href="#md642977903" x="186.514597" y="290.070113" style="fill: #4c72b0; stroke: #4c72b0"/>
     <use xlink:href="#md642977903" x="187.515844" y="290.625508" style="fill: #4c72b0; stroke: #4c72b0"/>
     <use xlink:href="#md642977903" x="188.517091" y="291.008544" style="fill: #4c72b0; stroke: #4c72b0"/>
     <use xlink:href="#md642977903" x="190.519584" y="289.930348" style="fill: #4c72b0; stroke: #4c72b0"/>
     <use xlink:href="#md642977903" x="191.520831" y="289.8938" style="fill: #4c72b0; stroke: #4c72b0"/>
     <use xlink:href="#md642977903" x="192.522078" y="289.982789" style="fill: #4c72b0; stroke: #4c72b0"/>
     <use xlink:href="#md642977903" x="193.523325" y="289.943792" style="fill: #4c72b0; stroke: #4c72b0"/>
     <use xlink:href="#md642977903" x="194.524571" y="289.892533" style="fill: #4c72b0; stroke: #4c72b0"/>
     <use xlink:href="#md642977903" x="195.525818" y="289.348931" style="fill: #4c72b0; stroke: #4c72b0"/>
     <use xlink:href="#md642977903" x="196.527065" y="286.884822" style="fill: #4c72b0; stroke: #4c72b0"/>
     <use xlink:href="#md642977903" x="197.528312" y="286.040112" style="fill: #4c72b0; stroke: #4c72b0"/>
     <use xlink:href="#md642977903" x="198.529558" y="286.060553" style="fill: #4c72b0; stroke: #4c72b0"/>
     <use xlink:href="#md642977903" x="199.530805" y="285.384194" style="fill: #4c72b0; stroke: #4c72b0"/>
     <use xlink:href="#md642977903" x="200.532052" y="285.839743" style="fill: #4c72b0; stroke: #4c72b0"/>
     <use xlink:href="#md642977903" x="201.533299" y="285.343178" style="fill: #4c72b0; stroke: #4c72b0"/>
     <use xlink:href="#md642977903" x="202.534545" y="285.72802" style="fill: #4c72b0; stroke: #4c72b0"/>
     <use xlink:href="#md642977903" x="203.535792" y="285.984844" style="fill: #4c72b0; stroke: #4c72b0"/>
     <use xlink:href="#md642977903" x="204.537039" y="286.20698" style="fill: #4c72b0; stroke: #4c72b0"/>
     <use xlink:href="#md642977903" x="205.538286" y="285.137316" style="fill: #4c72b0; stroke: #4c72b0"/>
     <use xlink:href="#md642977903" x="206.539532" y="285.250264" style="fill: #4c72b0; stroke: #4c72b0"/>
     <use xlink:href="#md642977903" x="207.540779" y="285.373607" style="fill: #4c72b0; stroke: #4c72b0"/>
     <use xlink:href="#md642977903" x="208.542026" y="285.885115" style="fill: #4c72b0; stroke: #4c72b0"/>
     <use xlink:href="#md642977903" x="209.543273" y="285.829819" style="fill: #4c72b0; stroke: #4c72b0"/>
     <use xlink:href="#md642977903" x="210.544519" y="285.936495" style="fill: #4c72b0; stroke: #4c72b0"/>
     <use xlink:href="#md642977903" x="211.545766" y="286.021319" style="fill: #4c72b0; stroke: #4c72b0"/>
     <use xlink:href="#md642977903" x="212.547013" y="285.989269" style="fill: #4c72b0; stroke: #4c72b0"/>
     <use xlink:href="#md642977903" x="213.54826" y="286.09344" style="fill: #4c72b0; stroke: #4c72b0"/>
     <use xlink:href="#md642977903" x="214.549506" y="286.344977" style="fill: #4c72b0; stroke: #4c72b0"/>
     <use xlink:href="#md642977903" x="215.550753" y="286.92381" style="fill: #4c72b0; stroke: #4c72b0"/>
     <use xlink:href="#md642977903" x="218.554494" y="308.911281" style="fill: #4c72b0; stroke: #4c72b0"/>
     <use xlink:href="#md642977903" x="219.55574" y="309.024423" style="fill: #4c72b0; stroke: #4c72b0"/>
     <use xlink:href="#md642977903" x="220.556987" y="309.357045" style="fill: #4c72b0; stroke: #4c72b0"/>
     <use xlink:href="#md642977903" x="221.558234" y="299.950272" style="fill: #4c72b0; stroke: #4c72b0"/>
     <use xlink:href="#md642977903" x="222.559481" y="295.351605" style="fill: #4c72b0; stroke: #4c72b0"/>
     <use xlink:href="#md642977903" x="223.560727" y="296.910588" style="fill: #4c72b0; stroke: #4c72b0"/>
     <use xlink:href="#md642977903" x="224.561974" y="286.219147" style="fill: #4c72b0; stroke: #4c72b0"/>
     <use xlink:href="#md642977903" x="225.563221" y="286.030614" style="fill: #4c72b0; stroke: #4c72b0"/>
     <use xlink:href="#md642977903" x="226.564468" y="286.374847" style="fill: #4c72b0; stroke: #4c72b0"/>
     <use xlink:href="#md642977903" x="227.565714" y="286.382192" style="fill: #4c72b0; stroke: #4c72b0"/>
     <use xlink:href="#md642977903" x="228.566961" y="286.232014" style="fill: #4c72b0; stroke: #4c72b0"/>
     <use xlink:href="#md642977903" x="229.568208" y="286.7549" style="fill: #4c72b0; stroke: #4c72b0"/>
     <use xlink:href="#md642977903" x="230.569455" y="286.73061" style="fill: #4c72b0; stroke: #4c72b0"/>
     <use xlink:href="#md642977903" x="231.570701" y="286.705301" style="fill: #4c72b0; stroke: #4c72b0"/>
     <use xlink:href="#md642977903" x="232.571948" y="287.290371" style="fill: #4c72b0; stroke: #4c72b0"/>
     <use xlink:href="#md642977903" x="233.573195" y="288.400914" style="fill: #4c72b0; stroke: #4c72b0"/>
     <use xlink:href="#md642977903" x="234.574442" y="288.349784" style="fill: #4c72b0; stroke: #4c72b0"/>
     <use xlink:href="#md642977903" x="235.575688" y="288.712325" style="fill: #4c72b0; stroke: #4c72b0"/>
     <use xlink:href="#md642977903" x="236.576935" y="288.584687" style="fill: #4c72b0; stroke: #4c72b0"/>
     <use xlink:href="#md642977903" x="237.578182" y="288.616422" style="fill: #4c72b0; stroke: #4c72b0"/>
     <use xlink:href="#md642977903" x="238.579429" y="288.572135" style="fill: #4c72b0; stroke: #4c72b0"/>
     <use xlink:href="#md642977903" x="239.580675" y="288.564271" style="fill: #4c72b0; stroke: #4c72b0"/>
     <use xlink:href="#md642977903" x="240.581922" y="288.646708" style="fill: #4c72b0; stroke: #4c72b0"/>
     <use xlink:href="#md642977903" x="241.583169" y="288.897732" style="fill: #4c72b0; stroke: #4c72b0"/>
     <use xlink:href="#md642977903" x="242.584416" y="289.104566" style="fill: #4c72b0; stroke: #4c72b0"/>
     <use xlink:href="#md642977903" x="243.585662" y="288.894642" style="fill: #4c72b0; stroke: #4c72b0"/>
     <use xlink:href="#md642977903" x="244.586909" y="288.774564" style="fill: #4c72b0; stroke: #4c72b0"/>
     <use xlink:href="#md642977903" x="245.588156" y="289.074056" style="fill: #4c72b0; stroke: #4c72b0"/>
     <use xlink:href="#md642977903" x="246.589403" y="289.825506" style="fill: #4c72b0; stroke: #4c72b0"/>
     <use xlink:href="#md642977903" x="247.590649" y="290.595751" style="fill: #4c72b0; stroke: #4c72b0"/>
     <use xlink:href="#md642977903" x="248.591896" y="290.44117" style="fill: #4c72b0; stroke: #4c72b0"/>
     <use xlink:href="#md642977903" x="249.593143" y="290.366486" style="fill: #4c72b0; stroke: #4c72b0"/>
     <use xlink:href="#md642977903" x="250.59439" y="290.323745" style="fill: #4c72b0; stroke: #4c72b0"/>
     <use xlink:href="#md642977903" x="251.595636" y="290.259267" style="fill: #4c72b0; stroke: #4c72b0"/>
     <use xlink:href="#md642977903" x="252.596883" y="290.25348" style="fill: #4c72b0; stroke: #4c72b0"/>
     <use xlink:href="#md642977903" x="253.59813" y="290.098608" style="fill: #4c72b0; stroke: #4c72b0"/>
     <use xlink:href="#md642977903" x="254.599377" y="290.215494" style="fill: #4c72b0; stroke: #4c72b0"/>
     <use xlink:href="#md642977903" x="255.600623" y="287.866546" style="fill: #4c72b0; stroke: #4c72b0"/>
     <use xlink:href="#md642977903" x="256.60187" y="287.764463" style="fill: #4c72b0; stroke: #4c72b0"/>
     <use xlink:href="#md642977903" x="257.603117" y="287.799259" style="fill: #4c72b0; stroke: #4c72b0"/>
     <use xlink:href="#md642977903" x="258.604364" y="287.974236" style="fill: #4c72b0; stroke: #4c72b0"/>
     <use xlink:href="#md642977903" x="259.60561" y="287.163912" style="fill: #4c72b0; stroke: #4c72b0"/>
     <use xlink:href="#md642977903" x="260.606857" y="287.388269" style="fill: #4c72b0; stroke: #4c72b0"/>
     <use xlink:href="#md642977903" x="261.608104" y="287.356642" style="fill: #4c72b0; stroke: #4c72b0"/>
     <use xlink:href="#md642977903" x="262.609351" y="287.180797" style="fill: #4c72b0; stroke: #4c72b0"/>
     <use xlink:href="#md642977903" x="263.610597" y="287.070615" style="fill: #4c72b0; stroke: #4c72b0"/>
     <use xlink:href="#md642977903" x="264.611844" y="286.811845" style="fill: #4c72b0; stroke: #4c72b0"/>
     <use xlink:href="#md642977903" x="265.613091" y="286.603853" style="fill: #4c72b0; stroke: #4c72b0"/>
     <use xlink:href="#md642977903" x="266.614338" y="279.328206" style="fill: #4c72b0; stroke: #4c72b0"/>
     <use xlink:href="#md642977903" x="267.615584" y="279.345656" style="fill: #4c72b0; stroke: #4c72b0"/>
     <use xlink:href="#md642977903" x="268.616831" y="279.138829" style="fill: #4c72b0; stroke: #4c72b0"/>
     <use xlink:href="#md642977903" x="269.618078" y="279.249554" style="fill: #4c72b0; stroke: #4c72b0"/>
     <use xlink:href="#md642977903" x="271.620571" y="293.863263" style="fill: #4c72b0; stroke: #4c72b0"/>
     <use xlink:href="#md642977903" x="272.621818" y="293.641316" style="fill: #4c72b0; stroke: #4c72b0"/>
     <use xlink:href="#md642977903" x="273.623065" y="289.603626" style="fill: #4c72b0; stroke: #4c72b0"/>
     <use xlink:href="#md642977903" x="274.624312" y="289.741437" style="fill: #4c72b0; stroke: #4c72b0"/>
     <use xlink:href="#md642977903" x="275.625558" y="289.46" style="fill: #4c72b0; stroke: #4c72b0"/>
     <use xlink:href="#md642977903" x="276.626805" y="289.54841" style="fill: #4c72b0; stroke: #4c72b0"/>
     <use xlink:href="#md642977903" x="277.628052" y="289.201031" style="fill: #4c72b0; stroke: #4c72b0"/>
     <use xlink:href="#md642977903" x="278.629299" y="289.105446" style="fill: #4c72b0; stroke: #4c72b0"/>
     <use xlink:href="#md642977903" x="279.630545" y="288.89101" style="fill: #4c72b0; stroke: #4c72b0"/>
     <use xlink:href="#md642977903" x="280.631792" y="288.254939" style="fill: #4c72b0; stroke: #4c72b0"/>
     <use xlink:href="#md642977903" x="296.65174" y="287.162794" style="fill: #4c72b0; stroke: #4c72b0"/>
     <use xlink:href="#md642977903" x="297.652987" y="287.819438" style="fill: #4c72b0; stroke: #4c72b0"/>
     <use xlink:href="#md642977903" x="298.654234" y="287.731609" style="fill: #4c72b0; stroke: #4c72b0"/>
     <use xlink:href="#md642977903" x="299.655481" y="287.079405" style="fill: #4c72b0; stroke: #4c72b0"/>
     <use xlink:href="#md642977903" x="300.656727" y="287.863613" style="fill: #4c72b0; stroke: #4c72b0"/>
     <use xlink:href="#md642977903" x="301.657974" y="287.798724" style="fill: #4c72b0; stroke: #4c72b0"/>
     <use xlink:href="#md642977903" x="302.659221" y="287.667317" style="fill: #4c72b0; stroke: #4c72b0"/>
     <use xlink:href="#md642977903" x="303.660468" y="287.605419" style="fill: #4c72b0; stroke: #4c72b0"/>
     <use xlink:href="#md642977903" x="304.661714" y="287.815156" style="fill: #4c72b0; stroke: #4c72b0"/>
     <use xlink:href="#md642977903" x="306.664208" y="287.769731" style="fill: #4c72b0; stroke: #4c72b0"/>
     <use xlink:href="#md642977903" x="308.666701" y="287.574367" style="fill: #4c72b0; stroke: #4c72b0"/>
     <use xlink:href="#md642977903" x="309.667948" y="287.569135" style="fill: #4c72b0; stroke: #4c72b0"/>
     <use xlink:href="#md642977903" x="310.669195" y="287.732563" style="fill: #4c72b0; stroke: #4c72b0"/>
     <use xlink:href="#md642977903" x="311.670442" y="287.924145" style="fill: #4c72b0; stroke: #4c72b0"/>
     <use xlink:href="#md642977903" x="312.671688" y="288.36566" style="fill: #4c72b0; stroke: #4c72b0"/>
     <use xlink:href="#md642977903" x="315.675429" y="288.45832" style="fill: #4c72b0; stroke: #4c72b0"/>
     <use xlink:href="#md642977903" x="316.676675" y="288.499656" style="fill: #4c72b0; stroke: #4c72b0"/>
     <use xlink:href="#md642977903" x="317.677922" y="288.620046" style="fill: #4c72b0; stroke: #4c72b0"/>
     <use xlink:href="#md642977903" x="318.679169" y="288.734299" style="fill: #4c72b0; stroke: #4c72b0"/>
     <use xlink:href="#md642977903" x="319.680416" y="288.965765" style="fill: #4c72b0; stroke: #4c72b0"/>
     <use xlink:href="#md642977903" x="320.681662" y="289.013277" style="fill: #4c72b0; stroke: #4c72b0"/>
     <use xlink:href="#md642977903" x="321.682909" y="289.028144" style="fill: #4c72b0; stroke: #4c72b0"/>
     <use xlink:href="#md642977903" x="323.685403" y="289.239806" style="fill: #4c72b0; stroke: #4c72b0"/>
     <use xlink:href="#md642977903" x="325.687896" y="295.226011" style="fill: #4c72b0; stroke: #4c72b0"/>
     <use xlink:href="#md642977903" x="326.689143" y="295.270891" style="fill: #4c72b0; stroke: #4c72b0"/>
     <use xlink:href="#md642977903" x="327.69039" y="295.127859" style="fill: #4c72b0; stroke: #4c72b0"/>
     <use xlink:href="#md642977903" x="328.691636" y="295.174545" style="fill: #4c72b0; stroke: #4c72b0"/>
     <use xlink:href="#md642977903" x="329.692883" y="294.207509" style="fill: #4c72b0; stroke: #4c72b0"/>
     <use xlink:href="#md642977903" x="330.69413" y="294.452557" style="fill: #4c72b0; stroke: #4c72b0"/>
     <use xlink:href="#md642977903" x="331.695377" y="294.361621" style="fill: #4c72b0; stroke: #4c72b0"/>
     <use xlink:href="#md642977903" x="332.696623" y="294.625234" style="fill: #4c72b0; stroke: #4c72b0"/>
     <use xlink:href="#md642977903" x="333.69787" y="293.982106" style="fill: #4c72b0; stroke: #4c72b0"/>
     <use xlink:href="#md642977903" x="334.699117" y="294.096197" style="fill: #4c72b0; stroke: #4c72b0"/>
     <use xlink:href="#md642977903" x="335.700364" y="294.228841" style="fill: #4c72b0; stroke: #4c72b0"/>
     <use xlink:href="#md642977903" x="336.70161" y="290.531962" style="fill: #4c72b0; stroke: #4c72b0"/>
     <use xlink:href="#md642977903" x="337.702857" y="290.499108" style="fill: #4c72b0; stroke: #4c72b0"/>
     <use xlink:href="#md642977903" x="338.704104" y="290.733941" style="fill: #4c72b0; stroke: #4c72b0"/>
     <use xlink:href="#md642977903" x="339.705351" y="290.852606" style="fill: #4c72b0; stroke: #4c72b0"/>
     <use xlink:href="#md642977903" x="340.706597" y="286.865764" style="fill: #4c72b0; stroke: #4c72b0"/>
     <use xlink:href="#md642977903" x="341.707844" y="286.899346" style="fill: #4c72b0; stroke: #4c72b0"/>
     <use xlink:href="#md642977903" x="342.709091" y="285.672922" style="fill: #4c72b0; stroke: #4c72b0"/>
     <use xlink:href="#md642977903" x="343.710338" y="285.485975" style="fill: #4c72b0; stroke: #4c72b0"/>
     <use xlink:href="#md642977903" x="344.711584" y="285.344148" style="fill: #4c72b0; stroke: #4c72b0"/>
     <use xlink:href="#md642977903" x="345.712831" y="285.308429" style="fill: #4c72b0; stroke: #4c72b0"/>
     <use xlink:href="#md642977903" x="346.714078" y="285.549122" style="fill: #4c72b0; stroke: #4c72b0"/>
     <use xlink:href="#md642977903" x="347.715325" y="285.655505" style="fill: #4c72b0; stroke: #4c72b0"/>
     <use xlink:href="#md642977903" x="348.716571" y="285.80863" style="fill: #4c72b0; stroke: #4c72b0"/>
     <use xlink:href="#md642977903" x="349.717818" y="286.845671" style="fill: #4c72b0; stroke: #4c72b0"/>
     <use xlink:href="#md642977903" x="350.719065" y="287.231224" style="fill: #4c72b0; stroke: #4c72b0"/>
     <use xlink:href="#md642977903" x="351.720312" y="287.346404" style="fill: #4c72b0; stroke: #4c72b0"/>
     <use xlink:href="#md642977903" x="352.721558" y="287.523255" style="fill: #4c72b0; stroke: #4c72b0"/>
     <use xlink:href="#md642977903" x="353.722805" y="287.70828" style="fill: #4c72b0; stroke: #4c72b0"/>
     <use xlink:href="#md642977903" x="354.724052" y="287.529036" style="fill: #4c72b0; stroke: #4c72b0"/>
     <use xlink:href="#md642977903" x="355.725299" y="287.588911" style="fill: #4c72b0; stroke: #4c72b0"/>
     <use xlink:href="#md642977903" x="356.726545" y="287.803944" style="fill: #4c72b0; stroke: #4c72b0"/>
     <use xlink:href="#md642977903" x="357.727792" y="287.834012" style="fill: #4c72b0; stroke: #4c72b0"/>
     <use xlink:href="#md642977903" x="358.729039" y="288.04996" style="fill: #4c72b0; stroke: #4c72b0"/>
     <use xlink:href="#md642977903" x="359.730286" y="288.035219" style="fill: #4c72b0; stroke: #4c72b0"/>
     <use xlink:href="#md642977903" x="360.731532" y="288.2525" style="fill: #4c72b0; stroke: #4c72b0"/>
     <use xlink:href="#md642977903" x="361.732779" y="288.410129" style="fill: #4c72b0; stroke: #4c72b0"/>
     <use xlink:href="#md642977903" x="362.734026" y="288.552171" style="fill: #4c72b0; stroke: #4c72b0"/>
     <use xlink:href="#md642977903" x="363.735273" y="288.500671" style="fill: #4c72b0; stroke: #4c72b0"/>
     <use xlink:href="#md642977903" x="364.736519" y="288.672928" style="fill: #4c72b0; stroke: #4c72b0"/>
     <use xlink:href="#md642977903" x="365.737766" y="288.689034" style="fill: #4c72b0; stroke: #4c72b0"/>
     <use xlink:href="#md642977903" x="366.739013" y="288.636582" style="fill: #4c72b0; stroke: #4c72b0"/>
     <use xlink:href="#md642977903" x="367.74026" y="288.854204" style="fill: #4c72b0; stroke: #4c72b0"/>
     <use xlink:href="#md642977903" x="368.741506" y="289.046666" style="fill: #4c72b0; stroke: #4c72b0"/>
     <use xlink:href="#md642977903" x="369.742753" y="289.17048" style="fill: #4c72b0; stroke: #4c72b0"/>
     <use xlink:href="#md642977903" x="370.744" y="289.236924" style="fill: #4c72b0; stroke: #4c72b0"/>
     <use xlink:href="#md642977903" x="371.745247" y="289.444805" style="fill: #4c72b0; stroke: #4c72b0"/>
     <use xlink:href="#md642977903" x="372.746494" y="289.393049" style="fill: #4c72b0; stroke: #4c72b0"/>
     <use xlink:href="#md642977903" x="373.74774" y="287.886306" style="fill: #4c72b0; stroke: #4c72b0"/>
     <use xlink:href="#md642977903" x="374.748987" y="287.946701" style="fill: #4c72b0; stroke: #4c72b0"/>
     <use xlink:href="#md642977903" x="375.750234" y="288.024571" style="fill: #4c72b0; stroke: #4c72b0"/>
     <use xlink:href="#md642977903" x="376.751481" y="287.957035" style="fill: #4c72b0; stroke: #4c72b0"/>
     <use xlink:href="#md642977903" x="378.753974" y="291.354539" style="fill: #4c72b0; stroke: #4c72b0"/>
     <use xlink:href="#md642977903" x="379.755221" y="291.368388" style="fill: #4c72b0; stroke: #4c72b0"/>
     <use xlink:href="#md642977903" x="380.756468" y="291.353227" style="fill: #4c72b0; stroke: #4c72b0"/>
     <use xlink:href="#md642977903" x="381.757714" y="290.953071" style="fill: #4c72b0; stroke: #4c72b0"/>
     <use xlink:href="#md642977903" x="382.758961" y="289.10917" style="fill: #4c72b0; stroke: #4c72b0"/>
     <use xlink:href="#md642977903" x="383.760208" y="289.148063" style="fill: #4c72b0; stroke: #4c72b0"/>
     <use xlink:href="#md642977903" x="384.761455" y="289.181464" style="fill: #4c72b0; stroke: #4c72b0"/>
     <use xlink:href="#md642977903" x="385.762701" y="288.941634" style="fill: #4c72b0; stroke: #4c72b0"/>
     <use xlink:href="#md642977903" x="386.763948" y="288.939527" style="fill: #4c72b0; stroke: #4c72b0"/>
     <use xlink:href="#md642977903" x="387.765195" y="288.871185" style="fill: #4c72b0; stroke: #4c72b0"/>
     <use xlink:href="#md642977903" x="388.766442" y="288.819763" style="fill: #4c72b0; stroke: #4c72b0"/>
     <use xlink:href="#md642977903" x="389.767688" y="286.952879" style="fill: #4c72b0; stroke: #4c72b0"/>
     <use xlink:href="#md642977903" x="390.768935" y="287.025237" style="fill: #4c72b0; stroke: #4c72b0"/>
     <use xlink:href="#md642977903" x="391.770182" y="287.366592" style="fill: #4c72b0; stroke: #4c72b0"/>
     <use xlink:href="#md642977903" x="392.771429" y="287.542586" style="fill: #4c72b0; stroke: #4c72b0"/>
     <use xlink:href="#md642977903" x="393.772675" y="287.757183" style="fill: #4c72b0; stroke: #4c72b0"/>
     <use xlink:href="#md642977903" x="394.773922" y="287.899178" style="fill: #4c72b0; stroke: #4c72b0"/>
     <use xlink:href="#md642977903" x="395.775169" y="288.095063" style="fill: #4c72b0; stroke: #4c72b0"/>
     <use xlink:href="#md642977903" x="396.776416" y="288.236967" style="fill: #4c72b0; stroke: #4c72b0"/>
     <use xlink:href="#md642977903" x="397.777662" y="288.172718" style="fill: #4c72b0; stroke: #4c72b0"/>
     <use xlink:href="#md642977903" x="398.778909" y="290.808214" style="fill: #4c72b0; stroke: #4c72b0"/>
     <use xlink:href="#md642977903" x="399.780156" y="290.883339" style="fill: #4c72b0; stroke: #4c72b0"/>
     <use xlink:href="#md642977903" x="400.781403" y="290.374419" style="fill: #4c72b0; stroke: #4c72b0"/>
     <use xlink:href="#md642977903" x="401.782649" y="290.289675" style="fill: #4c72b0; stroke: #4c72b0"/>
     <use xlink:href="#md642977903" x="402.783896" y="290.389855" style="fill: #4c72b0; stroke: #4c72b0"/>
     <use xlink:href="#md642977903" x="403.785143" y="290.190133" style="fill: #4c72b0; stroke: #4c72b0"/>
     <use xlink:href="#md642977903" x="404.78639" y="290.173856" style="fill: #4c72b0; stroke: #4c72b0"/>
     <use xlink:href="#md642977903" x="405.787636" y="290.073502" style="fill: #4c72b0; stroke: #4c72b0"/>
     <use xlink:href="#md642977903" x="406.788883" y="290.076383" style="fill: #4c72b0; stroke: #4c72b0"/>
     <use xlink:href="#md642977903" x="407.79013" y="289.823256" style="fill: #4c72b0; stroke: #4c72b0"/>
     <use xlink:href="#md642977903" x="408.791377" y="289.816804" style="fill: #4c72b0; stroke: #4c72b0"/>
     <use xlink:href="#md642977903" x="409.792623" y="289.69928" style="fill: #4c72b0; stroke: #4c72b0"/>
     <use xlink:href="#md642977903" x="410.79387" y="289.622832" style="fill: #4c72b0; stroke: #4c72b0"/>
     <use xlink:href="#md642977903" x="411.795117" y="289.461573" style="fill: #4c72b0; stroke: #4c72b0"/>
     <use xlink:href="#md642977903" x="412.796364" y="289.365714" style="fill: #4c72b0; stroke: #4c72b0"/>
     <use xlink:href="#md642977903" x="413.79761" y="288.949787" style="fill: #4c72b0; stroke: #4c72b0"/>
     <use xlink:href="#md642977903" x="414.798857" y="288.766693" style="fill: #4c72b0; stroke: #4c72b0"/>
     <use xlink:href="#md642977903" x="415.800104" y="288.82098" style="fill: #4c72b0; stroke: #4c72b0"/>
     <use xlink:href="#md642977903" x="416.801351" y="288.631407" style="fill: #4c72b0; stroke: #4c72b0"/>
     <use xlink:href="#md642977903" x="417.802597" y="288.431082" style="fill: #4c72b0; stroke: #4c72b0"/>
     <use xlink:href="#md642977903" x="418.803844" y="288.255788" style="fill: #4c72b0; stroke: #4c72b0"/>
     <use xlink:href="#md642977903" x="419.805091" y="288.172381" style="fill: #4c72b0; stroke: #4c72b0"/>
     <use xlink:href="#md642977903" x="420.806338" y="288.039104" style="fill: #4c72b0; stroke: #4c72b0"/>
     <use xlink:href="#md642977903" x="421.807584" y="287.958119" style="fill: #4c72b0; stroke: #4c72b0"/>
     <use xlink:href="#md642977903" x="422.808831" y="286.771182" style="fill: #4c72b0; stroke: #4c72b0"/>
     <use xlink:href="#md642977903" x="423.810078" y="286.721657" style="fill: #4c72b0; stroke: #4c72b0"/>
     <use xlink:href="#md642977903" x="424.811325" y="286.720131" style="fill: #4c72b0; stroke: #4c72b0"/>
     <use xlink:href="#md642977903" x="425.812571" y="286.717968" style="fill: #4c72b0; stroke: #4c72b0"/>
     <use xlink:href="#md642977903" x="426.813818" y="284.770242" style="fill: #4c72b0; stroke: #4c72b0"/>
     <use xlink:href="#md642977903" x="427.815065" y="284.590399" style="fill: #4c72b0; stroke: #4c72b0"/>
     <use xlink:href="#md642977903" x="428.816312" y="284.646871" style="fill: #4c72b0; stroke: #4c72b0"/>
     <use xlink:href="#md642977903" x="429.817558" y="284.859554" style="fill: #4c72b0; stroke: #4c72b0"/>
     <use xlink:href="#md642977903" x="432.821299" y="286.561173" style="fill: #4c72b0; stroke: #4c72b0"/>
     <use xlink:href="#md642977903" x="433.822545" y="286.521758" style="fill: #4c72b0; stroke: #4c72b0"/>
     <use xlink:href="#md642977903" x="434.823792" y="286.458648" style="fill: #4c72b0; stroke: #4c72b0"/>
     <use xlink:href="#md642977903" x="435.825039" y="289.201282" style="fill: #4c72b0; stroke: #4c72b0"/>
     <use xlink:href="#md642977903" x="436.826286" y="289.212881" style="fill: #4c72b0; stroke: #4c72b0"/>
     <use xlink:href="#md642977903" x="437.827532" y="289.186597" style="fill: #4c72b0; stroke: #4c72b0"/>
     <use xlink:href="#md642977903" x="438.828779" y="289.13624" style="fill: #4c72b0; stroke: #4c72b0"/>
     <use xlink:href="#md642977903" x="439.830026" y="289.779192" style="fill: #4c72b0; stroke: #4c72b0"/>
     <use xlink:href="#md642977903" x="440.831273" y="289.745621" style="fill: #4c72b0; stroke: #4c72b0"/>
     <use xlink:href="#md642977903" x="441.832519" y="291.211788" style="fill: #4c72b0; stroke: #4c72b0"/>
     <use xlink:href="#md642977903" x="442.833766" y="291.144344" style="fill: #4c72b0; stroke: #4c72b0"/>
     <use xlink:href="#md642977903" x="443.835013" y="291.09194" style="fill: #4c72b0; stroke: #4c72b0"/>
     <use xlink:href="#md642977903" x="444.83626" y="290.988475" style="fill: #4c72b0; stroke: #4c72b0"/>
     <use xlink:href="#md642977903" x="445.837506" y="290.798589" style="fill: #4c72b0; stroke: #4c72b0"/>
     <use xlink:href="#md642977903" x="446.838753" y="290.650092" style="fill: #4c72b0; stroke: #4c72b0"/>
     <use xlink:href="#md642977903" x="447.84" y="290.66709" style="fill: #4c72b0; stroke: #4c72b0"/>
    </g>
   </g>
   <g id="patch_18">
    <path d="M 62.36 311.94 
L 62.36 255.115 
" style="fill: none; stroke: #262626; stroke-width: 1.25; stroke-linejoin: miter; stroke-linecap: square"/>
   </g>
   <g id="patch_19">
    <path d="M 447.84 311.94 
L 447.84 255.115 
" style="fill: none; stroke: #262626; stroke-width: 1.25; stroke-linejoin: miter; stroke-linecap: square"/>
   </g>
   <g id="patch_20">
    <path d="M 62.36 311.94 
L 447.84 311.94 
" style="fill: none; stroke: #262626; stroke-width: 1.25; stroke-linejoin: miter; stroke-linecap: square"/>
   </g>
   <g id="patch_21">
    <path d="M 62.36 255.115 
L 447.84 255.115 
" style="fill: none; stroke: #262626; stroke-width: 1.25; stroke-linejoin: miter; stroke-linecap: square"/>
   </g>
  </g>
 </g>
 <defs>
  <clipPath id="pc188e90e9f">
   <rect x="62.36" y="27.76" width="385.48" height="56.825"/>
  </clipPath>
  <clipPath id="pb0aef43f51">
   <rect x="62.36" y="103.545" width="385.48" height="56.825"/>
  </clipPath>
  <clipPath id="pf9ef68f728">
   <rect x="62.36" y="179.33" width="385.48" height="56.825"/>
  </clipPath>
  <clipPath id="pc77747d00a">
   <rect x="62.36" y="255.115" width="385.48" height="56.825"/>
  </clipPath>
 </defs>
</svg>
