<?xml version="1.0" encoding="utf-8" standalone="no"?>
<!DOCTYPE svg PUBLIC "-//W3C//DTD SVG 1.1//EN"
  "http://www.w3.org/Graphics/SVG/1.1/DTD/svg11.dtd">
<svg xmlns:xlink="http://www.w3.org/1999/xlink" width="864pt" height="864pt" viewBox="0 0 864 864" xmlns="http://www.w3.org/2000/svg" version="1.1">
 <metadata>
  <rdf:RDF xmlns:dc="http://purl.org/dc/elements/1.1/" xmlns:cc="http://creativecommons.org/ns#" xmlns:rdf="http://www.w3.org/1999/02/22-rdf-syntax-ns#">
   <cc:Work>
    <dc:type rdf:resource="http://purl.org/dc/dcmitype/StillImage"/>
    <dc:date>2023-07-11T01:54:18.889118</dc:date>
    <dc:format>image/svg+xml</dc:format>
    <dc:creator>
     <cc:Agent>
      <dc:title>Matplotlib v3.7.1, https://matplotlib.org/</dc:title>
     </cc:Agent>
    </dc:creator>
   </cc:Work>
  </rdf:RDF>
 </metadata>
 <defs>
  <style type="text/css">*{stroke-linejoin: round; stroke-linecap: butt}</style>
 </defs>
 <g id="figure_1">
  <g id="patch_1">
   <path d="M 0 864 
L 864 864 
L 864 0 
L 0 0 
z
" style="fill: #ffffff"/>
  </g>
  <g id="axes_1">
   <g id="patch_2">
    <path d="M 108 406.08 
L 777.6 406.08 
L 777.6 103.68 
L 108 103.68 
z
" style="fill: #ffffff"/>
   </g>
   <g id="matplotlib.axis_1">
    <g id="xtick_1">
     <g id="line2d_1">
      <defs>
       <path id="m388fa393f7" d="M 0 0 
L 0 6 
" style="stroke: #262626; stroke-width: 1.25"/>
      </defs>
      <g>
       <use xlink:href="#m388fa393f7" x="128.434455" y="406.08" style="fill: #262626; stroke: #262626; stroke-width: 1.25"/>
      </g>
     </g>
     <g id="text_1">
      <!-- 2016 -->
      <g style="fill: #262626" transform="translate(116.200393 423.453594) scale(0.11 -0.11)">
       <defs>
        <path id="ArialMT-32" d="M 3222 541 
L 3222 0 
L 194 0 
Q 188 203 259 391 
Q 375 700 629 1000 
Q 884 1300 1366 1694 
Q 2113 2306 2375 2664 
Q 2638 3022 2638 3341 
Q 2638 3675 2398 3904 
Q 2159 4134 1775 4134 
Q 1369 4134 1125 3890 
Q 881 3647 878 3216 
L 300 3275 
Q 359 3922 746 4261 
Q 1134 4600 1788 4600 
Q 2447 4600 2831 4234 
Q 3216 3869 3216 3328 
Q 3216 3053 3103 2787 
Q 2991 2522 2730 2228 
Q 2469 1934 1863 1422 
Q 1356 997 1212 845 
Q 1069 694 975 541 
L 3222 541 
z
" transform="scale(0.015625)"/>
        <path id="ArialMT-30" d="M 266 2259 
Q 266 3072 433 3567 
Q 600 4063 929 4331 
Q 1259 4600 1759 4600 
Q 2128 4600 2406 4451 
Q 2684 4303 2865 4023 
Q 3047 3744 3150 3342 
Q 3253 2941 3253 2259 
Q 3253 1453 3087 958 
Q 2922 463 2592 192 
Q 2263 -78 1759 -78 
Q 1097 -78 719 397 
Q 266 969 266 2259 
z
M 844 2259 
Q 844 1131 1108 757 
Q 1372 384 1759 384 
Q 2147 384 2411 759 
Q 2675 1134 2675 2259 
Q 2675 3391 2411 3762 
Q 2147 4134 1753 4134 
Q 1366 4134 1134 3806 
Q 844 3388 844 2259 
z
" transform="scale(0.015625)"/>
        <path id="ArialMT-31" d="M 2384 0 
L 1822 0 
L 1822 3584 
Q 1619 3391 1289 3197 
Q 959 3003 697 2906 
L 697 3450 
Q 1169 3672 1522 3987 
Q 1875 4303 2022 4600 
L 2384 4600 
L 2384 0 
z
" transform="scale(0.015625)"/>
        <path id="ArialMT-36" d="M 3184 3459 
L 2625 3416 
Q 2550 3747 2413 3897 
Q 2184 4138 1850 4138 
Q 1581 4138 1378 3988 
Q 1113 3794 959 3422 
Q 806 3050 800 2363 
Q 1003 2672 1297 2822 
Q 1591 2972 1913 2972 
Q 2475 2972 2870 2558 
Q 3266 2144 3266 1488 
Q 3266 1056 3080 686 
Q 2894 316 2569 119 
Q 2244 -78 1831 -78 
Q 1128 -78 684 439 
Q 241 956 241 2144 
Q 241 3472 731 4075 
Q 1159 4600 1884 4600 
Q 2425 4600 2770 4297 
Q 3116 3994 3184 3459 
z
M 888 1484 
Q 888 1194 1011 928 
Q 1134 663 1356 523 
Q 1578 384 1822 384 
Q 2178 384 2434 671 
Q 2691 959 2691 1453 
Q 2691 1928 2437 2201 
Q 2184 2475 1800 2475 
Q 1419 2475 1153 2201 
Q 888 1928 888 1484 
z
" transform="scale(0.015625)"/>
       </defs>
       <use xlink:href="#ArialMT-32"/>
       <use xlink:href="#ArialMT-30" x="55.615234"/>
       <use xlink:href="#ArialMT-31" x="111.230469"/>
       <use xlink:href="#ArialMT-36" x="166.845703"/>
      </g>
     </g>
    </g>
    <g id="xtick_2">
     <g id="line2d_2">
      <g>
       <use xlink:href="#m388fa393f7" x="230.120526" y="406.08" style="fill: #262626; stroke: #262626; stroke-width: 1.25"/>
      </g>
     </g>
     <g id="text_2">
      <!-- 2017 -->
      <g style="fill: #262626" transform="translate(217.886464 423.453594) scale(0.11 -0.11)">
       <defs>
        <path id="ArialMT-37" d="M 303 3981 
L 303 4522 
L 3269 4522 
L 3269 4084 
Q 2831 3619 2401 2847 
Q 1972 2075 1738 1259 
Q 1569 684 1522 0 
L 944 0 
Q 953 541 1156 1306 
Q 1359 2072 1739 2783 
Q 2119 3494 2547 3981 
L 303 3981 
z
" transform="scale(0.015625)"/>
       </defs>
       <use xlink:href="#ArialMT-32"/>
       <use xlink:href="#ArialMT-30" x="55.615234"/>
       <use xlink:href="#ArialMT-31" x="111.230469"/>
       <use xlink:href="#ArialMT-37" x="166.845703"/>
      </g>
     </g>
    </g>
    <g id="xtick_3">
     <g id="line2d_3">
      <g>
       <use xlink:href="#m388fa393f7" x="331.528766" y="406.08" style="fill: #262626; stroke: #262626; stroke-width: 1.25"/>
      </g>
     </g>
     <g id="text_3">
      <!-- 2018 -->
      <g style="fill: #262626" transform="translate(319.294704 423.453594) scale(0.11 -0.11)">
       <defs>
        <path id="ArialMT-38" d="M 1131 2484 
Q 781 2613 612 2850 
Q 444 3088 444 3419 
Q 444 3919 803 4259 
Q 1163 4600 1759 4600 
Q 2359 4600 2725 4251 
Q 3091 3903 3091 3403 
Q 3091 3084 2923 2848 
Q 2756 2613 2416 2484 
Q 2838 2347 3058 2040 
Q 3278 1734 3278 1309 
Q 3278 722 2862 322 
Q 2447 -78 1769 -78 
Q 1091 -78 675 323 
Q 259 725 259 1325 
Q 259 1772 486 2073 
Q 713 2375 1131 2484 
z
M 1019 3438 
Q 1019 3113 1228 2906 
Q 1438 2700 1772 2700 
Q 2097 2700 2305 2904 
Q 2513 3109 2513 3406 
Q 2513 3716 2298 3927 
Q 2084 4138 1766 4138 
Q 1444 4138 1231 3931 
Q 1019 3725 1019 3438 
z
M 838 1322 
Q 838 1081 952 856 
Q 1066 631 1291 507 
Q 1516 384 1775 384 
Q 2178 384 2440 643 
Q 2703 903 2703 1303 
Q 2703 1709 2433 1975 
Q 2163 2241 1756 2241 
Q 1359 2241 1098 1978 
Q 838 1716 838 1322 
z
" transform="scale(0.015625)"/>
       </defs>
       <use xlink:href="#ArialMT-32"/>
       <use xlink:href="#ArialMT-30" x="55.615234"/>
       <use xlink:href="#ArialMT-31" x="111.230469"/>
       <use xlink:href="#ArialMT-38" x="166.845703"/>
      </g>
     </g>
    </g>
    <g id="xtick_4">
     <g id="line2d_4">
      <g>
       <use xlink:href="#m388fa393f7" x="432.937007" y="406.08" style="fill: #262626; stroke: #262626; stroke-width: 1.25"/>
      </g>
     </g>
     <g id="text_4">
      <!-- 2019 -->
      <g style="fill: #262626" transform="translate(420.702944 423.453594) scale(0.11 -0.11)">
       <defs>
        <path id="ArialMT-39" d="M 350 1059 
L 891 1109 
Q 959 728 1153 556 
Q 1347 384 1650 384 
Q 1909 384 2104 503 
Q 2300 622 2425 820 
Q 2550 1019 2634 1356 
Q 2719 1694 2719 2044 
Q 2719 2081 2716 2156 
Q 2547 1888 2255 1720 
Q 1963 1553 1622 1553 
Q 1053 1553 659 1965 
Q 266 2378 266 3053 
Q 266 3750 677 4175 
Q 1088 4600 1706 4600 
Q 2153 4600 2523 4359 
Q 2894 4119 3086 3673 
Q 3278 3228 3278 2384 
Q 3278 1506 3087 986 
Q 2897 466 2520 194 
Q 2144 -78 1638 -78 
Q 1100 -78 759 220 
Q 419 519 350 1059 
z
M 2653 3081 
Q 2653 3566 2395 3850 
Q 2138 4134 1775 4134 
Q 1400 4134 1122 3828 
Q 844 3522 844 3034 
Q 844 2597 1108 2323 
Q 1372 2050 1759 2050 
Q 2150 2050 2401 2323 
Q 2653 2597 2653 3081 
z
" transform="scale(0.015625)"/>
       </defs>
       <use xlink:href="#ArialMT-32"/>
       <use xlink:href="#ArialMT-30" x="55.615234"/>
       <use xlink:href="#ArialMT-31" x="111.230469"/>
       <use xlink:href="#ArialMT-39" x="166.845703"/>
      </g>
     </g>
    </g>
    <g id="xtick_5">
     <g id="line2d_5">
      <g>
       <use xlink:href="#m388fa393f7" x="534.345247" y="406.08" style="fill: #262626; stroke: #262626; stroke-width: 1.25"/>
      </g>
     </g>
     <g id="text_5">
      <!-- 2020 -->
      <g style="fill: #262626" transform="translate(522.111185 423.453594) scale(0.11 -0.11)">
       <use xlink:href="#ArialMT-32"/>
       <use xlink:href="#ArialMT-30" x="55.615234"/>
       <use xlink:href="#ArialMT-32" x="111.230469"/>
       <use xlink:href="#ArialMT-30" x="166.845703"/>
      </g>
     </g>
    </g>
    <g id="xtick_6">
     <g id="line2d_6">
      <g>
       <use xlink:href="#m388fa393f7" x="636.031318" y="406.08" style="fill: #262626; stroke: #262626; stroke-width: 1.25"/>
      </g>
     </g>
     <g id="text_6">
      <!-- 2021 -->
      <g style="fill: #262626" transform="translate(623.797256 423.453594) scale(0.11 -0.11)">
       <use xlink:href="#ArialMT-32"/>
       <use xlink:href="#ArialMT-30" x="55.615234"/>
       <use xlink:href="#ArialMT-32" x="111.230469"/>
       <use xlink:href="#ArialMT-31" x="166.845703"/>
      </g>
     </g>
    </g>
    <g id="xtick_7">
     <g id="line2d_7">
      <g>
       <use xlink:href="#m388fa393f7" x="737.439559" y="406.08" style="fill: #262626; stroke: #262626; stroke-width: 1.25"/>
      </g>
     </g>
     <g id="text_7">
      <!-- 2022 -->
      <g style="fill: #262626" transform="translate(725.205496 423.453594) scale(0.11 -0.11)">
       <use xlink:href="#ArialMT-32"/>
       <use xlink:href="#ArialMT-30" x="55.615234"/>
       <use xlink:href="#ArialMT-32" x="111.230469"/>
       <use xlink:href="#ArialMT-32" x="166.845703"/>
      </g>
     </g>
    </g>
   </g>
   <g id="matplotlib.axis_2">
    <g id="ytick_1">
     <g id="line2d_8">
      <defs>
       <path id="md43ead2997" d="M 0 0 
L -6 0 
" style="stroke: #262626; stroke-width: 1.25"/>
      </defs>
      <g>
       <use xlink:href="#md43ead2997" x="108" y="352.238082" style="fill: #262626; stroke: #262626; stroke-width: 1.25"/>
      </g>
     </g>
     <g id="text_8">
      <!-- −1 -->
      <g style="fill: #262626" transform="translate(85.958281 356.174879) scale(0.11 -0.11)">
       <defs>
        <path id="ArialMT-2212" d="M 3381 1997 
L 356 1997 
L 356 2522 
L 3381 2522 
L 3381 1997 
z
" transform="scale(0.015625)"/>
       </defs>
       <use xlink:href="#ArialMT-2212"/>
       <use xlink:href="#ArialMT-31" x="58.398438"/>
      </g>
     </g>
    </g>
    <g id="ytick_2">
     <g id="line2d_9">
      <g>
       <use xlink:href="#md43ead2997" x="108" y="295.698577" style="fill: #262626; stroke: #262626; stroke-width: 1.25"/>
      </g>
     </g>
     <g id="text_9">
      <!-- 0 -->
      <g style="fill: #262626" transform="translate(92.382969 299.635374) scale(0.11 -0.11)">
       <use xlink:href="#ArialMT-30"/>
      </g>
     </g>
    </g>
    <g id="ytick_3">
     <g id="line2d_10">
      <g>
       <use xlink:href="#md43ead2997" x="108" y="239.159072" style="fill: #262626; stroke: #262626; stroke-width: 1.25"/>
      </g>
     </g>
     <g id="text_10">
      <!-- 1 -->
      <g style="fill: #262626" transform="translate(92.382969 243.095869) scale(0.11 -0.11)">
       <use xlink:href="#ArialMT-31"/>
      </g>
     </g>
    </g>
    <g id="ytick_4">
     <g id="line2d_11">
      <g>
       <use xlink:href="#md43ead2997" x="108" y="182.619568" style="fill: #262626; stroke: #262626; stroke-width: 1.25"/>
      </g>
     </g>
     <g id="text_11">
      <!-- 2 -->
      <g style="fill: #262626" transform="translate(92.382969 186.556365) scale(0.11 -0.11)">
       <use xlink:href="#ArialMT-32"/>
      </g>
     </g>
    </g>
    <g id="ytick_5">
     <g id="line2d_12">
      <g>
       <use xlink:href="#md43ead2997" x="108" y="126.080063" style="fill: #262626; stroke: #262626; stroke-width: 1.25"/>
      </g>
     </g>
     <g id="text_12">
      <!-- 3 -->
      <g style="fill: #262626" transform="translate(92.382969 130.01686) scale(0.11 -0.11)">
       <defs>
        <path id="ArialMT-33" d="M 269 1209 
L 831 1284 
Q 928 806 1161 595 
Q 1394 384 1728 384 
Q 2125 384 2398 659 
Q 2672 934 2672 1341 
Q 2672 1728 2419 1979 
Q 2166 2231 1775 2231 
Q 1616 2231 1378 2169 
L 1441 2663 
Q 1497 2656 1531 2656 
Q 1891 2656 2178 2843 
Q 2466 3031 2466 3422 
Q 2466 3731 2256 3934 
Q 2047 4138 1716 4138 
Q 1388 4138 1169 3931 
Q 950 3725 888 3313 
L 325 3413 
Q 428 3978 793 4289 
Q 1159 4600 1703 4600 
Q 2078 4600 2393 4439 
Q 2709 4278 2876 4000 
Q 3044 3722 3044 3409 
Q 3044 3113 2884 2869 
Q 2725 2625 2413 2481 
Q 2819 2388 3044 2092 
Q 3269 1797 3269 1353 
Q 3269 753 2831 336 
Q 2394 -81 1725 -81 
Q 1122 -81 723 278 
Q 325 638 269 1209 
z
" transform="scale(0.015625)"/>
       </defs>
       <use xlink:href="#ArialMT-33"/>
      </g>
     </g>
    </g>
   </g>
   <g id="PolyCollection_1">
    <defs>
     <path id="m6cd6b88e3f" d="M 138.436364 -677.578393 
L 138.436364 -544.579417 
L 140.381179 -515.700255 
L 142.325995 -515.429272 
L 144.27081 -536.735693 
L 146.215626 -548.58139 
L 148.160441 -552.715833 
L 150.105257 -549.675016 
L 152.050073 -559.023483 
L 153.994888 -569.208151 
L 155.939704 -577.750749 
L 157.884519 -583.491616 
L 159.829335 -586.276717 
L 161.77415 -590.944851 
L 163.718966 -596.744505 
L 165.663782 -600.260923 
L 167.608597 -605.482393 
L 169.553413 -613.570943 
L 171.498228 -619.008297 
L 173.443044 -621.040795 
L 175.387859 -628.495765 
L 177.332675 -630.583234 
L 179.277491 -632.221845 
L 181.222306 -633.913506 
L 183.167122 -637.268863 
L 185.111937 -640.50255 
L 187.056753 -644.037172 
L 189.001568 -649.046702 
L 190.946384 -650.868924 
L 192.8912 -655.88624 
L 194.836015 -660.543313 
L 196.780831 -664.434706 
L 198.725646 -671.025354 
L 200.670462 -679.495434 
L 202.615277 -680.730585 
L 204.560093 -683.173578 
L 206.504909 -688.249323 
L 208.449724 -703.493433 
L 210.39454 -707.940508 
L 212.339355 -708.180696 
L 214.284171 -708.128541 
L 216.228986 -711.243893 
L 218.173802 -719.286641 
L 220.118617 -724.005366 
L 222.063433 -727.845527 
L 224.008249 -728.836218 
L 225.953064 -732.850003 
L 227.89788 -733.862248 
L 229.842695 -683.465462 
L 231.787511 -606.339473 
L 233.732326 -537.327181 
L 235.677142 -503.654614 
L 237.621958 -501.264598 
L 239.566773 -506.239269 
L 241.511589 -508.960146 
L 243.456404 -508.864431 
L 245.40122 -510.401105 
L 247.346035 -517.078491 
L 249.290851 -520.781513 
L 251.235667 -528.18692 
L 253.180482 -529.840611 
L 255.125298 -534.727294 
L 257.070113 -546.019372 
L 259.014929 -548.591982 
L 260.959744 -551.200126 
L 262.90456 -552.826222 
L 264.849376 -555.696391 
L 266.794191 -557.969227 
L 268.739007 -561.6845 
L 270.683822 -564.037365 
L 272.628638 -567.042757 
L 274.573453 -570.132212 
L 276.518269 -575.371868 
L 278.463085 -579.047454 
L 280.4079 -583.6639 
L 282.352716 -589.388573 
L 284.297531 -592.953489 
L 286.242347 -598.913499 
L 288.187162 -600.468067 
L 290.131978 -602.226475 
L 292.076793 -607.984287 
L 294.021609 -612.407098 
L 295.966425 -617.927311 
L 297.91124 -619.320914 
L 299.856056 -622.976105 
L 301.800871 -625.148044 
L 303.745687 -627.579639 
L 305.690502 -629.767609 
L 307.635318 -633.004403 
L 309.580134 -636.43477 
L 311.524949 -645.425679 
L 313.469765 -647.34051 
L 315.41458 -646.880017 
L 317.359396 -647.317418 
L 319.304211 -650.425437 
L 321.249027 -656.248874 
L 323.193843 -658.324878 
L 325.138658 -657.604369 
L 327.083474 -659.922307 
L 329.028289 -667.956899 
L 330.973105 -672.870647 
L 332.91792 -661.582215 
L 334.862736 -578.266839 
L 336.807552 -505.896457 
L 338.752367 -497.951123 
L 340.697183 -503.383772 
L 342.641998 -506.545644 
L 344.586814 -506.625014 
L 346.531629 -507.897358 
L 348.476445 -508.130765 
L 350.421261 -509.137955 
L 352.366076 -510.774591 
L 354.310892 -496.373328 
L 356.255707 -482.109178 
L 358.200523 -479.113799 
L 360.145338 -487.381846 
L 362.090154 -496.753439 
L 364.03497 -499.307831 
L 365.979785 -498.063971 
L 367.924601 -502.383039 
L 369.869416 -515.975767 
L 371.814232 -532.151907 
L 373.759047 -534.75025 
L 375.703863 -537.599462 
L 377.648678 -540.584987 
L 379.593494 -542.785237 
L 381.53831 -543.545564 
L 383.483125 -543.648888 
L 385.427941 -541.677587 
L 387.372756 -550.911299 
L 389.317572 -554.728126 
L 391.262387 -556.754936 
L 393.207203 -558.54398 
L 395.152019 -561.045564 
L 397.096834 -567.990206 
L 399.04165 -581.173816 
L 400.986465 -588.925026 
L 402.931281 -591.626706 
L 404.876096 -595.091387 
L 406.820912 -597.185755 
L 408.765728 -601.488404 
L 410.710543 -602.741171 
L 412.655359 -603.096115 
L 414.600174 -604.987658 
L 416.54499 -606.579856 
L 418.489805 -607.63976 
L 420.434621 -608.567331 
L 422.379437 -610.860742 
L 424.324252 -612.435308 
L 426.269068 -614.723776 
L 428.213883 -614.515303 
L 430.158699 -614.855351 
L 432.103514 -617.133375 
L 434.04833 -619.857555 
L 435.993146 -616.404049 
L 437.937961 -572.743582 
L 439.882777 -525.890873 
L 441.827592 -501.057955 
L 443.772408 -498.304793 
L 445.717223 -502.14701 
L 447.662039 -504.422068 
L 449.606854 -506.258053 
L 451.55167 -506.448452 
L 453.496486 -508.702718 
L 455.441301 -510.720589 
L 457.386117 -511.267314 
L 459.330932 -512.562809 
L 461.275748 -514.318528 
L 463.220563 -514.697432 
L 465.165379 -515.491816 
L 467.110195 -516.974414 
L 469.05501 -518.788454 
L 470.999826 -520.45578 
L 472.944641 -522.448283 
L 474.889457 -523.506974 
L 476.834272 -524.918893 
L 478.779088 -526.444675 
L 480.723904 -528.204835 
L 482.668719 -529.77077 
L 484.613535 -532.610569 
L 486.55835 -534.058295 
L 488.503166 -535.749861 
L 490.447981 -538.874022 
L 492.392797 -541.714163 
L 494.337613 -544.047342 
L 496.282428 -545.674801 
L 498.227244 -546.155167 
L 500.172059 -548.47462 
L 502.116875 -551.416542 
L 504.06169 -554.030421 
L 506.006506 -557.133665 
L 507.951322 -559.119894 
L 509.896137 -560.578183 
L 511.840953 -562.081466 
L 513.785768 -565.305264 
L 515.730584 -567.355527 
L 517.675399 -568.617104 
L 519.620215 -569.984392 
L 521.56503 -572.281177 
L 523.509846 -573.720422 
L 525.454662 -574.610925 
L 527.399477 -576.413539 
L 529.344293 -578.305832 
L 531.289108 -580.378454 
L 533.233924 -581.928099 
L 535.178739 -582.108125 
L 537.123555 -583.535214 
L 539.068371 -586.741285 
L 541.013186 -581.486173 
L 542.958002 -536.70485 
L 544.902817 -502.881626 
L 546.847633 -500.352759 
L 548.792448 -503.21637 
L 550.737264 -505.070607 
L 552.68208 -506.438969 
L 554.626895 -506.404069 
L 556.571711 -508.364496 
L 558.516526 -509.755255 
L 560.461342 -510.979481 
L 562.406157 -511.330428 
L 564.350973 -494.429307 
L 566.295789 -478.433891 
L 568.240604 -472.095253 
L 570.18542 -473.218554 
L 572.130235 -473.844373 
L 574.075051 -472.301121 
L 576.019866 -471.665455 
L 577.964682 -472.839501 
L 579.909498 -474.874135 
L 581.854313 -476.945921 
L 583.799129 -478.987706 
L 585.743944 -480.136417 
L 587.68876 -482.09317 
L 589.633575 -490.039172 
L 591.578391 -504.333174 
L 593.523207 -518.417105 
L 595.468022 -518.71735 
L 597.412838 -520.378243 
L 599.357653 -523.039707 
L 601.302469 -521.008069 
L 603.247284 -521.143567 
L 605.1921 -522.157022 
L 607.136915 -523.106369 
L 609.081731 -523.64414 
L 611.026547 -519.336375 
L 612.971362 -524.599203 
L 614.916178 -520.783019 
L 616.860993 -526.69537 
L 618.805809 -527.923391 
L 620.750624 -528.106835 
L 622.69544 -528.73016 
L 624.640256 -528.944146 
L 626.585071 -520.962348 
L 628.529887 -521.031922 
L 630.474702 -529.650269 
L 632.419518 -530.681076 
L 634.364333 -531.468548 
L 636.309149 -531.735325 
L 638.253965 -531.676407 
L 640.19878 -531.944543 
L 642.143596 -532.98208 
L 644.088411 -530.632224 
L 646.033227 -530.853186 
L 647.978042 -509.842471 
L 649.922858 -500.551711 
L 651.867674 -500.643483 
L 653.812489 -502.731148 
L 655.757305 -503.887239 
L 657.70212 -503.761443 
L 659.646936 -503.575675 
L 661.591751 -504.116859 
L 663.536567 -504.346189 
L 665.481383 -504.469316 
L 667.426198 -504.808878 
L 669.371014 -505.369036 
L 671.315829 -505.512504 
L 673.260645 -505.83548 
L 675.20546 -505.968987 
L 677.150276 -506.257379 
L 679.095091 -506.348767 
L 681.039907 -506.852848 
L 682.984723 -507.196482 
L 684.929538 -508.921782 
L 686.874354 -510.740998 
L 688.819169 -511.608515 
L 690.763985 -511.98197 
L 692.7088 -512.275111 
L 694.653616 -512.389007 
L 696.598432 -512.698361 
L 698.543247 -512.737467 
L 700.488063 -512.701378 
L 702.432878 -512.735354 
L 704.377694 -513.145698 
L 706.322509 -513.839537 
L 708.267325 -514.226223 
L 710.212141 -514.392462 
L 712.156956 -515.224395 
L 714.101772 -515.541665 
L 716.046587 -516.4733 
L 717.991403 -516.947812 
L 719.936218 -517.264155 
L 721.881034 -517.43426 
L 723.82585 -518.272174 
L 725.770665 -518.487094 
L 727.715481 -518.942366 
L 729.660296 -519.843404 
L 731.605112 -519.980422 
L 733.549927 -519.967293 
L 735.494743 -519.964816 
L 737.439559 -519.965389 
L 739.384374 -519.957746 
L 741.32919 -520.175429 
L 743.274005 -520.510085 
L 745.218821 -520.598652 
L 747.163636 -519.895852 
L 747.163636 -532.614943 
L 747.163636 -532.614943 
L 745.218821 -532.613794 
L 743.274005 -532.252936 
L 741.32919 -531.909316 
L 739.384374 -531.657892 
L 737.439559 -531.659928 
L 735.494743 -531.653929 
L 733.549927 -531.652146 
L 731.605112 -531.664602 
L 729.660296 -531.524457 
L 727.715481 -530.62383 
L 725.770665 -530.167148 
L 723.82585 -529.951905 
L 721.881034 -529.11416 
L 719.936218 -528.942902 
L 717.991403 -528.62639 
L 716.046587 -528.151386 
L 714.101772 -527.220068 
L 712.156956 -526.902407 
L 710.212141 -526.070441 
L 708.267325 -525.903757 
L 706.322509 -525.516909 
L 704.377694 -524.82307 
L 702.432878 -524.412598 
L 700.488063 -524.378339 
L 698.543247 -524.414401 
L 696.598432 -524.375208 
L 694.653616 -524.065854 
L 692.7088 -523.951883 
L 690.763985 -523.658641 
L 688.819169 -523.285172 
L 686.874354 -522.417932 
L 684.929538 -520.600064 
L 682.984723 -518.878036 
L 681.039907 -518.536124 
L 679.095091 -518.032644 
L 677.150276 -517.941202 
L 675.20546 -517.652984 
L 673.260645 -517.519195 
L 671.315829 -517.196 
L 669.371014 -517.052697 
L 667.426198 -516.492758 
L 665.481383 -516.153111 
L 663.536567 -516.029714 
L 661.591751 -515.80052 
L 659.646936 -515.255183 
L 657.70212 -515.436342 
L 655.757305 -515.554303 
L 653.812489 -514.414728 
L 651.867674 -512.320269 
L 649.922858 -512.815406 
L 647.978042 -532.132296 
L 646.033227 -543.514187 
L 644.088411 -552.927543 
L 642.143596 -545.219151 
L 640.19878 -543.617635 
L 638.253965 -543.372139 
L 636.309149 -543.40057 
L 634.364333 -543.168133 
L 632.419518 -542.404779 
L 630.474702 -542.111053 
L 628.529887 -551.287187 
L 626.585071 -551.22021 
L 624.640256 -541.409473 
L 622.69544 -540.45517 
L 620.750624 -539.828071 
L 618.805809 -539.59585 
L 616.860993 -538.939161 
L 614.916178 -543.084148 
L 612.971362 -537.239517 
L 611.026547 -541.643315 
L 609.081731 -535.882997 
L 607.136915 -534.779428 
L 605.1921 -533.849101 
L 603.247284 -532.817448 
L 601.302469 -532.698207 
L 599.357653 -534.745933 
L 597.412838 -532.095786 
L 595.468022 -530.628177 
L 593.523207 -531.025276 
L 591.578391 -549.219793 
L 589.633575 -567.880056 
L 587.68876 -577.513304 
L 585.743944 -578.4886 
L 583.799129 -577.478936 
L 581.854313 -576.61449 
L 579.909498 -574.594815 
L 577.964682 -572.285912 
L 576.019866 -571.377318 
L 574.075051 -571.978162 
L 572.130235 -572.333251 
L 570.18542 -571.554568 
L 568.240604 -567.517894 
L 566.295789 -556.27977 
L 564.350973 -539.309334 
L 562.406157 -523.937786 
L 560.461342 -522.890227 
L 558.516526 -521.469245 
L 556.571711 -520.068511 
L 554.626895 -518.083413 
L 552.68208 -518.118451 
L 550.737264 -516.763205 
L 548.792448 -514.907947 
L 546.847633 -512.101757 
L 544.902817 -515.318621 
L 542.958002 -558.915054 
L 541.013186 -594.009167 
L 539.068371 -598.454991 
L 537.123555 -595.236086 
L 535.178739 -593.821937 
L 533.233924 -593.641941 
L 531.289108 -592.050508 
L 529.344293 -589.972811 
L 527.399477 -588.076749 
L 525.454662 -586.273065 
L 523.509846 -585.383222 
L 521.56503 -583.94258 
L 519.620215 -581.647196 
L 517.675399 -580.278357 
L 515.730584 -579.016788 
L 513.785768 -576.967194 
L 511.840953 -573.744512 
L 509.896137 -572.239434 
L 507.951322 -570.781172 
L 506.006506 -568.795047 
L 504.06169 -565.693119 
L 502.116875 -563.078359 
L 500.172059 -560.137009 
L 498.227244 -557.821829 
L 496.282428 -557.341773 
L 494.337613 -555.716542 
L 492.392797 -553.383589 
L 490.447981 -550.543067 
L 488.503166 -547.419932 
L 486.55835 -545.727078 
L 484.613535 -544.279907 
L 482.668719 -541.441071 
L 480.723904 -539.873445 
L 478.779088 -538.113204 
L 476.834272 -536.587449 
L 474.889457 -535.175024 
L 472.944641 -534.113947 
L 470.999826 -532.118857 
L 469.05501 -530.450162 
L 467.110195 -528.636082 
L 465.165379 -527.153929 
L 463.220563 -526.360488 
L 461.275748 -525.985567 
L 459.330932 -524.233367 
L 457.386117 -522.942142 
L 455.441301 -522.390601 
L 453.496486 -520.375068 
L 451.55167 -518.119846 
L 449.606854 -517.939095 
L 447.662039 -516.124375 
L 445.717223 -513.847456 
L 443.772408 -510.048601 
L 441.827592 -513.589175 
L 439.882777 -556.122194 
L 437.937961 -603.001073 
L 435.993146 -629.020025 
L 434.04833 -631.621031 
L 432.103514 -628.859767 
L 430.158699 -626.575678 
L 428.213883 -626.207267 
L 426.269068 -626.391526 
L 424.324252 -624.105664 
L 422.379437 -622.523738 
L 420.434621 -620.228749 
L 418.489805 -619.301678 
L 416.54499 -618.240911 
L 414.600174 -616.648793 
L 412.655359 -614.759238 
L 410.710543 -614.402327 
L 408.765728 -613.154783 
L 406.820912 -608.849458 
L 404.876096 -606.754356 
L 402.931281 -603.294184 
L 400.986465 -600.587693 
L 399.04165 -592.843963 
L 397.096834 -579.668167 
L 395.152019 -572.71229 
L 393.207203 -570.208728 
L 391.262387 -568.43902 
L 389.317572 -566.399867 
L 387.372756 -563.113858 
L 385.427941 -563.89735 
L 383.483125 -555.85821 
L 381.53831 -555.222359 
L 379.593494 -554.482205 
L 377.648678 -552.280813 
L 375.703863 -549.31596 
L 373.759047 -546.648532 
L 371.814232 -544.755978 
L 369.869416 -560.268052 
L 367.924601 -578.773828 
L 365.979785 -592.036408 
L 364.03497 -596.227302 
L 362.090154 -592.597949 
L 360.145338 -584.286122 
L 358.200523 -573.048479 
L 356.255707 -558.482335 
L 354.310892 -540.67575 
L 352.366076 -523.38786 
L 350.421261 -521.038089 
L 348.476445 -519.852025 
L 346.531629 -519.605552 
L 344.586814 -518.39148 
L 342.641998 -518.299849 
L 340.697183 -515.100297 
L 338.752367 -509.827077 
L 336.807552 -518.945312 
L 334.862736 -600.476182 
L 332.91792 -674.820559 
L 330.973105 -684.738776 
L 329.028289 -679.665512 
L 327.083474 -671.677183 
L 325.138658 -669.327849 
L 323.193843 -669.996501 
L 321.249027 -667.915832 
L 319.304211 -662.094108 
L 317.359396 -658.980481 
L 315.41458 -658.541409 
L 313.469765 -659.003869 
L 311.524949 -657.092584 
L 309.580134 -648.125899 
L 307.635318 -644.669919 
L 305.690502 -641.429082 
L 303.745687 -639.240856 
L 301.800871 -636.810945 
L 299.856056 -634.637911 
L 297.91124 -630.985325 
L 295.966425 -629.5983 
L 294.021609 -624.070275 
L 292.076793 -619.647438 
L 290.131978 -613.893407 
L 288.187162 -612.129082 
L 286.242347 -610.585877 
L 284.297531 -604.622598 
L 282.352716 -601.051542 
L 280.4079 -595.326077 
L 278.463085 -590.709337 
L 276.518269 -587.038 
L 274.573453 -581.800488 
L 272.628638 -578.712256 
L 270.683822 -575.710485 
L 268.739007 -573.35445 
L 266.794191 -569.640467 
L 264.849376 -567.366671 
L 262.90456 -564.493383 
L 260.959744 -562.866156 
L 259.014929 -560.263967 
L 257.070113 -557.72341 
L 255.125298 -546.40781 
L 253.180482 -541.510564 
L 251.235667 -539.861468 
L 249.290851 -532.484962 
L 247.346035 -528.765144 
L 245.40122 -522.078973 
L 243.456404 -520.572069 
L 241.511589 -520.713809 
L 239.566773 -518.003904 
L 237.621958 -513.148033 
L 235.677142 -516.477691 
L 233.732326 -575.745555 
L 231.787511 -657.255592 
L 229.842695 -721.97001 
L 227.89788 -746.574545 
L 225.953064 -744.735379 
L 224.008249 -740.560238 
L 222.063433 -739.584375 
L 220.118617 -735.701886 
L 218.173802 -730.976152 
L 216.228986 -722.934752 
L 214.284171 -719.822635 
L 212.339355 -719.868778 
L 210.39454 -719.627134 
L 208.449724 -715.228992 
L 206.504909 -699.96547 
L 204.560093 -694.8653 
L 202.615277 -692.417211 
L 200.670462 -691.201902 
L 198.725646 -682.711683 
L 196.780831 -676.11656 
L 194.836015 -672.238257 
L 192.8912 -667.573189 
L 190.946384 -662.553367 
L 189.001568 -660.7362 
L 187.056753 -655.719525 
L 185.111937 -652.187032 
L 183.167122 -648.956015 
L 181.222306 -645.594645 
L 179.277491 -643.903402 
L 177.332675 -642.267569 
L 175.387859 -640.202018 
L 173.443044 -632.749192 
L 171.498228 -630.709549 
L 169.553413 -625.276711 
L 167.608597 -617.196054 
L 165.663782 -611.998638 
L 163.718966 -608.533897 
L 161.77415 -602.810506 
L 159.829335 -598.293803 
L 157.884519 -595.765003 
L 155.939704 -590.552331 
L 153.994888 -582.964527 
L 152.050073 -575.043773 
L 150.105257 -576.630888 
L 148.160441 -576.845402 
L 146.215626 -580.831069 
L 144.27081 -583.150483 
L 142.325995 -585.499205 
L 140.381179 -620.517735 
L 138.436364 -677.578393 
z
" style="stroke: #ffffff; stroke-opacity: 0.4"/>
    </defs>
    <g clip-path="url(#p804584f745)">
     <use xlink:href="#m6cd6b88e3f" x="0" y="864" style="fill: #4c72b0; fill-opacity: 0.4; stroke: #ffffff; stroke-opacity: 0.4"/>
    </g>
   </g>
   <g id="line2d_13">
    <path d="M 138.436364 252.921093 
L 140.381179 295.891005 
L 142.325995 313.535763 
L 144.27081 304.056913 
L 146.215626 299.29377 
L 148.160441 299.219382 
L 150.105257 300.847047 
L 152.050073 296.966372 
L 153.994888 287.913661 
L 155.939704 279.84846 
L 157.884519 274.37169 
L 159.829335 271.71474 
L 161.77415 267.122322 
L 163.718966 261.360799 
L 165.663782 257.87022 
L 167.608597 252.660776 
L 169.553413 244.576173 
L 171.498228 239.141077 
L 173.443044 237.105007 
L 175.387859 229.651108 
L 177.332675 227.574598 
L 181.222306 224.245924 
L 187.056753 214.121652 
L 189.001568 209.108549 
L 190.946384 207.288854 
L 192.8912 202.270286 
L 194.836015 197.609215 
L 196.780831 193.724367 
L 198.725646 187.131481 
L 200.670462 178.651332 
L 202.615277 177.426102 
L 204.560093 174.980561 
L 206.504909 169.892604 
L 208.449724 154.638787 
L 210.39454 150.216179 
L 212.339355 149.975263 
L 214.284171 150.024412 
L 216.228986 146.910678 
L 218.173802 138.868604 
L 220.118617 134.146374 
L 222.063433 130.285049 
L 224.008249 129.301772 
L 225.953064 125.207309 
L 227.89788 123.781603 
L 229.842695 161.282264 
L 231.787511 232.202467 
L 233.732326 307.463631 
L 235.677142 353.933848 
L 237.621958 356.793685 
L 239.566773 351.878414 
L 241.511589 349.163022 
L 243.456404 349.281748 
L 245.40122 347.759963 
L 247.346035 341.078183 
L 249.290851 337.366763 
L 251.235667 329.975806 
L 253.180482 328.324414 
L 255.125298 323.432448 
L 257.070113 312.128609 
L 260.959744 306.966859 
L 262.90456 305.340198 
L 264.849376 302.468469 
L 266.794191 300.195153 
L 268.739007 296.480525 
L 270.683822 294.126075 
L 274.573453 288.03365 
L 276.518269 282.795067 
L 278.463085 279.121605 
L 280.4079 274.505011 
L 282.352716 268.779942 
L 284.297531 265.211957 
L 286.242347 259.250312 
L 288.187162 257.701425 
L 290.131978 255.940059 
L 292.076793 250.184137 
L 294.021609 245.761313 
L 295.966425 240.237195 
L 297.91124 238.846881 
L 299.856056 235.192994 
L 301.800871 233.020505 
L 303.745687 230.589753 
L 305.690502 228.401654 
L 309.580134 221.719665 
L 311.524949 212.740868 
L 313.469765 210.82781 
L 315.41458 211.289287 
L 317.359396 210.85105 
L 319.304211 207.740228 
L 321.249027 201.917647 
L 323.193843 199.83931 
L 325.138658 200.533891 
L 327.083474 198.200255 
L 329.028289 190.188795 
L 330.973105 185.195285 
L 332.91792 195.798613 
L 336.807552 351.579116 
L 338.752367 360.1109 
L 340.697183 354.757965 
L 342.641998 351.577255 
L 344.586814 351.491751 
L 346.531629 350.248545 
L 348.476445 350.008607 
L 350.421261 348.911976 
L 352.366076 346.918776 
L 354.310892 345.475462 
L 356.255707 343.704242 
L 358.200523 337.918859 
L 360.145338 328.166016 
L 362.090154 319.324305 
L 364.03497 316.232432 
L 365.979785 318.94981 
L 367.924601 323.421568 
L 369.869416 325.878091 
L 371.814232 325.546057 
L 373.759047 323.300608 
L 375.703863 320.542289 
L 377.648678 317.5671 
L 379.593494 315.366278 
L 381.53831 314.616038 
L 383.483125 314.24645 
L 385.427941 311.212532 
L 387.372756 306.987422 
L 389.317572 303.436003 
L 391.262387 301.403022 
L 393.207203 299.623646 
L 395.152019 297.121073 
L 397.096834 290.170813 
L 399.04165 276.99111 
L 400.986465 269.243641 
L 402.931281 266.539555 
L 404.876096 263.077128 
L 406.820912 260.982393 
L 408.765728 256.678406 
L 410.710543 255.428251 
L 412.655359 255.072324 
L 414.600174 253.181774 
L 416.54499 251.589616 
L 418.489805 250.529281 
L 420.434621 249.60196 
L 422.379437 247.30776 
L 424.324252 245.729514 
L 426.269068 243.442347 
L 428.213883 243.638715 
L 430.158699 243.284486 
L 432.103514 241.003429 
L 434.04833 238.260707 
L 435.993146 241.287963 
L 437.937961 276.127671 
L 439.882777 322.993466 
L 441.827592 356.676435 
L 443.772408 359.823303 
L 445.717223 356.002769 
L 447.662039 353.72678 
L 449.606854 351.901427 
L 451.55167 351.715851 
L 453.496486 349.461107 
L 455.441301 347.444405 
L 457.386117 346.89527 
L 459.330932 345.601912 
L 461.275748 343.847953 
L 463.220563 343.47104 
L 465.165379 342.677128 
L 467.110195 341.194752 
L 472.944641 335.718885 
L 474.889457 334.659001 
L 478.779088 331.721061 
L 480.723904 329.96086 
L 482.668719 328.394079 
L 484.613535 325.554762 
L 486.55835 324.107312 
L 488.503166 322.415102 
L 490.447981 319.291455 
L 492.392797 316.451124 
L 494.337613 314.118058 
L 496.282428 312.491713 
L 498.227244 312.011502 
L 500.172059 309.694186 
L 502.116875 306.752549 
L 504.06169 304.13823 
L 506.006506 301.035644 
L 507.951322 299.049467 
L 511.840953 296.087011 
L 513.785768 292.863771 
L 515.730584 290.813843 
L 519.620215 288.184206 
L 521.56503 285.888121 
L 523.509846 284.448178 
L 525.454662 283.558005 
L 529.344293 279.860678 
L 531.289108 277.785519 
L 533.233924 276.21498 
L 535.178739 276.034969 
L 537.123555 274.61435 
L 539.068371 271.401861 
L 541.013186 276.25233 
L 544.902817 354.899877 
L 546.847633 357.772742 
L 548.792448 354.937843 
L 550.737264 353.083094 
L 552.68208 351.72129 
L 554.626895 351.756257 
L 556.571711 349.783496 
L 560.461342 347.065146 
L 562.406157 346.365895 
L 564.350973 347.13068 
L 566.295789 346.64317 
L 570.18542 341.613439 
L 572.130235 340.911188 
L 574.075051 341.860357 
L 576.019866 342.478614 
L 577.964682 341.437292 
L 581.854313 337.219796 
L 583.799129 335.766679 
L 585.743944 334.687491 
L 587.68876 334.196763 
L 589.633575 335.040386 
L 593.523207 339.278809 
L 595.468022 339.327236 
L 597.412838 337.762986 
L 599.357653 335.10718 
L 601.302469 337.146862 
L 603.247284 337.019493 
L 607.136915 335.057101 
L 611.026547 333.510156 
L 612.971362 333.08064 
L 614.916178 332.066417 
L 618.805809 330.24038 
L 620.750624 330.032547 
L 624.640256 328.82319 
L 626.585071 327.908722 
L 628.529887 327.840446 
L 630.474702 328.119338 
L 634.364333 326.681658 
L 636.309149 326.432051 
L 638.253965 326.475727 
L 640.19878 326.218911 
L 642.143596 324.899384 
L 644.088411 322.220116 
L 646.033227 326.816314 
L 647.978042 343.012616 
L 649.922858 357.316442 
L 651.867674 357.518124 
L 653.812489 355.427062 
L 655.757305 354.279227 
L 659.646936 354.584571 
L 661.591751 354.041311 
L 667.426198 353.349183 
L 669.371014 352.789134 
L 671.315829 352.645746 
L 673.260645 352.322663 
L 675.20546 352.189015 
L 677.150276 351.90071 
L 679.095091 351.809295 
L 681.039907 351.305514 
L 682.984723 350.962739 
L 686.874354 347.420535 
L 688.819169 346.553156 
L 692.7088 345.886503 
L 694.653616 345.772569 
L 696.598432 345.463215 
L 702.432878 345.426024 
L 704.377694 345.015616 
L 706.322509 344.321777 
L 708.267325 343.93501 
L 710.212141 343.768548 
L 712.156956 342.936599 
L 714.101772 342.619133 
L 716.046587 341.687657 
L 717.991403 341.212899 
L 719.936218 340.896471 
L 721.881034 340.72579 
L 723.82585 339.88796 
L 725.770665 339.672879 
L 727.715481 339.216902 
L 729.660296 338.31607 
L 731.605112 338.177488 
L 739.384374 338.192181 
L 745.218821 337.393777 
L 747.163636 337.744602 
L 747.163636 337.744602 
" clip-path="url(#p804584f745)" style="fill: none; stroke: #4c72b0; stroke-width: 1.5; stroke-linecap: round"/>
   </g>
   <g id="patch_3">
    <path d="M 108 406.08 
L 108 103.68 
" style="fill: none; stroke: #262626; stroke-width: 1.25; stroke-linejoin: miter; stroke-linecap: square"/>
   </g>
   <g id="patch_4">
    <path d="M 777.6 406.08 
L 777.6 103.68 
" style="fill: none; stroke: #262626; stroke-width: 1.25; stroke-linejoin: miter; stroke-linecap: square"/>
   </g>
   <g id="patch_5">
    <path d="M 108 406.08 
L 777.6 406.08 
" style="fill: none; stroke: #262626; stroke-width: 1.25; stroke-linejoin: miter; stroke-linecap: square"/>
   </g>
   <g id="patch_6">
    <path d="M 108 103.68 
L 777.6 103.68 
" style="fill: none; stroke: #262626; stroke-width: 1.25; stroke-linejoin: miter; stroke-linecap: square"/>
   </g>
   <g id="text_13">
    <!-- sts_yearly_trend/ -->
    <g style="fill: #262626" transform="translate(397.114688 97.68) scale(0.12 -0.12)">
     <defs>
      <path id="ArialMT-73" d="M 197 991 
L 753 1078 
Q 800 744 1014 566 
Q 1228 388 1613 388 
Q 2000 388 2187 545 
Q 2375 703 2375 916 
Q 2375 1106 2209 1216 
Q 2094 1291 1634 1406 
Q 1016 1563 777 1677 
Q 538 1791 414 1992 
Q 291 2194 291 2438 
Q 291 2659 392 2848 
Q 494 3038 669 3163 
Q 800 3259 1026 3326 
Q 1253 3394 1513 3394 
Q 1903 3394 2198 3281 
Q 2494 3169 2634 2976 
Q 2775 2784 2828 2463 
L 2278 2388 
Q 2241 2644 2061 2787 
Q 1881 2931 1553 2931 
Q 1166 2931 1000 2803 
Q 834 2675 834 2503 
Q 834 2394 903 2306 
Q 972 2216 1119 2156 
Q 1203 2125 1616 2013 
Q 2213 1853 2448 1751 
Q 2684 1650 2818 1456 
Q 2953 1263 2953 975 
Q 2953 694 2789 445 
Q 2625 197 2315 61 
Q 2006 -75 1616 -75 
Q 969 -75 630 194 
Q 291 463 197 991 
z
" transform="scale(0.015625)"/>
      <path id="ArialMT-74" d="M 1650 503 
L 1731 6 
Q 1494 -44 1306 -44 
Q 1000 -44 831 53 
Q 663 150 594 308 
Q 525 466 525 972 
L 525 2881 
L 113 2881 
L 113 3319 
L 525 3319 
L 525 4141 
L 1084 4478 
L 1084 3319 
L 1650 3319 
L 1650 2881 
L 1084 2881 
L 1084 941 
Q 1084 700 1114 631 
Q 1144 563 1211 522 
Q 1278 481 1403 481 
Q 1497 481 1650 503 
z
" transform="scale(0.015625)"/>
      <path id="ArialMT-5f" d="M -97 -1272 
L -97 -866 
L 3631 -866 
L 3631 -1272 
L -97 -1272 
z
" transform="scale(0.015625)"/>
      <path id="ArialMT-79" d="M 397 -1278 
L 334 -750 
Q 519 -800 656 -800 
Q 844 -800 956 -737 
Q 1069 -675 1141 -563 
Q 1194 -478 1313 -144 
Q 1328 -97 1363 -6 
L 103 3319 
L 709 3319 
L 1400 1397 
Q 1534 1031 1641 628 
Q 1738 1016 1872 1384 
L 2581 3319 
L 3144 3319 
L 1881 -56 
Q 1678 -603 1566 -809 
Q 1416 -1088 1222 -1217 
Q 1028 -1347 759 -1347 
Q 597 -1347 397 -1278 
z
" transform="scale(0.015625)"/>
      <path id="ArialMT-65" d="M 2694 1069 
L 3275 997 
Q 3138 488 2766 206 
Q 2394 -75 1816 -75 
Q 1088 -75 661 373 
Q 234 822 234 1631 
Q 234 2469 665 2931 
Q 1097 3394 1784 3394 
Q 2450 3394 2872 2941 
Q 3294 2488 3294 1666 
Q 3294 1616 3291 1516 
L 816 1516 
Q 847 969 1125 678 
Q 1403 388 1819 388 
Q 2128 388 2347 550 
Q 2566 713 2694 1069 
z
M 847 1978 
L 2700 1978 
Q 2663 2397 2488 2606 
Q 2219 2931 1791 2931 
Q 1403 2931 1139 2672 
Q 875 2413 847 1978 
z
" transform="scale(0.015625)"/>
      <path id="ArialMT-61" d="M 2588 409 
Q 2275 144 1986 34 
Q 1697 -75 1366 -75 
Q 819 -75 525 192 
Q 231 459 231 875 
Q 231 1119 342 1320 
Q 453 1522 633 1644 
Q 813 1766 1038 1828 
Q 1203 1872 1538 1913 
Q 2219 1994 2541 2106 
Q 2544 2222 2544 2253 
Q 2544 2597 2384 2738 
Q 2169 2928 1744 2928 
Q 1347 2928 1158 2789 
Q 969 2650 878 2297 
L 328 2372 
Q 403 2725 575 2942 
Q 747 3159 1072 3276 
Q 1397 3394 1825 3394 
Q 2250 3394 2515 3294 
Q 2781 3194 2906 3042 
Q 3031 2891 3081 2659 
Q 3109 2516 3109 2141 
L 3109 1391 
Q 3109 606 3145 398 
Q 3181 191 3288 0 
L 2700 0 
Q 2613 175 2588 409 
z
M 2541 1666 
Q 2234 1541 1622 1453 
Q 1275 1403 1131 1340 
Q 988 1278 909 1158 
Q 831 1038 831 891 
Q 831 666 1001 516 
Q 1172 366 1500 366 
Q 1825 366 2078 508 
Q 2331 650 2450 897 
Q 2541 1088 2541 1459 
L 2541 1666 
z
" transform="scale(0.015625)"/>
      <path id="ArialMT-72" d="M 416 0 
L 416 3319 
L 922 3319 
L 922 2816 
Q 1116 3169 1280 3281 
Q 1444 3394 1641 3394 
Q 1925 3394 2219 3213 
L 2025 2691 
Q 1819 2813 1613 2813 
Q 1428 2813 1281 2702 
Q 1134 2591 1072 2394 
Q 978 2094 978 1738 
L 978 0 
L 416 0 
z
" transform="scale(0.015625)"/>
      <path id="ArialMT-6c" d="M 409 0 
L 409 4581 
L 972 4581 
L 972 0 
L 409 0 
z
" transform="scale(0.015625)"/>
      <path id="ArialMT-6e" d="M 422 0 
L 422 3319 
L 928 3319 
L 928 2847 
Q 1294 3394 1984 3394 
Q 2284 3394 2536 3286 
Q 2788 3178 2913 3003 
Q 3038 2828 3088 2588 
Q 3119 2431 3119 2041 
L 3119 0 
L 2556 0 
L 2556 2019 
Q 2556 2363 2490 2533 
Q 2425 2703 2258 2804 
Q 2091 2906 1866 2906 
Q 1506 2906 1245 2678 
Q 984 2450 984 1813 
L 984 0 
L 422 0 
z
" transform="scale(0.015625)"/>
      <path id="ArialMT-64" d="M 2575 0 
L 2575 419 
Q 2259 -75 1647 -75 
Q 1250 -75 917 144 
Q 584 363 401 755 
Q 219 1147 219 1656 
Q 219 2153 384 2558 
Q 550 2963 881 3178 
Q 1213 3394 1622 3394 
Q 1922 3394 2156 3267 
Q 2391 3141 2538 2938 
L 2538 4581 
L 3097 4581 
L 3097 0 
L 2575 0 
z
M 797 1656 
Q 797 1019 1065 703 
Q 1334 388 1700 388 
Q 2069 388 2326 689 
Q 2584 991 2584 1609 
Q 2584 2291 2321 2609 
Q 2059 2928 1675 2928 
Q 1300 2928 1048 2622 
Q 797 2316 797 1656 
z
" transform="scale(0.015625)"/>
      <path id="ArialMT-2f" d="M 0 -78 
L 1328 4659 
L 1778 4659 
L 453 -78 
L 0 -78 
z
" transform="scale(0.015625)"/>
     </defs>
     <use xlink:href="#ArialMT-73"/>
     <use xlink:href="#ArialMT-74" x="50"/>
     <use xlink:href="#ArialMT-73" x="77.783203"/>
     <use xlink:href="#ArialMT-5f" x="127.783203"/>
     <use xlink:href="#ArialMT-79" x="183.398438"/>
     <use xlink:href="#ArialMT-65" x="233.398438"/>
     <use xlink:href="#ArialMT-61" x="289.013672"/>
     <use xlink:href="#ArialMT-72" x="344.628906"/>
     <use xlink:href="#ArialMT-6c" x="377.929688"/>
     <use xlink:href="#ArialMT-79" x="400.146484"/>
     <use xlink:href="#ArialMT-5f" x="450.146484"/>
     <use xlink:href="#ArialMT-74" x="505.761719"/>
     <use xlink:href="#ArialMT-72" x="533.544922"/>
     <use xlink:href="#ArialMT-65" x="566.845703"/>
     <use xlink:href="#ArialMT-6e" x="622.460938"/>
     <use xlink:href="#ArialMT-64" x="678.076172"/>
     <use xlink:href="#ArialMT-2f" x="733.691406"/>
    </g>
   </g>
  </g>
  <g id="axes_2">
   <g id="patch_7">
    <path d="M 108 768.96 
L 777.6 768.96 
L 777.6 466.56 
L 108 466.56 
z
" style="fill: #ffffff"/>
   </g>
   <g id="matplotlib.axis_3">
    <g id="xtick_8">
     <g id="line2d_14">
      <g>
       <use xlink:href="#m388fa393f7" x="128.434455" y="768.96" style="fill: #262626; stroke: #262626; stroke-width: 1.25"/>
      </g>
     </g>
     <g id="text_14">
      <!-- 2016 -->
      <g style="fill: #262626" transform="translate(116.200393 786.333594) scale(0.11 -0.11)">
       <use xlink:href="#ArialMT-32"/>
       <use xlink:href="#ArialMT-30" x="55.615234"/>
       <use xlink:href="#ArialMT-31" x="111.230469"/>
       <use xlink:href="#ArialMT-36" x="166.845703"/>
      </g>
     </g>
    </g>
    <g id="xtick_9">
     <g id="line2d_15">
      <g>
       <use xlink:href="#m388fa393f7" x="230.120526" y="768.96" style="fill: #262626; stroke: #262626; stroke-width: 1.25"/>
      </g>
     </g>
     <g id="text_15">
      <!-- 2017 -->
      <g style="fill: #262626" transform="translate(217.886464 786.333594) scale(0.11 -0.11)">
       <use xlink:href="#ArialMT-32"/>
       <use xlink:href="#ArialMT-30" x="55.615234"/>
       <use xlink:href="#ArialMT-31" x="111.230469"/>
       <use xlink:href="#ArialMT-37" x="166.845703"/>
      </g>
     </g>
    </g>
    <g id="xtick_10">
     <g id="line2d_16">
      <g>
       <use xlink:href="#m388fa393f7" x="331.528766" y="768.96" style="fill: #262626; stroke: #262626; stroke-width: 1.25"/>
      </g>
     </g>
     <g id="text_16">
      <!-- 2018 -->
      <g style="fill: #262626" transform="translate(319.294704 786.333594) scale(0.11 -0.11)">
       <use xlink:href="#ArialMT-32"/>
       <use xlink:href="#ArialMT-30" x="55.615234"/>
       <use xlink:href="#ArialMT-31" x="111.230469"/>
       <use xlink:href="#ArialMT-38" x="166.845703"/>
      </g>
     </g>
    </g>
    <g id="xtick_11">
     <g id="line2d_17">
      <g>
       <use xlink:href="#m388fa393f7" x="432.937007" y="768.96" style="fill: #262626; stroke: #262626; stroke-width: 1.25"/>
      </g>
     </g>
     <g id="text_17">
      <!-- 2019 -->
      <g style="fill: #262626" transform="translate(420.702944 786.333594) scale(0.11 -0.11)">
       <use xlink:href="#ArialMT-32"/>
       <use xlink:href="#ArialMT-30" x="55.615234"/>
       <use xlink:href="#ArialMT-31" x="111.230469"/>
       <use xlink:href="#ArialMT-39" x="166.845703"/>
      </g>
     </g>
    </g>
    <g id="xtick_12">
     <g id="line2d_18">
      <g>
       <use xlink:href="#m388fa393f7" x="534.345247" y="768.96" style="fill: #262626; stroke: #262626; stroke-width: 1.25"/>
      </g>
     </g>
     <g id="text_18">
      <!-- 2020 -->
      <g style="fill: #262626" transform="translate(522.111185 786.333594) scale(0.11 -0.11)">
       <use xlink:href="#ArialMT-32"/>
       <use xlink:href="#ArialMT-30" x="55.615234"/>
       <use xlink:href="#ArialMT-32" x="111.230469"/>
       <use xlink:href="#ArialMT-30" x="166.845703"/>
      </g>
     </g>
    </g>
    <g id="xtick_13">
     <g id="line2d_19">
      <g>
       <use xlink:href="#m388fa393f7" x="636.031318" y="768.96" style="fill: #262626; stroke: #262626; stroke-width: 1.25"/>
      </g>
     </g>
     <g id="text_19">
      <!-- 2021 -->
      <g style="fill: #262626" transform="translate(623.797256 786.333594) scale(0.11 -0.11)">
       <use xlink:href="#ArialMT-32"/>
       <use xlink:href="#ArialMT-30" x="55.615234"/>
       <use xlink:href="#ArialMT-32" x="111.230469"/>
       <use xlink:href="#ArialMT-31" x="166.845703"/>
      </g>
     </g>
    </g>
    <g id="xtick_14">
     <g id="line2d_20">
      <g>
       <use xlink:href="#m388fa393f7" x="737.439559" y="768.96" style="fill: #262626; stroke: #262626; stroke-width: 1.25"/>
      </g>
     </g>
     <g id="text_20">
      <!-- 2022 -->
      <g style="fill: #262626" transform="translate(725.205496 786.333594) scale(0.11 -0.11)">
       <use xlink:href="#ArialMT-32"/>
       <use xlink:href="#ArialMT-30" x="55.615234"/>
       <use xlink:href="#ArialMT-32" x="111.230469"/>
       <use xlink:href="#ArialMT-32" x="166.845703"/>
      </g>
     </g>
    </g>
   </g>
   <g id="matplotlib.axis_4">
    <g id="ytick_6">
     <g id="line2d_21">
      <g>
       <use xlink:href="#md43ead2997" x="108" y="768.614335" style="fill: #262626; stroke: #262626; stroke-width: 1.25"/>
      </g>
     </g>
     <g id="text_21">
      <!-- −3.0 -->
      <g style="fill: #262626" transform="translate(76.785313 772.551132) scale(0.11 -0.11)">
       <defs>
        <path id="ArialMT-2e" d="M 581 0 
L 581 641 
L 1222 641 
L 1222 0 
L 581 0 
z
" transform="scale(0.015625)"/>
       </defs>
       <use xlink:href="#ArialMT-2212"/>
       <use xlink:href="#ArialMT-33" x="58.398438"/>
       <use xlink:href="#ArialMT-2e" x="114.013672"/>
       <use xlink:href="#ArialMT-30" x="141.796875"/>
      </g>
     </g>
    </g>
    <g id="ytick_7">
     <g id="line2d_22">
      <g>
       <use xlink:href="#md43ead2997" x="108" y="723.137523" style="fill: #262626; stroke: #262626; stroke-width: 1.25"/>
      </g>
     </g>
     <g id="text_22">
      <!-- −2.5 -->
      <g style="fill: #262626" transform="translate(76.785313 727.07432) scale(0.11 -0.11)">
       <defs>
        <path id="ArialMT-35" d="M 266 1200 
L 856 1250 
Q 922 819 1161 601 
Q 1400 384 1738 384 
Q 2144 384 2425 690 
Q 2706 997 2706 1503 
Q 2706 1984 2436 2262 
Q 2166 2541 1728 2541 
Q 1456 2541 1237 2417 
Q 1019 2294 894 2097 
L 366 2166 
L 809 4519 
L 3088 4519 
L 3088 3981 
L 1259 3981 
L 1013 2750 
Q 1425 3038 1878 3038 
Q 2478 3038 2890 2622 
Q 3303 2206 3303 1553 
Q 3303 931 2941 478 
Q 2500 -78 1738 -78 
Q 1113 -78 717 272 
Q 322 622 266 1200 
z
" transform="scale(0.015625)"/>
       </defs>
       <use xlink:href="#ArialMT-2212"/>
       <use xlink:href="#ArialMT-32" x="58.398438"/>
       <use xlink:href="#ArialMT-2e" x="114.013672"/>
       <use xlink:href="#ArialMT-35" x="141.796875"/>
      </g>
     </g>
    </g>
    <g id="ytick_8">
     <g id="line2d_23">
      <g>
       <use xlink:href="#md43ead2997" x="108" y="677.660711" style="fill: #262626; stroke: #262626; stroke-width: 1.25"/>
      </g>
     </g>
     <g id="text_23">
      <!-- −2.0 -->
      <g style="fill: #262626" transform="translate(76.785313 681.597508) scale(0.11 -0.11)">
       <use xlink:href="#ArialMT-2212"/>
       <use xlink:href="#ArialMT-32" x="58.398438"/>
       <use xlink:href="#ArialMT-2e" x="114.013672"/>
       <use xlink:href="#ArialMT-30" x="141.796875"/>
      </g>
     </g>
    </g>
    <g id="ytick_9">
     <g id="line2d_24">
      <g>
       <use xlink:href="#md43ead2997" x="108" y="632.183899" style="fill: #262626; stroke: #262626; stroke-width: 1.25"/>
      </g>
     </g>
     <g id="text_24">
      <!-- −1.5 -->
      <g style="fill: #262626" transform="translate(76.785313 636.120696) scale(0.11 -0.11)">
       <use xlink:href="#ArialMT-2212"/>
       <use xlink:href="#ArialMT-31" x="58.398438"/>
       <use xlink:href="#ArialMT-2e" x="114.013672"/>
       <use xlink:href="#ArialMT-35" x="141.796875"/>
      </g>
     </g>
    </g>
    <g id="ytick_10">
     <g id="line2d_25">
      <g>
       <use xlink:href="#md43ead2997" x="108" y="586.707087" style="fill: #262626; stroke: #262626; stroke-width: 1.25"/>
      </g>
     </g>
     <g id="text_25">
      <!-- −1.0 -->
      <g style="fill: #262626" transform="translate(76.785313 590.643884) scale(0.11 -0.11)">
       <use xlink:href="#ArialMT-2212"/>
       <use xlink:href="#ArialMT-31" x="58.398438"/>
       <use xlink:href="#ArialMT-2e" x="114.013672"/>
       <use xlink:href="#ArialMT-30" x="141.796875"/>
      </g>
     </g>
    </g>
    <g id="ytick_11">
     <g id="line2d_26">
      <g>
       <use xlink:href="#md43ead2997" x="108" y="541.230275" style="fill: #262626; stroke: #262626; stroke-width: 1.25"/>
      </g>
     </g>
     <g id="text_26">
      <!-- −0.5 -->
      <g style="fill: #262626" transform="translate(76.785313 545.167072) scale(0.11 -0.11)">
       <use xlink:href="#ArialMT-2212"/>
       <use xlink:href="#ArialMT-30" x="58.398438"/>
       <use xlink:href="#ArialMT-2e" x="114.013672"/>
       <use xlink:href="#ArialMT-35" x="141.796875"/>
      </g>
     </g>
    </g>
    <g id="ytick_12">
     <g id="line2d_27">
      <g>
       <use xlink:href="#md43ead2997" x="108" y="495.753463" style="fill: #262626; stroke: #262626; stroke-width: 1.25"/>
      </g>
     </g>
     <g id="text_27">
      <!-- 0.0 -->
      <g style="fill: #262626" transform="translate(83.21 499.69026) scale(0.11 -0.11)">
       <use xlink:href="#ArialMT-30"/>
       <use xlink:href="#ArialMT-2e" x="55.615234"/>
       <use xlink:href="#ArialMT-30" x="83.398438"/>
      </g>
     </g>
    </g>
   </g>
   <g id="PolyCollection_2">
    <defs>
     <path id="mfa7efed2d1" d="M 138.436364 -324.3343 
L 138.436364 -108.785455 
L 140.381179 -197.684638 
L 142.325995 -271.988407 
L 144.27081 -310.342281 
L 146.215626 -331.405887 
L 148.160441 -343.845219 
L 150.105257 -351.362151 
L 152.050073 -356.007352 
L 153.994888 -358.855934 
L 155.939704 -360.446541 
L 157.884519 -361.4554 
L 159.829335 -361.931116 
L 161.77415 -362.350847 
L 163.718966 -362.683614 
L 165.663782 -362.582822 
L 167.608597 -362.587804 
L 169.553413 -362.921675 
L 171.498228 -362.967895 
L 173.443044 -362.569728 
L 175.387859 -363.061278 
L 177.332675 -362.870114 
L 179.277491 -362.857373 
L 181.222306 -362.851116 
L 183.167122 -362.958354 
L 185.111937 -362.903489 
L 187.056753 -362.81013 
L 189.001568 -362.984882 
L 190.946384 -362.716954 
L 192.8912 -362.961105 
L 194.836015 -363.046174 
L 196.780831 -362.786769 
L 198.725646 -362.698714 
L 200.670462 -363.119204 
L 202.615277 -362.949988 
L 204.560093 -362.989965 
L 206.504909 -362.553717 
L 208.449724 -363.247103 
L 210.39454 -362.9102 
L 212.339355 -362.954362 
L 214.284171 -363.041314 
L 216.228986 -362.867947 
L 218.173802 -362.965865 
L 220.118617 -362.881396 
L 222.063433 -363.268467 
L 224.008249 -362.944948 
L 225.953064 -362.428426 
L 227.89788 -363.152356 
L 229.842695 -362.831221 
L 231.787511 -362.508459 
L 233.732326 -362.088241 
L 235.677142 -361.51891 
L 237.621958 -362.319699 
L 239.566773 -361.94332 
L 241.511589 -361.874974 
L 243.456404 -362.213987 
L 245.40122 -362.454092 
L 247.346035 -362.711993 
L 249.290851 -362.230911 
L 251.235667 -362.704227 
L 253.180482 -362.478194 
L 255.125298 -362.399351 
L 257.070113 -362.98765 
L 259.014929 -362.49411 
L 260.959744 -362.547858 
L 262.90456 -362.59968 
L 264.849376 -362.711365 
L 266.794191 -362.551755 
L 268.739007 -362.594953 
L 270.683822 -362.513228 
L 272.628638 -362.589227 
L 274.573453 -362.567771 
L 276.518269 -362.758923 
L 278.463085 -362.638849 
L 280.4079 -362.62966 
L 282.352716 -362.76198 
L 284.297531 -362.562107 
L 286.242347 -362.908389 
L 288.187162 -362.747539 
L 290.131978 -362.576265 
L 292.076793 -362.785704 
L 294.021609 -362.663963 
L 295.966425 -362.891489 
L 297.91124 -362.622345 
L 299.856056 -362.735143 
L 301.800871 -362.607283 
L 303.745687 -362.643963 
L 305.690502 -362.712379 
L 307.635318 -362.739363 
L 309.580134 -362.329433 
L 311.524949 -362.72655 
L 313.469765 -362.578734 
L 315.41458 -362.67504 
L 317.359396 -362.73952 
L 319.304211 -362.544385 
L 321.249027 -362.629799 
L 323.193843 -362.879354 
L 325.138658 -363.329738 
L 327.083474 -363.519439 
L 329.028289 -363.016392 
L 330.973105 -362.407068 
L 332.91792 -364.590549 
L 334.862736 -362.844836 
L 336.807552 -360.556204 
L 338.752367 -363.182075 
L 340.697183 -362.846626 
L 342.641998 -361.877229 
L 344.586814 -361.899952 
L 346.531629 -362.631277 
L 348.476445 -362.735764 
L 350.421261 -362.517611 
L 352.366076 -362.433531 
L 354.310892 -362.532311 
L 356.255707 -362.589499 
L 358.200523 -362.617328 
L 360.145338 -362.631048 
L 362.090154 -362.637058 
L 364.03497 -362.637923 
L 365.979785 -362.633982 
L 367.924601 -362.623701 
L 369.869416 -362.603499 
L 371.814232 -362.570467 
L 373.759047 -362.572542 
L 375.703863 -362.54945 
L 377.648678 -362.570001 
L 379.593494 -362.594294 
L 381.53831 -362.572281 
L 383.483125 -362.468969 
L 385.427941 -362.51313 
L 387.372756 -362.559599 
L 389.317572 -362.530082 
L 391.262387 -362.520997 
L 393.207203 -362.643186 
L 395.152019 -362.561684 
L 397.096834 -362.422177 
L 399.04165 -362.832657 
L 400.986465 -362.756803 
L 402.931281 -362.560476 
L 404.876096 -362.764638 
L 406.820912 -362.643125 
L 408.765728 -362.852253 
L 410.710543 -362.747798 
L 412.655359 -362.628569 
L 414.600174 -362.709849 
L 416.54499 -362.727723 
L 418.489805 -362.744965 
L 420.434621 -362.724798 
L 422.379437 -362.769228 
L 424.324252 -362.629361 
L 426.269068 -362.872881 
L 428.213883 -363.098767 
L 430.158699 -363.339646 
L 432.103514 -363.175129 
L 434.04833 -362.817004 
L 435.993146 -363.560296 
L 437.937961 -363.02639 
L 439.882777 -362.545249 
L 441.827592 -362.089189 
L 443.772408 -362.794535 
L 445.717223 -362.526945 
L 447.662039 -362.179592 
L 449.606854 -362.463177 
L 451.55167 -362.5678 
L 453.496486 -362.70022 
L 455.441301 -362.656563 
L 457.386117 -362.497964 
L 459.330932 -362.569461 
L 461.275748 -362.728519 
L 463.220563 -362.662242 
L 465.165379 -362.627808 
L 467.110195 -362.63832 
L 469.05501 -362.66054 
L 470.999826 -362.646339 
L 472.944641 -362.700165 
L 474.889457 -362.636637 
L 476.834272 -362.646948 
L 478.779088 -362.659167 
L 480.723904 -362.67283 
L 482.668719 -362.598045 
L 484.613535 -362.717646 
L 486.55835 -362.652214 
L 488.503166 -362.595631 
L 490.447981 -362.651447 
L 492.392797 -362.613975 
L 494.337613 -362.600769 
L 496.282428 -362.639978 
L 498.227244 -362.542014 
L 500.172059 -362.621294 
L 502.116875 -362.657416 
L 504.06169 -362.596043 
L 506.006506 -362.666775 
L 507.951322 -362.669339 
L 509.896137 -362.662002 
L 511.840953 -362.606242 
L 513.785768 -362.751857 
L 515.730584 -362.742154 
L 517.675399 -362.679464 
L 519.620215 -362.630262 
L 521.56503 -362.741558 
L 523.509846 -362.798412 
L 525.454662 -362.780887 
L 527.399477 -362.780763 
L 529.344293 -362.724664 
L 531.289108 -362.897878 
L 533.233924 -363.281918 
L 535.178739 -363.316649 
L 537.123555 -362.853356 
L 539.068371 -362.746591 
L 541.013186 -363.886613 
L 542.958002 -362.829891 
L 544.902817 -361.715904 
L 546.847633 -363.129888 
L 548.792448 -362.869247 
L 550.737264 -362.337722 
L 552.68208 -362.482827 
L 554.626895 -362.630687 
L 556.571711 -362.822147 
L 558.516526 -362.676111 
L 560.461342 -362.599185 
L 562.406157 -362.687687 
L 564.350973 -362.670843 
L 566.295789 -362.659815 
L 568.240604 -362.656601 
L 570.18542 -362.65545 
L 572.130235 -362.654957 
L 574.075051 -362.654658 
L 576.019866 -362.654367 
L 577.964682 -362.653971 
L 579.909498 -362.653363 
L 581.854313 -362.652381 
L 583.799129 -362.650755 
L 585.743944 -362.648001 
L 587.68876 -362.643244 
L 589.633575 -362.634975 
L 591.578391 -362.621243 
L 593.523207 -362.601287 
L 595.468022 -362.596968 
L 597.412838 -362.555133 
L 599.357653 -362.76313 
L 601.302469 -362.472753 
L 603.247284 -362.570969 
L 605.1921 -362.633212 
L 607.136915 -362.590065 
L 609.081731 -362.549989 
L 611.026547 -362.541328 
L 612.971362 -362.536737 
L 614.916178 -362.54089 
L 616.860993 -362.551109 
L 618.805809 -362.598958 
L 620.750624 -362.552446 
L 622.69544 -362.563892 
L 624.640256 -362.508145 
L 626.585071 -362.545521 
L 628.529887 -362.554507 
L 630.474702 -362.535431 
L 632.419518 -362.585282 
L 634.364333 -362.626874 
L 636.309149 -362.741279 
L 638.253965 -362.909763 
L 640.19878 -362.923575 
L 642.143596 -362.689878 
L 644.088411 -362.825748 
L 646.033227 -363.074792 
L 647.978042 -362.686344 
L 649.922858 -362.357129 
L 651.867674 -362.855583 
L 653.812489 -362.750889 
L 655.757305 -362.58898 
L 657.70212 -362.59998 
L 659.646936 -362.686353 
L 661.591751 -362.756687 
L 663.536567 -362.693801 
L 665.481383 -362.637655 
L 667.426198 -362.652104 
L 669.371014 -362.70761 
L 671.315829 -362.684057 
L 673.260645 -362.677591 
L 675.20546 -362.642033 
L 677.150276 -362.653152 
L 679.095091 -362.650618 
L 681.039907 -362.697553 
L 682.984723 -362.628105 
L 684.929538 -362.665666 
L 686.874354 -362.697579 
L 688.819169 -362.676087 
L 690.763985 -362.676667 
L 692.7088 -362.694148 
L 694.653616 -362.670918 
L 696.598432 -362.680479 
L 698.543247 -362.675132 
L 700.488063 -362.679448 
L 702.432878 -362.668089 
L 704.377694 -362.660368 
L 706.322509 -362.6751 
L 708.267325 -362.665934 
L 710.212141 -362.636208 
L 712.156956 -362.693112 
L 714.101772 -362.634772 
L 716.046587 -362.668147 
L 717.991403 -362.656577 
L 719.936218 -362.658573 
L 721.881034 -362.633855 
L 723.82585 -362.696099 
L 725.770665 -362.648065 
L 727.715481 -362.627588 
L 729.660296 -362.683901 
L 731.605112 -362.662236 
L 733.549927 -362.657185 
L 735.494743 -362.658399 
L 737.439559 -362.664898 
L 739.384374 -362.688055 
L 741.32919 -362.744567 
L 743.274005 -362.760823 
L 745.218821 -362.719891 
L 747.163636 -362.772446 
L 747.163636 -373.927462 
L 747.163636 -373.927462 
L 745.218821 -373.832922 
L 743.274005 -373.857223 
L 741.32919 -373.837008 
L 739.384374 -373.776934 
L 737.439559 -373.752591 
L 735.494743 -373.745781 
L 733.549927 -373.743906 
L 731.605112 -373.748846 
L 729.660296 -373.770136 
L 727.715481 -373.714063 
L 725.770665 -373.734196 
L 723.82585 -373.782362 
L 721.881034 -373.720164 
L 719.936218 -373.744651 
L 717.991403 -373.742426 
L 716.046587 -373.753955 
L 714.101772 -373.720637 
L 712.156956 -373.779006 
L 710.212141 -373.721939 
L 708.267325 -373.751452 
L 706.322509 -373.760486 
L 704.377694 -373.745728 
L 702.432878 -373.753345 
L 700.488063 -373.764552 
L 698.543247 -373.760164 
L 696.598432 -373.765493 
L 694.653616 -373.7559 
L 692.7088 -373.779116 
L 690.763985 -373.761589 
L 688.819169 -373.761087 
L 686.874354 -373.783054 
L 684.929538 -373.752326 
L 682.984723 -373.716845 
L 681.039907 -373.787623 
L 679.095091 -373.741084 
L 677.150276 -373.74386 
L 675.20546 -373.732686 
L 673.260645 -373.767938 
L 671.315829 -373.774174 
L 669.371014 -373.797879 
L 667.426198 -373.742454 
L 665.481383 -373.728102 
L 663.536567 -373.78369 
L 661.591751 -373.846371 
L 659.646936 -373.772833 
L 657.70212 -373.683284 
L 655.757305 -373.668317 
L 653.812489 -373.828684 
L 651.867674 -373.938315 
L 649.922858 -373.480985 
L 647.978042 -373.849484 
L 646.033227 -374.217805 
L 644.088411 -373.996618 
L 642.143596 -373.800345 
L 640.19878 -374.006786 
L 638.253965 -373.994536 
L 636.309149 -373.816668 
L 634.364333 -373.707801 
L 632.419518 -373.665817 
L 630.474702 -373.661031 
L 628.529887 -373.722434 
L 626.585071 -373.714393 
L 624.640256 -373.636561 
L 622.69544 -373.648791 
L 620.750624 -373.641633 
L 618.805809 -373.680585 
L 616.860993 -373.660869 
L 614.916178 -373.709547 
L 612.971362 -373.663398 
L 611.026547 -373.709871 
L 609.081731 -373.658891 
L 607.136915 -373.670623 
L 605.1921 -373.715877 
L 603.247284 -373.652636 
L 601.302469 -373.558599 
L 599.357653 -373.85068 
L 597.412838 -373.642478 
L 595.468022 -373.694626 
L 593.523207 -373.7363 
L 591.578391 -373.788092 
L 589.633575 -373.813471 
L 587.68876 -373.824685 
L 585.743944 -373.830331 
L 583.799129 -373.833383 
L 581.854313 -373.835117 
L 579.909498 -373.836136 
L 577.964682 -373.836752 
L 576.019866 -373.837132 
L 574.075051 -373.837375 
L 572.130235 -373.837546 
L 570.18542 -373.837696 
L 568.240604 -373.837863 
L 566.295789 -373.837916 
L 564.350973 -373.836822 
L 562.406157 -373.821226 
L 560.461342 -373.694999 
L 558.516526 -373.759581 
L 556.571711 -373.904526 
L 554.626895 -373.709345 
L 552.68208 -373.568806 
L 550.737264 -373.432787 
L 548.792448 -373.950592 
L 546.847633 -374.264264 
L 544.902817 -372.988218 
L 542.958002 -374.004212 
L 541.013186 -375.239439 
L 539.068371 -373.913834 
L 537.123555 -373.976093 
L 535.178739 -374.468978 
L 533.233924 -374.427585 
L 531.289108 -373.99864 
L 529.344293 -373.809485 
L 527.399477 -373.858827 
L 525.454662 -373.857343 
L 523.509846 -373.873998 
L 521.56503 -373.81578 
L 519.620215 -373.705359 
L 517.675399 -373.753478 
L 515.730584 -373.816112 
L 513.785768 -373.82633 
L 511.840953 -373.681621 
L 509.896137 -373.736749 
L 507.951322 -373.743986 
L 506.006506 -373.741987 
L 504.06169 -373.672207 
L 502.116875 -373.733746 
L 500.172059 -373.6987 
L 498.227244 -373.622281 
L 496.282428 -373.720935 
L 494.337613 -373.682274 
L 492.392797 -373.695602 
L 490.447981 -373.732957 
L 488.503166 -373.677094 
L 486.55835 -373.732558 
L 484.613535 -373.798541 
L 482.668719 -373.679106 
L 480.723904 -373.75322 
L 478.779088 -373.739228 
L 476.834272 -373.727053 
L 474.889457 -373.716057 
L 472.944641 -373.778239 
L 470.999826 -373.72261 
L 469.05501 -373.736057 
L 467.110195 -373.713774 
L 465.165379 -373.703655 
L 463.220563 -373.738706 
L 461.275748 -373.808361 
L 459.330932 -373.651888 
L 457.386117 -373.583959 
L 455.441301 -373.739556 
L 453.496486 -373.784335 
L 451.55167 -373.654108 
L 449.606854 -373.562105 
L 447.662039 -373.295454 
L 445.717223 -373.619761 
L 443.772408 -373.898408 
L 441.827592 -373.262537 
L 439.882777 -373.713689 
L 437.937961 -374.226305 
L 435.993146 -374.816182 
L 434.04833 -373.986411 
L 432.103514 -374.324091 
L 430.158699 -374.502379 
L 428.213883 -374.222977 
L 426.269068 -373.96224 
L 424.324252 -373.713169 
L 422.379437 -373.845542 
L 420.434621 -373.799688 
L 418.489805 -373.819373 
L 416.54499 -373.801699 
L 414.600174 -373.783821 
L 412.655359 -373.703741 
L 410.710543 -373.821803 
L 408.765728 -373.929568 
L 406.820912 -373.719384 
L 404.876096 -373.840786 
L 402.931281 -373.638482 
L 400.986465 -373.831644 
L 399.04165 -373.913587 
L 397.096834 -373.508442 
L 395.152019 -373.642677 
L 393.207203 -373.724045 
L 391.262387 -373.605134 
L 389.317572 -373.613691 
L 387.372756 -373.667249 
L 385.427941 -373.682725 
L 383.483125 -373.579337 
L 381.53831 -373.655864 
L 379.593494 -373.679527 
L 377.648678 -373.654231 
L 375.703863 -373.638892 
L 373.759047 -373.670913 
L 371.814232 -373.706546 
L 369.869416 -373.771127 
L 367.924601 -373.802725 
L 365.979785 -373.815823 
L 364.03497 -373.820596 
L 362.090154 -373.819992 
L 360.145338 -373.814001 
L 358.200523 -373.799941 
L 356.255707 -373.770402 
L 354.310892 -373.704433 
L 352.366076 -373.577799 
L 350.421261 -373.61927 
L 348.476445 -373.831673 
L 346.531629 -373.738641 
L 344.586814 -373.070812 
L 342.641998 -373.044342 
L 340.697183 -373.946902 
L 338.752367 -374.439683 
L 336.807552 -372.259504 
L 334.862736 -374.018822 
L 332.91792 -376.468373 
L 330.973105 -373.768618 
L 329.028289 -374.163937 
L 327.083474 -374.729181 
L 325.138658 -374.496501 
L 323.193843 -373.978206 
L 321.249027 -373.710833 
L 319.304211 -373.62454 
L 317.359396 -373.815109 
L 315.41458 -373.749519 
L 313.469765 -373.655421 
L 311.524949 -373.809977 
L 309.580134 -373.425638 
L 307.635318 -373.819343 
L 305.690502 -373.786974 
L 303.745687 -373.718593 
L 301.800871 -373.682616 
L 299.856056 -373.810367 
L 297.91124 -373.699344 
L 295.966425 -373.972371 
L 294.021609 -373.740766 
L 292.076793 -373.861825 
L 290.131978 -373.654017 
L 288.187162 -373.821563 
L 286.242347 -373.989991 
L 284.297531 -373.642521 
L 282.352716 -373.83834 
L 280.4079 -373.704543 
L 278.463085 -373.714002 
L 276.518269 -373.837756 
L 274.573453 -373.648289 
L 272.628638 -373.673204 
L 270.683822 -373.599332 
L 268.739007 -373.68016 
L 266.794191 -373.635488 
L 264.849376 -373.794676 
L 262.90456 -373.680298 
L 260.959744 -373.629477 
L 259.014929 -373.577996 
L 257.070113 -374.096599 
L 255.125298 -373.489349 
L 253.180482 -373.564159 
L 251.235667 -373.803119 
L 249.290851 -373.342999 
L 247.346035 -373.823724 
L 245.40122 -373.564481 
L 243.456404 -373.368763 
L 241.511589 -373.084106 
L 239.566773 -373.157331 
L 237.621958 -373.565169 
L 235.677142 -372.844145 
L 233.732326 -373.339099 
L 231.787511 -373.697731 
L 229.842695 -374.017663 
L 227.89788 -374.350568 
L 225.953064 -373.580946 
L 224.008249 -374.055165 
L 222.063433 -374.408775 
L 220.118617 -374.000446 
L 218.173802 -374.074816 
L 216.228986 -373.981075 
L 214.284171 -374.155988 
L 212.339355 -374.066637 
L 210.39454 -374.028003 
L 208.449724 -374.385629 
L 206.504909 -373.687659 
L 204.560093 -374.095909 
L 202.615277 -374.062547 
L 200.670462 -374.23505 
L 198.725646 -373.801705 
L 196.780831 -373.884396 
L 194.836015 -374.153925 
L 192.8912 -374.062871 
L 190.946384 -373.81829 
L 189.001568 -374.085769 
L 187.056753 -373.909193 
L 185.111937 -374.003228 
L 183.167122 -374.060226 
L 181.222306 -373.948933 
L 179.277491 -373.954704 
L 177.332675 -373.974975 
L 175.387859 -374.181253 
L 173.443044 -373.692758 
L 171.498228 -374.098008 
L 169.553413 -374.071471 
L 167.608597 -373.755043 
L 165.663782 -373.817849 
L 163.718966 -374.064755 
L 161.77415 -373.926645 
L 159.829335 -373.878472 
L 157.884519 -374.125949 
L 155.939704 -374.357653 
L 153.994888 -374.992012 
L 152.050073 -375.880275 
L 150.105257 -377.250457 
L 148.160441 -379.241215 
L 146.215626 -381.445549 
L 144.27081 -383.694545 
L 142.325995 -381.354443 
L 140.381179 -368.571557 
L 138.436364 -324.3343 
z
" style="stroke: #ffffff; stroke-opacity: 0.4"/>
    </defs>
    <g clip-path="url(#pae8bfe3506)">
     <use xlink:href="#mfa7efed2d1" x="0" y="864" style="fill: #4c72b0; fill-opacity: 0.4; stroke: #ffffff; stroke-opacity: 0.4"/>
    </g>
   </g>
   <g id="line2d_28">
    <path d="M 138.436364 647.440123 
L 140.381179 580.871905 
L 142.325995 537.328577 
L 144.27081 516.981588 
L 146.215626 507.574283 
L 148.160441 502.456782 
L 150.105257 499.693696 
L 152.050073 498.056187 
L 153.994888 497.076026 
L 157.884519 496.209325 
L 159.829335 496.095206 
L 163.718966 495.625816 
L 165.663782 495.799665 
L 167.608597 495.828577 
L 169.553413 495.503427 
L 171.498228 495.467049 
L 173.443044 495.868757 
L 175.387859 495.378734 
L 177.332675 495.577456 
L 181.222306 495.599975 
L 183.167122 495.49071 
L 187.056753 495.640338 
L 189.001568 495.464674 
L 190.946384 495.732378 
L 192.8912 495.488012 
L 194.836015 495.399951 
L 196.780831 495.664418 
L 198.725646 495.749791 
L 200.670462 495.322873 
L 202.615277 495.493732 
L 204.560093 495.457063 
L 206.504909 495.879312 
L 208.449724 495.183634 
L 210.39454 495.530898 
L 214.284171 495.401349 
L 216.228986 495.575489 
L 218.173802 495.479659 
L 220.118617 495.559079 
L 222.063433 495.161379 
L 224.008249 495.499944 
L 225.953064 495.995314 
L 227.89788 495.248538 
L 233.732326 496.28633 
L 235.677142 496.818472 
L 237.621958 496.057566 
L 239.566773 496.449674 
L 241.511589 496.52046 
L 245.40122 495.990714 
L 247.346035 495.732142 
L 249.290851 496.213045 
L 251.235667 495.746327 
L 253.180482 495.978824 
L 255.125298 496.05565 
L 257.070113 495.457875 
L 259.014929 495.963947 
L 264.849376 495.74698 
L 266.794191 495.906378 
L 268.739007 495.862444 
L 270.683822 495.94372 
L 276.518269 495.70166 
L 278.463085 495.823575 
L 280.4079 495.832899 
L 282.352716 495.69984 
L 284.297531 495.897686 
L 286.242347 495.55081 
L 290.131978 495.884859 
L 292.076793 495.676235 
L 294.021609 495.797636 
L 295.966425 495.56807 
L 297.91124 495.839156 
L 299.856056 495.727245 
L 301.800871 495.855051 
L 307.635318 495.720647 
L 309.580134 496.122464 
L 311.524949 495.731736 
L 313.469765 495.882922 
L 317.359396 495.722686 
L 319.304211 495.915538 
L 321.249027 495.829684 
L 323.193843 495.57122 
L 325.138658 495.086881 
L 327.083474 494.87569 
L 330.973105 495.912157 
L 332.91792 493.470539 
L 336.807552 497.592146 
L 338.752367 495.189121 
L 340.697183 495.603236 
L 342.641998 496.539214 
L 344.586814 496.514618 
L 346.531629 495.815041 
L 348.476445 495.716281 
L 350.421261 495.931559 
L 352.366076 495.994335 
L 356.255707 495.82005 
L 365.979785 495.775098 
L 391.262387 495.936935 
L 393.207203 495.816384 
L 397.096834 496.034691 
L 399.04165 495.626878 
L 400.986465 495.705776 
L 402.931281 495.900521 
L 404.876096 495.697288 
L 406.820912 495.818745 
L 408.765728 495.609089 
L 412.655359 495.833845 
L 416.54499 495.735289 
L 422.379437 495.692615 
L 424.324252 495.828735 
L 430.158699 495.078987 
L 432.103514 495.25039 
L 434.04833 495.598292 
L 435.993146 494.811761 
L 439.882777 495.870531 
L 441.827592 496.324137 
L 443.772408 495.653528 
L 447.662039 496.262477 
L 449.606854 495.987359 
L 455.441301 495.801941 
L 457.386117 495.959038 
L 463.220563 495.799527 
L 469.05501 495.801702 
L 482.668719 495.861425 
L 484.613535 495.741906 
L 488.503166 495.863637 
L 492.392797 495.845211 
L 504.06169 495.865875 
L 507.951322 495.793337 
L 519.620215 495.832189 
L 523.509846 495.663795 
L 529.344293 495.732925 
L 531.289108 495.551741 
L 533.233924 495.145249 
L 535.178739 495.107187 
L 537.123555 495.585276 
L 539.068371 495.669788 
L 541.013186 494.436974 
L 544.902817 496.647939 
L 546.847633 495.302924 
L 548.792448 495.590081 
L 550.737264 496.114745 
L 556.571711 495.636664 
L 560.461342 495.852908 
L 564.350973 495.746168 
L 597.412838 495.901195 
L 599.357653 495.693095 
L 601.302469 495.984324 
L 605.1921 495.825455 
L 612.971362 495.899932 
L 620.750624 495.90296 
L 636.309149 495.721026 
L 638.253965 495.54785 
L 640.19878 495.53482 
L 642.143596 495.754888 
L 646.033227 495.353702 
L 649.922858 496.080943 
L 651.867674 495.603051 
L 657.70212 495.858368 
L 661.591751 495.698471 
L 667.426198 495.802721 
L 671.315829 495.770885 
L 710.212141 495.820927 
L 712.156956 495.763941 
L 716.046587 495.788949 
L 735.494743 495.79791 
L 747.163636 495.650046 
L 747.163636 495.650046 
" clip-path="url(#pae8bfe3506)" style="fill: none; stroke: #4c72b0; stroke-width: 1.5; stroke-linecap: round"/>
   </g>
   <g id="patch_8">
    <path d="M 108 768.96 
L 108 466.56 
" style="fill: none; stroke: #262626; stroke-width: 1.25; stroke-linejoin: miter; stroke-linecap: square"/>
   </g>
   <g id="patch_9">
    <path d="M 777.6 768.96 
L 777.6 466.56 
" style="fill: none; stroke: #262626; stroke-width: 1.25; stroke-linejoin: miter; stroke-linecap: square"/>
   </g>
   <g id="patch_10">
    <path d="M 108 768.96 
L 777.6 768.96 
" style="fill: none; stroke: #262626; stroke-width: 1.25; stroke-linejoin: miter; stroke-linecap: square"/>
   </g>
   <g id="patch_11">
    <path d="M 108 466.56 
L 777.6 466.56 
" style="fill: none; stroke: #262626; stroke-width: 1.25; stroke-linejoin: miter; stroke-linecap: square"/>
   </g>
   <g id="text_28">
    <!-- sts_residuals/ -->
    <g style="fill: #262626" transform="translate(406.119375 460.56) scale(0.12 -0.12)">
     <defs>
      <path id="ArialMT-69" d="M 425 3934 
L 425 4581 
L 988 4581 
L 988 3934 
L 425 3934 
z
M 425 0 
L 425 3319 
L 988 3319 
L 988 0 
L 425 0 
z
" transform="scale(0.015625)"/>
      <path id="ArialMT-75" d="M 2597 0 
L 2597 488 
Q 2209 -75 1544 -75 
Q 1250 -75 995 37 
Q 741 150 617 320 
Q 494 491 444 738 
Q 409 903 409 1263 
L 409 3319 
L 972 3319 
L 972 1478 
Q 972 1038 1006 884 
Q 1059 663 1231 536 
Q 1403 409 1656 409 
Q 1909 409 2131 539 
Q 2353 669 2445 892 
Q 2538 1116 2538 1541 
L 2538 3319 
L 3100 3319 
L 3100 0 
L 2597 0 
z
" transform="scale(0.015625)"/>
     </defs>
     <use xlink:href="#ArialMT-73"/>
     <use xlink:href="#ArialMT-74" x="50"/>
     <use xlink:href="#ArialMT-73" x="77.783203"/>
     <use xlink:href="#ArialMT-5f" x="127.783203"/>
     <use xlink:href="#ArialMT-72" x="183.398438"/>
     <use xlink:href="#ArialMT-65" x="216.699219"/>
     <use xlink:href="#ArialMT-73" x="272.314453"/>
     <use xlink:href="#ArialMT-69" x="322.314453"/>
     <use xlink:href="#ArialMT-64" x="344.53125"/>
     <use xlink:href="#ArialMT-75" x="400.146484"/>
     <use xlink:href="#ArialMT-61" x="455.761719"/>
     <use xlink:href="#ArialMT-6c" x="511.376953"/>
     <use xlink:href="#ArialMT-73" x="533.59375"/>
     <use xlink:href="#ArialMT-2f" x="583.59375"/>
    </g>
   </g>
  </g>
 </g>
 <defs>
  <clipPath id="p804584f745">
   <rect x="108" y="103.68" width="669.6" height="302.4"/>
  </clipPath>
  <clipPath id="pae8bfe3506">
   <rect x="108" y="466.56" width="669.6" height="302.4"/>
  </clipPath>
 </defs>
</svg>
