<?xml version="1.0" encoding="utf-8" standalone="no"?>
<!DOCTYPE svg PUBLIC "-//W3C//DTD SVG 1.1//EN"
  "http://www.w3.org/Graphics/SVG/1.1/DTD/svg11.dtd">
<svg xmlns:xlink="http://www.w3.org/1999/xlink" width="864pt" height="864pt" viewBox="0 0 864 864" xmlns="http://www.w3.org/2000/svg" version="1.1">
 <metadata>
  <rdf:RDF xmlns:dc="http://purl.org/dc/elements/1.1/" xmlns:cc="http://creativecommons.org/ns#" xmlns:rdf="http://www.w3.org/1999/02/22-rdf-syntax-ns#">
   <cc:Work>
    <dc:type rdf:resource="http://purl.org/dc/dcmitype/StillImage"/>
    <dc:date>2023-07-11T01:53:21.321265</dc:date>
    <dc:format>image/svg+xml</dc:format>
    <dc:creator>
     <cc:Agent>
      <dc:title>Matplotlib v3.7.1, https://matplotlib.org/</dc:title>
     </cc:Agent>
    </dc:creator>
   </cc:Work>
  </rdf:RDF>
 </metadata>
 <defs>
  <style type="text/css">*{stroke-linejoin: round; stroke-linecap: butt}</style>
 </defs>
 <g id="figure_1">
  <g id="patch_1">
   <path d="M 0 864 
L 864 864 
L 864 0 
L 0 0 
z
" style="fill: #ffffff"/>
  </g>
  <g id="axes_1">
   <g id="patch_2">
    <path d="M 108 406.08 
L 777.6 406.08 
L 777.6 103.68 
L 108 103.68 
z
" style="fill: #ffffff"/>
   </g>
   <g id="matplotlib.axis_1">
    <g id="xtick_1">
     <g id="line2d_1">
      <defs>
       <path id="mbea942b458" d="M 0 0 
L 0 6 
" style="stroke: #262626; stroke-width: 1.25"/>
      </defs>
      <g>
       <use xlink:href="#mbea942b458" x="137.878921" y="406.08" style="fill: #262626; stroke: #262626; stroke-width: 1.25"/>
      </g>
     </g>
     <g id="text_1">
      <!-- 2016 -->
      <g style="fill: #262626" transform="translate(125.644859 423.453594) scale(0.11 -0.11)">
       <defs>
        <path id="ArialMT-32" d="M 3222 541 
L 3222 0 
L 194 0 
Q 188 203 259 391 
Q 375 700 629 1000 
Q 884 1300 1366 1694 
Q 2113 2306 2375 2664 
Q 2638 3022 2638 3341 
Q 2638 3675 2398 3904 
Q 2159 4134 1775 4134 
Q 1369 4134 1125 3890 
Q 881 3647 878 3216 
L 300 3275 
Q 359 3922 746 4261 
Q 1134 4600 1788 4600 
Q 2447 4600 2831 4234 
Q 3216 3869 3216 3328 
Q 3216 3053 3103 2787 
Q 2991 2522 2730 2228 
Q 2469 1934 1863 1422 
Q 1356 997 1212 845 
Q 1069 694 975 541 
L 3222 541 
z
" transform="scale(0.015625)"/>
        <path id="ArialMT-30" d="M 266 2259 
Q 266 3072 433 3567 
Q 600 4063 929 4331 
Q 1259 4600 1759 4600 
Q 2128 4600 2406 4451 
Q 2684 4303 2865 4023 
Q 3047 3744 3150 3342 
Q 3253 2941 3253 2259 
Q 3253 1453 3087 958 
Q 2922 463 2592 192 
Q 2263 -78 1759 -78 
Q 1097 -78 719 397 
Q 266 969 266 2259 
z
M 844 2259 
Q 844 1131 1108 757 
Q 1372 384 1759 384 
Q 2147 384 2411 759 
Q 2675 1134 2675 2259 
Q 2675 3391 2411 3762 
Q 2147 4134 1753 4134 
Q 1366 4134 1134 3806 
Q 844 3388 844 2259 
z
" transform="scale(0.015625)"/>
        <path id="ArialMT-31" d="M 2384 0 
L 1822 0 
L 1822 3584 
Q 1619 3391 1289 3197 
Q 959 3003 697 2906 
L 697 3450 
Q 1169 3672 1522 3987 
Q 1875 4303 2022 4600 
L 2384 4600 
L 2384 0 
z
" transform="scale(0.015625)"/>
        <path id="ArialMT-36" d="M 3184 3459 
L 2625 3416 
Q 2550 3747 2413 3897 
Q 2184 4138 1850 4138 
Q 1581 4138 1378 3988 
Q 1113 3794 959 3422 
Q 806 3050 800 2363 
Q 1003 2672 1297 2822 
Q 1591 2972 1913 2972 
Q 2475 2972 2870 2558 
Q 3266 2144 3266 1488 
Q 3266 1056 3080 686 
Q 2894 316 2569 119 
Q 2244 -78 1831 -78 
Q 1128 -78 684 439 
Q 241 956 241 2144 
Q 241 3472 731 4075 
Q 1159 4600 1884 4600 
Q 2425 4600 2770 4297 
Q 3116 3994 3184 3459 
z
M 888 1484 
Q 888 1194 1011 928 
Q 1134 663 1356 523 
Q 1578 384 1822 384 
Q 2178 384 2434 671 
Q 2691 959 2691 1453 
Q 2691 1928 2437 2201 
Q 2184 2475 1800 2475 
Q 1419 2475 1153 2201 
Q 888 1928 888 1484 
z
" transform="scale(0.015625)"/>
       </defs>
       <use xlink:href="#ArialMT-32"/>
       <use xlink:href="#ArialMT-30" x="55.615234"/>
       <use xlink:href="#ArialMT-31" x="111.230469"/>
       <use xlink:href="#ArialMT-36" x="166.845703"/>
      </g>
     </g>
    </g>
    <g id="xtick_2">
     <g id="line2d_2">
      <g>
       <use xlink:href="#mbea942b458" x="239.890909" y="406.08" style="fill: #262626; stroke: #262626; stroke-width: 1.25"/>
      </g>
     </g>
     <g id="text_2">
      <!-- 2017 -->
      <g style="fill: #262626" transform="translate(227.656847 423.453594) scale(0.11 -0.11)">
       <defs>
        <path id="ArialMT-37" d="M 303 3981 
L 303 4522 
L 3269 4522 
L 3269 4084 
Q 2831 3619 2401 2847 
Q 1972 2075 1738 1259 
Q 1569 684 1522 0 
L 944 0 
Q 953 541 1156 1306 
Q 1359 2072 1739 2783 
Q 2119 3494 2547 3981 
L 303 3981 
z
" transform="scale(0.015625)"/>
       </defs>
       <use xlink:href="#ArialMT-32"/>
       <use xlink:href="#ArialMT-30" x="55.615234"/>
       <use xlink:href="#ArialMT-31" x="111.230469"/>
       <use xlink:href="#ArialMT-37" x="166.845703"/>
      </g>
     </g>
    </g>
    <g id="xtick_3">
     <g id="line2d_3">
      <g>
       <use xlink:href="#mbea942b458" x="341.624176" y="406.08" style="fill: #262626; stroke: #262626; stroke-width: 1.25"/>
      </g>
     </g>
     <g id="text_3">
      <!-- 2018 -->
      <g style="fill: #262626" transform="translate(329.390113 423.453594) scale(0.11 -0.11)">
       <defs>
        <path id="ArialMT-38" d="M 1131 2484 
Q 781 2613 612 2850 
Q 444 3088 444 3419 
Q 444 3919 803 4259 
Q 1163 4600 1759 4600 
Q 2359 4600 2725 4251 
Q 3091 3903 3091 3403 
Q 3091 3084 2923 2848 
Q 2756 2613 2416 2484 
Q 2838 2347 3058 2040 
Q 3278 1734 3278 1309 
Q 3278 722 2862 322 
Q 2447 -78 1769 -78 
Q 1091 -78 675 323 
Q 259 725 259 1325 
Q 259 1772 486 2073 
Q 713 2375 1131 2484 
z
M 1019 3438 
Q 1019 3113 1228 2906 
Q 1438 2700 1772 2700 
Q 2097 2700 2305 2904 
Q 2513 3109 2513 3406 
Q 2513 3716 2298 3927 
Q 2084 4138 1766 4138 
Q 1444 4138 1231 3931 
Q 1019 3725 1019 3438 
z
M 838 1322 
Q 838 1081 952 856 
Q 1066 631 1291 507 
Q 1516 384 1775 384 
Q 2178 384 2440 643 
Q 2703 903 2703 1303 
Q 2703 1709 2433 1975 
Q 2163 2241 1756 2241 
Q 1359 2241 1098 1978 
Q 838 1716 838 1322 
z
" transform="scale(0.015625)"/>
       </defs>
       <use xlink:href="#ArialMT-32"/>
       <use xlink:href="#ArialMT-30" x="55.615234"/>
       <use xlink:href="#ArialMT-31" x="111.230469"/>
       <use xlink:href="#ArialMT-38" x="166.845703"/>
      </g>
     </g>
    </g>
    <g id="xtick_4">
     <g id="line2d_4">
      <g>
       <use xlink:href="#mbea942b458" x="443.357443" y="406.08" style="fill: #262626; stroke: #262626; stroke-width: 1.25"/>
      </g>
     </g>
     <g id="text_4">
      <!-- 2019 -->
      <g style="fill: #262626" transform="translate(431.12338 423.453594) scale(0.11 -0.11)">
       <defs>
        <path id="ArialMT-39" d="M 350 1059 
L 891 1109 
Q 959 728 1153 556 
Q 1347 384 1650 384 
Q 1909 384 2104 503 
Q 2300 622 2425 820 
Q 2550 1019 2634 1356 
Q 2719 1694 2719 2044 
Q 2719 2081 2716 2156 
Q 2547 1888 2255 1720 
Q 1963 1553 1622 1553 
Q 1053 1553 659 1965 
Q 266 2378 266 3053 
Q 266 3750 677 4175 
Q 1088 4600 1706 4600 
Q 2153 4600 2523 4359 
Q 2894 4119 3086 3673 
Q 3278 3228 3278 2384 
Q 3278 1506 3087 986 
Q 2897 466 2520 194 
Q 2144 -78 1638 -78 
Q 1100 -78 759 220 
Q 419 519 350 1059 
z
M 2653 3081 
Q 2653 3566 2395 3850 
Q 2138 4134 1775 4134 
Q 1400 4134 1122 3828 
Q 844 3522 844 3034 
Q 844 2597 1108 2323 
Q 1372 2050 1759 2050 
Q 2150 2050 2401 2323 
Q 2653 2597 2653 3081 
z
" transform="scale(0.015625)"/>
       </defs>
       <use xlink:href="#ArialMT-32"/>
       <use xlink:href="#ArialMT-30" x="55.615234"/>
       <use xlink:href="#ArialMT-31" x="111.230469"/>
       <use xlink:href="#ArialMT-39" x="166.845703"/>
      </g>
     </g>
    </g>
    <g id="xtick_5">
     <g id="line2d_5">
      <g>
       <use xlink:href="#mbea942b458" x="545.090709" y="406.08" style="fill: #262626; stroke: #262626; stroke-width: 1.25"/>
      </g>
     </g>
     <g id="text_5">
      <!-- 2020 -->
      <g style="fill: #262626" transform="translate(532.856647 423.453594) scale(0.11 -0.11)">
       <use xlink:href="#ArialMT-32"/>
       <use xlink:href="#ArialMT-30" x="55.615234"/>
       <use xlink:href="#ArialMT-32" x="111.230469"/>
       <use xlink:href="#ArialMT-30" x="166.845703"/>
      </g>
     </g>
    </g>
    <g id="xtick_6">
     <g id="line2d_6">
      <g>
       <use xlink:href="#mbea942b458" x="647.102697" y="406.08" style="fill: #262626; stroke: #262626; stroke-width: 1.25"/>
      </g>
     </g>
     <g id="text_6">
      <!-- 2021 -->
      <g style="fill: #262626" transform="translate(634.868635 423.453594) scale(0.11 -0.11)">
       <use xlink:href="#ArialMT-32"/>
       <use xlink:href="#ArialMT-30" x="55.615234"/>
       <use xlink:href="#ArialMT-32" x="111.230469"/>
       <use xlink:href="#ArialMT-31" x="166.845703"/>
      </g>
     </g>
    </g>
    <g id="xtick_7">
     <g id="line2d_7">
      <g>
       <use xlink:href="#mbea942b458" x="748.835964" y="406.08" style="fill: #262626; stroke: #262626; stroke-width: 1.25"/>
      </g>
     </g>
     <g id="text_7">
      <!-- 2022 -->
      <g style="fill: #262626" transform="translate(736.601902 423.453594) scale(0.11 -0.11)">
       <use xlink:href="#ArialMT-32"/>
       <use xlink:href="#ArialMT-30" x="55.615234"/>
       <use xlink:href="#ArialMT-32" x="111.230469"/>
       <use xlink:href="#ArialMT-32" x="166.845703"/>
      </g>
     </g>
    </g>
   </g>
   <g id="matplotlib.axis_2">
    <g id="ytick_1">
     <g id="line2d_8">
      <defs>
       <path id="mc4257606d2" d="M 0 0 
L -6 0 
" style="stroke: #262626; stroke-width: 1.25"/>
      </defs>
      <g>
       <use xlink:href="#mc4257606d2" x="108" y="401.628914" style="fill: #262626; stroke: #262626; stroke-width: 1.25"/>
      </g>
     </g>
     <g id="text_8">
      <!-- −2 -->
      <g style="fill: #262626" transform="translate(85.958281 405.565711) scale(0.11 -0.11)">
       <defs>
        <path id="ArialMT-2212" d="M 3381 1997 
L 356 1997 
L 356 2522 
L 3381 2522 
L 3381 1997 
z
" transform="scale(0.015625)"/>
       </defs>
       <use xlink:href="#ArialMT-2212"/>
       <use xlink:href="#ArialMT-32" x="58.398438"/>
      </g>
     </g>
    </g>
    <g id="ytick_2">
     <g id="line2d_9">
      <g>
       <use xlink:href="#mc4257606d2" x="108" y="353.61228" style="fill: #262626; stroke: #262626; stroke-width: 1.25"/>
      </g>
     </g>
     <g id="text_9">
      <!-- −1 -->
      <g style="fill: #262626" transform="translate(85.958281 357.549077) scale(0.11 -0.11)">
       <use xlink:href="#ArialMT-2212"/>
       <use xlink:href="#ArialMT-31" x="58.398438"/>
      </g>
     </g>
    </g>
    <g id="ytick_3">
     <g id="line2d_10">
      <g>
       <use xlink:href="#mc4257606d2" x="108" y="305.595646" style="fill: #262626; stroke: #262626; stroke-width: 1.25"/>
      </g>
     </g>
     <g id="text_10">
      <!-- 0 -->
      <g style="fill: #262626" transform="translate(92.382969 309.532443) scale(0.11 -0.11)">
       <use xlink:href="#ArialMT-30"/>
      </g>
     </g>
    </g>
    <g id="ytick_4">
     <g id="line2d_11">
      <g>
       <use xlink:href="#mc4257606d2" x="108" y="257.579011" style="fill: #262626; stroke: #262626; stroke-width: 1.25"/>
      </g>
     </g>
     <g id="text_11">
      <!-- 1 -->
      <g style="fill: #262626" transform="translate(92.382969 261.515808) scale(0.11 -0.11)">
       <use xlink:href="#ArialMT-31"/>
      </g>
     </g>
    </g>
    <g id="ytick_5">
     <g id="line2d_12">
      <g>
       <use xlink:href="#mc4257606d2" x="108" y="209.562377" style="fill: #262626; stroke: #262626; stroke-width: 1.25"/>
      </g>
     </g>
     <g id="text_12">
      <!-- 2 -->
      <g style="fill: #262626" transform="translate(92.382969 213.499174) scale(0.11 -0.11)">
       <use xlink:href="#ArialMT-32"/>
      </g>
     </g>
    </g>
    <g id="ytick_6">
     <g id="line2d_13">
      <g>
       <use xlink:href="#mc4257606d2" x="108" y="161.545742" style="fill: #262626; stroke: #262626; stroke-width: 1.25"/>
      </g>
     </g>
     <g id="text_13">
      <!-- 3 -->
      <g style="fill: #262626" transform="translate(92.382969 165.482539) scale(0.11 -0.11)">
       <defs>
        <path id="ArialMT-33" d="M 269 1209 
L 831 1284 
Q 928 806 1161 595 
Q 1394 384 1728 384 
Q 2125 384 2398 659 
Q 2672 934 2672 1341 
Q 2672 1728 2419 1979 
Q 2166 2231 1775 2231 
Q 1616 2231 1378 2169 
L 1441 2663 
Q 1497 2656 1531 2656 
Q 1891 2656 2178 2843 
Q 2466 3031 2466 3422 
Q 2466 3731 2256 3934 
Q 2047 4138 1716 4138 
Q 1388 4138 1169 3931 
Q 950 3725 888 3313 
L 325 3413 
Q 428 3978 793 4289 
Q 1159 4600 1703 4600 
Q 2078 4600 2393 4439 
Q 2709 4278 2876 4000 
Q 3044 3722 3044 3409 
Q 3044 3113 2884 2869 
Q 2725 2625 2413 2481 
Q 2819 2388 3044 2092 
Q 3269 1797 3269 1353 
Q 3269 753 2831 336 
Q 2394 -81 1725 -81 
Q 1122 -81 723 278 
Q 325 638 269 1209 
z
" transform="scale(0.015625)"/>
       </defs>
       <use xlink:href="#ArialMT-33"/>
      </g>
     </g>
    </g>
    <g id="ytick_7">
     <g id="line2d_14">
      <g>
       <use xlink:href="#mc4257606d2" x="108" y="113.529108" style="fill: #262626; stroke: #262626; stroke-width: 1.25"/>
      </g>
     </g>
     <g id="text_14">
      <!-- 4 -->
      <g style="fill: #262626" transform="translate(92.382969 117.465905) scale(0.11 -0.11)">
       <defs>
        <path id="ArialMT-34" d="M 2069 0 
L 2069 1097 
L 81 1097 
L 81 1613 
L 2172 4581 
L 2631 4581 
L 2631 1613 
L 3250 1613 
L 3250 1097 
L 2631 1097 
L 2631 0 
L 2069 0 
z
M 2069 1613 
L 2069 3678 
L 634 1613 
L 2069 1613 
z
" transform="scale(0.015625)"/>
       </defs>
       <use xlink:href="#ArialMT-34"/>
      </g>
     </g>
    </g>
   </g>
   <g id="PolyCollection_1">
    <defs>
     <path id="ma06343fe82" d="M 138.436364 -624.845951 
L 138.436364 -493.305123 
L 140.387413 -500.828832 
L 142.338462 -512.48072 
L 144.28951 -512.744234 
L 146.240559 -501.151021 
L 148.191608 -492.88807 
L 150.142657 -495.810198 
L 152.093706 -507.025958 
L 154.044755 -513.546846 
L 155.995804 -505.928827 
L 157.946853 -497.427385 
L 159.897902 -500.133282 
L 161.848951 -503.545937 
L 163.8 -501.772003 
L 165.751049 -499.266922 
L 167.702098 -501.311236 
L 169.653147 -505.203049 
L 171.604196 -508.298621 
L 173.555245 -503.328275 
L 175.506294 -493.800715 
L 177.457343 -487.434393 
L 179.408392 -493.722725 
L 181.359441 -507.339869 
L 183.31049 -513.064691 
L 185.261538 -505.23037 
L 187.212587 -500.118125 
L 189.163636 -512.048999 
L 191.114685 -544.911161 
L 193.065734 -584.350845 
L 195.016783 -595.167296 
L 196.967832 -561.736552 
L 198.918881 -525.128883 
L 200.86993 -520.931747 
L 202.820979 -551.146792 
L 204.772028 -579.56853 
L 206.723077 -577.464755 
L 208.674126 -559.055136 
L 210.625175 -539.647064 
L 212.576224 -543.742503 
L 214.527273 -556.787582 
L 216.478322 -558.6511 
L 218.429371 -549.067015 
L 220.38042 -528.340335 
L 222.331469 -522.537867 
L 224.282517 -537.07328 
L 226.233566 -548.794337 
L 228.184615 -540.596275 
L 230.135664 -528.531967 
L 232.086713 -521.020398 
L 234.037762 -527.754375 
L 235.988811 -535.794566 
L 237.93986 -536.4928 
L 239.890909 -522.507581 
L 241.841958 -507.321232 
L 243.793007 -500.334728 
L 245.744056 -501.583511 
L 247.695105 -503.811978 
L 249.646154 -501.757476 
L 251.597203 -496.625701 
L 253.548252 -492.827498 
L 255.499301 -492.220259 
L 257.45035 -493.53611 
L 259.401399 -495.03639 
L 261.352448 -494.722358 
L 263.303497 -494.903649 
L 265.254545 -494.995577 
L 267.205594 -493.974897 
L 269.156643 -492.985447 
L 271.107692 -493.009236 
L 273.058741 -494.142394 
L 275.00979 -494.854314 
L 276.960839 -493.694981 
L 278.911888 -492.529992 
L 280.862937 -492.512745 
L 282.813986 -495.496853 
L 284.765035 -499.52092 
L 286.716084 -503.849351 
L 288.667133 -508.044257 
L 290.618182 -510.996863 
L 292.569231 -511.832594 
L 294.52028 -513.717385 
L 296.471329 -514.297146 
L 298.422378 -517.672783 
L 300.373427 -523.822857 
L 302.324476 -525.651009 
L 304.275524 -526.05382 
L 306.226573 -523.778075 
L 308.177622 -525.424938 
L 310.128671 -528.596837 
L 312.07972 -536.265426 
L 314.030769 -538.554181 
L 315.981818 -535.269083 
L 317.932867 -522.625299 
L 319.883916 -514.759026 
L 321.834965 -516.76691 
L 323.786014 -521.113686 
L 325.737063 -522.280529 
L 327.688112 -515.227232 
L 329.639161 -510.587088 
L 331.59021 -513.544828 
L 333.541259 -519.870613 
L 335.492308 -516.88797 
L 337.443357 -504.941169 
L 339.394406 -494.059893 
L 341.345455 -494.849374 
L 343.296503 -498.789074 
L 345.247552 -498.169735 
L 347.198601 -494.653612 
L 349.14965 -492.524926 
L 351.100699 -494.144878 
L 353.051748 -498.877883 
L 355.002797 -502.849008 
L 356.953846 -499.317769 
L 358.904895 -485.314298 
L 360.855944 -475.1582 
L 362.806993 -475.032574 
L 364.758042 -478.068777 
L 366.709091 -478.223932 
L 368.66014 -476.058647 
L 370.611189 -473.32556 
L 372.562238 -475.37004 
L 374.513287 -486.670607 
L 376.464336 -500.012162 
L 378.415385 -502.123722 
L 380.366434 -499.261353 
L 382.317483 -498.627325 
L 384.268531 -501.644272 
L 386.21958 -507.934676 
L 388.170629 -512.945393 
L 390.121678 -517.820586 
L 392.072727 -527.813908 
L 394.023776 -535.193759 
L 395.974825 -539.417836 
L 397.925874 -544.969927 
L 399.876923 -550.465776 
L 401.827972 -555.193509 
L 403.779021 -559.749401 
L 405.73007 -563.275008 
L 407.681119 -567.555923 
L 409.632168 -571.701935 
L 411.583217 -575.417279 
L 413.534266 -575.97941 
L 415.485315 -576.114351 
L 417.436364 -571.788207 
L 419.387413 -564.019421 
L 421.338462 -556.707709 
L 423.28951 -553.619793 
L 425.240559 -555.990099 
L 427.191608 -561.102853 
L 429.142657 -560.609445 
L 431.093706 -553.775215 
L 433.044755 -547.999927 
L 434.995804 -547.978917 
L 436.946853 -548.416695 
L 438.897902 -540.569668 
L 440.848951 -522.758251 
L 442.8 -506.021643 
L 444.751049 -505.602878 
L 446.702098 -521.210551 
L 448.653147 -539.465772 
L 450.604196 -546.509661 
L 452.555245 -539.598208 
L 454.506294 -529.727376 
L 456.457343 -527.441474 
L 458.408392 -529.749826 
L 460.359441 -533.768443 
L 462.31049 -530.001151 
L 464.261538 -523.624946 
L 466.212587 -521.107295 
L 468.163636 -523.391866 
L 470.114685 -524.499844 
L 472.065734 -518.729702 
L 474.016783 -511.302514 
L 475.967832 -507.785989 
L 477.918881 -509.641043 
L 479.86993 -514.073165 
L 481.820979 -517.667643 
L 483.772028 -521.223556 
L 485.723077 -527.199562 
L 487.674126 -536.250695 
L 489.625175 -547.135264 
L 491.576224 -560.842768 
L 493.527273 -580.795347 
L 495.478322 -609.547831 
L 497.429371 -639.408796 
L 499.38042 -660.192127 
L 501.331469 -664.592073 
L 503.282517 -660.647782 
L 505.233566 -660.144228 
L 507.184615 -665.216897 
L 509.135664 -667.336035 
L 511.086713 -655.384332 
L 513.037762 -632.485411 
L 514.988811 -613.265096 
L 516.93986 -605.10245 
L 518.890909 -603.104097 
L 520.841958 -596.189482 
L 522.793007 -581.040851 
L 524.744056 -565.185643 
L 526.695105 -559.284046 
L 528.646154 -559.940148 
L 530.597203 -558.229909 
L 532.548252 -548.670835 
L 534.499301 -535.76177 
L 536.45035 -526.812271 
L 538.401399 -524.268573 
L 540.352448 -525.943003 
L 542.303497 -521.600835 
L 544.254545 -518.314269 
L 546.205594 -520.207083 
L 548.156643 -525.716051 
L 550.107692 -531.025809 
L 552.058741 -531.841801 
L 554.00979 -529.165852 
L 555.960839 -524.73663 
L 557.911888 -521.671882 
L 559.862937 -519.573241 
L 561.813986 -512.114207 
L 563.765035 -495.759535 
L 565.716084 -482.916886 
L 567.667133 -478.191054 
L 569.618182 -475.953485 
L 571.569231 -472.885772 
L 573.52028 -471.665455 
L 575.471329 -473.398685 
L 577.422378 -476.462506 
L 579.373427 -478.693972 
L 581.324476 -479.58715 
L 583.275524 -483.575436 
L 585.226573 -494.5356 
L 587.177622 -508.049534 
L 589.128671 -517.777232 
L 591.07972 -521.489774 
L 593.030769 -518.140408 
L 594.981818 -510.037953 
L 596.932867 -508.577673 
L 598.883916 -514.882537 
L 600.834965 -519.625112 
L 602.786014 -516.837819 
L 604.737063 -510.610473 
L 606.688112 -508.375644 
L 608.639161 -511.379116 
L 610.59021 -517.765209 
L 612.541259 -523.092603 
L 614.492308 -519.732326 
L 616.443357 -513.513037 
L 618.394406 -506.214857 
L 620.345455 -500.321391 
L 622.296503 -500.129871 
L 624.247552 -499.236075 
L 626.198601 -494.569492 
L 628.14965 -496.617103 
L 630.100699 -503.292735 
L 632.051748 -501.828236 
L 634.002797 -497.473384 
L 635.953846 -497.037247 
L 637.904895 -498.411901 
L 639.855944 -497.827798 
L 641.806993 -491.355707 
L 643.758042 -484.518876 
L 645.709091 -487.242392 
L 647.66014 -493.705129 
L 649.611189 -498.215258 
L 651.562238 -499.569889 
L 653.513287 -497.541396 
L 655.464336 -495.261052 
L 657.415385 -496.080292 
L 659.366434 -500.118062 
L 661.317483 -500.6337 
L 663.268531 -496.6053 
L 665.21958 -491.431351 
L 667.170629 -489.609072 
L 669.121678 -491.765788 
L 671.072727 -494.326461 
L 673.023776 -493.717757 
L 674.974825 -490.800276 
L 676.925874 -489.18167 
L 678.876923 -490.87806 
L 680.827972 -494.363147 
L 682.779021 -496.371651 
L 684.73007 -495.2827 
L 686.681119 -492.24509 
L 688.632168 -490.593381 
L 690.583217 -491.934716 
L 692.534266 -494.739845 
L 694.485315 -496.12763 
L 696.436364 -495.49137 
L 698.387413 -495.255322 
L 700.338462 -497.803981 
L 702.28951 -502.813931 
L 704.240559 -507.260826 
L 706.191608 -508.844178 
L 708.142657 -506.683884 
L 710.093706 -503.773685 
L 712.044755 -501.30016 
L 713.995804 -499.442404 
L 715.946853 -497.741257 
L 717.897902 -495.741384 
L 719.848951 -494.254401 
L 721.8 -494.540855 
L 723.751049 -495.85219 
L 725.702098 -496.894432 
L 727.653147 -497.270701 
L 729.604196 -497.329401 
L 731.555245 -497.399109 
L 733.506294 -497.678636 
L 735.457343 -497.833488 
L 737.408392 -498.135356 
L 739.359441 -498.807855 
L 741.31049 -499.4081 
L 743.261538 -498.096553 
L 745.212587 -496.060235 
L 747.163636 -487.811595 
L 747.163636 -573.890989 
L 747.163636 -573.890989 
L 745.212587 -569.704849 
L 743.261538 -571.7143 
L 741.31049 -571.633306 
L 739.359441 -571.07547 
L 737.408392 -570.215905 
L 735.457343 -569.514151 
L 733.506294 -569.154312 
L 731.555245 -568.710242 
L 729.604196 -568.658179 
L 727.653147 -568.491301 
L 725.702098 -568.050442 
L 723.751049 -567.231605 
L 721.8 -566.39112 
L 719.848951 -566.184632 
L 717.897902 -567.122703 
L 715.946853 -568.847922 
L 713.995804 -570.598147 
L 712.044755 -572.455348 
L 710.093706 -575.115416 
L 708.142657 -578.22687 
L 706.191608 -580.44522 
L 704.240559 -578.883287 
L 702.28951 -574.341271 
L 700.338462 -569.266838 
L 698.387413 -566.769047 
L 696.436364 -567.069186 
L 694.485315 -567.734536 
L 692.534266 -566.369255 
L 690.583217 -563.601275 
L 688.632168 -562.218544 
L 686.681119 -564.012769 
L 684.73007 -567.707052 
L 682.779021 -569.463653 
L 680.827972 -567.589349 
L 678.876923 -563.990669 
L 676.925874 -562.284356 
L 674.974825 -563.885484 
L 673.023776 -566.722069 
L 671.072727 -567.334397 
L 669.121678 -564.720637 
L 667.170629 -562.489671 
L 665.21958 -564.325172 
L 663.268531 -569.354796 
L 661.317483 -573.341245 
L 659.366434 -572.560525 
L 657.415385 -567.04307 
L 655.464336 -563.980589 
L 653.513287 -564.58877 
L 651.562238 -566.62019 
L 649.611189 -565.331568 
L 647.66014 -560.982763 
L 645.709091 -560.837676 
L 643.758042 -564.725917 
L 641.806993 -564.861935 
L 639.855944 -565.209841 
L 637.904895 -565.619956 
L 635.953846 -564.322637 
L 634.002797 -565.088014 
L 632.051748 -569.283059 
L 630.100699 -579.297196 
L 628.14965 -590.822418 
L 626.198601 -589.05462 
L 624.247552 -575.4788 
L 622.296503 -568.141832 
L 620.345455 -568.766597 
L 618.394406 -574.319796 
L 616.443357 -587.781831 
L 614.492308 -601.347373 
L 612.541259 -604.333682 
L 610.59021 -599.458652 
L 608.639161 -586.142168 
L 606.688112 -577.850392 
L 604.737063 -580.257795 
L 602.786014 -586.774187 
L 600.834965 -589.198674 
L 598.883916 -584.835704 
L 596.932867 -579.398754 
L 594.981818 -580.71702 
L 593.030769 -596.36312 
L 591.07972 -624.259959 
L 589.128671 -640.423449 
L 587.177622 -635.942049 
L 585.226573 -622.120197 
L 583.275524 -611.905461 
L 581.324476 -608.001055 
L 579.373427 -607.313371 
L 577.422378 -605.569992 
L 575.471329 -601.969108 
L 573.52028 -600.049197 
L 571.569231 -601.11241 
L 569.618182 -603.375356 
L 567.667133 -605.802965 
L 565.716084 -605.218101 
L 563.765035 -598.150669 
L 561.813986 -588.955071 
L 559.862937 -587.659923 
L 557.911888 -589.744666 
L 555.960839 -592.042303 
L 554.00979 -596.33108 
L 552.058741 -599.057738 
L 550.107692 -598.159292 
L 548.156643 -592.686073 
L 546.205594 -586.965802 
L 544.254545 -585.116829 
L 542.303497 -588.351002 
L 540.352448 -592.720308 
L 538.401399 -591.158258 
L 536.45035 -594.045678 
L 534.499301 -603.596962 
L 532.548252 -616.673114 
L 530.597203 -626.105111 
L 528.646154 -628.029827 
L 526.695105 -627.701715 
L 524.744056 -634.039153 
L 522.793007 -650.75982 
L 520.841958 -667.028747 
L 518.890909 -675.117131 
L 516.93986 -678.231633 
L 514.988811 -687.588084 
L 513.037762 -708.430842 
L 511.086713 -733.360167 
L 509.135664 -746.574545 
L 507.184615 -744.55947 
L 505.233566 -739.321033 
L 503.282517 -739.626582 
L 501.331469 -743.092207 
L 499.38042 -737.408269 
L 497.429371 -714.721401 
L 495.478322 -683.168253 
L 493.527273 -652.759235 
L 491.576224 -631.429569 
L 489.625175 -616.779489 
L 487.674126 -605.315347 
L 485.723077 -596.089268 
L 483.772028 -590.065094 
L 481.820979 -586.233461 
L 479.86993 -582.392357 
L 477.918881 -577.904939 
L 475.967832 -576.007592 
L 474.016783 -579.501456 
L 472.065734 -586.678664 
L 470.114685 -591.960214 
L 468.163636 -590.839261 
L 466.212587 -589.035027 
L 464.261538 -591.768983 
L 462.31049 -598.166744 
L 460.359441 -601.999405 
L 458.408392 -597.979265 
L 456.457343 -595.717066 
L 454.506294 -597.89123 
L 452.555245 -607.248534 
L 450.604196 -613.60089 
L 448.653147 -606.204251 
L 446.702098 -587.805471 
L 444.751049 -572.181021 
L 442.8 -572.594601 
L 440.848951 -589.321271 
L 438.897902 -607.205856 
L 436.946853 -615.106871 
L 434.995804 -614.790475 
L 433.044755 -614.935631 
L 431.093706 -620.60551 
L 429.142657 -627.20962 
L 427.191608 -627.607554 
L 425.240559 -622.473742 
L 423.28951 -620.048774 
L 421.338462 -623.130517 
L 419.387413 -630.417841 
L 417.436364 -638.223361 
L 415.485315 -642.562885 
L 413.534266 -642.425977 
L 411.583217 -641.890998 
L 409.632168 -638.214764 
L 407.681119 -634.257204 
L 405.73007 -630.03745 
L 403.779021 -626.359155 
L 401.827972 -621.849067 
L 399.876923 -616.937163 
L 397.925874 -611.742807 
L 395.974825 -606.272971 
L 394.023776 -602.220153 
L 392.072727 -601.156691 
L 390.121678 -597.804531 
L 388.170629 -586.285252 
L 386.21958 -575.228499 
L 384.268531 -568.979273 
L 382.317483 -566.10574 
L 380.366434 -567.203137 
L 378.415385 -570.283306 
L 376.464336 -576.637753 
L 374.513287 -588.54084 
L 372.562238 -596.650077 
L 370.611189 -599.359858 
L 368.66014 -602.001798 
L 366.709091 -604.692604 
L 364.758042 -603.863049 
L 362.806993 -601.044139 
L 360.855944 -596.435898 
L 358.904895 -587.145336 
L 356.953846 -576.010803 
L 355.002797 -570.882232 
L 353.051748 -566.814229 
L 351.100699 -561.513034 
L 349.14965 -559.607488 
L 347.198601 -561.986752 
L 345.247552 -565.39728 
L 343.296503 -566.22302 
L 341.345455 -568.507506 
L 339.394406 -574.295169 
L 337.443357 -578.612417 
L 335.492308 -584.307734 
L 333.541259 -587.261013 
L 331.59021 -581.146227 
L 329.639161 -578.096817 
L 327.688112 -582.81649 
L 325.737063 -589.698771 
L 323.786014 -588.732709 
L 321.834965 -584.717618 
L 319.883916 -582.866521 
L 317.932867 -590.497553 
L 315.981818 -602.922296 
L 314.030769 -606.017104 
L 312.07972 -603.546919 
L 310.128671 -595.934903 
L 308.177622 -592.627453 
L 306.226573 -590.832108 
L 304.275524 -593.056389 
L 302.324476 -592.6751 
L 300.373427 -590.868877 
L 298.422378 -584.922876 
L 296.471329 -581.437858 
L 294.52028 -580.649473 
L 292.569231 -578.643069 
L 290.618182 -577.857658 
L 288.667133 -575.168637 
L 286.716084 -571.224257 
L 284.765035 -566.853862 
L 282.813986 -562.773677 
L 280.862937 -560.18921 
L 278.911888 -560.795905 
L 276.960839 -562.108082 
L 275.00979 -563.202504 
L 273.058741 -562.486417 
L 271.107692 -561.280533 
L 269.156643 -561.263447 
L 267.205594 -562.046153 
L 265.254545 -562.40159 
L 263.303497 -561.717328 
L 261.352448 -561.322384 
L 259.401399 -561.641805 
L 257.45035 -560.126397 
L 255.499301 -558.808903 
L 253.548252 -559.62543 
L 251.597203 -563.56942 
L 249.646154 -568.590639 
L 247.695105 -570.588949 
L 245.744056 -568.45775 
L 243.793007 -567.135565 
L 241.841958 -573.940247 
L 239.890909 -589.25045 
L 237.93986 -603.444688 
L 235.988811 -603.054659 
L 234.037762 -595.738374 
L 232.086713 -589.380718 
L 230.135664 -597.884684 
L 228.184615 -610.598511 
L 226.233566 -619.659374 
L 224.282517 -615.687144 
L 222.331469 -608.847015 
L 220.38042 -607.097157 
L 218.429371 -620.107411 
L 216.478322 -629.451625 
L 214.527273 -627.816985 
L 212.576224 -614.375397 
L 210.625175 -610.495856 
L 208.674126 -629.95606 
L 206.723077 -648.486648 
L 204.772028 -651.021122 
L 202.820979 -622.459122 
L 200.86993 -592.010408 
L 198.918881 -596.671677 
L 196.967832 -633.527625 
L 195.016783 -667.974963 
L 193.065734 -664.409042 
L 191.114685 -632.359048 
L 189.163636 -591.482825 
L 187.212587 -571.553302 
L 185.261538 -576.434215 
L 183.31049 -584.215898 
L 181.359441 -578.043782 
L 179.408392 -564.685978 
L 177.457343 -558.154403 
L 175.506294 -564.617988 
L 173.555245 -574.149249 
L 171.604196 -579.060104 
L 169.653147 -576.229684 
L 167.702098 -572.071474 
L 165.751049 -570.497779 
L 163.8 -573.06755 
L 161.848951 -575.070772 
L 159.897902 -579.725715 
L 157.946853 -585.068867 
L 155.995804 -585.686756 
L 154.044755 -585.569594 
L 152.093706 -579.457819 
L 150.142657 -568.658423 
L 148.191608 -565.742585 
L 146.240559 -575.717208 
L 144.28951 -591.288156 
L 142.338462 -604.76361 
L 140.387413 -614.700052 
L 138.436364 -624.845951 
z
" style="stroke: #ffffff; stroke-opacity: 0.4"/>
    </defs>
    <g clip-path="url(#pb6ce16fd5a)">
     <use xlink:href="#ma06343fe82" x="0" y="864" style="fill: #4c72b0; fill-opacity: 0.4; stroke: #ffffff; stroke-opacity: 0.4"/>
    </g>
   </g>
   <g id="line2d_15">
    <path d="M 138.436364 304.924465 
L 140.387413 306.235556 
L 142.338462 305.377835 
L 144.28951 311.983804 
L 146.240559 325.565885 
L 148.191608 334.684671 
L 150.142657 331.765688 
L 152.093706 320.758112 
L 154.044755 314.44178 
L 155.995804 318.19221 
L 157.946853 322.751874 
L 159.897902 324.070501 
L 161.848951 324.691647 
L 163.8 326.580222 
L 165.751049 329.117649 
L 167.702098 327.308646 
L 169.653147 323.283633 
L 171.604196 320.320637 
L 173.555245 325.261239 
L 175.506294 334.790649 
L 177.457343 341.205602 
L 179.408392 334.795648 
L 181.359441 321.308175 
L 183.31049 315.359706 
L 185.261538 323.167707 
L 187.212587 328.164287 
L 189.163636 312.234089 
L 193.065734 239.620054 
L 195.016783 232.428871 
L 196.967832 266.367911 
L 198.918881 303.099721 
L 200.86993 307.528922 
L 202.820979 277.197044 
L 204.772028 248.705175 
L 206.723077 251.0243 
L 210.625175 288.928539 
L 212.576224 284.941051 
L 214.527273 271.697715 
L 216.478322 269.948638 
L 218.429371 279.412787 
L 220.38042 296.281255 
L 222.331469 298.30756 
L 224.282517 287.619788 
L 226.233566 279.773143 
L 228.184615 288.402608 
L 230.135664 300.791675 
L 232.086713 308.799441 
L 234.037762 302.253625 
L 235.988811 294.575387 
L 237.93986 294.031256 
L 239.890909 308.120985 
L 241.841958 323.369259 
L 243.793007 330.264854 
L 245.744056 328.979371 
L 247.695105 326.799538 
L 249.646154 328.825944 
L 251.597203 333.90244 
L 253.548252 337.773534 
L 255.499301 338.485418 
L 257.45035 337.168748 
L 259.401399 335.660904 
L 261.352448 335.977629 
L 265.254545 335.301415 
L 267.205594 335.989475 
L 269.156643 336.875554 
L 271.107692 336.855117 
L 273.058741 335.685595 
L 275.00979 334.971591 
L 278.911888 337.337051 
L 280.862937 337.649022 
L 282.813986 334.864735 
L 284.765035 330.812609 
L 286.716084 326.463195 
L 288.667133 322.393554 
L 290.618182 319.57274 
L 292.569231 318.762168 
L 294.52028 316.816572 
L 296.471329 316.132498 
L 298.422378 312.702169 
L 300.373427 306.654134 
L 302.324476 304.836946 
L 304.275524 304.444894 
L 306.226573 306.694908 
L 308.177622 304.973805 
L 310.128671 301.734131 
L 312.07972 294.093826 
L 314.030769 291.714358 
L 315.981818 294.90431 
L 317.932867 307.438573 
L 319.883916 315.187227 
L 321.834965 313.257735 
L 323.786014 309.076802 
L 325.737063 308.01035 
L 327.688112 314.978139 
L 329.639161 319.658048 
L 331.59021 316.654472 
L 333.541259 310.434188 
L 335.492308 313.402148 
L 337.443357 322.223205 
L 339.394406 329.822469 
L 341.345455 332.32156 
L 343.296503 331.493951 
L 345.247552 332.216493 
L 347.198601 335.679819 
L 349.14965 337.933793 
L 351.100699 336.171044 
L 353.051748 331.153944 
L 355.002797 327.134381 
L 356.953846 326.335714 
L 358.904895 327.770181 
L 360.855944 328.202952 
L 362.806993 325.961643 
L 364.758042 323.034086 
L 366.709091 322.541733 
L 368.66014 324.969778 
L 370.611189 327.657292 
L 372.562238 327.98994 
L 374.513287 326.394277 
L 376.464336 325.675044 
L 378.415385 327.796486 
L 380.366434 330.767755 
L 382.317483 331.633469 
L 384.268531 328.688228 
L 386.21958 322.418413 
L 390.121678 306.187443 
L 392.072727 299.514701 
L 395.974825 291.154596 
L 399.876923 280.298529 
L 403.779021 270.945723 
L 405.73007 267.343769 
L 409.632168 259.041649 
L 411.583217 255.345862 
L 413.534266 254.797305 
L 415.485315 254.661382 
L 417.436364 258.994214 
L 419.387413 266.781369 
L 421.338462 274.080889 
L 423.28951 277.165716 
L 425.240559 274.768081 
L 427.191608 269.644795 
L 429.142657 270.090468 
L 431.093706 276.809636 
L 433.044755 282.532223 
L 434.995804 282.615304 
L 436.946853 282.238218 
L 438.897902 290.112236 
L 440.848951 307.960238 
L 442.8 324.691877 
L 444.751049 325.10805 
L 446.702098 309.491989 
L 448.653147 291.164988 
L 450.604196 283.944725 
L 452.555245 290.576628 
L 454.506294 300.190697 
L 456.457343 302.42073 
L 458.408392 300.135453 
L 460.359441 296.116075 
L 462.31049 299.916052 
L 464.261538 306.303037 
L 466.212587 308.928839 
L 468.163636 306.884435 
L 470.114685 305.769972 
L 472.065734 311.295817 
L 474.016783 318.598015 
L 475.967832 322.10321 
L 477.918881 320.227008 
L 479.86993 315.767239 
L 483.772028 308.355674 
L 485.723077 302.355585 
L 487.674126 293.21698 
L 489.625175 282.042623 
L 491.576224 267.863832 
L 493.527273 247.222709 
L 497.429371 186.934902 
L 499.38042 165.199802 
L 501.331469 160.15786 
L 503.282517 163.862818 
L 505.233566 164.267369 
L 507.184615 159.111817 
L 509.135664 157.04471 
L 511.086713 169.627751 
L 513.037762 193.541873 
L 514.988811 213.57341 
L 516.93986 222.33296 
L 518.890909 224.889386 
L 520.841958 232.390886 
L 524.744056 264.387603 
L 526.695105 270.50712 
L 528.646154 270.015011 
L 530.597203 271.83249 
L 532.548252 281.328024 
L 534.499301 294.320634 
L 536.45035 303.571024 
L 538.401399 306.286585 
L 540.352448 304.668344 
L 542.303497 309.024081 
L 544.254545 312.28445 
L 546.205594 310.413559 
L 550.107692 299.40745 
L 552.058741 298.55023 
L 554.00979 301.251535 
L 555.960839 305.610534 
L 557.911888 308.291728 
L 559.862937 310.383419 
L 561.813986 313.46536 
L 563.765035 317.044898 
L 565.716084 319.932505 
L 567.667133 322.002991 
L 569.618182 324.335581 
L 571.569231 327.000911 
L 573.52028 328.142673 
L 575.471329 326.316105 
L 577.422378 322.983751 
L 579.373427 320.996329 
L 581.324476 320.205899 
L 583.275524 316.259553 
L 585.226573 305.6721 
L 587.177622 292.00421 
L 589.128671 284.899661 
L 591.07972 291.125132 
L 593.030769 306.748237 
L 594.981818 318.622514 
L 596.932867 320.011786 
L 598.883916 314.140878 
L 600.834965 309.588107 
L 602.786014 312.193997 
L 604.737063 318.565866 
L 606.688112 320.886982 
L 608.639161 315.239356 
L 610.59021 305.388071 
L 612.541259 300.286859 
L 614.492308 303.46015 
L 618.394406 323.732672 
L 620.345455 329.456007 
L 622.296503 329.864149 
L 624.247552 326.642562 
L 626.198601 322.187943 
L 628.14965 320.280241 
L 630.100699 322.705036 
L 632.051748 328.444353 
L 634.002797 332.7193 
L 635.953846 333.320057 
L 637.904895 331.984071 
L 639.855944 332.48118 
L 643.758042 339.377605 
L 645.709091 339.959967 
L 647.66014 336.656052 
L 649.611189 332.226587 
L 651.562238 330.90496 
L 653.513287 332.934918 
L 655.464336 334.37918 
L 657.415385 332.438319 
L 659.366434 327.660707 
L 661.317483 327.012529 
L 663.268531 331.01995 
L 665.21958 336.12174 
L 667.170629 337.950627 
L 669.121678 335.756787 
L 671.072727 333.169569 
L 673.023776 333.780088 
L 674.974825 336.65712 
L 676.925874 338.266989 
L 678.876923 336.565636 
L 680.827972 333.023752 
L 682.779021 331.082348 
L 684.73007 332.505124 
L 686.681119 335.87107 
L 688.632168 337.594037 
L 690.583217 336.232005 
L 692.534266 333.44545 
L 694.485315 332.068919 
L 696.436364 332.719721 
L 698.387413 332.987817 
L 700.338462 330.464591 
L 702.28951 325.422398 
L 704.240559 320.927944 
L 706.191608 319.355301 
L 708.142657 321.544625 
L 710.093706 324.55545 
L 712.044755 327.122244 
L 717.897902 332.567957 
L 719.848951 333.780483 
L 721.8 333.534012 
L 723.751049 332.458101 
L 725.702098 331.527563 
L 727.653147 331.118999 
L 731.555245 330.945326 
L 737.408392 329.824369 
L 739.359441 329.058338 
L 741.31049 328.479297 
L 743.261538 329.094574 
L 747.163636 333.148708 
L 747.163636 333.148708 
" clip-path="url(#pb6ce16fd5a)" style="fill: none; stroke: #4c72b0; stroke-width: 1.5; stroke-linecap: round"/>
   </g>
   <g id="patch_3">
    <path d="M 108 406.08 
L 108 103.68 
" style="fill: none; stroke: #262626; stroke-width: 1.25; stroke-linejoin: miter; stroke-linecap: square"/>
   </g>
   <g id="patch_4">
    <path d="M 777.6 406.08 
L 777.6 103.68 
" style="fill: none; stroke: #262626; stroke-width: 1.25; stroke-linejoin: miter; stroke-linecap: square"/>
   </g>
   <g id="patch_5">
    <path d="M 108 406.08 
L 777.6 406.08 
" style="fill: none; stroke: #262626; stroke-width: 1.25; stroke-linejoin: miter; stroke-linecap: square"/>
   </g>
   <g id="patch_6">
    <path d="M 108 103.68 
L 777.6 103.68 
" style="fill: none; stroke: #262626; stroke-width: 1.25; stroke-linejoin: miter; stroke-linecap: square"/>
   </g>
   <g id="text_15">
    <!-- sts_yearly_trend/ -->
    <g style="fill: #262626" transform="translate(397.114688 97.68) scale(0.12 -0.12)">
     <defs>
      <path id="ArialMT-73" d="M 197 991 
L 753 1078 
Q 800 744 1014 566 
Q 1228 388 1613 388 
Q 2000 388 2187 545 
Q 2375 703 2375 916 
Q 2375 1106 2209 1216 
Q 2094 1291 1634 1406 
Q 1016 1563 777 1677 
Q 538 1791 414 1992 
Q 291 2194 291 2438 
Q 291 2659 392 2848 
Q 494 3038 669 3163 
Q 800 3259 1026 3326 
Q 1253 3394 1513 3394 
Q 1903 3394 2198 3281 
Q 2494 3169 2634 2976 
Q 2775 2784 2828 2463 
L 2278 2388 
Q 2241 2644 2061 2787 
Q 1881 2931 1553 2931 
Q 1166 2931 1000 2803 
Q 834 2675 834 2503 
Q 834 2394 903 2306 
Q 972 2216 1119 2156 
Q 1203 2125 1616 2013 
Q 2213 1853 2448 1751 
Q 2684 1650 2818 1456 
Q 2953 1263 2953 975 
Q 2953 694 2789 445 
Q 2625 197 2315 61 
Q 2006 -75 1616 -75 
Q 969 -75 630 194 
Q 291 463 197 991 
z
" transform="scale(0.015625)"/>
      <path id="ArialMT-74" d="M 1650 503 
L 1731 6 
Q 1494 -44 1306 -44 
Q 1000 -44 831 53 
Q 663 150 594 308 
Q 525 466 525 972 
L 525 2881 
L 113 2881 
L 113 3319 
L 525 3319 
L 525 4141 
L 1084 4478 
L 1084 3319 
L 1650 3319 
L 1650 2881 
L 1084 2881 
L 1084 941 
Q 1084 700 1114 631 
Q 1144 563 1211 522 
Q 1278 481 1403 481 
Q 1497 481 1650 503 
z
" transform="scale(0.015625)"/>
      <path id="ArialMT-5f" d="M -97 -1272 
L -97 -866 
L 3631 -866 
L 3631 -1272 
L -97 -1272 
z
" transform="scale(0.015625)"/>
      <path id="ArialMT-79" d="M 397 -1278 
L 334 -750 
Q 519 -800 656 -800 
Q 844 -800 956 -737 
Q 1069 -675 1141 -563 
Q 1194 -478 1313 -144 
Q 1328 -97 1363 -6 
L 103 3319 
L 709 3319 
L 1400 1397 
Q 1534 1031 1641 628 
Q 1738 1016 1872 1384 
L 2581 3319 
L 3144 3319 
L 1881 -56 
Q 1678 -603 1566 -809 
Q 1416 -1088 1222 -1217 
Q 1028 -1347 759 -1347 
Q 597 -1347 397 -1278 
z
" transform="scale(0.015625)"/>
      <path id="ArialMT-65" d="M 2694 1069 
L 3275 997 
Q 3138 488 2766 206 
Q 2394 -75 1816 -75 
Q 1088 -75 661 373 
Q 234 822 234 1631 
Q 234 2469 665 2931 
Q 1097 3394 1784 3394 
Q 2450 3394 2872 2941 
Q 3294 2488 3294 1666 
Q 3294 1616 3291 1516 
L 816 1516 
Q 847 969 1125 678 
Q 1403 388 1819 388 
Q 2128 388 2347 550 
Q 2566 713 2694 1069 
z
M 847 1978 
L 2700 1978 
Q 2663 2397 2488 2606 
Q 2219 2931 1791 2931 
Q 1403 2931 1139 2672 
Q 875 2413 847 1978 
z
" transform="scale(0.015625)"/>
      <path id="ArialMT-61" d="M 2588 409 
Q 2275 144 1986 34 
Q 1697 -75 1366 -75 
Q 819 -75 525 192 
Q 231 459 231 875 
Q 231 1119 342 1320 
Q 453 1522 633 1644 
Q 813 1766 1038 1828 
Q 1203 1872 1538 1913 
Q 2219 1994 2541 2106 
Q 2544 2222 2544 2253 
Q 2544 2597 2384 2738 
Q 2169 2928 1744 2928 
Q 1347 2928 1158 2789 
Q 969 2650 878 2297 
L 328 2372 
Q 403 2725 575 2942 
Q 747 3159 1072 3276 
Q 1397 3394 1825 3394 
Q 2250 3394 2515 3294 
Q 2781 3194 2906 3042 
Q 3031 2891 3081 2659 
Q 3109 2516 3109 2141 
L 3109 1391 
Q 3109 606 3145 398 
Q 3181 191 3288 0 
L 2700 0 
Q 2613 175 2588 409 
z
M 2541 1666 
Q 2234 1541 1622 1453 
Q 1275 1403 1131 1340 
Q 988 1278 909 1158 
Q 831 1038 831 891 
Q 831 666 1001 516 
Q 1172 366 1500 366 
Q 1825 366 2078 508 
Q 2331 650 2450 897 
Q 2541 1088 2541 1459 
L 2541 1666 
z
" transform="scale(0.015625)"/>
      <path id="ArialMT-72" d="M 416 0 
L 416 3319 
L 922 3319 
L 922 2816 
Q 1116 3169 1280 3281 
Q 1444 3394 1641 3394 
Q 1925 3394 2219 3213 
L 2025 2691 
Q 1819 2813 1613 2813 
Q 1428 2813 1281 2702 
Q 1134 2591 1072 2394 
Q 978 2094 978 1738 
L 978 0 
L 416 0 
z
" transform="scale(0.015625)"/>
      <path id="ArialMT-6c" d="M 409 0 
L 409 4581 
L 972 4581 
L 972 0 
L 409 0 
z
" transform="scale(0.015625)"/>
      <path id="ArialMT-6e" d="M 422 0 
L 422 3319 
L 928 3319 
L 928 2847 
Q 1294 3394 1984 3394 
Q 2284 3394 2536 3286 
Q 2788 3178 2913 3003 
Q 3038 2828 3088 2588 
Q 3119 2431 3119 2041 
L 3119 0 
L 2556 0 
L 2556 2019 
Q 2556 2363 2490 2533 
Q 2425 2703 2258 2804 
Q 2091 2906 1866 2906 
Q 1506 2906 1245 2678 
Q 984 2450 984 1813 
L 984 0 
L 422 0 
z
" transform="scale(0.015625)"/>
      <path id="ArialMT-64" d="M 2575 0 
L 2575 419 
Q 2259 -75 1647 -75 
Q 1250 -75 917 144 
Q 584 363 401 755 
Q 219 1147 219 1656 
Q 219 2153 384 2558 
Q 550 2963 881 3178 
Q 1213 3394 1622 3394 
Q 1922 3394 2156 3267 
Q 2391 3141 2538 2938 
L 2538 4581 
L 3097 4581 
L 3097 0 
L 2575 0 
z
M 797 1656 
Q 797 1019 1065 703 
Q 1334 388 1700 388 
Q 2069 388 2326 689 
Q 2584 991 2584 1609 
Q 2584 2291 2321 2609 
Q 2059 2928 1675 2928 
Q 1300 2928 1048 2622 
Q 797 2316 797 1656 
z
" transform="scale(0.015625)"/>
      <path id="ArialMT-2f" d="M 0 -78 
L 1328 4659 
L 1778 4659 
L 453 -78 
L 0 -78 
z
" transform="scale(0.015625)"/>
     </defs>
     <use xlink:href="#ArialMT-73"/>
     <use xlink:href="#ArialMT-74" x="50"/>
     <use xlink:href="#ArialMT-73" x="77.783203"/>
     <use xlink:href="#ArialMT-5f" x="127.783203"/>
     <use xlink:href="#ArialMT-79" x="183.398438"/>
     <use xlink:href="#ArialMT-65" x="233.398438"/>
     <use xlink:href="#ArialMT-61" x="289.013672"/>
     <use xlink:href="#ArialMT-72" x="344.628906"/>
     <use xlink:href="#ArialMT-6c" x="377.929688"/>
     <use xlink:href="#ArialMT-79" x="400.146484"/>
     <use xlink:href="#ArialMT-5f" x="450.146484"/>
     <use xlink:href="#ArialMT-74" x="505.761719"/>
     <use xlink:href="#ArialMT-72" x="533.544922"/>
     <use xlink:href="#ArialMT-65" x="566.845703"/>
     <use xlink:href="#ArialMT-6e" x="622.460938"/>
     <use xlink:href="#ArialMT-64" x="678.076172"/>
     <use xlink:href="#ArialMT-2f" x="733.691406"/>
    </g>
   </g>
  </g>
  <g id="axes_2">
   <g id="patch_7">
    <path d="M 108 768.96 
L 777.6 768.96 
L 777.6 466.56 
L 108 466.56 
z
" style="fill: #ffffff"/>
   </g>
   <g id="matplotlib.axis_3">
    <g id="xtick_8">
     <g id="line2d_16">
      <g>
       <use xlink:href="#mbea942b458" x="137.878921" y="768.96" style="fill: #262626; stroke: #262626; stroke-width: 1.25"/>
      </g>
     </g>
     <g id="text_16">
      <!-- 2016 -->
      <g style="fill: #262626" transform="translate(125.644859 786.333594) scale(0.11 -0.11)">
       <use xlink:href="#ArialMT-32"/>
       <use xlink:href="#ArialMT-30" x="55.615234"/>
       <use xlink:href="#ArialMT-31" x="111.230469"/>
       <use xlink:href="#ArialMT-36" x="166.845703"/>
      </g>
     </g>
    </g>
    <g id="xtick_9">
     <g id="line2d_17">
      <g>
       <use xlink:href="#mbea942b458" x="239.890909" y="768.96" style="fill: #262626; stroke: #262626; stroke-width: 1.25"/>
      </g>
     </g>
     <g id="text_17">
      <!-- 2017 -->
      <g style="fill: #262626" transform="translate(227.656847 786.333594) scale(0.11 -0.11)">
       <use xlink:href="#ArialMT-32"/>
       <use xlink:href="#ArialMT-30" x="55.615234"/>
       <use xlink:href="#ArialMT-31" x="111.230469"/>
       <use xlink:href="#ArialMT-37" x="166.845703"/>
      </g>
     </g>
    </g>
    <g id="xtick_10">
     <g id="line2d_18">
      <g>
       <use xlink:href="#mbea942b458" x="341.624176" y="768.96" style="fill: #262626; stroke: #262626; stroke-width: 1.25"/>
      </g>
     </g>
     <g id="text_18">
      <!-- 2018 -->
      <g style="fill: #262626" transform="translate(329.390113 786.333594) scale(0.11 -0.11)">
       <use xlink:href="#ArialMT-32"/>
       <use xlink:href="#ArialMT-30" x="55.615234"/>
       <use xlink:href="#ArialMT-31" x="111.230469"/>
       <use xlink:href="#ArialMT-38" x="166.845703"/>
      </g>
     </g>
    </g>
    <g id="xtick_11">
     <g id="line2d_19">
      <g>
       <use xlink:href="#mbea942b458" x="443.357443" y="768.96" style="fill: #262626; stroke: #262626; stroke-width: 1.25"/>
      </g>
     </g>
     <g id="text_19">
      <!-- 2019 -->
      <g style="fill: #262626" transform="translate(431.12338 786.333594) scale(0.11 -0.11)">
       <use xlink:href="#ArialMT-32"/>
       <use xlink:href="#ArialMT-30" x="55.615234"/>
       <use xlink:href="#ArialMT-31" x="111.230469"/>
       <use xlink:href="#ArialMT-39" x="166.845703"/>
      </g>
     </g>
    </g>
    <g id="xtick_12">
     <g id="line2d_20">
      <g>
       <use xlink:href="#mbea942b458" x="545.090709" y="768.96" style="fill: #262626; stroke: #262626; stroke-width: 1.25"/>
      </g>
     </g>
     <g id="text_20">
      <!-- 2020 -->
      <g style="fill: #262626" transform="translate(532.856647 786.333594) scale(0.11 -0.11)">
       <use xlink:href="#ArialMT-32"/>
       <use xlink:href="#ArialMT-30" x="55.615234"/>
       <use xlink:href="#ArialMT-32" x="111.230469"/>
       <use xlink:href="#ArialMT-30" x="166.845703"/>
      </g>
     </g>
    </g>
    <g id="xtick_13">
     <g id="line2d_21">
      <g>
       <use xlink:href="#mbea942b458" x="647.102697" y="768.96" style="fill: #262626; stroke: #262626; stroke-width: 1.25"/>
      </g>
     </g>
     <g id="text_21">
      <!-- 2021 -->
      <g style="fill: #262626" transform="translate(634.868635 786.333594) scale(0.11 -0.11)">
       <use xlink:href="#ArialMT-32"/>
       <use xlink:href="#ArialMT-30" x="55.615234"/>
       <use xlink:href="#ArialMT-32" x="111.230469"/>
       <use xlink:href="#ArialMT-31" x="166.845703"/>
      </g>
     </g>
    </g>
    <g id="xtick_14">
     <g id="line2d_22">
      <g>
       <use xlink:href="#mbea942b458" x="748.835964" y="768.96" style="fill: #262626; stroke: #262626; stroke-width: 1.25"/>
      </g>
     </g>
     <g id="text_22">
      <!-- 2022 -->
      <g style="fill: #262626" transform="translate(736.601902 786.333594) scale(0.11 -0.11)">
       <use xlink:href="#ArialMT-32"/>
       <use xlink:href="#ArialMT-30" x="55.615234"/>
       <use xlink:href="#ArialMT-32" x="111.230469"/>
       <use xlink:href="#ArialMT-32" x="166.845703"/>
      </g>
     </g>
    </g>
   </g>
   <g id="matplotlib.axis_4">
    <g id="ytick_8">
     <g id="line2d_23">
      <g>
       <use xlink:href="#mc4257606d2" x="108" y="725.19106" style="fill: #262626; stroke: #262626; stroke-width: 1.25"/>
      </g>
     </g>
     <g id="text_23">
      <!-- −1.0 -->
      <g style="fill: #262626" transform="translate(76.785313 729.127857) scale(0.11 -0.11)">
       <defs>
        <path id="ArialMT-2e" d="M 581 0 
L 581 641 
L 1222 641 
L 1222 0 
L 581 0 
z
" transform="scale(0.015625)"/>
       </defs>
       <use xlink:href="#ArialMT-2212"/>
       <use xlink:href="#ArialMT-31" x="58.398438"/>
       <use xlink:href="#ArialMT-2e" x="114.013672"/>
       <use xlink:href="#ArialMT-30" x="141.796875"/>
      </g>
     </g>
    </g>
    <g id="ytick_9">
     <g id="line2d_24">
      <g>
       <use xlink:href="#mc4257606d2" x="108" y="678.091367" style="fill: #262626; stroke: #262626; stroke-width: 1.25"/>
      </g>
     </g>
     <g id="text_24">
      <!-- −0.5 -->
      <g style="fill: #262626" transform="translate(76.785313 682.028164) scale(0.11 -0.11)">
       <defs>
        <path id="ArialMT-35" d="M 266 1200 
L 856 1250 
Q 922 819 1161 601 
Q 1400 384 1738 384 
Q 2144 384 2425 690 
Q 2706 997 2706 1503 
Q 2706 1984 2436 2262 
Q 2166 2541 1728 2541 
Q 1456 2541 1237 2417 
Q 1019 2294 894 2097 
L 366 2166 
L 809 4519 
L 3088 4519 
L 3088 3981 
L 1259 3981 
L 1013 2750 
Q 1425 3038 1878 3038 
Q 2478 3038 2890 2622 
Q 3303 2206 3303 1553 
Q 3303 931 2941 478 
Q 2500 -78 1738 -78 
Q 1113 -78 717 272 
Q 322 622 266 1200 
z
" transform="scale(0.015625)"/>
       </defs>
       <use xlink:href="#ArialMT-2212"/>
       <use xlink:href="#ArialMT-30" x="58.398438"/>
       <use xlink:href="#ArialMT-2e" x="114.013672"/>
       <use xlink:href="#ArialMT-35" x="141.796875"/>
      </g>
     </g>
    </g>
    <g id="ytick_10">
     <g id="line2d_25">
      <g>
       <use xlink:href="#mc4257606d2" x="108" y="630.991674" style="fill: #262626; stroke: #262626; stroke-width: 1.25"/>
      </g>
     </g>
     <g id="text_25">
      <!-- 0.0 -->
      <g style="fill: #262626" transform="translate(83.21 634.928471) scale(0.11 -0.11)">
       <use xlink:href="#ArialMT-30"/>
       <use xlink:href="#ArialMT-2e" x="55.615234"/>
       <use xlink:href="#ArialMT-30" x="83.398438"/>
      </g>
     </g>
    </g>
    <g id="ytick_11">
     <g id="line2d_26">
      <g>
       <use xlink:href="#mc4257606d2" x="108" y="583.891981" style="fill: #262626; stroke: #262626; stroke-width: 1.25"/>
      </g>
     </g>
     <g id="text_26">
      <!-- 0.5 -->
      <g style="fill: #262626" transform="translate(83.21 587.828778) scale(0.11 -0.11)">
       <use xlink:href="#ArialMT-30"/>
       <use xlink:href="#ArialMT-2e" x="55.615234"/>
       <use xlink:href="#ArialMT-35" x="83.398438"/>
      </g>
     </g>
    </g>
    <g id="ytick_12">
     <g id="line2d_27">
      <g>
       <use xlink:href="#mc4257606d2" x="108" y="536.792287" style="fill: #262626; stroke: #262626; stroke-width: 1.25"/>
      </g>
     </g>
     <g id="text_27">
      <!-- 1.0 -->
      <g style="fill: #262626" transform="translate(83.21 540.729084) scale(0.11 -0.11)">
       <use xlink:href="#ArialMT-31"/>
       <use xlink:href="#ArialMT-2e" x="55.615234"/>
       <use xlink:href="#ArialMT-30" x="83.398438"/>
      </g>
     </g>
    </g>
    <g id="ytick_13">
     <g id="line2d_28">
      <g>
       <use xlink:href="#mc4257606d2" x="108" y="489.692594" style="fill: #262626; stroke: #262626; stroke-width: 1.25"/>
      </g>
     </g>
     <g id="text_28">
      <!-- 1.5 -->
      <g style="fill: #262626" transform="translate(83.21 493.629391) scale(0.11 -0.11)">
       <use xlink:href="#ArialMT-31"/>
       <use xlink:href="#ArialMT-2e" x="55.615234"/>
       <use xlink:href="#ArialMT-35" x="83.398438"/>
      </g>
     </g>
    </g>
   </g>
   <g id="PolyCollection_2">
    <defs>
     <path id="m7bedc436d2" d="M 138.436364 -383.694545 
L 138.436364 -108.785455 
L 140.387413 -125.466072 
L 142.338462 -173.533513 
L 144.28951 -188.880965 
L 146.240559 -195.95975 
L 148.191608 -199.350272 
L 150.142657 -201.205932 
L 152.093706 -203.895768 
L 154.044755 -205.170312 
L 155.995804 -203.295655 
L 157.946853 -204.736875 
L 159.897902 -206.564899 
L 161.848951 -205.620032 
L 163.8 -204.710896 
L 165.751049 -204.654948 
L 167.702098 -206.745387 
L 169.653147 -205.843071 
L 171.604196 -205.322115 
L 173.555245 -204.538959 
L 175.506294 -206.134144 
L 177.457343 -205.455363 
L 179.408392 -205.344846 
L 181.359441 -205.717371 
L 183.31049 -206.159065 
L 185.261538 -204.876227 
L 187.212587 -206.593627 
L 189.163636 -207.579072 
L 191.114685 -205.417868 
L 193.065734 -204.328185 
L 195.016783 -209.139847 
L 196.967832 -206.20901 
L 198.918881 -204.614814 
L 200.86993 -203.884802 
L 202.820979 -207.537279 
L 204.772028 -208.37223 
L 206.723077 -202.934205 
L 208.674126 -208.226422 
L 210.625175 -204.786257 
L 212.576224 -207.319417 
L 214.527273 -207.356595 
L 216.478322 -203.502019 
L 218.429371 -208.080602 
L 220.38042 -205.045828 
L 222.331469 -204.80382 
L 224.282517 -206.204687 
L 226.233566 -207.513158 
L 228.184615 -204.152871 
L 230.135664 -206.987118 
L 232.086713 -205.343619 
L 234.037762 -206.972817 
L 235.988811 -205.372956 
L 237.93986 -207.961822 
L 239.890909 -206.120918 
L 241.841958 -205.655573 
L 243.793007 -205.771677 
L 245.744056 -205.570951 
L 247.695105 -205.055724 
L 249.646154 -204.929365 
L 251.597203 -205.051856 
L 253.548252 -205.088699 
L 255.499301 -204.672679 
L 257.45035 -204.638469 
L 259.401399 -205.435936 
L 261.352448 -204.43482 
L 263.303497 -204.460662 
L 265.254545 -204.882471 
L 267.205594 -204.648842 
L 269.156643 -204.665807 
L 271.107692 -204.735284 
L 273.058741 -204.777568 
L 275.00979 -204.463879 
L 276.960839 -203.686771 
L 278.911888 -203.91556 
L 280.862937 -203.329708 
L 282.813986 -203.111941 
L 284.765035 -201.575796 
L 286.716084 -200.235351 
L 288.667133 -201.219236 
L 290.618182 -202.423161 
L 292.569231 -202.274248 
L 294.52028 -203.881798 
L 296.471329 -201.461205 
L 298.422378 -200.379425 
L 300.373427 -202.474631 
L 302.324476 -200.627284 
L 304.275524 -201.021289 
L 306.226573 -200.679585 
L 308.177622 -202.532957 
L 310.128671 -200.185905 
L 312.07972 -200.426564 
L 314.030769 -199.860457 
L 315.981818 -202.785325 
L 317.932867 -198.996062 
L 319.883916 -196.526868 
L 321.834965 -198.036969 
L 323.786014 -198.743554 
L 325.737063 -201.499012 
L 327.688112 -199.808307 
L 329.639161 -197.915739 
L 331.59021 -199.860035 
L 333.541259 -203.555092 
L 335.492308 -201.739572 
L 337.443357 -200.530835 
L 339.394406 -201.707739 
L 341.345455 -202.788907 
L 343.296503 -203.071802 
L 345.247552 -203.124005 
L 347.198601 -203.534255 
L 349.14965 -204.888074 
L 351.100699 -205.480307 
L 353.051748 -205.256726 
L 355.002797 -204.378241 
L 356.953846 -204.261303 
L 358.904895 -204.281103 
L 360.855944 -204.250963 
L 362.806993 -204.250629 
L 364.758042 -204.273916 
L 366.709091 -204.314491 
L 368.66014 -204.387676 
L 370.611189 -204.49784 
L 372.562238 -204.695079 
L 374.513287 -205.131534 
L 376.464336 -205.650539 
L 378.415385 -205.247189 
L 380.366434 -205.273003 
L 382.317483 -205.695277 
L 384.268531 -206.0346 
L 386.21958 -205.947912 
L 388.170629 -205.845131 
L 390.121678 -206.40139 
L 392.072727 -207.501286 
L 394.023776 -206.723959 
L 395.974825 -205.926301 
L 397.925874 -206.204291 
L 399.876923 -205.493341 
L 401.827972 -204.343213 
L 403.779021 -203.465554 
L 405.73007 -201.416105 
L 407.681119 -200.95042 
L 409.632168 -202.141625 
L 411.583217 -203.874022 
L 413.534266 -202.388428 
L 415.485315 -203.628204 
L 417.436364 -203.733348 
L 419.387413 -204.045265 
L 421.338462 -205.575347 
L 423.28951 -205.776966 
L 425.240559 -204.739015 
L 427.191608 -206.45197 
L 429.142657 -207.335708 
L 431.093706 -206.98867 
L 433.044755 -206.838131 
L 434.995804 -207.124232 
L 436.946853 -206.991817 
L 438.897902 -207.130779 
L 440.848951 -206.665703 
L 442.8 -205.164041 
L 444.751049 -206.081654 
L 446.702098 -206.806972 
L 448.653147 -207.031303 
L 450.604196 -207.520446 
L 452.555245 -206.9683 
L 454.506294 -206.561452 
L 456.457343 -207.352566 
L 458.408392 -204.600991 
L 460.359441 -206.975619 
L 462.31049 -206.404094 
L 464.261538 -205.979705 
L 466.212587 -205.635012 
L 468.163636 -205.842639 
L 470.114685 -206.607201 
L 472.065734 -205.307932 
L 474.016783 -205.13376 
L 475.967832 -205.390816 
L 477.918881 -205.110493 
L 479.86993 -205.005891 
L 481.820979 -204.963879 
L 483.772028 -205.080783 
L 485.723077 -204.804378 
L 487.674126 -204.405997 
L 489.625175 -203.857282 
L 491.576224 -203.022437 
L 493.527273 -200.716558 
L 495.478322 -198.994717 
L 497.429371 -195.563606 
L 499.38042 -194.157758 
L 501.331469 -191.470093 
L 503.282517 -189.933911 
L 505.233566 -189.396178 
L 507.184615 -188.826825 
L 509.135664 -190.369607 
L 511.086713 -191.686108 
L 513.037762 -192.597711 
L 514.988811 -195.169113 
L 516.93986 -197.047706 
L 518.890909 -198.911437 
L 520.841958 -200.644123 
L 522.793007 -202.333253 
L 524.744056 -202.39591 
L 526.695105 -204.549532 
L 528.646154 -205.155425 
L 530.597203 -205.305742 
L 532.548252 -205.527276 
L 534.499301 -206.316178 
L 536.45035 -206.144601 
L 538.401399 -205.158737 
L 540.352448 -207.935315 
L 542.303497 -204.787489 
L 544.254545 -204.473085 
L 546.205594 -206.439528 
L 548.156643 -206.734896 
L 550.107692 -206.734009 
L 552.058741 -206.475844 
L 554.00979 -207.214567 
L 555.960839 -206.645291 
L 557.911888 -206.625171 
L 559.862937 -206.488469 
L 561.813986 -205.981872 
L 563.765035 -205.331101 
L 565.716084 -204.899649 
L 567.667133 -204.637026 
L 569.618182 -204.431173 
L 571.569231 -204.245102 
L 573.52028 -204.057809 
L 575.471329 -203.851894 
L 577.422378 -203.606871 
L 579.373427 -203.302724 
L 581.324476 -202.903607 
L 583.275524 -202.372382 
L 585.226573 -201.62714 
L 587.177622 -200.568939 
L 589.128671 -198.937649 
L 591.07972 -196.093849 
L 593.030769 -192.116743 
L 594.981818 -190.249295 
L 596.932867 -189.313551 
L 598.883916 -188.210944 
L 600.834965 -188.128755 
L 602.786014 -188.809686 
L 604.737063 -190.232311 
L 606.688112 -192.017744 
L 608.639161 -194.129036 
L 610.59021 -196.598262 
L 612.541259 -198.318407 
L 614.492308 -199.711414 
L 616.443357 -200.530632 
L 618.394406 -200.817809 
L 620.345455 -201.767642 
L 622.296503 -202.513581 
L 624.247552 -202.889259 
L 626.198601 -203.707343 
L 628.14965 -204.696365 
L 630.100699 -205.599532 
L 632.051748 -205.044848 
L 634.002797 -204.94553 
L 635.953846 -205.189989 
L 637.904895 -205.22516 
L 639.855944 -204.56066 
L 641.806993 -203.835598 
L 643.758042 -203.75549 
L 645.709091 -203.780497 
L 647.66014 -203.652336 
L 649.611189 -204.342191 
L 651.562238 -205.013305 
L 653.513287 -205.263584 
L 655.464336 -205.148193 
L 657.415385 -204.631088 
L 659.366434 -205.963417 
L 661.317483 -205.471463 
L 663.268531 -205.119867 
L 665.21958 -205.201586 
L 667.170629 -205.157887 
L 669.121678 -205.054775 
L 671.072727 -204.838976 
L 673.023776 -204.225554 
L 674.974825 -203.845522 
L 676.925874 -203.587051 
L 678.876923 -202.900724 
L 680.827972 -201.946384 
L 682.779021 -201.425257 
L 684.73007 -201.670833 
L 686.681119 -201.925453 
L 688.632168 -202.118141 
L 690.583217 -202.096488 
L 692.534266 -202.141187 
L 694.485315 -202.322582 
L 696.436364 -202.505319 
L 698.387413 -202.78766 
L 700.338462 -203.0461 
L 702.28951 -203.227835 
L 704.240559 -203.254081 
L 706.191608 -203.680022 
L 708.142657 -203.46915 
L 710.093706 -204.063449 
L 712.044755 -204.484092 
L 713.995804 -204.677879 
L 715.946853 -204.854821 
L 717.897902 -204.758472 
L 719.848951 -204.528398 
L 721.8 -204.707451 
L 723.751049 -204.947147 
L 725.702098 -205.137609 
L 727.653147 -205.392301 
L 729.604196 -205.602095 
L 731.555245 -205.544859 
L 733.506294 -205.775425 
L 735.457343 -205.800921 
L 737.408392 -205.926169 
L 739.359441 -205.948187 
L 741.31049 -205.897565 
L 743.261538 -205.690126 
L 745.212587 -205.479066 
L 747.163636 -205.453134 
L 747.163636 -260.996172 
L 747.163636 -260.996172 
L 745.212587 -260.855116 
L 743.261538 -260.99474 
L 741.31049 -261.147559 
L 739.359441 -261.187766 
L 737.408392 -261.151424 
L 735.457343 -260.992668 
L 733.506294 -260.930277 
L 731.555245 -260.686556 
L 729.604196 -260.756791 
L 727.653147 -260.575082 
L 725.702098 -260.384442 
L 723.751049 -260.305555 
L 721.8 -260.202595 
L 719.848951 -260.104242 
L 717.897902 -260.346866 
L 715.946853 -260.481484 
L 713.995804 -260.412642 
L 712.044755 -260.399279 
L 710.093706 -260.249237 
L 708.142657 -259.903744 
L 706.191608 -260.37903 
L 704.240559 -260.135662 
L 702.28951 -260.382191 
L 700.338462 -260.423013 
L 698.387413 -260.444506 
L 696.436364 -260.407561 
L 694.485315 -260.439138 
L 692.534266 -260.396938 
L 690.583217 -260.400133 
L 688.632168 -260.406682 
L 686.681119 -260.179092 
L 684.73007 -259.954124 
L 682.779021 -259.601733 
L 680.827972 -259.716142 
L 678.876923 -260.092586 
L 676.925874 -260.349117 
L 674.974825 -260.305685 
L 673.023776 -260.433414 
L 671.072727 -260.86721 
L 669.121678 -260.963831 
L 667.170629 -260.986568 
L 665.21958 -260.967753 
L 663.268531 -260.814255 
L 661.317483 -261.098222 
L 659.366434 -261.451447 
L 657.415385 -259.788181 
L 655.464336 -259.996066 
L 653.513287 -259.856021 
L 651.562238 -259.628965 
L 649.611189 -259.169296 
L 647.66014 -258.750867 
L 645.709091 -259.005523 
L 643.758042 -259.396863 
L 641.806993 -258.908919 
L 639.855944 -259.32566 
L 637.904895 -259.808726 
L 635.953846 -259.728564 
L 634.002797 -259.511404 
L 632.051748 -259.603047 
L 630.100699 -260.3825 
L 628.14965 -260.389175 
L 626.198601 -259.877742 
L 624.247552 -258.98246 
L 622.296503 -259.194767 
L 620.345455 -259.19804 
L 618.394406 -259.076131 
L 616.443357 -259.633381 
L 614.492308 -260.328463 
L 612.541259 -260.021271 
L 610.59021 -260.942565 
L 608.639161 -260.493393 
L 606.688112 -261.052704 
L 604.737063 -261.483187 
L 602.786014 -261.750925 
L 600.834965 -261.958232 
L 598.883916 -261.854915 
L 596.932867 -261.950107 
L 594.981818 -261.318911 
L 593.030769 -260.45934 
L 591.07972 -261.69927 
L 589.128671 -262.090054 
L 587.177622 -261.972577 
L 585.226573 -261.797145 
L 583.275524 -261.672588 
L 581.324476 -261.577469 
L 579.373427 -261.520194 
L 577.422378 -261.481601 
L 575.471329 -261.458465 
L 573.52028 -261.439387 
L 571.569231 -261.41839 
L 569.618182 -261.386005 
L 567.667133 -261.328774 
L 565.716084 -261.219567 
L 563.765035 -260.926928 
L 561.813986 -260.595988 
L 559.862937 -260.929741 
L 557.911888 -261.084865 
L 555.960839 -261.223456 
L 554.00979 -261.860075 
L 552.058741 -261.168852 
L 550.107692 -261.381504 
L 548.156643 -261.408034 
L 546.205594 -260.939564 
L 544.254545 -259.293423 
L 542.303497 -259.730695 
L 540.352448 -263.457264 
L 538.401399 -261.326924 
L 536.45035 -262.779202 
L 534.499301 -264.293714 
L 532.548252 -264.818219 
L 530.597203 -266.332655 
L 528.646154 -268.617094 
L 526.695105 -270.214277 
L 524.744056 -271.152009 
L 522.793007 -274.949259 
L 520.841958 -278.765997 
L 518.890909 -282.676844 
L 516.93986 -287.311695 
L 514.988811 -291.892858 
L 513.037762 -296.681564 
L 511.086713 -303.033548 
L 509.135664 -306.399197 
L 507.184615 -306.216023 
L 505.233566 -306.596819 
L 503.282517 -306.095873 
L 501.331469 -304.231432 
L 499.38042 -299.291668 
L 497.429371 -290.718113 
L 495.478322 -283.327152 
L 493.527273 -276.312005 
L 491.576224 -270.994822 
L 489.625175 -266.511352 
L 487.674126 -263.529576 
L 485.723077 -261.885889 
L 483.772028 -260.991848 
L 481.820979 -260.235338 
L 479.86993 -259.91616 
L 477.918881 -259.801682 
L 475.967832 -259.948987 
L 474.016783 -259.646721 
L 472.065734 -259.724112 
L 470.114685 -260.992662 
L 468.163636 -260.222441 
L 466.212587 -260.095806 
L 464.261538 -260.558695 
L 462.31049 -261.261765 
L 460.359441 -261.868242 
L 458.408392 -259.926289 
L 456.457343 -262.650959 
L 454.506294 -262.325277 
L 452.555245 -262.736129 
L 450.604196 -263.433101 
L 448.653147 -262.595856 
L 446.702098 -261.889974 
L 444.751049 -260.839473 
L 442.8 -259.994761 
L 440.848951 -261.511976 
L 438.897902 -262.409683 
L 436.946853 -262.46649 
L 434.995804 -262.606749 
L 433.044755 -262.212772 
L 431.093706 -262.181653 
L 429.142657 -262.234922 
L 427.191608 -260.715509 
L 425.240559 -258.909186 
L 423.28951 -259.738196 
L 421.338462 -259.541631 
L 419.387413 -258.332419 
L 417.436364 -258.246073 
L 415.485315 -258.576047 
L 413.534266 -257.454653 
L 411.583217 -259.243851 
L 409.632168 -257.745509 
L 407.681119 -257.550255 
L 405.73007 -257.415653 
L 403.779021 -258.564955 
L 401.827972 -258.698507 
L 399.876923 -259.509674 
L 397.925874 -260.139503 
L 395.974825 -259.84875 
L 394.023776 -260.744071 
L 392.072727 -261.801674 
L 390.121678 -260.948769 
L 388.170629 -259.867849 
L 386.21958 -259.913847 
L 384.268531 -260.037363 
L 382.317483 -259.79002 
L 380.366434 -259.516642 
L 378.415385 -259.607441 
L 376.464336 -260.265918 
L 374.513287 -260.75959 
L 372.562238 -261.041701 
L 370.611189 -261.173428 
L 368.66014 -261.239578 
L 366.709091 -261.242579 
L 364.758042 -261.194071 
L 362.806993 -261.071426 
L 360.855944 -260.839125 
L 358.904895 -260.27758 
L 356.953846 -259.385129 
L 355.002797 -259.228192 
L 353.051748 -259.947673 
L 351.100699 -260.169564 
L 349.14965 -259.797384 
L 347.198601 -258.942764 
L 345.247552 -259.029714 
L 343.296503 -259.277646 
L 341.345455 -259.497151 
L 339.394406 -259.566871 
L 337.443357 -258.636363 
L 335.492308 -259.251574 
L 333.541259 -261.75168 
L 331.59021 -258.792663 
L 329.639161 -258.740264 
L 327.688112 -259.529163 
L 325.737063 -261.550536 
L 323.786014 -259.126071 
L 321.834965 -260.031361 
L 319.883916 -258.761962 
L 317.932867 -259.147932 
L 315.981818 -262.535316 
L 314.030769 -258.625884 
L 312.07972 -260.144764 
L 310.128671 -258.551519 
L 308.177622 -261.109213 
L 306.226573 -258.587824 
L 304.275524 -259.710917 
L 302.324476 -258.405582 
L 300.373427 -260.476771 
L 298.422378 -258.125208 
L 296.471329 -258.713695 
L 294.52028 -260.755564 
L 292.569231 -258.816548 
L 290.618182 -259.533913 
L 288.667133 -258.696129 
L 286.716084 -258.215728 
L 284.765035 -258.756288 
L 282.813986 -259.551987 
L 280.862937 -259.242655 
L 278.911888 -259.684292 
L 276.960839 -259.187114 
L 275.00979 -259.771087 
L 273.058741 -259.887728 
L 271.107692 -259.76403 
L 269.156643 -259.650309 
L 267.205594 -259.545625 
L 265.254545 -259.697318 
L 263.303497 -259.240614 
L 261.352448 -259.096072 
L 259.401399 -260.073168 
L 257.45035 -259.219284 
L 255.499301 -259.300882 
L 253.548252 -259.659767 
L 251.597203 -259.601385 
L 249.646154 -259.469086 
L 247.695105 -259.528439 
L 245.744056 -259.976878 
L 243.793007 -260.143287 
L 241.841958 -260.044168 
L 239.890909 -260.686888 
L 237.93986 -262.874759 
L 235.988811 -260.286915 
L 234.037762 -261.773611 
L 232.086713 -260.270637 
L 230.135664 -261.934613 
L 228.184615 -259.352333 
L 226.233566 -262.728307 
L 224.282517 -261.502148 
L 222.331469 -260.459326 
L 220.38042 -260.495594 
L 218.429371 -263.922342 
L 216.478322 -259.799714 
L 214.527273 -263.422492 
L 212.576224 -263.958235 
L 210.625175 -262.369235 
L 208.674126 -265.869107 
L 206.723077 -262.158725 
L 204.772028 -267.837807 
L 202.820979 -267.599802 
L 200.86993 -262.653811 
L 198.918881 -263.396625 
L 196.967832 -267.725881 
L 195.016783 -272.212377 
L 193.065734 -264.702741 
L 191.114685 -264.199864 
L 189.163636 -266.066728 
L 187.212587 -263.512575 
L 185.261538 -260.989866 
L 183.31049 -261.711524 
L 181.359441 -261.059666 
L 179.408392 -260.554549 
L 177.457343 -260.601732 
L 175.506294 -261.271748 
L 173.555245 -259.711279 
L 171.604196 -260.464705 
L 169.653147 -261.066176 
L 167.702098 -262.046144 
L 165.751049 -259.92785 
L 163.8 -260.097013 
L 161.848951 -261.100954 
L 159.897902 -262.45354 
L 157.946853 -260.999507 
L 155.995804 -259.837793 
L 154.044755 -262.455149 
L 152.093706 -262.371576 
L 150.142657 -261.87841 
L 148.191608 -263.728781 
L 146.240559 -267.150279 
L 144.28951 -273.985469 
L 142.338462 -290.140049 
L 140.387413 -346.083798 
L 138.436364 -383.694545 
z
" style="stroke: #ffffff; stroke-opacity: 0.4"/>
    </defs>
    <g clip-path="url(#p182d9d68e8)">
     <use xlink:href="#m7bedc436d2" x="0" y="864" style="fill: #4c72b0; fill-opacity: 0.4; stroke: #ffffff; stroke-opacity: 0.4"/>
    </g>
   </g>
   <g id="line2d_29">
    <path d="M 138.436364 617.76 
L 140.387413 628.22506 
L 142.338462 632.163218 
L 144.28951 632.566783 
L 146.240559 632.444986 
L 150.142657 632.45783 
L 152.093706 630.866327 
L 154.044755 630.18727 
L 155.995804 632.433275 
L 157.946853 631.131808 
L 159.897902 629.490781 
L 161.848951 630.639508 
L 163.8 631.596044 
L 165.751049 631.708602 
L 167.702098 629.604234 
L 169.653147 630.545375 
L 171.604196 631.106591 
L 173.555245 631.87488 
L 175.506294 630.297054 
L 177.457343 630.971452 
L 179.408392 631.050304 
L 183.31049 630.064706 
L 185.261538 631.066954 
L 187.212587 628.946899 
L 189.163636 627.177101 
L 191.114685 629.191134 
L 193.065734 629.484537 
L 195.016783 623.323888 
L 196.967832 627.032555 
L 198.918881 629.994281 
L 200.86993 630.730695 
L 202.820979 626.431459 
L 204.772028 625.894981 
L 206.723077 631.453534 
L 208.674126 626.952235 
L 210.625175 630.422256 
L 212.576224 628.361173 
L 214.527273 628.610456 
L 216.478322 632.349135 
L 218.429371 627.998529 
L 220.38042 631.229288 
L 222.331469 631.368428 
L 226.233566 628.879266 
L 228.184615 632.247398 
L 230.135664 629.539135 
L 232.086713 631.192871 
L 234.037762 629.626787 
L 235.988811 631.170064 
L 237.93986 628.58171 
L 239.890909 630.596096 
L 241.841958 631.150128 
L 243.793007 631.042517 
L 245.744056 631.226086 
L 247.695105 631.707918 
L 249.646154 631.800774 
L 253.548252 631.625767 
L 255.499301 632.01322 
L 257.45035 632.071123 
L 259.401399 631.245448 
L 261.352448 632.234553 
L 263.303497 632.149363 
L 265.254545 631.710105 
L 267.205594 631.902768 
L 273.058741 631.667352 
L 275.00979 631.882516 
L 276.960839 632.563057 
L 278.911888 632.200075 
L 280.862937 632.71382 
L 282.813986 632.668037 
L 284.765035 633.833957 
L 286.716084 634.774461 
L 288.667133 634.042319 
L 290.618182 633.021463 
L 292.569231 633.454602 
L 294.52028 631.681319 
L 296.471329 633.91255 
L 298.422378 634.747684 
L 300.373427 632.524298 
L 302.324476 634.483566 
L 304.275524 633.633896 
L 306.226573 634.366296 
L 308.177622 632.178916 
L 310.128671 634.631288 
L 312.07972 633.714335 
L 314.030769 634.756831 
L 315.981818 631.339681 
L 317.932867 634.928002 
L 319.883916 636.355586 
L 321.834965 634.965834 
L 323.786014 635.065189 
L 325.737063 632.475225 
L 327.688112 634.331265 
L 329.639161 635.671999 
L 331.59021 634.673651 
L 333.541259 631.346613 
L 335.492308 633.504426 
L 337.443357 634.416401 
L 339.394406 633.362694 
L 341.345455 632.856972 
L 343.296503 632.825277 
L 345.247552 632.92314 
L 347.198601 632.761489 
L 349.14965 631.65727 
L 351.100699 631.175065 
L 353.051748 631.3978 
L 355.002797 632.196784 
L 356.953846 632.176783 
L 358.904895 631.720658 
L 360.855944 631.454956 
L 364.758042 631.266005 
L 376.464336 631.041772 
L 378.415385 631.572686 
L 380.366434 631.605178 
L 384.268531 630.964018 
L 388.170629 631.14351 
L 390.121678 630.324919 
L 392.072727 629.348521 
L 395.974825 631.112474 
L 397.925874 630.828102 
L 399.876923 631.498492 
L 401.827972 632.47914 
L 403.779021 632.984745 
L 405.73007 634.58412 
L 407.681119 634.749663 
L 409.632168 634.056434 
L 411.583217 632.441063 
L 413.534266 634.078458 
L 415.485315 632.897873 
L 417.436364 633.010289 
L 419.387413 632.811157 
L 421.338462 631.441512 
L 423.28951 631.24242 
L 425.240559 632.175899 
L 427.191608 630.416261 
L 429.142657 629.214684 
L 431.093706 629.414837 
L 433.044755 629.474548 
L 434.995804 629.134508 
L 436.946853 629.270846 
L 438.897902 629.229767 
L 440.848951 629.911159 
L 442.8 631.420599 
L 446.702098 629.651528 
L 448.653147 629.186421 
L 450.604196 628.523225 
L 452.555245 629.147786 
L 454.506294 629.556635 
L 456.457343 628.998236 
L 458.408392 631.736361 
L 460.359441 629.578068 
L 464.261538 630.730799 
L 466.212587 631.13459 
L 468.163636 630.967462 
L 470.114685 630.200067 
L 472.065734 631.483979 
L 474.016783 631.609759 
L 475.967832 631.330098 
L 477.918881 631.543912 
L 479.86993 631.538974 
L 481.820979 631.400392 
L 483.772028 630.963685 
L 485.723077 630.654867 
L 487.674126 630.032213 
L 489.625175 628.815684 
L 491.576224 626.991369 
L 493.527273 625.485718 
L 495.478322 622.839064 
L 497.429371 620.859142 
L 499.38042 617.275288 
L 501.331469 616.149236 
L 503.282517 615.985108 
L 505.233566 616.003503 
L 507.184615 616.478578 
L 509.135664 615.615598 
L 511.086713 616.640172 
L 513.037762 619.360362 
L 514.988811 620.469016 
L 518.890909 623.205859 
L 522.793007 625.358745 
L 524.744056 627.226041 
L 526.695105 626.618096 
L 528.646154 627.113739 
L 530.597203 628.180802 
L 532.548252 628.827253 
L 534.499301 628.695053 
L 536.45035 629.538098 
L 538.401399 630.75717 
L 540.352448 628.30371 
L 542.303497 631.740907 
L 544.254545 632.116747 
L 546.205594 630.310454 
L 548.156643 629.928535 
L 550.107692 629.942244 
L 552.058741 630.177651 
L 554.00979 629.46268 
L 555.960839 630.065627 
L 559.862937 630.290894 
L 561.813986 630.71107 
L 565.716084 630.940391 
L 579.373427 631.588542 
L 583.275524 631.977516 
L 585.226573 632.287857 
L 587.177622 632.729243 
L 589.128671 633.486149 
L 591.07972 635.10344 
L 593.030769 637.711959 
L 594.981818 638.215895 
L 596.932867 638.36817 
L 598.883916 638.967072 
L 600.834965 638.956505 
L 602.786014 638.719696 
L 606.688112 637.464777 
L 608.639161 636.688785 
L 610.59021 635.229587 
L 612.541259 634.83016 
L 614.492308 633.98006 
L 616.443357 633.917993 
L 618.394406 634.05303 
L 620.345455 633.51716 
L 622.296503 633.145825 
L 624.247552 633.06414 
L 628.14965 631.457229 
L 630.100699 631.008984 
L 632.051748 631.676052 
L 634.002797 631.771534 
L 635.953846 631.540724 
L 637.904895 631.483056 
L 641.806993 632.627742 
L 643.758042 632.423823 
L 647.66014 632.798398 
L 651.562238 631.678866 
L 653.513287 631.440198 
L 655.464336 631.427869 
L 657.415385 631.790367 
L 659.366434 630.292569 
L 663.268531 631.03294 
L 665.21958 630.915331 
L 669.121678 630.990698 
L 671.072727 631.146907 
L 673.023776 631.670515 
L 674.974825 631.924396 
L 676.925874 632.031915 
L 678.876923 632.503345 
L 680.827972 633.168737 
L 682.779021 633.486505 
L 686.681119 632.947728 
L 688.632168 632.737587 
L 692.534266 632.730938 
L 702.28951 632.194988 
L 704.240559 632.305128 
L 706.191608 631.970473 
L 708.142657 632.313552 
L 710.093706 631.843656 
L 712.044755 631.558316 
L 715.946853 631.331848 
L 717.897902 631.44733 
L 719.848951 631.683679 
L 725.702098 631.238975 
L 729.604196 630.820557 
L 731.555245 630.884291 
L 733.506294 630.64715 
L 741.31049 630.477439 
L 745.212587 630.832909 
L 747.163636 630.775346 
L 747.163636 630.775346 
" clip-path="url(#p182d9d68e8)" style="fill: none; stroke: #4c72b0; stroke-width: 1.5; stroke-linecap: round"/>
   </g>
   <g id="patch_8">
    <path d="M 108 768.96 
L 108 466.56 
" style="fill: none; stroke: #262626; stroke-width: 1.25; stroke-linejoin: miter; stroke-linecap: square"/>
   </g>
   <g id="patch_9">
    <path d="M 777.6 768.96 
L 777.6 466.56 
" style="fill: none; stroke: #262626; stroke-width: 1.25; stroke-linejoin: miter; stroke-linecap: square"/>
   </g>
   <g id="patch_10">
    <path d="M 108 768.96 
L 777.6 768.96 
" style="fill: none; stroke: #262626; stroke-width: 1.25; stroke-linejoin: miter; stroke-linecap: square"/>
   </g>
   <g id="patch_11">
    <path d="M 108 466.56 
L 777.6 466.56 
" style="fill: none; stroke: #262626; stroke-width: 1.25; stroke-linejoin: miter; stroke-linecap: square"/>
   </g>
   <g id="text_29">
    <!-- sts_residuals/ -->
    <g style="fill: #262626" transform="translate(406.119375 460.56) scale(0.12 -0.12)">
     <defs>
      <path id="ArialMT-69" d="M 425 3934 
L 425 4581 
L 988 4581 
L 988 3934 
L 425 3934 
z
M 425 0 
L 425 3319 
L 988 3319 
L 988 0 
L 425 0 
z
" transform="scale(0.015625)"/>
      <path id="ArialMT-75" d="M 2597 0 
L 2597 488 
Q 2209 -75 1544 -75 
Q 1250 -75 995 37 
Q 741 150 617 320 
Q 494 491 444 738 
Q 409 903 409 1263 
L 409 3319 
L 972 3319 
L 972 1478 
Q 972 1038 1006 884 
Q 1059 663 1231 536 
Q 1403 409 1656 409 
Q 1909 409 2131 539 
Q 2353 669 2445 892 
Q 2538 1116 2538 1541 
L 2538 3319 
L 3100 3319 
L 3100 0 
L 2597 0 
z
" transform="scale(0.015625)"/>
     </defs>
     <use xlink:href="#ArialMT-73"/>
     <use xlink:href="#ArialMT-74" x="50"/>
     <use xlink:href="#ArialMT-73" x="77.783203"/>
     <use xlink:href="#ArialMT-5f" x="127.783203"/>
     <use xlink:href="#ArialMT-72" x="183.398438"/>
     <use xlink:href="#ArialMT-65" x="216.699219"/>
     <use xlink:href="#ArialMT-73" x="272.314453"/>
     <use xlink:href="#ArialMT-69" x="322.314453"/>
     <use xlink:href="#ArialMT-64" x="344.53125"/>
     <use xlink:href="#ArialMT-75" x="400.146484"/>
     <use xlink:href="#ArialMT-61" x="455.761719"/>
     <use xlink:href="#ArialMT-6c" x="511.376953"/>
     <use xlink:href="#ArialMT-73" x="533.59375"/>
     <use xlink:href="#ArialMT-2f" x="583.59375"/>
    </g>
   </g>
  </g>
 </g>
 <defs>
  <clipPath id="pb6ce16fd5a">
   <rect x="108" y="103.68" width="669.6" height="302.4"/>
  </clipPath>
  <clipPath id="p182d9d68e8">
   <rect x="108" y="466.56" width="669.6" height="302.4"/>
  </clipPath>
 </defs>
</svg>
