<?xml version="1.0" encoding="utf-8" standalone="no"?>
<!DOCTYPE svg PUBLIC "-//W3C//DTD SVG 1.1//EN"
  "http://www.w3.org/Graphics/SVG/1.1/DTD/svg11.dtd">
<svg xmlns:xlink="http://www.w3.org/1999/xlink" width="460.8pt" height="345.6pt" viewBox="0 0 460.8 345.6" xmlns="http://www.w3.org/2000/svg" version="1.1">
 <metadata>
  <rdf:RDF xmlns:dc="http://purl.org/dc/elements/1.1/" xmlns:cc="http://creativecommons.org/ns#" xmlns:rdf="http://www.w3.org/1999/02/22-rdf-syntax-ns#">
   <cc:Work>
    <dc:type rdf:resource="http://purl.org/dc/dcmitype/StillImage"/>
    <dc:date>2023-07-11T01:23:46.173147</dc:date>
    <dc:format>image/svg+xml</dc:format>
    <dc:creator>
     <cc:Agent>
      <dc:title>Matplotlib v3.7.1, https://matplotlib.org/</dc:title>
     </cc:Agent>
    </dc:creator>
   </cc:Work>
  </rdf:RDF>
 </metadata>
 <defs>
  <style type="text/css">*{stroke-linejoin: round; stroke-linecap: butt}</style>
 </defs>
 <g id="figure_1">
  <g id="patch_1">
   <path d="M 0 345.6 
L 460.8 345.6 
L 460.8 0 
L 0 0 
z
" style="fill: #ffffff"/>
  </g>
  <g id="axes_1">
   <g id="patch_2">
    <path d="M 68.46 82.984734 
L 447.84 82.984734 
L 447.84 27.76 
L 68.46 27.76 
z
" style="fill: #ffffff"/>
   </g>
   <g id="matplotlib.axis_1">
    <g id="xtick_1">
     <g id="line2d_1">
      <defs>
       <path id="mee28a6d966" d="M 0 0 
L 0 6 
" style="stroke: #262626; stroke-width: 1.25"/>
      </defs>
      <g>
       <use xlink:href="#mee28a6d966" x="114.914694" y="82.984734" style="fill: #262626; stroke: #262626; stroke-width: 1.25"/>
      </g>
     </g>
    </g>
    <g id="xtick_2">
     <g id="line2d_2">
      <g>
       <use xlink:href="#mee28a6d966" x="166.296401" y="82.984734" style="fill: #262626; stroke: #262626; stroke-width: 1.25"/>
      </g>
     </g>
    </g>
    <g id="xtick_3">
     <g id="line2d_3">
      <g>
       <use xlink:href="#mee28a6d966" x="217.678108" y="82.984734" style="fill: #262626; stroke: #262626; stroke-width: 1.25"/>
      </g>
     </g>
    </g>
    <g id="xtick_4">
     <g id="line2d_4">
      <g>
       <use xlink:href="#mee28a6d966" x="269.059814" y="82.984734" style="fill: #262626; stroke: #262626; stroke-width: 1.25"/>
      </g>
     </g>
    </g>
    <g id="xtick_5">
     <g id="line2d_5">
      <g>
       <use xlink:href="#mee28a6d966" x="320.582293" y="82.984734" style="fill: #262626; stroke: #262626; stroke-width: 1.25"/>
      </g>
     </g>
    </g>
    <g id="xtick_6">
     <g id="line2d_6">
      <g>
       <use xlink:href="#mee28a6d966" x="371.964" y="82.984734" style="fill: #262626; stroke: #262626; stroke-width: 1.25"/>
      </g>
     </g>
    </g>
    <g id="xtick_7">
     <g id="line2d_7">
      <g>
       <use xlink:href="#mee28a6d966" x="423.345707" y="82.984734" style="fill: #262626; stroke: #262626; stroke-width: 1.25"/>
      </g>
     </g>
    </g>
   </g>
   <g id="matplotlib.axis_2">
    <g id="ytick_1">
     <g id="line2d_8">
      <defs>
       <path id="m6dc565c6bf" d="M 0 0 
L -6 0 
" style="stroke: #262626; stroke-width: 1.25"/>
      </defs>
      <g>
       <use xlink:href="#m6dc565c6bf" x="68.46" y="80.484116" style="fill: #262626; stroke: #262626; stroke-width: 1.25"/>
      </g>
     </g>
     <g id="text_1">
      <!-- 0 -->
      <g style="fill: #262626" transform="translate(52.842969 84.420913) scale(0.11 -0.11)">
       <defs>
        <path id="ArialMT-30" d="M 266 2259 
Q 266 3072 433 3567 
Q 600 4063 929 4331 
Q 1259 4600 1759 4600 
Q 2128 4600 2406 4451 
Q 2684 4303 2865 4023 
Q 3047 3744 3150 3342 
Q 3253 2941 3253 2259 
Q 3253 1453 3087 958 
Q 2922 463 2592 192 
Q 2263 -78 1759 -78 
Q 1097 -78 719 397 
Q 266 969 266 2259 
z
M 844 2259 
Q 844 1131 1108 757 
Q 1372 384 1759 384 
Q 2147 384 2411 759 
Q 2675 1134 2675 2259 
Q 2675 3391 2411 3762 
Q 2147 4134 1753 4134 
Q 1366 4134 1134 3806 
Q 844 3388 844 2259 
z
" transform="scale(0.015625)"/>
       </defs>
       <use xlink:href="#ArialMT-30"/>
      </g>
     </g>
    </g>
    <g id="ytick_2">
     <g id="line2d_9">
      <g>
       <use xlink:href="#m6dc565c6bf" x="68.46" y="32.496825" style="fill: #262626; stroke: #262626; stroke-width: 1.25"/>
      </g>
     </g>
     <g id="text_2">
      <!-- 5000 -->
      <g style="fill: #262626" transform="translate(34.491875 36.433622) scale(0.11 -0.11)">
       <defs>
        <path id="ArialMT-35" d="M 266 1200 
L 856 1250 
Q 922 819 1161 601 
Q 1400 384 1738 384 
Q 2144 384 2425 690 
Q 2706 997 2706 1503 
Q 2706 1984 2436 2262 
Q 2166 2541 1728 2541 
Q 1456 2541 1237 2417 
Q 1019 2294 894 2097 
L 366 2166 
L 809 4519 
L 3088 4519 
L 3088 3981 
L 1259 3981 
L 1013 2750 
Q 1425 3038 1878 3038 
Q 2478 3038 2890 2622 
Q 3303 2206 3303 1553 
Q 3303 931 2941 478 
Q 2500 -78 1738 -78 
Q 1113 -78 717 272 
Q 322 622 266 1200 
z
" transform="scale(0.015625)"/>
       </defs>
       <use xlink:href="#ArialMT-35"/>
       <use xlink:href="#ArialMT-30" x="55.615234"/>
       <use xlink:href="#ArialMT-30" x="111.230469"/>
       <use xlink:href="#ArialMT-30" x="166.845703"/>
      </g>
     </g>
    </g>
   </g>
   <g id="line2d_10">
    <path d="M 68.46 79.773904 
L 69.445403 79.773904 
L 70.430805 79.52437 
L 73.387013 79.121277 
L 78.314026 78.852548 
L 79.299429 78.545429 
L 84.226442 78.161531 
L 85.211844 78.161531 
L 86.197247 77.816023 
L 89.153455 77.451319 
L 90.138857 77.441722 
L 91.12426 77.009836 
L 92.109662 76.827484 
L 93.095065 76.789094 
L 94.080468 75.963713 
L 95.06587 75.781361 
L 96.051273 75.752569 
L 97.036675 74.044221 
L 98.022078 73.055683 
L 99.007481 72.978904 
L 99.992883 71.021022 
L 100.978286 70.87706 
L 101.963688 70.848268 
L 102.949091 69.514221 
L 104.919896 68.832802 
L 105.905299 68.76562 
L 106.890701 68.487293 
L 107.876104 67.47956 
L 108.861506 66.634984 
L 109.846909 66.193501 
L 110.832312 65.464094 
L 111.817714 65.003416 
L 112.803117 64.76348 
L 113.788519 64.350789 
L 117.73013 80.445726 
L 119.700935 80.148205 
L 120.686338 79.841086 
L 121.67174 79.303629 
L 122.657143 78.487845 
L 124.627948 78.411065 
L 125.613351 77.595281 
L 126.598753 77.364942 
L 127.584156 77.249772 
L 128.569558 77.249772 
L 129.554961 77.105811 
L 130.540364 76.558755 
L 131.525766 76.549158 
L 133.496571 76.040493 
L 134.481974 75.656594 
L 136.452779 75.330281 
L 139.408987 74.735238 
L 140.39439 74.399327 
L 142.365195 73.554751 
L 144.336 73.535556 
L 146.306805 72.182315 
L 147.292208 71.750429 
L 150.248416 69.437442 
L 151.233818 69.024751 
L 152.219221 67.853861 
L 153.204623 67.786679 
L 154.190026 66.942102 
L 155.175429 65.943967 
L 156.160831 64.014878 
L 157.146234 63.899708 
L 160.102442 60.281467 
L 161.087844 57.77653 
L 162.073247 57.28706 
L 163.058649 57.219877 
L 164.044052 56.538458 
L 165.029455 52.497928 
L 167.00026 52.008458 
L 168.971065 79.581955 
L 169.956468 79.178862 
L 170.94187 79.169264 
L 171.927273 78.151934 
L 173.898078 77.374539 
L 174.883481 76.827484 
L 175.868883 76.136467 
L 176.854286 75.742972 
L 186.708312 72.00956 
L 187.693714 71.347336 
L 188.679117 71.328141 
L 189.664519 71.069009 
L 190.649922 70.598734 
L 191.635325 70.502759 
L 192.620727 70.070874 
L 196.562338 61.596318 
L 197.54774 61.078056 
L 198.533143 59.091382 
L 199.518545 55.261996 
L 200.503948 52.977801 
L 201.489351 52.07564 
L 202.474753 49.580301 
L 203.460156 49.465131 
L 204.445558 48.121487 
L 205.430961 40.798627 
L 206.416364 40.587483 
L 207.401766 37.573881 
L 208.387169 37.429919 
L 209.372571 35.529622 
L 210.357974 35.46244 
L 211.343377 33.984431 
L 212.328779 33.888457 
L 213.314182 32.765554 
L 214.299584 32.727164 
L 215.284987 31.738626 
L 216.27039 31.652249 
L 217.255792 30.85566 
L 218.241195 30.77888 
L 219.226597 30.270215 
L 222.182805 80.1674 
L 223.168208 79.745112 
L 225.139013 79.428395 
L 226.124416 78.631806 
L 227.109818 78.622209 
L 228.095221 78.094349 
L 229.080623 77.950387 
L 230.066026 77.672061 
L 232.036831 77.489709 
L 234.007636 77.086616 
L 237.949247 76.587548 
L 242.87626 75.541425 
L 247.803273 73.881065 
L 248.788675 73.276425 
L 249.774078 72.297484 
L 251.744883 71.069009 
L 252.730286 70.214836 
L 253.715688 69.149518 
L 254.701091 67.383586 
L 255.686494 65.185768 
L 257.657299 62.258543 
L 259.628104 60.031933 
L 260.613506 58.083649 
L 261.598909 56.500068 
L 262.584312 55.415555 
L 263.569714 54.609369 
L 264.555117 54.30225 
L 265.540519 53.227335 
L 268.496727 51.58617 
L 270.467532 50.396085 
L 271.452935 49.445936 
L 272.438338 49.081233 
L 274.409143 80.474518 
L 275.394545 80.282569 
L 276.379948 79.841086 
L 278.350753 78.631806 
L 279.336156 78.622209 
L 280.321558 78.094349 
L 283.277766 77.422527 
L 302.000416 76.242039 
L 302.985818 75.790959 
L 308.898234 74.783226 
L 311.854442 73.948247 
L 312.839844 73.33401 
L 313.825247 73.21884 
L 314.810649 72.796552 
L 318.75226 70.214836 
L 320.723065 68.218564 
L 321.708468 64.6867 
L 322.69387 63.755746 
L 323.679273 62.98795 
L 325.650078 62.46009 
L 327.620883 80.407336 
L 328.606286 79.860281 
L 329.591688 79.514773 
L 330.577091 78.948523 
L 331.562494 78.612612 
L 332.547896 77.979179 
L 333.533299 77.82562 
L 334.518701 77.29776 
L 335.504104 77.048226 
L 336.489506 76.635535 
L 337.474909 76.817887 
L 338.460312 76.539561 
L 339.445714 76.386001 
L 340.431117 76.078883 
L 344.372727 75.733374 
L 345.35813 75.44545 
L 346.343532 75.44545 
L 347.328935 75.234306 
L 348.314338 75.195916 
L 349.29974 74.898395 
L 350.285143 74.831213 
L 351.270545 73.996234 
L 353.241351 73.852272 
L 354.226753 73.353204 
L 355.212156 73.286022 
L 356.197558 72.441446 
L 357.182961 72.268692 
L 358.168364 70.31081 
L 359.153766 70.186043 
L 360.139169 69.850132 
L 361.124571 69.830937 
L 362.109974 69.495026 
L 363.095377 69.456637 
L 366.051584 68.986361 
L 367.036987 68.899984 
L 368.02239 67.959433 
L 369.007792 67.633119 
L 369.993195 67.59473 
L 370.978597 67.153247 
L 371.964 67.076467 
L 372.949403 66.289475 
L 374.920208 66.087929 
L 376.891013 65.8192 
L 377.876416 65.147378 
L 379.847221 80.340154 
L 381.818026 79.706722 
L 389.701247 77.979179 
L 393.642857 76.290027 
L 394.62826 75.934921 
L 395.613662 74.888798 
L 397.584468 74.735238 
L 401.526078 72.806149 
L 403.496883 71.270556 
L 404.482286 71.203374 
L 405.467688 70.138056 
L 406.453091 70.080471 
L 407.438494 69.17831 
L 408.423896 67.047675 
L 409.409299 66.942102 
L 410.394701 66.452632 
L 411.380104 66.404645 
L 412.365506 63.496615 
L 413.350909 63.448628 
L 414.336312 60.674962 
L 415.321714 60.559793 
L 416.307117 58.467547 
L 417.292519 58.400365 
L 418.277922 57.459814 
L 420.248727 54.369432 
L 421.23413 53.668818 
L 422.219532 51.778119 
L 423.204935 49.445936 
L 425.17574 43.533902 
L 426.161143 42.554962 
L 427.146545 40.587483 
L 429.117351 38.89833 
L 430.102753 34.982567 
L 433.058961 80.09062 
L 437.000571 79.0349 
L 437.985974 79.342018 
L 438.971377 74.38973 
L 440.942182 72.738967 
L 441.927584 71.577675 
L 442.912987 70.742696 
L 444.883792 69.667781 
L 445.869195 69.427844 
L 447.84 68.535281 
L 447.84 68.535281 
" clip-path="url(#p0b16f66cce)" style="fill: none; stroke: #4c72b0; stroke-width: 1.5; stroke-linecap: round"/>
   </g>
   <g id="patch_3">
    <path d="M 68.46 82.984734 
L 68.46 27.76 
" style="fill: none; stroke: #262626; stroke-width: 1.25; stroke-linejoin: miter; stroke-linecap: square"/>
   </g>
   <g id="patch_4">
    <path d="M 447.84 82.984734 
L 447.84 27.76 
" style="fill: none; stroke: #262626; stroke-width: 1.25; stroke-linejoin: miter; stroke-linecap: square"/>
   </g>
   <g id="patch_5">
    <path d="M 68.46 82.984734 
L 447.84 82.984734 
" style="fill: none; stroke: #262626; stroke-width: 1.25; stroke-linejoin: miter; stroke-linecap: square"/>
   </g>
   <g id="patch_6">
    <path d="M 68.46 27.76 
L 447.84 27.76 
" style="fill: none; stroke: #262626; stroke-width: 1.25; stroke-linejoin: miter; stroke-linecap: square"/>
   </g>
   <g id="text_3">
    <!-- Leptospirosis -->
    <g style="fill: #262626" transform="translate(222.799688 21.76) scale(0.12 -0.12)">
     <defs>
      <path id="ArialMT-4c" d="M 469 0 
L 469 4581 
L 1075 4581 
L 1075 541 
L 3331 541 
L 3331 0 
L 469 0 
z
" transform="scale(0.015625)"/>
      <path id="ArialMT-65" d="M 2694 1069 
L 3275 997 
Q 3138 488 2766 206 
Q 2394 -75 1816 -75 
Q 1088 -75 661 373 
Q 234 822 234 1631 
Q 234 2469 665 2931 
Q 1097 3394 1784 3394 
Q 2450 3394 2872 2941 
Q 3294 2488 3294 1666 
Q 3294 1616 3291 1516 
L 816 1516 
Q 847 969 1125 678 
Q 1403 388 1819 388 
Q 2128 388 2347 550 
Q 2566 713 2694 1069 
z
M 847 1978 
L 2700 1978 
Q 2663 2397 2488 2606 
Q 2219 2931 1791 2931 
Q 1403 2931 1139 2672 
Q 875 2413 847 1978 
z
" transform="scale(0.015625)"/>
      <path id="ArialMT-70" d="M 422 -1272 
L 422 3319 
L 934 3319 
L 934 2888 
Q 1116 3141 1344 3267 
Q 1572 3394 1897 3394 
Q 2322 3394 2647 3175 
Q 2972 2956 3137 2557 
Q 3303 2159 3303 1684 
Q 3303 1175 3120 767 
Q 2938 359 2589 142 
Q 2241 -75 1856 -75 
Q 1575 -75 1351 44 
Q 1128 163 984 344 
L 984 -1272 
L 422 -1272 
z
M 931 1641 
Q 931 1000 1190 694 
Q 1450 388 1819 388 
Q 2194 388 2461 705 
Q 2728 1022 2728 1688 
Q 2728 2322 2467 2637 
Q 2206 2953 1844 2953 
Q 1484 2953 1207 2617 
Q 931 2281 931 1641 
z
" transform="scale(0.015625)"/>
      <path id="ArialMT-74" d="M 1650 503 
L 1731 6 
Q 1494 -44 1306 -44 
Q 1000 -44 831 53 
Q 663 150 594 308 
Q 525 466 525 972 
L 525 2881 
L 113 2881 
L 113 3319 
L 525 3319 
L 525 4141 
L 1084 4478 
L 1084 3319 
L 1650 3319 
L 1650 2881 
L 1084 2881 
L 1084 941 
Q 1084 700 1114 631 
Q 1144 563 1211 522 
Q 1278 481 1403 481 
Q 1497 481 1650 503 
z
" transform="scale(0.015625)"/>
      <path id="ArialMT-6f" d="M 213 1659 
Q 213 2581 725 3025 
Q 1153 3394 1769 3394 
Q 2453 3394 2887 2945 
Q 3322 2497 3322 1706 
Q 3322 1066 3130 698 
Q 2938 331 2570 128 
Q 2203 -75 1769 -75 
Q 1072 -75 642 372 
Q 213 819 213 1659 
z
M 791 1659 
Q 791 1022 1069 705 
Q 1347 388 1769 388 
Q 2188 388 2466 706 
Q 2744 1025 2744 1678 
Q 2744 2294 2464 2611 
Q 2184 2928 1769 2928 
Q 1347 2928 1069 2612 
Q 791 2297 791 1659 
z
" transform="scale(0.015625)"/>
      <path id="ArialMT-73" d="M 197 991 
L 753 1078 
Q 800 744 1014 566 
Q 1228 388 1613 388 
Q 2000 388 2187 545 
Q 2375 703 2375 916 
Q 2375 1106 2209 1216 
Q 2094 1291 1634 1406 
Q 1016 1563 777 1677 
Q 538 1791 414 1992 
Q 291 2194 291 2438 
Q 291 2659 392 2848 
Q 494 3038 669 3163 
Q 800 3259 1026 3326 
Q 1253 3394 1513 3394 
Q 1903 3394 2198 3281 
Q 2494 3169 2634 2976 
Q 2775 2784 2828 2463 
L 2278 2388 
Q 2241 2644 2061 2787 
Q 1881 2931 1553 2931 
Q 1166 2931 1000 2803 
Q 834 2675 834 2503 
Q 834 2394 903 2306 
Q 972 2216 1119 2156 
Q 1203 2125 1616 2013 
Q 2213 1853 2448 1751 
Q 2684 1650 2818 1456 
Q 2953 1263 2953 975 
Q 2953 694 2789 445 
Q 2625 197 2315 61 
Q 2006 -75 1616 -75 
Q 969 -75 630 194 
Q 291 463 197 991 
z
" transform="scale(0.015625)"/>
      <path id="ArialMT-69" d="M 425 3934 
L 425 4581 
L 988 4581 
L 988 3934 
L 425 3934 
z
M 425 0 
L 425 3319 
L 988 3319 
L 988 0 
L 425 0 
z
" transform="scale(0.015625)"/>
      <path id="ArialMT-72" d="M 416 0 
L 416 3319 
L 922 3319 
L 922 2816 
Q 1116 3169 1280 3281 
Q 1444 3394 1641 3394 
Q 1925 3394 2219 3213 
L 2025 2691 
Q 1819 2813 1613 2813 
Q 1428 2813 1281 2702 
Q 1134 2591 1072 2394 
Q 978 2094 978 1738 
L 978 0 
L 416 0 
z
" transform="scale(0.015625)"/>
     </defs>
     <use xlink:href="#ArialMT-4c"/>
     <use xlink:href="#ArialMT-65" x="55.615234"/>
     <use xlink:href="#ArialMT-70" x="111.230469"/>
     <use xlink:href="#ArialMT-74" x="166.845703"/>
     <use xlink:href="#ArialMT-6f" x="194.628906"/>
     <use xlink:href="#ArialMT-73" x="250.244141"/>
     <use xlink:href="#ArialMT-70" x="300.244141"/>
     <use xlink:href="#ArialMT-69" x="355.859375"/>
     <use xlink:href="#ArialMT-72" x="378.076172"/>
     <use xlink:href="#ArialMT-6f" x="411.376953"/>
     <use xlink:href="#ArialMT-73" x="466.992188"/>
     <use xlink:href="#ArialMT-69" x="516.992188"/>
     <use xlink:href="#ArialMT-73" x="539.208984"/>
    </g>
   </g>
  </g>
  <g id="axes_2">
   <g id="patch_7">
    <path d="M 68.46 159.303156 
L 447.84 159.303156 
L 447.84 104.078422 
L 68.46 104.078422 
z
" style="fill: #ffffff"/>
   </g>
   <g id="matplotlib.axis_3">
    <g id="xtick_8">
     <g id="line2d_11">
      <g>
       <use xlink:href="#mee28a6d966" x="114.914694" y="159.303156" style="fill: #262626; stroke: #262626; stroke-width: 1.25"/>
      </g>
     </g>
    </g>
    <g id="xtick_9">
     <g id="line2d_12">
      <g>
       <use xlink:href="#mee28a6d966" x="166.296401" y="159.303156" style="fill: #262626; stroke: #262626; stroke-width: 1.25"/>
      </g>
     </g>
    </g>
    <g id="xtick_10">
     <g id="line2d_13">
      <g>
       <use xlink:href="#mee28a6d966" x="217.678108" y="159.303156" style="fill: #262626; stroke: #262626; stroke-width: 1.25"/>
      </g>
     </g>
    </g>
    <g id="xtick_11">
     <g id="line2d_14">
      <g>
       <use xlink:href="#mee28a6d966" x="269.059814" y="159.303156" style="fill: #262626; stroke: #262626; stroke-width: 1.25"/>
      </g>
     </g>
    </g>
    <g id="xtick_12">
     <g id="line2d_15">
      <g>
       <use xlink:href="#mee28a6d966" x="320.582293" y="159.303156" style="fill: #262626; stroke: #262626; stroke-width: 1.25"/>
      </g>
     </g>
    </g>
    <g id="xtick_13">
     <g id="line2d_16">
      <g>
       <use xlink:href="#mee28a6d966" x="371.964" y="159.303156" style="fill: #262626; stroke: #262626; stroke-width: 1.25"/>
      </g>
     </g>
    </g>
    <g id="xtick_14">
     <g id="line2d_17">
      <g>
       <use xlink:href="#mee28a6d966" x="423.345707" y="159.303156" style="fill: #262626; stroke: #262626; stroke-width: 1.25"/>
      </g>
     </g>
    </g>
   </g>
   <g id="matplotlib.axis_4">
    <g id="ytick_3">
     <g id="line2d_18">
      <g>
       <use xlink:href="#m6dc565c6bf" x="68.46" y="145.231812" style="fill: #262626; stroke: #262626; stroke-width: 1.25"/>
      </g>
     </g>
     <g id="text_4">
      <!-- 1000 -->
      <g style="fill: #262626" transform="translate(34.491875 149.168609) scale(0.11 -0.11)">
       <defs>
        <path id="ArialMT-31" d="M 2384 0 
L 1822 0 
L 1822 3584 
Q 1619 3391 1289 3197 
Q 959 3003 697 2906 
L 697 3450 
Q 1169 3672 1522 3987 
Q 1875 4303 2022 4600 
L 2384 4600 
L 2384 0 
z
" transform="scale(0.015625)"/>
       </defs>
       <use xlink:href="#ArialMT-31"/>
       <use xlink:href="#ArialMT-30" x="55.615234"/>
       <use xlink:href="#ArialMT-30" x="111.230469"/>
       <use xlink:href="#ArialMT-30" x="166.845703"/>
      </g>
     </g>
    </g>
    <g id="ytick_4">
     <g id="line2d_19">
      <g>
       <use xlink:href="#m6dc565c6bf" x="68.46" y="117.356318" style="fill: #262626; stroke: #262626; stroke-width: 1.25"/>
      </g>
     </g>
     <g id="text_5">
      <!-- 2000 -->
      <g style="fill: #262626" transform="translate(34.491875 121.293115) scale(0.11 -0.11)">
       <defs>
        <path id="ArialMT-32" d="M 3222 541 
L 3222 0 
L 194 0 
Q 188 203 259 391 
Q 375 700 629 1000 
Q 884 1300 1366 1694 
Q 2113 2306 2375 2664 
Q 2638 3022 2638 3341 
Q 2638 3675 2398 3904 
Q 2159 4134 1775 4134 
Q 1369 4134 1125 3890 
Q 881 3647 878 3216 
L 300 3275 
Q 359 3922 746 4261 
Q 1134 4600 1788 4600 
Q 2447 4600 2831 4234 
Q 3216 3869 3216 3328 
Q 3216 3053 3103 2787 
Q 2991 2522 2730 2228 
Q 2469 1934 1863 1422 
Q 1356 997 1212 845 
Q 1069 694 975 541 
L 3222 541 
z
" transform="scale(0.015625)"/>
       </defs>
       <use xlink:href="#ArialMT-32"/>
       <use xlink:href="#ArialMT-30" x="55.615234"/>
       <use xlink:href="#ArialMT-30" x="111.230469"/>
       <use xlink:href="#ArialMT-30" x="166.845703"/>
      </g>
     </g>
    </g>
    <g id="text_6">
     <!-- Trend -->
     <g style="fill: #262626" transform="translate(28.106875 147.137976) rotate(-90) scale(0.12 -0.12)">
      <defs>
       <path id="ArialMT-54" d="M 1659 0 
L 1659 4041 
L 150 4041 
L 150 4581 
L 3781 4581 
L 3781 4041 
L 2266 4041 
L 2266 0 
L 1659 0 
z
" transform="scale(0.015625)"/>
       <path id="ArialMT-6e" d="M 422 0 
L 422 3319 
L 928 3319 
L 928 2847 
Q 1294 3394 1984 3394 
Q 2284 3394 2536 3286 
Q 2788 3178 2913 3003 
Q 3038 2828 3088 2588 
Q 3119 2431 3119 2041 
L 3119 0 
L 2556 0 
L 2556 2019 
Q 2556 2363 2490 2533 
Q 2425 2703 2258 2804 
Q 2091 2906 1866 2906 
Q 1506 2906 1245 2678 
Q 984 2450 984 1813 
L 984 0 
L 422 0 
z
" transform="scale(0.015625)"/>
       <path id="ArialMT-64" d="M 2575 0 
L 2575 419 
Q 2259 -75 1647 -75 
Q 1250 -75 917 144 
Q 584 363 401 755 
Q 219 1147 219 1656 
Q 219 2153 384 2558 
Q 550 2963 881 3178 
Q 1213 3394 1622 3394 
Q 1922 3394 2156 3267 
Q 2391 3141 2538 2938 
L 2538 4581 
L 3097 4581 
L 3097 0 
L 2575 0 
z
M 797 1656 
Q 797 1019 1065 703 
Q 1334 388 1700 388 
Q 2069 388 2326 689 
Q 2584 991 2584 1609 
Q 2584 2291 2321 2609 
Q 2059 2928 1675 2928 
Q 1300 2928 1048 2622 
Q 797 2316 797 1656 
z
" transform="scale(0.015625)"/>
      </defs>
      <use xlink:href="#ArialMT-54"/>
      <use xlink:href="#ArialMT-72" x="57.333984"/>
      <use xlink:href="#ArialMT-65" x="90.634766"/>
      <use xlink:href="#ArialMT-6e" x="146.25"/>
      <use xlink:href="#ArialMT-64" x="201.865234"/>
     </g>
    </g>
   </g>
   <g id="line2d_20">
    <path d="M 68.46 156.792941 
L 80.284831 156.27064 
L 90.138857 155.539446 
L 113.788519 153.588163 
L 119.700935 153.376499 
L 123.642545 153.01905 
L 126.598753 152.539019 
L 129.554961 151.8074 
L 132.511169 150.8357 
L 136.452779 149.251962 
L 142.365195 146.540615 
L 151.233818 142.216317 
L 154.190026 140.588817 
L 157.146234 138.721625 
L 160.102442 136.507696 
L 162.073247 134.798172 
L 164.044052 132.881758 
L 167.00026 129.621331 
L 168.971065 128.454606 
L 175.868883 120.239967 
L 176.854286 119.172388 
L 186.708312 118.152968 
L 188.679117 116.278326 
L 190.649922 114.648346 
L 192.620727 113.284489 
L 194.591532 112.706091 
L 196.562338 111.75828 
L 198.533143 111.085176 
L 200.503948 110.675551 
L 202.474753 110.512261 
L 204.445558 110.573633 
L 206.416364 110.834588 
L 208.387169 111.269155 
L 211.343377 112.195057 
L 214.299584 113.391229 
L 217.255792 114.810718 
L 219.226597 115.878971 
L 222.182805 116.455067 
L 225.139013 118.38196 
L 228.095221 120.598018 
L 234.993039 126.216051 
L 239.920052 130.090994 
L 242.87626 132.171447 
L 245.832468 133.962151 
L 248.788675 135.397606 
L 250.759481 136.14055 
L 252.730286 136.713451 
L 255.686494 137.289041 
L 258.642701 137.61056 
L 266.525922 138.269054 
L 269.48213 138.843798 
L 276.379948 140.639957 
L 280.321558 142.271701 
L 283.277766 143.655112 
L 299.044208 144.133986 
L 306.927429 147.995162 
L 310.869039 148.910325 
L 314.810649 150.578083 
L 317.766857 150.947817 
L 318.75226 151.293961 
L 320.723065 151.61437 
L 323.679273 152.405679 
L 332.547896 153.27932 
L 336.489506 153.314009 
L 345.35813 153.27359 
L 349.29974 153.181241 
L 352.255948 152.951278 
L 355.212156 152.540438 
L 359.153766 151.725366 
L 369.993195 149.202897 
L 372.949403 148.832228 
L 377.876416 148.498642 
L 381.818026 148.282929 
L 384.774234 147.889055 
L 386.745039 147.45044 
L 388.715844 146.826716 
L 390.686649 146.002899 
L 392.657455 144.984197 
L 395.613662 143.134061 
L 398.56987 140.979695 
L 400.540675 139.425901 
L 402.511481 137.629878 
L 405.467688 135.272916 
L 410.394701 131.725145 
L 429.117351 118.498712 
L 430.102753 117.784553 
L 433.058961 117.069794 
L 444.883792 108.623247 
L 447.84 106.588637 
L 447.84 106.588637 
" clip-path="url(#p9249bc5039)" style="fill: none; stroke: #4c72b0; stroke-width: 1.5; stroke-linecap: round"/>
   </g>
   <g id="patch_8">
    <path d="M 68.46 159.303156 
L 68.46 104.078422 
" style="fill: none; stroke: #262626; stroke-width: 1.25; stroke-linejoin: miter; stroke-linecap: square"/>
   </g>
   <g id="patch_9">
    <path d="M 447.84 159.303156 
L 447.84 104.078422 
" style="fill: none; stroke: #262626; stroke-width: 1.25; stroke-linejoin: miter; stroke-linecap: square"/>
   </g>
   <g id="patch_10">
    <path d="M 68.46 159.303156 
L 447.84 159.303156 
" style="fill: none; stroke: #262626; stroke-width: 1.25; stroke-linejoin: miter; stroke-linecap: square"/>
   </g>
   <g id="patch_11">
    <path d="M 68.46 104.078422 
L 447.84 104.078422 
" style="fill: none; stroke: #262626; stroke-width: 1.25; stroke-linejoin: miter; stroke-linecap: square"/>
   </g>
  </g>
  <g id="axes_3">
   <g id="patch_12">
    <path d="M 68.46 235.621578 
L 447.84 235.621578 
L 447.84 180.396844 
L 68.46 180.396844 
z
" style="fill: #ffffff"/>
   </g>
   <g id="matplotlib.axis_5">
    <g id="xtick_15">
     <g id="line2d_21">
      <g>
       <use xlink:href="#mee28a6d966" x="114.914694" y="235.621578" style="fill: #262626; stroke: #262626; stroke-width: 1.25"/>
      </g>
     </g>
    </g>
    <g id="xtick_16">
     <g id="line2d_22">
      <g>
       <use xlink:href="#mee28a6d966" x="166.296401" y="235.621578" style="fill: #262626; stroke: #262626; stroke-width: 1.25"/>
      </g>
     </g>
    </g>
    <g id="xtick_17">
     <g id="line2d_23">
      <g>
       <use xlink:href="#mee28a6d966" x="217.678108" y="235.621578" style="fill: #262626; stroke: #262626; stroke-width: 1.25"/>
      </g>
     </g>
    </g>
    <g id="xtick_18">
     <g id="line2d_24">
      <g>
       <use xlink:href="#mee28a6d966" x="269.059814" y="235.621578" style="fill: #262626; stroke: #262626; stroke-width: 1.25"/>
      </g>
     </g>
    </g>
    <g id="xtick_19">
     <g id="line2d_25">
      <g>
       <use xlink:href="#mee28a6d966" x="320.582293" y="235.621578" style="fill: #262626; stroke: #262626; stroke-width: 1.25"/>
      </g>
     </g>
    </g>
    <g id="xtick_20">
     <g id="line2d_26">
      <g>
       <use xlink:href="#mee28a6d966" x="371.964" y="235.621578" style="fill: #262626; stroke: #262626; stroke-width: 1.25"/>
      </g>
     </g>
    </g>
    <g id="xtick_21">
     <g id="line2d_27">
      <g>
       <use xlink:href="#mee28a6d966" x="423.345707" y="235.621578" style="fill: #262626; stroke: #262626; stroke-width: 1.25"/>
      </g>
     </g>
    </g>
   </g>
   <g id="matplotlib.axis_6">
    <g id="ytick_5">
     <g id="line2d_28">
      <g>
       <use xlink:href="#m6dc565c6bf" x="68.46" y="234.35666" style="fill: #262626; stroke: #262626; stroke-width: 1.25"/>
      </g>
     </g>
     <g id="text_7">
      <!-- −2000 -->
      <g style="fill: #262626" transform="translate(28.067187 238.293457) scale(0.11 -0.11)">
       <defs>
        <path id="ArialMT-2212" d="M 3381 1997 
L 356 1997 
L 356 2522 
L 3381 2522 
L 3381 1997 
z
" transform="scale(0.015625)"/>
       </defs>
       <use xlink:href="#ArialMT-2212"/>
       <use xlink:href="#ArialMT-32" x="58.398438"/>
       <use xlink:href="#ArialMT-30" x="114.013672"/>
       <use xlink:href="#ArialMT-30" x="169.628906"/>
       <use xlink:href="#ArialMT-30" x="225.244141"/>
      </g>
     </g>
    </g>
    <g id="ytick_6">
     <g id="line2d_29">
      <g>
       <use xlink:href="#m6dc565c6bf" x="68.46" y="204.733041" style="fill: #262626; stroke: #262626; stroke-width: 1.25"/>
      </g>
     </g>
     <g id="text_8">
      <!-- 0 -->
      <g style="fill: #262626" transform="translate(52.842969 208.669838) scale(0.11 -0.11)">
       <use xlink:href="#ArialMT-30"/>
      </g>
     </g>
    </g>
    <g id="text_9">
     <!-- Season -->
     <g style="fill: #262626" transform="translate(21.682187 228.357649) rotate(-90) scale(0.12 -0.12)">
      <defs>
       <path id="ArialMT-53" d="M 288 1472 
L 859 1522 
Q 900 1178 1048 958 
Q 1197 738 1509 602 
Q 1822 466 2213 466 
Q 2559 466 2825 569 
Q 3091 672 3220 851 
Q 3350 1031 3350 1244 
Q 3350 1459 3225 1620 
Q 3100 1781 2813 1891 
Q 2628 1963 1997 2114 
Q 1366 2266 1113 2400 
Q 784 2572 623 2826 
Q 463 3081 463 3397 
Q 463 3744 659 4045 
Q 856 4347 1234 4503 
Q 1613 4659 2075 4659 
Q 2584 4659 2973 4495 
Q 3363 4331 3572 4012 
Q 3781 3694 3797 3291 
L 3216 3247 
Q 3169 3681 2898 3903 
Q 2628 4125 2100 4125 
Q 1550 4125 1298 3923 
Q 1047 3722 1047 3438 
Q 1047 3191 1225 3031 
Q 1400 2872 2139 2705 
Q 2878 2538 3153 2413 
Q 3553 2228 3743 1945 
Q 3934 1663 3934 1294 
Q 3934 928 3725 604 
Q 3516 281 3123 101 
Q 2731 -78 2241 -78 
Q 1619 -78 1198 103 
Q 778 284 539 648 
Q 300 1013 288 1472 
z
" transform="scale(0.015625)"/>
       <path id="ArialMT-61" d="M 2588 409 
Q 2275 144 1986 34 
Q 1697 -75 1366 -75 
Q 819 -75 525 192 
Q 231 459 231 875 
Q 231 1119 342 1320 
Q 453 1522 633 1644 
Q 813 1766 1038 1828 
Q 1203 1872 1538 1913 
Q 2219 1994 2541 2106 
Q 2544 2222 2544 2253 
Q 2544 2597 2384 2738 
Q 2169 2928 1744 2928 
Q 1347 2928 1158 2789 
Q 969 2650 878 2297 
L 328 2372 
Q 403 2725 575 2942 
Q 747 3159 1072 3276 
Q 1397 3394 1825 3394 
Q 2250 3394 2515 3294 
Q 2781 3194 2906 3042 
Q 3031 2891 3081 2659 
Q 3109 2516 3109 2141 
L 3109 1391 
Q 3109 606 3145 398 
Q 3181 191 3288 0 
L 2700 0 
Q 2613 175 2588 409 
z
M 2541 1666 
Q 2234 1541 1622 1453 
Q 1275 1403 1131 1340 
Q 988 1278 909 1158 
Q 831 1038 831 891 
Q 831 666 1001 516 
Q 1172 366 1500 366 
Q 1825 366 2078 508 
Q 2331 650 2450 897 
Q 2541 1088 2541 1459 
L 2541 1666 
z
" transform="scale(0.015625)"/>
      </defs>
      <use xlink:href="#ArialMT-53"/>
      <use xlink:href="#ArialMT-65" x="66.699219"/>
      <use xlink:href="#ArialMT-61" x="122.314453"/>
      <use xlink:href="#ArialMT-73" x="177.929688"/>
      <use xlink:href="#ArialMT-6f" x="227.929688"/>
      <use xlink:href="#ArialMT-6e" x="283.544922"/>
     </g>
    </g>
   </g>
   <g id="line2d_30">
    <path d="M 68.46 207.929255 
L 69.445403 214.537105 
L 71.416208 213.793829 
L 72.40161 213.461878 
L 73.387013 213.617389 
L 75.357818 213.124639 
L 77.328623 213.068381 
L 78.314026 213.272932 
L 79.299429 212.248858 
L 80.284831 211.894862 
L 81.270234 212.105098 
L 83.241039 212.053348 
L 84.226442 212.007383 
L 85.211844 212.078323 
L 86.197247 210.882984 
L 88.168052 209.92218 
L 89.153455 209.849338 
L 90.138857 209.469625 
L 91.12426 208.089398 
L 92.109662 207.428579 
L 93.095065 207.71958 
L 94.080468 206.625941 
L 96.051273 206.523075 
L 97.036675 203.257031 
L 99.007481 201.265199 
L 99.992883 196.313232 
L 101.963688 195.235453 
L 103.934494 192.417732 
L 105.905299 190.457422 
L 106.890701 190.116996 
L 108.861506 187.166235 
L 109.846909 186.094431 
L 110.832312 183.977036 
L 111.817714 195.262301 
L 112.803117 195.137015 
L 113.788519 194.546447 
L 117.73013 207.882093 
L 118.715532 205.793028 
L 119.700935 209.381222 
L 120.686338 218.019452 
L 123.642545 216.751817 
L 124.627948 216.694435 
L 125.613351 216.176013 
L 128.569558 215.69544 
L 129.554961 214.359993 
L 130.540364 213.944615 
L 131.525766 213.99852 
L 135.467377 213.323178 
L 136.452779 211.747742 
L 138.423584 210.126282 
L 139.408987 209.862231 
L 140.39439 209.099427 
L 141.379792 207.402782 
L 142.365195 206.321301 
L 143.350597 205.986686 
L 144.336 204.665792 
L 145.321403 204.124493 
L 146.306805 203.219296 
L 147.292208 199.450752 
L 148.27761 198.178531 
L 150.248416 195.168695 
L 151.233818 194.159708 
L 152.219221 193.472325 
L 153.204623 191.937154 
L 156.160831 188.758524 
L 157.146234 188.231776 
L 159.117039 185.613348 
L 160.102442 184.717634 
L 161.087844 182.907059 
L 162.073247 198.232252 
L 163.058649 197.914683 
L 164.044052 197.250524 
L 165.029455 205.034262 
L 166.014857 209.26523 
L 167.00026 211.188065 
L 168.971065 220.506479 
L 171.927273 219.031474 
L 172.912675 218.757187 
L 173.898078 218.205867 
L 176.854286 217.110169 
L 186.708312 215.620639 
L 187.693714 215.157959 
L 188.679117 215.036634 
L 189.664519 214.71407 
L 190.649922 214.260312 
L 192.620727 213.695893 
L 194.591532 211.937406 
L 196.562338 209.846256 
L 197.54774 209.418328 
L 198.533143 208.361088 
L 199.518545 206.538218 
L 200.503948 205.167023 
L 201.489351 204.217993 
L 202.474753 202.779143 
L 203.460156 201.786339 
L 204.445558 199.990961 
L 205.430961 196.079941 
L 206.416364 194.602584 
L 207.401766 192.665273 
L 208.387169 195.053152 
L 209.372571 193.7186 
L 210.357974 192.883461 
L 211.343377 191.239028 
L 212.328779 191.098655 
L 213.314182 189.782354 
L 214.299584 188.782763 
L 215.284987 188.123319 
L 217.255792 185.869013 
L 218.241195 185.159706 
L 219.226597 183.654018 
L 222.182805 200.619393 
L 223.168208 200.163371 
L 224.15361 199.470432 
L 225.139013 202.071988 
L 226.124416 211.463708 
L 227.109818 212.057373 
L 228.095221 222.463375 
L 231.051429 220.930086 
L 234.993039 218.957915 
L 235.978442 218.326931 
L 236.963844 216.646958 
L 237.949247 216.202139 
L 238.934649 215.914578 
L 239.920052 215.463313 
L 240.905455 214.786488 
L 241.890857 214.501763 
L 242.87626 214.040491 
L 243.861662 212.081642 
L 245.832468 209.555688 
L 246.81787 209.00451 
L 247.803273 207.691158 
L 248.788675 205.751732 
L 251.744883 200.972206 
L 252.730286 199.620763 
L 253.715688 197.016577 
L 254.701091 192.862814 
L 255.686494 191.240419 
L 256.671896 188.994916 
L 257.657299 195.264901 
L 258.642701 193.658304 
L 259.628104 192.816971 
L 260.613506 191.009607 
L 261.598909 192.331449 
L 262.584312 190.923786 
L 265.540519 188.464191 
L 266.525922 187.512187 
L 267.511325 187.067406 
L 268.496727 186.023191 
L 269.48213 205.265392 
L 271.452935 203.957491 
L 272.438338 202.887117 
L 274.409143 216.277027 
L 275.394545 216.019908 
L 276.379948 219.643449 
L 277.365351 219.143318 
L 278.350753 218.432956 
L 279.336156 218.143568 
L 281.306961 217.170598 
L 282.292364 216.136719 
L 283.277766 215.739602 
L 299.044208 215.097283 
L 300.02961 213.906296 
L 302.000416 213.058806 
L 302.985818 212.439078 
L 303.971221 211.529014 
L 304.956623 211.100826 
L 305.942026 210.186085 
L 306.927429 209.102903 
L 308.898234 208.149335 
L 310.869039 207.418637 
L 311.854442 206.277177 
L 312.839844 205.42958 
L 313.825247 203.648279 
L 314.810649 202.654392 
L 317.766857 200.729719 
L 318.75226 199.669111 
L 320.723065 198.392915 
L 321.708468 195.957299 
L 322.69387 193.136369 
L 323.679273 191.648353 
L 325.650078 189.791053 
L 327.620883 194.956467 
L 328.606286 193.153173 
L 329.591688 191.846029 
L 330.577091 190.262274 
L 331.562494 194.498785 
L 332.547896 193.345474 
L 333.533299 192.629103 
L 334.518701 191.063488 
L 335.504104 202.471863 
L 336.489506 201.833918 
L 337.474909 201.570623 
L 338.460312 200.92385 
L 339.445714 210.733638 
L 340.431117 210.419062 
L 341.416519 208.684642 
L 342.401922 207.901013 
L 343.387325 217.18465 
L 344.372727 216.694542 
L 345.35813 217.576877 
L 346.343532 217.134415 
L 347.328935 216.345387 
L 348.314338 216.215823 
L 350.285143 215.450459 
L 351.270545 211.929802 
L 352.255948 211.594601 
L 354.226753 210.269587 
L 356.197558 209.40397 
L 359.153766 207.067199 
L 360.139169 205.625684 
L 361.124571 205.456411 
L 362.109974 204.902867 
L 363.095377 204.696339 
L 364.080779 202.819672 
L 365.066182 202.499213 
L 366.051584 200.725454 
L 367.036987 200.41252 
L 368.02239 198.098514 
L 369.007792 197.672533 
L 369.993195 196.444002 
L 370.978597 194.123638 
L 371.964 192.605147 
L 372.949403 191.366179 
L 373.934805 189.841349 
L 374.920208 194.037198 
L 376.891013 189.968259 
L 377.876416 188.701821 
L 379.847221 194.493316 
L 380.832623 193.612878 
L 381.818026 192.946367 
L 382.803429 190.399663 
L 383.788831 217.482955 
L 384.774234 217.178872 
L 385.759636 217.124817 
L 386.745039 216.848559 
L 387.730442 217.367432 
L 388.715844 217.446363 
L 389.701247 214.36593 
L 390.686649 213.757426 
L 391.672052 217.81506 
L 392.657455 217.072954 
L 393.642857 216.09377 
L 394.62826 215.733074 
L 395.613662 214.956511 
L 396.599065 214.968926 
L 398.56987 214.422552 
L 399.555273 207.441056 
L 400.540675 207.193671 
L 401.526078 206.602383 
L 402.511481 206.380231 
L 404.482286 205.524254 
L 406.453091 203.569086 
L 407.438494 202.836779 
L 408.423896 200.847138 
L 409.409299 201.553229 
L 410.394701 201.387941 
L 411.380104 201.725055 
L 412.365506 199.075654 
L 413.350909 199.296965 
L 414.336312 197.423808 
L 415.321714 197.812159 
L 416.307117 195.15715 
L 417.292519 195.381201 
L 418.277922 194.3069 
L 419.263325 192.240615 
L 420.248727 191.951448 
L 421.23413 191.044 
L 422.219532 189.818863 
L 423.204935 192.159996 
L 425.17574 187.055717 
L 426.161143 186.149912 
L 427.146545 193.808747 
L 429.117351 192.57085 
L 430.102753 188.965011 
L 433.058961 232.880078 
L 435.029766 233.045404 
L 436.015169 233.111363 
L 437.000571 225.398091 
L 437.985974 225.913561 
L 438.971377 221.397774 
L 439.956779 220.879772 
L 440.942182 218.463501 
L 441.927584 217.452979 
L 442.912987 215.235845 
L 443.89839 214.966634 
L 444.883792 214.217362 
L 445.869195 214.362464 
L 446.854597 214.303643 
L 447.84 214.06777 
L 447.84 214.06777 
" clip-path="url(#p7ba98ea9ff)" style="fill: none; stroke: #4c72b0; stroke-width: 1.5; stroke-linecap: round"/>
   </g>
   <g id="patch_13">
    <path d="M 68.46 235.621578 
L 68.46 180.396844 
" style="fill: none; stroke: #262626; stroke-width: 1.25; stroke-linejoin: miter; stroke-linecap: square"/>
   </g>
   <g id="patch_14">
    <path d="M 447.84 235.621578 
L 447.84 180.396844 
" style="fill: none; stroke: #262626; stroke-width: 1.25; stroke-linejoin: miter; stroke-linecap: square"/>
   </g>
   <g id="patch_15">
    <path d="M 68.46 235.621578 
L 447.84 235.621578 
" style="fill: none; stroke: #262626; stroke-width: 1.25; stroke-linejoin: miter; stroke-linecap: square"/>
   </g>
   <g id="patch_16">
    <path d="M 68.46 180.396844 
L 447.84 180.396844 
" style="fill: none; stroke: #262626; stroke-width: 1.25; stroke-linejoin: miter; stroke-linecap: square"/>
   </g>
  </g>
  <g id="axes_4">
   <g id="patch_17">
    <path d="M 68.46 311.94 
L 447.84 311.94 
L 447.84 256.715266 
L 68.46 256.715266 
z
" style="fill: #ffffff"/>
   </g>
   <g id="line2d_31">
    <path d="M 68.46 282.516954 
L 447.84 282.516954 
" clip-path="url(#p5a9c4cba9c)" style="fill: none; stroke: #000000; stroke-width: 1.5; stroke-linecap: round"/>
   </g>
   <g id="matplotlib.axis_7">
    <g id="xtick_22">
     <g id="line2d_32">
      <g>
       <use xlink:href="#mee28a6d966" x="114.914694" y="311.94" style="fill: #262626; stroke: #262626; stroke-width: 1.25"/>
      </g>
     </g>
     <g id="text_10">
      <!-- 2017 -->
      <g style="fill: #262626" transform="translate(102.680631 329.313594) scale(0.11 -0.11)">
       <defs>
        <path id="ArialMT-37" d="M 303 3981 
L 303 4522 
L 3269 4522 
L 3269 4084 
Q 2831 3619 2401 2847 
Q 1972 2075 1738 1259 
Q 1569 684 1522 0 
L 944 0 
Q 953 541 1156 1306 
Q 1359 2072 1739 2783 
Q 2119 3494 2547 3981 
L 303 3981 
z
" transform="scale(0.015625)"/>
       </defs>
       <use xlink:href="#ArialMT-32"/>
       <use xlink:href="#ArialMT-30" x="55.615234"/>
       <use xlink:href="#ArialMT-31" x="111.230469"/>
       <use xlink:href="#ArialMT-37" x="166.845703"/>
      </g>
     </g>
    </g>
    <g id="xtick_23">
     <g id="line2d_33">
      <g>
       <use xlink:href="#mee28a6d966" x="166.296401" y="311.94" style="fill: #262626; stroke: #262626; stroke-width: 1.25"/>
      </g>
     </g>
     <g id="text_11">
      <!-- 2018 -->
      <g style="fill: #262626" transform="translate(154.062338 329.313594) scale(0.11 -0.11)">
       <defs>
        <path id="ArialMT-38" d="M 1131 2484 
Q 781 2613 612 2850 
Q 444 3088 444 3419 
Q 444 3919 803 4259 
Q 1163 4600 1759 4600 
Q 2359 4600 2725 4251 
Q 3091 3903 3091 3403 
Q 3091 3084 2923 2848 
Q 2756 2613 2416 2484 
Q 2838 2347 3058 2040 
Q 3278 1734 3278 1309 
Q 3278 722 2862 322 
Q 2447 -78 1769 -78 
Q 1091 -78 675 323 
Q 259 725 259 1325 
Q 259 1772 486 2073 
Q 713 2375 1131 2484 
z
M 1019 3438 
Q 1019 3113 1228 2906 
Q 1438 2700 1772 2700 
Q 2097 2700 2305 2904 
Q 2513 3109 2513 3406 
Q 2513 3716 2298 3927 
Q 2084 4138 1766 4138 
Q 1444 4138 1231 3931 
Q 1019 3725 1019 3438 
z
M 838 1322 
Q 838 1081 952 856 
Q 1066 631 1291 507 
Q 1516 384 1775 384 
Q 2178 384 2440 643 
Q 2703 903 2703 1303 
Q 2703 1709 2433 1975 
Q 2163 2241 1756 2241 
Q 1359 2241 1098 1978 
Q 838 1716 838 1322 
z
" transform="scale(0.015625)"/>
       </defs>
       <use xlink:href="#ArialMT-32"/>
       <use xlink:href="#ArialMT-30" x="55.615234"/>
       <use xlink:href="#ArialMT-31" x="111.230469"/>
       <use xlink:href="#ArialMT-38" x="166.845703"/>
      </g>
     </g>
    </g>
    <g id="xtick_24">
     <g id="line2d_34">
      <g>
       <use xlink:href="#mee28a6d966" x="217.678108" y="311.94" style="fill: #262626; stroke: #262626; stroke-width: 1.25"/>
      </g>
     </g>
     <g id="text_12">
      <!-- 2019 -->
      <g style="fill: #262626" transform="translate(205.444045 329.313594) scale(0.11 -0.11)">
       <defs>
        <path id="ArialMT-39" d="M 350 1059 
L 891 1109 
Q 959 728 1153 556 
Q 1347 384 1650 384 
Q 1909 384 2104 503 
Q 2300 622 2425 820 
Q 2550 1019 2634 1356 
Q 2719 1694 2719 2044 
Q 2719 2081 2716 2156 
Q 2547 1888 2255 1720 
Q 1963 1553 1622 1553 
Q 1053 1553 659 1965 
Q 266 2378 266 3053 
Q 266 3750 677 4175 
Q 1088 4600 1706 4600 
Q 2153 4600 2523 4359 
Q 2894 4119 3086 3673 
Q 3278 3228 3278 2384 
Q 3278 1506 3087 986 
Q 2897 466 2520 194 
Q 2144 -78 1638 -78 
Q 1100 -78 759 220 
Q 419 519 350 1059 
z
M 2653 3081 
Q 2653 3566 2395 3850 
Q 2138 4134 1775 4134 
Q 1400 4134 1122 3828 
Q 844 3522 844 3034 
Q 844 2597 1108 2323 
Q 1372 2050 1759 2050 
Q 2150 2050 2401 2323 
Q 2653 2597 2653 3081 
z
" transform="scale(0.015625)"/>
       </defs>
       <use xlink:href="#ArialMT-32"/>
       <use xlink:href="#ArialMT-30" x="55.615234"/>
       <use xlink:href="#ArialMT-31" x="111.230469"/>
       <use xlink:href="#ArialMT-39" x="166.845703"/>
      </g>
     </g>
    </g>
    <g id="xtick_25">
     <g id="line2d_35">
      <g>
       <use xlink:href="#mee28a6d966" x="269.059814" y="311.94" style="fill: #262626; stroke: #262626; stroke-width: 1.25"/>
      </g>
     </g>
     <g id="text_13">
      <!-- 2020 -->
      <g style="fill: #262626" transform="translate(256.825752 329.313594) scale(0.11 -0.11)">
       <use xlink:href="#ArialMT-32"/>
       <use xlink:href="#ArialMT-30" x="55.615234"/>
       <use xlink:href="#ArialMT-32" x="111.230469"/>
       <use xlink:href="#ArialMT-30" x="166.845703"/>
      </g>
     </g>
    </g>
    <g id="xtick_26">
     <g id="line2d_36">
      <g>
       <use xlink:href="#mee28a6d966" x="320.582293" y="311.94" style="fill: #262626; stroke: #262626; stroke-width: 1.25"/>
      </g>
     </g>
     <g id="text_14">
      <!-- 2021 -->
      <g style="fill: #262626" transform="translate(308.348231 329.313594) scale(0.11 -0.11)">
       <use xlink:href="#ArialMT-32"/>
       <use xlink:href="#ArialMT-30" x="55.615234"/>
       <use xlink:href="#ArialMT-32" x="111.230469"/>
       <use xlink:href="#ArialMT-31" x="166.845703"/>
      </g>
     </g>
    </g>
    <g id="xtick_27">
     <g id="line2d_37">
      <g>
       <use xlink:href="#mee28a6d966" x="371.964" y="311.94" style="fill: #262626; stroke: #262626; stroke-width: 1.25"/>
      </g>
     </g>
     <g id="text_15">
      <!-- 2022 -->
      <g style="fill: #262626" transform="translate(359.729938 329.313594) scale(0.11 -0.11)">
       <use xlink:href="#ArialMT-32"/>
       <use xlink:href="#ArialMT-30" x="55.615234"/>
       <use xlink:href="#ArialMT-32" x="111.230469"/>
       <use xlink:href="#ArialMT-32" x="166.845703"/>
      </g>
     </g>
    </g>
    <g id="xtick_28">
     <g id="line2d_38">
      <g>
       <use xlink:href="#mee28a6d966" x="423.345707" y="311.94" style="fill: #262626; stroke: #262626; stroke-width: 1.25"/>
      </g>
     </g>
     <g id="text_16">
      <!-- 2023 -->
      <g style="fill: #262626" transform="translate(411.111644 329.313594) scale(0.11 -0.11)">
       <defs>
        <path id="ArialMT-33" d="M 269 1209 
L 831 1284 
Q 928 806 1161 595 
Q 1394 384 1728 384 
Q 2125 384 2398 659 
Q 2672 934 2672 1341 
Q 2672 1728 2419 1979 
Q 2166 2231 1775 2231 
Q 1616 2231 1378 2169 
L 1441 2663 
Q 1497 2656 1531 2656 
Q 1891 2656 2178 2843 
Q 2466 3031 2466 3422 
Q 2466 3731 2256 3934 
Q 2047 4138 1716 4138 
Q 1388 4138 1169 3931 
Q 950 3725 888 3313 
L 325 3413 
Q 428 3978 793 4289 
Q 1159 4600 1703 4600 
Q 2078 4600 2393 4439 
Q 2709 4278 2876 4000 
Q 3044 3722 3044 3409 
Q 3044 3113 2884 2869 
Q 2725 2625 2413 2481 
Q 2819 2388 3044 2092 
Q 3269 1797 3269 1353 
Q 3269 753 2831 336 
Q 2394 -81 1725 -81 
Q 1122 -81 723 278 
Q 325 638 269 1209 
z
" transform="scale(0.015625)"/>
       </defs>
       <use xlink:href="#ArialMT-32"/>
       <use xlink:href="#ArialMT-30" x="55.615234"/>
       <use xlink:href="#ArialMT-32" x="111.230469"/>
       <use xlink:href="#ArialMT-33" x="166.845703"/>
      </g>
     </g>
    </g>
   </g>
   <g id="matplotlib.axis_8">
    <g id="ytick_7">
     <g id="line2d_39">
      <g>
       <use xlink:href="#m6dc565c6bf" x="68.46" y="306.155193" style="fill: #262626; stroke: #262626; stroke-width: 1.25"/>
      </g>
     </g>
     <g id="text_17">
      <!-- −2000 -->
      <g style="fill: #262626" transform="translate(28.067187 310.091989) scale(0.11 -0.11)">
       <use xlink:href="#ArialMT-2212"/>
       <use xlink:href="#ArialMT-32" x="58.398438"/>
       <use xlink:href="#ArialMT-30" x="114.013672"/>
       <use xlink:href="#ArialMT-30" x="169.628906"/>
       <use xlink:href="#ArialMT-30" x="225.244141"/>
      </g>
     </g>
    </g>
    <g id="ytick_8">
     <g id="line2d_40">
      <g>
       <use xlink:href="#m6dc565c6bf" x="68.46" y="282.516954" style="fill: #262626; stroke: #262626; stroke-width: 1.25"/>
      </g>
     </g>
     <g id="text_18">
      <!-- 0 -->
      <g style="fill: #262626" transform="translate(52.842969 286.453751) scale(0.11 -0.11)">
       <use xlink:href="#ArialMT-30"/>
      </g>
     </g>
    </g>
    <g id="ytick_9">
     <g id="line2d_41">
      <g>
       <use xlink:href="#m6dc565c6bf" x="68.46" y="258.878715" style="fill: #262626; stroke: #262626; stroke-width: 1.25"/>
      </g>
     </g>
     <g id="text_19">
      <!-- 2000 -->
      <g style="fill: #262626" transform="translate(34.491875 262.815512) scale(0.11 -0.11)">
       <use xlink:href="#ArialMT-32"/>
       <use xlink:href="#ArialMT-30" x="55.615234"/>
       <use xlink:href="#ArialMT-30" x="111.230469"/>
       <use xlink:href="#ArialMT-30" x="166.845703"/>
      </g>
     </g>
    </g>
    <g id="text_20">
     <!-- Resid -->
     <g style="fill: #262626" transform="translate(21.682187 299.667008) rotate(-90) scale(0.12 -0.12)">
      <defs>
       <path id="ArialMT-52" d="M 503 0 
L 503 4581 
L 2534 4581 
Q 3147 4581 3465 4457 
Q 3784 4334 3975 4021 
Q 4166 3709 4166 3331 
Q 4166 2844 3850 2509 
Q 3534 2175 2875 2084 
Q 3116 1969 3241 1856 
Q 3506 1613 3744 1247 
L 4541 0 
L 3778 0 
L 3172 953 
Q 2906 1366 2734 1584 
Q 2563 1803 2427 1890 
Q 2291 1978 2150 2013 
Q 2047 2034 1813 2034 
L 1109 2034 
L 1109 0 
L 503 0 
z
M 1109 2559 
L 2413 2559 
Q 2828 2559 3062 2645 
Q 3297 2731 3419 2920 
Q 3541 3109 3541 3331 
Q 3541 3656 3305 3865 
Q 3069 4075 2559 4075 
L 1109 4075 
L 1109 2559 
z
" transform="scale(0.015625)"/>
      </defs>
      <use xlink:href="#ArialMT-52"/>
      <use xlink:href="#ArialMT-65" x="72.216797"/>
      <use xlink:href="#ArialMT-73" x="127.832031"/>
      <use xlink:href="#ArialMT-69" x="177.832031"/>
      <use xlink:href="#ArialMT-64" x="200.048828"/>
     </g>
    </g>
   </g>
   <g id="line2d_42">
    <defs>
     <path id="mf4a5a17cf1" d="M 0 3 
C 0.795609 3 1.55874 2.683901 2.12132 2.12132 
C 2.683901 1.55874 3 0.795609 3 0 
C 3 -0.795609 2.683901 -1.55874 2.12132 -2.12132 
C 1.55874 -2.683901 0.795609 -3 0 -3 
C -0.795609 -3 -1.55874 -2.683901 -2.12132 -2.12132 
C -2.683901 -1.55874 -3 -0.795609 -3 0 
C -3 0.795609 -2.683901 1.55874 -2.12132 2.12132 
C -1.55874 2.683901 -0.795609 3 0 3 
z
" style="stroke: #4c72b0"/>
    </defs>
    <g clip-path="url(#p5a9c4cba9c)">
     <use xlink:href="#mf4a5a17cf1" x="68.46" y="286.009151" style="fill: #4c72b0; stroke: #4c72b0"/>
     <use xlink:href="#mf4a5a17cf1" x="69.445403" y="280.751628" style="fill: #4c72b0; stroke: #4c72b0"/>
     <use xlink:href="#mf4a5a17cf1" x="70.430805" y="280.784925" style="fill: #4c72b0; stroke: #4c72b0"/>
     <use xlink:href="#mf4a5a17cf1" x="71.416208" y="280.90513" style="fill: #4c72b0; stroke: #4c72b0"/>
     <use xlink:href="#mf4a5a17cf1" x="72.40161" y="280.904365" style="fill: #4c72b0; stroke: #4c72b0"/>
     <use xlink:href="#mf4a5a17cf1" x="73.387013" y="280.752005" style="fill: #4c72b0; stroke: #4c72b0"/>
     <use xlink:href="#mf4a5a17cf1" x="75.357818" y="280.987934" style="fill: #4c72b0; stroke: #4c72b0"/>
     <use xlink:href="#mf4a5a17cf1" x="76.343221" y="281.004719" style="fill: #4c72b0; stroke: #4c72b0"/>
     <use xlink:href="#mf4a5a17cf1" x="77.328623" y="280.993282" style="fill: #4c72b0; stroke: #4c72b0"/>
     <use xlink:href="#mf4a5a17cf1" x="78.314026" y="280.78234" style="fill: #4c72b0; stroke: #4c72b0"/>
     <use xlink:href="#mf4a5a17cf1" x="79.299429" y="281.245564" style="fill: #4c72b0; stroke: #4c72b0"/>
     <use xlink:href="#mf4a5a17cf1" x="80.284831" y="281.447019" style="fill: #4c72b0; stroke: #4c72b0"/>
     <use xlink:href="#mf4a5a17cf1" x="81.270234" y="281.234781" style="fill: #4c72b0; stroke: #4c72b0"/>
     <use xlink:href="#mf4a5a17cf1" x="82.255636" y="281.133608" style="fill: #4c72b0; stroke: #4c72b0"/>
     <use xlink:href="#mf4a5a17cf1" x="83.241039" y="281.072133" style="fill: #4c72b0; stroke: #4c72b0"/>
     <use xlink:href="#mf4a5a17cf1" x="84.226442" y="281.102969" style="fill: #4c72b0; stroke: #4c72b0"/>
     <use xlink:href="#mf4a5a17cf1" x="85.211844" y="281.077001" style="fill: #4c72b0; stroke: #4c72b0"/>
     <use xlink:href="#mf4a5a17cf1" x="86.197247" y="281.636966" style="fill: #4c72b0; stroke: #4c72b0"/>
     <use xlink:href="#mf4a5a17cf1" x="87.182649" y="281.922607" style="fill: #4c72b0; stroke: #4c72b0"/>
     <use xlink:href="#mf4a5a17cf1" x="88.168052" y="282.138793" style="fill: #4c72b0; stroke: #4c72b0"/>
     <use xlink:href="#mf4a5a17cf1" x="89.153455" y="282.113092" style="fill: #4c72b0; stroke: #4c72b0"/>
     <use xlink:href="#mf4a5a17cf1" x="90.138857" y="282.43944" style="fill: #4c72b0; stroke: #4c72b0"/>
     <use xlink:href="#mf4a5a17cf1" x="91.12426" y="283.044859" style="fill: #4c72b0; stroke: #4c72b0"/>
     <use xlink:href="#mf4a5a17cf1" x="92.109662" y="283.384201" style="fill: #4c72b0; stroke: #4c72b0"/>
     <use xlink:href="#mf4a5a17cf1" x="93.095065" y="283.141931" style="fill: #4c72b0; stroke: #4c72b0"/>
     <use xlink:href="#mf4a5a17cf1" x="94.080468" y="283.035895" style="fill: #4c72b0; stroke: #4c72b0"/>
     <use xlink:href="#mf4a5a17cf1" x="95.06587" y="282.932751" style="fill: #4c72b0; stroke: #4c72b0"/>
     <use xlink:href="#mf4a5a17cf1" x="96.051273" y="282.934653" style="fill: #4c72b0; stroke: #4c72b0"/>
     <use xlink:href="#mf4a5a17cf1" x="97.036675" y="283.475757" style="fill: #4c72b0; stroke: #4c72b0"/>
     <use xlink:href="#mf4a5a17cf1" x="98.022078" y="283.123607" style="fill: #4c72b0; stroke: #4c72b0"/>
     <use xlink:href="#mf4a5a17cf1" x="99.007481" y="283.830986" style="fill: #4c72b0; stroke: #4c72b0"/>
     <use xlink:href="#mf4a5a17cf1" x="99.992883" y="285.410058" style="fill: #4c72b0; stroke: #4c72b0"/>
     <use xlink:href="#mf4a5a17cf1" x="100.978286" y="285.717708" style="fill: #4c72b0; stroke: #4c72b0"/>
     <use xlink:href="#mf4a5a17cf1" x="101.963688" y="286.133763" style="fill: #4c72b0; stroke: #4c72b0"/>
     <use xlink:href="#mf4a5a17cf1" x="102.949091" y="285.587051" style="fill: #4c72b0; stroke: #4c72b0"/>
     <use xlink:href="#mf4a5a17cf1" x="103.934494" y="286.411363" style="fill: #4c72b0; stroke: #4c72b0"/>
     <use xlink:href="#mf4a5a17cf1" x="104.919896" y="286.742238" style="fill: #4c72b0; stroke: #4c72b0"/>
     <use xlink:href="#mf4a5a17cf1" x="105.905299" y="287.52544" style="fill: #4c72b0; stroke: #4c72b0"/>
     <use xlink:href="#mf4a5a17cf1" x="106.890701" y="287.487289" style="fill: #4c72b0; stroke: #4c72b0"/>
     <use xlink:href="#mf4a5a17cf1" x="107.876104" y="287.454563" style="fill: #4c72b0; stroke: #4c72b0"/>
     <use xlink:href="#mf4a5a17cf1" x="108.861506" y="287.621943" style="fill: #4c72b0; stroke: #4c72b0"/>
     <use xlink:href="#mf4a5a17cf1" x="109.846909" y="287.961624" style="fill: #4c72b0; stroke: #4c72b0"/>
     <use xlink:href="#mf4a5a17cf1" x="110.832312" y="288.779603" style="fill: #4c72b0; stroke: #4c72b0"/>
     <use xlink:href="#mf4a5a17cf1" x="111.817714" y="279.232882" style="fill: #4c72b0; stroke: #4c72b0"/>
     <use xlink:href="#mf4a5a17cf1" x="112.803117" y="279.063114" style="fill: #4c72b0; stroke: #4c72b0"/>
     <use xlink:href="#mf4a5a17cf1" x="113.788519" y="279.053485" style="fill: #4c72b0; stroke: #4c72b0"/>
     <use xlink:href="#mf4a5a17cf1" x="117.73013" y="288.263962" style="fill: #4c72b0; stroke: #4c72b0"/>
     <use xlink:href="#mf4a5a17cf1" x="118.715532" y="289.806615" style="fill: #4c72b0; stroke: #4c72b0"/>
     <use xlink:href="#mf4a5a17cf1" x="119.700935" y="286.760056" style="fill: #4c72b0; stroke: #4c72b0"/>
     <use xlink:href="#mf4a5a17cf1" x="120.686338" y="279.519779" style="fill: #4c72b0; stroke: #4c72b0"/>
     <use xlink:href="#mf4a5a17cf1" x="121.67174" y="279.258887" style="fill: #4c72b0; stroke: #4c72b0"/>
     <use xlink:href="#mf4a5a17cf1" x="122.657143" y="278.621966" style="fill: #4c72b0; stroke: #4c72b0"/>
     <use xlink:href="#mf4a5a17cf1" x="123.642545" y="278.890968" style="fill: #4c72b0; stroke: #4c72b0"/>
     <use xlink:href="#mf4a5a17cf1" x="124.627948" y="278.993481" style="fill: #4c72b0; stroke: #4c72b0"/>
     <use xlink:href="#mf4a5a17cf1" x="125.613351" y="278.470102" style="fill: #4c72b0; stroke: #4c72b0"/>
     <use xlink:href="#mf4a5a17cf1" x="126.598753" y="278.413297" style="fill: #4c72b0; stroke: #4c72b0"/>
     <use xlink:href="#mf4a5a17cf1" x="127.584156" y="278.536375" style="fill: #4c72b0; stroke: #4c72b0"/>
     <use xlink:href="#mf4a5a17cf1" x="128.569558" y="278.702122" style="fill: #4c72b0; stroke: #4c72b0"/>
     <use xlink:href="#mf4a5a17cf1" x="129.554961" y="279.705865" style="fill: #4c72b0; stroke: #4c72b0"/>
     <use xlink:href="#mf4a5a17cf1" x="130.540364" y="279.490478" style="fill: #4c72b0; stroke: #4c72b0"/>
     <use xlink:href="#mf4a5a17cf1" x="131.525766" y="279.573254" style="fill: #4c72b0; stroke: #4c72b0"/>
     <use xlink:href="#mf4a5a17cf1" x="132.511169" y="279.594864" style="fill: #4c72b0; stroke: #4c72b0"/>
     <use xlink:href="#mf4a5a17cf1" x="133.496571" y="279.567911" style="fill: #4c72b0; stroke: #4c72b0"/>
     <use xlink:href="#mf4a5a17cf1" x="134.481974" y="279.37491" style="fill: #4c72b0; stroke: #4c72b0"/>
     <use xlink:href="#mf4a5a17cf1" x="135.467377" y="279.500122" style="fill: #4c72b0; stroke: #4c72b0"/>
     <use xlink:href="#mf4a5a17cf1" x="136.452779" y="280.687278" style="fill: #4c72b0; stroke: #4c72b0"/>
     <use xlink:href="#mf4a5a17cf1" x="137.438182" y="281.301613" style="fill: #4c72b0; stroke: #4c72b0"/>
     <use xlink:href="#mf4a5a17cf1" x="138.423584" y="281.832556" style="fill: #4c72b0; stroke: #4c72b0"/>
     <use xlink:href="#mf4a5a17cf1" x="139.408987" y="282.021839" style="fill: #4c72b0; stroke: #4c72b0"/>
     <use xlink:href="#mf4a5a17cf1" x="140.39439" y="282.410758" style="fill: #4c72b0; stroke: #4c72b0"/>
     <use xlink:href="#mf4a5a17cf1" x="141.379792" y="283.393068" style="fill: #4c72b0; stroke: #4c72b0"/>
     <use xlink:href="#mf4a5a17cf1" x="142.365195" y="283.980385" style="fill: #4c72b0; stroke: #4c72b0"/>
     <use xlink:href="#mf4a5a17cf1" x="143.350597" y="284.445419" style="fill: #4c72b0; stroke: #4c72b0"/>
     <use xlink:href="#mf4a5a17cf1" x="144.336" y="285.674494" style="fill: #4c72b0; stroke: #4c72b0"/>
     <use xlink:href="#mf4a5a17cf1" x="145.321403" y="285.490275" style="fill: #4c72b0; stroke: #4c72b0"/>
     <use xlink:href="#mf4a5a17cf1" x="146.306805" y="285.561864" style="fill: #4c72b0; stroke: #4c72b0"/>
     <use xlink:href="#mf4a5a17cf1" x="147.292208" y="288.23872" style="fill: #4c72b0; stroke: #4c72b0"/>
     <use xlink:href="#mf4a5a17cf1" x="148.27761" y="288.547414" style="fill: #4c72b0; stroke: #4c72b0"/>
     <use xlink:href="#mf4a5a17cf1" x="149.263013" y="289.024167" style="fill: #4c72b0; stroke: #4c72b0"/>
     <use xlink:href="#mf4a5a17cf1" x="150.248416" y="289.427465" style="fill: #4c72b0; stroke: #4c72b0"/>
     <use xlink:href="#mf4a5a17cf1" x="151.233818" y="289.939621" style="fill: #4c72b0; stroke: #4c72b0"/>
     <use xlink:href="#mf4a5a17cf1" x="152.219221" y="289.267793" style="fill: #4c72b0; stroke: #4c72b0"/>
     <use xlink:href="#mf4a5a17cf1" x="153.204623" y="290.639519" style="fill: #4c72b0; stroke: #4c72b0"/>
     <use xlink:href="#mf4a5a17cf1" x="154.190026" y="290.643074" style="fill: #4c72b0; stroke: #4c72b0"/>
     <use xlink:href="#mf4a5a17cf1" x="155.175429" y="290.580593" style="fill: #4c72b0; stroke: #4c72b0"/>
     <use xlink:href="#mf4a5a17cf1" x="156.160831" y="289.283557" style="fill: #4c72b0; stroke: #4c72b0"/>
     <use xlink:href="#mf4a5a17cf1" x="157.146234" y="289.840157" style="fill: #4c72b0; stroke: #4c72b0"/>
     <use xlink:href="#mf4a5a17cf1" x="158.131636" y="289.710826" style="fill: #4c72b0; stroke: #4c72b0"/>
     <use xlink:href="#mf4a5a17cf1" x="159.117039" y="289.652703" style="fill: #4c72b0; stroke: #4c72b0"/>
     <use xlink:href="#mf4a5a17cf1" x="160.102442" y="289.127166" style="fill: #4c72b0; stroke: #4c72b0"/>
     <use xlink:href="#mf4a5a17cf1" x="161.087844" y="287.838992" style="fill: #4c72b0; stroke: #4c72b0"/>
     <use xlink:href="#mf4a5a17cf1" x="162.073247" y="275.380412" style="fill: #4c72b0; stroke: #4c72b0"/>
     <use xlink:href="#mf4a5a17cf1" x="163.058649" y="275.946018" style="fill: #4c72b0; stroke: #4c72b0"/>
     <use xlink:href="#mf4a5a17cf1" x="164.044052" y="276.054446" style="fill: #4c72b0; stroke: #4c72b0"/>
     <use xlink:href="#mf4a5a17cf1" x="165.029455" y="265.307956" style="fill: #4c72b0; stroke: #4c72b0"/>
     <use xlink:href="#mf4a5a17cf1" x="166.014857" y="262.039046" style="fill: #4c72b0; stroke: #4c72b0"/>
     <use xlink:href="#mf4a5a17cf1" x="167.00026" y="260.736737" style="fill: #4c72b0; stroke: #4c72b0"/>
     <use xlink:href="#mf4a5a17cf1" x="168.971065" y="287.752104" style="fill: #4c72b0; stroke: #4c72b0"/>
     <use xlink:href="#mf4a5a17cf1" x="169.956468" y="288.1799" style="fill: #4c72b0; stroke: #4c72b0"/>
     <use xlink:href="#mf4a5a17cf1" x="170.94187" y="289.093674" style="fill: #4c72b0; stroke: #4c72b0"/>
     <use xlink:href="#mf4a5a17cf1" x="171.927273" y="288.691805" style="fill: #4c72b0; stroke: #4c72b0"/>
     <use xlink:href="#mf4a5a17cf1" x="172.912675" y="288.943516" style="fill: #4c72b0; stroke: #4c72b0"/>
     <use xlink:href="#mf4a5a17cf1" x="173.898078" y="289.396288" style="fill: #4c72b0; stroke: #4c72b0"/>
     <use xlink:href="#mf4a5a17cf1" x="174.883481" y="289.509024" style="fill: #4c72b0; stroke: #4c72b0"/>
     <use xlink:href="#mf4a5a17cf1" x="175.868883" y="289.410146" style="fill: #4c72b0; stroke: #4c72b0"/>
     <use xlink:href="#mf4a5a17cf1" x="176.854286" y="289.67018" style="fill: #4c72b0; stroke: #4c72b0"/>
     <use xlink:href="#mf4a5a17cf1" x="186.708312" y="286.693348" style="fill: #4c72b0; stroke: #4c72b0"/>
     <use xlink:href="#mf4a5a17cf1" x="187.693714" y="286.656668" style="fill: #4c72b0; stroke: #4c72b0"/>
     <use xlink:href="#mf4a5a17cf1" x="188.679117" y="287.115041" style="fill: #4c72b0; stroke: #4c72b0"/>
     <use xlink:href="#mf4a5a17cf1" x="189.664519" y="287.412512" style="fill: #4c72b0; stroke: #4c72b0"/>
     <use xlink:href="#mf4a5a17cf1" x="190.649922" y="287.527361" style="fill: #4c72b0; stroke: #4c72b0"/>
     <use xlink:href="#mf4a5a17cf1" x="191.635325" y="287.909761" style="fill: #4c72b0; stroke: #4c72b0"/>
     <use xlink:href="#mf4a5a17cf1" x="192.620727" y="287.90596" style="fill: #4c72b0; stroke: #4c72b0"/>
     <use xlink:href="#mf4a5a17cf1" x="194.591532" y="284.413071" style="fill: #4c72b0; stroke: #4c72b0"/>
     <use xlink:href="#mf4a5a17cf1" x="195.576935" y="282.648828" style="fill: #4c72b0; stroke: #4c72b0"/>
     <use xlink:href="#mf4a5a17cf1" x="196.562338" y="281.188613" style="fill: #4c72b0; stroke: #4c72b0"/>
     <use xlink:href="#mf4a5a17cf1" x="197.54774" y="281.048872" style="fill: #4c72b0; stroke: #4c72b0"/>
     <use xlink:href="#mf4a5a17cf1" x="198.533143" y="279.574311" style="fill: #4c72b0; stroke: #4c72b0"/>
     <use xlink:href="#mf4a5a17cf1" x="199.518545" y="276.413447" style="fill: #4c72b0; stroke: #4c72b0"/>
     <use xlink:href="#mf4a5a17cf1" x="200.503948" y="274.767923" style="fill: #4c72b0; stroke: #4c72b0"/>
     <use xlink:href="#mf4a5a17cf1" x="201.489351" y="274.461346" style="fill: #4c72b0; stroke: #4c72b0"/>
     <use xlink:href="#mf4a5a17cf1" x="202.474753" y="272.558603" style="fill: #4c72b0; stroke: #4c72b0"/>
     <use xlink:href="#mf4a5a17cf1" x="203.460156" y="273.207239" style="fill: #4c72b0; stroke: #4c72b0"/>
     <use xlink:href="#mf4a5a17cf1" x="204.445558" y="272.960912" style="fill: #4c72b0; stroke: #4c72b0"/>
     <use xlink:href="#mf4a5a17cf1" x="205.430961" y="267.018294" style="fill: #4c72b0; stroke: #4c72b0"/>
     <use xlink:href="#mf4a5a17cf1" x="206.416364" y="267.871928" style="fill: #4c72b0; stroke: #4c72b0"/>
     <use xlink:href="#mf4a5a17cf1" x="207.401766" y="265.623012" style="fill: #4c72b0; stroke: #4c72b0"/>
     <use xlink:href="#mf4a5a17cf1" x="208.387169" y="263.439651" style="fill: #4c72b0; stroke: #4c72b0"/>
     <use xlink:href="#mf4a5a17cf1" x="209.372571" y="262.047876" style="fill: #4c72b0; stroke: #4c72b0"/>
     <use xlink:href="#mf4a5a17cf1" x="210.357974" y="262.500341" style="fill: #4c72b0; stroke: #4c72b0"/>
     <use xlink:href="#mf4a5a17cf1" x="211.343377" y="261.847497" style="fill: #4c72b0; stroke: #4c72b0"/>
     <use xlink:href="#mf4a5a17cf1" x="212.328779" y="261.683756" style="fill: #4c72b0; stroke: #4c72b0"/>
     <use xlink:href="#mf4a5a17cf1" x="213.314182" y="261.181942" style="fill: #4c72b0; stroke: #4c72b0"/>
     <use xlink:href="#mf4a5a17cf1" x="214.299584" y="261.752002" style="fill: #4c72b0; stroke: #4c72b0"/>
     <use xlink:href="#mf4a5a17cf1" x="215.284987" y="260.870187" style="fill: #4c72b0; stroke: #4c72b0"/>
     <use xlink:href="#mf4a5a17cf1" x="216.27039" y="261.439717" style="fill: #4c72b0; stroke: #4c72b0"/>
     <use xlink:href="#mf4a5a17cf1" x="217.255792" y="261.170449" style="fill: #4c72b0; stroke: #4c72b0"/>
     <use xlink:href="#mf4a5a17cf1" x="218.241195" y="261.420997" style="fill: #4c72b0; stroke: #4c72b0"/>
     <use xlink:href="#mf4a5a17cf1" x="219.226597" y="261.764007" style="fill: #4c72b0; stroke: #4c72b0"/>
     <use xlink:href="#mf4a5a17cf1" x="222.182805" y="309.429785" style="fill: #4c72b0; stroke: #4c72b0"/>
     <use xlink:href="#mf4a5a17cf1" x="223.168208" y="309.01594" style="fill: #4c72b0; stroke: #4c72b0"/>
     <use xlink:href="#mf4a5a17cf1" x="224.15361" y="309.166691" style="fill: #4c72b0; stroke: #4c72b0"/>
     <use xlink:href="#mf4a5a17cf1" x="225.139013" y="306.543614" style="fill: #4c72b0; stroke: #4c72b0"/>
     <use xlink:href="#mf4a5a17cf1" x="226.124416" y="297.767016" style="fill: #4c72b0; stroke: #4c72b0"/>
     <use xlink:href="#mf4a5a17cf1" x="227.109818" y="296.967486" style="fill: #4c72b0; stroke: #4c72b0"/>
     <use xlink:href="#mf4a5a17cf1" x="228.095221" y="287.689798" style="fill: #4c72b0; stroke: #4c72b0"/>
     <use xlink:href="#mf4a5a17cf1" x="229.080623" y="287.610782" style="fill: #4c72b0; stroke: #4c72b0"/>
     <use xlink:href="#mf4a5a17cf1" x="230.066026" y="287.363451" style="fill: #4c72b0; stroke: #4c72b0"/>
     <use xlink:href="#mf4a5a17cf1" x="231.051429" y="287.324471" style="fill: #4c72b0; stroke: #4c72b0"/>
     <use xlink:href="#mf4a5a17cf1" x="232.036831" y="287.194675" style="fill: #4c72b0; stroke: #4c72b0"/>
     <use xlink:href="#mf4a5a17cf1" x="233.022234" y="286.97369" style="fill: #4c72b0; stroke: #4c72b0"/>
     <use xlink:href="#mf4a5a17cf1" x="234.007636" y="286.840924" style="fill: #4c72b0; stroke: #4c72b0"/>
     <use xlink:href="#mf4a5a17cf1" x="234.993039" y="286.722124" style="fill: #4c72b0; stroke: #4c72b0"/>
     <use xlink:href="#mf4a5a17cf1" x="235.978442" y="286.685484" style="fill: #4c72b0; stroke: #4c72b0"/>
     <use xlink:href="#mf4a5a17cf1" x="236.963844" y="287.5253" style="fill: #4c72b0; stroke: #4c72b0"/>
     <use xlink:href="#mf4a5a17cf1" x="237.949247" y="287.443886" style="fill: #4c72b0; stroke: #4c72b0"/>
     <use xlink:href="#mf4a5a17cf1" x="238.934649" y="287.113641" style="fill: #4c72b0; stroke: #4c72b0"/>
     <use xlink:href="#mf4a5a17cf1" x="239.920052" y="286.910338" style="fill: #4c72b0; stroke: #4c72b0"/>
     <use xlink:href="#mf4a5a17cf1" x="240.905455" y="286.991201" style="fill: #4c72b0; stroke: #4c72b0"/>
     <use xlink:href="#mf4a5a17cf1" x="241.890857" y="286.699347" style="fill: #4c72b0; stroke: #4c72b0"/>
     <use xlink:href="#mf4a5a17cf1" x="242.87626" y="286.359876" style="fill: #4c72b0; stroke: #4c72b0"/>
     <use xlink:href="#mf4a5a17cf1" x="243.861662" y="287.252752" style="fill: #4c72b0; stroke: #4c72b0"/>
     <use xlink:href="#mf4a5a17cf1" x="244.847065" y="287.64589" style="fill: #4c72b0; stroke: #4c72b0"/>
     <use xlink:href="#mf4a5a17cf1" x="245.832468" y="288.044648" style="fill: #4c72b0; stroke: #4c72b0"/>
     <use xlink:href="#mf4a5a17cf1" x="246.81787" y="287.802921" style="fill: #4c72b0; stroke: #4c72b0"/>
     <use xlink:href="#mf4a5a17cf1" x="247.803273" y="288.19875" style="fill: #4c72b0; stroke: #4c72b0"/>
     <use xlink:href="#mf4a5a17cf1" x="248.788675" y="288.816719" style="fill: #4c72b0; stroke: #4c72b0"/>
     <use xlink:href="#mf4a5a17cf1" x="249.774078" y="288.728507" style="fill: #4c72b0; stroke: #4c72b0"/>
     <use xlink:href="#mf4a5a17cf1" x="250.759481" y="289.081063" style="fill: #4c72b0; stroke: #4c72b0"/>
     <use xlink:href="#mf4a5a17cf1" x="251.744883" y="289.466934" style="fill: #4c72b0; stroke: #4c72b0"/>
     <use xlink:href="#mf4a5a17cf1" x="252.730286" y="289.380727" style="fill: #4c72b0; stroke: #4c72b0"/>
     <use xlink:href="#mf4a5a17cf1" x="253.715688" y="290.050683" style="fill: #4c72b0; stroke: #4c72b0"/>
     <use xlink:href="#mf4a5a17cf1" x="254.701091" y="291.109629" style="fill: #4c72b0; stroke: #4c72b0"/>
     <use xlink:href="#mf4a5a17cf1" x="255.686494" y="289.630577" style="fill: #4c72b0; stroke: #4c72b0"/>
     <use xlink:href="#mf4a5a17cf1" x="256.671896" y="289.488119" style="fill: #4c72b0; stroke: #4c72b0"/>
     <use xlink:href="#mf4a5a17cf1" x="257.657299" y="282.714574" style="fill: #4c72b0; stroke: #4c72b0"/>
     <use xlink:href="#mf4a5a17cf1" x="258.642701" y="282.482675" style="fill: #4c72b0; stroke: #4c72b0"/>
     <use xlink:href="#mf4a5a17cf1" x="259.628104" y="281.859167" style="fill: #4c72b0; stroke: #4c72b0"/>
     <use xlink:href="#mf4a5a17cf1" x="260.613506" y="280.875987" style="fill: #4c72b0; stroke: #4c72b0"/>
     <use xlink:href="#mf4a5a17cf1" x="261.598909" y="277.846515" style="fill: #4c72b0; stroke: #4c72b0"/>
     <use xlink:href="#mf4a5a17cf1" x="262.584312" y="277.608319" style="fill: #4c72b0; stroke: #4c72b0"/>
     <use xlink:href="#mf4a5a17cf1" x="263.569714" y="277.220057" style="fill: #4c72b0; stroke: #4c72b0"/>
     <use xlink:href="#mf4a5a17cf1" x="264.555117" y="277.451836" style="fill: #4c72b0; stroke: #4c72b0"/>
     <use xlink:href="#mf4a5a17cf1" x="265.540519" y="276.761784" style="fill: #4c72b0; stroke: #4c72b0"/>
     <use xlink:href="#mf4a5a17cf1" x="266.525922" y="276.825151" style="fill: #4c72b0; stroke: #4c72b0"/>
     <use xlink:href="#mf4a5a17cf1" x="267.511325" y="276.495546" style="fill: #4c72b0; stroke: #4c72b0"/>
     <use xlink:href="#mf4a5a17cf1" x="268.496727" y="276.479087" style="fill: #4c72b0; stroke: #4c72b0"/>
     <use xlink:href="#mf4a5a17cf1" x="269.48213" y="260.228711" style="fill: #4c72b0; stroke: #4c72b0"/>
     <use xlink:href="#mf4a5a17cf1" x="270.467532" y="259.957077" style="fill: #4c72b0; stroke: #4c72b0"/>
     <use xlink:href="#mf4a5a17cf1" x="271.452935" y="259.225482" style="fill: #4c72b0; stroke: #4c72b0"/>
     <use xlink:href="#mf4a5a17cf1" x="272.438338" y="259.508364" style="fill: #4c72b0; stroke: #4c72b0"/>
     <use xlink:href="#mf4a5a17cf1" x="274.409143" y="287.352383" style="fill: #4c72b0; stroke: #4c72b0"/>
     <use xlink:href="#mf4a5a17cf1" x="275.394545" y="287.179615" style="fill: #4c72b0; stroke: #4c72b0"/>
     <use xlink:href="#mf4a5a17cf1" x="276.379948" y="283.593328" style="fill: #4c72b0; stroke: #4c72b0"/>
     <use xlink:href="#mf4a5a17cf1" x="277.365351" y="283.122718" style="fill: #4c72b0; stroke: #4c72b0"/>
     <use xlink:href="#mf4a5a17cf1" x="278.350753" y="282.740144" style="fill: #4c72b0; stroke: #4c72b0"/>
     <use xlink:href="#mf4a5a17cf1" x="279.336156" y="282.781839" style="fill: #4c72b0; stroke: #4c72b0"/>
     <use xlink:href="#mf4a5a17cf1" x="280.321558" y="282.381551" style="fill: #4c72b0; stroke: #4c72b0"/>
     <use xlink:href="#mf4a5a17cf1" x="281.306961" y="282.237405" style="fill: #4c72b0; stroke: #4c72b0"/>
     <use xlink:href="#mf4a5a17cf1" x="282.292364" y="282.641961" style="fill: #4c72b0; stroke: #4c72b0"/>
     <use xlink:href="#mf4a5a17cf1" x="283.277766" y="282.451578" style="fill: #4c72b0; stroke: #4c72b0"/>
     <use xlink:href="#mf4a5a17cf1" x="299.044208" y="281.614622" style="fill: #4c72b0; stroke: #4c72b0"/>
     <use xlink:href="#mf4a5a17cf1" x="300.02961" y="282.277092" style="fill: #4c72b0; stroke: #4c72b0"/>
     <use xlink:href="#mf4a5a17cf1" x="301.015013" y="282.326675" style="fill: #4c72b0; stroke: #4c72b0"/>
     <use xlink:href="#mf4a5a17cf1" x="302.000416" y="282.315531" style="fill: #4c72b0; stroke: #4c72b0"/>
     <use xlink:href="#mf4a5a17cf1" x="302.985818" y="282.047891" style="fill: #4c72b0; stroke: #4c72b0"/>
     <use xlink:href="#mf4a5a17cf1" x="303.971221" y="282.379159" style="fill: #4c72b0; stroke: #4c72b0"/>
     <use xlink:href="#mf4a5a17cf1" x="304.956623" y="282.327355" style="fill: #4c72b0; stroke: #4c72b0"/>
     <use xlink:href="#mf4a5a17cf1" x="305.942026" y="282.73678" style="fill: #4c72b0; stroke: #4c72b0"/>
     <use xlink:href="#mf4a5a17cf1" x="306.927429" y="283.09423" style="fill: #4c72b0; stroke: #4c72b0"/>
     <use xlink:href="#mf4a5a17cf1" x="308.898234" y="283.221691" style="fill: #4c72b0; stroke: #4c72b0"/>
     <use xlink:href="#mf4a5a17cf1" x="310.869039" y="282.880076" style="fill: #4c72b0; stroke: #4c72b0"/>
     <use xlink:href="#mf4a5a17cf1" x="311.854442" y="283.308636" style="fill: #4c72b0; stroke: #4c72b0"/>
     <use xlink:href="#mf4a5a17cf1" x="312.839844" y="283.047783" style="fill: #4c72b0; stroke: #4c72b0"/>
     <use xlink:href="#mf4a5a17cf1" x="313.825247" y="284.153567" style="fill: #4c72b0; stroke: #4c72b0"/>
     <use xlink:href="#mf4a5a17cf1" x="314.810649" y="284.26082" style="fill: #4c72b0; stroke: #4c72b0"/>
     <use xlink:href="#mf4a5a17cf1" x="317.766857" y="283.276028" style="fill: #4c72b0; stroke: #4c72b0"/>
     <use xlink:href="#mf4a5a17cf1" x="318.75226" y="283.160059" style="fill: #4c72b0; stroke: #4c72b0"/>
     <use xlink:href="#mf4a5a17cf1" x="320.723065" y="281.584174" style="fill: #4c72b0; stroke: #4c72b0"/>
     <use xlink:href="#mf4a5a17cf1" x="321.708468" y="279.054075" style="fill: #4c72b0; stroke: #4c72b0"/>
     <use xlink:href="#mf4a5a17cf1" x="322.69387" y="280.046656" style="fill: #4c72b0; stroke: #4c72b0"/>
     <use xlink:href="#mf4a5a17cf1" x="323.679273" y="280.189081" style="fill: #4c72b0; stroke: #4c72b0"/>
     <use xlink:href="#mf4a5a17cf1" x="325.650078" y="280.934159" style="fill: #4c72b0; stroke: #4c72b0"/>
     <use xlink:href="#mf4a5a17cf1" x="327.620883" y="298.839508" style="fill: #4c72b0; stroke: #4c72b0"/>
     <use xlink:href="#mf4a5a17cf1" x="328.606286" y="299.541914" style="fill: #4c72b0; stroke: #4c72b0"/>
     <use xlink:href="#mf4a5a17cf1" x="329.591688" y="300.107829" style="fill: #4c72b0; stroke: #4c72b0"/>
     <use xlink:href="#mf4a5a17cf1" x="330.577091" y="300.633159" style="fill: #4c72b0; stroke: #4c72b0"/>
     <use xlink:href="#mf4a5a17cf1" x="331.562494" y="296.807718" style="fill: #4c72b0; stroke: #4c72b0"/>
     <use xlink:href="#mf4a5a17cf1" x="332.547896" y="296.925902" style="fill: #4c72b0; stroke: #4c72b0"/>
     <use xlink:href="#mf4a5a17cf1" x="333.533299" y="297.294841" style="fill: #4c72b0; stroke: #4c72b0"/>
     <use xlink:href="#mf4a5a17cf1" x="334.518701" y="297.888042" style="fill: #4c72b0; stroke: #4c72b0"/>
     <use xlink:href="#mf4a5a17cf1" x="335.504104" y="288.477609" style="fill: #4c72b0; stroke: #4c72b0"/>
     <use xlink:href="#mf4a5a17cf1" x="336.489506" y="288.483143" style="fill: #4c72b0; stroke: #4c72b0"/>
     <use xlink:href="#mf4a5a17cf1" x="337.474909" y="288.924872" style="fill: #4c72b0; stroke: #4c72b0"/>
     <use xlink:href="#mf4a5a17cf1" x="338.460312" y="289.105296" style="fill: #4c72b0; stroke: #4c72b0"/>
     <use xlink:href="#mf4a5a17cf1" x="339.445714" y="281.093816" style="fill: #4c72b0; stroke: #4c72b0"/>
     <use xlink:href="#mf4a5a17cf1" x="340.431117" y="280.969397" style="fill: #4c72b0; stroke: #4c72b0"/>
     <use xlink:href="#mf4a5a17cf1" x="341.416519" y="282.247202" style="fill: #4c72b0; stroke: #4c72b0"/>
     <use xlink:href="#mf4a5a17cf1" x="342.401922" y="282.634565" style="fill: #4c72b0; stroke: #4c72b0"/>
     <use xlink:href="#mf4a5a17cf1" x="343.387325" y="275.153563" style="fill: #4c72b0; stroke: #4c72b0"/>
     <use xlink:href="#mf4a5a17cf1" x="344.372727" y="275.531176" style="fill: #4c72b0; stroke: #4c72b0"/>
     <use xlink:href="#mf4a5a17cf1" x="345.35813" y="274.472578" style="fill: #4c72b0; stroke: #4c72b0"/>
     <use xlink:href="#mf4a5a17cf1" x="346.343532" y="274.828484" style="fill: #4c72b0; stroke: #4c72b0"/>
     <use xlink:href="#mf4a5a17cf1" x="347.328935" y="275.204835" style="fill: #4c72b0; stroke: #4c72b0"/>
     <use xlink:href="#mf4a5a17cf1" x="348.314338" y="275.272716" style="fill: #4c72b0; stroke: #4c72b0"/>
     <use xlink:href="#mf4a5a17cf1" x="349.29974" y="275.23314" style="fill: #4c72b0; stroke: #4c72b0"/>
     <use xlink:href="#mf4a5a17cf1" x="350.285143" y="275.476757" style="fill: #4c72b0; stroke: #4c72b0"/>
     <use xlink:href="#mf4a5a17cf1" x="351.270545" y="277.290115" style="fill: #4c72b0; stroke: #4c72b0"/>
     <use xlink:href="#mf4a5a17cf1" x="352.255948" y="277.574483" style="fill: #4c72b0; stroke: #4c72b0"/>
     <use xlink:href="#mf4a5a17cf1" x="353.241351" y="277.988167" style="fill: #4c72b0; stroke: #4c72b0"/>
     <use xlink:href="#mf4a5a17cf1" x="354.226753" y="277.970815" style="fill: #4c72b0; stroke: #4c72b0"/>
     <use xlink:href="#mf4a5a17cf1" x="355.212156" y="278.319237" style="fill: #4c72b0; stroke: #4c72b0"/>
     <use xlink:href="#mf4a5a17cf1" x="356.197558" y="277.68104" style="fill: #4c72b0; stroke: #4c72b0"/>
     <use xlink:href="#mf4a5a17cf1" x="357.182961" y="278.197727" style="fill: #4c72b0; stroke: #4c72b0"/>
     <use xlink:href="#mf4a5a17cf1" x="358.168364" y="276.627607" style="fill: #4c72b0; stroke: #4c72b0"/>
     <use xlink:href="#mf4a5a17cf1" x="359.153766" y="277.038365" style="fill: #4c72b0; stroke: #4c72b0"/>
     <use xlink:href="#mf4a5a17cf1" x="360.139169" y="277.876437" style="fill: #4c72b0; stroke: #4c72b0"/>
     <use xlink:href="#mf4a5a17cf1" x="361.124571" y="278.09303" style="fill: #4c72b0; stroke: #4c72b0"/>
     <use xlink:href="#mf4a5a17cf1" x="362.109974" y="278.228464" style="fill: #4c72b0; stroke: #4c72b0"/>
     <use xlink:href="#mf4a5a17cf1" x="363.095377" y="278.454101" style="fill: #4c72b0; stroke: #4c72b0"/>
     <use xlink:href="#mf4a5a17cf1" x="364.080779" y="279.84609" style="fill: #4c72b0; stroke: #4c72b0"/>
     <use xlink:href="#mf4a5a17cf1" x="365.066182" y="279.899293" style="fill: #4c72b0; stroke: #4c72b0"/>
     <use xlink:href="#mf4a5a17cf1" x="366.051584" y="281.356334" style="fill: #4c72b0; stroke: #4c72b0"/>
     <use xlink:href="#mf4a5a17cf1" x="367.036987" y="281.594874" style="fill: #4c72b0; stroke: #4c72b0"/>
     <use xlink:href="#mf4a5a17cf1" x="368.02239" y="282.371317" style="fill: #4c72b0; stroke: #4c72b0"/>
     <use xlink:href="#mf4a5a17cf1" x="369.007792" y="282.389464" style="fill: #4c72b0; stroke: #4c72b0"/>
     <use xlink:href="#mf4a5a17cf1" x="369.993195" y="283.393527" style="fill: #4c72b0; stroke: #4c72b0"/>
     <use xlink:href="#mf4a5a17cf1" x="370.978597" y="284.762928" style="fill: #4c72b0; stroke: #4c72b0"/>
     <use xlink:href="#mf4a5a17cf1" x="371.964" y="285.932206" style="fill: #4c72b0; stroke: #4c72b0"/>
     <use xlink:href="#mf4a5a17cf1" x="372.949403" y="285.995151" style="fill: #4c72b0; stroke: #4c72b0"/>
     <use xlink:href="#mf4a5a17cf1" x="373.934805" y="287.058922" style="fill: #4c72b0; stroke: #4c72b0"/>
     <use xlink:href="#mf4a5a17cf1" x="374.920208" y="283.68215" style="fill: #4c72b0; stroke: #4c72b0"/>
     <use xlink:href="#mf4a5a17cf1" x="375.90561" y="285.251224" style="fill: #4c72b0; stroke: #4c72b0"/>
     <use xlink:href="#mf4a5a17cf1" x="376.891013" y="286.648827" style="fill: #4c72b0; stroke: #4c72b0"/>
     <use xlink:href="#mf4a5a17cf1" x="377.876416" y="286.856146" style="fill: #4c72b0; stroke: #4c72b0"/>
     <use xlink:href="#mf4a5a17cf1" x="379.847221" y="300.970345" style="fill: #4c72b0; stroke: #4c72b0"/>
     <use xlink:href="#mf4a5a17cf1" x="380.832623" y="301.253527" style="fill: #4c72b0; stroke: #4c72b0"/>
     <use xlink:href="#mf4a5a17cf1" x="381.818026" y="301.490266" style="fill: #4c72b0; stroke: #4c72b0"/>
     <use xlink:href="#mf4a5a17cf1" x="382.803429" y="303.306491" style="fill: #4c72b0; stroke: #4c72b0"/>
     <use xlink:href="#mf4a5a17cf1" x="383.788831" y="281.478273" style="fill: #4c72b0; stroke: #4c72b0"/>
     <use xlink:href="#mf4a5a17cf1" x="384.774234" y="281.517181" style="fill: #4c72b0; stroke: #4c72b0"/>
     <use xlink:href="#mf4a5a17cf1" x="385.759636" y="281.372414" style="fill: #4c72b0; stroke: #4c72b0"/>
     <use xlink:href="#mf4a5a17cf1" x="386.745039" y="281.446685" style="fill: #4c72b0; stroke: #4c72b0"/>
     <use xlink:href="#mf4a5a17cf1" x="387.730442" y="280.89443" style="fill: #4c72b0; stroke: #4c72b0"/>
     <use xlink:href="#mf4a5a17cf1" x="388.715844" y="280.714082" style="fill: #4c72b0; stroke: #4c72b0"/>
     <use xlink:href="#mf4a5a17cf1" x="389.701247" y="283.052467" style="fill: #4c72b0; stroke: #4c72b0"/>
     <use xlink:href="#mf4a5a17cf1" x="390.686649" y="283.179635" style="fill: #4c72b0; stroke: #4c72b0"/>
     <use xlink:href="#mf4a5a17cf1" x="391.672052" y="279.533283" style="fill: #4c72b0; stroke: #4c72b0"/>
     <use xlink:href="#mf4a5a17cf1" x="392.657455" y="279.807655" style="fill: #4c72b0; stroke: #4c72b0"/>
     <use xlink:href="#mf4a5a17cf1" x="393.642857" y="280.45537" style="fill: #4c72b0; stroke: #4c72b0"/>
     <use xlink:href="#mf4a5a17cf1" x="394.62826" y="280.56785" style="fill: #4c72b0; stroke: #4c72b0"/>
     <use xlink:href="#mf4a5a17cf1" x="395.613662" y="280.177124" style="fill: #4c72b0; stroke: #4c72b0"/>
     <use xlink:href="#mf4a5a17cf1" x="396.599065" y="280.305841" style="fill: #4c72b0; stroke: #4c72b0"/>
     <use xlink:href="#mf4a5a17cf1" x="397.584468" y="280.766281" style="fill: #4c72b0; stroke: #4c72b0"/>
     <use xlink:href="#mf4a5a17cf1" x="398.56987" y="280.760218" style="fill: #4c72b0; stroke: #4c72b0"/>
     <use xlink:href="#mf4a5a17cf1" x="399.555273" y="286.231185" style="fill: #4c72b0; stroke: #4c72b0"/>
     <use xlink:href="#mf4a5a17cf1" x="400.540675" y="286.147243" style="fill: #4c72b0; stroke: #4c72b0"/>
     <use xlink:href="#mf4a5a17cf1" x="401.526078" y="286.243654" style="fill: #4c72b0; stroke: #4c72b0"/>
     <use xlink:href="#mf4a5a17cf1" x="402.511481" y="285.879522" style="fill: #4c72b0; stroke: #4c72b0"/>
     <use xlink:href="#mf4a5a17cf1" x="403.496883" y="285.626486" style="fill: #4c72b0; stroke: #4c72b0"/>
     <use xlink:href="#mf4a5a17cf1" x="404.482286" y="286.17859" style="fill: #4c72b0; stroke: #4c72b0"/>
     <use xlink:href="#mf4a5a17cf1" x="405.467688" y="285.963839" style="fill: #4c72b0; stroke: #4c72b0"/>
     <use xlink:href="#mf4a5a17cf1" x="406.453091" y="286.986115" style="fill: #4c72b0; stroke: #4c72b0"/>
     <use xlink:href="#mf4a5a17cf1" x="407.438494" y="286.763625" style="fill: #4c72b0; stroke: #4c72b0"/>
     <use xlink:href="#mf4a5a17cf1" x="408.423896" y="286.026902" style="fill: #4c72b0; stroke: #4c72b0"/>
     <use xlink:href="#mf4a5a17cf1" x="409.409299" y="285.62961" style="fill: #4c72b0; stroke: #4c72b0"/>
     <use xlink:href="#mf4a5a17cf1" x="410.394701" y="285.452534" style="fill: #4c72b0; stroke: #4c72b0"/>
     <use xlink:href="#mf4a5a17cf1" x="411.380104" y="285.416667" style="fill: #4c72b0; stroke: #4c72b0"/>
     <use xlink:href="#mf4a5a17cf1" x="412.365506" y="284.240807" style="fill: #4c72b0; stroke: #4c72b0"/>
     <use xlink:href="#mf4a5a17cf1" x="413.350909" y="284.295827" style="fill: #4c72b0; stroke: #4c72b0"/>
     <use xlink:href="#mf4a5a17cf1" x="414.336312" y="282.665342" style="fill: #4c72b0; stroke: #4c72b0"/>
     <use xlink:href="#mf4a5a17cf1" x="415.321714" y="282.504315" style="fill: #4c72b0; stroke: #4c72b0"/>
     <use xlink:href="#mf4a5a17cf1" x="416.307117" y="282.337377" style="fill: #4c72b0; stroke: #4c72b0"/>
     <use xlink:href="#mf4a5a17cf1" x="417.292519" y="282.36748" style="fill: #4c72b0; stroke: #4c72b0"/>
     <use xlink:href="#mf4a5a17cf1" x="418.277922" y="282.358774" style="fill: #4c72b0; stroke: #4c72b0"/>
     <use xlink:href="#mf4a5a17cf1" x="419.263325" y="282.39784" style="fill: #4c72b0; stroke: #4c72b0"/>
     <use xlink:href="#mf4a5a17cf1" x="420.248727" y="281.019759" style="fill: #4c72b0; stroke: #4c72b0"/>
     <use xlink:href="#mf4a5a17cf1" x="421.23413" y="281.17609" style="fill: #4c72b0; stroke: #4c72b0"/>
     <use xlink:href="#mf4a5a17cf1" x="422.219532" y="280.12136" style="fill: #4c72b0; stroke: #4c72b0"/>
     <use xlink:href="#mf4a5a17cf1" x="423.204935" y="275.678268" style="fill: #4c72b0; stroke: #4c72b0"/>
     <use xlink:href="#mf4a5a17cf1" x="424.190338" y="274.26412" style="fill: #4c72b0; stroke: #4c72b0"/>
     <use xlink:href="#mf4a5a17cf1" x="425.17574" y="273.067856" style="fill: #4c72b0; stroke: #4c72b0"/>
     <use xlink:href="#mf4a5a17cf1" x="426.161143" y="272.885147" style="fill: #4c72b0; stroke: #4c72b0"/>
     <use xlink:href="#mf4a5a17cf1" x="427.146545" y="264.651769" style="fill: #4c72b0; stroke: #4c72b0"/>
     <use xlink:href="#mf4a5a17cf1" x="428.131948" y="264.449654" style="fill: #4c72b0; stroke: #4c72b0"/>
     <use xlink:href="#mf4a5a17cf1" x="429.117351" y="264.163426" style="fill: #4c72b0; stroke: #4c72b0"/>
     <use xlink:href="#mf4a5a17cf1" x="430.102753" y="262.521314" style="fill: #4c72b0; stroke: #4c72b0"/>
     <use xlink:href="#mf4a5a17cf1" x="433.058961" y="283.332098" style="fill: #4c72b0; stroke: #4c72b0"/>
     <use xlink:href="#mf4a5a17cf1" x="434.044364" y="283.306035" style="fill: #4c72b0; stroke: #4c72b0"/>
     <use xlink:href="#mf4a5a17cf1" x="435.029766" y="283.274253" style="fill: #4c72b0; stroke: #4c72b0"/>
     <use xlink:href="#mf4a5a17cf1" x="436.015169" y="283.134017" style="fill: #4c72b0; stroke: #4c72b0"/>
     <use xlink:href="#mf4a5a17cf1" x="437.000571" y="289.212409" style="fill: #4c72b0; stroke: #4c72b0"/>
     <use xlink:href="#mf4a5a17cf1" x="437.985974" y="289.480234" style="fill: #4c72b0; stroke: #4c72b0"/>
     <use xlink:href="#mf4a5a17cf1" x="438.971377" y="287.284859" style="fill: #4c72b0; stroke: #4c72b0"/>
     <use xlink:href="#mf4a5a17cf1" x="439.956779" y="286.933201" style="fill: #4c72b0; stroke: #4c72b0"/>
     <use xlink:href="#mf4a5a17cf1" x="440.942182" y="288.189502" style="fill: #4c72b0; stroke: #4c72b0"/>
     <use xlink:href="#mf4a5a17cf1" x="441.927584" y="287.861691" style="fill: #4c72b0; stroke: #4c72b0"/>
     <use xlink:href="#mf4a5a17cf1" x="442.912987" y="288.897" style="fill: #4c72b0; stroke: #4c72b0"/>
     <use xlink:href="#mf4a5a17cf1" x="443.89839" y="288.754536" style="fill: #4c72b0; stroke: #4c72b0"/>
     <use xlink:href="#mf4a5a17cf1" x="444.883792" y="288.969802" style="fill: #4c72b0; stroke: #4c72b0"/>
     <use xlink:href="#mf4a5a17cf1" x="445.869195" y="288.847867" style="fill: #4c72b0; stroke: #4c72b0"/>
     <use xlink:href="#mf4a5a17cf1" x="446.854597" y="288.615044" style="fill: #4c72b0; stroke: #4c72b0"/>
     <use xlink:href="#mf4a5a17cf1" x="447.84" y="288.557181" style="fill: #4c72b0; stroke: #4c72b0"/>
    </g>
   </g>
   <g id="patch_18">
    <path d="M 68.46 311.94 
L 68.46 256.715266 
" style="fill: none; stroke: #262626; stroke-width: 1.25; stroke-linejoin: miter; stroke-linecap: square"/>
   </g>
   <g id="patch_19">
    <path d="M 447.84 311.94 
L 447.84 256.715266 
" style="fill: none; stroke: #262626; stroke-width: 1.25; stroke-linejoin: miter; stroke-linecap: square"/>
   </g>
   <g id="patch_20">
    <path d="M 68.46 311.94 
L 447.84 311.94 
" style="fill: none; stroke: #262626; stroke-width: 1.25; stroke-linejoin: miter; stroke-linecap: square"/>
   </g>
   <g id="patch_21">
    <path d="M 68.46 256.715266 
L 447.84 256.715266 
" style="fill: none; stroke: #262626; stroke-width: 1.25; stroke-linejoin: miter; stroke-linecap: square"/>
   </g>
  </g>
 </g>
 <defs>
  <clipPath id="p0b16f66cce">
   <rect x="68.46" y="27.76" width="379.38" height="55.224734"/>
  </clipPath>
  <clipPath id="p9249bc5039">
   <rect x="68.46" y="104.078422" width="379.38" height="55.224734"/>
  </clipPath>
  <clipPath id="p7ba98ea9ff">
   <rect x="68.46" y="180.396844" width="379.38" height="55.224734"/>
  </clipPath>
  <clipPath id="p5a9c4cba9c">
   <rect x="68.46" y="256.715266" width="379.38" height="55.224734"/>
  </clipPath>
 </defs>
</svg>
