<?xml version="1.0" encoding="utf-8" standalone="no"?>
<!DOCTYPE svg PUBLIC "-//W3C//DTD SVG 1.1//EN"
  "http://www.w3.org/Graphics/SVG/1.1/DTD/svg11.dtd">
<svg xmlns:xlink="http://www.w3.org/1999/xlink" width="864pt" height="360pt" viewBox="0 0 864 360" xmlns="http://www.w3.org/2000/svg" version="1.1">
 <metadata>
  <rdf:RDF xmlns:dc="http://purl.org/dc/elements/1.1/" xmlns:cc="http://creativecommons.org/ns#" xmlns:rdf="http://www.w3.org/1999/02/22-rdf-syntax-ns#">
   <cc:Work>
    <dc:type rdf:resource="http://purl.org/dc/dcmitype/StillImage"/>
    <dc:date>2023-07-11T01:12:42.398342</dc:date>
    <dc:format>image/svg+xml</dc:format>
    <dc:creator>
     <cc:Agent>
      <dc:title>Matplotlib v3.7.1, https://matplotlib.org/</dc:title>
     </cc:Agent>
    </dc:creator>
   </cc:Work>
  </rdf:RDF>
 </metadata>
 <defs>
  <style type="text/css">*{stroke-linejoin: round; stroke-linecap: butt}</style>
 </defs>
 <g id="figure_1">
  <g id="patch_1">
   <path d="M 0 360 
L 864 360 
L 864 0 
L 0 0 
z
" style="fill: #ffffff"/>
  </g>
  <g id="axes_1">
   <g id="patch_2">
    <path d="M 108 320.4 
L 777.6 320.4 
L 777.6 43.2 
L 108 43.2 
z
" style="fill: #ffffff"/>
   </g>
   <g id="matplotlib.axis_1">
    <g id="xtick_1">
     <g id="line2d_1">
      <defs>
       <path id="mfefda5276e" d="M 0 0 
L 0 6 
" style="stroke: #262626; stroke-width: 1.25"/>
      </defs>
      <g>
       <use xlink:href="#mfefda5276e" x="137.98107" y="320.4" style="fill: #262626; stroke: #262626; stroke-width: 1.25"/>
      </g>
     </g>
     <g id="text_1">
      <!-- 2016 -->
      <g style="fill: #262626" transform="translate(125.747008 337.773594) scale(0.11 -0.11)">
       <defs>
        <path id="ArialMT-32" d="M 3222 541 
L 3222 0 
L 194 0 
Q 188 203 259 391 
Q 375 700 629 1000 
Q 884 1300 1366 1694 
Q 2113 2306 2375 2664 
Q 2638 3022 2638 3341 
Q 2638 3675 2398 3904 
Q 2159 4134 1775 4134 
Q 1369 4134 1125 3890 
Q 881 3647 878 3216 
L 300 3275 
Q 359 3922 746 4261 
Q 1134 4600 1788 4600 
Q 2447 4600 2831 4234 
Q 3216 3869 3216 3328 
Q 3216 3053 3103 2787 
Q 2991 2522 2730 2228 
Q 2469 1934 1863 1422 
Q 1356 997 1212 845 
Q 1069 694 975 541 
L 3222 541 
z
" transform="scale(0.015625)"/>
        <path id="ArialMT-30" d="M 266 2259 
Q 266 3072 433 3567 
Q 600 4063 929 4331 
Q 1259 4600 1759 4600 
Q 2128 4600 2406 4451 
Q 2684 4303 2865 4023 
Q 3047 3744 3150 3342 
Q 3253 2941 3253 2259 
Q 3253 1453 3087 958 
Q 2922 463 2592 192 
Q 2263 -78 1759 -78 
Q 1097 -78 719 397 
Q 266 969 266 2259 
z
M 844 2259 
Q 844 1131 1108 757 
Q 1372 384 1759 384 
Q 2147 384 2411 759 
Q 2675 1134 2675 2259 
Q 2675 3391 2411 3762 
Q 2147 4134 1753 4134 
Q 1366 4134 1134 3806 
Q 844 3388 844 2259 
z
" transform="scale(0.015625)"/>
        <path id="ArialMT-31" d="M 2384 0 
L 1822 0 
L 1822 3584 
Q 1619 3391 1289 3197 
Q 959 3003 697 2906 
L 697 3450 
Q 1169 3672 1522 3987 
Q 1875 4303 2022 4600 
L 2384 4600 
L 2384 0 
z
" transform="scale(0.015625)"/>
        <path id="ArialMT-36" d="M 3184 3459 
L 2625 3416 
Q 2550 3747 2413 3897 
Q 2184 4138 1850 4138 
Q 1581 4138 1378 3988 
Q 1113 3794 959 3422 
Q 806 3050 800 2363 
Q 1003 2672 1297 2822 
Q 1591 2972 1913 2972 
Q 2475 2972 2870 2558 
Q 3266 2144 3266 1488 
Q 3266 1056 3080 686 
Q 2894 316 2569 119 
Q 2244 -78 1831 -78 
Q 1128 -78 684 439 
Q 241 956 241 2144 
Q 241 3472 731 4075 
Q 1159 4600 1884 4600 
Q 2425 4600 2770 4297 
Q 3116 3994 3184 3459 
z
M 888 1484 
Q 888 1194 1011 928 
Q 1134 663 1356 523 
Q 1578 384 1822 384 
Q 2178 384 2434 671 
Q 2691 959 2691 1453 
Q 2691 1928 2437 2201 
Q 2184 2475 1800 2475 
Q 1419 2475 1153 2201 
Q 888 1928 888 1484 
z
" transform="scale(0.015625)"/>
       </defs>
       <use xlink:href="#ArialMT-32"/>
       <use xlink:href="#ArialMT-30" x="55.615234"/>
       <use xlink:href="#ArialMT-31" x="111.230469"/>
       <use xlink:href="#ArialMT-36" x="166.845703"/>
      </g>
     </g>
    </g>
    <g id="xtick_2">
     <g id="line2d_2">
      <g>
       <use xlink:href="#mfefda5276e" x="221.299762" y="320.4" style="fill: #262626; stroke: #262626; stroke-width: 1.25"/>
      </g>
     </g>
     <g id="text_2">
      <!-- 2017 -->
      <g style="fill: #262626" transform="translate(209.0657 337.773594) scale(0.11 -0.11)">
       <defs>
        <path id="ArialMT-37" d="M 303 3981 
L 303 4522 
L 3269 4522 
L 3269 4084 
Q 2831 3619 2401 2847 
Q 1972 2075 1738 1259 
Q 1569 684 1522 0 
L 944 0 
Q 953 541 1156 1306 
Q 1359 2072 1739 2783 
Q 2119 3494 2547 3981 
L 303 3981 
z
" transform="scale(0.015625)"/>
       </defs>
       <use xlink:href="#ArialMT-32"/>
       <use xlink:href="#ArialMT-30" x="55.615234"/>
       <use xlink:href="#ArialMT-31" x="111.230469"/>
       <use xlink:href="#ArialMT-37" x="166.845703"/>
      </g>
     </g>
    </g>
    <g id="xtick_3">
     <g id="line2d_3">
      <g>
       <use xlink:href="#mfefda5276e" x="304.390807" y="320.4" style="fill: #262626; stroke: #262626; stroke-width: 1.25"/>
      </g>
     </g>
     <g id="text_3">
      <!-- 2018 -->
      <g style="fill: #262626" transform="translate(292.156745 337.773594) scale(0.11 -0.11)">
       <defs>
        <path id="ArialMT-38" d="M 1131 2484 
Q 781 2613 612 2850 
Q 444 3088 444 3419 
Q 444 3919 803 4259 
Q 1163 4600 1759 4600 
Q 2359 4600 2725 4251 
Q 3091 3903 3091 3403 
Q 3091 3084 2923 2848 
Q 2756 2613 2416 2484 
Q 2838 2347 3058 2040 
Q 3278 1734 3278 1309 
Q 3278 722 2862 322 
Q 2447 -78 1769 -78 
Q 1091 -78 675 323 
Q 259 725 259 1325 
Q 259 1772 486 2073 
Q 713 2375 1131 2484 
z
M 1019 3438 
Q 1019 3113 1228 2906 
Q 1438 2700 1772 2700 
Q 2097 2700 2305 2904 
Q 2513 3109 2513 3406 
Q 2513 3716 2298 3927 
Q 2084 4138 1766 4138 
Q 1444 4138 1231 3931 
Q 1019 3725 1019 3438 
z
M 838 1322 
Q 838 1081 952 856 
Q 1066 631 1291 507 
Q 1516 384 1775 384 
Q 2178 384 2440 643 
Q 2703 903 2703 1303 
Q 2703 1709 2433 1975 
Q 2163 2241 1756 2241 
Q 1359 2241 1098 1978 
Q 838 1716 838 1322 
z
" transform="scale(0.015625)"/>
       </defs>
       <use xlink:href="#ArialMT-32"/>
       <use xlink:href="#ArialMT-30" x="55.615234"/>
       <use xlink:href="#ArialMT-31" x="111.230469"/>
       <use xlink:href="#ArialMT-38" x="166.845703"/>
      </g>
     </g>
    </g>
    <g id="xtick_4">
     <g id="line2d_4">
      <g>
       <use xlink:href="#mfefda5276e" x="387.481852" y="320.4" style="fill: #262626; stroke: #262626; stroke-width: 1.25"/>
      </g>
     </g>
     <g id="text_4">
      <!-- 2019 -->
      <g style="fill: #262626" transform="translate(375.24779 337.773594) scale(0.11 -0.11)">
       <defs>
        <path id="ArialMT-39" d="M 350 1059 
L 891 1109 
Q 959 728 1153 556 
Q 1347 384 1650 384 
Q 1909 384 2104 503 
Q 2300 622 2425 820 
Q 2550 1019 2634 1356 
Q 2719 1694 2719 2044 
Q 2719 2081 2716 2156 
Q 2547 1888 2255 1720 
Q 1963 1553 1622 1553 
Q 1053 1553 659 1965 
Q 266 2378 266 3053 
Q 266 3750 677 4175 
Q 1088 4600 1706 4600 
Q 2153 4600 2523 4359 
Q 2894 4119 3086 3673 
Q 3278 3228 3278 2384 
Q 3278 1506 3087 986 
Q 2897 466 2520 194 
Q 2144 -78 1638 -78 
Q 1100 -78 759 220 
Q 419 519 350 1059 
z
M 2653 3081 
Q 2653 3566 2395 3850 
Q 2138 4134 1775 4134 
Q 1400 4134 1122 3828 
Q 844 3522 844 3034 
Q 844 2597 1108 2323 
Q 1372 2050 1759 2050 
Q 2150 2050 2401 2323 
Q 2653 2597 2653 3081 
z
" transform="scale(0.015625)"/>
       </defs>
       <use xlink:href="#ArialMT-32"/>
       <use xlink:href="#ArialMT-30" x="55.615234"/>
       <use xlink:href="#ArialMT-31" x="111.230469"/>
       <use xlink:href="#ArialMT-39" x="166.845703"/>
      </g>
     </g>
    </g>
    <g id="xtick_5">
     <g id="line2d_5">
      <g>
       <use xlink:href="#mfefda5276e" x="470.572897" y="320.4" style="fill: #262626; stroke: #262626; stroke-width: 1.25"/>
      </g>
     </g>
     <g id="text_5">
      <!-- 2020 -->
      <g style="fill: #262626" transform="translate(458.338835 337.773594) scale(0.11 -0.11)">
       <use xlink:href="#ArialMT-32"/>
       <use xlink:href="#ArialMT-30" x="55.615234"/>
       <use xlink:href="#ArialMT-32" x="111.230469"/>
       <use xlink:href="#ArialMT-30" x="166.845703"/>
      </g>
     </g>
    </g>
    <g id="xtick_6">
     <g id="line2d_6">
      <g>
       <use xlink:href="#mfefda5276e" x="553.891589" y="320.4" style="fill: #262626; stroke: #262626; stroke-width: 1.25"/>
      </g>
     </g>
     <g id="text_6">
      <!-- 2021 -->
      <g style="fill: #262626" transform="translate(541.657527 337.773594) scale(0.11 -0.11)">
       <use xlink:href="#ArialMT-32"/>
       <use xlink:href="#ArialMT-30" x="55.615234"/>
       <use xlink:href="#ArialMT-32" x="111.230469"/>
       <use xlink:href="#ArialMT-31" x="166.845703"/>
      </g>
     </g>
    </g>
    <g id="xtick_7">
     <g id="line2d_7">
      <g>
       <use xlink:href="#mfefda5276e" x="636.982634" y="320.4" style="fill: #262626; stroke: #262626; stroke-width: 1.25"/>
      </g>
     </g>
     <g id="text_7">
      <!-- 2022 -->
      <g style="fill: #262626" transform="translate(624.748572 337.773594) scale(0.11 -0.11)">
       <use xlink:href="#ArialMT-32"/>
       <use xlink:href="#ArialMT-30" x="55.615234"/>
       <use xlink:href="#ArialMT-32" x="111.230469"/>
       <use xlink:href="#ArialMT-32" x="166.845703"/>
      </g>
     </g>
    </g>
    <g id="xtick_8">
     <g id="line2d_8">
      <g>
       <use xlink:href="#mfefda5276e" x="720.073679" y="320.4" style="fill: #262626; stroke: #262626; stroke-width: 1.25"/>
      </g>
     </g>
     <g id="text_8">
      <!-- 2023 -->
      <g style="fill: #262626" transform="translate(707.839617 337.773594) scale(0.11 -0.11)">
       <defs>
        <path id="ArialMT-33" d="M 269 1209 
L 831 1284 
Q 928 806 1161 595 
Q 1394 384 1728 384 
Q 2125 384 2398 659 
Q 2672 934 2672 1341 
Q 2672 1728 2419 1979 
Q 2166 2231 1775 2231 
Q 1616 2231 1378 2169 
L 1441 2663 
Q 1497 2656 1531 2656 
Q 1891 2656 2178 2843 
Q 2466 3031 2466 3422 
Q 2466 3731 2256 3934 
Q 2047 4138 1716 4138 
Q 1388 4138 1169 3931 
Q 950 3725 888 3313 
L 325 3413 
Q 428 3978 793 4289 
Q 1159 4600 1703 4600 
Q 2078 4600 2393 4439 
Q 2709 4278 2876 4000 
Q 3044 3722 3044 3409 
Q 3044 3113 2884 2869 
Q 2725 2625 2413 2481 
Q 2819 2388 3044 2092 
Q 3269 1797 3269 1353 
Q 3269 753 2831 336 
Q 2394 -81 1725 -81 
Q 1122 -81 723 278 
Q 325 638 269 1209 
z
" transform="scale(0.015625)"/>
       </defs>
       <use xlink:href="#ArialMT-32"/>
       <use xlink:href="#ArialMT-30" x="55.615234"/>
       <use xlink:href="#ArialMT-32" x="111.230469"/>
       <use xlink:href="#ArialMT-33" x="166.845703"/>
      </g>
     </g>
    </g>
    <g id="text_9">
     <!-- Date -->
     <g style="fill: #262626" transform="translate(430.126875 352.549219) scale(0.12 -0.12)">
      <defs>
       <path id="ArialMT-44" d="M 494 0 
L 494 4581 
L 2072 4581 
Q 2606 4581 2888 4516 
Q 3281 4425 3559 4188 
Q 3922 3881 4101 3404 
Q 4281 2928 4281 2316 
Q 4281 1794 4159 1391 
Q 4038 988 3847 723 
Q 3656 459 3429 307 
Q 3203 156 2883 78 
Q 2563 0 2147 0 
L 494 0 
z
M 1100 541 
L 2078 541 
Q 2531 541 2789 625 
Q 3047 709 3200 863 
Q 3416 1078 3536 1442 
Q 3656 1806 3656 2325 
Q 3656 3044 3420 3430 
Q 3184 3816 2847 3947 
Q 2603 4041 2063 4041 
L 1100 4041 
L 1100 541 
z
" transform="scale(0.015625)"/>
       <path id="ArialMT-61" d="M 2588 409 
Q 2275 144 1986 34 
Q 1697 -75 1366 -75 
Q 819 -75 525 192 
Q 231 459 231 875 
Q 231 1119 342 1320 
Q 453 1522 633 1644 
Q 813 1766 1038 1828 
Q 1203 1872 1538 1913 
Q 2219 1994 2541 2106 
Q 2544 2222 2544 2253 
Q 2544 2597 2384 2738 
Q 2169 2928 1744 2928 
Q 1347 2928 1158 2789 
Q 969 2650 878 2297 
L 328 2372 
Q 403 2725 575 2942 
Q 747 3159 1072 3276 
Q 1397 3394 1825 3394 
Q 2250 3394 2515 3294 
Q 2781 3194 2906 3042 
Q 3031 2891 3081 2659 
Q 3109 2516 3109 2141 
L 3109 1391 
Q 3109 606 3145 398 
Q 3181 191 3288 0 
L 2700 0 
Q 2613 175 2588 409 
z
M 2541 1666 
Q 2234 1541 1622 1453 
Q 1275 1403 1131 1340 
Q 988 1278 909 1158 
Q 831 1038 831 891 
Q 831 666 1001 516 
Q 1172 366 1500 366 
Q 1825 366 2078 508 
Q 2331 650 2450 897 
Q 2541 1088 2541 1459 
L 2541 1666 
z
" transform="scale(0.015625)"/>
       <path id="ArialMT-74" d="M 1650 503 
L 1731 6 
Q 1494 -44 1306 -44 
Q 1000 -44 831 53 
Q 663 150 594 308 
Q 525 466 525 972 
L 525 2881 
L 113 2881 
L 113 3319 
L 525 3319 
L 525 4141 
L 1084 4478 
L 1084 3319 
L 1650 3319 
L 1650 2881 
L 1084 2881 
L 1084 941 
Q 1084 700 1114 631 
Q 1144 563 1211 522 
Q 1278 481 1403 481 
Q 1497 481 1650 503 
z
" transform="scale(0.015625)"/>
       <path id="ArialMT-65" d="M 2694 1069 
L 3275 997 
Q 3138 488 2766 206 
Q 2394 -75 1816 -75 
Q 1088 -75 661 373 
Q 234 822 234 1631 
Q 234 2469 665 2931 
Q 1097 3394 1784 3394 
Q 2450 3394 2872 2941 
Q 3294 2488 3294 1666 
Q 3294 1616 3291 1516 
L 816 1516 
Q 847 969 1125 678 
Q 1403 388 1819 388 
Q 2128 388 2347 550 
Q 2566 713 2694 1069 
z
M 847 1978 
L 2700 1978 
Q 2663 2397 2488 2606 
Q 2219 2931 1791 2931 
Q 1403 2931 1139 2672 
Q 875 2413 847 1978 
z
" transform="scale(0.015625)"/>
      </defs>
      <use xlink:href="#ArialMT-44"/>
      <use xlink:href="#ArialMT-61" x="72.216797"/>
      <use xlink:href="#ArialMT-74" x="127.832031"/>
      <use xlink:href="#ArialMT-65" x="155.615234"/>
     </g>
    </g>
   </g>
   <g id="matplotlib.axis_2">
    <g id="ytick_1">
     <g id="line2d_9">
      <defs>
       <path id="mf21bc76520" d="M 0 0 
L -6 0 
" style="stroke: #262626; stroke-width: 1.25"/>
      </defs>
      <g>
       <use xlink:href="#mf21bc76520" x="108" y="319.805288" style="fill: #262626; stroke: #262626; stroke-width: 1.25"/>
      </g>
     </g>
     <g id="text_10">
      <!-- 0 -->
      <g style="fill: #262626" transform="translate(92.382969 323.742085) scale(0.11 -0.11)">
       <use xlink:href="#ArialMT-30"/>
      </g>
     </g>
    </g>
    <g id="ytick_2">
     <g id="line2d_10">
      <g>
       <use xlink:href="#mf21bc76520" x="108" y="260.334094" style="fill: #262626; stroke: #262626; stroke-width: 1.25"/>
      </g>
     </g>
     <g id="text_11">
      <!-- 5000 -->
      <g style="fill: #262626" transform="translate(74.031875 264.27089) scale(0.11 -0.11)">
       <defs>
        <path id="ArialMT-35" d="M 266 1200 
L 856 1250 
Q 922 819 1161 601 
Q 1400 384 1738 384 
Q 2144 384 2425 690 
Q 2706 997 2706 1503 
Q 2706 1984 2436 2262 
Q 2166 2541 1728 2541 
Q 1456 2541 1237 2417 
Q 1019 2294 894 2097 
L 366 2166 
L 809 4519 
L 3088 4519 
L 3088 3981 
L 1259 3981 
L 1013 2750 
Q 1425 3038 1878 3038 
Q 2478 3038 2890 2622 
Q 3303 2206 3303 1553 
Q 3303 931 2941 478 
Q 2500 -78 1738 -78 
Q 1113 -78 717 272 
Q 322 622 266 1200 
z
" transform="scale(0.015625)"/>
       </defs>
       <use xlink:href="#ArialMT-35"/>
       <use xlink:href="#ArialMT-30" x="55.615234"/>
       <use xlink:href="#ArialMT-30" x="111.230469"/>
       <use xlink:href="#ArialMT-30" x="166.845703"/>
      </g>
     </g>
    </g>
    <g id="ytick_3">
     <g id="line2d_11">
      <g>
       <use xlink:href="#mf21bc76520" x="108" y="200.862899" style="fill: #262626; stroke: #262626; stroke-width: 1.25"/>
      </g>
     </g>
     <g id="text_12">
      <!-- 10000 -->
      <g style="fill: #262626" transform="translate(67.914844 204.799696) scale(0.11 -0.11)">
       <use xlink:href="#ArialMT-31"/>
       <use xlink:href="#ArialMT-30" x="55.615234"/>
       <use xlink:href="#ArialMT-30" x="111.230469"/>
       <use xlink:href="#ArialMT-30" x="166.845703"/>
       <use xlink:href="#ArialMT-30" x="222.460938"/>
      </g>
     </g>
    </g>
    <g id="ytick_4">
     <g id="line2d_12">
      <g>
       <use xlink:href="#mf21bc76520" x="108" y="141.391704" style="fill: #262626; stroke: #262626; stroke-width: 1.25"/>
      </g>
     </g>
     <g id="text_13">
      <!-- 15000 -->
      <g style="fill: #262626" transform="translate(67.914844 145.328501) scale(0.11 -0.11)">
       <use xlink:href="#ArialMT-31"/>
       <use xlink:href="#ArialMT-35" x="55.615234"/>
       <use xlink:href="#ArialMT-30" x="111.230469"/>
       <use xlink:href="#ArialMT-30" x="166.845703"/>
       <use xlink:href="#ArialMT-30" x="222.460938"/>
      </g>
     </g>
    </g>
    <g id="ytick_5">
     <g id="line2d_13">
      <g>
       <use xlink:href="#mf21bc76520" x="108" y="81.92051" style="fill: #262626; stroke: #262626; stroke-width: 1.25"/>
      </g>
     </g>
     <g id="text_14">
      <!-- 20000 -->
      <g style="fill: #262626" transform="translate(67.914844 85.857307) scale(0.11 -0.11)">
       <use xlink:href="#ArialMT-32"/>
       <use xlink:href="#ArialMT-30" x="55.615234"/>
       <use xlink:href="#ArialMT-30" x="111.230469"/>
       <use xlink:href="#ArialMT-30" x="166.845703"/>
       <use xlink:href="#ArialMT-30" x="222.460938"/>
      </g>
     </g>
    </g>
    <g id="text_15">
     <!-- Number of Cases -->
     <g style="fill: #262626" transform="translate(61.529844 228.481875) rotate(-90) scale(0.12 -0.12)">
      <defs>
       <path id="ArialMT-4e" d="M 488 0 
L 488 4581 
L 1109 4581 
L 3516 984 
L 3516 4581 
L 4097 4581 
L 4097 0 
L 3475 0 
L 1069 3600 
L 1069 0 
L 488 0 
z
" transform="scale(0.015625)"/>
       <path id="ArialMT-75" d="M 2597 0 
L 2597 488 
Q 2209 -75 1544 -75 
Q 1250 -75 995 37 
Q 741 150 617 320 
Q 494 491 444 738 
Q 409 903 409 1263 
L 409 3319 
L 972 3319 
L 972 1478 
Q 972 1038 1006 884 
Q 1059 663 1231 536 
Q 1403 409 1656 409 
Q 1909 409 2131 539 
Q 2353 669 2445 892 
Q 2538 1116 2538 1541 
L 2538 3319 
L 3100 3319 
L 3100 0 
L 2597 0 
z
" transform="scale(0.015625)"/>
       <path id="ArialMT-6d" d="M 422 0 
L 422 3319 
L 925 3319 
L 925 2853 
Q 1081 3097 1340 3245 
Q 1600 3394 1931 3394 
Q 2300 3394 2536 3241 
Q 2772 3088 2869 2813 
Q 3263 3394 3894 3394 
Q 4388 3394 4653 3120 
Q 4919 2847 4919 2278 
L 4919 0 
L 4359 0 
L 4359 2091 
Q 4359 2428 4304 2576 
Q 4250 2725 4106 2815 
Q 3963 2906 3769 2906 
Q 3419 2906 3187 2673 
Q 2956 2441 2956 1928 
L 2956 0 
L 2394 0 
L 2394 2156 
Q 2394 2531 2256 2718 
Q 2119 2906 1806 2906 
Q 1569 2906 1367 2781 
Q 1166 2656 1075 2415 
Q 984 2175 984 1722 
L 984 0 
L 422 0 
z
" transform="scale(0.015625)"/>
       <path id="ArialMT-62" d="M 941 0 
L 419 0 
L 419 4581 
L 981 4581 
L 981 2947 
Q 1338 3394 1891 3394 
Q 2197 3394 2470 3270 
Q 2744 3147 2920 2923 
Q 3097 2700 3197 2384 
Q 3297 2069 3297 1709 
Q 3297 856 2875 390 
Q 2453 -75 1863 -75 
Q 1275 -75 941 416 
L 941 0 
z
M 934 1684 
Q 934 1088 1097 822 
Q 1363 388 1816 388 
Q 2184 388 2453 708 
Q 2722 1028 2722 1663 
Q 2722 2313 2464 2622 
Q 2206 2931 1841 2931 
Q 1472 2931 1203 2611 
Q 934 2291 934 1684 
z
" transform="scale(0.015625)"/>
       <path id="ArialMT-72" d="M 416 0 
L 416 3319 
L 922 3319 
L 922 2816 
Q 1116 3169 1280 3281 
Q 1444 3394 1641 3394 
Q 1925 3394 2219 3213 
L 2025 2691 
Q 1819 2813 1613 2813 
Q 1428 2813 1281 2702 
Q 1134 2591 1072 2394 
Q 978 2094 978 1738 
L 978 0 
L 416 0 
z
" transform="scale(0.015625)"/>
       <path id="ArialMT-20" transform="scale(0.015625)"/>
       <path id="ArialMT-6f" d="M 213 1659 
Q 213 2581 725 3025 
Q 1153 3394 1769 3394 
Q 2453 3394 2887 2945 
Q 3322 2497 3322 1706 
Q 3322 1066 3130 698 
Q 2938 331 2570 128 
Q 2203 -75 1769 -75 
Q 1072 -75 642 372 
Q 213 819 213 1659 
z
M 791 1659 
Q 791 1022 1069 705 
Q 1347 388 1769 388 
Q 2188 388 2466 706 
Q 2744 1025 2744 1678 
Q 2744 2294 2464 2611 
Q 2184 2928 1769 2928 
Q 1347 2928 1069 2612 
Q 791 2297 791 1659 
z
" transform="scale(0.015625)"/>
       <path id="ArialMT-66" d="M 556 0 
L 556 2881 
L 59 2881 
L 59 3319 
L 556 3319 
L 556 3672 
Q 556 4006 616 4169 
Q 697 4388 901 4523 
Q 1106 4659 1475 4659 
Q 1713 4659 2000 4603 
L 1916 4113 
Q 1741 4144 1584 4144 
Q 1328 4144 1222 4034 
Q 1116 3925 1116 3625 
L 1116 3319 
L 1763 3319 
L 1763 2881 
L 1116 2881 
L 1116 0 
L 556 0 
z
" transform="scale(0.015625)"/>
       <path id="ArialMT-43" d="M 3763 1606 
L 4369 1453 
Q 4178 706 3683 314 
Q 3188 -78 2472 -78 
Q 1731 -78 1267 223 
Q 803 525 561 1097 
Q 319 1669 319 2325 
Q 319 3041 592 3573 
Q 866 4106 1370 4382 
Q 1875 4659 2481 4659 
Q 3169 4659 3637 4309 
Q 4106 3959 4291 3325 
L 3694 3184 
Q 3534 3684 3231 3912 
Q 2928 4141 2469 4141 
Q 1941 4141 1586 3887 
Q 1231 3634 1087 3207 
Q 944 2781 944 2328 
Q 944 1744 1114 1308 
Q 1284 872 1643 656 
Q 2003 441 2422 441 
Q 2931 441 3284 734 
Q 3638 1028 3763 1606 
z
" transform="scale(0.015625)"/>
       <path id="ArialMT-73" d="M 197 991 
L 753 1078 
Q 800 744 1014 566 
Q 1228 388 1613 388 
Q 2000 388 2187 545 
Q 2375 703 2375 916 
Q 2375 1106 2209 1216 
Q 2094 1291 1634 1406 
Q 1016 1563 777 1677 
Q 538 1791 414 1992 
Q 291 2194 291 2438 
Q 291 2659 392 2848 
Q 494 3038 669 3163 
Q 800 3259 1026 3326 
Q 1253 3394 1513 3394 
Q 1903 3394 2198 3281 
Q 2494 3169 2634 2976 
Q 2775 2784 2828 2463 
L 2278 2388 
Q 2241 2644 2061 2787 
Q 1881 2931 1553 2931 
Q 1166 2931 1000 2803 
Q 834 2675 834 2503 
Q 834 2394 903 2306 
Q 972 2216 1119 2156 
Q 1203 2125 1616 2013 
Q 2213 1853 2448 1751 
Q 2684 1650 2818 1456 
Q 2953 1263 2953 975 
Q 2953 694 2789 445 
Q 2625 197 2315 61 
Q 2006 -75 1616 -75 
Q 969 -75 630 194 
Q 291 463 197 991 
z
" transform="scale(0.015625)"/>
      </defs>
      <use xlink:href="#ArialMT-4e"/>
      <use xlink:href="#ArialMT-75" x="72.216797"/>
      <use xlink:href="#ArialMT-6d" x="127.832031"/>
      <use xlink:href="#ArialMT-62" x="211.132812"/>
      <use xlink:href="#ArialMT-65" x="266.748047"/>
      <use xlink:href="#ArialMT-72" x="322.363281"/>
      <use xlink:href="#ArialMT-20" x="355.664062"/>
      <use xlink:href="#ArialMT-6f" x="383.447266"/>
      <use xlink:href="#ArialMT-66" x="439.0625"/>
      <use xlink:href="#ArialMT-20" x="466.845703"/>
      <use xlink:href="#ArialMT-43" x="494.628906"/>
      <use xlink:href="#ArialMT-61" x="566.845703"/>
      <use xlink:href="#ArialMT-73" x="622.460938"/>
      <use xlink:href="#ArialMT-65" x="672.460938"/>
      <use xlink:href="#ArialMT-73" x="728.076172"/>
     </g>
    </g>
   </g>
   <g id="PolyCollection_1">
    <defs>
     <path id="mf0fb70e46f" d="M 637.210281 -129.215207 
L 637.210281 -40.194593 
L 638.803808 -40.194593 
L 640.397335 -40.194593 
L 641.990861 -40.194593 
L 643.584388 -40.194593 
L 645.177915 -40.194593 
L 646.771442 -40.194593 
L 648.364969 -40.194593 
L 649.958496 -40.194593 
L 651.552023 -40.194593 
L 653.14555 -40.194593 
L 654.739077 -40.194593 
L 656.332604 -40.194593 
L 657.92613 -40.194593 
L 659.519657 -40.194593 
L 661.113184 -40.194593 
L 662.706711 -40.194593 
L 664.300238 -40.194593 
L 665.893765 -40.194593 
L 667.487292 -40.194593 
L 669.080819 -40.194593 
L 670.674346 -40.194593 
L 672.267872 -40.194593 
L 673.861399 -40.194593 
L 675.454926 -40.194593 
L 677.048453 -40.194593 
L 678.64198 -40.194593 
L 680.235507 -40.194593 
L 681.829034 -40.194593 
L 683.422561 -40.194593 
L 685.016088 -40.194593 
L 686.609614 -40.194593 
L 688.203141 -40.194593 
L 689.796668 -40.194593 
L 691.390195 -40.194593 
L 692.983722 -40.194593 
L 694.577249 -40.194593 
L 696.170776 -40.194593 
L 697.764303 -40.194593 
L 699.35783 -40.194593 
L 700.951356 -40.194593 
L 702.544883 -40.194593 
L 704.13841 -40.194593 
L 705.731937 -40.194593 
L 707.325464 -40.194593 
L 708.918991 -40.194593 
L 710.512518 -40.194593 
L 712.106045 -40.194593 
L 713.699572 -40.194593 
L 715.293099 -40.194593 
L 716.886625 -40.194593 
L 718.480152 -40.194593 
L 720.073679 -40.194593 
L 721.667206 -40.194593 
L 723.260733 -40.194593 
L 724.85426 -40.194593 
L 726.447787 -40.194593 
L 728.041314 -40.194593 
L 729.634841 -40.194593 
L 731.228367 -40.194593 
L 732.821894 -40.194593 
L 734.415421 -40.194593 
L 736.008948 -40.194593 
L 737.602475 -40.194593 
L 739.196002 -40.194593 
L 740.789529 -40.194593 
L 742.383056 -40.194593 
L 743.976583 -40.194593 
L 745.570109 -40.194593 
L 747.163636 -40.194593 
L 747.163636 -193.605136 
L 747.163636 -193.605136 
L 745.570109 -194.52048 
L 743.976583 -184.61317 
L 742.383056 -202.839735 
L 740.789529 -224.436183 
L 739.196002 -195.382533 
L 737.602475 -216.606077 
L 736.008948 -202.195356 
L 734.415421 -196.786977 
L 732.821894 -206.111144 
L 731.228367 -214.789863 
L 729.634841 -205.146372 
L 728.041314 -207.397959 
L 726.447787 -197.396922 
L 724.85426 -189.243752 
L 723.260733 -200.039141 
L 721.667206 -204.569731 
L 720.073679 -213.438212 
L 718.480152 -214.482329 
L 716.886625 -198.955455 
L 715.293099 -189.148695 
L 713.699572 -163.108008 
L 712.106045 -174.346183 
L 710.512518 -164.200169 
L 708.918991 -176.355909 
L 707.325464 -172.558387 
L 705.731937 -172.037609 
L 704.13841 -164.068257 
L 702.544883 -157.900329 
L 700.951356 -160.503173 
L 699.35783 -152.73273 
L 697.764303 -180.737783 
L 696.170776 -163.825352 
L 694.577249 -167.750185 
L 692.983722 -153.745777 
L 691.390195 -172.087171 
L 689.796668 -176.29769 
L 688.203141 -160.334975 
L 686.609614 -168.088481 
L 685.016088 -188.295638 
L 683.422561 -176.389542 
L 681.829034 -173.154363 
L 680.235507 -189.278489 
L 678.64198 -166.122871 
L 677.048453 -194.12674 
L 675.454926 -161.12625 
L 673.861399 -158.622803 
L 672.267872 -178.216689 
L 670.674346 -176.810989 
L 669.080819 -167.30692 
L 667.487292 -150.439704 
L 665.893765 -148.52399 
L 664.300238 -148.192864 
L 662.706711 -158.609508 
L 661.113184 -170.72427 
L 659.519657 -192.207966 
L 657.92613 -157.679637 
L 656.332604 -148.245474 
L 654.739077 -186.463956 
L 653.14555 -137.526361 
L 651.552023 -155.306033 
L 649.958496 -156.937701 
L 648.364969 -153.24802 
L 646.771442 -159.303838 
L 645.177915 -160.320169 
L 643.584388 -198.041726 
L 641.990861 -154.958425 
L 640.397335 -173.82923 
L 638.803808 -137.819602 
L 637.210281 -129.215207 
z
" style="stroke: #ffa500; stroke-opacity: 0.25"/>
    </defs>
    <g clip-path="url(#pf68023d04d)">
     <use xlink:href="#mf0fb70e46f" x="0" y="360" style="fill: #ffa500; fill-opacity: 0.25; stroke: #ffa500; stroke-opacity: 0.25"/>
    </g>
   </g>
   <g id="PathCollection_1">
    <defs>
     <path id="m4870d7a1a5" d="M 0 3.535534 
C 0.937635 3.535534 1.836992 3.163008 2.5 2.5 
C 3.163008 1.836992 3.535534 0.937635 3.535534 0 
C 3.535534 -0.937635 3.163008 -1.836992 2.5 -2.5 
C 1.836992 -3.163008 0.937635 -3.535534 0 -3.535534 
C -0.937635 -3.535534 -1.836992 -3.163008 -2.5 -2.5 
C -3.163008 -1.836992 -3.535534 -0.937635 -3.535534 0 
C -3.535534 0.937635 -3.163008 1.836992 -2.5 2.5 
C -1.836992 3.163008 -0.937635 3.535534 0 3.535534 
z
" style="stroke: #ffffff; stroke-width: 0.565685"/>
    </defs>
    <g clip-path="url(#pf68023d04d)">
     <use xlink:href="#m4870d7a1a5" x="637.210281" y="318.306614" style="fill: #ff0000; stroke: #ffffff; stroke-width: 0.565685"/>
     <use xlink:href="#m4870d7a1a5" x="638.803808" y="312.526014" style="fill: #ff0000; stroke: #ffffff; stroke-width: 0.565685"/>
     <use xlink:href="#m4870d7a1a5" x="640.397335" y="309.873599" style="fill: #ff0000; stroke: #ffffff; stroke-width: 0.565685"/>
     <use xlink:href="#m4870d7a1a5" x="641.990861" y="309.362146" style="fill: #ff0000; stroke: #ffffff; stroke-width: 0.565685"/>
     <use xlink:href="#m4870d7a1a5" x="643.584388" y="309.635714" style="fill: #ff0000; stroke: #ffffff; stroke-width: 0.565685"/>
     <use xlink:href="#m4870d7a1a5" x="645.177915" y="305.460836" style="fill: #ff0000; stroke: #ffffff; stroke-width: 0.565685"/>
     <use xlink:href="#m4870d7a1a5" x="646.771442" y="307.399597" style="fill: #ff0000; stroke: #ffffff; stroke-width: 0.565685"/>
     <use xlink:href="#m4870d7a1a5" x="648.364969" y="302.689478" style="fill: #ff0000; stroke: #ffffff; stroke-width: 0.565685"/>
     <use xlink:href="#m4870d7a1a5" x="649.958496" y="306.531317" style="fill: #ff0000; stroke: #ffffff; stroke-width: 0.565685"/>
     <use xlink:href="#m4870d7a1a5" x="651.552023" y="302.879786" style="fill: #ff0000; stroke: #ffffff; stroke-width: 0.565685"/>
     <use xlink:href="#m4870d7a1a5" x="653.14555" y="303.36745" style="fill: #ff0000; stroke: #ffffff; stroke-width: 0.565685"/>
     <use xlink:href="#m4870d7a1a5" x="654.739077" y="299.359091" style="fill: #ff0000; stroke: #ffffff; stroke-width: 0.565685"/>
     <use xlink:href="#m4870d7a1a5" x="656.332604" y="302.35644" style="fill: #ff0000; stroke: #ffffff; stroke-width: 0.565685"/>
     <use xlink:href="#m4870d7a1a5" x="657.92613" y="295.362627" style="fill: #ff0000; stroke: #ffffff; stroke-width: 0.565685"/>
     <use xlink:href="#m4870d7a1a5" x="659.519657" y="302.047189" style="fill: #ff0000; stroke: #ffffff; stroke-width: 0.565685"/>
     <use xlink:href="#m4870d7a1a5" x="661.113184" y="291.163961" style="fill: #ff0000; stroke: #ffffff; stroke-width: 0.565685"/>
     <use xlink:href="#m4870d7a1a5" x="662.706711" y="293.400078" style="fill: #ff0000; stroke: #ffffff; stroke-width: 0.565685"/>
     <use xlink:href="#m4870d7a1a5" x="664.300238" y="284.229619" style="fill: #ff0000; stroke: #ffffff; stroke-width: 0.565685"/>
     <use xlink:href="#m4870d7a1a5" x="665.893765" y="291.045018" style="fill: #ff0000; stroke: #ffffff; stroke-width: 0.565685"/>
     <use xlink:href="#m4870d7a1a5" x="667.487292" y="233.572056" style="fill: #ff0000; stroke: #ffffff; stroke-width: 0.565685"/>
     <use xlink:href="#m4870d7a1a5" x="669.080819" y="317.676219" style="fill: #ff0000; stroke: #ffffff; stroke-width: 0.565685"/>
     <use xlink:href="#m4870d7a1a5" x="670.674346" y="265.210731" style="fill: #ff0000; stroke: #ffffff; stroke-width: 0.565685"/>
     <use xlink:href="#m4870d7a1a5" x="672.267872" y="251.87729" style="fill: #ff0000; stroke: #ffffff; stroke-width: 0.565685"/>
     <use xlink:href="#m4870d7a1a5" x="673.861399" y="245.989641" style="fill: #ff0000; stroke: #ffffff; stroke-width: 0.565685"/>
     <use xlink:href="#m4870d7a1a5" x="675.454926" y="163.09869" style="fill: #ff0000; stroke: #ffffff; stroke-width: 0.565685"/>
     <use xlink:href="#m4870d7a1a5" x="677.048453" y="315.130852" style="fill: #ff0000; stroke: #ffffff; stroke-width: 0.565685"/>
     <use xlink:href="#m4870d7a1a5" x="678.64198" y="216.099419" style="fill: #ff0000; stroke: #ffffff; stroke-width: 0.565685"/>
     <use xlink:href="#m4870d7a1a5" x="680.235507" y="216.46814" style="fill: #ff0000; stroke: #ffffff; stroke-width: 0.565685"/>
     <use xlink:href="#m4870d7a1a5" x="681.829034" y="203.884036" style="fill: #ff0000; stroke: #ffffff; stroke-width: 0.565685"/>
     <use xlink:href="#m4870d7a1a5" x="683.422561" y="197.580089" style="fill: #ff0000; stroke: #ffffff; stroke-width: 0.565685"/>
     <use xlink:href="#m4870d7a1a5" x="685.016088" y="130.60363" style="fill: #ff0000; stroke: #ffffff; stroke-width: 0.565685"/>
     <use xlink:href="#m4870d7a1a5" x="686.609614" y="316.72468" style="fill: #ff0000; stroke: #ffffff; stroke-width: 0.565685"/>
     <use xlink:href="#m4870d7a1a5" x="688.203141" y="206.08447" style="fill: #ff0000; stroke: #ffffff; stroke-width: 0.565685"/>
     <use xlink:href="#m4870d7a1a5" x="689.796668" y="117.662698" style="fill: #ff0000; stroke: #ffffff; stroke-width: 0.565685"/>
     <use xlink:href="#m4870d7a1a5" x="691.390195" y="316.129968" style="fill: #ff0000; stroke: #ffffff; stroke-width: 0.565685"/>
     <use xlink:href="#m4870d7a1a5" x="692.983722" y="142.057782" style="fill: #ff0000; stroke: #ffffff; stroke-width: 0.565685"/>
     <use xlink:href="#m4870d7a1a5" x="694.577249" y="315.499574" style="fill: #ff0000; stroke: #ffffff; stroke-width: 0.565685"/>
     <use xlink:href="#m4870d7a1a5" x="696.170776" y="176.729488" style="fill: #ff0000; stroke: #ffffff; stroke-width: 0.565685"/>
     <use xlink:href="#m4870d7a1a5" x="697.764303" y="316.855517" style="fill: #ff0000; stroke: #ffffff; stroke-width: 0.565685"/>
     <use xlink:href="#m4870d7a1a5" x="699.35783" y="217.574305" style="fill: #ff0000; stroke: #ffffff; stroke-width: 0.565685"/>
     <use xlink:href="#m4870d7a1a5" x="700.951356" y="318.104412" style="fill: #ff0000; stroke: #ffffff; stroke-width: 0.565685"/>
     <use xlink:href="#m4870d7a1a5" x="702.544883" y="253.328387" style="fill: #ff0000; stroke: #ffffff; stroke-width: 0.565685"/>
     <use xlink:href="#m4870d7a1a5" x="704.13841" y="254.981686" style="fill: #ff0000; stroke: #ffffff; stroke-width: 0.565685"/>
     <use xlink:href="#m4870d7a1a5" x="705.731937" y="275.582508" style="fill: #ff0000; stroke: #ffffff; stroke-width: 0.565685"/>
     <use xlink:href="#m4870d7a1a5" x="707.325464" y="262.938932" style="fill: #ff0000; stroke: #ffffff; stroke-width: 0.565685"/>
     <use xlink:href="#m4870d7a1a5" x="708.918991" y="270.206312" style="fill: #ff0000; stroke: #ffffff; stroke-width: 0.565685"/>
     <use xlink:href="#m4870d7a1a5" x="710.512518" y="273.346391" style="fill: #ff0000; stroke: #ffffff; stroke-width: 0.565685"/>
     <use xlink:href="#m4870d7a1a5" x="712.106045" y="275.891758" style="fill: #ff0000; stroke: #ffffff; stroke-width: 0.565685"/>
     <use xlink:href="#m4870d7a1a5" x="713.699572" y="276.391316" style="fill: #ff0000; stroke: #ffffff; stroke-width: 0.565685"/>
     <use xlink:href="#m4870d7a1a5" x="715.293099" y="274.868853" style="fill: #ff0000; stroke: #ffffff; stroke-width: 0.565685"/>
     <use xlink:href="#m4870d7a1a5" x="716.886625" y="274.940219" style="fill: #ff0000; stroke: #ffffff; stroke-width: 0.565685"/>
     <use xlink:href="#m4870d7a1a5" x="718.480152" y="295.778925" style="fill: #ff0000; stroke: #ffffff; stroke-width: 0.565685"/>
     <use xlink:href="#m4870d7a1a5" x="720.073679" y="313.251562" style="fill: #ff0000; stroke: #ffffff; stroke-width: 0.565685"/>
     <use xlink:href="#m4870d7a1a5" x="721.667206" y="313.251562" style="fill: #ff0000; stroke: #ffffff; stroke-width: 0.565685"/>
     <use xlink:href="#m4870d7a1a5" x="723.260733" y="296.207118" style="fill: #ff0000; stroke: #ffffff; stroke-width: 0.565685"/>
     <use xlink:href="#m4870d7a1a5" x="724.85426" y="284.336668" style="fill: #ff0000; stroke: #ffffff; stroke-width: 0.565685"/>
     <use xlink:href="#m4870d7a1a5" x="726.447787" y="292.603164" style="fill: #ff0000; stroke: #ffffff; stroke-width: 0.565685"/>
     <use xlink:href="#m4870d7a1a5" x="728.041314" y="285.585563" style="fill: #ff0000; stroke: #ffffff; stroke-width: 0.565685"/>
     <use xlink:href="#m4870d7a1a5" x="729.634841" y="281.422579" style="fill: #ff0000; stroke: #ffffff; stroke-width: 0.565685"/>
     <use xlink:href="#m4870d7a1a5" x="731.228367" y="281.410685" style="fill: #ff0000; stroke: #ffffff; stroke-width: 0.565685"/>
     <use xlink:href="#m4870d7a1a5" x="732.821894" y="292.829154" style="fill: #ff0000; stroke: #ffffff; stroke-width: 0.565685"/>
     <use xlink:href="#m4870d7a1a5" x="734.415421" y="289.629604" style="fill: #ff0000; stroke: #ffffff; stroke-width: 0.565685"/>
     <use xlink:href="#m4870d7a1a5" x="736.008948" y="280.47104" style="fill: #ff0000; stroke: #ffffff; stroke-width: 0.565685"/>
     <use xlink:href="#m4870d7a1a5" x="737.602475" y="290.997441" style="fill: #ff0000; stroke: #ffffff; stroke-width: 0.565685"/>
     <use xlink:href="#m4870d7a1a5" x="739.196002" y="293.816376" style="fill: #ff0000; stroke: #ffffff; stroke-width: 0.565685"/>
     <use xlink:href="#m4870d7a1a5" x="740.789529" y="300.726929" style="fill: #ff0000; stroke: #ffffff; stroke-width: 0.565685"/>
     <use xlink:href="#m4870d7a1a5" x="742.383056" y="303.867008" style="fill: #ff0000; stroke: #ffffff; stroke-width: 0.565685"/>
     <use xlink:href="#m4870d7a1a5" x="743.976583" y="308.041886" style="fill: #ff0000; stroke: #ffffff; stroke-width: 0.565685"/>
     <use xlink:href="#m4870d7a1a5" x="745.570109" y="273.869737" style="fill: #ff0000; stroke: #ffffff; stroke-width: 0.565685"/>
     <use xlink:href="#m4870d7a1a5" x="747.163636" y="292.484221" style="fill: #ff0000; stroke: #ffffff; stroke-width: 0.565685"/>
    </g>
   </g>
   <g id="line2d_14">
    <path d="M 138.436364 260.991877 
L 140.029891 275.120729 
L 141.623417 279.477839 
L 143.216944 279.913628 
L 144.810471 299.892995 
L 146.403998 302.963046 
L 147.997525 316.784151 
L 149.591052 283.301869 
L 151.184579 255.457456 
L 152.778106 317.700008 
M 155.965159 267.910724 
L 157.558686 296.742359 
L 159.152213 297.087292 
L 160.74574 319.805288 
L 162.339267 265.282097 
L 163.932794 299.263937 
L 165.526321 281.125223 
L 167.119848 317.854633 
L 168.713375 281.767512 
L 170.306901 318.52071 
L 173.493955 292.769683 
L 175.087482 266.590463 
L 176.681009 315.344948 
L 178.274536 289.367931 
L 179.868063 244.169823 
M 183.055117 255.600186 
L 184.648644 90.008592 
L 186.24217 241.267629 
L 187.835697 270.170629 
L 189.429224 312.573591 
L 191.022751 209.938203 
L 192.616278 140.226069 
L 194.209805 312.074033 
L 195.803332 138.48951 
L 197.396859 312.466543 
L 198.990386 222.486625 
L 200.583912 195.914896 
L 202.177439 313.977111 
L 203.770966 164.323797 
L 205.364493 299.739707 
M 208.551547 260.512507 
L 210.145074 194.999039 
L 211.738601 315.618516 
L 213.332128 214.493697 
L 214.925654 315.118958 
L 216.519181 226.720974 
L 218.112708 303.415027 
L 219.706235 209.438645 
L 221.299762 290.664403 
L 222.893289 292.591269 
L 224.486816 296.552051 
L 226.080343 296.373637 
L 227.67387 299.311514 
L 229.267396 300.643669 
L 230.860923 304.140575 
L 232.45445 305.603567 
L 234.047977 310.94408 
L 235.641504 317.925998 
L 237.235031 289.130046 
L 238.828558 318.259037 
L 240.422085 308.945848 
L 242.015612 301.000496 
L 243.609139 310.052012 
L 245.202665 307.018981 
L 246.796192 307.708847 
L 248.389719 304.663922 
L 249.983246 300.857765 
L 251.576773 318.770489 
L 253.1703 299.870544 
L 254.763827 318.473133 
L 256.357354 298.776274 
L 257.950881 309.695185 
L 259.544407 316.784151 
L 261.137934 303.569652 
L 262.731461 277.390432 
L 264.324988 317.628642 
L 265.918515 251.853501 
L 267.512042 303.200931 
L 269.105569 316.49869 
L 270.699096 239.53107 
L 272.292623 313.44187 
L 273.886149 254.981686 
L 275.479676 316.451113 
L 277.073203 229.468544 
L 278.66673 316.558161 
L 280.260257 236.688347 
L 281.853784 315.737458 
L 283.447311 200.280081 
L 285.040838 308.196511 
L 286.634365 317.140979 
L 288.227891 273.191766 
L 289.821418 317.045825 
L 291.414945 240.446926 
L 293.008472 301.88067 
L 296.195526 317.188555 
L 297.789053 234.238133 
L 299.38258 301.821199 
L 300.976107 310.848926 
M 304.16316 304.414143 
L 305.756687 304.104893 
L 307.350214 306.911933 
L 308.943741 316.33217 
L 310.537268 302.903575 
L 312.130795 301.595208 
L 313.724322 295.600512 
L 315.317849 304.604451 
L 316.911376 300.179794 
M 332.846644 289.292601 
L 334.440171 301.511949 
L 336.033698 302.820315 
L 337.627225 300.548515 
L 339.220752 294.399194 
L 340.814279 290.129162 
L 342.407806 287.452958 
M 345.59486 247.131488 
L 347.188386 259.596651 
L 348.781913 265.912492 
L 350.37544 243.016082 
L 351.968967 245.953959 
L 353.562494 250.937645 
L 355.156021 233.120075 
L 356.749548 256.730139 
L 358.343075 241.933706 
L 359.936602 246.524882 
L 361.530129 195.641328 
L 363.123655 256.658774 
L 364.717182 211.329829 
L 366.310709 234.28571 
L 367.904236 246.608142 
L 369.497763 234.273816 
L 371.09129 234.630643 
L 372.684817 265.341568 
L 374.278344 227.446523 
L 375.871871 221.725394 
L 377.465397 239.174243 
L 379.058924 246.869815 
L 380.652451 238.686579 
L 382.245978 245.430612 
L 383.839505 247.880825 
L 385.433032 264.865799 
L 387.026559 313.893851 
L 388.620086 290.926076 
L 390.213613 270.408514 
L 391.807139 256.135427 
L 393.400666 232.465892 
L 394.994193 251.675088 
L 396.58772 276.189114 
L 398.181247 230.657967 
L 399.774774 315.118958 
L 401.368301 230.503342 
L 402.961828 271.419524 
L 404.555355 272.692208 
L 406.148881 279.590866 
L 407.742408 282.18381 
L 409.335935 253.720897 
L 410.929462 292.19876 
L 412.522989 290.474095 
L 414.116516 288.951632 
L 415.710043 293.673645 
L 417.30357 286.893929 
L 418.897097 285.300101 
L 420.490624 276.641095 
L 422.08415 273.179872 
L 423.677677 262.986509 
L 425.271204 249.486548 
L 426.864731 219.287075 
L 428.458258 208.522789 
L 430.051785 147.612391 
L 431.645312 134.267055 
L 433.238839 63.543911 
L 436.425892 77.698055 
L 438.019419 72.179128 
L 439.612946 86.725782 
L 441.206473 56.371685 
L 442.8 74.831544 
L 444.393527 133.922122 
L 445.987054 141.522541 
L 447.580581 160.172708 
L 449.174108 167.808809 
L 450.767634 180.012298 
L 452.361161 188.124169 
L 453.954688 241.208157 
L 455.548215 213.601629 
L 457.141742 224.151819 
L 458.735269 231.811709 
L 460.328796 248.28523 
L 461.922323 250.521346 
L 463.51585 258.466698 
L 465.109376 310.71809 
L 466.702903 213.280484 
L 468.29643 309.421617 
L 469.889957 295.743243 
L 471.483484 265.948174 
L 473.077011 270.301466 
L 474.670538 259.097093 
L 476.264065 272.739785 
L 477.857592 251.675088 
L 479.451119 276.189114 
L 481.044645 271.752563 
L 482.638172 274.024363 
L 484.231699 282.623897 
M 509.728129 309.959237 
L 511.321656 309.54056 
L 512.915183 307.589905 
L 514.50871 311.848042 
L 516.102237 302.035295 
L 517.695764 306.412375 
L 519.289291 309.041002 
L 520.882818 308.029992 
L 522.476345 306.198279 
M 528.850452 287.476747 
L 530.443979 305.520307 
L 532.037506 303.617229 
L 533.631033 302.011507 
L 535.22456 306.674048 
M 540.00514 281.160906 
L 541.598667 303.177142 
L 543.192194 304.128681 
L 544.785721 302.344545 
L 546.379248 297.539273 
L 547.972775 303.486392 
L 549.566302 315.440102 
M 552.753356 313.786803 
L 554.346882 316.41543 
L 555.940409 303.950268 
L 557.533936 299.168784 
L 559.127463 302.784632 
L 560.72099 298.038831 
L 562.314517 319.805288 
L 563.908044 276.438893 
L 565.501571 297.396542 
L 567.095098 301.309747 
L 568.688624 302.855998 
L 570.282151 306.150702 
L 571.875678 303.652912 
L 573.469205 298.895216 
L 575.062732 306.019865 
L 576.656259 308.731752 
L 578.249786 307.494751 
L 579.843313 308.636598 
L 583.030366 311.181965 
L 584.623893 306.043654 
L 586.21742 309.992541 
L 587.810947 308.612809 
L 589.404474 309.23131 
L 592.591528 303.522075 
L 594.185055 305.127797 
L 595.778582 303.807537 
L 597.372109 301.595208 
L 598.965635 293.709328 
L 600.559162 296.611522 
L 602.152689 282.421695 
L 603.746216 300.037063 
L 605.339743 291.960875 
L 606.93327 295.445887 
L 608.526797 298.443235 
L 610.120324 297.919888 
L 611.713851 301.131333 
L 613.307377 306.983299 
L 614.900904 303.605335 
L 616.494431 301.844987 
L 618.087958 301.297852 
L 619.681485 299.715919 
L 621.275012 296.528263 
L 622.868539 301.868776 
L 624.462066 295.778925 
L 626.055593 298.776274 
L 627.649119 295.445887 
L 629.242646 295.410204 
L 630.836173 294.375405 
L 632.4297 296.290378 
L 634.023227 301.119439 
L 635.616754 300.013275 
L 635.616754 300.013275 
" clip-path="url(#pf68023d04d)" style="fill: none; stroke: #008080; stroke-width: 1.5; stroke-linecap: round"/>
   </g>
   <g id="line2d_15">
    <path d="M 637.210281 308.029992 
L 638.803808 304.057316 
L 640.397335 288.285555 
L 641.990861 300.691246 
L 643.584388 296.01681 
L 645.177915 303.59344 
L 646.771442 313.061255 
L 648.364969 302.522959 
L 649.958496 299.061735 
L 651.552023 301.167016 
L 653.14555 315.868295 
L 654.739077 299.573188 
L 656.332604 312.763899 
L 657.92613 308.719857 
L 659.519657 291.841932 
L 661.113184 316.011026 
L 662.706711 307.518539 
L 664.300238 306.233961 
L 665.893765 306.007971 
L 667.487292 306.103125 
L 669.080819 304.247624 
L 670.674346 304.081104 
L 672.267872 303.129565 
L 673.861399 300.334419 
L 675.454926 293.055145 
L 677.048453 289.986431 
L 678.64198 295.802714 
L 680.235507 283.099667 
L 681.829034 293.578491 
L 683.422561 298.110196 
L 685.016088 299.347197 
L 686.609614 296.076281 
L 688.203141 301.88067 
L 689.796668 304.782864 
L 691.390195 299.787284 
L 692.983722 307.078452 
L 694.577249 297.931783 
L 696.170776 296.540157 
L 697.764303 301.844987 
L 699.35783 298.122091 
L 700.951356 300.274948 
L 702.544883 298.015042 
L 704.13841 293.162193 
L 705.731937 300.584198 
L 707.325464 295.576723 
L 708.918991 295.0058 
L 710.512518 301.904459 
L 712.106045 300.048957 
L 713.699572 308.160828 
L 715.293099 303.962162 
L 716.886625 288.35692 
L 718.480152 300.643669 
L 720.073679 296.064387 
L 721.667206 303.569652 
L 723.260733 313.085043 
L 724.85426 302.49917 
L 726.447787 299.085524 
L 728.041314 301.155121 
L 729.634841 315.868295 
L 731.228367 299.561293 
L 732.821894 312.763899 
L 734.415421 308.707963 
L 736.008948 291.853827 
L 737.602475 315.999132 
L 739.196002 307.518539 
L 740.789529 306.233961 
L 742.383056 306.007971 
L 743.976583 306.103125 
L 745.570109 304.247624 
L 747.163636 304.081104 
" clip-path="url(#pf68023d04d)" style="fill: none; stroke: #0000ff; stroke-width: 2; stroke-linecap: round"/>
   </g>
   <g id="patch_3">
    <path d="M 108 320.4 
L 108 43.2 
" style="fill: none; stroke: #262626; stroke-width: 1.25; stroke-linejoin: miter; stroke-linecap: square"/>
   </g>
   <g id="patch_4">
    <path d="M 777.6 320.4 
L 777.6 43.2 
" style="fill: none; stroke: #262626; stroke-width: 1.25; stroke-linejoin: miter; stroke-linecap: square"/>
   </g>
   <g id="patch_5">
    <path d="M 108 320.4 
L 777.6 320.4 
" style="fill: none; stroke: #262626; stroke-width: 1.25; stroke-linejoin: miter; stroke-linecap: square"/>
   </g>
   <g id="patch_6">
    <path d="M 108 43.2 
L 777.6 43.2 
" style="fill: none; stroke: #262626; stroke-width: 1.25; stroke-linejoin: miter; stroke-linecap: square"/>
   </g>
   <g id="text_16">
    <!-- MSLE:  1.72%     MAPE:  30.33%                       Model: STS - Variational Inference Fit -->
    <g style="fill: #262626" transform="translate(215.828438 37.2) scale(0.12 -0.12)">
     <defs>
      <path id="ArialMT-4d" d="M 475 0 
L 475 4581 
L 1388 4581 
L 2472 1338 
Q 2622 884 2691 659 
Q 2769 909 2934 1394 
L 4031 4581 
L 4847 4581 
L 4847 0 
L 4263 0 
L 4263 3834 
L 2931 0 
L 2384 0 
L 1059 3900 
L 1059 0 
L 475 0 
z
" transform="scale(0.015625)"/>
      <path id="ArialMT-53" d="M 288 1472 
L 859 1522 
Q 900 1178 1048 958 
Q 1197 738 1509 602 
Q 1822 466 2213 466 
Q 2559 466 2825 569 
Q 3091 672 3220 851 
Q 3350 1031 3350 1244 
Q 3350 1459 3225 1620 
Q 3100 1781 2813 1891 
Q 2628 1963 1997 2114 
Q 1366 2266 1113 2400 
Q 784 2572 623 2826 
Q 463 3081 463 3397 
Q 463 3744 659 4045 
Q 856 4347 1234 4503 
Q 1613 4659 2075 4659 
Q 2584 4659 2973 4495 
Q 3363 4331 3572 4012 
Q 3781 3694 3797 3291 
L 3216 3247 
Q 3169 3681 2898 3903 
Q 2628 4125 2100 4125 
Q 1550 4125 1298 3923 
Q 1047 3722 1047 3438 
Q 1047 3191 1225 3031 
Q 1400 2872 2139 2705 
Q 2878 2538 3153 2413 
Q 3553 2228 3743 1945 
Q 3934 1663 3934 1294 
Q 3934 928 3725 604 
Q 3516 281 3123 101 
Q 2731 -78 2241 -78 
Q 1619 -78 1198 103 
Q 778 284 539 648 
Q 300 1013 288 1472 
z
" transform="scale(0.015625)"/>
      <path id="ArialMT-4c" d="M 469 0 
L 469 4581 
L 1075 4581 
L 1075 541 
L 3331 541 
L 3331 0 
L 469 0 
z
" transform="scale(0.015625)"/>
      <path id="ArialMT-45" d="M 506 0 
L 506 4581 
L 3819 4581 
L 3819 4041 
L 1113 4041 
L 1113 2638 
L 3647 2638 
L 3647 2100 
L 1113 2100 
L 1113 541 
L 3925 541 
L 3925 0 
L 506 0 
z
" transform="scale(0.015625)"/>
      <path id="ArialMT-3a" d="M 578 2678 
L 578 3319 
L 1219 3319 
L 1219 2678 
L 578 2678 
z
M 578 0 
L 578 641 
L 1219 641 
L 1219 0 
L 578 0 
z
" transform="scale(0.015625)"/>
      <path id="ArialMT-2e" d="M 581 0 
L 581 641 
L 1222 641 
L 1222 0 
L 581 0 
z
" transform="scale(0.015625)"/>
      <path id="ArialMT-25" d="M 372 3481 
Q 372 3972 619 4315 
Q 866 4659 1334 4659 
Q 1766 4659 2048 4351 
Q 2331 4044 2331 3447 
Q 2331 2866 2045 2552 
Q 1759 2238 1341 2238 
Q 925 2238 648 2547 
Q 372 2856 372 3481 
z
M 1350 4272 
Q 1141 4272 1002 4090 
Q 863 3909 863 3425 
Q 863 2984 1003 2804 
Q 1144 2625 1350 2625 
Q 1563 2625 1702 2806 
Q 1841 2988 1841 3469 
Q 1841 3913 1700 4092 
Q 1559 4272 1350 4272 
z
M 1353 -169 
L 3859 4659 
L 4316 4659 
L 1819 -169 
L 1353 -169 
z
M 3334 1075 
Q 3334 1569 3581 1911 
Q 3828 2253 4300 2253 
Q 4731 2253 5014 1945 
Q 5297 1638 5297 1041 
Q 5297 459 5011 145 
Q 4725 -169 4303 -169 
Q 3888 -169 3611 142 
Q 3334 453 3334 1075 
z
M 4316 1866 
Q 4103 1866 3964 1684 
Q 3825 1503 3825 1019 
Q 3825 581 3965 400 
Q 4106 219 4313 219 
Q 4528 219 4667 400 
Q 4806 581 4806 1063 
Q 4806 1506 4665 1686 
Q 4525 1866 4316 1866 
z
" transform="scale(0.015625)"/>
      <path id="ArialMT-41" d="M -9 0 
L 1750 4581 
L 2403 4581 
L 4278 0 
L 3588 0 
L 3053 1388 
L 1138 1388 
L 634 0 
L -9 0 
z
M 1313 1881 
L 2866 1881 
L 2388 3150 
Q 2169 3728 2063 4100 
Q 1975 3659 1816 3225 
L 1313 1881 
z
" transform="scale(0.015625)"/>
      <path id="ArialMT-50" d="M 494 0 
L 494 4581 
L 2222 4581 
Q 2678 4581 2919 4538 
Q 3256 4481 3484 4323 
Q 3713 4166 3852 3881 
Q 3991 3597 3991 3256 
Q 3991 2672 3619 2267 
Q 3247 1863 2275 1863 
L 1100 1863 
L 1100 0 
L 494 0 
z
M 1100 2403 
L 2284 2403 
Q 2872 2403 3119 2622 
Q 3366 2841 3366 3238 
Q 3366 3525 3220 3729 
Q 3075 3934 2838 4000 
Q 2684 4041 2272 4041 
L 1100 4041 
L 1100 2403 
z
" transform="scale(0.015625)"/>
      <path id="ArialMT-64" d="M 2575 0 
L 2575 419 
Q 2259 -75 1647 -75 
Q 1250 -75 917 144 
Q 584 363 401 755 
Q 219 1147 219 1656 
Q 219 2153 384 2558 
Q 550 2963 881 3178 
Q 1213 3394 1622 3394 
Q 1922 3394 2156 3267 
Q 2391 3141 2538 2938 
L 2538 4581 
L 3097 4581 
L 3097 0 
L 2575 0 
z
M 797 1656 
Q 797 1019 1065 703 
Q 1334 388 1700 388 
Q 2069 388 2326 689 
Q 2584 991 2584 1609 
Q 2584 2291 2321 2609 
Q 2059 2928 1675 2928 
Q 1300 2928 1048 2622 
Q 797 2316 797 1656 
z
" transform="scale(0.015625)"/>
      <path id="ArialMT-6c" d="M 409 0 
L 409 4581 
L 972 4581 
L 972 0 
L 409 0 
z
" transform="scale(0.015625)"/>
      <path id="ArialMT-54" d="M 1659 0 
L 1659 4041 
L 150 4041 
L 150 4581 
L 3781 4581 
L 3781 4041 
L 2266 4041 
L 2266 0 
L 1659 0 
z
" transform="scale(0.015625)"/>
      <path id="ArialMT-2d" d="M 203 1375 
L 203 1941 
L 1931 1941 
L 1931 1375 
L 203 1375 
z
" transform="scale(0.015625)"/>
      <path id="ArialMT-56" d="M 1803 0 
L 28 4581 
L 684 4581 
L 1875 1253 
Q 2019 853 2116 503 
Q 2222 878 2363 1253 
L 3600 4581 
L 4219 4581 
L 2425 0 
L 1803 0 
z
" transform="scale(0.015625)"/>
      <path id="ArialMT-69" d="M 425 3934 
L 425 4581 
L 988 4581 
L 988 3934 
L 425 3934 
z
M 425 0 
L 425 3319 
L 988 3319 
L 988 0 
L 425 0 
z
" transform="scale(0.015625)"/>
      <path id="ArialMT-6e" d="M 422 0 
L 422 3319 
L 928 3319 
L 928 2847 
Q 1294 3394 1984 3394 
Q 2284 3394 2536 3286 
Q 2788 3178 2913 3003 
Q 3038 2828 3088 2588 
Q 3119 2431 3119 2041 
L 3119 0 
L 2556 0 
L 2556 2019 
Q 2556 2363 2490 2533 
Q 2425 2703 2258 2804 
Q 2091 2906 1866 2906 
Q 1506 2906 1245 2678 
Q 984 2450 984 1813 
L 984 0 
L 422 0 
z
" transform="scale(0.015625)"/>
      <path id="ArialMT-49" d="M 597 0 
L 597 4581 
L 1203 4581 
L 1203 0 
L 597 0 
z
" transform="scale(0.015625)"/>
      <path id="ArialMT-63" d="M 2588 1216 
L 3141 1144 
Q 3050 572 2676 248 
Q 2303 -75 1759 -75 
Q 1078 -75 664 370 
Q 250 816 250 1647 
Q 250 2184 428 2587 
Q 606 2991 970 3192 
Q 1334 3394 1763 3394 
Q 2303 3394 2647 3120 
Q 2991 2847 3088 2344 
L 2541 2259 
Q 2463 2594 2264 2762 
Q 2066 2931 1784 2931 
Q 1359 2931 1093 2626 
Q 828 2322 828 1663 
Q 828 994 1084 691 
Q 1341 388 1753 388 
Q 2084 388 2306 591 
Q 2528 794 2588 1216 
z
" transform="scale(0.015625)"/>
      <path id="ArialMT-46" d="M 525 0 
L 525 4581 
L 3616 4581 
L 3616 4041 
L 1131 4041 
L 1131 2622 
L 3281 2622 
L 3281 2081 
L 1131 2081 
L 1131 0 
L 525 0 
z
" transform="scale(0.015625)"/>
     </defs>
     <use xlink:href="#ArialMT-4d"/>
     <use xlink:href="#ArialMT-53" x="83.300781"/>
     <use xlink:href="#ArialMT-4c" x="150"/>
     <use xlink:href="#ArialMT-45" x="205.615234"/>
     <use xlink:href="#ArialMT-3a" x="272.314453"/>
     <use xlink:href="#ArialMT-20" x="300.097656"/>
     <use xlink:href="#ArialMT-20" x="327.880859"/>
     <use xlink:href="#ArialMT-31" x="355.664062"/>
     <use xlink:href="#ArialMT-2e" x="411.279297"/>
     <use xlink:href="#ArialMT-37" x="439.0625"/>
     <use xlink:href="#ArialMT-32" x="494.677734"/>
     <use xlink:href="#ArialMT-25" x="550.292969"/>
     <use xlink:href="#ArialMT-20" x="639.208984"/>
     <use xlink:href="#ArialMT-20" x="666.992188"/>
     <use xlink:href="#ArialMT-20" x="694.775391"/>
     <use xlink:href="#ArialMT-20" x="722.558594"/>
     <use xlink:href="#ArialMT-20" x="750.341797"/>
     <use xlink:href="#ArialMT-4d" x="778.125"/>
     <use xlink:href="#ArialMT-41" x="861.425781"/>
     <use xlink:href="#ArialMT-50" x="928.125"/>
     <use xlink:href="#ArialMT-45" x="994.824219"/>
     <use xlink:href="#ArialMT-3a" x="1061.523438"/>
     <use xlink:href="#ArialMT-20" x="1089.306641"/>
     <use xlink:href="#ArialMT-20" x="1117.089844"/>
     <use xlink:href="#ArialMT-33" x="1144.873047"/>
     <use xlink:href="#ArialMT-30" x="1200.488281"/>
     <use xlink:href="#ArialMT-2e" x="1256.103516"/>
     <use xlink:href="#ArialMT-33" x="1283.886719"/>
     <use xlink:href="#ArialMT-33" x="1339.501953"/>
     <use xlink:href="#ArialMT-25" x="1395.117188"/>
     <use xlink:href="#ArialMT-20" x="1484.033203"/>
     <use xlink:href="#ArialMT-20" x="1511.816406"/>
     <use xlink:href="#ArialMT-20" x="1539.599609"/>
     <use xlink:href="#ArialMT-20" x="1567.382812"/>
     <use xlink:href="#ArialMT-20" x="1595.166016"/>
     <use xlink:href="#ArialMT-20" x="1622.949219"/>
     <use xlink:href="#ArialMT-20" x="1650.732422"/>
     <use xlink:href="#ArialMT-20" x="1678.515625"/>
     <use xlink:href="#ArialMT-20" x="1706.298828"/>
     <use xlink:href="#ArialMT-20" x="1734.082031"/>
     <use xlink:href="#ArialMT-20" x="1761.865234"/>
     <use xlink:href="#ArialMT-20" x="1789.648438"/>
     <use xlink:href="#ArialMT-20" x="1817.431641"/>
     <use xlink:href="#ArialMT-20" x="1845.214844"/>
     <use xlink:href="#ArialMT-20" x="1872.998047"/>
     <use xlink:href="#ArialMT-20" x="1900.78125"/>
     <use xlink:href="#ArialMT-20" x="1928.564453"/>
     <use xlink:href="#ArialMT-20" x="1956.347656"/>
     <use xlink:href="#ArialMT-20" x="1984.130859"/>
     <use xlink:href="#ArialMT-20" x="2011.914062"/>
     <use xlink:href="#ArialMT-20" x="2039.697266"/>
     <use xlink:href="#ArialMT-20" x="2067.480469"/>
     <use xlink:href="#ArialMT-20" x="2095.263672"/>
     <use xlink:href="#ArialMT-4d" x="2123.046875"/>
     <use xlink:href="#ArialMT-6f" x="2206.347656"/>
     <use xlink:href="#ArialMT-64" x="2261.962891"/>
     <use xlink:href="#ArialMT-65" x="2317.578125"/>
     <use xlink:href="#ArialMT-6c" x="2373.193359"/>
     <use xlink:href="#ArialMT-3a" x="2395.410156"/>
     <use xlink:href="#ArialMT-20" x="2423.193359"/>
     <use xlink:href="#ArialMT-53" x="2450.976562"/>
     <use xlink:href="#ArialMT-54" x="2517.675781"/>
     <use xlink:href="#ArialMT-53" x="2578.759766"/>
     <use xlink:href="#ArialMT-20" x="2645.458984"/>
     <use xlink:href="#ArialMT-2d" x="2673.242188"/>
     <use xlink:href="#ArialMT-20" x="2706.542969"/>
     <use xlink:href="#ArialMT-56" x="2734.326172"/>
     <use xlink:href="#ArialMT-61" x="2793.650391"/>
     <use xlink:href="#ArialMT-72" x="2849.265625"/>
     <use xlink:href="#ArialMT-69" x="2882.566406"/>
     <use xlink:href="#ArialMT-61" x="2904.783203"/>
     <use xlink:href="#ArialMT-74" x="2960.398438"/>
     <use xlink:href="#ArialMT-69" x="2988.181641"/>
     <use xlink:href="#ArialMT-6f" x="3010.398438"/>
     <use xlink:href="#ArialMT-6e" x="3066.013672"/>
     <use xlink:href="#ArialMT-61" x="3121.628906"/>
     <use xlink:href="#ArialMT-6c" x="3177.244141"/>
     <use xlink:href="#ArialMT-20" x="3199.460938"/>
     <use xlink:href="#ArialMT-49" x="3227.244141"/>
     <use xlink:href="#ArialMT-6e" x="3255.027344"/>
     <use xlink:href="#ArialMT-66" x="3310.642578"/>
     <use xlink:href="#ArialMT-65" x="3338.425781"/>
     <use xlink:href="#ArialMT-72" x="3394.041016"/>
     <use xlink:href="#ArialMT-65" x="3427.341797"/>
     <use xlink:href="#ArialMT-6e" x="3482.957031"/>
     <use xlink:href="#ArialMT-63" x="3538.572266"/>
     <use xlink:href="#ArialMT-65" x="3588.572266"/>
     <use xlink:href="#ArialMT-20" x="3644.1875"/>
     <use xlink:href="#ArialMT-46" x="3671.970703"/>
     <use xlink:href="#ArialMT-69" x="3733.054688"/>
     <use xlink:href="#ArialMT-74" x="3755.271484"/>
    </g>
   </g>
   <g id="legend_1">
    <g id="patch_7">
     <path d="M 115.7 114.239375 
L 194.915469 114.239375 
Q 197.115469 114.239375 197.115469 112.039375 
L 197.115469 50.9 
Q 197.115469 48.7 194.915469 48.7 
L 115.7 48.7 
Q 113.5 48.7 113.5 50.9 
L 113.5 112.039375 
Q 113.5 114.239375 115.7 114.239375 
z
" style="fill: #ffffff; opacity: 0.8; stroke: #cccccc; stroke-linejoin: miter"/>
    </g>
    <g id="patch_8">
     <path d="M 117.9 60.973594 
L 139.9 60.973594 
L 139.9 53.273594 
L 117.9 53.273594 
z
" style="fill: #ffa500; fill-opacity: 0.25; stroke: #ffa500; stroke-opacity: 0.25; stroke-linejoin: miter"/>
    </g>
    <g id="text_17">
     <!-- 95% HDI -->
     <g style="fill: #262626" transform="translate(148.7 60.973594) scale(0.11 -0.11)">
      <defs>
       <path id="ArialMT-48" d="M 513 0 
L 513 4581 
L 1119 4581 
L 1119 2700 
L 3500 2700 
L 3500 4581 
L 4106 4581 
L 4106 0 
L 3500 0 
L 3500 2159 
L 1119 2159 
L 1119 0 
L 513 0 
z
" transform="scale(0.015625)"/>
      </defs>
      <use xlink:href="#ArialMT-39"/>
      <use xlink:href="#ArialMT-35" x="55.615234"/>
      <use xlink:href="#ArialMT-25" x="111.230469"/>
      <use xlink:href="#ArialMT-20" x="200.146484"/>
      <use xlink:href="#ArialMT-48" x="227.929688"/>
      <use xlink:href="#ArialMT-44" x="300.146484"/>
      <use xlink:href="#ArialMT-49" x="372.363281"/>
     </g>
    </g>
    <g id="line2d_16">
     <path d="M 117.9 72.683437 
L 128.9 72.683437 
L 139.9 72.683437 
" style="fill: none; stroke: #008080; stroke-width: 1.5; stroke-linecap: round"/>
    </g>
    <g id="text_18">
     <!-- Train -->
     <g style="fill: #262626" transform="translate(148.7 76.533437) scale(0.11 -0.11)">
      <use xlink:href="#ArialMT-54"/>
      <use xlink:href="#ArialMT-72" x="57.333984"/>
      <use xlink:href="#ArialMT-61" x="90.634766"/>
      <use xlink:href="#ArialMT-69" x="146.25"/>
      <use xlink:href="#ArialMT-6e" x="168.466797"/>
     </g>
    </g>
    <g id="PathCollection_2">
     <g>
      <use xlink:href="#m4870d7a1a5" x="128.9" y="89.205781" style="fill: #ff0000; stroke: #ffffff; stroke-width: 0.565685"/>
     </g>
    </g>
    <g id="text_19">
     <!-- Test -->
     <g style="fill: #262626" transform="translate(148.7 92.093281) scale(0.11 -0.11)">
      <use xlink:href="#ArialMT-54"/>
      <use xlink:href="#ArialMT-65" x="49.958984"/>
      <use xlink:href="#ArialMT-73" x="105.574219"/>
      <use xlink:href="#ArialMT-74" x="155.574219"/>
     </g>
    </g>
    <g id="line2d_17">
     <path d="M 117.9 103.803125 
L 128.9 103.803125 
L 139.9 103.803125 
" style="fill: none; stroke: #0000ff; stroke-width: 2; stroke-linecap: round"/>
    </g>
    <g id="text_20">
     <!-- Forecast -->
     <g style="fill: #262626" transform="translate(148.7 107.653125) scale(0.11 -0.11)">
      <use xlink:href="#ArialMT-46"/>
      <use xlink:href="#ArialMT-6f" x="61.083984"/>
      <use xlink:href="#ArialMT-72" x="116.699219"/>
      <use xlink:href="#ArialMT-65" x="150"/>
      <use xlink:href="#ArialMT-63" x="205.615234"/>
      <use xlink:href="#ArialMT-61" x="255.615234"/>
      <use xlink:href="#ArialMT-73" x="311.230469"/>
      <use xlink:href="#ArialMT-74" x="361.230469"/>
     </g>
    </g>
   </g>
  </g>
  <g id="text_21">
   <!-- Dengue Weekly Cases -->
   <g style="fill: #262626" transform="translate(358.89525 17.68275) scale(0.144 -0.144)">
    <defs>
     <path id="ArialMT-67" d="M 319 -275 
L 866 -356 
Q 900 -609 1056 -725 
Q 1266 -881 1628 -881 
Q 2019 -881 2231 -725 
Q 2444 -569 2519 -288 
Q 2563 -116 2559 434 
Q 2191 0 1641 0 
Q 956 0 581 494 
Q 206 988 206 1678 
Q 206 2153 378 2554 
Q 550 2956 876 3175 
Q 1203 3394 1644 3394 
Q 2231 3394 2613 2919 
L 2613 3319 
L 3131 3319 
L 3131 450 
Q 3131 -325 2973 -648 
Q 2816 -972 2473 -1159 
Q 2131 -1347 1631 -1347 
Q 1038 -1347 672 -1080 
Q 306 -813 319 -275 
z
M 784 1719 
Q 784 1066 1043 766 
Q 1303 466 1694 466 
Q 2081 466 2343 764 
Q 2606 1063 2606 1700 
Q 2606 2309 2336 2618 
Q 2066 2928 1684 2928 
Q 1309 2928 1046 2623 
Q 784 2319 784 1719 
z
" transform="scale(0.015625)"/>
     <path id="ArialMT-57" d="M 1294 0 
L 78 4581 
L 700 4581 
L 1397 1578 
Q 1509 1106 1591 641 
Q 1766 1375 1797 1488 
L 2669 4581 
L 3400 4581 
L 4056 2263 
Q 4303 1400 4413 641 
Q 4500 1075 4641 1638 
L 5359 4581 
L 5969 4581 
L 4713 0 
L 4128 0 
L 3163 3491 
Q 3041 3928 3019 4028 
Q 2947 3713 2884 3491 
L 1913 0 
L 1294 0 
z
" transform="scale(0.015625)"/>
     <path id="ArialMT-6b" d="M 425 0 
L 425 4581 
L 988 4581 
L 988 1969 
L 2319 3319 
L 3047 3319 
L 1778 2088 
L 3175 0 
L 2481 0 
L 1384 1697 
L 988 1316 
L 988 0 
L 425 0 
z
" transform="scale(0.015625)"/>
     <path id="ArialMT-79" d="M 397 -1278 
L 334 -750 
Q 519 -800 656 -800 
Q 844 -800 956 -737 
Q 1069 -675 1141 -563 
Q 1194 -478 1313 -144 
Q 1328 -97 1363 -6 
L 103 3319 
L 709 3319 
L 1400 1397 
Q 1534 1031 1641 628 
Q 1738 1016 1872 1384 
L 2581 3319 
L 3144 3319 
L 1881 -56 
Q 1678 -603 1566 -809 
Q 1416 -1088 1222 -1217 
Q 1028 -1347 759 -1347 
Q 597 -1347 397 -1278 
z
" transform="scale(0.015625)"/>
    </defs>
    <use xlink:href="#ArialMT-44"/>
    <use xlink:href="#ArialMT-65" x="72.216797"/>
    <use xlink:href="#ArialMT-6e" x="127.832031"/>
    <use xlink:href="#ArialMT-67" x="183.447266"/>
    <use xlink:href="#ArialMT-75" x="239.0625"/>
    <use xlink:href="#ArialMT-65" x="294.677734"/>
    <use xlink:href="#ArialMT-20" x="350.292969"/>
    <use xlink:href="#ArialMT-57" x="378.076172"/>
    <use xlink:href="#ArialMT-65" x="470.710938"/>
    <use xlink:href="#ArialMT-65" x="526.326172"/>
    <use xlink:href="#ArialMT-6b" x="581.941406"/>
    <use xlink:href="#ArialMT-6c" x="631.941406"/>
    <use xlink:href="#ArialMT-79" x="654.158203"/>
    <use xlink:href="#ArialMT-20" x="704.158203"/>
    <use xlink:href="#ArialMT-43" x="731.941406"/>
    <use xlink:href="#ArialMT-61" x="804.158203"/>
    <use xlink:href="#ArialMT-73" x="859.773438"/>
    <use xlink:href="#ArialMT-65" x="909.773438"/>
    <use xlink:href="#ArialMT-73" x="965.388672"/>
   </g>
  </g>
 </g>
 <defs>
  <clipPath id="pf68023d04d">
   <rect x="108" y="43.2" width="669.6" height="277.2"/>
  </clipPath>
 </defs>
</svg>
