<?xml version="1.0" encoding="utf-8" standalone="no"?>
<!DOCTYPE svg PUBLIC "-//W3C//DTD SVG 1.1//EN"
  "http://www.w3.org/Graphics/SVG/1.1/DTD/svg11.dtd">
<svg xmlns:xlink="http://www.w3.org/1999/xlink" width="1080pt" height="360pt" viewBox="0 0 1080 360" xmlns="http://www.w3.org/2000/svg" version="1.1">
 <metadata>
  <rdf:RDF xmlns:dc="http://purl.org/dc/elements/1.1/" xmlns:cc="http://creativecommons.org/ns#" xmlns:rdf="http://www.w3.org/1999/02/22-rdf-syntax-ns#">
   <cc:Work>
    <dc:type rdf:resource="http://purl.org/dc/dcmitype/StillImage"/>
    <dc:date>2023-07-12T02:14:40.267634</dc:date>
    <dc:format>image/svg+xml</dc:format>
    <dc:creator>
     <cc:Agent>
      <dc:title>Matplotlib v3.7.1, https://matplotlib.org/</dc:title>
     </cc:Agent>
    </dc:creator>
   </cc:Work>
  </rdf:RDF>
 </metadata>
 <defs>
  <style type="text/css">*{stroke-linejoin: round; stroke-linecap: butt}</style>
 </defs>
 <g id="figure_1">
  <g id="patch_1">
   <path d="M 0 360 
L 1080 360 
L 1080 0 
L 0 0 
z
" style="fill: #ffffff"/>
  </g>
  <g id="axes_1">
   <g id="patch_2">
    <path d="M 135 320.4 
L 972 320.4 
L 972 43.2 
L 135 43.2 
z
" style="fill: #ffffff"/>
   </g>
   <g id="matplotlib.axis_1">
    <g id="xtick_1">
     <g id="line2d_1">
      <defs>
       <path id="m39bd612d23" d="M 0 0 
L 0 6 
" style="stroke: #262626; stroke-width: 1.25"/>
      </defs>
      <g>
       <use xlink:href="#m39bd612d23" x="211.975687" y="320.4" style="fill: #262626; stroke: #262626; stroke-width: 1.25"/>
      </g>
     </g>
     <g id="text_1">
      <!-- 2020-09 -->
      <g style="fill: #262626" transform="translate(191.793265 337.773594) scale(0.11 -0.11)">
       <defs>
        <path id="ArialMT-32" d="M 3222 541 
L 3222 0 
L 194 0 
Q 188 203 259 391 
Q 375 700 629 1000 
Q 884 1300 1366 1694 
Q 2113 2306 2375 2664 
Q 2638 3022 2638 3341 
Q 2638 3675 2398 3904 
Q 2159 4134 1775 4134 
Q 1369 4134 1125 3890 
Q 881 3647 878 3216 
L 300 3275 
Q 359 3922 746 4261 
Q 1134 4600 1788 4600 
Q 2447 4600 2831 4234 
Q 3216 3869 3216 3328 
Q 3216 3053 3103 2787 
Q 2991 2522 2730 2228 
Q 2469 1934 1863 1422 
Q 1356 997 1212 845 
Q 1069 694 975 541 
L 3222 541 
z
" transform="scale(0.015625)"/>
        <path id="ArialMT-30" d="M 266 2259 
Q 266 3072 433 3567 
Q 600 4063 929 4331 
Q 1259 4600 1759 4600 
Q 2128 4600 2406 4451 
Q 2684 4303 2865 4023 
Q 3047 3744 3150 3342 
Q 3253 2941 3253 2259 
Q 3253 1453 3087 958 
Q 2922 463 2592 192 
Q 2263 -78 1759 -78 
Q 1097 -78 719 397 
Q 266 969 266 2259 
z
M 844 2259 
Q 844 1131 1108 757 
Q 1372 384 1759 384 
Q 2147 384 2411 759 
Q 2675 1134 2675 2259 
Q 2675 3391 2411 3762 
Q 2147 4134 1753 4134 
Q 1366 4134 1134 3806 
Q 844 3388 844 2259 
z
" transform="scale(0.015625)"/>
        <path id="ArialMT-2d" d="M 203 1375 
L 203 1941 
L 1931 1941 
L 1931 1375 
L 203 1375 
z
" transform="scale(0.015625)"/>
        <path id="ArialMT-39" d="M 350 1059 
L 891 1109 
Q 959 728 1153 556 
Q 1347 384 1650 384 
Q 1909 384 2104 503 
Q 2300 622 2425 820 
Q 2550 1019 2634 1356 
Q 2719 1694 2719 2044 
Q 2719 2081 2716 2156 
Q 2547 1888 2255 1720 
Q 1963 1553 1622 1553 
Q 1053 1553 659 1965 
Q 266 2378 266 3053 
Q 266 3750 677 4175 
Q 1088 4600 1706 4600 
Q 2153 4600 2523 4359 
Q 2894 4119 3086 3673 
Q 3278 3228 3278 2384 
Q 3278 1506 3087 986 
Q 2897 466 2520 194 
Q 2144 -78 1638 -78 
Q 1100 -78 759 220 
Q 419 519 350 1059 
z
M 2653 3081 
Q 2653 3566 2395 3850 
Q 2138 4134 1775 4134 
Q 1400 4134 1122 3828 
Q 844 3522 844 3034 
Q 844 2597 1108 2323 
Q 1372 2050 1759 2050 
Q 2150 2050 2401 2323 
Q 2653 2597 2653 3081 
z
" transform="scale(0.015625)"/>
       </defs>
       <use xlink:href="#ArialMT-32"/>
       <use xlink:href="#ArialMT-30" x="55.615234"/>
       <use xlink:href="#ArialMT-32" x="111.230469"/>
       <use xlink:href="#ArialMT-30" x="166.845703"/>
       <use xlink:href="#ArialMT-2d" x="222.460938"/>
       <use xlink:href="#ArialMT-30" x="255.761719"/>
       <use xlink:href="#ArialMT-39" x="311.376953"/>
      </g>
     </g>
    </g>
    <g id="xtick_2">
     <g id="line2d_2">
      <g>
       <use xlink:href="#m39bd612d23" x="298.330021" y="320.4" style="fill: #262626; stroke: #262626; stroke-width: 1.25"/>
      </g>
     </g>
     <g id="text_2">
      <!-- 2021-01 -->
      <g style="fill: #262626" transform="translate(278.147599 337.773594) scale(0.11 -0.11)">
       <defs>
        <path id="ArialMT-31" d="M 2384 0 
L 1822 0 
L 1822 3584 
Q 1619 3391 1289 3197 
Q 959 3003 697 2906 
L 697 3450 
Q 1169 3672 1522 3987 
Q 1875 4303 2022 4600 
L 2384 4600 
L 2384 0 
z
" transform="scale(0.015625)"/>
       </defs>
       <use xlink:href="#ArialMT-32"/>
       <use xlink:href="#ArialMT-30" x="55.615234"/>
       <use xlink:href="#ArialMT-32" x="111.230469"/>
       <use xlink:href="#ArialMT-31" x="166.845703"/>
       <use xlink:href="#ArialMT-2d" x="222.460938"/>
       <use xlink:href="#ArialMT-30" x="255.761719"/>
       <use xlink:href="#ArialMT-31" x="311.376953"/>
      </g>
     </g>
    </g>
    <g id="xtick_3">
     <g id="line2d_3">
      <g>
       <use xlink:href="#m39bd612d23" x="383.26871" y="320.4" style="fill: #262626; stroke: #262626; stroke-width: 1.25"/>
      </g>
     </g>
     <g id="text_3">
      <!-- 2021-05 -->
      <g style="fill: #262626" transform="translate(363.086288 337.773594) scale(0.11 -0.11)">
       <defs>
        <path id="ArialMT-35" d="M 266 1200 
L 856 1250 
Q 922 819 1161 601 
Q 1400 384 1738 384 
Q 2144 384 2425 690 
Q 2706 997 2706 1503 
Q 2706 1984 2436 2262 
Q 2166 2541 1728 2541 
Q 1456 2541 1237 2417 
Q 1019 2294 894 2097 
L 366 2166 
L 809 4519 
L 3088 4519 
L 3088 3981 
L 1259 3981 
L 1013 2750 
Q 1425 3038 1878 3038 
Q 2478 3038 2890 2622 
Q 3303 2206 3303 1553 
Q 3303 931 2941 478 
Q 2500 -78 1738 -78 
Q 1113 -78 717 272 
Q 322 622 266 1200 
z
" transform="scale(0.015625)"/>
       </defs>
       <use xlink:href="#ArialMT-32"/>
       <use xlink:href="#ArialMT-30" x="55.615234"/>
       <use xlink:href="#ArialMT-32" x="111.230469"/>
       <use xlink:href="#ArialMT-31" x="166.845703"/>
       <use xlink:href="#ArialMT-2d" x="222.460938"/>
       <use xlink:href="#ArialMT-30" x="255.761719"/>
       <use xlink:href="#ArialMT-35" x="311.376953"/>
      </g>
     </g>
    </g>
    <g id="xtick_4">
     <g id="line2d_4">
      <g>
       <use xlink:href="#m39bd612d23" x="470.330867" y="320.4" style="fill: #262626; stroke: #262626; stroke-width: 1.25"/>
      </g>
     </g>
     <g id="text_4">
      <!-- 2021-09 -->
      <g style="fill: #262626" transform="translate(450.148445 337.773594) scale(0.11 -0.11)">
       <use xlink:href="#ArialMT-32"/>
       <use xlink:href="#ArialMT-30" x="55.615234"/>
       <use xlink:href="#ArialMT-32" x="111.230469"/>
       <use xlink:href="#ArialMT-31" x="166.845703"/>
       <use xlink:href="#ArialMT-2d" x="222.460938"/>
       <use xlink:href="#ArialMT-30" x="255.761719"/>
       <use xlink:href="#ArialMT-39" x="311.376953"/>
      </g>
     </g>
    </g>
    <g id="xtick_5">
     <g id="line2d_5">
      <g>
       <use xlink:href="#m39bd612d23" x="556.685201" y="320.4" style="fill: #262626; stroke: #262626; stroke-width: 1.25"/>
      </g>
     </g>
     <g id="text_5">
      <!-- 2022-01 -->
      <g style="fill: #262626" transform="translate(536.502779 337.773594) scale(0.11 -0.11)">
       <use xlink:href="#ArialMT-32"/>
       <use xlink:href="#ArialMT-30" x="55.615234"/>
       <use xlink:href="#ArialMT-32" x="111.230469"/>
       <use xlink:href="#ArialMT-32" x="166.845703"/>
       <use xlink:href="#ArialMT-2d" x="222.460938"/>
       <use xlink:href="#ArialMT-30" x="255.761719"/>
       <use xlink:href="#ArialMT-31" x="311.376953"/>
      </g>
     </g>
    </g>
    <g id="xtick_6">
     <g id="line2d_6">
      <g>
       <use xlink:href="#m39bd612d23" x="641.62389" y="320.4" style="fill: #262626; stroke: #262626; stroke-width: 1.25"/>
      </g>
     </g>
     <g id="text_6">
      <!-- 2022-05 -->
      <g style="fill: #262626" transform="translate(621.441468 337.773594) scale(0.11 -0.11)">
       <use xlink:href="#ArialMT-32"/>
       <use xlink:href="#ArialMT-30" x="55.615234"/>
       <use xlink:href="#ArialMT-32" x="111.230469"/>
       <use xlink:href="#ArialMT-32" x="166.845703"/>
       <use xlink:href="#ArialMT-2d" x="222.460938"/>
       <use xlink:href="#ArialMT-30" x="255.761719"/>
       <use xlink:href="#ArialMT-35" x="311.376953"/>
      </g>
     </g>
    </g>
    <g id="xtick_7">
     <g id="line2d_7">
      <g>
       <use xlink:href="#m39bd612d23" x="728.686047" y="320.4" style="fill: #262626; stroke: #262626; stroke-width: 1.25"/>
      </g>
     </g>
     <g id="text_7">
      <!-- 2022-09 -->
      <g style="fill: #262626" transform="translate(708.503625 337.773594) scale(0.11 -0.11)">
       <use xlink:href="#ArialMT-32"/>
       <use xlink:href="#ArialMT-30" x="55.615234"/>
       <use xlink:href="#ArialMT-32" x="111.230469"/>
       <use xlink:href="#ArialMT-32" x="166.845703"/>
       <use xlink:href="#ArialMT-2d" x="222.460938"/>
       <use xlink:href="#ArialMT-30" x="255.761719"/>
       <use xlink:href="#ArialMT-39" x="311.376953"/>
      </g>
     </g>
    </g>
    <g id="xtick_8">
     <g id="line2d_8">
      <g>
       <use xlink:href="#m39bd612d23" x="815.040381" y="320.4" style="fill: #262626; stroke: #262626; stroke-width: 1.25"/>
      </g>
     </g>
     <g id="text_8">
      <!-- 2023-01 -->
      <g style="fill: #262626" transform="translate(794.857959 337.773594) scale(0.11 -0.11)">
       <defs>
        <path id="ArialMT-33" d="M 269 1209 
L 831 1284 
Q 928 806 1161 595 
Q 1394 384 1728 384 
Q 2125 384 2398 659 
Q 2672 934 2672 1341 
Q 2672 1728 2419 1979 
Q 2166 2231 1775 2231 
Q 1616 2231 1378 2169 
L 1441 2663 
Q 1497 2656 1531 2656 
Q 1891 2656 2178 2843 
Q 2466 3031 2466 3422 
Q 2466 3731 2256 3934 
Q 2047 4138 1716 4138 
Q 1388 4138 1169 3931 
Q 950 3725 888 3313 
L 325 3413 
Q 428 3978 793 4289 
Q 1159 4600 1703 4600 
Q 2078 4600 2393 4439 
Q 2709 4278 2876 4000 
Q 3044 3722 3044 3409 
Q 3044 3113 2884 2869 
Q 2725 2625 2413 2481 
Q 2819 2388 3044 2092 
Q 3269 1797 3269 1353 
Q 3269 753 2831 336 
Q 2394 -81 1725 -81 
Q 1122 -81 723 278 
Q 325 638 269 1209 
z
" transform="scale(0.015625)"/>
       </defs>
       <use xlink:href="#ArialMT-32"/>
       <use xlink:href="#ArialMT-30" x="55.615234"/>
       <use xlink:href="#ArialMT-32" x="111.230469"/>
       <use xlink:href="#ArialMT-33" x="166.845703"/>
       <use xlink:href="#ArialMT-2d" x="222.460938"/>
       <use xlink:href="#ArialMT-30" x="255.761719"/>
       <use xlink:href="#ArialMT-31" x="311.376953"/>
      </g>
     </g>
    </g>
    <g id="xtick_9">
     <g id="line2d_9">
      <g>
       <use xlink:href="#m39bd612d23" x="899.97907" y="320.4" style="fill: #262626; stroke: #262626; stroke-width: 1.25"/>
      </g>
     </g>
     <g id="text_9">
      <!-- 2023-05 -->
      <g style="fill: #262626" transform="translate(879.796648 337.773594) scale(0.11 -0.11)">
       <use xlink:href="#ArialMT-32"/>
       <use xlink:href="#ArialMT-30" x="55.615234"/>
       <use xlink:href="#ArialMT-32" x="111.230469"/>
       <use xlink:href="#ArialMT-33" x="166.845703"/>
       <use xlink:href="#ArialMT-2d" x="222.460938"/>
       <use xlink:href="#ArialMT-30" x="255.761719"/>
       <use xlink:href="#ArialMT-35" x="311.376953"/>
      </g>
     </g>
    </g>
   </g>
   <g id="matplotlib.axis_2">
    <g id="ytick_1">
     <g id="line2d_10">
      <defs>
       <path id="m1add1a67e0" d="M 0 0 
L -6 0 
" style="stroke: #262626; stroke-width: 1.25"/>
      </defs>
      <g>
       <use xlink:href="#m1add1a67e0" x="135" y="307.858366" style="fill: #262626; stroke: #262626; stroke-width: 1.25"/>
      </g>
     </g>
     <g id="text_10">
      <!-- 0 -->
      <g style="fill: #262626" transform="translate(119.382969 311.795163) scale(0.11 -0.11)">
       <use xlink:href="#ArialMT-30"/>
      </g>
     </g>
    </g>
    <g id="ytick_2">
     <g id="line2d_11">
      <g>
       <use xlink:href="#m1add1a67e0" x="135" y="275.432611" style="fill: #262626; stroke: #262626; stroke-width: 1.25"/>
      </g>
     </g>
     <g id="text_11">
      <!-- 5000 -->
      <g style="fill: #262626" transform="translate(101.031875 279.369408) scale(0.11 -0.11)">
       <use xlink:href="#ArialMT-35"/>
       <use xlink:href="#ArialMT-30" x="55.615234"/>
       <use xlink:href="#ArialMT-30" x="111.230469"/>
       <use xlink:href="#ArialMT-30" x="166.845703"/>
      </g>
     </g>
    </g>
    <g id="ytick_3">
     <g id="line2d_12">
      <g>
       <use xlink:href="#m1add1a67e0" x="135" y="243.006856" style="fill: #262626; stroke: #262626; stroke-width: 1.25"/>
      </g>
     </g>
     <g id="text_12">
      <!-- 10000 -->
      <g style="fill: #262626" transform="translate(94.914844 246.943653) scale(0.11 -0.11)">
       <use xlink:href="#ArialMT-31"/>
       <use xlink:href="#ArialMT-30" x="55.615234"/>
       <use xlink:href="#ArialMT-30" x="111.230469"/>
       <use xlink:href="#ArialMT-30" x="166.845703"/>
       <use xlink:href="#ArialMT-30" x="222.460938"/>
      </g>
     </g>
    </g>
    <g id="ytick_4">
     <g id="line2d_13">
      <g>
       <use xlink:href="#m1add1a67e0" x="135" y="210.5811" style="fill: #262626; stroke: #262626; stroke-width: 1.25"/>
      </g>
     </g>
     <g id="text_13">
      <!-- 15000 -->
      <g style="fill: #262626" transform="translate(94.914844 214.517897) scale(0.11 -0.11)">
       <use xlink:href="#ArialMT-31"/>
       <use xlink:href="#ArialMT-35" x="55.615234"/>
       <use xlink:href="#ArialMT-30" x="111.230469"/>
       <use xlink:href="#ArialMT-30" x="166.845703"/>
       <use xlink:href="#ArialMT-30" x="222.460938"/>
      </g>
     </g>
    </g>
    <g id="ytick_5">
     <g id="line2d_14">
      <g>
       <use xlink:href="#m1add1a67e0" x="135" y="178.155345" style="fill: #262626; stroke: #262626; stroke-width: 1.25"/>
      </g>
     </g>
     <g id="text_14">
      <!-- 20000 -->
      <g style="fill: #262626" transform="translate(94.914844 182.092142) scale(0.11 -0.11)">
       <use xlink:href="#ArialMT-32"/>
       <use xlink:href="#ArialMT-30" x="55.615234"/>
       <use xlink:href="#ArialMT-30" x="111.230469"/>
       <use xlink:href="#ArialMT-30" x="166.845703"/>
       <use xlink:href="#ArialMT-30" x="222.460938"/>
      </g>
     </g>
    </g>
    <g id="ytick_6">
     <g id="line2d_15">
      <g>
       <use xlink:href="#m1add1a67e0" x="135" y="145.72959" style="fill: #262626; stroke: #262626; stroke-width: 1.25"/>
      </g>
     </g>
     <g id="text_15">
      <!-- 25000 -->
      <g style="fill: #262626" transform="translate(94.914844 149.666387) scale(0.11 -0.11)">
       <use xlink:href="#ArialMT-32"/>
       <use xlink:href="#ArialMT-35" x="55.615234"/>
       <use xlink:href="#ArialMT-30" x="111.230469"/>
       <use xlink:href="#ArialMT-30" x="166.845703"/>
       <use xlink:href="#ArialMT-30" x="222.460938"/>
      </g>
     </g>
    </g>
    <g id="ytick_7">
     <g id="line2d_16">
      <g>
       <use xlink:href="#m1add1a67e0" x="135" y="113.303834" style="fill: #262626; stroke: #262626; stroke-width: 1.25"/>
      </g>
     </g>
     <g id="text_16">
      <!-- 30000 -->
      <g style="fill: #262626" transform="translate(94.914844 117.240631) scale(0.11 -0.11)">
       <use xlink:href="#ArialMT-33"/>
       <use xlink:href="#ArialMT-30" x="55.615234"/>
       <use xlink:href="#ArialMT-30" x="111.230469"/>
       <use xlink:href="#ArialMT-30" x="166.845703"/>
       <use xlink:href="#ArialMT-30" x="222.460938"/>
      </g>
     </g>
    </g>
    <g id="ytick_8">
     <g id="line2d_17">
      <g>
       <use xlink:href="#m1add1a67e0" x="135" y="80.878079" style="fill: #262626; stroke: #262626; stroke-width: 1.25"/>
      </g>
     </g>
     <g id="text_17">
      <!-- 35000 -->
      <g style="fill: #262626" transform="translate(94.914844 84.814876) scale(0.11 -0.11)">
       <use xlink:href="#ArialMT-33"/>
       <use xlink:href="#ArialMT-35" x="55.615234"/>
       <use xlink:href="#ArialMT-30" x="111.230469"/>
       <use xlink:href="#ArialMT-30" x="166.845703"/>
       <use xlink:href="#ArialMT-30" x="222.460938"/>
      </g>
     </g>
    </g>
    <g id="ytick_9">
     <g id="line2d_18">
      <g>
       <use xlink:href="#m1add1a67e0" x="135" y="48.452324" style="fill: #262626; stroke: #262626; stroke-width: 1.25"/>
      </g>
     </g>
     <g id="text_18">
      <!-- 40000 -->
      <g style="fill: #262626" transform="translate(94.914844 52.389121) scale(0.11 -0.11)">
       <defs>
        <path id="ArialMT-34" d="M 2069 0 
L 2069 1097 
L 81 1097 
L 81 1613 
L 2172 4581 
L 2631 4581 
L 2631 1613 
L 3250 1613 
L 3250 1097 
L 2631 1097 
L 2631 0 
L 2069 0 
z
M 2069 1613 
L 2069 3678 
L 634 1613 
L 2069 1613 
z
" transform="scale(0.015625)"/>
       </defs>
       <use xlink:href="#ArialMT-34"/>
       <use xlink:href="#ArialMT-30" x="55.615234"/>
       <use xlink:href="#ArialMT-30" x="111.230469"/>
       <use xlink:href="#ArialMT-30" x="166.845703"/>
       <use xlink:href="#ArialMT-30" x="222.460938"/>
      </g>
     </g>
    </g>
    <g id="text_19">
     <!-- Number of Cases -->
     <g style="fill: #262626" transform="translate(88.529844 228.481875) rotate(-90) scale(0.12 -0.12)">
      <defs>
       <path id="ArialMT-4e" d="M 488 0 
L 488 4581 
L 1109 4581 
L 3516 984 
L 3516 4581 
L 4097 4581 
L 4097 0 
L 3475 0 
L 1069 3600 
L 1069 0 
L 488 0 
z
" transform="scale(0.015625)"/>
       <path id="ArialMT-75" d="M 2597 0 
L 2597 488 
Q 2209 -75 1544 -75 
Q 1250 -75 995 37 
Q 741 150 617 320 
Q 494 491 444 738 
Q 409 903 409 1263 
L 409 3319 
L 972 3319 
L 972 1478 
Q 972 1038 1006 884 
Q 1059 663 1231 536 
Q 1403 409 1656 409 
Q 1909 409 2131 539 
Q 2353 669 2445 892 
Q 2538 1116 2538 1541 
L 2538 3319 
L 3100 3319 
L 3100 0 
L 2597 0 
z
" transform="scale(0.015625)"/>
       <path id="ArialMT-6d" d="M 422 0 
L 422 3319 
L 925 3319 
L 925 2853 
Q 1081 3097 1340 3245 
Q 1600 3394 1931 3394 
Q 2300 3394 2536 3241 
Q 2772 3088 2869 2813 
Q 3263 3394 3894 3394 
Q 4388 3394 4653 3120 
Q 4919 2847 4919 2278 
L 4919 0 
L 4359 0 
L 4359 2091 
Q 4359 2428 4304 2576 
Q 4250 2725 4106 2815 
Q 3963 2906 3769 2906 
Q 3419 2906 3187 2673 
Q 2956 2441 2956 1928 
L 2956 0 
L 2394 0 
L 2394 2156 
Q 2394 2531 2256 2718 
Q 2119 2906 1806 2906 
Q 1569 2906 1367 2781 
Q 1166 2656 1075 2415 
Q 984 2175 984 1722 
L 984 0 
L 422 0 
z
" transform="scale(0.015625)"/>
       <path id="ArialMT-62" d="M 941 0 
L 419 0 
L 419 4581 
L 981 4581 
L 981 2947 
Q 1338 3394 1891 3394 
Q 2197 3394 2470 3270 
Q 2744 3147 2920 2923 
Q 3097 2700 3197 2384 
Q 3297 2069 3297 1709 
Q 3297 856 2875 390 
Q 2453 -75 1863 -75 
Q 1275 -75 941 416 
L 941 0 
z
M 934 1684 
Q 934 1088 1097 822 
Q 1363 388 1816 388 
Q 2184 388 2453 708 
Q 2722 1028 2722 1663 
Q 2722 2313 2464 2622 
Q 2206 2931 1841 2931 
Q 1472 2931 1203 2611 
Q 934 2291 934 1684 
z
" transform="scale(0.015625)"/>
       <path id="ArialMT-65" d="M 2694 1069 
L 3275 997 
Q 3138 488 2766 206 
Q 2394 -75 1816 -75 
Q 1088 -75 661 373 
Q 234 822 234 1631 
Q 234 2469 665 2931 
Q 1097 3394 1784 3394 
Q 2450 3394 2872 2941 
Q 3294 2488 3294 1666 
Q 3294 1616 3291 1516 
L 816 1516 
Q 847 969 1125 678 
Q 1403 388 1819 388 
Q 2128 388 2347 550 
Q 2566 713 2694 1069 
z
M 847 1978 
L 2700 1978 
Q 2663 2397 2488 2606 
Q 2219 2931 1791 2931 
Q 1403 2931 1139 2672 
Q 875 2413 847 1978 
z
" transform="scale(0.015625)"/>
       <path id="ArialMT-72" d="M 416 0 
L 416 3319 
L 922 3319 
L 922 2816 
Q 1116 3169 1280 3281 
Q 1444 3394 1641 3394 
Q 1925 3394 2219 3213 
L 2025 2691 
Q 1819 2813 1613 2813 
Q 1428 2813 1281 2702 
Q 1134 2591 1072 2394 
Q 978 2094 978 1738 
L 978 0 
L 416 0 
z
" transform="scale(0.015625)"/>
       <path id="ArialMT-20" transform="scale(0.015625)"/>
       <path id="ArialMT-6f" d="M 213 1659 
Q 213 2581 725 3025 
Q 1153 3394 1769 3394 
Q 2453 3394 2887 2945 
Q 3322 2497 3322 1706 
Q 3322 1066 3130 698 
Q 2938 331 2570 128 
Q 2203 -75 1769 -75 
Q 1072 -75 642 372 
Q 213 819 213 1659 
z
M 791 1659 
Q 791 1022 1069 705 
Q 1347 388 1769 388 
Q 2188 388 2466 706 
Q 2744 1025 2744 1678 
Q 2744 2294 2464 2611 
Q 2184 2928 1769 2928 
Q 1347 2928 1069 2612 
Q 791 2297 791 1659 
z
" transform="scale(0.015625)"/>
       <path id="ArialMT-66" d="M 556 0 
L 556 2881 
L 59 2881 
L 59 3319 
L 556 3319 
L 556 3672 
Q 556 4006 616 4169 
Q 697 4388 901 4523 
Q 1106 4659 1475 4659 
Q 1713 4659 2000 4603 
L 1916 4113 
Q 1741 4144 1584 4144 
Q 1328 4144 1222 4034 
Q 1116 3925 1116 3625 
L 1116 3319 
L 1763 3319 
L 1763 2881 
L 1116 2881 
L 1116 0 
L 556 0 
z
" transform="scale(0.015625)"/>
       <path id="ArialMT-43" d="M 3763 1606 
L 4369 1453 
Q 4178 706 3683 314 
Q 3188 -78 2472 -78 
Q 1731 -78 1267 223 
Q 803 525 561 1097 
Q 319 1669 319 2325 
Q 319 3041 592 3573 
Q 866 4106 1370 4382 
Q 1875 4659 2481 4659 
Q 3169 4659 3637 4309 
Q 4106 3959 4291 3325 
L 3694 3184 
Q 3534 3684 3231 3912 
Q 2928 4141 2469 4141 
Q 1941 4141 1586 3887 
Q 1231 3634 1087 3207 
Q 944 2781 944 2328 
Q 944 1744 1114 1308 
Q 1284 872 1643 656 
Q 2003 441 2422 441 
Q 2931 441 3284 734 
Q 3638 1028 3763 1606 
z
" transform="scale(0.015625)"/>
       <path id="ArialMT-61" d="M 2588 409 
Q 2275 144 1986 34 
Q 1697 -75 1366 -75 
Q 819 -75 525 192 
Q 231 459 231 875 
Q 231 1119 342 1320 
Q 453 1522 633 1644 
Q 813 1766 1038 1828 
Q 1203 1872 1538 1913 
Q 2219 1994 2541 2106 
Q 2544 2222 2544 2253 
Q 2544 2597 2384 2738 
Q 2169 2928 1744 2928 
Q 1347 2928 1158 2789 
Q 969 2650 878 2297 
L 328 2372 
Q 403 2725 575 2942 
Q 747 3159 1072 3276 
Q 1397 3394 1825 3394 
Q 2250 3394 2515 3294 
Q 2781 3194 2906 3042 
Q 3031 2891 3081 2659 
Q 3109 2516 3109 2141 
L 3109 1391 
Q 3109 606 3145 398 
Q 3181 191 3288 0 
L 2700 0 
Q 2613 175 2588 409 
z
M 2541 1666 
Q 2234 1541 1622 1453 
Q 1275 1403 1131 1340 
Q 988 1278 909 1158 
Q 831 1038 831 891 
Q 831 666 1001 516 
Q 1172 366 1500 366 
Q 1825 366 2078 508 
Q 2331 650 2450 897 
Q 2541 1088 2541 1459 
L 2541 1666 
z
" transform="scale(0.015625)"/>
       <path id="ArialMT-73" d="M 197 991 
L 753 1078 
Q 800 744 1014 566 
Q 1228 388 1613 388 
Q 2000 388 2187 545 
Q 2375 703 2375 916 
Q 2375 1106 2209 1216 
Q 2094 1291 1634 1406 
Q 1016 1563 777 1677 
Q 538 1791 414 1992 
Q 291 2194 291 2438 
Q 291 2659 392 2848 
Q 494 3038 669 3163 
Q 800 3259 1026 3326 
Q 1253 3394 1513 3394 
Q 1903 3394 2198 3281 
Q 2494 3169 2634 2976 
Q 2775 2784 2828 2463 
L 2278 2388 
Q 2241 2644 2061 2787 
Q 1881 2931 1553 2931 
Q 1166 2931 1000 2803 
Q 834 2675 834 2503 
Q 834 2394 903 2306 
Q 972 2216 1119 2156 
Q 1203 2125 1616 2013 
Q 2213 1853 2448 1751 
Q 2684 1650 2818 1456 
Q 2953 1263 2953 975 
Q 2953 694 2789 445 
Q 2625 197 2315 61 
Q 2006 -75 1616 -75 
Q 969 -75 630 194 
Q 291 463 197 991 
z
" transform="scale(0.015625)"/>
      </defs>
      <use xlink:href="#ArialMT-4e"/>
      <use xlink:href="#ArialMT-75" x="72.216797"/>
      <use xlink:href="#ArialMT-6d" x="127.832031"/>
      <use xlink:href="#ArialMT-62" x="211.132812"/>
      <use xlink:href="#ArialMT-65" x="266.748047"/>
      <use xlink:href="#ArialMT-72" x="322.363281"/>
      <use xlink:href="#ArialMT-20" x="355.664062"/>
      <use xlink:href="#ArialMT-6f" x="383.447266"/>
      <use xlink:href="#ArialMT-66" x="439.0625"/>
      <use xlink:href="#ArialMT-20" x="466.845703"/>
      <use xlink:href="#ArialMT-43" x="494.628906"/>
      <use xlink:href="#ArialMT-61" x="566.845703"/>
      <use xlink:href="#ArialMT-73" x="622.460938"/>
      <use xlink:href="#ArialMT-65" x="672.460938"/>
      <use xlink:href="#ArialMT-73" x="728.076172"/>
     </g>
    </g>
   </g>
   <g id="line2d_19">
    <path d="M 173.045455 291.736281 
L 173.753277 298.811581 
L 174.461099 300.335591 
L 175.168922 299.375789 
L 175.876744 294.648114 
L 176.584567 303.013959 
L 177.292389 304.36287 
L 178.000211 299.395244 
L 178.708034 292.190241 
L 179.415856 296.606629 
L 180.123679 292.923063 
L 180.831501 293.902321 
L 181.539323 298.506779 
L 182.247146 295.757074 
L 182.954968 298.098214 
L 183.662791 294.103361 
L 185.078436 295.095589 
L 185.786258 294.654599 
L 186.49408 297.534006 
L 187.201903 297.268115 
L 187.909725 296.100787 
L 188.617548 282.644099 
L 189.32537 282.047465 
L 190.033192 276.223799 
L 190.741015 275.737413 
L 191.448837 287.462566 
L 192.15666 267.241865 
L 192.864482 285.89316 
L 193.572304 285.290041 
L 194.280127 286.496279 
L 194.987949 281.068207 
L 195.695772 288.221329 
L 196.403594 264.245725 
L 197.111416 289.051428 
L 197.819239 280.614247 
L 198.527061 283.299099 
L 199.234884 268.07845 
L 199.942706 280.244593 
L 200.650529 286.230388 
L 201.358351 286.969695 
L 202.066173 277.125235 
L 202.773996 278.279592 
L 203.481818 280.309445 
L 204.189641 279.693355 
L 204.897463 276.184889 
L 205.605285 292.605291 
L 206.313108 277.695929 
L 207.02093 288.973606 
L 207.728753 274.155036 
L 208.436575 286.97618 
L 209.144397 282.157713 
L 209.85222 284.596129 
L 210.560042 280.199197 
L 211.267865 285.659694 
L 211.975687 285.517021 
L 212.68351 293.746678 
L 213.391332 295.128015 
L 214.099154 284.064347 
L 214.806977 291.658459 
L 215.514799 289.732369 
L 216.222622 299.025591 
L 216.930444 286.716774 
L 217.638266 287.39123 
L 218.346089 283.188852 
L 219.053911 281.807515 
L 219.761734 276.087611 
L 220.469556 286.113655 
L 221.177378 277.559741 
L 221.885201 285.03712 
L 222.593023 284.985239 
L 223.300846 286.100685 
L 224.008668 286.865932 
L 224.71649 282.345782 
L 225.424313 286.567615 
L 226.132135 285.504051 
L 226.839958 297.48861 
L 227.54778 289.686973 
L 228.255603 293.824499 
L 228.963425 290.958063 
L 229.671247 295.569005 
L 230.37907 288.597468 
L 231.086892 288.000834 
L 231.794715 294.790787 
L 232.502537 292.35237 
L 233.210359 292.391281 
L 233.918182 291.003459 
L 234.626004 290.659746 
L 235.333827 287.319893 
L 236.041649 293.169499 
L 236.749471 294.427619 
L 237.457294 289.674003 
L 238.165116 293.383509 
L 238.872939 289.044943 
L 239.580761 293.876381 
L 240.288584 292.196727 
L 240.996406 285.322466 
L 241.704228 295.556035 
L 242.412051 296.035936 
L 243.119873 293.83747 
L 243.827696 288.065685 
L 244.535518 291.074795 
L 245.24334 293.072222 
L 245.951163 291.314746 
L 246.658985 297.443214 
L 247.366808 298.338165 
L 248.07463 297.190293 
L 248.782452 295.465243 
L 249.490275 294.764846 
L 250.198097 293.526183 
L 250.90592 297.469154 
L 251.613742 298.039848 
L 252.321564 294.654599 
L 253.029387 296.476926 
L 253.737209 294.901035 
L 254.445032 296.211035 
L 255.152854 292.397766 
L 255.860677 293.026826 
L 256.568499 296.438015 
L 257.276321 301.528859 
L 257.984144 297.559946 
L 258.691966 294.343312 
L 259.399789 293.902321 
L 260.107611 288.376973 
L 260.815433 298.234402 
L 261.523256 299.42767 
L 262.231078 297.04762 
L 262.938901 298.753214 
L 263.646723 295.581975 
L 264.354545 297.326481 
L 265.062368 298.124155 
L 265.77019 296.600144 
L 266.478013 300.439354 
L 267.185835 298.915343 
L 267.893658 299.21366 
L 268.60148 297.242174 
L 269.309302 296.282372 
L 270.017125 295.108559 
L 270.724947 296.211035 
L 271.43277 300.672819 
L 272.140592 300.121581 
L 272.848414 298.895888 
L 274.971882 294.453559 
L 275.679704 296.40559 
L 276.387526 299.460096 
L 277.095349 294.680539 
L 277.803171 304.901137 
L 278.510994 301.814206 
L 279.218816 296.677966 
L 279.926638 296.412075 
L 281.342283 298.99965 
L 282.050106 298.78564 
L 282.757928 298.934798 
L 283.465751 298.137125 
L 284.173573 299.155294 
L 284.881395 301.249997 
L 285.589218 299.21366 
L 286.29704 300.685789 
L 287.004863 300.406928 
L 287.712685 296.470441 
L 288.420507 296.068362 
L 289.12833 298.247372 
L 289.836152 296.736332 
L 290.543975 296.535293 
L 291.251797 299.362818 
L 291.959619 300.147522 
L 292.667442 296.703907 
L 293.375264 295.685738 
L 294.790909 302.144948 
L 295.498732 302.903711 
L 296.914376 301.334304 
L 297.622199 297.923115 
L 298.330021 296.470441 
L 299.037844 300.750641 
L 299.745666 302.080097 
L 300.453488 301.671532 
L 301.161311 300.919255 
L 301.869133 301.982819 
L 303.284778 296.386134 
L 303.9926 295.244748 
L 304.700423 295.581975 
L 305.408245 294.589747 
L 306.116068 297.987966 
L 306.82389 298.506779 
L 307.531712 295.504154 
L 308.239535 294.622173 
L 308.947357 294.596232 
L 309.65518 295.627371 
L 310.363002 293.856925 
L 311.070825 299.116383 
L 311.778647 295.828411 
L 312.486469 296.327768 
L 313.194292 293.785589 
L 313.902114 296.236976 
L 314.609937 295.277173 
L 315.317759 298.928313 
L 316.025581 300.27074 
L 316.733404 293.325143 
L 317.441226 300.28371 
L 318.149049 295.938659 
L 318.856871 294.868609 
L 319.564693 293.578064 
L 320.272516 297.131927 
L 320.980338 297.605343 
L 321.688161 299.65465 
L 323.103805 295.614401 
L 323.811628 295.316084 
L 324.51945 296.256431 
L 325.227273 296.930887 
L 325.935095 299.86866 
L 326.642918 299.21366 
L 327.35074 296.690936 
L 328.058562 294.771332 
L 328.766385 295.179896 
L 329.474207 295.400391 
L 330.18203 296.937372 
L 330.889852 298.869947 
L 331.597674 300.218858 
L 332.305497 296.580689 
L 333.013319 295.569005 
L 333.721142 293.396479 
L 334.428964 295.659797 
L 335.136786 293.026826 
L 335.844609 298.720789 
L 336.552431 297.773956 
L 337.260254 293.201925 
L 337.968076 291.275835 
L 338.675899 288.338062 
L 339.383721 294.207123 
L 340.091543 294.699995 
L 340.799366 294.49247 
L 341.507188 296.308312 
L 342.922833 288.162963 
L 343.630655 285.588358 
L 344.338478 286.625982 
L 345.0463 286.126625 
L 345.754123 290.575439 
L 346.461945 289.181131 
L 347.87759 278.221226 
L 348.585412 275.478007 
L 349.293235 276.165433 
L 350.001057 272.870976 
L 350.708879 279.148603 
L 351.416702 279.466375 
L 352.124524 273.577858 
L 352.832347 261.930527 
L 353.540169 256.042009 
L 354.247992 257.676267 
L 354.955814 255.990128 
L 355.663636 269.200381 
L 356.371459 265.328746 
L 357.079281 251.197602 
L 357.787104 244.252005 
L 358.494926 245.691708 
L 359.202748 246.573689 
L 359.910571 242.993885 
L 360.618393 247.630768 
L 361.326216 268.253549 
L 362.034038 250.069185 
L 362.74186 208.648525 
L 363.449683 226.301107 
L 364.157505 236.664378 
L 364.865328 253.72681 
L 365.57315 247.144382 
L 366.280973 266.327459 
L 367.696617 228.817345 
L 368.40444 225.78878 
L 369.112262 232.24799 
L 369.820085 234.206506 
L 370.527907 252.358444 
L 371.235729 255.348098 
L 371.943552 233.895218 
L 372.651374 238.558042 
L 373.359197 235.996407 
L 374.067019 242.481558 
L 374.774841 245.523094 
L 375.482664 260.121169 
L 376.190486 248.188491 
L 376.898309 251.165176 
L 377.606131 253.117206 
L 378.313953 243.720222 
L 379.021776 255.049781 
L 379.729598 250.108096 
L 380.437421 261.23013 
L 381.145243 263.259983 
L 381.853066 254.401266 
L 383.26871 248.240373 
L 383.976533 253.837058 
L 384.684355 260.698348 
L 385.392178 271.30157 
L 386.1 271.132956 
L 387.515645 257.838396 
L 388.223467 262.695774 
L 388.93129 261.547903 
L 389.639112 263.525874 
L 390.346934 277.241968 
L 391.054757 276.651819 
L 391.762579 266.58038 
L 392.470402 262.961666 
L 393.178224 265.445478 
L 393.886047 270.400134 
L 394.593869 269.193896 
L 395.301691 278.915137 
L 396.009514 277.488404 
L 396.717336 268.402707 
L 397.425159 267.339143 
L 398.132981 263.668547 
L 398.840803 297.51455 
L 399.548626 276.120037 
L 400.256448 282.138257 
L 401.672093 266.003201 
L 402.379915 251.281908 
L 403.087738 259.686664 
L 404.503383 264.576468 
L 405.211205 273.2536 
L 405.919027 274.920284 
L 406.62685 261.275526 
L 407.334672 259.621813 
L 408.042495 262.877359 
L 408.750317 261.132853 
L 409.45814 265.536271 
L 410.165962 276.930681 
L 410.873784 272.553204 
L 411.581607 259.414288 
L 412.289429 264.65429 
L 412.997252 255.957702 
L 413.705074 262.352061 
L 414.412896 264.511617 
L 415.120719 272.981224 
L 415.828541 272.832065 
L 416.536364 264.894241 
L 417.244186 263.636121 
L 417.952008 262.825477 
L 418.659831 270.276916 
L 419.367653 273.979937 
L 420.075476 284.155139 
L 420.783298 279.725781 
L 421.491121 268.765876 
L 422.198943 263.804735 
L 422.906765 263.3832 
L 423.614588 268.422163 
L 424.32241 271.567461 
L 425.030233 278.869741 
L 425.738055 278.668701 
L 426.445877 270.387164 
L 427.1537 267.773648 
L 427.861522 269.58949 
L 428.569345 269.271718 
L 429.277167 272.987709 
L 429.984989 281.360039 
L 430.692812 280.11489 
L 431.400634 272.352164 
L 432.108457 269.79053 
L 432.816279 271.126471 
L 433.524101 269.557064 
L 434.231924 275.199146 
L 434.939746 284.518308 
L 435.647569 283.09806 
L 436.355391 274.219888 
L 437.063214 271.716619 
L 437.771036 268.162757 
L 438.478858 272.864491 
L 439.186681 271.275629 
L 439.894503 278.629791 
L 440.602326 265.406568 
L 441.310148 270.134243 
L 442.01797 263.558299 
L 443.433615 272.358649 
L 444.141438 264.790478 
L 444.84926 262.306665 
L 445.557082 280.31593 
L 446.264905 271.411817 
L 446.972727 252.494632 
L 447.68055 255.062752 
L 448.388372 251.281908 
L 449.096195 255.503742 
L 449.804017 263.895527 
L 450.511839 260.627011 
L 451.219662 256.029039 
L 451.927484 239.576211 
L 452.635307 236.547645 
L 453.343129 245.763045 
L 454.050951 250.802007 
L 454.758774 253.110721 
L 455.466596 230.788831 
L 456.174419 227.94185 
L 456.882241 223.946997 
L 457.590063 217.526697 
L 458.297886 214.569468 
L 459.005708 215.574667 
L 459.713531 244.115817 
L 460.421353 237.689032 
L 461.129175 213.771795 
L 461.836998 198.927284 
L 462.54482 202.468176 
L 463.252643 206.793772 
L 463.960465 191.054311 
L 464.668288 229.744722 
L 465.37611 220.976798 
L 466.083932 203.369612 
L 466.791755 195.918174 
L 467.499577 183.090545 
L 468.2074 189.030943 
L 468.915222 164.024201 
L 469.623044 219.303629 
L 470.330867 216.430707 
L 471.038689 200.665304 
L 471.746512 177.610592 
L 472.454334 174.809007 
L 473.162156 178.80386 
L 473.869979 162.934696 
L 474.577801 191.274806 
L 475.285624 225.516403 
L 475.993446 127.006959 
L 476.701268 191.916836 
L 477.409091 136.319636 
L 478.116913 170.723362 
L 478.824736 173.589799 
L 479.532558 191.158073 
L 480.240381 197.967482 
L 480.948203 170.496382 
L 481.656025 176.320047 
L 482.363848 158.213506 
L 483.07167 183.349951 
L 483.779493 185.503021 
L 484.487315 202.150404 
L 485.195137 207.319069 
L 485.90296 195.444758 
L 486.610782 187.980349 
L 487.318605 198.34362 
L 488.026427 173.401729 
L 488.734249 189.056884 
L 489.442072 218.441104 
L 490.149894 225.062443 
L 491.565539 207.202337 
L 492.273362 212.617438 
L 492.981184 222.085758 
L 493.689006 238.849874 
L 494.396829 249.297452 
L 495.104651 243.999084 
L 495.812474 243.240321 
L 496.520296 239.031458 
L 497.228118 236.807051 
L 497.935941 229.310217 
L 498.643763 254.3429 
L 499.351586 252.358444 
L 500.059408 261.924041 
L 500.76723 257.423347 
L 501.475053 258.830624 
L 502.182875 257.812456 
L 502.890698 263.376715 
L 503.59852 262.994091 
L 504.306342 279.005929 
L 505.014165 284.291327 
L 506.42981 270.387164 
L 507.137632 270.387164 
L 507.845455 273.772412 
L 508.553277 279.427464 
L 509.261099 279.550682 
L 509.968922 287.255041 
L 510.676744 284.239446 
L 511.384567 259.531021 
L 512.092389 282.222564 
L 512.800211 285.938556 
L 513.508034 287.760883 
L 514.215856 293.065737 
L 514.923679 299.803809 
L 515.631501 296.548263 
L 516.339323 292.657172 
L 517.047146 290.769993 
L 517.754968 291.048855 
L 518.462791 294.362767 
L 519.170613 298.779155 
L 519.878436 290.886726 
L 520.586258 295.296629 
L 521.29408 295.750589 
L 522.001903 295.115045 
L 522.709725 295.536579 
L 523.417548 297.9296 
L 524.12537 302.475691 
L 524.833192 300.380987 
L 525.541015 299.693561 
L 526.248837 298.409501 
L 526.95666 299.499007 
L 527.664482 295.465243 
L 528.372304 304.985444 
L 529.080127 301.587225 
L 529.787949 302.410839 
L 530.495772 301.645592 
L 531.203594 302.871285 
L 531.911416 302.735097 
L 532.619239 303.772721 
L 533.327061 304.174801 
L 534.034884 305.530197 
L 534.742706 305.88688 
L 535.450529 305.037326 
L 536.158351 305.23188 
L 536.866173 305.160544 
L 537.573996 304.739009 
L 538.281818 305.400494 
L 538.989641 306.619703 
L 539.697463 306.250049 
L 540.405285 305.24485 
L 541.113108 306.535396 
L 541.82093 306.820742 
L 542.528753 306.353811 
L 543.236575 306.489999 
L 543.944397 307.436832 
L 544.65222 307.553564 
L 545.360042 307.203366 
L 546.067865 304.953019 
L 546.775687 307.268218 
L 547.48351 307.715693 
L 548.191332 306.866138 
L 548.899154 307.8 
L 549.606977 307.566535 
L 550.314799 307.086633 
L 551.022622 307.021782 
L 551.730444 305.595049 
L 553.146089 306.872623 
L 553.853911 305.789603 
L 554.561734 303.454949 
L 555.269556 298.325194 
L 555.977378 290.225241 
L 556.685201 285.114942 
L 557.393023 279.03187 
L 558.100846 282.644099 
L 558.808668 273.487066 
L 559.51649 238.947151 
L 560.224313 196.495352 
L 561.639958 137.876072 
L 562.34778 122.56463 
L 563.055603 93.310114 
L 563.763425 126.64379 
L 564.471247 99.289423 
L 565.17907 88.822389 
L 565.886892 67.239806 
L 566.594715 55.8 
L 567.302537 67.797529 
L 568.010359 68.05045 
L 568.718182 123.783839 
L 569.426004 159.562417 
L 570.133827 107.772001 
L 570.841649 96.410016 
L 571.549471 110.443883 
L 572.257294 115.301261 
L 572.965116 146.767214 
L 573.672939 193.784559 
L 574.380761 206.385208 
L 575.088584 190.126934 
L 575.796406 190.840301 
L 576.504228 195.632827 
L 577.212051 198.363076 
L 577.919873 213.681003 
L 578.627696 246.489382 
L 579.335518 258.357208 
L 580.04334 254.920078 
L 580.751163 252.468691 
L 581.458985 259.420773 
L 582.166808 255.348098 
L 582.87463 263.636121 
L 583.582452 286.807566 
L 584.290275 284.881476 
L 584.998097 279.330187 
L 585.70592 288.000834 
L 586.413742 283.662268 
L 587.121564 288.973606 
L 587.829387 290.594894 
L 588.537209 294.901035 
L 589.245032 290.62732 
L 589.952854 293.616975 
L 590.660677 294.032024 
L 591.368499 296.035936 
L 592.076321 298.422472 
L 592.784144 299.278512 
L 593.491966 302.942622 
L 594.199789 298.617026 
L 594.907611 297.268115 
L 595.615433 297.806382 
L 596.323256 300.543116 
L 597.738901 301.710443 
L 598.446723 300.971136 
L 599.154545 302.274651 
L 599.862368 301.470493 
L 600.57019 302.397869 
L 601.278013 301.820691 
L 601.985835 302.255196 
L 602.693658 267.02137 
L 607.648414 281.068207 
L 612.603171 284.693407 
L 617.557928 290.179845 
L 622.512685 290.484647 
L 627.467442 295.497668 
L 632.422199 297.002223 
L 637.376956 298.35762 
L 642.331712 298.78564 
L 647.286469 300.569057 
L 652.241226 300.607967 
L 662.15074 299.317422 
L 667.105497 299.460096 
L 672.060254 296.950342 
L 677.015011 288.07217 
L 681.969767 277.806176 
L 686.924524 259.881219 
L 691.879281 241.24938 
L 696.834038 181.164455 
L 701.788795 151.566226 
L 706.743552 130.612703 
L 711.698309 126.222255 
L 716.653066 152.973504 
L 721.607822 182.941387 
L 726.562579 196.670451 
L 731.517336 208.123228 
L 736.472093 212.48125 
L 741.42685 191.832529 
L 746.381607 203.985702 
L 751.336364 214.906696 
L 756.291121 208.544763 
L 766.200634 230.068979 
L 771.155391 248.914828 
L 776.110148 266.703598 
L 781.064905 249.044531 
L 786.019662 255.951217 
L 795.929175 257.721663 
L 800.883932 254.083494 
L 805.838689 258.752803 
L 810.793446 270.957857 
L 820.70296 287.579299 
L 825.657717 288.830933 
L 830.612474 295.594946 
L 835.56723 300.037274 
L 840.521987 301.295393 
L 845.476744 300.718215 
L 850.431501 302.054156 
L 855.386258 302.462721 
L 860.341015 301.937423 
L 870.250529 300.264254 
L 880.160042 296.697421 
L 885.114799 295.251233 
L 890.069556 292.384796 
L 895.024313 287.443111 
L 909.888584 227.351701 
L 919.798097 232.196109 
L 924.752854 248.798096 
L 929.707611 264.861815 
L 933.954545 280.095435 
L 933.954545 280.095435 
" clip-path="url(#p626d0ad54f)" style="fill: none; stroke: #008080; stroke-width: 1.5; stroke-linecap: round"/>
   </g>
   <g id="patch_3">
    <path d="M 135 320.4 
L 135 43.2 
" style="fill: none; stroke: #262626; stroke-width: 1.25; stroke-linejoin: miter; stroke-linecap: square"/>
   </g>
   <g id="patch_4">
    <path d="M 972 320.4 
L 972 43.2 
" style="fill: none; stroke: #262626; stroke-width: 1.25; stroke-linejoin: miter; stroke-linecap: square"/>
   </g>
   <g id="patch_5">
    <path d="M 135 320.4 
L 972 320.4 
" style="fill: none; stroke: #262626; stroke-width: 1.25; stroke-linejoin: miter; stroke-linecap: square"/>
   </g>
   <g id="patch_6">
    <path d="M 135 43.2 
L 972 43.2 
" style="fill: none; stroke: #262626; stroke-width: 1.25; stroke-linejoin: miter; stroke-linecap: square"/>
   </g>
   <g id="text_20">
    <!-- Covid-19 Weekly Cases -->
    <g style="fill: #262626" transform="translate(489.585 37.2) scale(0.12 -0.12)">
     <defs>
      <path id="ArialMT-76" d="M 1344 0 
L 81 3319 
L 675 3319 
L 1388 1331 
Q 1503 1009 1600 663 
Q 1675 925 1809 1294 
L 2547 3319 
L 3125 3319 
L 1869 0 
L 1344 0 
z
" transform="scale(0.015625)"/>
      <path id="ArialMT-69" d="M 425 3934 
L 425 4581 
L 988 4581 
L 988 3934 
L 425 3934 
z
M 425 0 
L 425 3319 
L 988 3319 
L 988 0 
L 425 0 
z
" transform="scale(0.015625)"/>
      <path id="ArialMT-64" d="M 2575 0 
L 2575 419 
Q 2259 -75 1647 -75 
Q 1250 -75 917 144 
Q 584 363 401 755 
Q 219 1147 219 1656 
Q 219 2153 384 2558 
Q 550 2963 881 3178 
Q 1213 3394 1622 3394 
Q 1922 3394 2156 3267 
Q 2391 3141 2538 2938 
L 2538 4581 
L 3097 4581 
L 3097 0 
L 2575 0 
z
M 797 1656 
Q 797 1019 1065 703 
Q 1334 388 1700 388 
Q 2069 388 2326 689 
Q 2584 991 2584 1609 
Q 2584 2291 2321 2609 
Q 2059 2928 1675 2928 
Q 1300 2928 1048 2622 
Q 797 2316 797 1656 
z
" transform="scale(0.015625)"/>
      <path id="ArialMT-57" d="M 1294 0 
L 78 4581 
L 700 4581 
L 1397 1578 
Q 1509 1106 1591 641 
Q 1766 1375 1797 1488 
L 2669 4581 
L 3400 4581 
L 4056 2263 
Q 4303 1400 4413 641 
Q 4500 1075 4641 1638 
L 5359 4581 
L 5969 4581 
L 4713 0 
L 4128 0 
L 3163 3491 
Q 3041 3928 3019 4028 
Q 2947 3713 2884 3491 
L 1913 0 
L 1294 0 
z
" transform="scale(0.015625)"/>
      <path id="ArialMT-6b" d="M 425 0 
L 425 4581 
L 988 4581 
L 988 1969 
L 2319 3319 
L 3047 3319 
L 1778 2088 
L 3175 0 
L 2481 0 
L 1384 1697 
L 988 1316 
L 988 0 
L 425 0 
z
" transform="scale(0.015625)"/>
      <path id="ArialMT-6c" d="M 409 0 
L 409 4581 
L 972 4581 
L 972 0 
L 409 0 
z
" transform="scale(0.015625)"/>
      <path id="ArialMT-79" d="M 397 -1278 
L 334 -750 
Q 519 -800 656 -800 
Q 844 -800 956 -737 
Q 1069 -675 1141 -563 
Q 1194 -478 1313 -144 
Q 1328 -97 1363 -6 
L 103 3319 
L 709 3319 
L 1400 1397 
Q 1534 1031 1641 628 
Q 1738 1016 1872 1384 
L 2581 3319 
L 3144 3319 
L 1881 -56 
Q 1678 -603 1566 -809 
Q 1416 -1088 1222 -1217 
Q 1028 -1347 759 -1347 
Q 597 -1347 397 -1278 
z
" transform="scale(0.015625)"/>
     </defs>
     <use xlink:href="#ArialMT-43"/>
     <use xlink:href="#ArialMT-6f" x="72.216797"/>
     <use xlink:href="#ArialMT-76" x="127.832031"/>
     <use xlink:href="#ArialMT-69" x="177.832031"/>
     <use xlink:href="#ArialMT-64" x="200.048828"/>
     <use xlink:href="#ArialMT-2d" x="255.664062"/>
     <use xlink:href="#ArialMT-31" x="288.964844"/>
     <use xlink:href="#ArialMT-39" x="344.580078"/>
     <use xlink:href="#ArialMT-20" x="400.195312"/>
     <use xlink:href="#ArialMT-57" x="427.978516"/>
     <use xlink:href="#ArialMT-65" x="520.613281"/>
     <use xlink:href="#ArialMT-65" x="576.228516"/>
     <use xlink:href="#ArialMT-6b" x="631.84375"/>
     <use xlink:href="#ArialMT-6c" x="681.84375"/>
     <use xlink:href="#ArialMT-79" x="704.060547"/>
     <use xlink:href="#ArialMT-20" x="754.060547"/>
     <use xlink:href="#ArialMT-43" x="781.84375"/>
     <use xlink:href="#ArialMT-61" x="854.060547"/>
     <use xlink:href="#ArialMT-73" x="909.675781"/>
     <use xlink:href="#ArialMT-65" x="959.675781"/>
     <use xlink:href="#ArialMT-73" x="1015.291016"/>
    </g>
   </g>
   <g id="legend_1">
    <g id="patch_7">
     <path d="M 959.9 57.5 
L 964.3 57.5 
Q 966.5 57.5 966.5 55.3 
L 966.5 50.9 
Q 966.5 48.7 964.3 48.7 
L 959.9 48.7 
Q 957.7 48.7 957.7 50.9 
L 957.7 55.3 
Q 957.7 57.5 959.9 57.5 
z
" style="fill: #ffffff; opacity: 0.8; stroke: #cccccc; stroke-linejoin: miter"/>
    </g>
   </g>
  </g>
 </g>
 <defs>
  <clipPath id="p626d0ad54f">
   <rect x="135" y="43.2" width="837" height="277.2"/>
  </clipPath>
 </defs>
</svg>
